<?xml version="1.0" encoding="UTF-8" standalone="no"?>
<!DOCTYPE svg PUBLIC "-//W3C//DTD SVG 1.1//EN" "http://www.w3.org/Graphics/SVG/1.1/DTD/svg11.dtd">
<svg width="100%" height="100%" viewBox="0 0 1440 1080" version="1.1" xmlns="http://www.w3.org/2000/svg" xmlns:xlink="http://www.w3.org/1999/xlink" xml:space="preserve" xmlns:serif="http://www.serif.com/" style="fill-rule:evenodd;clip-rule:evenodd;stroke-linecap:round;stroke-linejoin:round;stroke-miterlimit:1.41421;">
    <g transform="matrix(1.25,0,0,1.25,0,0)">
        <g transform="matrix(1,0,0,1,-30.7329,447.388)">
            <path d="M611.085,59.031C611.085,66.545 604.993,72.638 597.479,72.638C589.964,72.638 583.873,66.545 583.873,59.031C583.873,51.516 589.964,45.424 597.479,45.424C604.993,45.424 611.085,51.516 611.085,59.031Z" style="fill:none;stroke:rgb(255,0,0);stroke-width:0.24px;"/>
        </g>
        <g transform="matrix(1,0,0,1,-50.2937,66.6089)">
            <path d="M525.744,59.031C525.744,66.545 519.651,72.638 512.138,72.638C504.623,72.638 498.532,66.545 498.532,59.031C498.532,51.516 504.623,45.424 512.138,45.424C519.651,45.424 525.744,51.516 525.744,59.031Z" style="fill:none;stroke:rgb(255,0,0);stroke-width:0.24px;"/>
        </g>
        <g transform="matrix(0.661473,0,0,0.661473,184.115,467.912)">
            <path d="M525.744,59.031C525.744,66.545 519.651,72.638 512.138,72.638C504.623,72.638 498.532,66.545 498.532,59.031C498.532,51.516 504.623,45.424 512.138,45.424C519.651,45.424 525.744,51.516 525.744,59.031Z" style="fill:none;stroke:rgb(255,0,0);stroke-width:0.36px;"/>
        </g>
        <g transform="matrix(1.58027,0,0,1.58027,-97.2505,-73.0869)">
            <path d="M189.337,107.204C189.337,110.984 186.272,114.049 182.492,114.049C178.712,114.049 175.647,110.984 175.647,107.204C175.647,103.424 178.712,100.359 182.492,100.359C186.272,100.359 189.337,103.424 189.337,107.204Z" style="fill:none;stroke:rgb(255,0,0);stroke-width:0.13px;"/>
        </g>
        <g transform="matrix(1.5775,0,0,1.5775,-114.313,-89.832)">
            <path d="M206.067,136.714C206.067,140.494 209.132,143.559 212.912,143.559C216.692,143.559 219.757,140.494 219.757,136.714C219.757,132.934 216.692,129.869 212.912,129.869C209.132,129.869 206.067,132.934 206.067,136.714Z" style="fill:none;stroke:rgb(255,0,0);stroke-width:0.13px;"/>
        </g>
        <g transform="matrix(1.57718,0,0,1.57718,-96.6861,-106.728)">
            <path d="M175.647,166.064C175.647,169.844 178.712,172.909 182.492,172.909C186.272,172.909 189.337,169.844 189.337,166.064C189.337,162.284 186.272,159.219 182.492,159.219C178.712,159.219 175.647,162.284 175.647,166.064Z" style="fill:none;stroke:rgb(255,0,0);stroke-width:0.13px;"/>
        </g>
        <g transform="matrix(1.57995,0,0,1.57995,-79.5496,-90.1667)">
            <path d="M145.227,136.714C145.227,140.494 148.292,143.559 152.072,143.559C155.852,143.559 158.917,140.494 158.917,136.714C158.917,132.934 155.852,129.869 152.072,129.869C148.292,129.869 145.227,132.934 145.227,136.714Z" style="fill:none;stroke:rgb(255,0,0);stroke-width:0.13px;"/>
        </g>
        <g transform="matrix(1,0,0,1,8.64469,-10.8793)">
            <path d="M36.358,79.226C36.358,80.948 34.962,82.344 33.24,82.344C31.518,82.344 30.121,80.948 30.121,79.226C30.121,77.505 31.518,76.108 33.24,76.108C34.962,76.108 36.358,77.505 36.358,79.226Z" style="fill:none;stroke:rgb(255,0,0);stroke-width:0.2px;"/>
        </g>
        <g transform="matrix(1,0,0,1,8.64469,-10.8793)">
            <path d="M242.818,79.226C242.818,80.948 241.422,82.344 239.7,82.344C237.978,82.344 236.582,80.948 236.582,79.226C236.582,77.505 237.978,76.108 239.7,76.108C241.422,76.108 242.818,77.505 242.818,79.226Z" style="fill:none;stroke:rgb(255,0,0);stroke-width:0.2px;"/>
        </g>
        <g transform="matrix(1,0,0,1,8.64469,-10.8793)">
            <path d="M242.818,192.986C242.818,194.708 241.422,196.104 239.7,196.104C237.978,196.104 236.582,194.708 236.582,192.986C236.582,191.264 237.978,189.868 239.7,189.868C241.422,189.868 242.818,191.264 242.818,192.986Z" style="fill:none;stroke:rgb(255,0,0);stroke-width:0.2px;"/>
        </g>
        <g transform="matrix(1,0,0,1,8.64469,-10.8793)">
            <path d="M36.358,192.986C36.358,194.708 34.962,196.104 33.24,196.104C31.518,196.104 30.121,194.708 30.121,192.986C30.121,191.264 31.518,189.868 33.24,189.868C34.962,189.868 36.358,191.264 36.358,192.986Z" style="fill:none;stroke:rgb(255,0,0);stroke-width:0.2px;"/>
        </g>
        <g transform="matrix(1,0,0,1,-15.6323,-7.83492)">
            <path d="M486.708,331.234C486.708,332.956 485.312,334.352 483.59,334.352C481.868,334.352 480.472,332.956 480.472,331.234C480.472,329.512 481.868,328.116 483.59,328.116C485.312,328.116 486.708,329.512 486.708,331.234Z" style="fill:none;stroke:rgb(255,0,0);stroke-width:0.24px;"/>
        </g>
        <g transform="matrix(1,0,0,1,-15.6323,-7.83492)">
            <path d="M628.548,331.234C628.548,332.956 627.152,334.352 625.43,334.352C623.708,334.352 622.312,332.956 622.312,331.234C622.312,329.512 623.708,328.116 625.43,328.116C627.152,328.116 628.548,329.512 628.548,331.234Z" style="fill:none;stroke:rgb(255,0,0);stroke-width:0.24px;"/>
        </g>
        <g transform="matrix(1,0,0,1,-15.6323,-7.83492)">
            <path d="M486.708,423.754C486.708,425.476 485.312,426.872 483.59,426.872C481.868,426.872 480.472,425.476 480.472,423.754C480.472,422.032 481.868,420.636 483.59,420.636C485.312,420.636 486.708,422.032 486.708,423.754Z" style="fill:none;stroke:rgb(255,0,0);stroke-width:0.24px;"/>
        </g>
        <g transform="matrix(1,0,0,1,-15.6323,-7.83492)">
            <path d="M628.548,423.754C628.548,425.476 627.152,426.872 625.43,426.872C623.708,426.872 622.312,425.476 622.312,423.754C622.312,422.032 623.708,420.636 625.43,420.636C627.152,420.636 628.548,422.032 628.548,423.754Z" style="fill:none;stroke:rgb(255,0,0);stroke-width:0.24px;"/>
        </g>
        <g transform="matrix(1,0,0,1,-15.6323,2.70277)">
            <path d="M466.4,426.192C466.4,428.776 464.304,430.871 461.72,430.871C459.136,430.871 457.041,428.776 457.041,426.192C457.041,423.607 459.136,421.512 461.72,421.512C464.304,421.512 466.4,423.607 466.4,426.192Z" style="fill:none;stroke:rgb(255,0,0);stroke-width:0.24px;"/>
        </g>
        <g transform="matrix(1,0,0,1,-15.6323,2.70277)">
            <path d="M273.44,426.192C273.44,428.776 271.344,430.871 268.76,430.871C266.176,430.871 264.081,428.776 264.081,426.192C264.081,423.607 266.176,421.512 268.76,421.512C271.344,421.512 273.44,423.607 273.44,426.192Z" style="fill:none;stroke:rgb(255,0,0);stroke-width:0.24px;"/>
        </g>
        <g transform="matrix(1,0,0,1,-15.6323,2.70277)">
            <path d="M273.44,257.712C273.44,260.296 271.344,262.391 268.76,262.391C266.176,262.391 264.081,260.296 264.081,257.712C264.081,255.127 266.176,253.032 268.76,253.032C271.344,253.032 273.44,255.127 273.44,257.712Z" style="fill:none;stroke:rgb(255,0,0);stroke-width:0.24px;"/>
        </g>
        <g transform="matrix(1,0,0,1,-15.6323,2.70277)">
            <path d="M466.4,257.712C466.4,260.296 464.304,262.391 461.72,262.391C459.136,262.391 457.041,260.296 457.041,257.712C457.041,255.127 459.136,253.032 461.72,253.032C464.304,253.032 466.4,255.127 466.4,257.712Z" style="fill:none;stroke:rgb(255,0,0);stroke-width:0.24px;"/>
        </g>
        <g transform="matrix(0.975852,0,0,0.892292,0.78497,16.8541)">
            <path d="M668.108,257.23C668.108,250.493 663.107,245.024 656.947,245.024L27.063,245.024C20.903,245.024 15.902,250.493 15.902,257.23L15.902,476.936C15.902,483.673 20.903,489.142 27.063,489.142L656.947,489.142C663.107,489.142 668.108,483.673 668.108,476.936L668.108,257.23Z" style="fill:none;stroke:rgb(255,0,0);stroke-width:0.21px;stroke-miterlimit:1.5;"/>
        </g>
        <g transform="matrix(1,0,0,1,-7.91729,3.16812)">
            <path d="M641.51,255.764C641.51,258.348 639.415,260.443 636.831,260.443C634.246,260.443 632.151,258.348 632.151,255.764C632.151,253.18 634.246,251.085 636.831,251.085C639.415,251.085 641.51,253.18 641.51,255.764Z" style="fill:none;stroke:rgb(255,0,0);stroke-width:0.24px;"/>
        </g>
        <g transform="matrix(1,0,0,1,-7.91729,-29.9583)">
            <path d="M641.51,459.826C641.51,462.41 639.415,464.506 636.831,464.506C634.246,464.506 632.151,462.41 632.151,459.826C632.151,457.241 634.246,455.146 636.831,455.146C639.415,455.146 641.51,457.241 641.51,459.826Z" style="fill:none;stroke:rgb(255,0,0);stroke-width:0.24px;"/>
        </g>
        <g transform="matrix(1,0,0,1,-596.712,3.16812)">
            <path d="M641.51,255.764C641.51,258.348 639.415,260.443 636.831,260.443C634.246,260.443 632.151,258.348 632.151,255.764C632.151,253.18 634.246,251.085 636.831,251.085C639.415,251.085 641.51,253.18 641.51,255.764Z" style="fill:none;stroke:rgb(255,0,0);stroke-width:0.24px;"/>
        </g>
        <g transform="matrix(1,0,0,1,-596.712,-29.9583)">
            <path d="M641.51,459.826C641.51,462.41 639.415,464.506 636.831,464.506C634.246,464.506 632.151,462.41 632.151,459.826C632.151,457.241 634.246,455.146 636.831,455.146C639.415,455.146 641.51,457.241 641.51,459.826Z" style="fill:none;stroke:rgb(255,0,0);stroke-width:0.24px;"/>
        </g>
        <g transform="matrix(1,0,0,0.877271,8.64469,2.11842)">
            <rect x="29.567" y="105.906" width="99.49" height="65.658" style="fill:none;stroke:rgb(255,0,0);stroke-width:0.21px;stroke-miterlimit:1.5;"/>
        </g>
        <g transform="matrix(0.465809,0,0,0.586277,8.81172,75.0955)">
            <rect x="81.897" y="282.114" width="38.642" height="15.351" style="fill:none;stroke:rgb(255,0,0);stroke-width:0.38px;stroke-miterlimit:1.5;"/>
        </g>
        <g transform="matrix(0.465809,0,0,0.586277,566.531,75.0955)">
            <rect x="81.897" y="282.114" width="38.642" height="15.351" style="fill:none;stroke:rgb(255,0,0);stroke-width:0.38px;stroke-miterlimit:1.5;"/>
        </g>
        <g transform="matrix(0.465809,0,0,0.586277,8.81172,273.072)">
            <rect x="81.897" y="282.114" width="38.642" height="15.351" style="fill:none;stroke:rgb(255,0,0);stroke-width:0.38px;stroke-miterlimit:1.5;"/>
        </g>
        <g transform="matrix(0.465809,0,0,0.586277,566.531,273.072)">
            <rect x="81.897" y="282.114" width="38.642" height="15.351" style="fill:none;stroke:rgb(255,0,0);stroke-width:0.38px;stroke-miterlimit:1.5;"/>
        </g>
        <g transform="matrix(1,0,0,1,0.780848,-26.5925)">
            <path d="M64.96,571.655L64.96,580.655L46.96,580.655L46.96,571.655L29.784,571.655L29.784,492.455L46.96,492.455L46.96,483.455L64.96,483.455L64.96,492.455L604.68,492.455L604.68,483.455L622.68,483.455L622.68,492.455L638.723,492.455L638.723,571.655L622.68,571.655L622.68,580.655L604.68,580.655L604.68,571.655L64.96,571.655Z" style="fill:none;stroke:rgb(255,0,0);stroke-width:0.2px;stroke-miterlimit:1.5;"/>
        </g>
        <g transform="matrix(1,0,0,1,28.1564,65.7376)">
            <path d="M64.96,571.655L64.96,580.655L46.96,580.655L46.96,571.655L29.784,571.655L29.784,492.455L46.96,492.455L46.96,483.455L64.96,483.455L64.96,492.455L604.68,492.455L604.68,483.455L622.68,483.455L622.68,492.455L638.723,492.455L638.723,571.655L622.68,571.655L622.68,580.655L604.68,580.655L604.68,571.655L64.96,571.655Z" style="fill:none;stroke:rgb(255,0,0);stroke-width:0.2px;stroke-miterlimit:1.5;"/>
        </g>
        <g transform="matrix(2.85226e-17,-0.465809,0.586277,3.58991e-17,473.326,465.767)">
            <rect x="81.897" y="282.114" width="38.642" height="15.351" style="fill:none;stroke:rgb(255,0,0);stroke-width:0.38px;stroke-miterlimit:1.5;"/>
        </g>
        <g transform="matrix(2.85226e-17,-0.465809,0.586277,3.58991e-17,473.326,325.31)">
            <rect x="81.897" y="282.114" width="38.642" height="15.351" style="fill:none;stroke:rgb(255,0,0);stroke-width:0.38px;stroke-miterlimit:1.5;"/>
        </g>
        <g transform="matrix(1,0,0,1,-18.093,-19.6438)">
            <path d="M763.414,419.957L772.414,419.957L772.414,437.957L763.414,437.957L763.414,457.839L684.214,457.839L684.214,437.957L675.214,437.957L675.214,419.957L684.214,419.957L684.214,297.5L675.214,297.5L675.214,279.5L684.214,279.5L684.214,250.831L763.414,250.831L763.414,279.5L772.414,279.5L772.414,297.5L763.414,297.5L763.414,419.957Z" style="fill:none;stroke:rgb(255,0,0);stroke-width:0.2px;stroke-miterlimit:1.5;"/>
        </g>
        <g transform="matrix(1,0,0,1,-18.093,-233.141)">
            <path d="M763.414,419.957L772.414,419.957L772.414,437.957L763.414,437.957L763.414,457.839L684.214,457.839L684.214,437.957L675.214,437.957L675.214,419.957L684.214,419.957L684.214,297.5L675.214,297.5L675.214,279.5L684.214,279.5L684.214,250.831L763.414,250.831L763.414,279.5L772.414,279.5L772.414,297.5L763.414,297.5L763.414,419.957Z" style="fill:none;stroke:rgb(255,0,0);stroke-width:0.2px;stroke-miterlimit:1.5;"/>
        </g>
        <g transform="matrix(2.85226e-17,-0.465809,0.586277,3.58991e-17,-144.612,465.767)">
            <rect x="81.897" y="282.114" width="38.642" height="15.351" style="fill:none;stroke:rgb(255,0,0);stroke-width:0.38px;stroke-miterlimit:1.5;"/>
        </g>
        <g transform="matrix(2.85226e-17,-0.465809,0.586277,3.58991e-17,-144.612,325.31)">
            <rect x="81.897" y="282.114" width="38.642" height="15.351" style="fill:none;stroke:rgb(255,0,0);stroke-width:0.38px;stroke-miterlimit:1.5;"/>
        </g>
        <g transform="matrix(0.975852,0,0,0.892292,0.78497,-204.397)">
            <path d="M668.108,257.23C668.108,250.493 663.107,245.024 656.947,245.024L27.063,245.024C20.903,245.024 15.902,250.493 15.902,257.23L15.902,476.936C15.902,483.673 20.903,489.142 27.063,489.142L656.947,489.142C663.107,489.142 668.108,483.673 668.108,476.936L668.108,257.23Z" style="fill:none;stroke:rgb(255,0,0);stroke-width:0.21px;stroke-miterlimit:1.5;"/>
        </g>
        <g transform="matrix(1,0,0,1,-7.91729,-218.083)">
            <path d="M641.51,255.764C641.51,258.348 639.415,260.443 636.831,260.443C634.246,260.443 632.151,258.348 632.151,255.764C632.151,253.18 634.246,251.085 636.831,251.085C639.415,251.085 641.51,253.18 641.51,255.764Z" style="fill:none;stroke:rgb(255,0,0);stroke-width:0.24px;"/>
        </g>
        <g transform="matrix(1,0,0,1,-7.91729,-251.209)">
            <path d="M641.51,459.826C641.51,462.41 639.415,464.506 636.831,464.506C634.246,464.506 632.151,462.41 632.151,459.826C632.151,457.241 634.246,455.146 636.831,455.146C639.415,455.146 641.51,457.241 641.51,459.826Z" style="fill:none;stroke:rgb(255,0,0);stroke-width:0.24px;"/>
        </g>
        <g transform="matrix(1,0,0,1,-596.712,-218.083)">
            <path d="M641.51,255.764C641.51,258.348 639.415,260.443 636.831,260.443C634.246,260.443 632.151,258.348 632.151,255.764C632.151,253.18 634.246,251.085 636.831,251.085C639.415,251.085 641.51,253.18 641.51,255.764Z" style="fill:none;stroke:rgb(255,0,0);stroke-width:0.24px;"/>
        </g>
        <g transform="matrix(1,0,0,1,-596.712,-251.209)">
            <path d="M641.51,459.826C641.51,462.41 639.415,464.506 636.831,464.506C634.246,464.506 632.151,462.41 632.151,459.826C632.151,457.241 634.246,455.146 636.831,455.146C639.415,455.146 641.51,457.241 641.51,459.826Z" style="fill:none;stroke:rgb(255,0,0);stroke-width:0.24px;"/>
        </g>
        <g transform="matrix(0.465809,0,0,0.586277,8.81172,-146.155)">
            <rect x="81.897" y="282.114" width="38.642" height="15.351" style="fill:none;stroke:rgb(255,0,0);stroke-width:0.38px;stroke-miterlimit:1.5;"/>
        </g>
        <g transform="matrix(0.465809,0,0,0.586277,566.531,-146.155)">
            <rect x="81.897" y="282.114" width="38.642" height="15.351" style="fill:none;stroke:rgb(255,0,0);stroke-width:0.38px;stroke-miterlimit:1.5;"/>
        </g>
        <g transform="matrix(0.465809,0,0,0.586277,8.81172,51.8208)">
            <rect x="81.897" y="282.114" width="38.642" height="15.351" style="fill:none;stroke:rgb(255,0,0);stroke-width:0.38px;stroke-miterlimit:1.5;"/>
        </g>
        <g transform="matrix(0.465809,0,0,0.586277,566.531,51.8208)">
            <rect x="81.897" y="282.114" width="38.642" height="15.351" style="fill:none;stroke:rgb(255,0,0);stroke-width:0.38px;stroke-miterlimit:1.5;"/>
        </g>
        <g transform="matrix(2.85226e-17,-0.465809,0.586277,3.58991e-17,473.326,244.516)">
            <rect x="81.897" y="282.114" width="38.642" height="15.351" style="fill:none;stroke:rgb(255,0,0);stroke-width:0.38px;stroke-miterlimit:1.5;"/>
        </g>
        <g transform="matrix(2.85226e-17,-0.465809,0.586277,3.58991e-17,473.326,104.059)">
            <rect x="81.897" y="282.114" width="38.642" height="15.351" style="fill:none;stroke:rgb(255,0,0);stroke-width:0.38px;stroke-miterlimit:1.5;"/>
        </g>
        <g transform="matrix(2.85226e-17,-0.465809,0.586277,3.58991e-17,-144.612,244.516)">
            <rect x="81.897" y="282.114" width="38.642" height="15.351" style="fill:none;stroke:rgb(255,0,0);stroke-width:0.38px;stroke-miterlimit:1.5;"/>
        </g>
        <g transform="matrix(2.85226e-17,-0.465809,0.586277,3.58991e-17,-144.612,104.059)">
            <rect x="81.897" y="282.114" width="38.642" height="15.351" style="fill:none;stroke:rgb(255,0,0);stroke-width:0.38px;stroke-miterlimit:1.5;"/>
        </g>
        <g transform="matrix(2.95946,0,0,1.07585,-556.769,-46.8386)">
            <rect x="276.865" y="492.427" width="55.548" height="40.535" style="fill:none;stroke:rgb(255,0,0);stroke-width:0.09px;stroke-miterlimit:1.5;"/>
        </g>
        <g transform="matrix(0.97027,0,0,0.957333,3.7272,97.5479)">
            <rect x="276.865" y="492.427" width="55.548" height="40.535" style="fill:none;stroke:rgb(255,0,0);stroke-width:0.21px;stroke-miterlimit:1.5;"/>
        </g>
        <g transform="matrix(1.9073,0,0,1.9073,-58.9358,-77.239)">
            <path d="M325.193,121.534L325.193,123.13L316.985,123.13L316.985,121.534L325.193,121.534ZM320.885,123.562L320.885,133.306L319.289,133.306L319.289,125.158L316.985,125.158L316.985,123.562L320.885,123.562ZM321.317,123.562L325.193,123.562L325.193,125.158L322.913,125.158L322.913,133.306L321.317,133.306L321.317,123.562Z" style="fill-rule:nonzero;"/>
            <path d="M327.701,127.618L327.701,133.306L329.297,133.306L329.297,129.214L330.749,129.214L330.749,133.306L332.345,133.306L332.345,127.618L327.701,127.618ZM327.701,127.186L332.345,127.186L332.345,121.534L330.749,121.534L330.749,125.59L329.297,125.59L329.297,121.534L327.701,121.534L327.701,127.186ZM332.777,133.306L334.373,133.306L334.373,121.534L332.777,121.534L332.777,133.306ZM325.673,133.306L327.269,133.306L327.269,121.534L325.673,121.534L325.673,133.306Z" style="fill-rule:nonzero;"/>
            <path d="M334.937,125.158C334.937,124.654 335.029,124.18 335.213,123.736C335.397,123.292 335.643,122.908 335.951,122.584C336.259,122.26 336.615,122.004 337.019,121.816C337.423,121.628 337.841,121.534 338.273,121.534L342.821,121.534L342.821,123.13L338.465,123.13C338.161,123.13 337.889,123.19 337.649,123.31C337.409,123.43 337.207,123.586 337.043,123.778C336.879,123.97 336.753,124.188 336.665,124.432C336.577,124.676 336.533,124.918 336.533,125.158L336.533,129.682C336.533,129.922 336.577,130.164 336.665,130.408C336.753,130.652 336.879,130.87 337.043,131.062C337.207,131.254 337.409,131.41 337.649,131.53C337.889,131.65 338.161,131.71 338.465,131.71L342.821,131.71L342.821,133.306L338.273,133.306C337.841,133.306 337.423,133.212 337.019,133.024C336.615,132.836 336.259,132.58 335.951,132.256C335.643,131.932 335.397,131.548 335.213,131.104C335.029,130.66 334.937,130.186 334.937,129.682L334.937,125.158ZM336.965,127.222L336.965,125.398C336.965,125.19 336.999,124.976 337.067,124.756C337.135,124.536 337.237,124.338 337.373,124.162C337.509,123.986 337.681,123.842 337.889,123.73C338.097,123.618 338.341,123.562 338.621,123.562L342.821,123.562L342.821,125.158L338.657,125.158C338.609,125.158 338.559,125.186 338.507,125.242C338.455,125.298 338.429,125.374 338.429,125.47L338.429,125.638L341.909,125.638L341.909,127.222L336.965,127.222ZM336.965,127.618L341.909,127.618L341.909,129.214L338.429,129.214L338.429,129.37C338.429,129.466 338.455,129.542 338.507,129.598C338.559,129.654 338.609,129.682 338.657,129.682L342.821,129.682L342.821,131.278L338.621,131.278C338.341,131.278 338.097,131.222 337.889,131.11C337.681,130.998 337.509,130.854 337.373,130.678C337.237,130.502 337.135,130.304 337.067,130.084C336.999,129.864 336.965,129.65 336.965,129.442L336.965,127.618Z" style="fill-rule:nonzero;"/>
            <path d="M346.985,131.902L351.965,131.902L348.917,123.442C348.893,123.362 348.821,123.29 348.701,123.226C348.581,123.162 348.465,123.13 348.353,123.13C348.225,123.13 348.107,123.162 347.999,123.226C347.891,123.29 347.825,123.362 347.801,123.442L344.333,133.306L342.737,133.306L346.445,122.842C346.501,122.674 346.581,122.512 346.685,122.356C346.789,122.2 346.919,122.06 347.075,121.936C347.231,121.812 347.415,121.714 347.627,121.642C347.839,121.57 348.081,121.534 348.353,121.534C348.625,121.534 348.865,121.57 349.073,121.642C349.281,121.714 349.463,121.812 349.619,121.936C349.775,122.06 349.905,122.2 350.009,122.356C350.113,122.512 350.197,122.674 350.261,122.842L353.969,133.306L346.985,133.306L346.985,131.902ZM346.985,131.47L346.985,131.014L346.217,133.306L344.765,133.306L348.065,123.742C348.081,123.694 348.119,123.652 348.179,123.616C348.239,123.58 348.297,123.562 348.353,123.562C348.409,123.562 348.469,123.58 348.533,123.616C348.597,123.652 348.637,123.694 348.653,123.742L351.389,131.47L346.985,131.47ZM348.353,127.018L347.393,130.042L349.349,130.042L348.353,127.018Z" style="fill-rule:nonzero;"/>
        </g>
        <g transform="matrix(1.31242,0,0,1.31242,6.05021,-51.658)">
            <path d="M320.739,189.605L320.739,182.574L324.957,179.762L336.207,179.762L333.395,181.871L326.364,181.871L326.364,187.496L330.582,187.496L330.582,186.09L327.067,186.09L329.879,183.98L336.207,183.98L336.207,187.496L333.395,189.605L320.739,189.605Z" style="fill-rule:nonzero;"/>
            <path d="M336.911,189.605L336.911,182.574L341.129,179.762L352.379,179.762L349.567,181.871L342.536,181.871L342.536,183.98L349.567,183.98L346.754,186.09L342.536,186.09L342.536,187.496L352.379,187.496L349.567,189.605L336.911,189.605Z" style="fill-rule:nonzero;"/>
            <path d="M353.082,189.605L353.082,179.762L358.707,179.762L362.926,181.871L362.926,179.762L368.551,179.762L368.551,189.605L362.926,189.605L362.926,184.683L358.707,182.574L358.707,189.605L353.082,189.605Z" style="fill-rule:nonzero;"/>
            <path d="M369.254,189.605L369.254,182.574L373.473,179.762L384.723,179.762L381.911,181.871L374.879,181.871L374.879,183.98L381.911,183.98L379.098,186.09L374.879,186.09L374.879,187.496L384.723,187.496L381.911,189.605L369.254,189.605Z" style="fill-rule:nonzero;"/>
            <path d="M385.426,186.09L385.426,182.574L389.645,179.762L400.895,179.762L398.082,181.871L391.051,181.871L391.051,183.98L400.895,183.98L400.895,187.496L398.082,189.605L385.426,189.605L388.239,187.496L395.27,187.496L395.27,186.09L385.426,186.09Z" style="fill-rule:nonzero;"/>
            <path d="M401.598,182.574L401.598,179.762L407.223,179.762L407.223,181.871L409.332,183.16L411.442,181.871L411.442,179.762L417.067,179.762L417.067,182.574L412.145,184.683L412.145,189.605L406.52,189.605L406.52,184.683L401.598,182.574Z" style="fill-rule:nonzero;"/>
            <path d="M417.77,189.605L417.77,179.762L423.395,179.762L427.614,181.871L427.614,179.762L433.239,179.762L433.239,189.605L427.614,189.605L427.614,184.683L423.395,182.574L423.395,189.605L417.77,189.605Z" style="fill-rule:nonzero;"/>
            <path d="M433.942,181.871L436.754,179.762L449.411,179.762L446.598,181.871L444.489,181.871L444.489,189.605L438.864,189.605L438.864,181.871L433.942,181.871Z" style="fill-rule:nonzero;"/>
            <path d="M450.114,189.605L450.114,179.762L455.739,179.762L455.739,183.98L459.957,183.98L459.957,179.762L465.582,179.762L465.582,189.605L459.957,189.605L459.957,186.09L455.739,186.09L455.739,189.605L450.114,189.605Z" style="fill-rule:nonzero;"/>
        </g>
        <g transform="matrix(1.18438,0,0,1.18438,84.8361,-168.832)">
            <path d="M417.405,664.399L417.405,665.934L419.82,665.934L419.82,666.772L417.405,666.772L417.405,670.218C417.405,670.464 417.437,670.667 417.499,670.827C417.562,670.987 417.648,671.115 417.757,671.211C417.866,671.306 417.992,671.374 418.135,671.413C418.278,671.452 418.429,671.471 418.589,671.471C418.706,671.471 418.827,671.465 418.952,671.451C419.077,671.437 419.199,671.421 419.319,671.401C419.438,671.382 419.549,671.361 419.653,671.34C419.756,671.318 419.841,671.3 419.907,671.284L420.06,672.052C419.97,672.106 419.861,672.154 419.732,672.195C419.603,672.236 419.462,672.271 419.31,672.301C419.157,672.33 418.996,672.352 418.826,672.368C418.656,672.384 418.487,672.391 418.32,672.391C418.038,672.391 417.776,672.351 417.531,672.271C417.287,672.191 417.075,672.064 416.896,671.89C416.716,671.717 416.574,671.492 416.471,671.217C416.367,670.941 416.316,670.608 416.316,670.218L416.316,666.772L414.652,666.772L414.652,665.934L416.316,665.934L416.316,664.399L417.405,664.399Z" style="fill-rule:nonzero;"/>
            <path d="M423.124,666.878C423.351,666.546 423.63,666.287 423.962,666.101C424.294,665.916 424.667,665.821 425.081,665.817C425.413,665.817 425.715,665.865 425.986,665.961C426.258,666.056 426.489,666.206 426.681,666.409C426.872,666.612 427.02,666.869 427.123,667.179C427.227,667.49 427.278,667.858 427.278,668.284L427.278,672.274L426.195,672.274L426.195,668.272C426.195,667.753 426.07,667.366 425.822,667.112C425.574,666.858 425.22,666.733 424.759,666.737C424.411,666.737 424.096,666.822 423.813,666.992C423.529,667.162 423.3,667.387 423.124,667.669L423.124,672.274L422.04,672.274L422.04,663.274L423.124,663.274L423.124,666.878Z" style="fill-rule:nonzero;"/>
            <path d="M432.042,672.391C431.597,672.391 431.188,672.315 430.815,672.163C430.442,672.011 430.122,671.798 429.857,671.524C429.591,671.251 429.384,670.927 429.236,670.552C429.087,670.177 429.013,669.768 429.013,669.327L429.013,669.081C429.013,668.569 429.095,668.111 429.259,667.707C429.423,667.303 429.641,666.961 429.912,666.681C430.184,666.402 430.492,666.188 430.838,666.04C431.184,665.891 431.538,665.817 431.902,665.817C432.359,665.817 432.758,665.896 433.1,666.054C433.442,666.213 433.726,666.431 433.952,666.711C434.179,666.99 434.348,667.319 434.459,667.698C434.57,668.077 434.626,668.487 434.626,668.928L434.626,669.415L430.097,669.415C430.109,669.704 430.164,669.975 430.264,670.229C430.363,670.483 430.5,670.705 430.674,670.894C430.848,671.084 431.056,671.233 431.298,671.343C431.54,671.452 431.808,671.507 432.101,671.507C432.487,671.507 432.831,671.428 433.132,671.272C433.433,671.116 433.683,670.909 433.882,670.651L434.544,671.167C434.439,671.327 434.307,671.48 434.149,671.627C433.99,671.773 433.808,671.903 433.601,672.016C433.394,672.13 433.159,672.22 432.898,672.289C432.636,672.357 432.351,672.391 432.042,672.391ZM431.902,666.708C431.683,666.708 431.476,666.748 431.28,666.828C431.085,666.908 430.909,667.025 430.753,667.179C430.597,667.334 430.465,667.523 430.358,667.748C430.25,667.972 430.175,668.231 430.132,668.524L433.542,668.524L433.542,668.442C433.53,668.231 433.49,668.022 433.422,667.815C433.354,667.608 433.253,667.423 433.12,667.259C432.987,667.095 432.82,666.962 432.619,666.86C432.418,666.759 432.179,666.708 431.902,666.708Z" style="fill-rule:nonzero;"/>
            <path d="M440.609,672.274C440.566,672.192 440.531,672.09 440.506,671.967C440.481,671.844 440.462,671.716 440.45,671.583C440.341,671.692 440.219,671.796 440.084,671.893C439.949,671.991 439.801,672.077 439.639,672.151C439.477,672.225 439.304,672.284 439.12,672.327C438.937,672.37 438.741,672.391 438.534,672.391C438.198,672.391 437.895,672.343 437.623,672.245C437.352,672.147 437.121,672.015 436.932,671.849C436.742,671.683 436.596,671.486 436.492,671.258C436.389,671.029 436.337,670.782 436.337,670.516C436.337,670.169 436.406,669.864 436.545,669.602C436.684,669.341 436.88,669.123 437.134,668.949C437.388,668.775 437.694,668.645 438.051,668.559C438.408,668.473 438.808,668.43 439.249,668.43L440.433,668.43L440.433,667.932C440.433,667.741 440.398,667.569 440.327,667.417C440.257,667.264 440.157,667.135 440.028,667.027C439.9,666.92 439.742,666.837 439.557,666.778C439.371,666.72 439.163,666.69 438.933,666.69C438.718,666.69 438.526,666.718 438.356,666.772C438.186,666.827 438.042,666.899 437.925,666.989C437.808,667.079 437.717,667.185 437.653,667.308C437.588,667.431 437.556,667.559 437.556,667.692L436.466,667.692C436.47,667.462 436.529,667.235 436.645,667.012C436.76,666.79 436.926,666.59 437.143,666.412C437.36,666.234 437.623,666.091 437.934,665.981C438.244,665.872 438.597,665.817 438.991,665.817C439.351,665.817 439.685,665.861 439.993,665.949C440.302,666.037 440.569,666.17 440.793,666.347C441.018,666.525 441.195,666.747 441.323,667.012C441.452,667.278 441.517,667.589 441.517,667.944L441.517,670.891C441.517,671.102 441.536,671.326 441.575,671.562C441.614,671.799 441.669,672.005 441.739,672.18L441.739,672.274L440.609,672.274ZM438.693,671.448C438.903,671.448 439.101,671.421 439.284,671.366C439.468,671.311 439.635,671.239 439.785,671.149C439.936,671.059 440.066,670.957 440.175,670.842C440.284,670.726 440.37,670.606 440.433,670.481L440.433,669.198L439.425,669.198C438.792,669.198 438.3,669.292 437.948,669.479C437.597,669.667 437.421,669.962 437.421,670.364C437.421,670.52 437.447,670.665 437.5,670.798C437.553,670.93 437.632,671.045 437.737,671.14C437.843,671.236 437.976,671.311 438.136,671.366C438.296,671.421 438.482,671.448 438.693,671.448Z" style="fill-rule:nonzero;"/>
            <path d="M445.53,671.571C445.53,671.454 445.549,671.345 445.586,671.243C445.623,671.141 445.677,671.053 445.747,670.976C445.818,670.9 445.905,670.841 446.011,670.798C446.116,670.755 446.239,670.733 446.38,670.733C446.521,670.733 446.645,670.755 446.752,670.798C446.86,670.841 446.949,670.9 447.022,670.976C447.094,671.053 447.149,671.141 447.186,671.243C447.223,671.345 447.241,671.454 447.241,671.571C447.241,671.684 447.223,671.791 447.186,671.89C447.149,671.99 447.094,672.077 447.022,672.151C446.949,672.225 446.86,672.283 446.752,672.324C446.645,672.365 446.521,672.386 446.38,672.386C446.239,672.386 446.116,672.365 446.011,672.324C445.905,672.283 445.818,672.225 445.747,672.151C445.677,672.077 445.623,671.99 445.586,671.89C445.549,671.791 445.53,671.684 445.53,671.571Z" style="fill-rule:nonzero;"/>
            <path d="M453.546,671.512C453.741,671.512 453.932,671.481 454.117,671.419C454.303,671.356 454.468,671.269 454.612,671.158C454.757,671.047 454.873,670.916 454.961,670.765C455.049,670.615 455.095,670.452 455.099,670.276L456.124,670.276C456.12,670.557 456.047,670.826 455.904,671.082C455.762,671.338 455.571,671.562 455.333,671.756C455.095,671.949 454.821,672.103 454.513,672.219C454.204,672.334 453.882,672.391 453.546,672.391C453.066,672.391 452.646,672.305 452.286,672.134C451.927,671.962 451.627,671.73 451.387,671.439C451.147,671.148 450.966,670.812 450.845,670.431C450.724,670.051 450.663,669.649 450.663,669.227L450.663,668.981C450.663,668.563 450.724,668.163 450.845,667.78C450.966,667.397 451.147,667.06 451.387,666.769C451.627,666.478 451.927,666.247 452.286,666.075C452.646,665.903 453.066,665.817 453.546,665.817C453.921,665.817 454.266,665.877 454.58,665.996C454.895,666.115 455.166,666.277 455.395,666.482C455.623,666.687 455.802,666.93 455.931,667.212C456.06,667.493 456.124,667.794 456.124,668.114L455.099,668.114C455.095,667.923 455.053,667.742 454.973,667.572C454.893,667.402 454.784,667.253 454.648,667.124C454.511,666.995 454.348,666.893 454.158,666.819C453.969,666.745 453.765,666.708 453.546,666.708C453.21,666.708 452.928,666.775 452.699,666.91C452.471,667.045 452.286,667.22 452.146,667.437C452.005,667.654 451.904,667.897 451.844,668.167C451.783,668.436 451.753,668.708 451.753,668.981L451.753,669.227C451.753,669.505 451.783,669.779 451.844,670.051C451.904,670.322 452.004,670.566 452.143,670.783C452.281,671 452.465,671.176 452.694,671.31C452.922,671.445 453.206,671.512 453.546,671.512Z" style="fill-rule:nonzero;"/>
            <path d="M457.741,669.046C457.741,668.589 457.808,668.164 457.941,667.771C458.073,667.379 458.264,667.038 458.512,666.749C458.76,666.46 459.062,666.232 459.417,666.066C459.773,665.9 460.173,665.817 460.618,665.817C461.068,665.817 461.471,665.9 461.828,666.066C462.186,666.232 462.488,666.46 462.736,666.749C462.985,667.038 463.175,667.379 463.308,667.771C463.441,668.164 463.507,668.589 463.507,669.046L463.507,669.175C463.507,669.632 463.441,670.055 463.308,670.446C463.175,670.837 462.985,671.177 462.736,671.466C462.488,671.755 462.187,671.981 461.831,672.145C461.476,672.309 461.075,672.391 460.63,672.391C460.181,672.391 459.778,672.309 459.42,672.145C459.063,671.981 458.76,671.755 458.512,671.466C458.264,671.177 458.073,670.837 457.941,670.446C457.808,670.055 457.741,669.632 457.741,669.175L457.741,669.046ZM458.825,669.175C458.825,669.487 458.862,669.785 458.937,670.068C459.011,670.351 459.123,670.6 459.274,670.815C459.424,671.03 459.612,671.2 459.839,671.325C460.066,671.45 460.329,671.512 460.63,671.512C460.927,671.512 461.188,671.45 461.412,671.325C461.637,671.2 461.824,671.03 461.975,670.815C462.125,670.6 462.237,670.351 462.312,670.068C462.386,669.785 462.423,669.487 462.423,669.175L462.423,669.046C462.423,668.737 462.385,668.441 462.309,668.158C462.233,667.875 462.119,667.626 461.969,667.411C461.819,667.196 461.631,667.025 461.406,666.898C461.182,666.771 460.919,666.708 460.618,666.708C460.318,666.708 460.056,666.771 459.833,666.898C459.611,667.025 459.424,667.196 459.274,667.411C459.123,667.626 459.011,667.875 458.937,668.158C458.862,668.441 458.825,668.737 458.825,669.046L458.825,669.175Z" style="fill-rule:nonzero;"/>
            <path d="M465.042,669.052C465.042,668.579 465.102,668.144 465.221,667.748C465.34,667.351 465.51,667.011 465.731,666.725C465.951,666.44 466.218,666.218 466.53,666.057C466.843,665.897 467.193,665.817 467.579,665.817C467.958,665.817 468.289,665.881 468.572,666.008C468.856,666.135 469.101,666.319 469.308,666.561L469.308,663.274L470.392,663.274L470.392,672.274L469.396,672.274L469.349,671.606C469.138,671.864 468.886,672.059 468.593,672.192C468.3,672.325 467.958,672.391 467.568,672.391C467.185,672.391 466.838,672.309 466.528,672.145C466.217,671.981 465.952,671.755 465.734,671.466C465.515,671.177 465.345,670.836 465.224,670.443C465.103,670.051 465.042,669.628 465.042,669.175L465.042,669.052ZM466.126,669.175C466.126,669.483 466.159,669.776 466.226,670.053C466.292,670.331 466.395,670.575 466.533,670.786C466.672,670.997 466.849,671.164 467.064,671.287C467.278,671.41 467.536,671.471 467.837,671.471C468.021,671.471 468.187,671.45 468.335,671.407C468.484,671.364 468.618,671.303 468.739,671.222C468.861,671.142 468.968,671.047 469.062,670.935C469.155,670.824 469.237,670.7 469.308,670.563L469.308,667.622C469.167,667.364 468.978,667.152 468.739,666.986C468.501,666.82 468.204,666.737 467.849,666.737C467.544,666.737 467.283,666.8 467.067,666.925C466.85,667.05 466.672,667.219 466.533,667.431C466.395,667.644 466.292,667.89 466.226,668.17C466.159,668.449 466.126,668.743 466.126,669.052L466.126,669.175Z" style="fill-rule:nonzero;"/>
            <path d="M475.249,672.391C474.804,672.391 474.395,672.315 474.022,672.163C473.649,672.011 473.329,671.798 473.064,671.524C472.798,671.251 472.591,670.927 472.443,670.552C472.294,670.177 472.22,669.768 472.22,669.327L472.22,669.081C472.22,668.569 472.302,668.111 472.466,667.707C472.63,667.303 472.848,666.961 473.119,666.681C473.391,666.402 473.699,666.188 474.045,666.04C474.391,665.891 474.745,665.817 475.109,665.817C475.566,665.817 475.965,665.896 476.307,666.054C476.649,666.213 476.933,666.431 477.159,666.711C477.386,666.99 477.555,667.319 477.666,667.698C477.778,668.077 477.833,668.487 477.833,668.928L477.833,669.415L473.304,669.415C473.316,669.704 473.371,669.975 473.471,670.229C473.57,670.483 473.707,670.705 473.881,670.894C474.055,671.084 474.263,671.233 474.505,671.343C474.747,671.452 475.015,671.507 475.308,671.507C475.695,671.507 476.038,671.428 476.339,671.272C476.64,671.116 476.89,670.909 477.089,670.651L477.751,671.167C477.646,671.327 477.514,671.48 477.356,671.627C477.197,671.773 477.015,671.903 476.808,672.016C476.601,672.13 476.366,672.22 476.105,672.289C475.843,672.357 475.558,672.391 475.249,672.391ZM475.109,666.708C474.89,666.708 474.683,666.748 474.487,666.828C474.292,666.908 474.116,667.025 473.96,667.179C473.804,667.334 473.672,667.523 473.565,667.748C473.457,667.972 473.382,668.231 473.339,668.524L476.749,668.524L476.749,668.442C476.737,668.231 476.697,668.022 476.629,667.815C476.561,667.608 476.46,667.423 476.327,667.259C476.195,667.095 476.028,666.962 475.826,666.86C475.625,666.759 475.386,666.708 475.109,666.708Z" style="fill-rule:nonzero;"/>
            <path d="M483.862,670.593C483.862,670.464 483.837,670.347 483.786,670.244C483.736,670.14 483.65,670.046 483.528,669.96C483.407,669.874 483.247,669.795 483.048,669.722C482.849,669.65 482.601,669.585 482.304,669.526C481.941,669.452 481.61,669.362 481.311,669.257C481.012,669.151 480.756,669.025 480.543,668.879C480.33,668.732 480.165,668.56 480.048,668.363C479.931,668.166 479.872,667.936 479.872,667.675C479.872,667.417 479.933,667.176 480.054,666.951C480.175,666.726 480.345,666.53 480.564,666.362C480.782,666.194 481.043,666.061 481.346,665.964C481.649,665.866 481.982,665.817 482.345,665.817C482.736,665.817 483.087,665.868 483.4,665.97C483.712,666.071 483.978,666.212 484.196,666.391C484.415,666.571 484.584,666.781 484.703,667.021C484.822,667.261 484.882,667.52 484.882,667.798L483.798,667.798C483.798,667.661 483.763,667.527 483.693,667.396C483.622,667.265 483.525,667.149 483.4,667.048C483.275,666.946 483.123,666.864 482.945,666.802C482.768,666.739 482.568,666.708 482.345,666.708C482.114,666.708 481.912,666.733 481.738,666.784C481.565,666.835 481.42,666.903 481.305,666.989C481.19,667.075 481.103,667.175 481.044,667.288C480.986,667.401 480.956,667.518 480.956,667.639C480.956,667.764 480.98,667.876 481.027,667.973C481.073,668.071 481.154,668.159 481.27,668.237C481.385,668.315 481.539,668.386 481.733,668.448C481.926,668.511 482.171,668.571 482.468,668.63C482.859,668.712 483.208,668.806 483.517,668.914C483.825,669.021 484.085,669.15 484.296,669.301C484.507,669.451 484.668,669.626 484.779,669.825C484.891,670.024 484.946,670.255 484.946,670.516C484.946,670.798 484.883,671.053 484.756,671.284C484.629,671.514 484.452,671.712 484.226,671.876C483.999,672.04 483.728,672.167 483.411,672.257C483.095,672.346 482.749,672.391 482.374,672.391C481.945,672.391 481.562,672.334 481.226,672.219C480.89,672.103 480.606,671.951 480.373,671.761C480.141,671.572 479.963,671.352 479.84,671.102C479.717,670.852 479.655,670.593 479.655,670.323L480.739,670.323C480.755,670.546 480.815,670.733 480.918,670.886C481.022,671.038 481.151,671.161 481.305,671.255C481.459,671.348 481.63,671.415 481.818,671.454C482.005,671.493 482.191,671.512 482.374,671.512C482.831,671.512 483.193,671.428 483.458,671.261C483.724,671.093 483.859,670.87 483.862,670.593Z" style="fill-rule:nonzero;"/>
        </g>
    </g>
</svg>
