G04 #@! TF.GenerationSoftware,KiCad,Pcbnew,(5.0.0)*
G04 #@! TF.CreationDate,2019-01-21T00:51:31-08:00*
G04 #@! TF.ProjectId,Display,446973706C61792E6B696361645F7063,rev?*
G04 #@! TF.SameCoordinates,Original*
G04 #@! TF.FileFunction,Soldermask,Top*
G04 #@! TF.FilePolarity,Negative*
%FSLAX46Y46*%
G04 Gerber Fmt 4.6, Leading zero omitted, Abs format (unit mm)*
G04 Created by KiCad (PCBNEW (5.0.0)) date 01/21/19 00:51:31*
%MOMM*%
%LPD*%
G01*
G04 APERTURE LIST*
%ADD10C,4.800000*%
%ADD11R,2.100000X2.100000*%
%ADD12O,2.100000X2.100000*%
%ADD13C,2.400000*%
%ADD14C,4.400000*%
G04 APERTURE END LIST*
D10*
G04 #@! TO.C,REF\002A\002A*
X191516000Y-86614000D03*
G04 #@! TD*
G04 #@! TO.C,REF\002A\002A*
X191516000Y-126746000D03*
G04 #@! TD*
G04 #@! TO.C,REF\002A\002A*
X118681500Y-126746000D03*
G04 #@! TD*
D11*
G04 #@! TO.C,J1*
X191452500Y-120844500D03*
D12*
X191452500Y-118304500D03*
X191452500Y-115764500D03*
X191452500Y-113224500D03*
X191452500Y-110684500D03*
X191452500Y-108144500D03*
X191452500Y-105604500D03*
X191452500Y-103064500D03*
X191452500Y-100524500D03*
X191452500Y-97984500D03*
X191452500Y-95444500D03*
X191452500Y-92904500D03*
G04 #@! TD*
D13*
G04 #@! TO.C,Up*
X168084500Y-98734000D03*
X168084500Y-94234000D03*
X174584500Y-98734000D03*
X174584500Y-94234000D03*
G04 #@! TD*
G04 #@! TO.C,Right*
X178816000Y-109144500D03*
X178816000Y-104644500D03*
X185316000Y-109144500D03*
X185316000Y-104644500D03*
G04 #@! TD*
G04 #@! TO.C,Down*
X174584500Y-114998500D03*
X174584500Y-119498500D03*
X168084500Y-114998500D03*
X168084500Y-119498500D03*
G04 #@! TD*
G04 #@! TO.C,Left*
X163853000Y-104644500D03*
X163853000Y-109144500D03*
X157353000Y-104644500D03*
X157353000Y-109144500D03*
G04 #@! TD*
D11*
G04 #@! TO.C,Display*
X127376874Y-92147000D03*
D12*
X129916874Y-92147000D03*
X132456874Y-92147000D03*
X134996874Y-92147000D03*
X137536874Y-92147000D03*
X140076874Y-92147000D03*
X142616874Y-92147000D03*
D14*
X150622000Y-92710000D03*
X150622000Y-121285000D03*
X119380000Y-92710000D03*
X119380000Y-121285000D03*
G04 #@! TD*
D10*
G04 #@! TO.C,REF\002A\002A*
X118681500Y-86614000D03*
G04 #@! TD*
M02*
