M48
;DRILL file {KiCad (5.0.0)} date 01/21/19 00:51:35
;FORMAT={-:-/ absolute / inch / decimal}
FMAT,2
INCH,TZ
T1C0.0394
T2C0.0433
T3C0.0866
T4C0.1142
%
G90
G05
M72
T1
X5.0148Y-3.6278
X5.1148Y-3.6278
X5.2148Y-3.6278
X5.3148Y-3.6278
X5.4148Y-3.6278
X5.5148Y-3.6278
X5.6148Y-3.6278
X7.5375Y-3.6577
X7.5375Y-3.7577
X7.5375Y-3.8577
X7.5375Y-3.9577
X7.5375Y-4.0577
X7.5375Y-4.1577
X7.5375Y-4.2577
X7.5375Y-4.3577
X7.5375Y-4.4577
X7.5375Y-4.5577
X7.5375Y-4.6577
X7.5375Y-4.7577
T2
X6.6175Y-3.71
X6.6175Y-3.8872
X6.8734Y-3.71
X6.8734Y-3.8872
X7.04Y-4.1199
X7.04Y-4.297
X7.2959Y-4.1199
X7.2959Y-4.297
X6.6175Y-4.5275
X6.6175Y-4.7047
X6.8734Y-4.5275
X6.8734Y-4.7047
X6.195Y-4.1199
X6.195Y-4.297
X6.4509Y-4.1199
X6.4509Y-4.297
T3
X4.6725Y-4.99
X7.54Y-3.41
X7.54Y-4.99
X4.6725Y-3.41
T4
X4.7Y-3.65
X4.7Y-4.775
X5.93Y-3.65
X5.93Y-4.775
T0
M30
