G04 #@! TF.GenerationSoftware,KiCad,Pcbnew,(5.0.0)*
G04 #@! TF.CreationDate,2019-01-21T00:51:31-08:00*
G04 #@! TF.ProjectId,Display,446973706C61792E6B696361645F7063,rev?*
G04 #@! TF.SameCoordinates,Original*
G04 #@! TF.FileFunction,Copper,L1,Top,Signal*
G04 #@! TF.FilePolarity,Positive*
%FSLAX46Y46*%
G04 Gerber Fmt 4.6, Leading zero omitted, Abs format (unit mm)*
G04 Created by KiCad (PCBNEW (5.0.0)) date 01/21/19 00:51:31*
%MOMM*%
%LPD*%
G01*
G04 APERTURE LIST*
G04 #@! TA.AperFunction,ComponentPad*
%ADD10C,4.400000*%
G04 #@! TD*
G04 #@! TA.AperFunction,ComponentPad*
%ADD11R,1.700000X1.700000*%
G04 #@! TD*
G04 #@! TA.AperFunction,ComponentPad*
%ADD12O,1.700000X1.700000*%
G04 #@! TD*
G04 #@! TA.AperFunction,ComponentPad*
%ADD13C,2.000000*%
G04 #@! TD*
G04 #@! TA.AperFunction,ComponentPad*
%ADD14C,4.000000*%
G04 #@! TD*
G04 #@! TA.AperFunction,Conductor*
%ADD15C,0.250000*%
G04 #@! TD*
G04 #@! TA.AperFunction,Conductor*
%ADD16C,0.254000*%
G04 #@! TD*
G04 APERTURE END LIST*
D10*
G04 #@! TO.P,REF\002A\002A,1*
G04 #@! TO.N,N/C*
X191516000Y-86614000D03*
G04 #@! TD*
G04 #@! TO.P,REF\002A\002A,1*
G04 #@! TO.N,N/C*
X191516000Y-126746000D03*
G04 #@! TD*
G04 #@! TO.P,REF\002A\002A,1*
G04 #@! TO.N,N/C*
X118681500Y-126746000D03*
G04 #@! TD*
D11*
G04 #@! TO.P,J1,1*
G04 #@! TO.N,GND*
X191452500Y-120844500D03*
D12*
G04 #@! TO.P,J1,2*
G04 #@! TO.N,BUTTON_1*
X191452500Y-118304500D03*
G04 #@! TO.P,J1,3*
G04 #@! TO.N,BUTTON_2*
X191452500Y-115764500D03*
G04 #@! TO.P,J1,4*
G04 #@! TO.N,BUTTON_3*
X191452500Y-113224500D03*
G04 #@! TO.P,J1,5*
G04 #@! TO.N,BUTTON_4*
X191452500Y-110684500D03*
G04 #@! TO.P,J1,6*
G04 #@! TO.N,DISPLAY_CS*
X191452500Y-108144500D03*
G04 #@! TO.P,J1,7*
G04 #@! TO.N,DISPLAY_DC*
X191452500Y-105604500D03*
G04 #@! TO.P,J1,8*
G04 #@! TO.N,DISPLAY_RES*
X191452500Y-103064500D03*
G04 #@! TO.P,J1,9*
G04 #@! TO.N,DISPLAY_MOSI*
X191452500Y-100524500D03*
G04 #@! TO.P,J1,10*
G04 #@! TO.N,DISPLAY_CLK*
X191452500Y-97984500D03*
G04 #@! TO.P,J1,11*
G04 #@! TO.N,+5V*
X191452500Y-95444500D03*
G04 #@! TO.P,J1,12*
G04 #@! TO.N,GND*
X191452500Y-92904500D03*
G04 #@! TD*
D13*
G04 #@! TO.P,Up,2*
G04 #@! TO.N,GND*
X168084500Y-98734000D03*
G04 #@! TO.P,Up,1*
G04 #@! TO.N,BUTTON_1*
X168084500Y-94234000D03*
G04 #@! TO.P,Up,2*
G04 #@! TO.N,GND*
X174584500Y-98734000D03*
G04 #@! TO.P,Up,1*
G04 #@! TO.N,BUTTON_1*
X174584500Y-94234000D03*
G04 #@! TD*
G04 #@! TO.P,Right,2*
G04 #@! TO.N,GND*
X178816000Y-109144500D03*
G04 #@! TO.P,Right,1*
G04 #@! TO.N,BUTTON_2*
X178816000Y-104644500D03*
G04 #@! TO.P,Right,2*
G04 #@! TO.N,GND*
X185316000Y-109144500D03*
G04 #@! TO.P,Right,1*
G04 #@! TO.N,BUTTON_2*
X185316000Y-104644500D03*
G04 #@! TD*
G04 #@! TO.P,Down,1*
G04 #@! TO.N,BUTTON_3*
X174584500Y-114998500D03*
G04 #@! TO.P,Down,2*
G04 #@! TO.N,GND*
X174584500Y-119498500D03*
G04 #@! TO.P,Down,1*
G04 #@! TO.N,BUTTON_3*
X168084500Y-114998500D03*
G04 #@! TO.P,Down,2*
G04 #@! TO.N,GND*
X168084500Y-119498500D03*
G04 #@! TD*
G04 #@! TO.P,Left,1*
G04 #@! TO.N,BUTTON_4*
X163853000Y-104644500D03*
G04 #@! TO.P,Left,2*
G04 #@! TO.N,GND*
X163853000Y-109144500D03*
G04 #@! TO.P,Left,1*
G04 #@! TO.N,BUTTON_4*
X157353000Y-104644500D03*
G04 #@! TO.P,Left,2*
G04 #@! TO.N,GND*
X157353000Y-109144500D03*
G04 #@! TD*
D11*
G04 #@! TO.P,Display,1*
G04 #@! TO.N,GND*
X127376874Y-92147000D03*
D12*
G04 #@! TO.P,Display,2*
G04 #@! TO.N,+5V*
X129916874Y-92147000D03*
G04 #@! TO.P,Display,3*
G04 #@! TO.N,DISPLAY_CLK*
X132456874Y-92147000D03*
G04 #@! TO.P,Display,4*
G04 #@! TO.N,DISPLAY_MOSI*
X134996874Y-92147000D03*
G04 #@! TO.P,Display,5*
G04 #@! TO.N,DISPLAY_RES*
X137536874Y-92147000D03*
G04 #@! TO.P,Display,6*
G04 #@! TO.N,DISPLAY_DC*
X140076874Y-92147000D03*
G04 #@! TO.P,Display,7*
G04 #@! TO.N,DISPLAY_CS*
X142616874Y-92147000D03*
D14*
G04 #@! TO.P,Display,1*
G04 #@! TO.N,GND*
X150622000Y-92710000D03*
X150622000Y-121285000D03*
X119380000Y-92710000D03*
X119380000Y-121285000D03*
G04 #@! TD*
D10*
G04 #@! TO.P,REF\002A\002A,1*
G04 #@! TO.N,N/C*
X118681500Y-86614000D03*
G04 #@! TD*
D15*
G04 #@! TO.N,BUTTON_1*
X173170287Y-94234000D02*
X168084500Y-94234000D01*
X174584500Y-94234000D02*
X173170287Y-94234000D01*
G04 #@! TO.N,BUTTON_2*
X185316000Y-104644500D02*
X178816000Y-104644500D01*
G04 #@! TO.N,BUTTON_3*
X176358500Y-113224500D02*
X174584500Y-114998500D01*
X191452500Y-113224500D02*
X176358500Y-113224500D01*
X174584500Y-114998500D02*
X167449500Y-114998500D01*
G04 #@! TO.N,BUTTON_4*
X169893000Y-110684500D02*
X163853000Y-104644500D01*
X191452500Y-110684500D02*
X169893000Y-110684500D01*
X163853000Y-104644500D02*
X157353000Y-104644500D01*
G04 #@! TO.N,DISPLAY_CS*
X191452500Y-108144500D02*
X185737500Y-102429500D01*
X152899374Y-102429500D02*
X142616874Y-92147000D01*
X185737500Y-102429500D02*
X152899374Y-102429500D01*
G04 #@! TO.N,DISPLAY_DC*
X142244374Y-89979500D02*
X140926873Y-91297001D01*
X175827500Y-89979500D02*
X142244374Y-89979500D01*
X140926873Y-91297001D02*
X140076874Y-92147000D01*
X191452500Y-105604500D02*
X175827500Y-89979500D01*
G04 #@! TO.N,DISPLAY_RES*
X190602501Y-102214501D02*
X188765001Y-102214501D01*
X191452500Y-103064500D02*
X190602501Y-102214501D01*
X140154384Y-89529490D02*
X138386873Y-91297001D01*
X176079990Y-89529490D02*
X140154384Y-89529490D01*
X138386873Y-91297001D02*
X137536874Y-92147000D01*
X188765001Y-102214501D02*
X176079990Y-89529490D01*
G04 #@! TO.N,DISPLAY_MOSI*
X191452500Y-100524500D02*
X187711410Y-100524500D01*
X187711410Y-100524500D02*
X176213910Y-89027000D01*
X138116874Y-89027000D02*
X134996874Y-92147000D01*
X176213910Y-89027000D02*
X138116874Y-89027000D01*
G04 #@! TO.N,DISPLAY_CLK*
X133306873Y-92996999D02*
X132456874Y-92147000D01*
X191452500Y-97984500D02*
X190602501Y-97134501D01*
G04 #@! TO.N,+5V*
X130766873Y-91297001D02*
X129916874Y-92147000D01*
G04 #@! TD*
D16*
G04 #@! TO.N,GND*
G36*
X189112603Y-85008101D02*
X188681000Y-86050083D01*
X188681000Y-87177917D01*
X189112603Y-88219899D01*
X189910101Y-89017397D01*
X190952083Y-89449000D01*
X192079917Y-89449000D01*
X193121899Y-89017397D01*
X193600000Y-88539296D01*
X193600001Y-124820705D01*
X193121899Y-124342603D01*
X192079917Y-123911000D01*
X190952083Y-123911000D01*
X189910101Y-124342603D01*
X189112603Y-125140101D01*
X188681000Y-126182083D01*
X188681000Y-127309917D01*
X189112603Y-128351899D01*
X189844704Y-129084000D01*
X120352796Y-129084000D01*
X121084897Y-128351899D01*
X121516500Y-127309917D01*
X121516500Y-126182083D01*
X121084897Y-125140101D01*
X120287399Y-124342603D01*
X119269491Y-123920972D01*
X119925247Y-123915713D01*
X120854647Y-123530743D01*
X121075416Y-123160022D01*
X148926584Y-123160022D01*
X149147353Y-123530743D01*
X150119012Y-123924119D01*
X151167247Y-123915713D01*
X152096647Y-123530743D01*
X152317416Y-123160022D01*
X150622000Y-121464605D01*
X148926584Y-123160022D01*
X121075416Y-123160022D01*
X119380000Y-121464605D01*
X117684584Y-123160022D01*
X117905353Y-123530743D01*
X118844607Y-123911000D01*
X118117583Y-123911000D01*
X117075601Y-124342603D01*
X116534000Y-124884204D01*
X116534000Y-120782012D01*
X116740881Y-120782012D01*
X116749287Y-121830247D01*
X117134257Y-122759647D01*
X117504978Y-122980416D01*
X119200395Y-121285000D01*
X119559605Y-121285000D01*
X121255022Y-122980416D01*
X121625743Y-122759647D01*
X122019119Y-121787988D01*
X122011052Y-120782012D01*
X147982881Y-120782012D01*
X147991287Y-121830247D01*
X148376257Y-122759647D01*
X148746978Y-122980416D01*
X150442395Y-121285000D01*
X150801605Y-121285000D01*
X152497022Y-122980416D01*
X152867743Y-122759647D01*
X153261119Y-121787988D01*
X153252713Y-120739753D01*
X153215964Y-120651032D01*
X167111573Y-120651032D01*
X167210236Y-120917887D01*
X167819961Y-121144408D01*
X168469960Y-121120356D01*
X168958764Y-120917887D01*
X169057427Y-120651032D01*
X173611573Y-120651032D01*
X173710236Y-120917887D01*
X174319961Y-121144408D01*
X174702577Y-121130250D01*
X189967500Y-121130250D01*
X189967500Y-121820810D01*
X190064173Y-122054199D01*
X190242802Y-122232827D01*
X190476191Y-122329500D01*
X191166750Y-122329500D01*
X191325500Y-122170750D01*
X191325500Y-120971500D01*
X191579500Y-120971500D01*
X191579500Y-122170750D01*
X191738250Y-122329500D01*
X192428809Y-122329500D01*
X192662198Y-122232827D01*
X192840827Y-122054199D01*
X192937500Y-121820810D01*
X192937500Y-121130250D01*
X192778750Y-120971500D01*
X191579500Y-120971500D01*
X191325500Y-120971500D01*
X190126250Y-120971500D01*
X189967500Y-121130250D01*
X174702577Y-121130250D01*
X174969960Y-121120356D01*
X175458764Y-120917887D01*
X175557427Y-120651032D01*
X174584500Y-119678105D01*
X173611573Y-120651032D01*
X169057427Y-120651032D01*
X168084500Y-119678105D01*
X167111573Y-120651032D01*
X153215964Y-120651032D01*
X152867743Y-119810353D01*
X152497022Y-119589584D01*
X150801605Y-121285000D01*
X150442395Y-121285000D01*
X148746978Y-119589584D01*
X148376257Y-119810353D01*
X147982881Y-120782012D01*
X122011052Y-120782012D01*
X122010713Y-120739753D01*
X121625743Y-119810353D01*
X121255022Y-119589584D01*
X119559605Y-121285000D01*
X119200395Y-121285000D01*
X117504978Y-119589584D01*
X117134257Y-119810353D01*
X116740881Y-120782012D01*
X116534000Y-120782012D01*
X116534000Y-119409978D01*
X117684584Y-119409978D01*
X119380000Y-121105395D01*
X121075416Y-119409978D01*
X148926584Y-119409978D01*
X150622000Y-121105395D01*
X152317416Y-119409978D01*
X152212596Y-119233961D01*
X166438592Y-119233961D01*
X166462644Y-119883960D01*
X166665113Y-120372764D01*
X166931968Y-120471427D01*
X167904895Y-119498500D01*
X168264105Y-119498500D01*
X169237032Y-120471427D01*
X169503887Y-120372764D01*
X169730408Y-119763039D01*
X169710831Y-119233961D01*
X172938592Y-119233961D01*
X172962644Y-119883960D01*
X173165113Y-120372764D01*
X173431968Y-120471427D01*
X174404895Y-119498500D01*
X174764105Y-119498500D01*
X175737032Y-120471427D01*
X176003887Y-120372764D01*
X176230408Y-119763039D01*
X176206356Y-119113040D01*
X176003887Y-118624236D01*
X175737032Y-118525573D01*
X174764105Y-119498500D01*
X174404895Y-119498500D01*
X173431968Y-118525573D01*
X173165113Y-118624236D01*
X172938592Y-119233961D01*
X169710831Y-119233961D01*
X169706356Y-119113040D01*
X169503887Y-118624236D01*
X169237032Y-118525573D01*
X168264105Y-119498500D01*
X167904895Y-119498500D01*
X166931968Y-118525573D01*
X166665113Y-118624236D01*
X166438592Y-119233961D01*
X152212596Y-119233961D01*
X152096647Y-119039257D01*
X151124988Y-118645881D01*
X150076753Y-118654287D01*
X149147353Y-119039257D01*
X148926584Y-119409978D01*
X121075416Y-119409978D01*
X120854647Y-119039257D01*
X119882988Y-118645881D01*
X118834753Y-118654287D01*
X117905353Y-119039257D01*
X117684584Y-119409978D01*
X116534000Y-119409978D01*
X116534000Y-118345968D01*
X167111573Y-118345968D01*
X168084500Y-119318895D01*
X169057427Y-118345968D01*
X173611573Y-118345968D01*
X174584500Y-119318895D01*
X175557427Y-118345968D01*
X175458764Y-118079113D01*
X174849039Y-117852592D01*
X174199040Y-117876644D01*
X173710236Y-118079113D01*
X173611573Y-118345968D01*
X169057427Y-118345968D01*
X168958764Y-118079113D01*
X168349039Y-117852592D01*
X167699040Y-117876644D01*
X167210236Y-118079113D01*
X167111573Y-118345968D01*
X116534000Y-118345968D01*
X116534000Y-110297032D01*
X156380073Y-110297032D01*
X156478736Y-110563887D01*
X157088461Y-110790408D01*
X157738460Y-110766356D01*
X158227264Y-110563887D01*
X158325927Y-110297032D01*
X162880073Y-110297032D01*
X162978736Y-110563887D01*
X163588461Y-110790408D01*
X164238460Y-110766356D01*
X164727264Y-110563887D01*
X164825927Y-110297032D01*
X163853000Y-109324105D01*
X162880073Y-110297032D01*
X158325927Y-110297032D01*
X157353000Y-109324105D01*
X156380073Y-110297032D01*
X116534000Y-110297032D01*
X116534000Y-108879961D01*
X155707092Y-108879961D01*
X155731144Y-109529960D01*
X155933613Y-110018764D01*
X156200468Y-110117427D01*
X157173395Y-109144500D01*
X157532605Y-109144500D01*
X158505532Y-110117427D01*
X158772387Y-110018764D01*
X158998908Y-109409039D01*
X158979331Y-108879961D01*
X162207092Y-108879961D01*
X162231144Y-109529960D01*
X162433613Y-110018764D01*
X162700468Y-110117427D01*
X163673395Y-109144500D01*
X164032605Y-109144500D01*
X165005532Y-110117427D01*
X165272387Y-110018764D01*
X165498908Y-109409039D01*
X165474856Y-108759040D01*
X165272387Y-108270236D01*
X165005532Y-108171573D01*
X164032605Y-109144500D01*
X163673395Y-109144500D01*
X162700468Y-108171573D01*
X162433613Y-108270236D01*
X162207092Y-108879961D01*
X158979331Y-108879961D01*
X158974856Y-108759040D01*
X158772387Y-108270236D01*
X158505532Y-108171573D01*
X157532605Y-109144500D01*
X157173395Y-109144500D01*
X156200468Y-108171573D01*
X155933613Y-108270236D01*
X155707092Y-108879961D01*
X116534000Y-108879961D01*
X116534000Y-107991968D01*
X156380073Y-107991968D01*
X157353000Y-108964895D01*
X158325927Y-107991968D01*
X162880073Y-107991968D01*
X163853000Y-108964895D01*
X164825927Y-107991968D01*
X164727264Y-107725113D01*
X164117539Y-107498592D01*
X163467540Y-107522644D01*
X162978736Y-107725113D01*
X162880073Y-107991968D01*
X158325927Y-107991968D01*
X158227264Y-107725113D01*
X157617539Y-107498592D01*
X156967540Y-107522644D01*
X156478736Y-107725113D01*
X156380073Y-107991968D01*
X116534000Y-107991968D01*
X116534000Y-94585022D01*
X117684584Y-94585022D01*
X117905353Y-94955743D01*
X118877012Y-95349119D01*
X119925247Y-95340713D01*
X120854647Y-94955743D01*
X121075416Y-94585022D01*
X119380000Y-92889605D01*
X117684584Y-94585022D01*
X116534000Y-94585022D01*
X116534000Y-92207012D01*
X116740881Y-92207012D01*
X116749287Y-93255247D01*
X117134257Y-94184647D01*
X117504978Y-94405416D01*
X119200395Y-92710000D01*
X119559605Y-92710000D01*
X121255022Y-94405416D01*
X121625743Y-94184647D01*
X122019119Y-93212988D01*
X122012863Y-92432750D01*
X125891874Y-92432750D01*
X125891874Y-93123309D01*
X125988547Y-93356698D01*
X126167175Y-93535327D01*
X126400564Y-93632000D01*
X127091124Y-93632000D01*
X127249874Y-93473250D01*
X127249874Y-92274000D01*
X126050624Y-92274000D01*
X125891874Y-92432750D01*
X122012863Y-92432750D01*
X122010713Y-92164753D01*
X121625743Y-91235353D01*
X121517161Y-91170691D01*
X125891874Y-91170691D01*
X125891874Y-91861250D01*
X126050624Y-92020000D01*
X127249874Y-92020000D01*
X127249874Y-90820750D01*
X127503874Y-90820750D01*
X127503874Y-92020000D01*
X127523874Y-92020000D01*
X127523874Y-92274000D01*
X127503874Y-92274000D01*
X127503874Y-93473250D01*
X127662624Y-93632000D01*
X128353184Y-93632000D01*
X128586573Y-93535327D01*
X128765201Y-93356698D01*
X128831778Y-93195967D01*
X128846249Y-93217625D01*
X129337456Y-93545839D01*
X129770618Y-93632000D01*
X130063130Y-93632000D01*
X130496292Y-93545839D01*
X130987499Y-93217625D01*
X131186874Y-92919239D01*
X131386249Y-93217625D01*
X131877456Y-93545839D01*
X132310618Y-93632000D01*
X132603130Y-93632000D01*
X132823619Y-93588142D01*
X133010335Y-93712902D01*
X133306872Y-93771887D01*
X133603410Y-93712902D01*
X133854802Y-93544928D01*
X134022776Y-93293536D01*
X134024780Y-93283461D01*
X134417456Y-93545839D01*
X134850618Y-93632000D01*
X135143130Y-93632000D01*
X135576292Y-93545839D01*
X136067499Y-93217625D01*
X136266874Y-92919239D01*
X136466249Y-93217625D01*
X136957456Y-93545839D01*
X137390618Y-93632000D01*
X137683130Y-93632000D01*
X138116292Y-93545839D01*
X138607499Y-93217625D01*
X138806874Y-92919239D01*
X139006249Y-93217625D01*
X139497456Y-93545839D01*
X139930618Y-93632000D01*
X140223130Y-93632000D01*
X140656292Y-93545839D01*
X141147499Y-93217625D01*
X141346874Y-92919239D01*
X141546249Y-93217625D01*
X142037456Y-93545839D01*
X142470618Y-93632000D01*
X142763130Y-93632000D01*
X142983282Y-93588209D01*
X152309044Y-102913972D01*
X152351445Y-102977429D01*
X152602837Y-103145404D01*
X152824522Y-103189500D01*
X152824527Y-103189500D01*
X152899374Y-103204388D01*
X152974221Y-103189500D01*
X156593220Y-103189500D01*
X156426847Y-103258414D01*
X155966914Y-103718347D01*
X155718000Y-104319278D01*
X155718000Y-104969722D01*
X155966914Y-105570653D01*
X156426847Y-106030586D01*
X157027778Y-106279500D01*
X157678222Y-106279500D01*
X158279153Y-106030586D01*
X158739086Y-105570653D01*
X158807909Y-105404500D01*
X162398091Y-105404500D01*
X162466914Y-105570653D01*
X162926847Y-106030586D01*
X163527778Y-106279500D01*
X164178222Y-106279500D01*
X164344376Y-106210677D01*
X169302671Y-111168973D01*
X169345071Y-111232429D01*
X169596463Y-111400404D01*
X169818148Y-111444500D01*
X169818153Y-111444500D01*
X169893000Y-111459388D01*
X169967847Y-111444500D01*
X190174322Y-111444500D01*
X190381875Y-111755125D01*
X190680261Y-111954500D01*
X190381875Y-112153875D01*
X190174322Y-112464500D01*
X176433347Y-112464500D01*
X176358500Y-112449612D01*
X176283653Y-112464500D01*
X176283648Y-112464500D01*
X176061963Y-112508596D01*
X175810571Y-112676571D01*
X175768171Y-112740027D01*
X175075875Y-113432323D01*
X174909722Y-113363500D01*
X174259278Y-113363500D01*
X173658347Y-113612414D01*
X173198414Y-114072347D01*
X173129591Y-114238500D01*
X169539409Y-114238500D01*
X169470586Y-114072347D01*
X169010653Y-113612414D01*
X168409722Y-113363500D01*
X167759278Y-113363500D01*
X167158347Y-113612414D01*
X166698414Y-114072347D01*
X166449500Y-114673278D01*
X166449500Y-115323722D01*
X166698414Y-115924653D01*
X167158347Y-116384586D01*
X167759278Y-116633500D01*
X168409722Y-116633500D01*
X169010653Y-116384586D01*
X169470586Y-115924653D01*
X169539409Y-115758500D01*
X173129591Y-115758500D01*
X173198414Y-115924653D01*
X173658347Y-116384586D01*
X174259278Y-116633500D01*
X174909722Y-116633500D01*
X175510653Y-116384586D01*
X175970586Y-115924653D01*
X176219500Y-115323722D01*
X176219500Y-114673278D01*
X176150677Y-114507125D01*
X176673302Y-113984500D01*
X190174322Y-113984500D01*
X190381875Y-114295125D01*
X190680261Y-114494500D01*
X190381875Y-114693875D01*
X190053661Y-115185082D01*
X189938408Y-115764500D01*
X190053661Y-116343918D01*
X190381875Y-116835125D01*
X190680261Y-117034500D01*
X190381875Y-117233875D01*
X190053661Y-117725082D01*
X189938408Y-118304500D01*
X190053661Y-118883918D01*
X190381875Y-119375125D01*
X190403533Y-119389596D01*
X190242802Y-119456173D01*
X190064173Y-119634801D01*
X189967500Y-119868190D01*
X189967500Y-120558750D01*
X190126250Y-120717500D01*
X191325500Y-120717500D01*
X191325500Y-120697500D01*
X191579500Y-120697500D01*
X191579500Y-120717500D01*
X192778750Y-120717500D01*
X192937500Y-120558750D01*
X192937500Y-119868190D01*
X192840827Y-119634801D01*
X192662198Y-119456173D01*
X192501467Y-119389596D01*
X192523125Y-119375125D01*
X192851339Y-118883918D01*
X192966592Y-118304500D01*
X192851339Y-117725082D01*
X192523125Y-117233875D01*
X192224739Y-117034500D01*
X192523125Y-116835125D01*
X192851339Y-116343918D01*
X192966592Y-115764500D01*
X192851339Y-115185082D01*
X192523125Y-114693875D01*
X192224739Y-114494500D01*
X192523125Y-114295125D01*
X192851339Y-113803918D01*
X192966592Y-113224500D01*
X192851339Y-112645082D01*
X192523125Y-112153875D01*
X192224739Y-111954500D01*
X192523125Y-111755125D01*
X192851339Y-111263918D01*
X192966592Y-110684500D01*
X192851339Y-110105082D01*
X192523125Y-109613875D01*
X192224739Y-109414500D01*
X192523125Y-109215125D01*
X192851339Y-108723918D01*
X192966592Y-108144500D01*
X192851339Y-107565082D01*
X192523125Y-107073875D01*
X192224739Y-106874500D01*
X192523125Y-106675125D01*
X192851339Y-106183918D01*
X192966592Y-105604500D01*
X192851339Y-105025082D01*
X192523125Y-104533875D01*
X192224739Y-104334500D01*
X192523125Y-104135125D01*
X192851339Y-103643918D01*
X192966592Y-103064500D01*
X192851339Y-102485082D01*
X192523125Y-101993875D01*
X192224739Y-101794500D01*
X192523125Y-101595125D01*
X192851339Y-101103918D01*
X192966592Y-100524500D01*
X192851339Y-99945082D01*
X192523125Y-99453875D01*
X192224739Y-99254500D01*
X192523125Y-99055125D01*
X192851339Y-98563918D01*
X192966592Y-97984500D01*
X192851339Y-97405082D01*
X192523125Y-96913875D01*
X192224739Y-96714500D01*
X192523125Y-96515125D01*
X192851339Y-96023918D01*
X192966592Y-95444500D01*
X192851339Y-94865082D01*
X192523125Y-94373875D01*
X192204022Y-94160657D01*
X192333858Y-94099683D01*
X192724145Y-93671424D01*
X192893976Y-93261390D01*
X192772655Y-93031500D01*
X191579500Y-93031500D01*
X191579500Y-93051500D01*
X191325500Y-93051500D01*
X191325500Y-93031500D01*
X190132345Y-93031500D01*
X190011024Y-93261390D01*
X190180855Y-93671424D01*
X190571142Y-94099683D01*
X190700978Y-94160657D01*
X190381875Y-94373875D01*
X190053661Y-94865082D01*
X189938408Y-95444500D01*
X190053661Y-96023918D01*
X190316039Y-96416594D01*
X190305964Y-96418598D01*
X190054572Y-96586572D01*
X189886598Y-96837964D01*
X189827613Y-97134501D01*
X189886598Y-97431038D01*
X190011358Y-97617755D01*
X189938408Y-97984500D01*
X190053661Y-98563918D01*
X190381875Y-99055125D01*
X190680261Y-99254500D01*
X190381875Y-99453875D01*
X190174322Y-99764500D01*
X188026213Y-99764500D01*
X180809322Y-92547610D01*
X190011024Y-92547610D01*
X190132345Y-92777500D01*
X191325500Y-92777500D01*
X191325500Y-91583681D01*
X191579500Y-91583681D01*
X191579500Y-92777500D01*
X192772655Y-92777500D01*
X192893976Y-92547610D01*
X192724145Y-92137576D01*
X192333858Y-91709317D01*
X191809392Y-91463014D01*
X191579500Y-91583681D01*
X191325500Y-91583681D01*
X191095608Y-91463014D01*
X190571142Y-91709317D01*
X190180855Y-92137576D01*
X190011024Y-92547610D01*
X180809322Y-92547610D01*
X176804241Y-88542530D01*
X176761839Y-88479071D01*
X176510447Y-88311096D01*
X176288762Y-88267000D01*
X176288757Y-88267000D01*
X176213910Y-88252112D01*
X176139063Y-88267000D01*
X138191720Y-88267000D01*
X138116873Y-88252112D01*
X138042026Y-88267000D01*
X138042022Y-88267000D01*
X137820337Y-88311096D01*
X137820335Y-88311097D01*
X137820336Y-88311097D01*
X137632400Y-88436671D01*
X137632398Y-88436673D01*
X137568945Y-88479071D01*
X137526547Y-88542524D01*
X135363282Y-90705791D01*
X135143130Y-90662000D01*
X134850618Y-90662000D01*
X134417456Y-90748161D01*
X133926249Y-91076375D01*
X133726874Y-91374761D01*
X133527499Y-91076375D01*
X133036292Y-90748161D01*
X132603130Y-90662000D01*
X132310618Y-90662000D01*
X131877456Y-90748161D01*
X131484780Y-91010539D01*
X131482776Y-91000464D01*
X131314802Y-90749072D01*
X131063410Y-90581098D01*
X130766872Y-90522113D01*
X130470335Y-90581098D01*
X130283619Y-90705858D01*
X130063130Y-90662000D01*
X129770618Y-90662000D01*
X129337456Y-90748161D01*
X128846249Y-91076375D01*
X128831778Y-91098033D01*
X128765201Y-90937302D01*
X128586573Y-90758673D01*
X128353184Y-90662000D01*
X127662624Y-90662000D01*
X127503874Y-90820750D01*
X127249874Y-90820750D01*
X127091124Y-90662000D01*
X126400564Y-90662000D01*
X126167175Y-90758673D01*
X125988547Y-90937302D01*
X125891874Y-91170691D01*
X121517161Y-91170691D01*
X121255022Y-91014584D01*
X119559605Y-92710000D01*
X119200395Y-92710000D01*
X117504978Y-91014584D01*
X117134257Y-91235353D01*
X116740881Y-92207012D01*
X116534000Y-92207012D01*
X116534000Y-90834978D01*
X117684584Y-90834978D01*
X119380000Y-92530395D01*
X121075416Y-90834978D01*
X120854647Y-90464257D01*
X119882988Y-90070881D01*
X118834753Y-90079287D01*
X117905353Y-90464257D01*
X117684584Y-90834978D01*
X116534000Y-90834978D01*
X116534000Y-88475796D01*
X117075601Y-89017397D01*
X118117583Y-89449000D01*
X119245417Y-89449000D01*
X120287399Y-89017397D01*
X121084897Y-88219899D01*
X121516500Y-87177917D01*
X121516500Y-86050083D01*
X121084897Y-85008101D01*
X120352796Y-84276000D01*
X189844704Y-84276000D01*
X189112603Y-85008101D01*
X189112603Y-85008101D01*
G37*
X189112603Y-85008101D02*
X188681000Y-86050083D01*
X188681000Y-87177917D01*
X189112603Y-88219899D01*
X189910101Y-89017397D01*
X190952083Y-89449000D01*
X192079917Y-89449000D01*
X193121899Y-89017397D01*
X193600000Y-88539296D01*
X193600001Y-124820705D01*
X193121899Y-124342603D01*
X192079917Y-123911000D01*
X190952083Y-123911000D01*
X189910101Y-124342603D01*
X189112603Y-125140101D01*
X188681000Y-126182083D01*
X188681000Y-127309917D01*
X189112603Y-128351899D01*
X189844704Y-129084000D01*
X120352796Y-129084000D01*
X121084897Y-128351899D01*
X121516500Y-127309917D01*
X121516500Y-126182083D01*
X121084897Y-125140101D01*
X120287399Y-124342603D01*
X119269491Y-123920972D01*
X119925247Y-123915713D01*
X120854647Y-123530743D01*
X121075416Y-123160022D01*
X148926584Y-123160022D01*
X149147353Y-123530743D01*
X150119012Y-123924119D01*
X151167247Y-123915713D01*
X152096647Y-123530743D01*
X152317416Y-123160022D01*
X150622000Y-121464605D01*
X148926584Y-123160022D01*
X121075416Y-123160022D01*
X119380000Y-121464605D01*
X117684584Y-123160022D01*
X117905353Y-123530743D01*
X118844607Y-123911000D01*
X118117583Y-123911000D01*
X117075601Y-124342603D01*
X116534000Y-124884204D01*
X116534000Y-120782012D01*
X116740881Y-120782012D01*
X116749287Y-121830247D01*
X117134257Y-122759647D01*
X117504978Y-122980416D01*
X119200395Y-121285000D01*
X119559605Y-121285000D01*
X121255022Y-122980416D01*
X121625743Y-122759647D01*
X122019119Y-121787988D01*
X122011052Y-120782012D01*
X147982881Y-120782012D01*
X147991287Y-121830247D01*
X148376257Y-122759647D01*
X148746978Y-122980416D01*
X150442395Y-121285000D01*
X150801605Y-121285000D01*
X152497022Y-122980416D01*
X152867743Y-122759647D01*
X153261119Y-121787988D01*
X153252713Y-120739753D01*
X153215964Y-120651032D01*
X167111573Y-120651032D01*
X167210236Y-120917887D01*
X167819961Y-121144408D01*
X168469960Y-121120356D01*
X168958764Y-120917887D01*
X169057427Y-120651032D01*
X173611573Y-120651032D01*
X173710236Y-120917887D01*
X174319961Y-121144408D01*
X174702577Y-121130250D01*
X189967500Y-121130250D01*
X189967500Y-121820810D01*
X190064173Y-122054199D01*
X190242802Y-122232827D01*
X190476191Y-122329500D01*
X191166750Y-122329500D01*
X191325500Y-122170750D01*
X191325500Y-120971500D01*
X191579500Y-120971500D01*
X191579500Y-122170750D01*
X191738250Y-122329500D01*
X192428809Y-122329500D01*
X192662198Y-122232827D01*
X192840827Y-122054199D01*
X192937500Y-121820810D01*
X192937500Y-121130250D01*
X192778750Y-120971500D01*
X191579500Y-120971500D01*
X191325500Y-120971500D01*
X190126250Y-120971500D01*
X189967500Y-121130250D01*
X174702577Y-121130250D01*
X174969960Y-121120356D01*
X175458764Y-120917887D01*
X175557427Y-120651032D01*
X174584500Y-119678105D01*
X173611573Y-120651032D01*
X169057427Y-120651032D01*
X168084500Y-119678105D01*
X167111573Y-120651032D01*
X153215964Y-120651032D01*
X152867743Y-119810353D01*
X152497022Y-119589584D01*
X150801605Y-121285000D01*
X150442395Y-121285000D01*
X148746978Y-119589584D01*
X148376257Y-119810353D01*
X147982881Y-120782012D01*
X122011052Y-120782012D01*
X122010713Y-120739753D01*
X121625743Y-119810353D01*
X121255022Y-119589584D01*
X119559605Y-121285000D01*
X119200395Y-121285000D01*
X117504978Y-119589584D01*
X117134257Y-119810353D01*
X116740881Y-120782012D01*
X116534000Y-120782012D01*
X116534000Y-119409978D01*
X117684584Y-119409978D01*
X119380000Y-121105395D01*
X121075416Y-119409978D01*
X148926584Y-119409978D01*
X150622000Y-121105395D01*
X152317416Y-119409978D01*
X152212596Y-119233961D01*
X166438592Y-119233961D01*
X166462644Y-119883960D01*
X166665113Y-120372764D01*
X166931968Y-120471427D01*
X167904895Y-119498500D01*
X168264105Y-119498500D01*
X169237032Y-120471427D01*
X169503887Y-120372764D01*
X169730408Y-119763039D01*
X169710831Y-119233961D01*
X172938592Y-119233961D01*
X172962644Y-119883960D01*
X173165113Y-120372764D01*
X173431968Y-120471427D01*
X174404895Y-119498500D01*
X174764105Y-119498500D01*
X175737032Y-120471427D01*
X176003887Y-120372764D01*
X176230408Y-119763039D01*
X176206356Y-119113040D01*
X176003887Y-118624236D01*
X175737032Y-118525573D01*
X174764105Y-119498500D01*
X174404895Y-119498500D01*
X173431968Y-118525573D01*
X173165113Y-118624236D01*
X172938592Y-119233961D01*
X169710831Y-119233961D01*
X169706356Y-119113040D01*
X169503887Y-118624236D01*
X169237032Y-118525573D01*
X168264105Y-119498500D01*
X167904895Y-119498500D01*
X166931968Y-118525573D01*
X166665113Y-118624236D01*
X166438592Y-119233961D01*
X152212596Y-119233961D01*
X152096647Y-119039257D01*
X151124988Y-118645881D01*
X150076753Y-118654287D01*
X149147353Y-119039257D01*
X148926584Y-119409978D01*
X121075416Y-119409978D01*
X120854647Y-119039257D01*
X119882988Y-118645881D01*
X118834753Y-118654287D01*
X117905353Y-119039257D01*
X117684584Y-119409978D01*
X116534000Y-119409978D01*
X116534000Y-118345968D01*
X167111573Y-118345968D01*
X168084500Y-119318895D01*
X169057427Y-118345968D01*
X173611573Y-118345968D01*
X174584500Y-119318895D01*
X175557427Y-118345968D01*
X175458764Y-118079113D01*
X174849039Y-117852592D01*
X174199040Y-117876644D01*
X173710236Y-118079113D01*
X173611573Y-118345968D01*
X169057427Y-118345968D01*
X168958764Y-118079113D01*
X168349039Y-117852592D01*
X167699040Y-117876644D01*
X167210236Y-118079113D01*
X167111573Y-118345968D01*
X116534000Y-118345968D01*
X116534000Y-110297032D01*
X156380073Y-110297032D01*
X156478736Y-110563887D01*
X157088461Y-110790408D01*
X157738460Y-110766356D01*
X158227264Y-110563887D01*
X158325927Y-110297032D01*
X162880073Y-110297032D01*
X162978736Y-110563887D01*
X163588461Y-110790408D01*
X164238460Y-110766356D01*
X164727264Y-110563887D01*
X164825927Y-110297032D01*
X163853000Y-109324105D01*
X162880073Y-110297032D01*
X158325927Y-110297032D01*
X157353000Y-109324105D01*
X156380073Y-110297032D01*
X116534000Y-110297032D01*
X116534000Y-108879961D01*
X155707092Y-108879961D01*
X155731144Y-109529960D01*
X155933613Y-110018764D01*
X156200468Y-110117427D01*
X157173395Y-109144500D01*
X157532605Y-109144500D01*
X158505532Y-110117427D01*
X158772387Y-110018764D01*
X158998908Y-109409039D01*
X158979331Y-108879961D01*
X162207092Y-108879961D01*
X162231144Y-109529960D01*
X162433613Y-110018764D01*
X162700468Y-110117427D01*
X163673395Y-109144500D01*
X164032605Y-109144500D01*
X165005532Y-110117427D01*
X165272387Y-110018764D01*
X165498908Y-109409039D01*
X165474856Y-108759040D01*
X165272387Y-108270236D01*
X165005532Y-108171573D01*
X164032605Y-109144500D01*
X163673395Y-109144500D01*
X162700468Y-108171573D01*
X162433613Y-108270236D01*
X162207092Y-108879961D01*
X158979331Y-108879961D01*
X158974856Y-108759040D01*
X158772387Y-108270236D01*
X158505532Y-108171573D01*
X157532605Y-109144500D01*
X157173395Y-109144500D01*
X156200468Y-108171573D01*
X155933613Y-108270236D01*
X155707092Y-108879961D01*
X116534000Y-108879961D01*
X116534000Y-107991968D01*
X156380073Y-107991968D01*
X157353000Y-108964895D01*
X158325927Y-107991968D01*
X162880073Y-107991968D01*
X163853000Y-108964895D01*
X164825927Y-107991968D01*
X164727264Y-107725113D01*
X164117539Y-107498592D01*
X163467540Y-107522644D01*
X162978736Y-107725113D01*
X162880073Y-107991968D01*
X158325927Y-107991968D01*
X158227264Y-107725113D01*
X157617539Y-107498592D01*
X156967540Y-107522644D01*
X156478736Y-107725113D01*
X156380073Y-107991968D01*
X116534000Y-107991968D01*
X116534000Y-94585022D01*
X117684584Y-94585022D01*
X117905353Y-94955743D01*
X118877012Y-95349119D01*
X119925247Y-95340713D01*
X120854647Y-94955743D01*
X121075416Y-94585022D01*
X119380000Y-92889605D01*
X117684584Y-94585022D01*
X116534000Y-94585022D01*
X116534000Y-92207012D01*
X116740881Y-92207012D01*
X116749287Y-93255247D01*
X117134257Y-94184647D01*
X117504978Y-94405416D01*
X119200395Y-92710000D01*
X119559605Y-92710000D01*
X121255022Y-94405416D01*
X121625743Y-94184647D01*
X122019119Y-93212988D01*
X122012863Y-92432750D01*
X125891874Y-92432750D01*
X125891874Y-93123309D01*
X125988547Y-93356698D01*
X126167175Y-93535327D01*
X126400564Y-93632000D01*
X127091124Y-93632000D01*
X127249874Y-93473250D01*
X127249874Y-92274000D01*
X126050624Y-92274000D01*
X125891874Y-92432750D01*
X122012863Y-92432750D01*
X122010713Y-92164753D01*
X121625743Y-91235353D01*
X121517161Y-91170691D01*
X125891874Y-91170691D01*
X125891874Y-91861250D01*
X126050624Y-92020000D01*
X127249874Y-92020000D01*
X127249874Y-90820750D01*
X127503874Y-90820750D01*
X127503874Y-92020000D01*
X127523874Y-92020000D01*
X127523874Y-92274000D01*
X127503874Y-92274000D01*
X127503874Y-93473250D01*
X127662624Y-93632000D01*
X128353184Y-93632000D01*
X128586573Y-93535327D01*
X128765201Y-93356698D01*
X128831778Y-93195967D01*
X128846249Y-93217625D01*
X129337456Y-93545839D01*
X129770618Y-93632000D01*
X130063130Y-93632000D01*
X130496292Y-93545839D01*
X130987499Y-93217625D01*
X131186874Y-92919239D01*
X131386249Y-93217625D01*
X131877456Y-93545839D01*
X132310618Y-93632000D01*
X132603130Y-93632000D01*
X132823619Y-93588142D01*
X133010335Y-93712902D01*
X133306872Y-93771887D01*
X133603410Y-93712902D01*
X133854802Y-93544928D01*
X134022776Y-93293536D01*
X134024780Y-93283461D01*
X134417456Y-93545839D01*
X134850618Y-93632000D01*
X135143130Y-93632000D01*
X135576292Y-93545839D01*
X136067499Y-93217625D01*
X136266874Y-92919239D01*
X136466249Y-93217625D01*
X136957456Y-93545839D01*
X137390618Y-93632000D01*
X137683130Y-93632000D01*
X138116292Y-93545839D01*
X138607499Y-93217625D01*
X138806874Y-92919239D01*
X139006249Y-93217625D01*
X139497456Y-93545839D01*
X139930618Y-93632000D01*
X140223130Y-93632000D01*
X140656292Y-93545839D01*
X141147499Y-93217625D01*
X141346874Y-92919239D01*
X141546249Y-93217625D01*
X142037456Y-93545839D01*
X142470618Y-93632000D01*
X142763130Y-93632000D01*
X142983282Y-93588209D01*
X152309044Y-102913972D01*
X152351445Y-102977429D01*
X152602837Y-103145404D01*
X152824522Y-103189500D01*
X152824527Y-103189500D01*
X152899374Y-103204388D01*
X152974221Y-103189500D01*
X156593220Y-103189500D01*
X156426847Y-103258414D01*
X155966914Y-103718347D01*
X155718000Y-104319278D01*
X155718000Y-104969722D01*
X155966914Y-105570653D01*
X156426847Y-106030586D01*
X157027778Y-106279500D01*
X157678222Y-106279500D01*
X158279153Y-106030586D01*
X158739086Y-105570653D01*
X158807909Y-105404500D01*
X162398091Y-105404500D01*
X162466914Y-105570653D01*
X162926847Y-106030586D01*
X163527778Y-106279500D01*
X164178222Y-106279500D01*
X164344376Y-106210677D01*
X169302671Y-111168973D01*
X169345071Y-111232429D01*
X169596463Y-111400404D01*
X169818148Y-111444500D01*
X169818153Y-111444500D01*
X169893000Y-111459388D01*
X169967847Y-111444500D01*
X190174322Y-111444500D01*
X190381875Y-111755125D01*
X190680261Y-111954500D01*
X190381875Y-112153875D01*
X190174322Y-112464500D01*
X176433347Y-112464500D01*
X176358500Y-112449612D01*
X176283653Y-112464500D01*
X176283648Y-112464500D01*
X176061963Y-112508596D01*
X175810571Y-112676571D01*
X175768171Y-112740027D01*
X175075875Y-113432323D01*
X174909722Y-113363500D01*
X174259278Y-113363500D01*
X173658347Y-113612414D01*
X173198414Y-114072347D01*
X173129591Y-114238500D01*
X169539409Y-114238500D01*
X169470586Y-114072347D01*
X169010653Y-113612414D01*
X168409722Y-113363500D01*
X167759278Y-113363500D01*
X167158347Y-113612414D01*
X166698414Y-114072347D01*
X166449500Y-114673278D01*
X166449500Y-115323722D01*
X166698414Y-115924653D01*
X167158347Y-116384586D01*
X167759278Y-116633500D01*
X168409722Y-116633500D01*
X169010653Y-116384586D01*
X169470586Y-115924653D01*
X169539409Y-115758500D01*
X173129591Y-115758500D01*
X173198414Y-115924653D01*
X173658347Y-116384586D01*
X174259278Y-116633500D01*
X174909722Y-116633500D01*
X175510653Y-116384586D01*
X175970586Y-115924653D01*
X176219500Y-115323722D01*
X176219500Y-114673278D01*
X176150677Y-114507125D01*
X176673302Y-113984500D01*
X190174322Y-113984500D01*
X190381875Y-114295125D01*
X190680261Y-114494500D01*
X190381875Y-114693875D01*
X190053661Y-115185082D01*
X189938408Y-115764500D01*
X190053661Y-116343918D01*
X190381875Y-116835125D01*
X190680261Y-117034500D01*
X190381875Y-117233875D01*
X190053661Y-117725082D01*
X189938408Y-118304500D01*
X190053661Y-118883918D01*
X190381875Y-119375125D01*
X190403533Y-119389596D01*
X190242802Y-119456173D01*
X190064173Y-119634801D01*
X189967500Y-119868190D01*
X189967500Y-120558750D01*
X190126250Y-120717500D01*
X191325500Y-120717500D01*
X191325500Y-120697500D01*
X191579500Y-120697500D01*
X191579500Y-120717500D01*
X192778750Y-120717500D01*
X192937500Y-120558750D01*
X192937500Y-119868190D01*
X192840827Y-119634801D01*
X192662198Y-119456173D01*
X192501467Y-119389596D01*
X192523125Y-119375125D01*
X192851339Y-118883918D01*
X192966592Y-118304500D01*
X192851339Y-117725082D01*
X192523125Y-117233875D01*
X192224739Y-117034500D01*
X192523125Y-116835125D01*
X192851339Y-116343918D01*
X192966592Y-115764500D01*
X192851339Y-115185082D01*
X192523125Y-114693875D01*
X192224739Y-114494500D01*
X192523125Y-114295125D01*
X192851339Y-113803918D01*
X192966592Y-113224500D01*
X192851339Y-112645082D01*
X192523125Y-112153875D01*
X192224739Y-111954500D01*
X192523125Y-111755125D01*
X192851339Y-111263918D01*
X192966592Y-110684500D01*
X192851339Y-110105082D01*
X192523125Y-109613875D01*
X192224739Y-109414500D01*
X192523125Y-109215125D01*
X192851339Y-108723918D01*
X192966592Y-108144500D01*
X192851339Y-107565082D01*
X192523125Y-107073875D01*
X192224739Y-106874500D01*
X192523125Y-106675125D01*
X192851339Y-106183918D01*
X192966592Y-105604500D01*
X192851339Y-105025082D01*
X192523125Y-104533875D01*
X192224739Y-104334500D01*
X192523125Y-104135125D01*
X192851339Y-103643918D01*
X192966592Y-103064500D01*
X192851339Y-102485082D01*
X192523125Y-101993875D01*
X192224739Y-101794500D01*
X192523125Y-101595125D01*
X192851339Y-101103918D01*
X192966592Y-100524500D01*
X192851339Y-99945082D01*
X192523125Y-99453875D01*
X192224739Y-99254500D01*
X192523125Y-99055125D01*
X192851339Y-98563918D01*
X192966592Y-97984500D01*
X192851339Y-97405082D01*
X192523125Y-96913875D01*
X192224739Y-96714500D01*
X192523125Y-96515125D01*
X192851339Y-96023918D01*
X192966592Y-95444500D01*
X192851339Y-94865082D01*
X192523125Y-94373875D01*
X192204022Y-94160657D01*
X192333858Y-94099683D01*
X192724145Y-93671424D01*
X192893976Y-93261390D01*
X192772655Y-93031500D01*
X191579500Y-93031500D01*
X191579500Y-93051500D01*
X191325500Y-93051500D01*
X191325500Y-93031500D01*
X190132345Y-93031500D01*
X190011024Y-93261390D01*
X190180855Y-93671424D01*
X190571142Y-94099683D01*
X190700978Y-94160657D01*
X190381875Y-94373875D01*
X190053661Y-94865082D01*
X189938408Y-95444500D01*
X190053661Y-96023918D01*
X190316039Y-96416594D01*
X190305964Y-96418598D01*
X190054572Y-96586572D01*
X189886598Y-96837964D01*
X189827613Y-97134501D01*
X189886598Y-97431038D01*
X190011358Y-97617755D01*
X189938408Y-97984500D01*
X190053661Y-98563918D01*
X190381875Y-99055125D01*
X190680261Y-99254500D01*
X190381875Y-99453875D01*
X190174322Y-99764500D01*
X188026213Y-99764500D01*
X180809322Y-92547610D01*
X190011024Y-92547610D01*
X190132345Y-92777500D01*
X191325500Y-92777500D01*
X191325500Y-91583681D01*
X191579500Y-91583681D01*
X191579500Y-92777500D01*
X192772655Y-92777500D01*
X192893976Y-92547610D01*
X192724145Y-92137576D01*
X192333858Y-91709317D01*
X191809392Y-91463014D01*
X191579500Y-91583681D01*
X191325500Y-91583681D01*
X191095608Y-91463014D01*
X190571142Y-91709317D01*
X190180855Y-92137576D01*
X190011024Y-92547610D01*
X180809322Y-92547610D01*
X176804241Y-88542530D01*
X176761839Y-88479071D01*
X176510447Y-88311096D01*
X176288762Y-88267000D01*
X176288757Y-88267000D01*
X176213910Y-88252112D01*
X176139063Y-88267000D01*
X138191720Y-88267000D01*
X138116873Y-88252112D01*
X138042026Y-88267000D01*
X138042022Y-88267000D01*
X137820337Y-88311096D01*
X137820335Y-88311097D01*
X137820336Y-88311097D01*
X137632400Y-88436671D01*
X137632398Y-88436673D01*
X137568945Y-88479071D01*
X137526547Y-88542524D01*
X135363282Y-90705791D01*
X135143130Y-90662000D01*
X134850618Y-90662000D01*
X134417456Y-90748161D01*
X133926249Y-91076375D01*
X133726874Y-91374761D01*
X133527499Y-91076375D01*
X133036292Y-90748161D01*
X132603130Y-90662000D01*
X132310618Y-90662000D01*
X131877456Y-90748161D01*
X131484780Y-91010539D01*
X131482776Y-91000464D01*
X131314802Y-90749072D01*
X131063410Y-90581098D01*
X130766872Y-90522113D01*
X130470335Y-90581098D01*
X130283619Y-90705858D01*
X130063130Y-90662000D01*
X129770618Y-90662000D01*
X129337456Y-90748161D01*
X128846249Y-91076375D01*
X128831778Y-91098033D01*
X128765201Y-90937302D01*
X128586573Y-90758673D01*
X128353184Y-90662000D01*
X127662624Y-90662000D01*
X127503874Y-90820750D01*
X127249874Y-90820750D01*
X127091124Y-90662000D01*
X126400564Y-90662000D01*
X126167175Y-90758673D01*
X125988547Y-90937302D01*
X125891874Y-91170691D01*
X121517161Y-91170691D01*
X121255022Y-91014584D01*
X119559605Y-92710000D01*
X119200395Y-92710000D01*
X117504978Y-91014584D01*
X117134257Y-91235353D01*
X116740881Y-92207012D01*
X116534000Y-92207012D01*
X116534000Y-90834978D01*
X117684584Y-90834978D01*
X119380000Y-92530395D01*
X121075416Y-90834978D01*
X120854647Y-90464257D01*
X119882988Y-90070881D01*
X118834753Y-90079287D01*
X117905353Y-90464257D01*
X117684584Y-90834978D01*
X116534000Y-90834978D01*
X116534000Y-88475796D01*
X117075601Y-89017397D01*
X118117583Y-89449000D01*
X119245417Y-89449000D01*
X120287399Y-89017397D01*
X121084897Y-88219899D01*
X121516500Y-87177917D01*
X121516500Y-86050083D01*
X121084897Y-85008101D01*
X120352796Y-84276000D01*
X189844704Y-84276000D01*
X189112603Y-85008101D01*
G36*
X177889847Y-103258414D02*
X177429914Y-103718347D01*
X177181000Y-104319278D01*
X177181000Y-104969722D01*
X177429914Y-105570653D01*
X177889847Y-106030586D01*
X178490778Y-106279500D01*
X179141222Y-106279500D01*
X179742153Y-106030586D01*
X180202086Y-105570653D01*
X180270909Y-105404500D01*
X183861091Y-105404500D01*
X183929914Y-105570653D01*
X184389847Y-106030586D01*
X184990778Y-106279500D01*
X185641222Y-106279500D01*
X186242153Y-106030586D01*
X186702086Y-105570653D01*
X186951000Y-104969722D01*
X186951000Y-104717801D01*
X190011291Y-107778093D01*
X189938408Y-108144500D01*
X190053661Y-108723918D01*
X190381875Y-109215125D01*
X190680261Y-109414500D01*
X190381875Y-109613875D01*
X190174322Y-109924500D01*
X186770407Y-109924500D01*
X186961908Y-109409039D01*
X186937856Y-108759040D01*
X186735387Y-108270236D01*
X186468532Y-108171573D01*
X185495605Y-109144500D01*
X185509748Y-109158643D01*
X185330143Y-109338248D01*
X185316000Y-109324105D01*
X185301858Y-109338248D01*
X185122253Y-109158643D01*
X185136395Y-109144500D01*
X184163468Y-108171573D01*
X183896613Y-108270236D01*
X183670092Y-108879961D01*
X183694144Y-109529960D01*
X183857568Y-109924500D01*
X180270407Y-109924500D01*
X180461908Y-109409039D01*
X180437856Y-108759040D01*
X180235387Y-108270236D01*
X179968532Y-108171573D01*
X178995605Y-109144500D01*
X179009748Y-109158643D01*
X178830143Y-109338248D01*
X178816000Y-109324105D01*
X178801858Y-109338248D01*
X178622253Y-109158643D01*
X178636395Y-109144500D01*
X177663468Y-108171573D01*
X177396613Y-108270236D01*
X177170092Y-108879961D01*
X177194144Y-109529960D01*
X177357568Y-109924500D01*
X170207802Y-109924500D01*
X168275270Y-107991968D01*
X177843073Y-107991968D01*
X178816000Y-108964895D01*
X179788927Y-107991968D01*
X184343073Y-107991968D01*
X185316000Y-108964895D01*
X186288927Y-107991968D01*
X186190264Y-107725113D01*
X185580539Y-107498592D01*
X184930540Y-107522644D01*
X184441736Y-107725113D01*
X184343073Y-107991968D01*
X179788927Y-107991968D01*
X179690264Y-107725113D01*
X179080539Y-107498592D01*
X178430540Y-107522644D01*
X177941736Y-107725113D01*
X177843073Y-107991968D01*
X168275270Y-107991968D01*
X165419177Y-105135876D01*
X165488000Y-104969722D01*
X165488000Y-104319278D01*
X165239086Y-103718347D01*
X164779153Y-103258414D01*
X164612780Y-103189500D01*
X178056220Y-103189500D01*
X177889847Y-103258414D01*
X177889847Y-103258414D01*
G37*
X177889847Y-103258414D02*
X177429914Y-103718347D01*
X177181000Y-104319278D01*
X177181000Y-104969722D01*
X177429914Y-105570653D01*
X177889847Y-106030586D01*
X178490778Y-106279500D01*
X179141222Y-106279500D01*
X179742153Y-106030586D01*
X180202086Y-105570653D01*
X180270909Y-105404500D01*
X183861091Y-105404500D01*
X183929914Y-105570653D01*
X184389847Y-106030586D01*
X184990778Y-106279500D01*
X185641222Y-106279500D01*
X186242153Y-106030586D01*
X186702086Y-105570653D01*
X186951000Y-104969722D01*
X186951000Y-104717801D01*
X190011291Y-107778093D01*
X189938408Y-108144500D01*
X190053661Y-108723918D01*
X190381875Y-109215125D01*
X190680261Y-109414500D01*
X190381875Y-109613875D01*
X190174322Y-109924500D01*
X186770407Y-109924500D01*
X186961908Y-109409039D01*
X186937856Y-108759040D01*
X186735387Y-108270236D01*
X186468532Y-108171573D01*
X185495605Y-109144500D01*
X185509748Y-109158643D01*
X185330143Y-109338248D01*
X185316000Y-109324105D01*
X185301858Y-109338248D01*
X185122253Y-109158643D01*
X185136395Y-109144500D01*
X184163468Y-108171573D01*
X183896613Y-108270236D01*
X183670092Y-108879961D01*
X183694144Y-109529960D01*
X183857568Y-109924500D01*
X180270407Y-109924500D01*
X180461908Y-109409039D01*
X180437856Y-108759040D01*
X180235387Y-108270236D01*
X179968532Y-108171573D01*
X178995605Y-109144500D01*
X179009748Y-109158643D01*
X178830143Y-109338248D01*
X178816000Y-109324105D01*
X178801858Y-109338248D01*
X178622253Y-109158643D01*
X178636395Y-109144500D01*
X177663468Y-108171573D01*
X177396613Y-108270236D01*
X177170092Y-108879961D01*
X177194144Y-109529960D01*
X177357568Y-109924500D01*
X170207802Y-109924500D01*
X168275270Y-107991968D01*
X177843073Y-107991968D01*
X178816000Y-108964895D01*
X179788927Y-107991968D01*
X184343073Y-107991968D01*
X185316000Y-108964895D01*
X186288927Y-107991968D01*
X186190264Y-107725113D01*
X185580539Y-107498592D01*
X184930540Y-107522644D01*
X184441736Y-107725113D01*
X184343073Y-107991968D01*
X179788927Y-107991968D01*
X179690264Y-107725113D01*
X179080539Y-107498592D01*
X178430540Y-107522644D01*
X177941736Y-107725113D01*
X177843073Y-107991968D01*
X168275270Y-107991968D01*
X165419177Y-105135876D01*
X165488000Y-104969722D01*
X165488000Y-104319278D01*
X165239086Y-103718347D01*
X164779153Y-103258414D01*
X164612780Y-103189500D01*
X178056220Y-103189500D01*
X177889847Y-103258414D01*
G36*
X148926584Y-90834978D02*
X150622000Y-92530395D01*
X152317416Y-90834978D01*
X152260558Y-90739500D01*
X175512699Y-90739500D01*
X190011291Y-105238093D01*
X189946520Y-105563718D01*
X186327831Y-101945030D01*
X186285429Y-101881571D01*
X186034037Y-101713596D01*
X185812352Y-101669500D01*
X185812347Y-101669500D01*
X185737500Y-101654612D01*
X185662653Y-101669500D01*
X153214176Y-101669500D01*
X151431208Y-99886532D01*
X167111573Y-99886532D01*
X167210236Y-100153387D01*
X167819961Y-100379908D01*
X168469960Y-100355856D01*
X168958764Y-100153387D01*
X169057427Y-99886532D01*
X173611573Y-99886532D01*
X173710236Y-100153387D01*
X174319961Y-100379908D01*
X174969960Y-100355856D01*
X175458764Y-100153387D01*
X175557427Y-99886532D01*
X174584500Y-98913605D01*
X173611573Y-99886532D01*
X169057427Y-99886532D01*
X168084500Y-98913605D01*
X167111573Y-99886532D01*
X151431208Y-99886532D01*
X150014137Y-98469461D01*
X166438592Y-98469461D01*
X166462644Y-99119460D01*
X166665113Y-99608264D01*
X166931968Y-99706927D01*
X167904895Y-98734000D01*
X168264105Y-98734000D01*
X169237032Y-99706927D01*
X169503887Y-99608264D01*
X169730408Y-98998539D01*
X169710831Y-98469461D01*
X172938592Y-98469461D01*
X172962644Y-99119460D01*
X173165113Y-99608264D01*
X173431968Y-99706927D01*
X174404895Y-98734000D01*
X174764105Y-98734000D01*
X175737032Y-99706927D01*
X176003887Y-99608264D01*
X176230408Y-98998539D01*
X176206356Y-98348540D01*
X176003887Y-97859736D01*
X175737032Y-97761073D01*
X174764105Y-98734000D01*
X174404895Y-98734000D01*
X173431968Y-97761073D01*
X173165113Y-97859736D01*
X172938592Y-98469461D01*
X169710831Y-98469461D01*
X169706356Y-98348540D01*
X169503887Y-97859736D01*
X169237032Y-97761073D01*
X168264105Y-98734000D01*
X167904895Y-98734000D01*
X166931968Y-97761073D01*
X166665113Y-97859736D01*
X166438592Y-98469461D01*
X150014137Y-98469461D01*
X149126144Y-97581468D01*
X167111573Y-97581468D01*
X168084500Y-98554395D01*
X169057427Y-97581468D01*
X173611573Y-97581468D01*
X174584500Y-98554395D01*
X175557427Y-97581468D01*
X175458764Y-97314613D01*
X174849039Y-97088092D01*
X174199040Y-97112144D01*
X173710236Y-97314613D01*
X173611573Y-97581468D01*
X169057427Y-97581468D01*
X168958764Y-97314613D01*
X168349039Y-97088092D01*
X167699040Y-97112144D01*
X167210236Y-97314613D01*
X167111573Y-97581468D01*
X149126144Y-97581468D01*
X146129698Y-94585022D01*
X148926584Y-94585022D01*
X149147353Y-94955743D01*
X150119012Y-95349119D01*
X151167247Y-95340713D01*
X152096647Y-94955743D01*
X152317416Y-94585022D01*
X150622000Y-92889605D01*
X148926584Y-94585022D01*
X146129698Y-94585022D01*
X144058083Y-92513408D01*
X144119028Y-92207012D01*
X147982881Y-92207012D01*
X147991287Y-93255247D01*
X148376257Y-94184647D01*
X148746978Y-94405416D01*
X150442395Y-92710000D01*
X150801605Y-92710000D01*
X152497022Y-94405416D01*
X152867743Y-94184647D01*
X152979428Y-93908778D01*
X166449500Y-93908778D01*
X166449500Y-94559222D01*
X166698414Y-95160153D01*
X167158347Y-95620086D01*
X167759278Y-95869000D01*
X168409722Y-95869000D01*
X169010653Y-95620086D01*
X169470586Y-95160153D01*
X169539409Y-94994000D01*
X173129591Y-94994000D01*
X173198414Y-95160153D01*
X173658347Y-95620086D01*
X174259278Y-95869000D01*
X174909722Y-95869000D01*
X175510653Y-95620086D01*
X175970586Y-95160153D01*
X176219500Y-94559222D01*
X176219500Y-93908778D01*
X175970586Y-93307847D01*
X175510653Y-92847914D01*
X174909722Y-92599000D01*
X174259278Y-92599000D01*
X173658347Y-92847914D01*
X173198414Y-93307847D01*
X173129591Y-93474000D01*
X169539409Y-93474000D01*
X169470586Y-93307847D01*
X169010653Y-92847914D01*
X168409722Y-92599000D01*
X167759278Y-92599000D01*
X167158347Y-92847914D01*
X166698414Y-93307847D01*
X166449500Y-93908778D01*
X152979428Y-93908778D01*
X153261119Y-93212988D01*
X153252713Y-92164753D01*
X152867743Y-91235353D01*
X152497022Y-91014584D01*
X150801605Y-92710000D01*
X150442395Y-92710000D01*
X148746978Y-91014584D01*
X148376257Y-91235353D01*
X147982881Y-92207012D01*
X144119028Y-92207012D01*
X144130966Y-92147000D01*
X144015713Y-91567582D01*
X143687499Y-91076375D01*
X143196292Y-90748161D01*
X143152750Y-90739500D01*
X148983442Y-90739500D01*
X148926584Y-90834978D01*
X148926584Y-90834978D01*
G37*
X148926584Y-90834978D02*
X150622000Y-92530395D01*
X152317416Y-90834978D01*
X152260558Y-90739500D01*
X175512699Y-90739500D01*
X190011291Y-105238093D01*
X189946520Y-105563718D01*
X186327831Y-101945030D01*
X186285429Y-101881571D01*
X186034037Y-101713596D01*
X185812352Y-101669500D01*
X185812347Y-101669500D01*
X185737500Y-101654612D01*
X185662653Y-101669500D01*
X153214176Y-101669500D01*
X151431208Y-99886532D01*
X167111573Y-99886532D01*
X167210236Y-100153387D01*
X167819961Y-100379908D01*
X168469960Y-100355856D01*
X168958764Y-100153387D01*
X169057427Y-99886532D01*
X173611573Y-99886532D01*
X173710236Y-100153387D01*
X174319961Y-100379908D01*
X174969960Y-100355856D01*
X175458764Y-100153387D01*
X175557427Y-99886532D01*
X174584500Y-98913605D01*
X173611573Y-99886532D01*
X169057427Y-99886532D01*
X168084500Y-98913605D01*
X167111573Y-99886532D01*
X151431208Y-99886532D01*
X150014137Y-98469461D01*
X166438592Y-98469461D01*
X166462644Y-99119460D01*
X166665113Y-99608264D01*
X166931968Y-99706927D01*
X167904895Y-98734000D01*
X168264105Y-98734000D01*
X169237032Y-99706927D01*
X169503887Y-99608264D01*
X169730408Y-98998539D01*
X169710831Y-98469461D01*
X172938592Y-98469461D01*
X172962644Y-99119460D01*
X173165113Y-99608264D01*
X173431968Y-99706927D01*
X174404895Y-98734000D01*
X174764105Y-98734000D01*
X175737032Y-99706927D01*
X176003887Y-99608264D01*
X176230408Y-98998539D01*
X176206356Y-98348540D01*
X176003887Y-97859736D01*
X175737032Y-97761073D01*
X174764105Y-98734000D01*
X174404895Y-98734000D01*
X173431968Y-97761073D01*
X173165113Y-97859736D01*
X172938592Y-98469461D01*
X169710831Y-98469461D01*
X169706356Y-98348540D01*
X169503887Y-97859736D01*
X169237032Y-97761073D01*
X168264105Y-98734000D01*
X167904895Y-98734000D01*
X166931968Y-97761073D01*
X166665113Y-97859736D01*
X166438592Y-98469461D01*
X150014137Y-98469461D01*
X149126144Y-97581468D01*
X167111573Y-97581468D01*
X168084500Y-98554395D01*
X169057427Y-97581468D01*
X173611573Y-97581468D01*
X174584500Y-98554395D01*
X175557427Y-97581468D01*
X175458764Y-97314613D01*
X174849039Y-97088092D01*
X174199040Y-97112144D01*
X173710236Y-97314613D01*
X173611573Y-97581468D01*
X169057427Y-97581468D01*
X168958764Y-97314613D01*
X168349039Y-97088092D01*
X167699040Y-97112144D01*
X167210236Y-97314613D01*
X167111573Y-97581468D01*
X149126144Y-97581468D01*
X146129698Y-94585022D01*
X148926584Y-94585022D01*
X149147353Y-94955743D01*
X150119012Y-95349119D01*
X151167247Y-95340713D01*
X152096647Y-94955743D01*
X152317416Y-94585022D01*
X150622000Y-92889605D01*
X148926584Y-94585022D01*
X146129698Y-94585022D01*
X144058083Y-92513408D01*
X144119028Y-92207012D01*
X147982881Y-92207012D01*
X147991287Y-93255247D01*
X148376257Y-94184647D01*
X148746978Y-94405416D01*
X150442395Y-92710000D01*
X150801605Y-92710000D01*
X152497022Y-94405416D01*
X152867743Y-94184647D01*
X152979428Y-93908778D01*
X166449500Y-93908778D01*
X166449500Y-94559222D01*
X166698414Y-95160153D01*
X167158347Y-95620086D01*
X167759278Y-95869000D01*
X168409722Y-95869000D01*
X169010653Y-95620086D01*
X169470586Y-95160153D01*
X169539409Y-94994000D01*
X173129591Y-94994000D01*
X173198414Y-95160153D01*
X173658347Y-95620086D01*
X174259278Y-95869000D01*
X174909722Y-95869000D01*
X175510653Y-95620086D01*
X175970586Y-95160153D01*
X176219500Y-94559222D01*
X176219500Y-93908778D01*
X175970586Y-93307847D01*
X175510653Y-92847914D01*
X174909722Y-92599000D01*
X174259278Y-92599000D01*
X173658347Y-92847914D01*
X173198414Y-93307847D01*
X173129591Y-93474000D01*
X169539409Y-93474000D01*
X169470586Y-93307847D01*
X169010653Y-92847914D01*
X168409722Y-92599000D01*
X167759278Y-92599000D01*
X167158347Y-92847914D01*
X166698414Y-93307847D01*
X166449500Y-93908778D01*
X152979428Y-93908778D01*
X153261119Y-93212988D01*
X153252713Y-92164753D01*
X152867743Y-91235353D01*
X152497022Y-91014584D01*
X150801605Y-92710000D01*
X150442395Y-92710000D01*
X148746978Y-91014584D01*
X148376257Y-91235353D01*
X147982881Y-92207012D01*
X144119028Y-92207012D01*
X144130966Y-92147000D01*
X144015713Y-91567582D01*
X143687499Y-91076375D01*
X143196292Y-90748161D01*
X143152750Y-90739500D01*
X148983442Y-90739500D01*
X148926584Y-90834978D01*
G04 #@! TD*
M02*
