G04 #@! TF.GenerationSoftware,KiCad,Pcbnew,(5.0.0)*
G04 #@! TF.CreationDate,2019-01-21T00:51:31-08:00*
G04 #@! TF.ProjectId,Display,446973706C61792E6B696361645F7063,rev?*
G04 #@! TF.SameCoordinates,Original*
G04 #@! TF.FileFunction,Legend,Bot*
G04 #@! TF.FilePolarity,Positive*
%FSLAX46Y46*%
G04 Gerber Fmt 4.6, Leading zero omitted, Abs format (unit mm)*
G04 Created by KiCad (PCBNEW (5.0.0)) date 01/21/19 00:51:31*
%MOMM*%
%LPD*%
G01*
G04 APERTURE LIST*
%ADD10C,0.010000*%
G04 APERTURE END LIST*
D10*
G04 #@! TO.C,G\002A\002A\002A*
G36*
X165341665Y-86290692D02*
X165208666Y-86545476D01*
X165163500Y-86830892D01*
X165066824Y-87195082D01*
X164909500Y-87375999D01*
X164756241Y-87542568D01*
X164678545Y-87806516D01*
X164655595Y-88242294D01*
X164655500Y-88284478D01*
X164641950Y-88709337D01*
X164587461Y-88946859D01*
X164471280Y-89062902D01*
X164401500Y-89090500D01*
X164214505Y-89229310D01*
X164148998Y-89527102D01*
X164147500Y-89607058D01*
X164100660Y-89939494D01*
X163965559Y-90043000D01*
X163786198Y-90149031D01*
X163700091Y-90306165D01*
X163661086Y-90641844D01*
X163726322Y-90956161D01*
X163868637Y-91156963D01*
X163959420Y-91186000D01*
X164126785Y-91260660D01*
X164147500Y-91322956D01*
X164232783Y-91480618D01*
X164452336Y-91741302D01*
X164655500Y-91948000D01*
X164936144Y-92239159D01*
X165120637Y-92471825D01*
X165163500Y-92564484D01*
X165268483Y-92701619D01*
X165417500Y-92773500D01*
X165622858Y-92891374D01*
X165671500Y-92981629D01*
X165752468Y-93172815D01*
X165833864Y-93271506D01*
X166003224Y-93369191D01*
X166151364Y-93267794D01*
X166217477Y-93070391D01*
X166266959Y-92672652D01*
X166300105Y-92126944D01*
X166317206Y-91485636D01*
X166318556Y-90801092D01*
X166304449Y-90125680D01*
X166275177Y-89511767D01*
X166231035Y-89011719D01*
X166172315Y-88677903D01*
X166125072Y-88573428D01*
X165912581Y-88422137D01*
X165807572Y-88392000D01*
X165732855Y-88270752D01*
X165686042Y-87927859D01*
X165671500Y-87449887D01*
X165659851Y-86820127D01*
X165620512Y-86420337D01*
X165546894Y-86227363D01*
X165432410Y-86218053D01*
X165341665Y-86290692D01*
X165341665Y-86290692D01*
G37*
X165341665Y-86290692D02*
X165208666Y-86545476D01*
X165163500Y-86830892D01*
X165066824Y-87195082D01*
X164909500Y-87375999D01*
X164756241Y-87542568D01*
X164678545Y-87806516D01*
X164655595Y-88242294D01*
X164655500Y-88284478D01*
X164641950Y-88709337D01*
X164587461Y-88946859D01*
X164471280Y-89062902D01*
X164401500Y-89090500D01*
X164214505Y-89229310D01*
X164148998Y-89527102D01*
X164147500Y-89607058D01*
X164100660Y-89939494D01*
X163965559Y-90043000D01*
X163786198Y-90149031D01*
X163700091Y-90306165D01*
X163661086Y-90641844D01*
X163726322Y-90956161D01*
X163868637Y-91156963D01*
X163959420Y-91186000D01*
X164126785Y-91260660D01*
X164147500Y-91322956D01*
X164232783Y-91480618D01*
X164452336Y-91741302D01*
X164655500Y-91948000D01*
X164936144Y-92239159D01*
X165120637Y-92471825D01*
X165163500Y-92564484D01*
X165268483Y-92701619D01*
X165417500Y-92773500D01*
X165622858Y-92891374D01*
X165671500Y-92981629D01*
X165752468Y-93172815D01*
X165833864Y-93271506D01*
X166003224Y-93369191D01*
X166151364Y-93267794D01*
X166217477Y-93070391D01*
X166266959Y-92672652D01*
X166300105Y-92126944D01*
X166317206Y-91485636D01*
X166318556Y-90801092D01*
X166304449Y-90125680D01*
X166275177Y-89511767D01*
X166231035Y-89011719D01*
X166172315Y-88677903D01*
X166125072Y-88573428D01*
X165912581Y-88422137D01*
X165807572Y-88392000D01*
X165732855Y-88270752D01*
X165686042Y-87927859D01*
X165671500Y-87449887D01*
X165659851Y-86820127D01*
X165620512Y-86420337D01*
X165546894Y-86227363D01*
X165432410Y-86218053D01*
X165341665Y-86290692D01*
G36*
X139814237Y-86749107D02*
X139754996Y-86792400D01*
X139710629Y-86899337D01*
X139678989Y-87098376D01*
X139657928Y-87417973D01*
X139645297Y-87886588D01*
X139638950Y-88532677D01*
X139636738Y-89384698D01*
X139636500Y-90106500D01*
X139638454Y-91140832D01*
X139645226Y-91947201D01*
X139658184Y-92551620D01*
X139678696Y-92980102D01*
X139708128Y-93258660D01*
X139747849Y-93413307D01*
X139799225Y-93470057D01*
X139813413Y-93472000D01*
X139954252Y-93515266D01*
X140050163Y-93669539D01*
X140108754Y-93971524D01*
X140137630Y-94457931D01*
X140144500Y-95069887D01*
X140152600Y-95651324D01*
X140180765Y-96018357D01*
X140234792Y-96210183D01*
X140320478Y-96265996D01*
X140321413Y-96266000D01*
X140522694Y-96382846D01*
X140633325Y-96719813D01*
X140652500Y-97024619D01*
X140712037Y-97311928D01*
X140932336Y-97450980D01*
X140970000Y-97461151D01*
X141197209Y-97570517D01*
X141281136Y-97798619D01*
X141287500Y-97954883D01*
X141380322Y-98366647D01*
X141541500Y-98552000D01*
X141694760Y-98718568D01*
X141772456Y-98982516D01*
X141795406Y-99418294D01*
X141795500Y-99460478D01*
X141809051Y-99885337D01*
X141863540Y-100122859D01*
X141979721Y-100238902D01*
X142049500Y-100266500D01*
X142255440Y-100407626D01*
X142303500Y-100529058D01*
X142409256Y-100676566D01*
X142557500Y-100711000D01*
X142696848Y-100684401D01*
X142773515Y-100566624D01*
X142805648Y-100300695D01*
X142811500Y-99913536D01*
X142796036Y-99444349D01*
X142737423Y-99157186D01*
X142617332Y-98981288D01*
X142557500Y-98933000D01*
X142347630Y-98635855D01*
X142303500Y-98361500D01*
X142208108Y-97971802D01*
X142049500Y-97790000D01*
X141837837Y-97485727D01*
X141795500Y-97190463D01*
X141747143Y-96871152D01*
X141607420Y-96774000D01*
X141436929Y-96663671D01*
X141330111Y-96394088D01*
X141314085Y-96057350D01*
X141348215Y-95893776D01*
X141435400Y-95714593D01*
X141560046Y-95760955D01*
X141613682Y-95812039D01*
X141745404Y-96065635D01*
X141795500Y-96383928D01*
X141833386Y-96666846D01*
X141975489Y-96768860D01*
X142049500Y-96774000D01*
X142188848Y-96747401D01*
X142265515Y-96629624D01*
X142297648Y-96363695D01*
X142303500Y-95976536D01*
X142288036Y-95507349D01*
X142229423Y-95220186D01*
X142109332Y-95044288D01*
X142049500Y-94996000D01*
X141889438Y-94816723D01*
X141812563Y-94529237D01*
X141795500Y-94142463D01*
X141774173Y-93720290D01*
X141703574Y-93511430D01*
X141618588Y-93472000D01*
X141416996Y-93354933D01*
X141306835Y-93014545D01*
X141287500Y-92699612D01*
X141247087Y-92436667D01*
X141151429Y-92329000D01*
X140920102Y-92224680D01*
X140722039Y-91986027D01*
X140652500Y-91757499D01*
X140737442Y-91489329D01*
X140814864Y-91386493D01*
X141009958Y-91309982D01*
X141176803Y-91442878D01*
X141275720Y-91740845D01*
X141287500Y-91914603D01*
X141384218Y-92274937D01*
X141541500Y-92456000D01*
X141751371Y-92753144D01*
X141795500Y-93027500D01*
X141890893Y-93417197D01*
X142049500Y-93599000D01*
X142209563Y-93778276D01*
X142286438Y-94065762D01*
X142303500Y-94452536D01*
X142324828Y-94874709D01*
X142395427Y-95083569D01*
X142480413Y-95123000D01*
X142657854Y-95204467D01*
X142764214Y-95468054D01*
X142808775Y-95942542D01*
X142811500Y-96149387D01*
X142835824Y-96555879D01*
X142915411Y-96747492D01*
X142988413Y-96774000D01*
X143190005Y-96891066D01*
X143300166Y-97231454D01*
X143319500Y-97546387D01*
X143368649Y-97820504D01*
X143481964Y-97917000D01*
X143675394Y-98010788D01*
X143827500Y-98171000D01*
X144055722Y-98369370D01*
X144236537Y-98425000D01*
X144347128Y-98396911D01*
X144414743Y-98280277D01*
X144449547Y-98026541D01*
X144461703Y-97587147D01*
X144462500Y-97345500D01*
X144452999Y-96796546D01*
X144420107Y-96460891D01*
X144357246Y-96298392D01*
X144285588Y-96266000D01*
X144083996Y-96148933D01*
X143973835Y-95808545D01*
X143954500Y-95493612D01*
X143914087Y-95230667D01*
X143818429Y-95123000D01*
X143570966Y-95010310D01*
X143385177Y-94729461D01*
X143319500Y-94398107D01*
X143222824Y-94033917D01*
X143065500Y-93853000D01*
X142901435Y-93665855D01*
X142825324Y-93363818D01*
X142811500Y-93027500D01*
X142784262Y-92592906D01*
X142686533Y-92329965D01*
X142557500Y-92202000D01*
X142347630Y-91904855D01*
X142303500Y-91630500D01*
X142208108Y-91240802D01*
X142049500Y-91059000D01*
X141838613Y-90758046D01*
X141795500Y-90474275D01*
X141762643Y-90275556D01*
X140583092Y-90275556D01*
X140566186Y-90501154D01*
X140565834Y-90502075D01*
X140470193Y-90599719D01*
X140343830Y-90518308D01*
X140254754Y-90337356D01*
X140323497Y-90220520D01*
X140481221Y-90157642D01*
X140583092Y-90275556D01*
X141762643Y-90275556D01*
X141742993Y-90156714D01*
X141562661Y-90012222D01*
X141541500Y-90006201D01*
X141360974Y-89890837D01*
X141291822Y-89626670D01*
X141287500Y-89483389D01*
X141254161Y-89184933D01*
X141171911Y-89032197D01*
X141151429Y-89026999D01*
X140903966Y-88914310D01*
X140718177Y-88633461D01*
X140652500Y-88302107D01*
X140555824Y-87937917D01*
X140398500Y-87757000D01*
X140186837Y-87452727D01*
X140144500Y-87157463D01*
X140111721Y-86863025D01*
X139986170Y-86750287D01*
X139890500Y-86741000D01*
X139814237Y-86749107D01*
X139814237Y-86749107D01*
G37*
X139814237Y-86749107D02*
X139754996Y-86792400D01*
X139710629Y-86899337D01*
X139678989Y-87098376D01*
X139657928Y-87417973D01*
X139645297Y-87886588D01*
X139638950Y-88532677D01*
X139636738Y-89384698D01*
X139636500Y-90106500D01*
X139638454Y-91140832D01*
X139645226Y-91947201D01*
X139658184Y-92551620D01*
X139678696Y-92980102D01*
X139708128Y-93258660D01*
X139747849Y-93413307D01*
X139799225Y-93470057D01*
X139813413Y-93472000D01*
X139954252Y-93515266D01*
X140050163Y-93669539D01*
X140108754Y-93971524D01*
X140137630Y-94457931D01*
X140144500Y-95069887D01*
X140152600Y-95651324D01*
X140180765Y-96018357D01*
X140234792Y-96210183D01*
X140320478Y-96265996D01*
X140321413Y-96266000D01*
X140522694Y-96382846D01*
X140633325Y-96719813D01*
X140652500Y-97024619D01*
X140712037Y-97311928D01*
X140932336Y-97450980D01*
X140970000Y-97461151D01*
X141197209Y-97570517D01*
X141281136Y-97798619D01*
X141287500Y-97954883D01*
X141380322Y-98366647D01*
X141541500Y-98552000D01*
X141694760Y-98718568D01*
X141772456Y-98982516D01*
X141795406Y-99418294D01*
X141795500Y-99460478D01*
X141809051Y-99885337D01*
X141863540Y-100122859D01*
X141979721Y-100238902D01*
X142049500Y-100266500D01*
X142255440Y-100407626D01*
X142303500Y-100529058D01*
X142409256Y-100676566D01*
X142557500Y-100711000D01*
X142696848Y-100684401D01*
X142773515Y-100566624D01*
X142805648Y-100300695D01*
X142811500Y-99913536D01*
X142796036Y-99444349D01*
X142737423Y-99157186D01*
X142617332Y-98981288D01*
X142557500Y-98933000D01*
X142347630Y-98635855D01*
X142303500Y-98361500D01*
X142208108Y-97971802D01*
X142049500Y-97790000D01*
X141837837Y-97485727D01*
X141795500Y-97190463D01*
X141747143Y-96871152D01*
X141607420Y-96774000D01*
X141436929Y-96663671D01*
X141330111Y-96394088D01*
X141314085Y-96057350D01*
X141348215Y-95893776D01*
X141435400Y-95714593D01*
X141560046Y-95760955D01*
X141613682Y-95812039D01*
X141745404Y-96065635D01*
X141795500Y-96383928D01*
X141833386Y-96666846D01*
X141975489Y-96768860D01*
X142049500Y-96774000D01*
X142188848Y-96747401D01*
X142265515Y-96629624D01*
X142297648Y-96363695D01*
X142303500Y-95976536D01*
X142288036Y-95507349D01*
X142229423Y-95220186D01*
X142109332Y-95044288D01*
X142049500Y-94996000D01*
X141889438Y-94816723D01*
X141812563Y-94529237D01*
X141795500Y-94142463D01*
X141774173Y-93720290D01*
X141703574Y-93511430D01*
X141618588Y-93472000D01*
X141416996Y-93354933D01*
X141306835Y-93014545D01*
X141287500Y-92699612D01*
X141247087Y-92436667D01*
X141151429Y-92329000D01*
X140920102Y-92224680D01*
X140722039Y-91986027D01*
X140652500Y-91757499D01*
X140737442Y-91489329D01*
X140814864Y-91386493D01*
X141009958Y-91309982D01*
X141176803Y-91442878D01*
X141275720Y-91740845D01*
X141287500Y-91914603D01*
X141384218Y-92274937D01*
X141541500Y-92456000D01*
X141751371Y-92753144D01*
X141795500Y-93027500D01*
X141890893Y-93417197D01*
X142049500Y-93599000D01*
X142209563Y-93778276D01*
X142286438Y-94065762D01*
X142303500Y-94452536D01*
X142324828Y-94874709D01*
X142395427Y-95083569D01*
X142480413Y-95123000D01*
X142657854Y-95204467D01*
X142764214Y-95468054D01*
X142808775Y-95942542D01*
X142811500Y-96149387D01*
X142835824Y-96555879D01*
X142915411Y-96747492D01*
X142988413Y-96774000D01*
X143190005Y-96891066D01*
X143300166Y-97231454D01*
X143319500Y-97546387D01*
X143368649Y-97820504D01*
X143481964Y-97917000D01*
X143675394Y-98010788D01*
X143827500Y-98171000D01*
X144055722Y-98369370D01*
X144236537Y-98425000D01*
X144347128Y-98396911D01*
X144414743Y-98280277D01*
X144449547Y-98026541D01*
X144461703Y-97587147D01*
X144462500Y-97345500D01*
X144452999Y-96796546D01*
X144420107Y-96460891D01*
X144357246Y-96298392D01*
X144285588Y-96266000D01*
X144083996Y-96148933D01*
X143973835Y-95808545D01*
X143954500Y-95493612D01*
X143914087Y-95230667D01*
X143818429Y-95123000D01*
X143570966Y-95010310D01*
X143385177Y-94729461D01*
X143319500Y-94398107D01*
X143222824Y-94033917D01*
X143065500Y-93853000D01*
X142901435Y-93665855D01*
X142825324Y-93363818D01*
X142811500Y-93027500D01*
X142784262Y-92592906D01*
X142686533Y-92329965D01*
X142557500Y-92202000D01*
X142347630Y-91904855D01*
X142303500Y-91630500D01*
X142208108Y-91240802D01*
X142049500Y-91059000D01*
X141838613Y-90758046D01*
X141795500Y-90474275D01*
X141762643Y-90275556D01*
X140583092Y-90275556D01*
X140566186Y-90501154D01*
X140565834Y-90502075D01*
X140470193Y-90599719D01*
X140343830Y-90518308D01*
X140254754Y-90337356D01*
X140323497Y-90220520D01*
X140481221Y-90157642D01*
X140583092Y-90275556D01*
X141762643Y-90275556D01*
X141742993Y-90156714D01*
X141562661Y-90012222D01*
X141541500Y-90006201D01*
X141360974Y-89890837D01*
X141291822Y-89626670D01*
X141287500Y-89483389D01*
X141254161Y-89184933D01*
X141171911Y-89032197D01*
X141151429Y-89026999D01*
X140903966Y-88914310D01*
X140718177Y-88633461D01*
X140652500Y-88302107D01*
X140555824Y-87937917D01*
X140398500Y-87757000D01*
X140186837Y-87452727D01*
X140144500Y-87157463D01*
X140111721Y-86863025D01*
X139986170Y-86750287D01*
X139890500Y-86741000D01*
X139814237Y-86749107D01*
G36*
X149972148Y-101875300D02*
X149825262Y-101961391D01*
X149796500Y-102108000D01*
X149839101Y-102274176D01*
X150011284Y-102347619D01*
X150304500Y-102362000D01*
X150636853Y-102340699D01*
X150783739Y-102254608D01*
X150812500Y-102108000D01*
X150769900Y-101941823D01*
X150597717Y-101868380D01*
X150304500Y-101854000D01*
X149972148Y-101875300D01*
X149972148Y-101875300D01*
G37*
X149972148Y-101875300D02*
X149825262Y-101961391D01*
X149796500Y-102108000D01*
X149839101Y-102274176D01*
X150011284Y-102347619D01*
X150304500Y-102362000D01*
X150636853Y-102340699D01*
X150783739Y-102254608D01*
X150812500Y-102108000D01*
X150769900Y-101941823D01*
X150597717Y-101868380D01*
X150304500Y-101854000D01*
X149972148Y-101875300D01*
G36*
X158887924Y-100764745D02*
X158819165Y-100970601D01*
X158813500Y-101127463D01*
X158720971Y-101541203D01*
X158559500Y-101727000D01*
X158361130Y-101955221D01*
X158305500Y-102136036D01*
X158360291Y-102286294D01*
X158565082Y-102351933D01*
X158813500Y-102362000D01*
X159321500Y-102362000D01*
X159321500Y-101536500D01*
X159313584Y-101089752D01*
X159278322Y-100840680D01*
X159198445Y-100733157D01*
X159067500Y-100711000D01*
X158887924Y-100764745D01*
X158887924Y-100764745D01*
G37*
X158887924Y-100764745D02*
X158819165Y-100970601D01*
X158813500Y-101127463D01*
X158720971Y-101541203D01*
X158559500Y-101727000D01*
X158361130Y-101955221D01*
X158305500Y-102136036D01*
X158360291Y-102286294D01*
X158565082Y-102351933D01*
X158813500Y-102362000D01*
X159321500Y-102362000D01*
X159321500Y-101536500D01*
X159313584Y-101089752D01*
X159278322Y-100840680D01*
X159198445Y-100733157D01*
X159067500Y-100711000D01*
X158887924Y-100764745D01*
G36*
X149844398Y-103572797D02*
X149796500Y-103667463D01*
X149702712Y-103860893D01*
X149542500Y-104013000D01*
X149344130Y-104241221D01*
X149288500Y-104422036D01*
X149343291Y-104572294D01*
X149548082Y-104637933D01*
X149796500Y-104648000D01*
X150304500Y-104648000D01*
X150304500Y-104076500D01*
X150287881Y-103719357D01*
X150218873Y-103550475D01*
X150068747Y-103505218D01*
X150050500Y-103505000D01*
X149844398Y-103572797D01*
X149844398Y-103572797D01*
G37*
X149844398Y-103572797D02*
X149796500Y-103667463D01*
X149702712Y-103860893D01*
X149542500Y-104013000D01*
X149344130Y-104241221D01*
X149288500Y-104422036D01*
X149343291Y-104572294D01*
X149548082Y-104637933D01*
X149796500Y-104648000D01*
X150304500Y-104648000D01*
X150304500Y-104076500D01*
X150287881Y-103719357D01*
X150218873Y-103550475D01*
X150068747Y-103505218D01*
X150050500Y-103505000D01*
X149844398Y-103572797D01*
G36*
X158353398Y-103572797D02*
X158305500Y-103667463D01*
X158211712Y-103860893D01*
X158051500Y-104013000D01*
X157853130Y-104241221D01*
X157797500Y-104422036D01*
X157852291Y-104572294D01*
X158057082Y-104637933D01*
X158305500Y-104648000D01*
X158813500Y-104648000D01*
X158813500Y-104076500D01*
X158796881Y-103719357D01*
X158727873Y-103550475D01*
X158577747Y-103505218D01*
X158559500Y-103505000D01*
X158353398Y-103572797D01*
X158353398Y-103572797D01*
G37*
X158353398Y-103572797D02*
X158305500Y-103667463D01*
X158211712Y-103860893D01*
X158051500Y-104013000D01*
X157853130Y-104241221D01*
X157797500Y-104422036D01*
X157852291Y-104572294D01*
X158057082Y-104637933D01*
X158305500Y-104648000D01*
X158813500Y-104648000D01*
X158813500Y-104076500D01*
X158796881Y-103719357D01*
X158727873Y-103550475D01*
X158577747Y-103505218D01*
X158559500Y-103505000D01*
X158353398Y-103572797D01*
G36*
X149851323Y-105230413D02*
X149796500Y-105473500D01*
X149856031Y-105722471D01*
X150050500Y-105791000D01*
X150249678Y-105716586D01*
X150304500Y-105473500D01*
X150244970Y-105224528D01*
X150050500Y-105156000D01*
X149851323Y-105230413D01*
X149851323Y-105230413D01*
G37*
X149851323Y-105230413D02*
X149796500Y-105473500D01*
X149856031Y-105722471D01*
X150050500Y-105791000D01*
X150249678Y-105716586D01*
X150304500Y-105473500D01*
X150244970Y-105224528D01*
X150050500Y-105156000D01*
X149851323Y-105230413D01*
G36*
X157852323Y-105230413D02*
X157797500Y-105473500D01*
X157857031Y-105722471D01*
X158051500Y-105791000D01*
X158250678Y-105716586D01*
X158305500Y-105473500D01*
X158245970Y-105224528D01*
X158051500Y-105156000D01*
X157852323Y-105230413D01*
X157852323Y-105230413D01*
G37*
X157852323Y-105230413D02*
X157797500Y-105473500D01*
X157857031Y-105722471D01*
X158051500Y-105791000D01*
X158250678Y-105716586D01*
X158305500Y-105473500D01*
X158245970Y-105224528D01*
X158051500Y-105156000D01*
X157852323Y-105230413D01*
G36*
X168327394Y-85111163D02*
X167483635Y-85115646D01*
X166796297Y-85123243D01*
X166293751Y-85133771D01*
X166004365Y-85147050D01*
X165951933Y-85153703D01*
X165754118Y-85226865D01*
X165779562Y-85338320D01*
X165847612Y-85411254D01*
X166061261Y-85565404D01*
X166170429Y-85597999D01*
X166240705Y-85721602D01*
X166286542Y-86080806D01*
X166305961Y-86658211D01*
X166306500Y-86794112D01*
X166315466Y-87473825D01*
X166347431Y-87936712D01*
X166410004Y-88219482D01*
X166510789Y-88358841D01*
X166637588Y-88392000D01*
X166699277Y-88432195D01*
X166745335Y-88572466D01*
X166777818Y-88842341D01*
X166798784Y-89271350D01*
X166810288Y-89889021D01*
X166814388Y-90724883D01*
X166814500Y-90932000D01*
X166811701Y-91817694D01*
X166801931Y-92478965D01*
X166783134Y-92945340D01*
X166753253Y-93246349D01*
X166710232Y-93411520D01*
X166652014Y-93470381D01*
X166637588Y-93472000D01*
X166476945Y-93533756D01*
X166374640Y-93742828D01*
X166321051Y-94134921D01*
X166306500Y-94700776D01*
X166316254Y-95155270D01*
X166357012Y-95416809D01*
X166446025Y-95546064D01*
X166560501Y-95594201D01*
X166672528Y-95642522D01*
X166745803Y-95748232D01*
X166788450Y-95957661D01*
X166808593Y-96317142D01*
X166814355Y-96873006D01*
X166814500Y-97042812D01*
X166807987Y-97673397D01*
X166785241Y-98087790D01*
X166741457Y-98323544D01*
X166671829Y-98418209D01*
X166637588Y-98425000D01*
X166522928Y-98450895D01*
X166437824Y-98549877D01*
X166378022Y-98753890D01*
X166339270Y-99094875D01*
X166317316Y-99604777D01*
X166307905Y-100315539D01*
X166306500Y-100911887D01*
X166298486Y-101807871D01*
X166274351Y-102452446D01*
X166233959Y-102847698D01*
X166177175Y-102995715D01*
X166170429Y-102997000D01*
X165921870Y-103110234D01*
X165737365Y-103395193D01*
X165671500Y-103741370D01*
X165605743Y-104063010D01*
X165417500Y-104203500D01*
X165223979Y-104353534D01*
X165163600Y-104672830D01*
X165163500Y-104692021D01*
X165069970Y-105098698D01*
X164909500Y-105283000D01*
X164776171Y-105416777D01*
X164698781Y-105621014D01*
X164663271Y-105958972D01*
X164655500Y-106426000D01*
X164645530Y-106937069D01*
X164606248Y-107257859D01*
X164523596Y-107451632D01*
X164401501Y-107569000D01*
X164183587Y-107854355D01*
X164186426Y-108180864D01*
X164401500Y-108458000D01*
X164597865Y-108654244D01*
X164655500Y-108789948D01*
X164751981Y-108956284D01*
X165054445Y-109055173D01*
X165582421Y-109092382D01*
X165681888Y-109093000D01*
X166055349Y-109104240D01*
X166240236Y-109159079D01*
X166301695Y-109289195D01*
X166306500Y-109396732D01*
X166221868Y-109661646D01*
X165989000Y-109780151D01*
X165750602Y-109904182D01*
X165671500Y-110047919D01*
X165595091Y-110171542D01*
X165336913Y-110228237D01*
X165090929Y-110236000D01*
X164638476Y-110278329D01*
X164353039Y-110390910D01*
X164263039Y-110552126D01*
X164396895Y-110740365D01*
X164412522Y-110751943D01*
X164547190Y-110896715D01*
X164622053Y-111130123D01*
X164652327Y-111517621D01*
X164655500Y-111797107D01*
X164686083Y-112399739D01*
X164778804Y-112764189D01*
X164837319Y-112848960D01*
X164988729Y-112956285D01*
X165077719Y-112841924D01*
X165099877Y-112776389D01*
X165173291Y-112641231D01*
X165325606Y-112564166D01*
X165616228Y-112529621D01*
X166070130Y-112522000D01*
X166703258Y-112482900D01*
X167108777Y-112361703D01*
X167301366Y-112152561D01*
X167322500Y-112023071D01*
X167436840Y-111971190D01*
X167783636Y-111931965D01*
X168368552Y-111905109D01*
X169197255Y-111890331D01*
X169989500Y-111887000D01*
X171006370Y-111892833D01*
X171775168Y-111910527D01*
X172301560Y-111940369D01*
X172591211Y-111982650D01*
X172656500Y-112023071D01*
X172754645Y-112275301D01*
X173058865Y-112436855D01*
X173583836Y-112513580D01*
X173908871Y-112522000D01*
X174384313Y-112530746D01*
X174665430Y-112567351D01*
X174811600Y-112647359D01*
X174879001Y-112776000D01*
X175017811Y-112962995D01*
X175315603Y-113028502D01*
X175395559Y-113030000D01*
X175685907Y-113064788D01*
X175828503Y-113150126D01*
X175831500Y-113166071D01*
X175926755Y-113427260D01*
X176155784Y-113592257D01*
X176433488Y-113642028D01*
X176674767Y-113557543D01*
X176784682Y-113379250D01*
X176793584Y-113216248D01*
X176801529Y-112815904D01*
X176808478Y-112194875D01*
X176814390Y-111369817D01*
X176819225Y-110357386D01*
X176822945Y-109174240D01*
X176825508Y-107837034D01*
X176826875Y-106362425D01*
X176827006Y-104767070D01*
X176825861Y-103067624D01*
X176823400Y-101280745D01*
X176819583Y-99423089D01*
X176818852Y-99123500D01*
X176784000Y-85153500D01*
X171513500Y-85118199D01*
X170370696Y-85112258D01*
X169299204Y-85109973D01*
X168327394Y-85111163D01*
X168327394Y-85111163D01*
G37*
X168327394Y-85111163D02*
X167483635Y-85115646D01*
X166796297Y-85123243D01*
X166293751Y-85133771D01*
X166004365Y-85147050D01*
X165951933Y-85153703D01*
X165754118Y-85226865D01*
X165779562Y-85338320D01*
X165847612Y-85411254D01*
X166061261Y-85565404D01*
X166170429Y-85597999D01*
X166240705Y-85721602D01*
X166286542Y-86080806D01*
X166305961Y-86658211D01*
X166306500Y-86794112D01*
X166315466Y-87473825D01*
X166347431Y-87936712D01*
X166410004Y-88219482D01*
X166510789Y-88358841D01*
X166637588Y-88392000D01*
X166699277Y-88432195D01*
X166745335Y-88572466D01*
X166777818Y-88842341D01*
X166798784Y-89271350D01*
X166810288Y-89889021D01*
X166814388Y-90724883D01*
X166814500Y-90932000D01*
X166811701Y-91817694D01*
X166801931Y-92478965D01*
X166783134Y-92945340D01*
X166753253Y-93246349D01*
X166710232Y-93411520D01*
X166652014Y-93470381D01*
X166637588Y-93472000D01*
X166476945Y-93533756D01*
X166374640Y-93742828D01*
X166321051Y-94134921D01*
X166306500Y-94700776D01*
X166316254Y-95155270D01*
X166357012Y-95416809D01*
X166446025Y-95546064D01*
X166560501Y-95594201D01*
X166672528Y-95642522D01*
X166745803Y-95748232D01*
X166788450Y-95957661D01*
X166808593Y-96317142D01*
X166814355Y-96873006D01*
X166814500Y-97042812D01*
X166807987Y-97673397D01*
X166785241Y-98087790D01*
X166741457Y-98323544D01*
X166671829Y-98418209D01*
X166637588Y-98425000D01*
X166522928Y-98450895D01*
X166437824Y-98549877D01*
X166378022Y-98753890D01*
X166339270Y-99094875D01*
X166317316Y-99604777D01*
X166307905Y-100315539D01*
X166306500Y-100911887D01*
X166298486Y-101807871D01*
X166274351Y-102452446D01*
X166233959Y-102847698D01*
X166177175Y-102995715D01*
X166170429Y-102997000D01*
X165921870Y-103110234D01*
X165737365Y-103395193D01*
X165671500Y-103741370D01*
X165605743Y-104063010D01*
X165417500Y-104203500D01*
X165223979Y-104353534D01*
X165163600Y-104672830D01*
X165163500Y-104692021D01*
X165069970Y-105098698D01*
X164909500Y-105283000D01*
X164776171Y-105416777D01*
X164698781Y-105621014D01*
X164663271Y-105958972D01*
X164655500Y-106426000D01*
X164645530Y-106937069D01*
X164606248Y-107257859D01*
X164523596Y-107451632D01*
X164401501Y-107569000D01*
X164183587Y-107854355D01*
X164186426Y-108180864D01*
X164401500Y-108458000D01*
X164597865Y-108654244D01*
X164655500Y-108789948D01*
X164751981Y-108956284D01*
X165054445Y-109055173D01*
X165582421Y-109092382D01*
X165681888Y-109093000D01*
X166055349Y-109104240D01*
X166240236Y-109159079D01*
X166301695Y-109289195D01*
X166306500Y-109396732D01*
X166221868Y-109661646D01*
X165989000Y-109780151D01*
X165750602Y-109904182D01*
X165671500Y-110047919D01*
X165595091Y-110171542D01*
X165336913Y-110228237D01*
X165090929Y-110236000D01*
X164638476Y-110278329D01*
X164353039Y-110390910D01*
X164263039Y-110552126D01*
X164396895Y-110740365D01*
X164412522Y-110751943D01*
X164547190Y-110896715D01*
X164622053Y-111130123D01*
X164652327Y-111517621D01*
X164655500Y-111797107D01*
X164686083Y-112399739D01*
X164778804Y-112764189D01*
X164837319Y-112848960D01*
X164988729Y-112956285D01*
X165077719Y-112841924D01*
X165099877Y-112776389D01*
X165173291Y-112641231D01*
X165325606Y-112564166D01*
X165616228Y-112529621D01*
X166070130Y-112522000D01*
X166703258Y-112482900D01*
X167108777Y-112361703D01*
X167301366Y-112152561D01*
X167322500Y-112023071D01*
X167436840Y-111971190D01*
X167783636Y-111931965D01*
X168368552Y-111905109D01*
X169197255Y-111890331D01*
X169989500Y-111887000D01*
X171006370Y-111892833D01*
X171775168Y-111910527D01*
X172301560Y-111940369D01*
X172591211Y-111982650D01*
X172656500Y-112023071D01*
X172754645Y-112275301D01*
X173058865Y-112436855D01*
X173583836Y-112513580D01*
X173908871Y-112522000D01*
X174384313Y-112530746D01*
X174665430Y-112567351D01*
X174811600Y-112647359D01*
X174879001Y-112776000D01*
X175017811Y-112962995D01*
X175315603Y-113028502D01*
X175395559Y-113030000D01*
X175685907Y-113064788D01*
X175828503Y-113150126D01*
X175831500Y-113166071D01*
X175926755Y-113427260D01*
X176155784Y-113592257D01*
X176433488Y-113642028D01*
X176674767Y-113557543D01*
X176784682Y-113379250D01*
X176793584Y-113216248D01*
X176801529Y-112815904D01*
X176808478Y-112194875D01*
X176814390Y-111369817D01*
X176819225Y-110357386D01*
X176822945Y-109174240D01*
X176825508Y-107837034D01*
X176826875Y-106362425D01*
X176827006Y-104767070D01*
X176825861Y-103067624D01*
X176823400Y-101280745D01*
X176819583Y-99423089D01*
X176818852Y-99123500D01*
X176784000Y-85153500D01*
X171513500Y-85118199D01*
X170370696Y-85112258D01*
X169299204Y-85109973D01*
X168327394Y-85111163D01*
G36*
X147312107Y-100725101D02*
X147167482Y-100807355D01*
X147130527Y-101017691D01*
X147129500Y-101127463D01*
X147036971Y-101541203D01*
X146875500Y-101727000D01*
X146678837Y-101927793D01*
X146621500Y-102070116D01*
X146513638Y-102218829D01*
X146315006Y-102307085D01*
X146029072Y-102495700D01*
X145931586Y-102690505D01*
X145827440Y-102923195D01*
X145724308Y-102997000D01*
X145553646Y-103079536D01*
X145310443Y-103281025D01*
X145282228Y-103308727D01*
X145048220Y-103674704D01*
X144960613Y-104101617D01*
X145022886Y-104501088D01*
X145224500Y-104775000D01*
X145384563Y-104954276D01*
X145461438Y-105241762D01*
X145478500Y-105628536D01*
X145499828Y-106050709D01*
X145570427Y-106259569D01*
X145655413Y-106299000D01*
X145808795Y-106353391D01*
X145908934Y-106541079D01*
X145964889Y-106898835D01*
X145985720Y-107463429D01*
X145986500Y-107642887D01*
X146004013Y-108160202D01*
X146053537Y-108484319D01*
X146122572Y-108585000D01*
X146371131Y-108698234D01*
X146555636Y-108983193D01*
X146621500Y-109329370D01*
X146687258Y-109651010D01*
X146875500Y-109791500D01*
X147081158Y-109920626D01*
X147129500Y-110026021D01*
X147223011Y-110212484D01*
X147383500Y-110363000D01*
X147580000Y-110561289D01*
X147637500Y-110699978D01*
X147742881Y-110858037D01*
X147891500Y-110934500D01*
X148097440Y-111075626D01*
X148145500Y-111197058D01*
X148246641Y-111359953D01*
X148327442Y-111379000D01*
X148508528Y-111484769D01*
X148590000Y-111633000D01*
X148707875Y-111838357D01*
X148798130Y-111887000D01*
X149006270Y-111982711D01*
X149207567Y-112192348D01*
X149288500Y-112385928D01*
X149398132Y-112484269D01*
X149641464Y-112522000D01*
X149996101Y-112618709D01*
X150177500Y-112776000D01*
X150481293Y-112987559D01*
X150774617Y-113030000D01*
X151080988Y-113070135D01*
X151230282Y-113228897D01*
X151268349Y-113347500D01*
X151345461Y-113540745D01*
X151499300Y-113634591D01*
X151805239Y-113663694D01*
X151958881Y-113665000D01*
X152505880Y-113692231D01*
X152831986Y-113779994D01*
X152965044Y-113937393D01*
X152971500Y-113996087D01*
X153023576Y-114078481D01*
X153205211Y-114131952D01*
X153554523Y-114161614D01*
X154109626Y-114172580D01*
X154290188Y-114173000D01*
X154884389Y-114169172D01*
X155272140Y-114151882D01*
X155500945Y-114112419D01*
X155618311Y-114042070D01*
X155671743Y-113932124D01*
X155675299Y-113919000D01*
X155790663Y-113738473D01*
X156054830Y-113669321D01*
X156198111Y-113665000D01*
X156496567Y-113631660D01*
X156649303Y-113549410D01*
X156654500Y-113528928D01*
X156767735Y-113280369D01*
X157052694Y-113095864D01*
X157398871Y-113030000D01*
X157720511Y-112964242D01*
X157861000Y-112776000D01*
X157996229Y-112570194D01*
X158109791Y-112522000D01*
X158263142Y-112413800D01*
X158357652Y-112204500D01*
X158461633Y-111966585D01*
X158567693Y-111887000D01*
X158748207Y-111798608D01*
X158991130Y-111590363D01*
X159210367Y-111347656D01*
X159319824Y-111155881D01*
X159321500Y-111139330D01*
X159426414Y-111005625D01*
X159575500Y-110934500D01*
X159751635Y-110812776D01*
X159822930Y-110550671D01*
X159823932Y-110522045D01*
X155500868Y-110522045D01*
X155418150Y-110705334D01*
X155203912Y-110951317D01*
X154740739Y-111295495D01*
X154258143Y-111388232D01*
X153773260Y-111229439D01*
X153433334Y-110960300D01*
X153184820Y-110685156D01*
X153111016Y-110510744D01*
X153178207Y-110388800D01*
X153474896Y-110237573D01*
X153753141Y-110291251D01*
X153929369Y-110531654D01*
X153935349Y-110553500D01*
X154058932Y-110757293D01*
X154251555Y-110871780D01*
X154426007Y-110868715D01*
X154495500Y-110734928D01*
X154602433Y-110466993D01*
X154860170Y-110299609D01*
X155174116Y-110267781D01*
X155431522Y-110388546D01*
X155500868Y-110522045D01*
X159823932Y-110522045D01*
X159829500Y-110363000D01*
X159863558Y-110011791D01*
X159987472Y-109834676D01*
X160083500Y-109791500D01*
X160283744Y-109629175D01*
X160337500Y-109329370D01*
X160413398Y-108958535D01*
X160604397Y-108683265D01*
X160738308Y-108626554D01*
X156142443Y-108626554D01*
X156083986Y-108897505D01*
X155892500Y-109029500D01*
X155687188Y-109145796D01*
X155638500Y-109233918D01*
X155560498Y-109424456D01*
X155479750Y-109528805D01*
X155319521Y-109623765D01*
X155210910Y-109497847D01*
X155149914Y-109140653D01*
X155132445Y-108627137D01*
X155141900Y-108057822D01*
X155185356Y-107719743D01*
X155280295Y-107590673D01*
X155444199Y-107648385D01*
X155694552Y-107870652D01*
X155712994Y-107889026D01*
X156016467Y-108275707D01*
X156142443Y-108626554D01*
X160738308Y-108626554D01*
X160836429Y-108585000D01*
X160906705Y-108461397D01*
X160952542Y-108102193D01*
X160971961Y-107524788D01*
X160972500Y-107388887D01*
X160981466Y-106709174D01*
X161013431Y-106246287D01*
X161076004Y-105963517D01*
X161176789Y-105824158D01*
X161303588Y-105791000D01*
X161439297Y-105674579D01*
X161480500Y-105374536D01*
X161573030Y-104960796D01*
X161734500Y-104775000D01*
X161923864Y-104530924D01*
X161988010Y-104128071D01*
X161988500Y-104076500D01*
X161935481Y-103654020D01*
X161759741Y-103397188D01*
X161734500Y-103378000D01*
X161523613Y-103077046D01*
X161480500Y-102793275D01*
X161427993Y-102475714D01*
X161247661Y-102331222D01*
X161226500Y-102325201D01*
X161083771Y-102253688D01*
X161006669Y-102092460D01*
X160976241Y-101778810D01*
X160972500Y-101484889D01*
X160966018Y-101058504D01*
X160930378Y-100826871D01*
X160841293Y-100730788D01*
X160674474Y-100711054D01*
X160655000Y-100711000D01*
X160425860Y-100753590D01*
X160343924Y-100932693D01*
X160337500Y-101081612D01*
X160287319Y-101551903D01*
X160141410Y-101808895D01*
X160006413Y-101854000D01*
X159886336Y-101947088D01*
X159833737Y-102246421D01*
X159829500Y-102425500D01*
X159840298Y-102776849D01*
X159904079Y-102943252D01*
X160067930Y-102993692D01*
X160219572Y-102997000D01*
X160627433Y-103083125D01*
X160896882Y-103311159D01*
X160972500Y-103568500D01*
X160883445Y-103829349D01*
X160680347Y-104056655D01*
X160482130Y-104140000D01*
X160345772Y-104244979D01*
X160273877Y-104394389D01*
X160187438Y-104567456D01*
X160059353Y-104513094D01*
X160011319Y-104466960D01*
X159879597Y-104213364D01*
X159829500Y-103895071D01*
X159791615Y-103612153D01*
X159649512Y-103510139D01*
X159575500Y-103505000D01*
X159447518Y-103526756D01*
X159371508Y-103626533D01*
X159334163Y-103856089D01*
X159322176Y-104267183D01*
X159321500Y-104492963D01*
X159312161Y-105011370D01*
X159275158Y-105338310D01*
X159197013Y-105535919D01*
X159067500Y-105664000D01*
X158844489Y-105933014D01*
X158867587Y-106215009D01*
X159053668Y-106416029D01*
X159186239Y-106532559D01*
X159188811Y-106651416D01*
X159040795Y-106838866D01*
X158867401Y-107015566D01*
X158397076Y-107362551D01*
X157929803Y-107455978D01*
X157459883Y-107295801D01*
X157094767Y-107001733D01*
X156889110Y-106787782D01*
X156760172Y-106601889D01*
X156690042Y-106378031D01*
X156660811Y-106050185D01*
X156654568Y-105552327D01*
X156654500Y-105378769D01*
X156647752Y-104806985D01*
X156620969Y-104434264D01*
X156564350Y-104205878D01*
X156468092Y-104067097D01*
X156411252Y-104020749D01*
X156283487Y-103908614D01*
X156276784Y-103793246D01*
X156414108Y-103615602D01*
X156665252Y-103367669D01*
X156941352Y-103088407D01*
X157121903Y-102878961D01*
X157162500Y-102807385D01*
X157255988Y-102636299D01*
X157458658Y-102453201D01*
X157653820Y-102362259D01*
X157661429Y-102362000D01*
X157771951Y-102255718D01*
X157797500Y-102108000D01*
X157760107Y-101949270D01*
X157604838Y-101874211D01*
X157267056Y-101854096D01*
X157226000Y-101854000D01*
X156842860Y-101881196D01*
X156671954Y-101970573D01*
X156654500Y-102035941D01*
X156548731Y-102217027D01*
X156400500Y-102298500D01*
X156195202Y-102414317D01*
X156146500Y-102501791D01*
X156063356Y-102656465D01*
X155851841Y-102912190D01*
X155706234Y-103064733D01*
X155282821Y-103397917D01*
X154894752Y-103504999D01*
X154894502Y-103505000D01*
X154603120Y-103558092D01*
X154461297Y-103760108D01*
X154442014Y-103827817D01*
X154365186Y-104044622D01*
X154261491Y-104042429D01*
X154174246Y-103963888D01*
X154034580Y-103701864D01*
X153987500Y-103415107D01*
X153890824Y-103050917D01*
X153733500Y-102870000D01*
X153536773Y-102668217D01*
X153479500Y-102524463D01*
X153373504Y-102392636D01*
X153225500Y-102362000D01*
X153041275Y-102420181D01*
X152974847Y-102638410D01*
X152971500Y-102752071D01*
X152924751Y-103068680D01*
X152812125Y-103306582D01*
X152675056Y-103413164D01*
X152554978Y-103335811D01*
X152539336Y-103300849D01*
X152482870Y-103029826D01*
X152463500Y-102732612D01*
X152446012Y-102504647D01*
X152347644Y-102396669D01*
X152099539Y-102364025D01*
X151892000Y-102362000D01*
X151539340Y-102375159D01*
X151372253Y-102439844D01*
X151322683Y-102593863D01*
X151320500Y-102679500D01*
X151386741Y-102934857D01*
X151511000Y-102997000D01*
X151666143Y-103102879D01*
X151701500Y-103251000D01*
X151627870Y-103456977D01*
X151524768Y-103505000D01*
X151364939Y-103613275D01*
X151268349Y-103822500D01*
X151144318Y-104060898D01*
X151000581Y-104140000D01*
X150910853Y-104184827D01*
X150854009Y-104347343D01*
X150823515Y-104669598D01*
X150812840Y-105193642D01*
X150812500Y-105350733D01*
X150812500Y-106561466D01*
X150372234Y-107001733D01*
X149944551Y-107314769D01*
X149496108Y-107455410D01*
X149088296Y-107416470D01*
X148782506Y-107190767D01*
X148780500Y-107188000D01*
X148521026Y-106987873D01*
X148298893Y-106934000D01*
X147989372Y-106864568D01*
X147829950Y-106763592D01*
X147734663Y-106608173D01*
X147844694Y-106461501D01*
X147902522Y-106418056D01*
X148011583Y-106311231D01*
X148082522Y-106145828D01*
X148123225Y-105871733D01*
X148141576Y-105438830D01*
X148145500Y-104873963D01*
X148142466Y-104269817D01*
X148127879Y-103875308D01*
X148093512Y-103646094D01*
X148031137Y-103537835D01*
X147932528Y-103506188D01*
X147891500Y-103505000D01*
X147685158Y-103559936D01*
X147637500Y-103636233D01*
X147554203Y-103796370D01*
X147342509Y-104055304D01*
X147200517Y-104204450D01*
X146937091Y-104455945D01*
X146793566Y-104540935D01*
X146716590Y-104478660D01*
X146683959Y-104390717D01*
X146565998Y-104187103D01*
X146476871Y-104140000D01*
X146285685Y-104059032D01*
X146186994Y-103977636D01*
X146109552Y-103782731D01*
X146243024Y-103617182D01*
X146544441Y-103518079D01*
X146734582Y-103504999D01*
X147055283Y-103437564D01*
X147193000Y-103251000D01*
X147334127Y-103045060D01*
X147455559Y-102997000D01*
X147618922Y-102920652D01*
X147637500Y-102860928D01*
X147753913Y-102600407D01*
X148083168Y-102429281D01*
X148595294Y-102362402D01*
X148644429Y-102362000D01*
X149028616Y-102349008D01*
X149221519Y-102293710D01*
X149285232Y-102171617D01*
X149288500Y-102108000D01*
X149255558Y-101956489D01*
X149115337Y-101880415D01*
X148805745Y-101855289D01*
X148644429Y-101854000D01*
X148230686Y-101819667D01*
X147913966Y-101732562D01*
X147734683Y-101616524D01*
X147733249Y-101495392D01*
X147891111Y-101409623D01*
X148104911Y-101223098D01*
X148145500Y-101019941D01*
X148116348Y-100820663D01*
X147981517Y-100732109D01*
X147669947Y-100711062D01*
X147637500Y-100711000D01*
X147312107Y-100725101D01*
X147312107Y-100725101D01*
G37*
X147312107Y-100725101D02*
X147167482Y-100807355D01*
X147130527Y-101017691D01*
X147129500Y-101127463D01*
X147036971Y-101541203D01*
X146875500Y-101727000D01*
X146678837Y-101927793D01*
X146621500Y-102070116D01*
X146513638Y-102218829D01*
X146315006Y-102307085D01*
X146029072Y-102495700D01*
X145931586Y-102690505D01*
X145827440Y-102923195D01*
X145724308Y-102997000D01*
X145553646Y-103079536D01*
X145310443Y-103281025D01*
X145282228Y-103308727D01*
X145048220Y-103674704D01*
X144960613Y-104101617D01*
X145022886Y-104501088D01*
X145224500Y-104775000D01*
X145384563Y-104954276D01*
X145461438Y-105241762D01*
X145478500Y-105628536D01*
X145499828Y-106050709D01*
X145570427Y-106259569D01*
X145655413Y-106299000D01*
X145808795Y-106353391D01*
X145908934Y-106541079D01*
X145964889Y-106898835D01*
X145985720Y-107463429D01*
X145986500Y-107642887D01*
X146004013Y-108160202D01*
X146053537Y-108484319D01*
X146122572Y-108585000D01*
X146371131Y-108698234D01*
X146555636Y-108983193D01*
X146621500Y-109329370D01*
X146687258Y-109651010D01*
X146875500Y-109791500D01*
X147081158Y-109920626D01*
X147129500Y-110026021D01*
X147223011Y-110212484D01*
X147383500Y-110363000D01*
X147580000Y-110561289D01*
X147637500Y-110699978D01*
X147742881Y-110858037D01*
X147891500Y-110934500D01*
X148097440Y-111075626D01*
X148145500Y-111197058D01*
X148246641Y-111359953D01*
X148327442Y-111379000D01*
X148508528Y-111484769D01*
X148590000Y-111633000D01*
X148707875Y-111838357D01*
X148798130Y-111887000D01*
X149006270Y-111982711D01*
X149207567Y-112192348D01*
X149288500Y-112385928D01*
X149398132Y-112484269D01*
X149641464Y-112522000D01*
X149996101Y-112618709D01*
X150177500Y-112776000D01*
X150481293Y-112987559D01*
X150774617Y-113030000D01*
X151080988Y-113070135D01*
X151230282Y-113228897D01*
X151268349Y-113347500D01*
X151345461Y-113540745D01*
X151499300Y-113634591D01*
X151805239Y-113663694D01*
X151958881Y-113665000D01*
X152505880Y-113692231D01*
X152831986Y-113779994D01*
X152965044Y-113937393D01*
X152971500Y-113996087D01*
X153023576Y-114078481D01*
X153205211Y-114131952D01*
X153554523Y-114161614D01*
X154109626Y-114172580D01*
X154290188Y-114173000D01*
X154884389Y-114169172D01*
X155272140Y-114151882D01*
X155500945Y-114112419D01*
X155618311Y-114042070D01*
X155671743Y-113932124D01*
X155675299Y-113919000D01*
X155790663Y-113738473D01*
X156054830Y-113669321D01*
X156198111Y-113665000D01*
X156496567Y-113631660D01*
X156649303Y-113549410D01*
X156654500Y-113528928D01*
X156767735Y-113280369D01*
X157052694Y-113095864D01*
X157398871Y-113030000D01*
X157720511Y-112964242D01*
X157861000Y-112776000D01*
X157996229Y-112570194D01*
X158109791Y-112522000D01*
X158263142Y-112413800D01*
X158357652Y-112204500D01*
X158461633Y-111966585D01*
X158567693Y-111887000D01*
X158748207Y-111798608D01*
X158991130Y-111590363D01*
X159210367Y-111347656D01*
X159319824Y-111155881D01*
X159321500Y-111139330D01*
X159426414Y-111005625D01*
X159575500Y-110934500D01*
X159751635Y-110812776D01*
X159822930Y-110550671D01*
X159823932Y-110522045D01*
X155500868Y-110522045D01*
X155418150Y-110705334D01*
X155203912Y-110951317D01*
X154740739Y-111295495D01*
X154258143Y-111388232D01*
X153773260Y-111229439D01*
X153433334Y-110960300D01*
X153184820Y-110685156D01*
X153111016Y-110510744D01*
X153178207Y-110388800D01*
X153474896Y-110237573D01*
X153753141Y-110291251D01*
X153929369Y-110531654D01*
X153935349Y-110553500D01*
X154058932Y-110757293D01*
X154251555Y-110871780D01*
X154426007Y-110868715D01*
X154495500Y-110734928D01*
X154602433Y-110466993D01*
X154860170Y-110299609D01*
X155174116Y-110267781D01*
X155431522Y-110388546D01*
X155500868Y-110522045D01*
X159823932Y-110522045D01*
X159829500Y-110363000D01*
X159863558Y-110011791D01*
X159987472Y-109834676D01*
X160083500Y-109791500D01*
X160283744Y-109629175D01*
X160337500Y-109329370D01*
X160413398Y-108958535D01*
X160604397Y-108683265D01*
X160738308Y-108626554D01*
X156142443Y-108626554D01*
X156083986Y-108897505D01*
X155892500Y-109029500D01*
X155687188Y-109145796D01*
X155638500Y-109233918D01*
X155560498Y-109424456D01*
X155479750Y-109528805D01*
X155319521Y-109623765D01*
X155210910Y-109497847D01*
X155149914Y-109140653D01*
X155132445Y-108627137D01*
X155141900Y-108057822D01*
X155185356Y-107719743D01*
X155280295Y-107590673D01*
X155444199Y-107648385D01*
X155694552Y-107870652D01*
X155712994Y-107889026D01*
X156016467Y-108275707D01*
X156142443Y-108626554D01*
X160738308Y-108626554D01*
X160836429Y-108585000D01*
X160906705Y-108461397D01*
X160952542Y-108102193D01*
X160971961Y-107524788D01*
X160972500Y-107388887D01*
X160981466Y-106709174D01*
X161013431Y-106246287D01*
X161076004Y-105963517D01*
X161176789Y-105824158D01*
X161303588Y-105791000D01*
X161439297Y-105674579D01*
X161480500Y-105374536D01*
X161573030Y-104960796D01*
X161734500Y-104775000D01*
X161923864Y-104530924D01*
X161988010Y-104128071D01*
X161988500Y-104076500D01*
X161935481Y-103654020D01*
X161759741Y-103397188D01*
X161734500Y-103378000D01*
X161523613Y-103077046D01*
X161480500Y-102793275D01*
X161427993Y-102475714D01*
X161247661Y-102331222D01*
X161226500Y-102325201D01*
X161083771Y-102253688D01*
X161006669Y-102092460D01*
X160976241Y-101778810D01*
X160972500Y-101484889D01*
X160966018Y-101058504D01*
X160930378Y-100826871D01*
X160841293Y-100730788D01*
X160674474Y-100711054D01*
X160655000Y-100711000D01*
X160425860Y-100753590D01*
X160343924Y-100932693D01*
X160337500Y-101081612D01*
X160287319Y-101551903D01*
X160141410Y-101808895D01*
X160006413Y-101854000D01*
X159886336Y-101947088D01*
X159833737Y-102246421D01*
X159829500Y-102425500D01*
X159840298Y-102776849D01*
X159904079Y-102943252D01*
X160067930Y-102993692D01*
X160219572Y-102997000D01*
X160627433Y-103083125D01*
X160896882Y-103311159D01*
X160972500Y-103568500D01*
X160883445Y-103829349D01*
X160680347Y-104056655D01*
X160482130Y-104140000D01*
X160345772Y-104244979D01*
X160273877Y-104394389D01*
X160187438Y-104567456D01*
X160059353Y-104513094D01*
X160011319Y-104466960D01*
X159879597Y-104213364D01*
X159829500Y-103895071D01*
X159791615Y-103612153D01*
X159649512Y-103510139D01*
X159575500Y-103505000D01*
X159447518Y-103526756D01*
X159371508Y-103626533D01*
X159334163Y-103856089D01*
X159322176Y-104267183D01*
X159321500Y-104492963D01*
X159312161Y-105011370D01*
X159275158Y-105338310D01*
X159197013Y-105535919D01*
X159067500Y-105664000D01*
X158844489Y-105933014D01*
X158867587Y-106215009D01*
X159053668Y-106416029D01*
X159186239Y-106532559D01*
X159188811Y-106651416D01*
X159040795Y-106838866D01*
X158867401Y-107015566D01*
X158397076Y-107362551D01*
X157929803Y-107455978D01*
X157459883Y-107295801D01*
X157094767Y-107001733D01*
X156889110Y-106787782D01*
X156760172Y-106601889D01*
X156690042Y-106378031D01*
X156660811Y-106050185D01*
X156654568Y-105552327D01*
X156654500Y-105378769D01*
X156647752Y-104806985D01*
X156620969Y-104434264D01*
X156564350Y-104205878D01*
X156468092Y-104067097D01*
X156411252Y-104020749D01*
X156283487Y-103908614D01*
X156276784Y-103793246D01*
X156414108Y-103615602D01*
X156665252Y-103367669D01*
X156941352Y-103088407D01*
X157121903Y-102878961D01*
X157162500Y-102807385D01*
X157255988Y-102636299D01*
X157458658Y-102453201D01*
X157653820Y-102362259D01*
X157661429Y-102362000D01*
X157771951Y-102255718D01*
X157797500Y-102108000D01*
X157760107Y-101949270D01*
X157604838Y-101874211D01*
X157267056Y-101854096D01*
X157226000Y-101854000D01*
X156842860Y-101881196D01*
X156671954Y-101970573D01*
X156654500Y-102035941D01*
X156548731Y-102217027D01*
X156400500Y-102298500D01*
X156195202Y-102414317D01*
X156146500Y-102501791D01*
X156063356Y-102656465D01*
X155851841Y-102912190D01*
X155706234Y-103064733D01*
X155282821Y-103397917D01*
X154894752Y-103504999D01*
X154894502Y-103505000D01*
X154603120Y-103558092D01*
X154461297Y-103760108D01*
X154442014Y-103827817D01*
X154365186Y-104044622D01*
X154261491Y-104042429D01*
X154174246Y-103963888D01*
X154034580Y-103701864D01*
X153987500Y-103415107D01*
X153890824Y-103050917D01*
X153733500Y-102870000D01*
X153536773Y-102668217D01*
X153479500Y-102524463D01*
X153373504Y-102392636D01*
X153225500Y-102362000D01*
X153041275Y-102420181D01*
X152974847Y-102638410D01*
X152971500Y-102752071D01*
X152924751Y-103068680D01*
X152812125Y-103306582D01*
X152675056Y-103413164D01*
X152554978Y-103335811D01*
X152539336Y-103300849D01*
X152482870Y-103029826D01*
X152463500Y-102732612D01*
X152446012Y-102504647D01*
X152347644Y-102396669D01*
X152099539Y-102364025D01*
X151892000Y-102362000D01*
X151539340Y-102375159D01*
X151372253Y-102439844D01*
X151322683Y-102593863D01*
X151320500Y-102679500D01*
X151386741Y-102934857D01*
X151511000Y-102997000D01*
X151666143Y-103102879D01*
X151701500Y-103251000D01*
X151627870Y-103456977D01*
X151524768Y-103505000D01*
X151364939Y-103613275D01*
X151268349Y-103822500D01*
X151144318Y-104060898D01*
X151000581Y-104140000D01*
X150910853Y-104184827D01*
X150854009Y-104347343D01*
X150823515Y-104669598D01*
X150812840Y-105193642D01*
X150812500Y-105350733D01*
X150812500Y-106561466D01*
X150372234Y-107001733D01*
X149944551Y-107314769D01*
X149496108Y-107455410D01*
X149088296Y-107416470D01*
X148782506Y-107190767D01*
X148780500Y-107188000D01*
X148521026Y-106987873D01*
X148298893Y-106934000D01*
X147989372Y-106864568D01*
X147829950Y-106763592D01*
X147734663Y-106608173D01*
X147844694Y-106461501D01*
X147902522Y-106418056D01*
X148011583Y-106311231D01*
X148082522Y-106145828D01*
X148123225Y-105871733D01*
X148141576Y-105438830D01*
X148145500Y-104873963D01*
X148142466Y-104269817D01*
X148127879Y-103875308D01*
X148093512Y-103646094D01*
X148031137Y-103537835D01*
X147932528Y-103506188D01*
X147891500Y-103505000D01*
X147685158Y-103559936D01*
X147637500Y-103636233D01*
X147554203Y-103796370D01*
X147342509Y-104055304D01*
X147200517Y-104204450D01*
X146937091Y-104455945D01*
X146793566Y-104540935D01*
X146716590Y-104478660D01*
X146683959Y-104390717D01*
X146565998Y-104187103D01*
X146476871Y-104140000D01*
X146285685Y-104059032D01*
X146186994Y-103977636D01*
X146109552Y-103782731D01*
X146243024Y-103617182D01*
X146544441Y-103518079D01*
X146734582Y-103504999D01*
X147055283Y-103437564D01*
X147193000Y-103251000D01*
X147334127Y-103045060D01*
X147455559Y-102997000D01*
X147618922Y-102920652D01*
X147637500Y-102860928D01*
X147753913Y-102600407D01*
X148083168Y-102429281D01*
X148595294Y-102362402D01*
X148644429Y-102362000D01*
X149028616Y-102349008D01*
X149221519Y-102293710D01*
X149285232Y-102171617D01*
X149288500Y-102108000D01*
X149255558Y-101956489D01*
X149115337Y-101880415D01*
X148805745Y-101855289D01*
X148644429Y-101854000D01*
X148230686Y-101819667D01*
X147913966Y-101732562D01*
X147734683Y-101616524D01*
X147733249Y-101495392D01*
X147891111Y-101409623D01*
X148104911Y-101223098D01*
X148145500Y-101019941D01*
X148116348Y-100820663D01*
X147981517Y-100732109D01*
X147669947Y-100711062D01*
X147637500Y-100711000D01*
X147312107Y-100725101D01*
G36*
X149872417Y-113758417D02*
X149822162Y-113932317D01*
X149799855Y-114259181D01*
X149805410Y-114639523D01*
X149838741Y-114973858D01*
X149873588Y-115115112D01*
X150016507Y-115289975D01*
X150099552Y-115316000D01*
X150281926Y-115409345D01*
X150431500Y-115570000D01*
X150528369Y-115675381D01*
X150670083Y-115746949D01*
X150902359Y-115791133D01*
X151270915Y-115814364D01*
X151821467Y-115823071D01*
X152237537Y-115824000D01*
X152904874Y-115821777D01*
X153359041Y-115810851D01*
X153640856Y-115784834D01*
X153791137Y-115737336D01*
X153850704Y-115661970D01*
X153860500Y-115570000D01*
X153830182Y-115423213D01*
X153699098Y-115346746D01*
X153407054Y-115318709D01*
X153162000Y-115316000D01*
X152752229Y-115293120D01*
X152507949Y-115231563D01*
X152463500Y-115179928D01*
X152350266Y-114931369D01*
X152065307Y-114746864D01*
X151719130Y-114681000D01*
X151397490Y-114615242D01*
X151257000Y-114427000D01*
X151118190Y-114240004D01*
X150820398Y-114174497D01*
X150740442Y-114173000D01*
X150407259Y-114125332D01*
X150304500Y-113996087D01*
X150212548Y-113814859D01*
X150020897Y-113719140D01*
X149872417Y-113758417D01*
X149872417Y-113758417D01*
G37*
X149872417Y-113758417D02*
X149822162Y-113932317D01*
X149799855Y-114259181D01*
X149805410Y-114639523D01*
X149838741Y-114973858D01*
X149873588Y-115115112D01*
X150016507Y-115289975D01*
X150099552Y-115316000D01*
X150281926Y-115409345D01*
X150431500Y-115570000D01*
X150528369Y-115675381D01*
X150670083Y-115746949D01*
X150902359Y-115791133D01*
X151270915Y-115814364D01*
X151821467Y-115823071D01*
X152237537Y-115824000D01*
X152904874Y-115821777D01*
X153359041Y-115810851D01*
X153640856Y-115784834D01*
X153791137Y-115737336D01*
X153850704Y-115661970D01*
X153860500Y-115570000D01*
X153830182Y-115423213D01*
X153699098Y-115346746D01*
X153407054Y-115318709D01*
X153162000Y-115316000D01*
X152752229Y-115293120D01*
X152507949Y-115231563D01*
X152463500Y-115179928D01*
X152350266Y-114931369D01*
X152065307Y-114746864D01*
X151719130Y-114681000D01*
X151397490Y-114615242D01*
X151257000Y-114427000D01*
X151118190Y-114240004D01*
X150820398Y-114174497D01*
X150740442Y-114173000D01*
X150407259Y-114125332D01*
X150304500Y-113996087D01*
X150212548Y-113814859D01*
X150020897Y-113719140D01*
X149872417Y-113758417D01*
G36*
X158923280Y-113688737D02*
X158577758Y-113726338D01*
X158410743Y-113816731D01*
X158347051Y-114025261D01*
X158329584Y-114204750D01*
X158283351Y-114517970D01*
X158171393Y-114651826D01*
X157927604Y-114680953D01*
X157907763Y-114681000D01*
X157536414Y-114756822D01*
X157260899Y-114947715D01*
X157162500Y-115179928D01*
X157045228Y-115259950D01*
X156730510Y-115307558D01*
X156472559Y-115316000D01*
X156058921Y-115331148D01*
X155830829Y-115391409D01*
X155720861Y-115519006D01*
X155702000Y-115570000D01*
X155606787Y-115726081D01*
X155404200Y-115802462D01*
X155024399Y-115823914D01*
X154985871Y-115824000D01*
X154465465Y-115882163D01*
X154122317Y-116046053D01*
X153988242Y-116299769D01*
X153987500Y-116322928D01*
X153875688Y-116372587D01*
X153535955Y-116410723D01*
X152961859Y-116437637D01*
X152146958Y-116453629D01*
X151084807Y-116458998D01*
X151066500Y-116459000D01*
X148145500Y-116459000D01*
X148145500Y-116141500D01*
X148206969Y-115893239D01*
X148322413Y-115824000D01*
X148523694Y-115707153D01*
X148634325Y-115370186D01*
X148653500Y-115065380D01*
X148712553Y-114778824D01*
X148932918Y-114639314D01*
X148976318Y-114627513D01*
X149193123Y-114550685D01*
X149190930Y-114446990D01*
X149112389Y-114359745D01*
X148863928Y-114203616D01*
X148721839Y-114173000D01*
X148521322Y-114259163D01*
X148239442Y-114472118D01*
X147949397Y-114743567D01*
X147724386Y-115005208D01*
X147637500Y-115184766D01*
X147535724Y-115303499D01*
X147460588Y-115316000D01*
X147299945Y-115377756D01*
X147197640Y-115586828D01*
X147144051Y-115978921D01*
X147129500Y-116544776D01*
X147139254Y-116999270D01*
X147180012Y-117260809D01*
X147269025Y-117390064D01*
X147383500Y-117438201D01*
X147589695Y-117553813D01*
X147637500Y-117652275D01*
X147730806Y-117833655D01*
X147891500Y-117983000D01*
X148089157Y-118199437D01*
X148145500Y-118364000D01*
X148050568Y-118586444D01*
X147891500Y-118745000D01*
X147674759Y-119019119D01*
X147664620Y-119321528D01*
X147832301Y-119585070D01*
X148149020Y-119742585D01*
X148326929Y-119761000D01*
X148569858Y-119806374D01*
X148653500Y-119897071D01*
X148735100Y-120092139D01*
X148834929Y-120214571D01*
X149046112Y-120298794D01*
X149445180Y-120358608D01*
X149969852Y-120394166D01*
X150557844Y-120405622D01*
X151146875Y-120393128D01*
X151674660Y-120356838D01*
X152078919Y-120296905D01*
X152297369Y-120213483D01*
X152304750Y-120206029D01*
X152440322Y-119988338D01*
X152463500Y-119893360D01*
X152583419Y-119823034D01*
X152916221Y-119777028D01*
X153407442Y-119761000D01*
X153899071Y-119753269D01*
X154194458Y-119720567D01*
X154351139Y-119648631D01*
X154426647Y-119523198D01*
X154432000Y-119507000D01*
X154549875Y-119301642D01*
X154640130Y-119253000D01*
X154881836Y-119139798D01*
X155063148Y-118855210D01*
X155130500Y-118500071D01*
X155149589Y-118364000D01*
X152971500Y-118364000D01*
X152881698Y-118576256D01*
X152717500Y-118618000D01*
X150812500Y-118618000D01*
X150812500Y-119253000D01*
X148145500Y-119253000D01*
X148145500Y-118618000D01*
X150812500Y-118618000D01*
X152717500Y-118618000D01*
X152505244Y-118528197D01*
X152463500Y-118364000D01*
X152553303Y-118151743D01*
X152717500Y-118110000D01*
X152929757Y-118199802D01*
X152971500Y-118364000D01*
X155149589Y-118364000D01*
X155170604Y-118214212D01*
X155315344Y-118113327D01*
X155369688Y-118110000D01*
X155593166Y-118217266D01*
X155675299Y-118364000D01*
X155828658Y-118546757D01*
X156098011Y-118615111D01*
X156387497Y-118576607D01*
X156601258Y-118438792D01*
X156654500Y-118286912D01*
X156755319Y-118127307D01*
X156831413Y-118110000D01*
X157028891Y-118006283D01*
X157086981Y-117792500D01*
X155130500Y-117792500D01*
X155078046Y-118034182D01*
X154871511Y-118108659D01*
X154813000Y-118110000D01*
X154571318Y-118057545D01*
X154496841Y-117851010D01*
X154495500Y-117792500D01*
X154547955Y-117550817D01*
X154754490Y-117476340D01*
X154813000Y-117475000D01*
X155054683Y-117527454D01*
X155129160Y-117733989D01*
X155130500Y-117792500D01*
X157086981Y-117792500D01*
X157095350Y-117761704D01*
X157069709Y-117633750D01*
X156911238Y-117488400D01*
X156834417Y-117475000D01*
X156688538Y-117369218D01*
X156654500Y-117221000D01*
X156678379Y-117087766D01*
X156786142Y-117011310D01*
X157031987Y-116976220D01*
X157470106Y-116967085D01*
X157547734Y-116967000D01*
X158026957Y-116958837D01*
X158337811Y-116915521D01*
X158565833Y-116808811D01*
X158796560Y-116610467D01*
X158881234Y-116526733D01*
X159138178Y-116244955D01*
X159296803Y-116023167D01*
X159321500Y-115955233D01*
X159423670Y-115837370D01*
X159503442Y-115824000D01*
X159684528Y-115718230D01*
X159766000Y-115570000D01*
X159901306Y-115364192D01*
X160014971Y-115316000D01*
X160208782Y-115215113D01*
X160241705Y-115157250D01*
X160248422Y-114998500D01*
X159321500Y-114998500D01*
X159261970Y-115247471D01*
X159067500Y-115316000D01*
X158855244Y-115405802D01*
X158813500Y-115570000D01*
X158723698Y-115782256D01*
X158559500Y-115824000D01*
X158347244Y-115734197D01*
X158305500Y-115570000D01*
X158395303Y-115357743D01*
X158559500Y-115316000D01*
X158758678Y-115241586D01*
X158813500Y-114998500D01*
X158873031Y-114749528D01*
X159067500Y-114681000D01*
X159266678Y-114755413D01*
X159321500Y-114998500D01*
X160248422Y-114998500D01*
X160253568Y-114876892D01*
X160045745Y-114717100D01*
X159755417Y-114681000D01*
X159453523Y-114651049D01*
X159333963Y-114534924D01*
X159321500Y-114427000D01*
X159395205Y-114221024D01*
X159498413Y-114173000D01*
X159682338Y-114086242D01*
X159761082Y-113903305D01*
X159695840Y-113740191D01*
X159651389Y-113715680D01*
X159422620Y-113682898D01*
X159059419Y-113681226D01*
X158923280Y-113688737D01*
X158923280Y-113688737D01*
G37*
X158923280Y-113688737D02*
X158577758Y-113726338D01*
X158410743Y-113816731D01*
X158347051Y-114025261D01*
X158329584Y-114204750D01*
X158283351Y-114517970D01*
X158171393Y-114651826D01*
X157927604Y-114680953D01*
X157907763Y-114681000D01*
X157536414Y-114756822D01*
X157260899Y-114947715D01*
X157162500Y-115179928D01*
X157045228Y-115259950D01*
X156730510Y-115307558D01*
X156472559Y-115316000D01*
X156058921Y-115331148D01*
X155830829Y-115391409D01*
X155720861Y-115519006D01*
X155702000Y-115570000D01*
X155606787Y-115726081D01*
X155404200Y-115802462D01*
X155024399Y-115823914D01*
X154985871Y-115824000D01*
X154465465Y-115882163D01*
X154122317Y-116046053D01*
X153988242Y-116299769D01*
X153987500Y-116322928D01*
X153875688Y-116372587D01*
X153535955Y-116410723D01*
X152961859Y-116437637D01*
X152146958Y-116453629D01*
X151084807Y-116458998D01*
X151066500Y-116459000D01*
X148145500Y-116459000D01*
X148145500Y-116141500D01*
X148206969Y-115893239D01*
X148322413Y-115824000D01*
X148523694Y-115707153D01*
X148634325Y-115370186D01*
X148653500Y-115065380D01*
X148712553Y-114778824D01*
X148932918Y-114639314D01*
X148976318Y-114627513D01*
X149193123Y-114550685D01*
X149190930Y-114446990D01*
X149112389Y-114359745D01*
X148863928Y-114203616D01*
X148721839Y-114173000D01*
X148521322Y-114259163D01*
X148239442Y-114472118D01*
X147949397Y-114743567D01*
X147724386Y-115005208D01*
X147637500Y-115184766D01*
X147535724Y-115303499D01*
X147460588Y-115316000D01*
X147299945Y-115377756D01*
X147197640Y-115586828D01*
X147144051Y-115978921D01*
X147129500Y-116544776D01*
X147139254Y-116999270D01*
X147180012Y-117260809D01*
X147269025Y-117390064D01*
X147383500Y-117438201D01*
X147589695Y-117553813D01*
X147637500Y-117652275D01*
X147730806Y-117833655D01*
X147891500Y-117983000D01*
X148089157Y-118199437D01*
X148145500Y-118364000D01*
X148050568Y-118586444D01*
X147891500Y-118745000D01*
X147674759Y-119019119D01*
X147664620Y-119321528D01*
X147832301Y-119585070D01*
X148149020Y-119742585D01*
X148326929Y-119761000D01*
X148569858Y-119806374D01*
X148653500Y-119897071D01*
X148735100Y-120092139D01*
X148834929Y-120214571D01*
X149046112Y-120298794D01*
X149445180Y-120358608D01*
X149969852Y-120394166D01*
X150557844Y-120405622D01*
X151146875Y-120393128D01*
X151674660Y-120356838D01*
X152078919Y-120296905D01*
X152297369Y-120213483D01*
X152304750Y-120206029D01*
X152440322Y-119988338D01*
X152463500Y-119893360D01*
X152583419Y-119823034D01*
X152916221Y-119777028D01*
X153407442Y-119761000D01*
X153899071Y-119753269D01*
X154194458Y-119720567D01*
X154351139Y-119648631D01*
X154426647Y-119523198D01*
X154432000Y-119507000D01*
X154549875Y-119301642D01*
X154640130Y-119253000D01*
X154881836Y-119139798D01*
X155063148Y-118855210D01*
X155130500Y-118500071D01*
X155149589Y-118364000D01*
X152971500Y-118364000D01*
X152881698Y-118576256D01*
X152717500Y-118618000D01*
X150812500Y-118618000D01*
X150812500Y-119253000D01*
X148145500Y-119253000D01*
X148145500Y-118618000D01*
X150812500Y-118618000D01*
X152717500Y-118618000D01*
X152505244Y-118528197D01*
X152463500Y-118364000D01*
X152553303Y-118151743D01*
X152717500Y-118110000D01*
X152929757Y-118199802D01*
X152971500Y-118364000D01*
X155149589Y-118364000D01*
X155170604Y-118214212D01*
X155315344Y-118113327D01*
X155369688Y-118110000D01*
X155593166Y-118217266D01*
X155675299Y-118364000D01*
X155828658Y-118546757D01*
X156098011Y-118615111D01*
X156387497Y-118576607D01*
X156601258Y-118438792D01*
X156654500Y-118286912D01*
X156755319Y-118127307D01*
X156831413Y-118110000D01*
X157028891Y-118006283D01*
X157086981Y-117792500D01*
X155130500Y-117792500D01*
X155078046Y-118034182D01*
X154871511Y-118108659D01*
X154813000Y-118110000D01*
X154571318Y-118057545D01*
X154496841Y-117851010D01*
X154495500Y-117792500D01*
X154547955Y-117550817D01*
X154754490Y-117476340D01*
X154813000Y-117475000D01*
X155054683Y-117527454D01*
X155129160Y-117733989D01*
X155130500Y-117792500D01*
X157086981Y-117792500D01*
X157095350Y-117761704D01*
X157069709Y-117633750D01*
X156911238Y-117488400D01*
X156834417Y-117475000D01*
X156688538Y-117369218D01*
X156654500Y-117221000D01*
X156678379Y-117087766D01*
X156786142Y-117011310D01*
X157031987Y-116976220D01*
X157470106Y-116967085D01*
X157547734Y-116967000D01*
X158026957Y-116958837D01*
X158337811Y-116915521D01*
X158565833Y-116808811D01*
X158796560Y-116610467D01*
X158881234Y-116526733D01*
X159138178Y-116244955D01*
X159296803Y-116023167D01*
X159321500Y-115955233D01*
X159423670Y-115837370D01*
X159503442Y-115824000D01*
X159684528Y-115718230D01*
X159766000Y-115570000D01*
X159901306Y-115364192D01*
X160014971Y-115316000D01*
X160208782Y-115215113D01*
X160241705Y-115157250D01*
X160248422Y-114998500D01*
X159321500Y-114998500D01*
X159261970Y-115247471D01*
X159067500Y-115316000D01*
X158855244Y-115405802D01*
X158813500Y-115570000D01*
X158723698Y-115782256D01*
X158559500Y-115824000D01*
X158347244Y-115734197D01*
X158305500Y-115570000D01*
X158395303Y-115357743D01*
X158559500Y-115316000D01*
X158758678Y-115241586D01*
X158813500Y-114998500D01*
X158873031Y-114749528D01*
X159067500Y-114681000D01*
X159266678Y-114755413D01*
X159321500Y-114998500D01*
X160248422Y-114998500D01*
X160253568Y-114876892D01*
X160045745Y-114717100D01*
X159755417Y-114681000D01*
X159453523Y-114651049D01*
X159333963Y-114534924D01*
X159321500Y-114427000D01*
X159395205Y-114221024D01*
X159498413Y-114173000D01*
X159682338Y-114086242D01*
X159761082Y-113903305D01*
X159695840Y-113740191D01*
X159651389Y-113715680D01*
X159422620Y-113682898D01*
X159059419Y-113681226D01*
X158923280Y-113688737D01*
G36*
X176046394Y-115473657D02*
X175958500Y-115570000D01*
X175657237Y-115780965D01*
X175372552Y-115824000D01*
X175055839Y-115877702D01*
X174882325Y-116069912D01*
X174818362Y-116447285D01*
X174815500Y-116596387D01*
X174766352Y-116870504D01*
X174653037Y-116967000D01*
X174459607Y-117060788D01*
X174307500Y-117221000D01*
X174013086Y-117428851D01*
X173672500Y-117475000D01*
X173244105Y-117393727D01*
X173037500Y-117221000D01*
X172732852Y-116993661D01*
X172325655Y-116953149D01*
X171877300Y-117092278D01*
X171449177Y-117403865D01*
X171445767Y-117407266D01*
X171150089Y-117784138D01*
X171014880Y-118135961D01*
X171050967Y-118411458D01*
X171206388Y-118540912D01*
X171447936Y-118586617D01*
X171830200Y-118614254D01*
X172031888Y-118618000D01*
X172406288Y-118643221D01*
X172625457Y-118709436D01*
X172656500Y-118754071D01*
X172766774Y-118996792D01*
X173032491Y-119187206D01*
X173317893Y-119253000D01*
X173623772Y-119351041D01*
X173799501Y-119507000D01*
X173978777Y-119667062D01*
X174266263Y-119743937D01*
X174653037Y-119761000D01*
X175049558Y-119784715D01*
X175284361Y-119847977D01*
X175323500Y-119897071D01*
X175433449Y-120124682D01*
X175707872Y-120296538D01*
X176063634Y-120395516D01*
X176417600Y-120404490D01*
X176686634Y-120306336D01*
X176770413Y-120195112D01*
X176798566Y-119995075D01*
X176820164Y-119594071D01*
X176835209Y-119045052D01*
X176843699Y-118400966D01*
X176845635Y-117714763D01*
X176841017Y-117039393D01*
X176829845Y-116427805D01*
X176812119Y-115932949D01*
X176787839Y-115607776D01*
X176770413Y-115516887D01*
X176593742Y-115348509D01*
X176319767Y-115336234D01*
X176046394Y-115473657D01*
X176046394Y-115473657D01*
G37*
X176046394Y-115473657D02*
X175958500Y-115570000D01*
X175657237Y-115780965D01*
X175372552Y-115824000D01*
X175055839Y-115877702D01*
X174882325Y-116069912D01*
X174818362Y-116447285D01*
X174815500Y-116596387D01*
X174766352Y-116870504D01*
X174653037Y-116967000D01*
X174459607Y-117060788D01*
X174307500Y-117221000D01*
X174013086Y-117428851D01*
X173672500Y-117475000D01*
X173244105Y-117393727D01*
X173037500Y-117221000D01*
X172732852Y-116993661D01*
X172325655Y-116953149D01*
X171877300Y-117092278D01*
X171449177Y-117403865D01*
X171445767Y-117407266D01*
X171150089Y-117784138D01*
X171014880Y-118135961D01*
X171050967Y-118411458D01*
X171206388Y-118540912D01*
X171447936Y-118586617D01*
X171830200Y-118614254D01*
X172031888Y-118618000D01*
X172406288Y-118643221D01*
X172625457Y-118709436D01*
X172656500Y-118754071D01*
X172766774Y-118996792D01*
X173032491Y-119187206D01*
X173317893Y-119253000D01*
X173623772Y-119351041D01*
X173799501Y-119507000D01*
X173978777Y-119667062D01*
X174266263Y-119743937D01*
X174653037Y-119761000D01*
X175049558Y-119784715D01*
X175284361Y-119847977D01*
X175323500Y-119897071D01*
X175433449Y-120124682D01*
X175707872Y-120296538D01*
X176063634Y-120395516D01*
X176417600Y-120404490D01*
X176686634Y-120306336D01*
X176770413Y-120195112D01*
X176798566Y-119995075D01*
X176820164Y-119594071D01*
X176835209Y-119045052D01*
X176843699Y-118400966D01*
X176845635Y-117714763D01*
X176841017Y-117039393D01*
X176829845Y-116427805D01*
X176812119Y-115932949D01*
X176787839Y-115607776D01*
X176770413Y-115516887D01*
X176593742Y-115348509D01*
X176319767Y-115336234D01*
X176046394Y-115473657D01*
G36*
X173879207Y-122707800D02*
X173811985Y-122838760D01*
X173895979Y-123017825D01*
X174134334Y-123279300D01*
X174406734Y-123528649D01*
X174614941Y-123678516D01*
X174669455Y-123698000D01*
X174791494Y-123803748D01*
X174852299Y-123952000D01*
X174967663Y-124132526D01*
X175231830Y-124201678D01*
X175375111Y-124206000D01*
X175673567Y-124239339D01*
X175826303Y-124321589D01*
X175831500Y-124342071D01*
X175939710Y-124580826D01*
X176194913Y-124774321D01*
X176455009Y-124841000D01*
X176699852Y-124729753D01*
X176793048Y-124532665D01*
X176829139Y-124088216D01*
X176674521Y-123809538D01*
X176331140Y-123699723D01*
X176267442Y-123698000D01*
X175934259Y-123650332D01*
X175831500Y-123521087D01*
X175715502Y-123321082D01*
X175391407Y-123208569D01*
X175122613Y-123190000D01*
X174889009Y-123142017D01*
X174815500Y-123053928D01*
X174708580Y-122785939D01*
X174450848Y-122618600D01*
X174136850Y-122586864D01*
X173879207Y-122707800D01*
X173879207Y-122707800D01*
G37*
X173879207Y-122707800D02*
X173811985Y-122838760D01*
X173895979Y-123017825D01*
X174134334Y-123279300D01*
X174406734Y-123528649D01*
X174614941Y-123678516D01*
X174669455Y-123698000D01*
X174791494Y-123803748D01*
X174852299Y-123952000D01*
X174967663Y-124132526D01*
X175231830Y-124201678D01*
X175375111Y-124206000D01*
X175673567Y-124239339D01*
X175826303Y-124321589D01*
X175831500Y-124342071D01*
X175939710Y-124580826D01*
X176194913Y-124774321D01*
X176455009Y-124841000D01*
X176699852Y-124729753D01*
X176793048Y-124532665D01*
X176829139Y-124088216D01*
X176674521Y-123809538D01*
X176331140Y-123699723D01*
X176267442Y-123698000D01*
X175934259Y-123650332D01*
X175831500Y-123521087D01*
X175715502Y-123321082D01*
X175391407Y-123208569D01*
X175122613Y-123190000D01*
X174889009Y-123142017D01*
X174815500Y-123053928D01*
X174708580Y-122785939D01*
X174450848Y-122618600D01*
X174136850Y-122586864D01*
X173879207Y-122707800D01*
G36*
X135474250Y-106680000D02*
X135470903Y-109002678D01*
X135468444Y-111258835D01*
X135466849Y-113435178D01*
X135466099Y-115518416D01*
X135466173Y-117495256D01*
X135467050Y-119352408D01*
X135468708Y-121076578D01*
X135471128Y-122654476D01*
X135474289Y-124072808D01*
X135478169Y-125318284D01*
X135482748Y-126377611D01*
X135488004Y-127237498D01*
X135493918Y-127884652D01*
X135500469Y-128305781D01*
X135507634Y-128487594D01*
X135508419Y-128492250D01*
X135536682Y-128586758D01*
X135591414Y-128657664D01*
X135705258Y-128708281D01*
X135910855Y-128741927D01*
X136240846Y-128761918D01*
X136727872Y-128771568D01*
X137404576Y-128774196D01*
X138273670Y-128773169D01*
X139207238Y-128768372D01*
X139916929Y-128756462D01*
X140432813Y-128735490D01*
X140784963Y-128703507D01*
X141003448Y-128658561D01*
X141118339Y-128598703D01*
X141128750Y-128588029D01*
X141191190Y-128430365D01*
X141236852Y-128104437D01*
X141267152Y-127587896D01*
X141283505Y-126858388D01*
X141287500Y-126080896D01*
X141289122Y-125255413D01*
X141296484Y-124646927D01*
X141313329Y-124218444D01*
X141343402Y-123932968D01*
X141390445Y-123753503D01*
X141458204Y-123643057D01*
X141541500Y-123571000D01*
X141705566Y-123383855D01*
X141781677Y-123081818D01*
X141795500Y-122745500D01*
X141822739Y-122310906D01*
X141920468Y-122047965D01*
X142049500Y-121920000D01*
X142181050Y-121788857D01*
X142258247Y-121589287D01*
X142294571Y-121259153D01*
X142303500Y-120748963D01*
X142314448Y-120226534D01*
X142352152Y-119916625D01*
X142423907Y-119778502D01*
X142480413Y-119761000D01*
X142681670Y-119644170D01*
X142792337Y-119307465D01*
X142811500Y-119003425D01*
X142882734Y-118699590D01*
X143065500Y-118581201D01*
X143237413Y-118477706D01*
X143310099Y-118240242D01*
X143319500Y-118008657D01*
X143343310Y-117670084D01*
X143444875Y-117500008D01*
X143637000Y-117422848D01*
X143874955Y-117317417D01*
X143954500Y-117208623D01*
X144039741Y-117052357D01*
X144259195Y-116792646D01*
X144462500Y-116586000D01*
X144743369Y-116293149D01*
X144927857Y-116056701D01*
X144970500Y-115960956D01*
X145087035Y-115878785D01*
X145396622Y-115831011D01*
X145614572Y-115824000D01*
X146169564Y-115761132D01*
X146505721Y-115573132D01*
X146621445Y-115260909D01*
X146621500Y-115252500D01*
X146532445Y-114991650D01*
X146329347Y-114764344D01*
X146131130Y-114681000D01*
X145994721Y-114576031D01*
X145923000Y-114427000D01*
X145784190Y-114240004D01*
X145486398Y-114174497D01*
X145406442Y-114173000D01*
X145074006Y-114126159D01*
X144970500Y-113991058D01*
X144864731Y-113809972D01*
X144716500Y-113728500D01*
X144522979Y-113578465D01*
X144462600Y-113259169D01*
X144462500Y-113239978D01*
X144368970Y-112833301D01*
X144208500Y-112649000D01*
X144001876Y-112362277D01*
X143954500Y-112103892D01*
X143876939Y-111744354D01*
X143683636Y-111474421D01*
X143455572Y-111379000D01*
X143359031Y-111268926D01*
X143319500Y-111008387D01*
X143271381Y-110546501D01*
X143134118Y-110285555D01*
X143003225Y-110236000D01*
X142843773Y-110129725D01*
X142774702Y-109982000D01*
X142635734Y-109775450D01*
X142505890Y-109728000D01*
X142355207Y-109639779D01*
X142303860Y-109350626D01*
X142303500Y-109311536D01*
X142210971Y-108897796D01*
X142049500Y-108712000D01*
X141839630Y-108414855D01*
X141795500Y-108140500D01*
X141700108Y-107750802D01*
X141541500Y-107569000D01*
X141373255Y-107373320D01*
X141298199Y-107055574D01*
X141287500Y-106769892D01*
X141228216Y-106261744D01*
X141062612Y-105923627D01*
X140809065Y-105791593D01*
X140788572Y-105791000D01*
X140713855Y-105669752D01*
X140667042Y-105326859D01*
X140652500Y-104848887D01*
X140639100Y-104226307D01*
X140592860Y-103819841D01*
X140504722Y-103592719D01*
X140365625Y-103508169D01*
X140321413Y-103505000D01*
X140267425Y-103467982D01*
X140225243Y-103339713D01*
X140193532Y-103094365D01*
X140170955Y-102706112D01*
X140156174Y-102149128D01*
X140147855Y-101397586D01*
X140144660Y-100425660D01*
X140144500Y-100086387D01*
X140141724Y-99171439D01*
X140133899Y-98333946D01*
X140121777Y-97609296D01*
X140106114Y-97032877D01*
X140087662Y-96640076D01*
X140067413Y-96466887D01*
X139909607Y-96291710D01*
X139813413Y-96265999D01*
X139728823Y-96212311D01*
X139674838Y-96025384D01*
X139645930Y-95666420D01*
X139636574Y-95096625D01*
X139636500Y-95024036D01*
X139630830Y-94440158D01*
X139607420Y-94056297D01*
X139556671Y-93818604D01*
X139468985Y-93673226D01*
X139382500Y-93599000D01*
X139311049Y-93537968D01*
X139254415Y-93450924D01*
X139210880Y-93310182D01*
X139178726Y-93088060D01*
X139156234Y-92756873D01*
X139141686Y-92288940D01*
X139133364Y-91656576D01*
X139129549Y-90832098D01*
X139128523Y-89787823D01*
X139128500Y-89506963D01*
X139128500Y-85598000D01*
X139636500Y-85598000D01*
X139961894Y-85612101D01*
X140106519Y-85694355D01*
X140143474Y-85904691D01*
X140144500Y-86014463D01*
X140237030Y-86428203D01*
X140398500Y-86614000D01*
X140605125Y-86900722D01*
X140652500Y-87159107D01*
X140730062Y-87518645D01*
X140923365Y-87788578D01*
X141151429Y-87884000D01*
X141247970Y-87994073D01*
X141287500Y-88254612D01*
X141337682Y-88724903D01*
X141483591Y-88981895D01*
X141618588Y-89027000D01*
X141753799Y-89144459D01*
X141795500Y-89462941D01*
X141841798Y-89798577D01*
X142003192Y-89962232D01*
X142049500Y-89979500D01*
X142243022Y-90129534D01*
X142303401Y-90448830D01*
X142303500Y-90468021D01*
X142397031Y-90874698D01*
X142557500Y-91059000D01*
X142752755Y-91238862D01*
X142811500Y-91350107D01*
X142891949Y-91519251D01*
X142998246Y-91644888D01*
X143141804Y-91749700D01*
X143224895Y-91652589D01*
X143266014Y-91508817D01*
X143376203Y-91268245D01*
X143495732Y-91186000D01*
X143677960Y-91092660D01*
X143827500Y-90932000D01*
X144086975Y-90731873D01*
X144309108Y-90677999D01*
X144630866Y-90594813D01*
X144883283Y-90394367D01*
X144970500Y-90179071D01*
X145093615Y-90107758D01*
X145449466Y-90061670D01*
X146017815Y-90043238D01*
X146103113Y-90043000D01*
X146786631Y-90031592D01*
X147248220Y-89993664D01*
X147519086Y-89923656D01*
X147630435Y-89816009D01*
X147637500Y-89769639D01*
X147726560Y-89593493D01*
X147936322Y-89354759D01*
X148180659Y-89138288D01*
X148373445Y-89028932D01*
X148391308Y-89026999D01*
X148516048Y-88919177D01*
X148601349Y-88709499D01*
X148713867Y-88479532D01*
X148948879Y-88396990D01*
X149083732Y-88391999D01*
X149485998Y-88297910D01*
X149669501Y-88137999D01*
X149935625Y-87957826D01*
X150343498Y-87871951D01*
X150799168Y-87880006D01*
X151208685Y-87981623D01*
X151453573Y-88145002D01*
X151679939Y-88406004D01*
X151762778Y-88145002D01*
X151921247Y-87940778D01*
X152227130Y-87884000D01*
X152597965Y-87808102D01*
X152873235Y-87617103D01*
X152971500Y-87385071D01*
X153098013Y-87323267D01*
X153476943Y-87279991D01*
X154107382Y-87255312D01*
X154813000Y-87249000D01*
X155649419Y-87258348D01*
X156235077Y-87286347D01*
X156569065Y-87332932D01*
X156654500Y-87385071D01*
X156724573Y-87611538D01*
X156953878Y-87763662D01*
X157371048Y-87851048D01*
X158004717Y-87883306D01*
X158141393Y-87884000D01*
X158695201Y-87891020D01*
X159052530Y-87919506D01*
X159270692Y-87980595D01*
X159406997Y-88085423D01*
X159448500Y-88138000D01*
X159730677Y-88343043D01*
X159984537Y-88392000D01*
X160239629Y-88434264D01*
X160337500Y-88528071D01*
X160449197Y-88773566D01*
X160723325Y-88961432D01*
X161032702Y-89027000D01*
X161317738Y-89108223D01*
X161630920Y-89305842D01*
X161883943Y-89550780D01*
X161988499Y-89773960D01*
X161988501Y-89774669D01*
X162093414Y-89908374D01*
X162242500Y-89979500D01*
X162447858Y-90097374D01*
X162496500Y-90187629D01*
X162577787Y-90373999D01*
X162683246Y-90501888D01*
X162828188Y-90607921D01*
X162910741Y-90508903D01*
X162948252Y-90376822D01*
X163136974Y-90086379D01*
X163333006Y-89988085D01*
X163553295Y-89877381D01*
X163634076Y-89641923D01*
X163639501Y-89497116D01*
X163732322Y-89085352D01*
X163893501Y-88900000D01*
X164046760Y-88733431D01*
X164124456Y-88469483D01*
X164147406Y-88033705D01*
X164147501Y-87991521D01*
X164161051Y-87566662D01*
X164215540Y-87329140D01*
X164331721Y-87213097D01*
X164401500Y-87185499D01*
X164578754Y-87062107D01*
X164649578Y-86796394D01*
X164655500Y-86620253D01*
X164687053Y-86279372D01*
X164805596Y-86111833D01*
X164918263Y-86066910D01*
X165099259Y-85964740D01*
X165150128Y-85738833D01*
X165140513Y-85575848D01*
X165100000Y-85153500D01*
X135509000Y-85153500D01*
X135474250Y-106680000D01*
X135474250Y-106680000D01*
G37*
X135474250Y-106680000D02*
X135470903Y-109002678D01*
X135468444Y-111258835D01*
X135466849Y-113435178D01*
X135466099Y-115518416D01*
X135466173Y-117495256D01*
X135467050Y-119352408D01*
X135468708Y-121076578D01*
X135471128Y-122654476D01*
X135474289Y-124072808D01*
X135478169Y-125318284D01*
X135482748Y-126377611D01*
X135488004Y-127237498D01*
X135493918Y-127884652D01*
X135500469Y-128305781D01*
X135507634Y-128487594D01*
X135508419Y-128492250D01*
X135536682Y-128586758D01*
X135591414Y-128657664D01*
X135705258Y-128708281D01*
X135910855Y-128741927D01*
X136240846Y-128761918D01*
X136727872Y-128771568D01*
X137404576Y-128774196D01*
X138273670Y-128773169D01*
X139207238Y-128768372D01*
X139916929Y-128756462D01*
X140432813Y-128735490D01*
X140784963Y-128703507D01*
X141003448Y-128658561D01*
X141118339Y-128598703D01*
X141128750Y-128588029D01*
X141191190Y-128430365D01*
X141236852Y-128104437D01*
X141267152Y-127587896D01*
X141283505Y-126858388D01*
X141287500Y-126080896D01*
X141289122Y-125255413D01*
X141296484Y-124646927D01*
X141313329Y-124218444D01*
X141343402Y-123932968D01*
X141390445Y-123753503D01*
X141458204Y-123643057D01*
X141541500Y-123571000D01*
X141705566Y-123383855D01*
X141781677Y-123081818D01*
X141795500Y-122745500D01*
X141822739Y-122310906D01*
X141920468Y-122047965D01*
X142049500Y-121920000D01*
X142181050Y-121788857D01*
X142258247Y-121589287D01*
X142294571Y-121259153D01*
X142303500Y-120748963D01*
X142314448Y-120226534D01*
X142352152Y-119916625D01*
X142423907Y-119778502D01*
X142480413Y-119761000D01*
X142681670Y-119644170D01*
X142792337Y-119307465D01*
X142811500Y-119003425D01*
X142882734Y-118699590D01*
X143065500Y-118581201D01*
X143237413Y-118477706D01*
X143310099Y-118240242D01*
X143319500Y-118008657D01*
X143343310Y-117670084D01*
X143444875Y-117500008D01*
X143637000Y-117422848D01*
X143874955Y-117317417D01*
X143954500Y-117208623D01*
X144039741Y-117052357D01*
X144259195Y-116792646D01*
X144462500Y-116586000D01*
X144743369Y-116293149D01*
X144927857Y-116056701D01*
X144970500Y-115960956D01*
X145087035Y-115878785D01*
X145396622Y-115831011D01*
X145614572Y-115824000D01*
X146169564Y-115761132D01*
X146505721Y-115573132D01*
X146621445Y-115260909D01*
X146621500Y-115252500D01*
X146532445Y-114991650D01*
X146329347Y-114764344D01*
X146131130Y-114681000D01*
X145994721Y-114576031D01*
X145923000Y-114427000D01*
X145784190Y-114240004D01*
X145486398Y-114174497D01*
X145406442Y-114173000D01*
X145074006Y-114126159D01*
X144970500Y-113991058D01*
X144864731Y-113809972D01*
X144716500Y-113728500D01*
X144522979Y-113578465D01*
X144462600Y-113259169D01*
X144462500Y-113239978D01*
X144368970Y-112833301D01*
X144208500Y-112649000D01*
X144001876Y-112362277D01*
X143954500Y-112103892D01*
X143876939Y-111744354D01*
X143683636Y-111474421D01*
X143455572Y-111379000D01*
X143359031Y-111268926D01*
X143319500Y-111008387D01*
X143271381Y-110546501D01*
X143134118Y-110285555D01*
X143003225Y-110236000D01*
X142843773Y-110129725D01*
X142774702Y-109982000D01*
X142635734Y-109775450D01*
X142505890Y-109728000D01*
X142355207Y-109639779D01*
X142303860Y-109350626D01*
X142303500Y-109311536D01*
X142210971Y-108897796D01*
X142049500Y-108712000D01*
X141839630Y-108414855D01*
X141795500Y-108140500D01*
X141700108Y-107750802D01*
X141541500Y-107569000D01*
X141373255Y-107373320D01*
X141298199Y-107055574D01*
X141287500Y-106769892D01*
X141228216Y-106261744D01*
X141062612Y-105923627D01*
X140809065Y-105791593D01*
X140788572Y-105791000D01*
X140713855Y-105669752D01*
X140667042Y-105326859D01*
X140652500Y-104848887D01*
X140639100Y-104226307D01*
X140592860Y-103819841D01*
X140504722Y-103592719D01*
X140365625Y-103508169D01*
X140321413Y-103505000D01*
X140267425Y-103467982D01*
X140225243Y-103339713D01*
X140193532Y-103094365D01*
X140170955Y-102706112D01*
X140156174Y-102149128D01*
X140147855Y-101397586D01*
X140144660Y-100425660D01*
X140144500Y-100086387D01*
X140141724Y-99171439D01*
X140133899Y-98333946D01*
X140121777Y-97609296D01*
X140106114Y-97032877D01*
X140087662Y-96640076D01*
X140067413Y-96466887D01*
X139909607Y-96291710D01*
X139813413Y-96265999D01*
X139728823Y-96212311D01*
X139674838Y-96025384D01*
X139645930Y-95666420D01*
X139636574Y-95096625D01*
X139636500Y-95024036D01*
X139630830Y-94440158D01*
X139607420Y-94056297D01*
X139556671Y-93818604D01*
X139468985Y-93673226D01*
X139382500Y-93599000D01*
X139311049Y-93537968D01*
X139254415Y-93450924D01*
X139210880Y-93310182D01*
X139178726Y-93088060D01*
X139156234Y-92756873D01*
X139141686Y-92288940D01*
X139133364Y-91656576D01*
X139129549Y-90832098D01*
X139128523Y-89787823D01*
X139128500Y-89506963D01*
X139128500Y-85598000D01*
X139636500Y-85598000D01*
X139961894Y-85612101D01*
X140106519Y-85694355D01*
X140143474Y-85904691D01*
X140144500Y-86014463D01*
X140237030Y-86428203D01*
X140398500Y-86614000D01*
X140605125Y-86900722D01*
X140652500Y-87159107D01*
X140730062Y-87518645D01*
X140923365Y-87788578D01*
X141151429Y-87884000D01*
X141247970Y-87994073D01*
X141287500Y-88254612D01*
X141337682Y-88724903D01*
X141483591Y-88981895D01*
X141618588Y-89027000D01*
X141753799Y-89144459D01*
X141795500Y-89462941D01*
X141841798Y-89798577D01*
X142003192Y-89962232D01*
X142049500Y-89979500D01*
X142243022Y-90129534D01*
X142303401Y-90448830D01*
X142303500Y-90468021D01*
X142397031Y-90874698D01*
X142557500Y-91059000D01*
X142752755Y-91238862D01*
X142811500Y-91350107D01*
X142891949Y-91519251D01*
X142998246Y-91644888D01*
X143141804Y-91749700D01*
X143224895Y-91652589D01*
X143266014Y-91508817D01*
X143376203Y-91268245D01*
X143495732Y-91186000D01*
X143677960Y-91092660D01*
X143827500Y-90932000D01*
X144086975Y-90731873D01*
X144309108Y-90677999D01*
X144630866Y-90594813D01*
X144883283Y-90394367D01*
X144970500Y-90179071D01*
X145093615Y-90107758D01*
X145449466Y-90061670D01*
X146017815Y-90043238D01*
X146103113Y-90043000D01*
X146786631Y-90031592D01*
X147248220Y-89993664D01*
X147519086Y-89923656D01*
X147630435Y-89816009D01*
X147637500Y-89769639D01*
X147726560Y-89593493D01*
X147936322Y-89354759D01*
X148180659Y-89138288D01*
X148373445Y-89028932D01*
X148391308Y-89026999D01*
X148516048Y-88919177D01*
X148601349Y-88709499D01*
X148713867Y-88479532D01*
X148948879Y-88396990D01*
X149083732Y-88391999D01*
X149485998Y-88297910D01*
X149669501Y-88137999D01*
X149935625Y-87957826D01*
X150343498Y-87871951D01*
X150799168Y-87880006D01*
X151208685Y-87981623D01*
X151453573Y-88145002D01*
X151679939Y-88406004D01*
X151762778Y-88145002D01*
X151921247Y-87940778D01*
X152227130Y-87884000D01*
X152597965Y-87808102D01*
X152873235Y-87617103D01*
X152971500Y-87385071D01*
X153098013Y-87323267D01*
X153476943Y-87279991D01*
X154107382Y-87255312D01*
X154813000Y-87249000D01*
X155649419Y-87258348D01*
X156235077Y-87286347D01*
X156569065Y-87332932D01*
X156654500Y-87385071D01*
X156724573Y-87611538D01*
X156953878Y-87763662D01*
X157371048Y-87851048D01*
X158004717Y-87883306D01*
X158141393Y-87884000D01*
X158695201Y-87891020D01*
X159052530Y-87919506D01*
X159270692Y-87980595D01*
X159406997Y-88085423D01*
X159448500Y-88138000D01*
X159730677Y-88343043D01*
X159984537Y-88392000D01*
X160239629Y-88434264D01*
X160337500Y-88528071D01*
X160449197Y-88773566D01*
X160723325Y-88961432D01*
X161032702Y-89027000D01*
X161317738Y-89108223D01*
X161630920Y-89305842D01*
X161883943Y-89550780D01*
X161988499Y-89773960D01*
X161988501Y-89774669D01*
X162093414Y-89908374D01*
X162242500Y-89979500D01*
X162447858Y-90097374D01*
X162496500Y-90187629D01*
X162577787Y-90373999D01*
X162683246Y-90501888D01*
X162828188Y-90607921D01*
X162910741Y-90508903D01*
X162948252Y-90376822D01*
X163136974Y-90086379D01*
X163333006Y-89988085D01*
X163553295Y-89877381D01*
X163634076Y-89641923D01*
X163639501Y-89497116D01*
X163732322Y-89085352D01*
X163893501Y-88900000D01*
X164046760Y-88733431D01*
X164124456Y-88469483D01*
X164147406Y-88033705D01*
X164147501Y-87991521D01*
X164161051Y-87566662D01*
X164215540Y-87329140D01*
X164331721Y-87213097D01*
X164401500Y-87185499D01*
X164578754Y-87062107D01*
X164649578Y-86796394D01*
X164655500Y-86620253D01*
X164687053Y-86279372D01*
X164805596Y-86111833D01*
X164918263Y-86066910D01*
X165099259Y-85964740D01*
X165150128Y-85738833D01*
X165140513Y-85575848D01*
X165100000Y-85153500D01*
X135509000Y-85153500D01*
X135474250Y-106680000D01*
G36*
X142821637Y-126214347D02*
X142811500Y-126287051D01*
X142718155Y-126469425D01*
X142557500Y-126619000D01*
X142347630Y-126916144D01*
X142303500Y-127190500D01*
X142208108Y-127580197D01*
X142049500Y-127762000D01*
X141815697Y-128036500D01*
X141801774Y-128320558D01*
X141979693Y-128568484D01*
X142321417Y-128734591D01*
X142673009Y-128778000D01*
X143015773Y-128754559D01*
X143188272Y-128656048D01*
X143264586Y-128471505D01*
X143453201Y-128185571D01*
X143648006Y-128088085D01*
X143839203Y-128006957D01*
X143929247Y-127839640D01*
X143954153Y-127509156D01*
X143954500Y-127433008D01*
X143894671Y-126957378D01*
X143732226Y-126627423D01*
X143492733Y-126492838D01*
X143470384Y-126492000D01*
X143344450Y-126386172D01*
X143282565Y-126237475D01*
X143148456Y-126075446D01*
X142954721Y-126071956D01*
X142821637Y-126214347D01*
X142821637Y-126214347D01*
G37*
X142821637Y-126214347D02*
X142811500Y-126287051D01*
X142718155Y-126469425D01*
X142557500Y-126619000D01*
X142347630Y-126916144D01*
X142303500Y-127190500D01*
X142208108Y-127580197D01*
X142049500Y-127762000D01*
X141815697Y-128036500D01*
X141801774Y-128320558D01*
X141979693Y-128568484D01*
X142321417Y-128734591D01*
X142673009Y-128778000D01*
X143015773Y-128754559D01*
X143188272Y-128656048D01*
X143264586Y-128471505D01*
X143453201Y-128185571D01*
X143648006Y-128088085D01*
X143839203Y-128006957D01*
X143929247Y-127839640D01*
X143954153Y-127509156D01*
X143954500Y-127433008D01*
X143894671Y-126957378D01*
X143732226Y-126627423D01*
X143492733Y-126492838D01*
X143470384Y-126492000D01*
X143344450Y-126386172D01*
X143282565Y-126237475D01*
X143148456Y-126075446D01*
X142954721Y-126071956D01*
X142821637Y-126214347D01*
G36*
X146662056Y-123430221D02*
X146658436Y-123443475D01*
X146512408Y-123643610D01*
X146221455Y-123698000D01*
X145819201Y-123812726D01*
X145424600Y-124124433D01*
X145174429Y-124386418D01*
X145087428Y-124539316D01*
X145143007Y-124649393D01*
X145238333Y-124723970D01*
X145377821Y-124879929D01*
X145452016Y-125136806D01*
X145477693Y-125562397D01*
X145478500Y-125694536D01*
X145470029Y-126132034D01*
X145432516Y-126372739D01*
X145347814Y-126473624D01*
X145224500Y-126492000D01*
X145040275Y-126433818D01*
X144973847Y-126215589D01*
X144970500Y-126101928D01*
X144923751Y-125785319D01*
X144811125Y-125547417D01*
X144674056Y-125440835D01*
X144553978Y-125518188D01*
X144538336Y-125553150D01*
X144503102Y-125775002D01*
X144479179Y-126180980D01*
X144466539Y-126701463D01*
X144465152Y-127266830D01*
X144474991Y-127807459D01*
X144496026Y-128253731D01*
X144528227Y-128536024D01*
X144539588Y-128577112D01*
X144593692Y-128644955D01*
X144718020Y-128695864D01*
X144944333Y-128732169D01*
X145304398Y-128756198D01*
X145829976Y-128770280D01*
X146552833Y-128776746D01*
X147279160Y-128778000D01*
X148207763Y-128774799D01*
X148913097Y-128763892D01*
X149425830Y-128743324D01*
X149776626Y-128711137D01*
X149996153Y-128665376D01*
X150115077Y-128604083D01*
X150123072Y-128596571D01*
X150274363Y-128384080D01*
X150304500Y-128279071D01*
X150410782Y-128168549D01*
X150558500Y-128143000D01*
X150764809Y-128199936D01*
X150812500Y-128279071D01*
X150894100Y-128474139D01*
X150993929Y-128596571D01*
X151181536Y-128659892D01*
X151573650Y-128710688D01*
X152122850Y-128748845D01*
X152781717Y-128774250D01*
X153502830Y-128786788D01*
X154238768Y-128786347D01*
X154942111Y-128772812D01*
X155565438Y-128746070D01*
X156061330Y-128706008D01*
X156382364Y-128652512D01*
X156475504Y-128609703D01*
X156526013Y-128412940D01*
X156378267Y-128241703D01*
X156086610Y-128148165D01*
X155989397Y-128143000D01*
X155686621Y-128045069D01*
X155511500Y-127889000D01*
X152971500Y-127889000D01*
X152881698Y-128101256D01*
X152717500Y-128143000D01*
X152505244Y-128053197D01*
X152463500Y-127889000D01*
X150304500Y-127889000D01*
X150214698Y-128101256D01*
X150050500Y-128143000D01*
X149838244Y-128053197D01*
X149796500Y-127889000D01*
X148145500Y-127889000D01*
X148055698Y-128101256D01*
X147891500Y-128143000D01*
X147679244Y-128053197D01*
X147637500Y-127889000D01*
X146621500Y-127889000D01*
X146547087Y-128088177D01*
X146304000Y-128143000D01*
X146055029Y-128083469D01*
X145986500Y-127889000D01*
X145896698Y-127676743D01*
X145732500Y-127635000D01*
X145573771Y-127597606D01*
X145498712Y-127442337D01*
X145478597Y-127104555D01*
X145478500Y-127063500D01*
X145495120Y-126706357D01*
X145564128Y-126537475D01*
X145714254Y-126492218D01*
X145732500Y-126492000D01*
X145891230Y-126529393D01*
X145966289Y-126684662D01*
X145986404Y-127022444D01*
X145986500Y-127063500D01*
X145999660Y-127416160D01*
X146064345Y-127583247D01*
X146218364Y-127632817D01*
X146304000Y-127635000D01*
X146552972Y-127694530D01*
X146621500Y-127889000D01*
X147637500Y-127889000D01*
X147727303Y-127676743D01*
X147891500Y-127635000D01*
X148103757Y-127724802D01*
X148145500Y-127889000D01*
X149796500Y-127889000D01*
X149706698Y-127676743D01*
X149542500Y-127635000D01*
X149343323Y-127560586D01*
X149288500Y-127317500D01*
X149348031Y-127068528D01*
X149542500Y-127000000D01*
X149741678Y-127074413D01*
X149796500Y-127317500D01*
X149856031Y-127566471D01*
X150050500Y-127635000D01*
X150262757Y-127724802D01*
X150304500Y-127889000D01*
X152463500Y-127889000D01*
X152553303Y-127676743D01*
X152717500Y-127635000D01*
X152929757Y-127724802D01*
X152971500Y-127889000D01*
X155511500Y-127889000D01*
X155210282Y-127678045D01*
X154925732Y-127635000D01*
X154623212Y-127591793D01*
X154476116Y-127422835D01*
X154443349Y-127317500D01*
X154333983Y-127090291D01*
X154105881Y-127006364D01*
X153949617Y-127000000D01*
X153537853Y-126907178D01*
X153352500Y-126746000D01*
X153070324Y-126540956D01*
X152816464Y-126492000D01*
X152542344Y-126435492D01*
X152463500Y-126315087D01*
X152418751Y-126238000D01*
X149288500Y-126238000D01*
X149214087Y-126437177D01*
X148971000Y-126492000D01*
X148722029Y-126432469D01*
X148653500Y-126238000D01*
X148727914Y-126038822D01*
X148971000Y-125984000D01*
X149219972Y-126043530D01*
X149288500Y-126238000D01*
X152418751Y-126238000D01*
X152346654Y-126113806D01*
X152009687Y-126003175D01*
X151704881Y-125984000D01*
X151417572Y-125924463D01*
X151278520Y-125704164D01*
X151268349Y-125666500D01*
X151158983Y-125439291D01*
X150930881Y-125355364D01*
X150774617Y-125349000D01*
X150362853Y-125256178D01*
X150177500Y-125095000D01*
X149895324Y-124889956D01*
X149641464Y-124841000D01*
X149386353Y-124799881D01*
X149288500Y-124708639D01*
X149209869Y-124509432D01*
X149133364Y-124410205D01*
X148943305Y-124314013D01*
X148790588Y-124445330D01*
X148689298Y-124778733D01*
X148653500Y-125276428D01*
X148642758Y-125683273D01*
X148596197Y-125896408D01*
X148492322Y-125975718D01*
X148399500Y-125984000D01*
X148193398Y-125916202D01*
X148145500Y-125821536D01*
X148051712Y-125628106D01*
X147891500Y-125476000D01*
X147681630Y-125178855D01*
X147637500Y-124904500D01*
X147542108Y-124514802D01*
X147383500Y-124333000D01*
X147172535Y-124031736D01*
X147129500Y-123747051D01*
X147072079Y-123443879D01*
X146937422Y-123265780D01*
X146781943Y-123249109D01*
X146662056Y-123430221D01*
X146662056Y-123430221D01*
G37*
X146662056Y-123430221D02*
X146658436Y-123443475D01*
X146512408Y-123643610D01*
X146221455Y-123698000D01*
X145819201Y-123812726D01*
X145424600Y-124124433D01*
X145174429Y-124386418D01*
X145087428Y-124539316D01*
X145143007Y-124649393D01*
X145238333Y-124723970D01*
X145377821Y-124879929D01*
X145452016Y-125136806D01*
X145477693Y-125562397D01*
X145478500Y-125694536D01*
X145470029Y-126132034D01*
X145432516Y-126372739D01*
X145347814Y-126473624D01*
X145224500Y-126492000D01*
X145040275Y-126433818D01*
X144973847Y-126215589D01*
X144970500Y-126101928D01*
X144923751Y-125785319D01*
X144811125Y-125547417D01*
X144674056Y-125440835D01*
X144553978Y-125518188D01*
X144538336Y-125553150D01*
X144503102Y-125775002D01*
X144479179Y-126180980D01*
X144466539Y-126701463D01*
X144465152Y-127266830D01*
X144474991Y-127807459D01*
X144496026Y-128253731D01*
X144528227Y-128536024D01*
X144539588Y-128577112D01*
X144593692Y-128644955D01*
X144718020Y-128695864D01*
X144944333Y-128732169D01*
X145304398Y-128756198D01*
X145829976Y-128770280D01*
X146552833Y-128776746D01*
X147279160Y-128778000D01*
X148207763Y-128774799D01*
X148913097Y-128763892D01*
X149425830Y-128743324D01*
X149776626Y-128711137D01*
X149996153Y-128665376D01*
X150115077Y-128604083D01*
X150123072Y-128596571D01*
X150274363Y-128384080D01*
X150304500Y-128279071D01*
X150410782Y-128168549D01*
X150558500Y-128143000D01*
X150764809Y-128199936D01*
X150812500Y-128279071D01*
X150894100Y-128474139D01*
X150993929Y-128596571D01*
X151181536Y-128659892D01*
X151573650Y-128710688D01*
X152122850Y-128748845D01*
X152781717Y-128774250D01*
X153502830Y-128786788D01*
X154238768Y-128786347D01*
X154942111Y-128772812D01*
X155565438Y-128746070D01*
X156061330Y-128706008D01*
X156382364Y-128652512D01*
X156475504Y-128609703D01*
X156526013Y-128412940D01*
X156378267Y-128241703D01*
X156086610Y-128148165D01*
X155989397Y-128143000D01*
X155686621Y-128045069D01*
X155511500Y-127889000D01*
X152971500Y-127889000D01*
X152881698Y-128101256D01*
X152717500Y-128143000D01*
X152505244Y-128053197D01*
X152463500Y-127889000D01*
X150304500Y-127889000D01*
X150214698Y-128101256D01*
X150050500Y-128143000D01*
X149838244Y-128053197D01*
X149796500Y-127889000D01*
X148145500Y-127889000D01*
X148055698Y-128101256D01*
X147891500Y-128143000D01*
X147679244Y-128053197D01*
X147637500Y-127889000D01*
X146621500Y-127889000D01*
X146547087Y-128088177D01*
X146304000Y-128143000D01*
X146055029Y-128083469D01*
X145986500Y-127889000D01*
X145896698Y-127676743D01*
X145732500Y-127635000D01*
X145573771Y-127597606D01*
X145498712Y-127442337D01*
X145478597Y-127104555D01*
X145478500Y-127063500D01*
X145495120Y-126706357D01*
X145564128Y-126537475D01*
X145714254Y-126492218D01*
X145732500Y-126492000D01*
X145891230Y-126529393D01*
X145966289Y-126684662D01*
X145986404Y-127022444D01*
X145986500Y-127063500D01*
X145999660Y-127416160D01*
X146064345Y-127583247D01*
X146218364Y-127632817D01*
X146304000Y-127635000D01*
X146552972Y-127694530D01*
X146621500Y-127889000D01*
X147637500Y-127889000D01*
X147727303Y-127676743D01*
X147891500Y-127635000D01*
X148103757Y-127724802D01*
X148145500Y-127889000D01*
X149796500Y-127889000D01*
X149706698Y-127676743D01*
X149542500Y-127635000D01*
X149343323Y-127560586D01*
X149288500Y-127317500D01*
X149348031Y-127068528D01*
X149542500Y-127000000D01*
X149741678Y-127074413D01*
X149796500Y-127317500D01*
X149856031Y-127566471D01*
X150050500Y-127635000D01*
X150262757Y-127724802D01*
X150304500Y-127889000D01*
X152463500Y-127889000D01*
X152553303Y-127676743D01*
X152717500Y-127635000D01*
X152929757Y-127724802D01*
X152971500Y-127889000D01*
X155511500Y-127889000D01*
X155210282Y-127678045D01*
X154925732Y-127635000D01*
X154623212Y-127591793D01*
X154476116Y-127422835D01*
X154443349Y-127317500D01*
X154333983Y-127090291D01*
X154105881Y-127006364D01*
X153949617Y-127000000D01*
X153537853Y-126907178D01*
X153352500Y-126746000D01*
X153070324Y-126540956D01*
X152816464Y-126492000D01*
X152542344Y-126435492D01*
X152463500Y-126315087D01*
X152418751Y-126238000D01*
X149288500Y-126238000D01*
X149214087Y-126437177D01*
X148971000Y-126492000D01*
X148722029Y-126432469D01*
X148653500Y-126238000D01*
X148727914Y-126038822D01*
X148971000Y-125984000D01*
X149219972Y-126043530D01*
X149288500Y-126238000D01*
X152418751Y-126238000D01*
X152346654Y-126113806D01*
X152009687Y-126003175D01*
X151704881Y-125984000D01*
X151417572Y-125924463D01*
X151278520Y-125704164D01*
X151268349Y-125666500D01*
X151158983Y-125439291D01*
X150930881Y-125355364D01*
X150774617Y-125349000D01*
X150362853Y-125256178D01*
X150177500Y-125095000D01*
X149895324Y-124889956D01*
X149641464Y-124841000D01*
X149386353Y-124799881D01*
X149288500Y-124708639D01*
X149209869Y-124509432D01*
X149133364Y-124410205D01*
X148943305Y-124314013D01*
X148790588Y-124445330D01*
X148689298Y-124778733D01*
X148653500Y-125276428D01*
X148642758Y-125683273D01*
X148596197Y-125896408D01*
X148492322Y-125975718D01*
X148399500Y-125984000D01*
X148193398Y-125916202D01*
X148145500Y-125821536D01*
X148051712Y-125628106D01*
X147891500Y-125476000D01*
X147681630Y-125178855D01*
X147637500Y-124904500D01*
X147542108Y-124514802D01*
X147383500Y-124333000D01*
X147172535Y-124031736D01*
X147129500Y-123747051D01*
X147072079Y-123443879D01*
X146937422Y-123265780D01*
X146781943Y-123249109D01*
X146662056Y-123430221D01*
G36*
X164331117Y-114684671D02*
X164004801Y-114705476D01*
X163824612Y-114758102D01*
X163736622Y-114857237D01*
X163691652Y-114998499D01*
X163649432Y-115134824D01*
X163573849Y-115225184D01*
X163419198Y-115279032D01*
X163139775Y-115305817D01*
X162689874Y-115314990D01*
X162156161Y-115316000D01*
X161461972Y-115325095D01*
X160983348Y-115355180D01*
X160682412Y-115410451D01*
X160521286Y-115495107D01*
X160518929Y-115497428D01*
X160347491Y-115803186D01*
X160391851Y-116102107D01*
X160618639Y-116338047D01*
X160994484Y-116454859D01*
X161090429Y-116459000D01*
X161373347Y-116496885D01*
X161475361Y-116638988D01*
X161480500Y-116713000D01*
X161456743Y-116845947D01*
X161349428Y-116922385D01*
X161104492Y-116957605D01*
X160667873Y-116966897D01*
X160582429Y-116967000D01*
X159979096Y-116994889D01*
X159608710Y-117080246D01*
X159502540Y-117148818D01*
X159395215Y-117300228D01*
X159509576Y-117389218D01*
X159575111Y-117411376D01*
X159788911Y-117597901D01*
X159829500Y-117801058D01*
X159816437Y-117958791D01*
X159741446Y-118050973D01*
X159550824Y-118095181D01*
X159190868Y-118108992D01*
X158885559Y-118110000D01*
X158393930Y-118117730D01*
X158098543Y-118150432D01*
X157941862Y-118222368D01*
X157866354Y-118347801D01*
X157861000Y-118364000D01*
X157698676Y-118564243D01*
X157398871Y-118618000D01*
X157028036Y-118693897D01*
X156752766Y-118884896D01*
X156654500Y-119116928D01*
X156542678Y-119205912D01*
X156266810Y-119251450D01*
X156198111Y-119253000D01*
X155863820Y-119290931D01*
X155703752Y-119427887D01*
X155675299Y-119507000D01*
X155531123Y-119705600D01*
X155233617Y-119761000D01*
X154866396Y-119837427D01*
X154592838Y-120029170D01*
X154495500Y-120259928D01*
X154387203Y-120363430D01*
X154188388Y-120396000D01*
X153763748Y-120447809D01*
X153539361Y-120620070D01*
X153479500Y-120904000D01*
X153520889Y-121160766D01*
X153675856Y-121315776D01*
X153990610Y-121391897D01*
X154505888Y-121412000D01*
X154878868Y-121422697D01*
X155063499Y-121476966D01*
X155125226Y-121608072D01*
X155130500Y-121729500D01*
X155120589Y-121883248D01*
X155057329Y-121977081D01*
X154890433Y-122025791D01*
X154569612Y-122044166D01*
X154051000Y-122047000D01*
X153478090Y-122031538D01*
X153110813Y-121987078D01*
X152972064Y-121916504D01*
X152971500Y-121910928D01*
X152858266Y-121662369D01*
X152573307Y-121477864D01*
X152227130Y-121412000D01*
X151905490Y-121346242D01*
X151765001Y-121158000D01*
X151690180Y-121021548D01*
X151534480Y-120944506D01*
X151237711Y-120910736D01*
X150817530Y-120904000D01*
X150310512Y-120919375D01*
X150005972Y-120991164D01*
X149853021Y-121157865D01*
X149800769Y-121457974D01*
X149796501Y-121676387D01*
X149754060Y-121950588D01*
X149597696Y-122044293D01*
X149542500Y-122047000D01*
X149336192Y-121990063D01*
X149288500Y-121910928D01*
X149194431Y-121699156D01*
X148988389Y-121494345D01*
X148798130Y-121412000D01*
X148661721Y-121307031D01*
X148590001Y-121158000D01*
X148448874Y-120952060D01*
X148327442Y-120904000D01*
X148164489Y-120805543D01*
X148145500Y-120727087D01*
X148029502Y-120527082D01*
X147705407Y-120414569D01*
X147436613Y-120396000D01*
X147236479Y-120365463D01*
X147148949Y-120226073D01*
X147129502Y-119906159D01*
X147129500Y-119901587D01*
X147083729Y-119526787D01*
X146957920Y-119341552D01*
X146951417Y-119338838D01*
X146765120Y-119315232D01*
X146662858Y-119450956D01*
X146623967Y-119785057D01*
X146621501Y-119962279D01*
X146656043Y-120501096D01*
X146763014Y-120809961D01*
X146937776Y-120904000D01*
X147097228Y-121010274D01*
X147166299Y-121158000D01*
X147305267Y-121364549D01*
X147435111Y-121412000D01*
X147585794Y-121500220D01*
X147637141Y-121789373D01*
X147637500Y-121828463D01*
X147730030Y-122242203D01*
X147891500Y-122427999D01*
X148086621Y-122605948D01*
X148145500Y-122714269D01*
X148231951Y-122866671D01*
X148444339Y-123110650D01*
X148712219Y-123376696D01*
X148965145Y-123595296D01*
X149132672Y-123696941D01*
X149142455Y-123698000D01*
X149264494Y-123803748D01*
X149325299Y-123952000D01*
X149440663Y-124132526D01*
X149704830Y-124201678D01*
X149848111Y-124206000D01*
X150146567Y-124239339D01*
X150299303Y-124321589D01*
X150304500Y-124342071D01*
X150414774Y-124584792D01*
X150680491Y-124775206D01*
X150965893Y-124841000D01*
X151271772Y-124939041D01*
X151447501Y-125095000D01*
X151748719Y-125305954D01*
X152033269Y-125349000D01*
X152335789Y-125392206D01*
X152482885Y-125561164D01*
X152515652Y-125666500D01*
X152587574Y-125852943D01*
X152729349Y-125947598D01*
X153012556Y-125980860D01*
X153263384Y-125984000D01*
X153702853Y-126008451D01*
X153968831Y-126097153D01*
X154114501Y-126238000D01*
X154297796Y-126400125D01*
X154592720Y-126476635D01*
X154953225Y-126492000D01*
X155352801Y-126508097D01*
X155567209Y-126572260D01*
X155664119Y-126708293D01*
X155675299Y-126746000D01*
X155790663Y-126926526D01*
X156054830Y-126995678D01*
X156198111Y-127000000D01*
X156496567Y-127033339D01*
X156649303Y-127115589D01*
X156654500Y-127136071D01*
X156770866Y-127395802D01*
X157097849Y-127567556D01*
X157602278Y-127634652D01*
X157646617Y-127635000D01*
X158037499Y-127652651D01*
X158244621Y-127722352D01*
X158336788Y-127869226D01*
X158342299Y-127889000D01*
X158457663Y-128069526D01*
X158721830Y-128138678D01*
X158865111Y-128143000D01*
X159163567Y-128176339D01*
X159316303Y-128258589D01*
X159321500Y-128279071D01*
X159438032Y-128543022D01*
X159777817Y-128711362D01*
X160326142Y-128777291D01*
X160401000Y-128778000D01*
X160972094Y-128724140D01*
X161336322Y-128567097D01*
X161478967Y-128313669D01*
X161480500Y-128279071D01*
X161593145Y-128193871D01*
X161874551Y-128146474D01*
X161988500Y-128143000D01*
X162306582Y-128173172D01*
X162483529Y-128248549D01*
X162496500Y-128279071D01*
X162527750Y-128455016D01*
X162642649Y-128585048D01*
X162872920Y-128675728D01*
X163250287Y-128733613D01*
X163806473Y-128765265D01*
X164573203Y-128777241D01*
X164909501Y-128778000D01*
X165760434Y-128771538D01*
X166389318Y-128747781D01*
X166827876Y-128700168D01*
X167107832Y-128622141D01*
X167260910Y-128507140D01*
X167318833Y-128348606D01*
X167322500Y-128279071D01*
X167435145Y-128193871D01*
X167716551Y-128146474D01*
X167830500Y-128143000D01*
X168148582Y-128173172D01*
X168325529Y-128248549D01*
X168338500Y-128279071D01*
X168375644Y-128464765D01*
X168508798Y-128599390D01*
X168770549Y-128690476D01*
X169193484Y-128745554D01*
X169810188Y-128772154D01*
X170497501Y-128778000D01*
X171301050Y-128769416D01*
X171883609Y-128738645D01*
X172277764Y-128678156D01*
X172516100Y-128580419D01*
X172631206Y-128437904D01*
X172656500Y-128279071D01*
X172762782Y-128168549D01*
X172910500Y-128143000D01*
X173116809Y-128199936D01*
X173164500Y-128279071D01*
X173219400Y-128488839D01*
X173405553Y-128634108D01*
X173755139Y-128724307D01*
X174300340Y-128768862D01*
X174867509Y-128778000D01*
X175463716Y-128775588D01*
X175853710Y-128761487D01*
X176085275Y-128725391D01*
X176206193Y-128656997D01*
X176264248Y-128546004D01*
X176284337Y-128472499D01*
X176433969Y-128211957D01*
X176604257Y-128103389D01*
X176720672Y-128047295D01*
X176792931Y-127919389D01*
X176797580Y-127889000D01*
X176339500Y-127889000D01*
X176249698Y-128101256D01*
X176085500Y-128143000D01*
X175873244Y-128053197D01*
X175831500Y-127889000D01*
X167322500Y-127889000D01*
X167232698Y-128101256D01*
X167068500Y-128143000D01*
X166856244Y-128053197D01*
X166814500Y-127889000D01*
X161480500Y-127889000D01*
X161390698Y-128101256D01*
X161226500Y-128143000D01*
X161014244Y-128053197D01*
X160972500Y-127889000D01*
X160935107Y-127730270D01*
X160779838Y-127655211D01*
X160442056Y-127635096D01*
X160401000Y-127635000D01*
X160048340Y-127621840D01*
X159881253Y-127557155D01*
X159831683Y-127403136D01*
X159829500Y-127317500D01*
X159801773Y-127112940D01*
X159670988Y-127022020D01*
X159365740Y-127000113D01*
X159321500Y-127000000D01*
X158989148Y-126978699D01*
X158842262Y-126892608D01*
X158813500Y-126746000D01*
X158787772Y-126608539D01*
X158673170Y-126531901D01*
X158413570Y-126498817D01*
X157988000Y-126492000D01*
X157541253Y-126484083D01*
X157292181Y-126448821D01*
X157184658Y-126368944D01*
X157162500Y-126238000D01*
X157119900Y-126071823D01*
X156947717Y-125998380D01*
X156654500Y-125984000D01*
X156327205Y-125966670D01*
X156181733Y-125884929D01*
X156146682Y-125694149D01*
X156146500Y-125666500D01*
X156132025Y-125495825D01*
X156050344Y-125400762D01*
X155844072Y-125359238D01*
X155455824Y-125349183D01*
X155321000Y-125349000D01*
X154874253Y-125341083D01*
X154625181Y-125305821D01*
X154517658Y-125225944D01*
X154495500Y-125095000D01*
X154452900Y-124928823D01*
X154280717Y-124855380D01*
X153987500Y-124841000D01*
X153660205Y-124823670D01*
X153514733Y-124741929D01*
X153479682Y-124551149D01*
X153479500Y-124523500D01*
X153507228Y-124318940D01*
X153638013Y-124228020D01*
X153943261Y-124206113D01*
X153987500Y-124206000D01*
X154314796Y-124223329D01*
X154460268Y-124305070D01*
X154495319Y-124495850D01*
X154495500Y-124523500D01*
X154509976Y-124694174D01*
X154591657Y-124789237D01*
X154797929Y-124830761D01*
X155186177Y-124840816D01*
X155321000Y-124841000D01*
X155767748Y-124848916D01*
X156016820Y-124884178D01*
X156124343Y-124964055D01*
X156146500Y-125095000D01*
X156189101Y-125261176D01*
X156361284Y-125334619D01*
X156654500Y-125349000D01*
X156981796Y-125366329D01*
X157127268Y-125448070D01*
X157162319Y-125638850D01*
X157162500Y-125666500D01*
X157176976Y-125837174D01*
X157258657Y-125932237D01*
X157464929Y-125973761D01*
X157853177Y-125983816D01*
X157988000Y-125984000D01*
X158434748Y-125991916D01*
X158683820Y-126027178D01*
X158791343Y-126107055D01*
X158813500Y-126238000D01*
X158856101Y-126404176D01*
X159028284Y-126477619D01*
X159321500Y-126492000D01*
X159653853Y-126513300D01*
X159800739Y-126599391D01*
X159829500Y-126746000D01*
X159866894Y-126904729D01*
X160022163Y-126979788D01*
X160359945Y-126999903D01*
X160401000Y-127000000D01*
X160753661Y-127013159D01*
X160920748Y-127077844D01*
X160970318Y-127231863D01*
X160972500Y-127317500D01*
X161032031Y-127566471D01*
X161226500Y-127635000D01*
X161438757Y-127724802D01*
X161480500Y-127889000D01*
X166814500Y-127889000D01*
X166904303Y-127676743D01*
X167068500Y-127635000D01*
X167280757Y-127724802D01*
X167322500Y-127889000D01*
X175831500Y-127889000D01*
X175741698Y-127676743D01*
X175577500Y-127635000D01*
X175378323Y-127560586D01*
X175323500Y-127317500D01*
X171513500Y-127317500D01*
X171453970Y-127566471D01*
X171259500Y-127635000D01*
X171060323Y-127560586D01*
X171005500Y-127317500D01*
X166306500Y-127317500D01*
X166254046Y-127559182D01*
X166047511Y-127633659D01*
X165989000Y-127635000D01*
X165747318Y-127582545D01*
X165672841Y-127376010D01*
X165671500Y-127317500D01*
X165723955Y-127075817D01*
X165930490Y-127001340D01*
X165989000Y-127000000D01*
X166230683Y-127052454D01*
X166305160Y-127258989D01*
X166306500Y-127317500D01*
X171005500Y-127317500D01*
X170977773Y-127112940D01*
X170846988Y-127022020D01*
X170541740Y-127000113D01*
X170497500Y-127000000D01*
X170165148Y-126978699D01*
X170018262Y-126892608D01*
X169989500Y-126746000D01*
X169946900Y-126579823D01*
X169774717Y-126506380D01*
X169481500Y-126492000D01*
X169149148Y-126470699D01*
X169002262Y-126384608D01*
X168973500Y-126238000D01*
X165163500Y-126238000D01*
X165073698Y-126450256D01*
X164909500Y-126492000D01*
X164697244Y-126402197D01*
X164655500Y-126238000D01*
X164745303Y-126025743D01*
X164909500Y-125984000D01*
X165121757Y-126073802D01*
X165163500Y-126238000D01*
X168973500Y-126238000D01*
X168936107Y-126079270D01*
X168780838Y-126004211D01*
X168443056Y-125984096D01*
X168402000Y-125984000D01*
X168049340Y-125970840D01*
X167882253Y-125906155D01*
X167832683Y-125752136D01*
X167830500Y-125666500D01*
X167802773Y-125461940D01*
X167671988Y-125371020D01*
X167366740Y-125349113D01*
X167322500Y-125349000D01*
X166990148Y-125327699D01*
X166843262Y-125241608D01*
X166814500Y-125095000D01*
X166777107Y-124936270D01*
X166621838Y-124861211D01*
X166284056Y-124841096D01*
X166243000Y-124841000D01*
X165890340Y-124827840D01*
X165723253Y-124763155D01*
X165673683Y-124609136D01*
X165671500Y-124523500D01*
X165643773Y-124318940D01*
X165512988Y-124228020D01*
X165207740Y-124206113D01*
X165163500Y-124206000D01*
X164831148Y-124184699D01*
X164684262Y-124098608D01*
X164655500Y-123952000D01*
X164629772Y-123814539D01*
X164515170Y-123737901D01*
X164255570Y-123704817D01*
X163830000Y-123698000D01*
X163383253Y-123690083D01*
X163134181Y-123654821D01*
X163026658Y-123574944D01*
X163004500Y-123444000D01*
X158305500Y-123444000D01*
X158215698Y-123656256D01*
X158051500Y-123698000D01*
X157839244Y-123608197D01*
X157797500Y-123444000D01*
X157887303Y-123231743D01*
X158051500Y-123190000D01*
X158263757Y-123279802D01*
X158305500Y-123444000D01*
X163004500Y-123444000D01*
X162976697Y-123302135D01*
X162854561Y-123225479D01*
X162580004Y-123194669D01*
X162242500Y-123190000D01*
X161820190Y-123183277D01*
X161592185Y-123146542D01*
X161498842Y-123054942D01*
X161480517Y-122883628D01*
X161480500Y-122872500D01*
X156654500Y-122872500D01*
X156594970Y-123121471D01*
X156400500Y-123190000D01*
X156201323Y-123115586D01*
X156146500Y-122872500D01*
X150812500Y-122872500D01*
X150752970Y-123121471D01*
X150558500Y-123190000D01*
X150359323Y-123115586D01*
X150304500Y-122872500D01*
X150244970Y-122623528D01*
X150050500Y-122555000D01*
X149838244Y-122465197D01*
X149796500Y-122301000D01*
X149886303Y-122088743D01*
X150050500Y-122047000D01*
X150262757Y-122136802D01*
X150304500Y-122301000D01*
X150394303Y-122513256D01*
X150558500Y-122555000D01*
X150757678Y-122629413D01*
X150812500Y-122872500D01*
X156146500Y-122872500D01*
X156118773Y-122667940D01*
X155987988Y-122577020D01*
X155682740Y-122555113D01*
X155638500Y-122555000D01*
X155306148Y-122533699D01*
X155159262Y-122447608D01*
X155130500Y-122301000D01*
X155173101Y-122134823D01*
X155345284Y-122061380D01*
X155638500Y-122047000D01*
X155970853Y-122068300D01*
X156117739Y-122154391D01*
X156146500Y-122301000D01*
X156236303Y-122513256D01*
X156400500Y-122555000D01*
X156599678Y-122629413D01*
X156654500Y-122872500D01*
X161480500Y-122872500D01*
X161456813Y-122676577D01*
X161340380Y-122583751D01*
X161063146Y-122556212D01*
X160909000Y-122555000D01*
X160551858Y-122538380D01*
X160382976Y-122469372D01*
X160337719Y-122319246D01*
X160337500Y-122301000D01*
X160374894Y-122142270D01*
X160530163Y-122067211D01*
X160867945Y-122047096D01*
X160909000Y-122047000D01*
X161266143Y-122063619D01*
X161435025Y-122132627D01*
X161480282Y-122282753D01*
X161480500Y-122301000D01*
X161508304Y-122442864D01*
X161630440Y-122519520D01*
X161904997Y-122550330D01*
X162242500Y-122555000D01*
X162664811Y-122561722D01*
X162892816Y-122598457D01*
X162986159Y-122690057D01*
X163004484Y-122861371D01*
X163004500Y-122872500D01*
X163018976Y-123043174D01*
X163100657Y-123138237D01*
X163306929Y-123179761D01*
X163695177Y-123189816D01*
X163830000Y-123190000D01*
X164276748Y-123197916D01*
X164525820Y-123233178D01*
X164633343Y-123313055D01*
X164655500Y-123444000D01*
X164698101Y-123610176D01*
X164870284Y-123683619D01*
X165163500Y-123698000D01*
X165495853Y-123719300D01*
X165642739Y-123805391D01*
X165671500Y-123952000D01*
X165708894Y-124110729D01*
X165864163Y-124185788D01*
X166201945Y-124205903D01*
X166243000Y-124206000D01*
X166595661Y-124219159D01*
X166762748Y-124283844D01*
X166812318Y-124437863D01*
X166814500Y-124523500D01*
X166842228Y-124728059D01*
X166973013Y-124818979D01*
X167278261Y-124840886D01*
X167322500Y-124841000D01*
X167654853Y-124862300D01*
X167801739Y-124948391D01*
X167830500Y-125095000D01*
X167867894Y-125253729D01*
X168023163Y-125328788D01*
X168360945Y-125348903D01*
X168402000Y-125349000D01*
X168754661Y-125362159D01*
X168921748Y-125426844D01*
X168971318Y-125580863D01*
X168973500Y-125666500D01*
X169001228Y-125871059D01*
X169132013Y-125961979D01*
X169437261Y-125983886D01*
X169481500Y-125984000D01*
X169813853Y-126005300D01*
X169960739Y-126091391D01*
X169989500Y-126238000D01*
X170032101Y-126404176D01*
X170204284Y-126477619D01*
X170497500Y-126492000D01*
X170829853Y-126513300D01*
X170976739Y-126599391D01*
X171005500Y-126746000D01*
X171095303Y-126958256D01*
X171259500Y-127000000D01*
X171458678Y-127074413D01*
X171513500Y-127317500D01*
X175323500Y-127317500D01*
X175383031Y-127068528D01*
X175577500Y-127000000D01*
X175776678Y-127074413D01*
X175831500Y-127317500D01*
X175891031Y-127566471D01*
X176085500Y-127635000D01*
X176297757Y-127724802D01*
X176339500Y-127889000D01*
X176797580Y-127889000D01*
X176831256Y-127668908D01*
X176845865Y-127245089D01*
X176847501Y-126895276D01*
X176845910Y-126746000D01*
X174815500Y-126746000D01*
X174741087Y-126945177D01*
X174498000Y-127000000D01*
X174249029Y-126940469D01*
X174180500Y-126746000D01*
X174254914Y-126546822D01*
X174498000Y-126492000D01*
X174746972Y-126551530D01*
X174815500Y-126746000D01*
X176845910Y-126746000D01*
X176840566Y-126244948D01*
X176809813Y-125807036D01*
X176740317Y-125540113D01*
X176617154Y-125402751D01*
X176425398Y-125353523D01*
X176290449Y-125349000D01*
X175888029Y-125254929D01*
X175704500Y-125095000D01*
X175422324Y-124889956D01*
X175168464Y-124841000D01*
X174913372Y-124798735D01*
X174815500Y-124704928D01*
X174721431Y-124493156D01*
X174515389Y-124288345D01*
X174325130Y-124206000D01*
X174188721Y-124101031D01*
X174117000Y-123952000D01*
X171005500Y-123952000D01*
X170915698Y-124164256D01*
X170751500Y-124206000D01*
X170539244Y-124116197D01*
X170497500Y-123952000D01*
X170587303Y-123739743D01*
X170751500Y-123698000D01*
X170963757Y-123787802D01*
X171005500Y-123952000D01*
X174117000Y-123952000D01*
X173982219Y-123746204D01*
X173869254Y-123698000D01*
X173705681Y-123591676D01*
X173635702Y-123444000D01*
X173496734Y-123237450D01*
X173366890Y-123190000D01*
X173190461Y-123120396D01*
X173164500Y-123053928D01*
X173082074Y-122872500D01*
X168973500Y-122872500D01*
X168921046Y-123114182D01*
X168714511Y-123188659D01*
X168656000Y-123190000D01*
X168414318Y-123137545D01*
X168339841Y-122931010D01*
X168338500Y-122872500D01*
X168390955Y-122630817D01*
X168597490Y-122556340D01*
X168656000Y-122555000D01*
X168897683Y-122607454D01*
X168972160Y-122813989D01*
X168973500Y-122872500D01*
X173082074Y-122872500D01*
X173054227Y-122811207D01*
X172788510Y-122620793D01*
X172503108Y-122555000D01*
X172197229Y-122456958D01*
X172021500Y-122301000D01*
X171717228Y-122089336D01*
X171421964Y-122047000D01*
X171133643Y-122019328D01*
X171020785Y-121897703D01*
X171005500Y-121729500D01*
X159321500Y-121729500D01*
X159261970Y-121978471D01*
X159067500Y-122047000D01*
X158868323Y-121972586D01*
X158813500Y-121729500D01*
X158873031Y-121480528D01*
X159067500Y-121412000D01*
X159266678Y-121486413D01*
X159321500Y-121729500D01*
X171005500Y-121729500D01*
X171019976Y-121558825D01*
X171101657Y-121463762D01*
X171307929Y-121422238D01*
X171696177Y-121412183D01*
X171831000Y-121412000D01*
X172298420Y-121431729D01*
X172584866Y-121486444D01*
X172656500Y-121548071D01*
X172754645Y-121800301D01*
X173058865Y-121961855D01*
X173583836Y-122038580D01*
X173908871Y-122047000D01*
X174384313Y-122055746D01*
X174665430Y-122092351D01*
X174811600Y-122172359D01*
X174879000Y-122301000D01*
X175017811Y-122487995D01*
X175315603Y-122553502D01*
X175395559Y-122555000D01*
X175685907Y-122589788D01*
X175828503Y-122675126D01*
X175831500Y-122691071D01*
X175938988Y-122928446D01*
X176190852Y-123122894D01*
X176443841Y-123190000D01*
X176641904Y-123139920D01*
X176765486Y-122962175D01*
X176829159Y-122615502D01*
X176847496Y-122058639D01*
X176847501Y-122047000D01*
X176836550Y-121505284D01*
X176779902Y-121168750D01*
X176771657Y-121158000D01*
X170497500Y-121158000D01*
X170407698Y-121370256D01*
X170243500Y-121412000D01*
X170031244Y-121322197D01*
X169989500Y-121158000D01*
X170079303Y-120945743D01*
X170243500Y-120904000D01*
X170455757Y-120993802D01*
X170497500Y-121158000D01*
X176771657Y-121158000D01*
X176641863Y-120988776D01*
X176386739Y-120916741D01*
X176008413Y-120904000D01*
X175581366Y-120883487D01*
X175367288Y-120815369D01*
X175323500Y-120727087D01*
X175287603Y-120650000D01*
X169481500Y-120650000D01*
X169391698Y-120862256D01*
X169227500Y-120904000D01*
X169015244Y-120814197D01*
X168973500Y-120650000D01*
X165671500Y-120650000D01*
X165581698Y-120862256D01*
X165417500Y-120904000D01*
X165205244Y-120814197D01*
X165163500Y-120650000D01*
X165253303Y-120437743D01*
X165417500Y-120396000D01*
X165629757Y-120485802D01*
X165671500Y-120650000D01*
X168973500Y-120650000D01*
X169063303Y-120437743D01*
X169227500Y-120396000D01*
X169439757Y-120485802D01*
X169481500Y-120650000D01*
X175287603Y-120650000D01*
X175240215Y-120548239D01*
X174971795Y-120441615D01*
X174490394Y-120398110D01*
X174310881Y-120396000D01*
X173935360Y-120381128D01*
X173737812Y-120313410D01*
X173642860Y-120158188D01*
X173620349Y-120078500D01*
X173517889Y-119857617D01*
X173305260Y-119770931D01*
X173098581Y-119761000D01*
X172761092Y-119713866D01*
X172656500Y-119584087D01*
X172620603Y-119507000D01*
X165671500Y-119507000D01*
X165581698Y-119719256D01*
X165417500Y-119761000D01*
X165205244Y-119671197D01*
X165163500Y-119507000D01*
X161988500Y-119507000D01*
X161898698Y-119719256D01*
X161734500Y-119761000D01*
X161522244Y-119671197D01*
X161480500Y-119507000D01*
X161570303Y-119294743D01*
X161734500Y-119253000D01*
X161946757Y-119342802D01*
X161988500Y-119507000D01*
X165163500Y-119507000D01*
X165253303Y-119294743D01*
X165417500Y-119253000D01*
X165629757Y-119342802D01*
X165671500Y-119507000D01*
X172620603Y-119507000D01*
X172573215Y-119405239D01*
X172304795Y-119298615D01*
X171823394Y-119255110D01*
X171643881Y-119253000D01*
X171268360Y-119238128D01*
X171070812Y-119170410D01*
X170975860Y-119015188D01*
X170953349Y-118935500D01*
X164655500Y-118935500D01*
X164595970Y-119184471D01*
X164401500Y-119253000D01*
X164202323Y-119178586D01*
X164147500Y-118935500D01*
X164207031Y-118686528D01*
X164401500Y-118618000D01*
X164600678Y-118692413D01*
X164655500Y-118935500D01*
X170953349Y-118935500D01*
X170843983Y-118708291D01*
X170615881Y-118624364D01*
X170459617Y-118618000D01*
X170047853Y-118525178D01*
X169862501Y-118364000D01*
X169725116Y-118228281D01*
X169514451Y-118150672D01*
X169165747Y-118116319D01*
X168754964Y-118110000D01*
X168279246Y-118105748D01*
X168003222Y-118080561D01*
X167872598Y-118015792D01*
X167833076Y-117892794D01*
X167830500Y-117792500D01*
X160972500Y-117792500D01*
X160920046Y-118034182D01*
X160713511Y-118108659D01*
X160655000Y-118110000D01*
X160413318Y-118057545D01*
X160338841Y-117851010D01*
X160337500Y-117792500D01*
X160389955Y-117550817D01*
X160596490Y-117476340D01*
X160655000Y-117475000D01*
X160896683Y-117527454D01*
X160971160Y-117733989D01*
X160972500Y-117792500D01*
X167830500Y-117792500D01*
X167843029Y-117628832D01*
X167916884Y-117533859D01*
X168106465Y-117488708D01*
X168466174Y-117474504D01*
X168751250Y-117473055D01*
X169368372Y-117453801D01*
X169743736Y-117396596D01*
X169887286Y-117297580D01*
X169845835Y-117221000D01*
X167830500Y-117221000D01*
X167787900Y-117387176D01*
X167615717Y-117460619D01*
X167322500Y-117475000D01*
X166990148Y-117453699D01*
X166843262Y-117367608D01*
X166814500Y-117221000D01*
X166306500Y-117221000D01*
X166280772Y-117358460D01*
X166166170Y-117435098D01*
X165906570Y-117468182D01*
X165481000Y-117475000D01*
X165034253Y-117467083D01*
X164785181Y-117431821D01*
X164677658Y-117351944D01*
X164655500Y-117221000D01*
X164681229Y-117083539D01*
X164795831Y-117006901D01*
X165055431Y-116973817D01*
X165481000Y-116967000D01*
X165927748Y-116974916D01*
X166176820Y-117010178D01*
X166284343Y-117090055D01*
X166306500Y-117221000D01*
X166814500Y-117221000D01*
X166857101Y-117054823D01*
X167029284Y-116981380D01*
X167322500Y-116967000D01*
X167654853Y-116988300D01*
X167801739Y-117074391D01*
X167830500Y-117221000D01*
X169845835Y-117221000D01*
X169808967Y-117152890D01*
X169732676Y-117091964D01*
X169537542Y-116894042D01*
X169481501Y-116757021D01*
X169376120Y-116598962D01*
X169227500Y-116522500D01*
X169022143Y-116404625D01*
X168973500Y-116314370D01*
X168892591Y-116141500D01*
X163639500Y-116141500D01*
X163629589Y-116295248D01*
X163566329Y-116389081D01*
X163399433Y-116437791D01*
X163078612Y-116456166D01*
X162560000Y-116459000D01*
X162037256Y-116456084D01*
X161718222Y-116437479D01*
X161552611Y-116388391D01*
X161490133Y-116294032D01*
X161480500Y-116141500D01*
X161490412Y-115987751D01*
X161553672Y-115893918D01*
X161720568Y-115845208D01*
X162041389Y-115826833D01*
X162560000Y-115824000D01*
X163082745Y-115826915D01*
X163401779Y-115845520D01*
X163567390Y-115894608D01*
X163629868Y-115988967D01*
X163639500Y-116141500D01*
X168892591Y-116141500D01*
X168861117Y-116074255D01*
X168582411Y-115891149D01*
X168248608Y-115824000D01*
X167884418Y-115727323D01*
X167703500Y-115570000D01*
X164655500Y-115570000D01*
X164565698Y-115782256D01*
X164401500Y-115824000D01*
X164189244Y-115734197D01*
X164147500Y-115570000D01*
X164237303Y-115357743D01*
X164401500Y-115316000D01*
X164613757Y-115405802D01*
X164655500Y-115570000D01*
X167703500Y-115570000D01*
X167504588Y-115400211D01*
X167180921Y-115325618D01*
X166913464Y-115316000D01*
X166547734Y-115290146D01*
X166334630Y-115222739D01*
X166306501Y-115179928D01*
X166232941Y-114949955D01*
X165993980Y-114796456D01*
X165562197Y-114709987D01*
X164910171Y-114681108D01*
X164857492Y-114681000D01*
X164331117Y-114684671D01*
X164331117Y-114684671D01*
G37*
X164331117Y-114684671D02*
X164004801Y-114705476D01*
X163824612Y-114758102D01*
X163736622Y-114857237D01*
X163691652Y-114998499D01*
X163649432Y-115134824D01*
X163573849Y-115225184D01*
X163419198Y-115279032D01*
X163139775Y-115305817D01*
X162689874Y-115314990D01*
X162156161Y-115316000D01*
X161461972Y-115325095D01*
X160983348Y-115355180D01*
X160682412Y-115410451D01*
X160521286Y-115495107D01*
X160518929Y-115497428D01*
X160347491Y-115803186D01*
X160391851Y-116102107D01*
X160618639Y-116338047D01*
X160994484Y-116454859D01*
X161090429Y-116459000D01*
X161373347Y-116496885D01*
X161475361Y-116638988D01*
X161480500Y-116713000D01*
X161456743Y-116845947D01*
X161349428Y-116922385D01*
X161104492Y-116957605D01*
X160667873Y-116966897D01*
X160582429Y-116967000D01*
X159979096Y-116994889D01*
X159608710Y-117080246D01*
X159502540Y-117148818D01*
X159395215Y-117300228D01*
X159509576Y-117389218D01*
X159575111Y-117411376D01*
X159788911Y-117597901D01*
X159829500Y-117801058D01*
X159816437Y-117958791D01*
X159741446Y-118050973D01*
X159550824Y-118095181D01*
X159190868Y-118108992D01*
X158885559Y-118110000D01*
X158393930Y-118117730D01*
X158098543Y-118150432D01*
X157941862Y-118222368D01*
X157866354Y-118347801D01*
X157861000Y-118364000D01*
X157698676Y-118564243D01*
X157398871Y-118618000D01*
X157028036Y-118693897D01*
X156752766Y-118884896D01*
X156654500Y-119116928D01*
X156542678Y-119205912D01*
X156266810Y-119251450D01*
X156198111Y-119253000D01*
X155863820Y-119290931D01*
X155703752Y-119427887D01*
X155675299Y-119507000D01*
X155531123Y-119705600D01*
X155233617Y-119761000D01*
X154866396Y-119837427D01*
X154592838Y-120029170D01*
X154495500Y-120259928D01*
X154387203Y-120363430D01*
X154188388Y-120396000D01*
X153763748Y-120447809D01*
X153539361Y-120620070D01*
X153479500Y-120904000D01*
X153520889Y-121160766D01*
X153675856Y-121315776D01*
X153990610Y-121391897D01*
X154505888Y-121412000D01*
X154878868Y-121422697D01*
X155063499Y-121476966D01*
X155125226Y-121608072D01*
X155130500Y-121729500D01*
X155120589Y-121883248D01*
X155057329Y-121977081D01*
X154890433Y-122025791D01*
X154569612Y-122044166D01*
X154051000Y-122047000D01*
X153478090Y-122031538D01*
X153110813Y-121987078D01*
X152972064Y-121916504D01*
X152971500Y-121910928D01*
X152858266Y-121662369D01*
X152573307Y-121477864D01*
X152227130Y-121412000D01*
X151905490Y-121346242D01*
X151765001Y-121158000D01*
X151690180Y-121021548D01*
X151534480Y-120944506D01*
X151237711Y-120910736D01*
X150817530Y-120904000D01*
X150310512Y-120919375D01*
X150005972Y-120991164D01*
X149853021Y-121157865D01*
X149800769Y-121457974D01*
X149796501Y-121676387D01*
X149754060Y-121950588D01*
X149597696Y-122044293D01*
X149542500Y-122047000D01*
X149336192Y-121990063D01*
X149288500Y-121910928D01*
X149194431Y-121699156D01*
X148988389Y-121494345D01*
X148798130Y-121412000D01*
X148661721Y-121307031D01*
X148590001Y-121158000D01*
X148448874Y-120952060D01*
X148327442Y-120904000D01*
X148164489Y-120805543D01*
X148145500Y-120727087D01*
X148029502Y-120527082D01*
X147705407Y-120414569D01*
X147436613Y-120396000D01*
X147236479Y-120365463D01*
X147148949Y-120226073D01*
X147129502Y-119906159D01*
X147129500Y-119901587D01*
X147083729Y-119526787D01*
X146957920Y-119341552D01*
X146951417Y-119338838D01*
X146765120Y-119315232D01*
X146662858Y-119450956D01*
X146623967Y-119785057D01*
X146621501Y-119962279D01*
X146656043Y-120501096D01*
X146763014Y-120809961D01*
X146937776Y-120904000D01*
X147097228Y-121010274D01*
X147166299Y-121158000D01*
X147305267Y-121364549D01*
X147435111Y-121412000D01*
X147585794Y-121500220D01*
X147637141Y-121789373D01*
X147637500Y-121828463D01*
X147730030Y-122242203D01*
X147891500Y-122427999D01*
X148086621Y-122605948D01*
X148145500Y-122714269D01*
X148231951Y-122866671D01*
X148444339Y-123110650D01*
X148712219Y-123376696D01*
X148965145Y-123595296D01*
X149132672Y-123696941D01*
X149142455Y-123698000D01*
X149264494Y-123803748D01*
X149325299Y-123952000D01*
X149440663Y-124132526D01*
X149704830Y-124201678D01*
X149848111Y-124206000D01*
X150146567Y-124239339D01*
X150299303Y-124321589D01*
X150304500Y-124342071D01*
X150414774Y-124584792D01*
X150680491Y-124775206D01*
X150965893Y-124841000D01*
X151271772Y-124939041D01*
X151447501Y-125095000D01*
X151748719Y-125305954D01*
X152033269Y-125349000D01*
X152335789Y-125392206D01*
X152482885Y-125561164D01*
X152515652Y-125666500D01*
X152587574Y-125852943D01*
X152729349Y-125947598D01*
X153012556Y-125980860D01*
X153263384Y-125984000D01*
X153702853Y-126008451D01*
X153968831Y-126097153D01*
X154114501Y-126238000D01*
X154297796Y-126400125D01*
X154592720Y-126476635D01*
X154953225Y-126492000D01*
X155352801Y-126508097D01*
X155567209Y-126572260D01*
X155664119Y-126708293D01*
X155675299Y-126746000D01*
X155790663Y-126926526D01*
X156054830Y-126995678D01*
X156198111Y-127000000D01*
X156496567Y-127033339D01*
X156649303Y-127115589D01*
X156654500Y-127136071D01*
X156770866Y-127395802D01*
X157097849Y-127567556D01*
X157602278Y-127634652D01*
X157646617Y-127635000D01*
X158037499Y-127652651D01*
X158244621Y-127722352D01*
X158336788Y-127869226D01*
X158342299Y-127889000D01*
X158457663Y-128069526D01*
X158721830Y-128138678D01*
X158865111Y-128143000D01*
X159163567Y-128176339D01*
X159316303Y-128258589D01*
X159321500Y-128279071D01*
X159438032Y-128543022D01*
X159777817Y-128711362D01*
X160326142Y-128777291D01*
X160401000Y-128778000D01*
X160972094Y-128724140D01*
X161336322Y-128567097D01*
X161478967Y-128313669D01*
X161480500Y-128279071D01*
X161593145Y-128193871D01*
X161874551Y-128146474D01*
X161988500Y-128143000D01*
X162306582Y-128173172D01*
X162483529Y-128248549D01*
X162496500Y-128279071D01*
X162527750Y-128455016D01*
X162642649Y-128585048D01*
X162872920Y-128675728D01*
X163250287Y-128733613D01*
X163806473Y-128765265D01*
X164573203Y-128777241D01*
X164909501Y-128778000D01*
X165760434Y-128771538D01*
X166389318Y-128747781D01*
X166827876Y-128700168D01*
X167107832Y-128622141D01*
X167260910Y-128507140D01*
X167318833Y-128348606D01*
X167322500Y-128279071D01*
X167435145Y-128193871D01*
X167716551Y-128146474D01*
X167830500Y-128143000D01*
X168148582Y-128173172D01*
X168325529Y-128248549D01*
X168338500Y-128279071D01*
X168375644Y-128464765D01*
X168508798Y-128599390D01*
X168770549Y-128690476D01*
X169193484Y-128745554D01*
X169810188Y-128772154D01*
X170497501Y-128778000D01*
X171301050Y-128769416D01*
X171883609Y-128738645D01*
X172277764Y-128678156D01*
X172516100Y-128580419D01*
X172631206Y-128437904D01*
X172656500Y-128279071D01*
X172762782Y-128168549D01*
X172910500Y-128143000D01*
X173116809Y-128199936D01*
X173164500Y-128279071D01*
X173219400Y-128488839D01*
X173405553Y-128634108D01*
X173755139Y-128724307D01*
X174300340Y-128768862D01*
X174867509Y-128778000D01*
X175463716Y-128775588D01*
X175853710Y-128761487D01*
X176085275Y-128725391D01*
X176206193Y-128656997D01*
X176264248Y-128546004D01*
X176284337Y-128472499D01*
X176433969Y-128211957D01*
X176604257Y-128103389D01*
X176720672Y-128047295D01*
X176792931Y-127919389D01*
X176797580Y-127889000D01*
X176339500Y-127889000D01*
X176249698Y-128101256D01*
X176085500Y-128143000D01*
X175873244Y-128053197D01*
X175831500Y-127889000D01*
X167322500Y-127889000D01*
X167232698Y-128101256D01*
X167068500Y-128143000D01*
X166856244Y-128053197D01*
X166814500Y-127889000D01*
X161480500Y-127889000D01*
X161390698Y-128101256D01*
X161226500Y-128143000D01*
X161014244Y-128053197D01*
X160972500Y-127889000D01*
X160935107Y-127730270D01*
X160779838Y-127655211D01*
X160442056Y-127635096D01*
X160401000Y-127635000D01*
X160048340Y-127621840D01*
X159881253Y-127557155D01*
X159831683Y-127403136D01*
X159829500Y-127317500D01*
X159801773Y-127112940D01*
X159670988Y-127022020D01*
X159365740Y-127000113D01*
X159321500Y-127000000D01*
X158989148Y-126978699D01*
X158842262Y-126892608D01*
X158813500Y-126746000D01*
X158787772Y-126608539D01*
X158673170Y-126531901D01*
X158413570Y-126498817D01*
X157988000Y-126492000D01*
X157541253Y-126484083D01*
X157292181Y-126448821D01*
X157184658Y-126368944D01*
X157162500Y-126238000D01*
X157119900Y-126071823D01*
X156947717Y-125998380D01*
X156654500Y-125984000D01*
X156327205Y-125966670D01*
X156181733Y-125884929D01*
X156146682Y-125694149D01*
X156146500Y-125666500D01*
X156132025Y-125495825D01*
X156050344Y-125400762D01*
X155844072Y-125359238D01*
X155455824Y-125349183D01*
X155321000Y-125349000D01*
X154874253Y-125341083D01*
X154625181Y-125305821D01*
X154517658Y-125225944D01*
X154495500Y-125095000D01*
X154452900Y-124928823D01*
X154280717Y-124855380D01*
X153987500Y-124841000D01*
X153660205Y-124823670D01*
X153514733Y-124741929D01*
X153479682Y-124551149D01*
X153479500Y-124523500D01*
X153507228Y-124318940D01*
X153638013Y-124228020D01*
X153943261Y-124206113D01*
X153987500Y-124206000D01*
X154314796Y-124223329D01*
X154460268Y-124305070D01*
X154495319Y-124495850D01*
X154495500Y-124523500D01*
X154509976Y-124694174D01*
X154591657Y-124789237D01*
X154797929Y-124830761D01*
X155186177Y-124840816D01*
X155321000Y-124841000D01*
X155767748Y-124848916D01*
X156016820Y-124884178D01*
X156124343Y-124964055D01*
X156146500Y-125095000D01*
X156189101Y-125261176D01*
X156361284Y-125334619D01*
X156654500Y-125349000D01*
X156981796Y-125366329D01*
X157127268Y-125448070D01*
X157162319Y-125638850D01*
X157162500Y-125666500D01*
X157176976Y-125837174D01*
X157258657Y-125932237D01*
X157464929Y-125973761D01*
X157853177Y-125983816D01*
X157988000Y-125984000D01*
X158434748Y-125991916D01*
X158683820Y-126027178D01*
X158791343Y-126107055D01*
X158813500Y-126238000D01*
X158856101Y-126404176D01*
X159028284Y-126477619D01*
X159321500Y-126492000D01*
X159653853Y-126513300D01*
X159800739Y-126599391D01*
X159829500Y-126746000D01*
X159866894Y-126904729D01*
X160022163Y-126979788D01*
X160359945Y-126999903D01*
X160401000Y-127000000D01*
X160753661Y-127013159D01*
X160920748Y-127077844D01*
X160970318Y-127231863D01*
X160972500Y-127317500D01*
X161032031Y-127566471D01*
X161226500Y-127635000D01*
X161438757Y-127724802D01*
X161480500Y-127889000D01*
X166814500Y-127889000D01*
X166904303Y-127676743D01*
X167068500Y-127635000D01*
X167280757Y-127724802D01*
X167322500Y-127889000D01*
X175831500Y-127889000D01*
X175741698Y-127676743D01*
X175577500Y-127635000D01*
X175378323Y-127560586D01*
X175323500Y-127317500D01*
X171513500Y-127317500D01*
X171453970Y-127566471D01*
X171259500Y-127635000D01*
X171060323Y-127560586D01*
X171005500Y-127317500D01*
X166306500Y-127317500D01*
X166254046Y-127559182D01*
X166047511Y-127633659D01*
X165989000Y-127635000D01*
X165747318Y-127582545D01*
X165672841Y-127376010D01*
X165671500Y-127317500D01*
X165723955Y-127075817D01*
X165930490Y-127001340D01*
X165989000Y-127000000D01*
X166230683Y-127052454D01*
X166305160Y-127258989D01*
X166306500Y-127317500D01*
X171005500Y-127317500D01*
X170977773Y-127112940D01*
X170846988Y-127022020D01*
X170541740Y-127000113D01*
X170497500Y-127000000D01*
X170165148Y-126978699D01*
X170018262Y-126892608D01*
X169989500Y-126746000D01*
X169946900Y-126579823D01*
X169774717Y-126506380D01*
X169481500Y-126492000D01*
X169149148Y-126470699D01*
X169002262Y-126384608D01*
X168973500Y-126238000D01*
X165163500Y-126238000D01*
X165073698Y-126450256D01*
X164909500Y-126492000D01*
X164697244Y-126402197D01*
X164655500Y-126238000D01*
X164745303Y-126025743D01*
X164909500Y-125984000D01*
X165121757Y-126073802D01*
X165163500Y-126238000D01*
X168973500Y-126238000D01*
X168936107Y-126079270D01*
X168780838Y-126004211D01*
X168443056Y-125984096D01*
X168402000Y-125984000D01*
X168049340Y-125970840D01*
X167882253Y-125906155D01*
X167832683Y-125752136D01*
X167830500Y-125666500D01*
X167802773Y-125461940D01*
X167671988Y-125371020D01*
X167366740Y-125349113D01*
X167322500Y-125349000D01*
X166990148Y-125327699D01*
X166843262Y-125241608D01*
X166814500Y-125095000D01*
X166777107Y-124936270D01*
X166621838Y-124861211D01*
X166284056Y-124841096D01*
X166243000Y-124841000D01*
X165890340Y-124827840D01*
X165723253Y-124763155D01*
X165673683Y-124609136D01*
X165671500Y-124523500D01*
X165643773Y-124318940D01*
X165512988Y-124228020D01*
X165207740Y-124206113D01*
X165163500Y-124206000D01*
X164831148Y-124184699D01*
X164684262Y-124098608D01*
X164655500Y-123952000D01*
X164629772Y-123814539D01*
X164515170Y-123737901D01*
X164255570Y-123704817D01*
X163830000Y-123698000D01*
X163383253Y-123690083D01*
X163134181Y-123654821D01*
X163026658Y-123574944D01*
X163004500Y-123444000D01*
X158305500Y-123444000D01*
X158215698Y-123656256D01*
X158051500Y-123698000D01*
X157839244Y-123608197D01*
X157797500Y-123444000D01*
X157887303Y-123231743D01*
X158051500Y-123190000D01*
X158263757Y-123279802D01*
X158305500Y-123444000D01*
X163004500Y-123444000D01*
X162976697Y-123302135D01*
X162854561Y-123225479D01*
X162580004Y-123194669D01*
X162242500Y-123190000D01*
X161820190Y-123183277D01*
X161592185Y-123146542D01*
X161498842Y-123054942D01*
X161480517Y-122883628D01*
X161480500Y-122872500D01*
X156654500Y-122872500D01*
X156594970Y-123121471D01*
X156400500Y-123190000D01*
X156201323Y-123115586D01*
X156146500Y-122872500D01*
X150812500Y-122872500D01*
X150752970Y-123121471D01*
X150558500Y-123190000D01*
X150359323Y-123115586D01*
X150304500Y-122872500D01*
X150244970Y-122623528D01*
X150050500Y-122555000D01*
X149838244Y-122465197D01*
X149796500Y-122301000D01*
X149886303Y-122088743D01*
X150050500Y-122047000D01*
X150262757Y-122136802D01*
X150304500Y-122301000D01*
X150394303Y-122513256D01*
X150558500Y-122555000D01*
X150757678Y-122629413D01*
X150812500Y-122872500D01*
X156146500Y-122872500D01*
X156118773Y-122667940D01*
X155987988Y-122577020D01*
X155682740Y-122555113D01*
X155638500Y-122555000D01*
X155306148Y-122533699D01*
X155159262Y-122447608D01*
X155130500Y-122301000D01*
X155173101Y-122134823D01*
X155345284Y-122061380D01*
X155638500Y-122047000D01*
X155970853Y-122068300D01*
X156117739Y-122154391D01*
X156146500Y-122301000D01*
X156236303Y-122513256D01*
X156400500Y-122555000D01*
X156599678Y-122629413D01*
X156654500Y-122872500D01*
X161480500Y-122872500D01*
X161456813Y-122676577D01*
X161340380Y-122583751D01*
X161063146Y-122556212D01*
X160909000Y-122555000D01*
X160551858Y-122538380D01*
X160382976Y-122469372D01*
X160337719Y-122319246D01*
X160337500Y-122301000D01*
X160374894Y-122142270D01*
X160530163Y-122067211D01*
X160867945Y-122047096D01*
X160909000Y-122047000D01*
X161266143Y-122063619D01*
X161435025Y-122132627D01*
X161480282Y-122282753D01*
X161480500Y-122301000D01*
X161508304Y-122442864D01*
X161630440Y-122519520D01*
X161904997Y-122550330D01*
X162242500Y-122555000D01*
X162664811Y-122561722D01*
X162892816Y-122598457D01*
X162986159Y-122690057D01*
X163004484Y-122861371D01*
X163004500Y-122872500D01*
X163018976Y-123043174D01*
X163100657Y-123138237D01*
X163306929Y-123179761D01*
X163695177Y-123189816D01*
X163830000Y-123190000D01*
X164276748Y-123197916D01*
X164525820Y-123233178D01*
X164633343Y-123313055D01*
X164655500Y-123444000D01*
X164698101Y-123610176D01*
X164870284Y-123683619D01*
X165163500Y-123698000D01*
X165495853Y-123719300D01*
X165642739Y-123805391D01*
X165671500Y-123952000D01*
X165708894Y-124110729D01*
X165864163Y-124185788D01*
X166201945Y-124205903D01*
X166243000Y-124206000D01*
X166595661Y-124219159D01*
X166762748Y-124283844D01*
X166812318Y-124437863D01*
X166814500Y-124523500D01*
X166842228Y-124728059D01*
X166973013Y-124818979D01*
X167278261Y-124840886D01*
X167322500Y-124841000D01*
X167654853Y-124862300D01*
X167801739Y-124948391D01*
X167830500Y-125095000D01*
X167867894Y-125253729D01*
X168023163Y-125328788D01*
X168360945Y-125348903D01*
X168402000Y-125349000D01*
X168754661Y-125362159D01*
X168921748Y-125426844D01*
X168971318Y-125580863D01*
X168973500Y-125666500D01*
X169001228Y-125871059D01*
X169132013Y-125961979D01*
X169437261Y-125983886D01*
X169481500Y-125984000D01*
X169813853Y-126005300D01*
X169960739Y-126091391D01*
X169989500Y-126238000D01*
X170032101Y-126404176D01*
X170204284Y-126477619D01*
X170497500Y-126492000D01*
X170829853Y-126513300D01*
X170976739Y-126599391D01*
X171005500Y-126746000D01*
X171095303Y-126958256D01*
X171259500Y-127000000D01*
X171458678Y-127074413D01*
X171513500Y-127317500D01*
X175323500Y-127317500D01*
X175383031Y-127068528D01*
X175577500Y-127000000D01*
X175776678Y-127074413D01*
X175831500Y-127317500D01*
X175891031Y-127566471D01*
X176085500Y-127635000D01*
X176297757Y-127724802D01*
X176339500Y-127889000D01*
X176797580Y-127889000D01*
X176831256Y-127668908D01*
X176845865Y-127245089D01*
X176847501Y-126895276D01*
X176845910Y-126746000D01*
X174815500Y-126746000D01*
X174741087Y-126945177D01*
X174498000Y-127000000D01*
X174249029Y-126940469D01*
X174180500Y-126746000D01*
X174254914Y-126546822D01*
X174498000Y-126492000D01*
X174746972Y-126551530D01*
X174815500Y-126746000D01*
X176845910Y-126746000D01*
X176840566Y-126244948D01*
X176809813Y-125807036D01*
X176740317Y-125540113D01*
X176617154Y-125402751D01*
X176425398Y-125353523D01*
X176290449Y-125349000D01*
X175888029Y-125254929D01*
X175704500Y-125095000D01*
X175422324Y-124889956D01*
X175168464Y-124841000D01*
X174913372Y-124798735D01*
X174815500Y-124704928D01*
X174721431Y-124493156D01*
X174515389Y-124288345D01*
X174325130Y-124206000D01*
X174188721Y-124101031D01*
X174117000Y-123952000D01*
X171005500Y-123952000D01*
X170915698Y-124164256D01*
X170751500Y-124206000D01*
X170539244Y-124116197D01*
X170497500Y-123952000D01*
X170587303Y-123739743D01*
X170751500Y-123698000D01*
X170963757Y-123787802D01*
X171005500Y-123952000D01*
X174117000Y-123952000D01*
X173982219Y-123746204D01*
X173869254Y-123698000D01*
X173705681Y-123591676D01*
X173635702Y-123444000D01*
X173496734Y-123237450D01*
X173366890Y-123190000D01*
X173190461Y-123120396D01*
X173164500Y-123053928D01*
X173082074Y-122872500D01*
X168973500Y-122872500D01*
X168921046Y-123114182D01*
X168714511Y-123188659D01*
X168656000Y-123190000D01*
X168414318Y-123137545D01*
X168339841Y-122931010D01*
X168338500Y-122872500D01*
X168390955Y-122630817D01*
X168597490Y-122556340D01*
X168656000Y-122555000D01*
X168897683Y-122607454D01*
X168972160Y-122813989D01*
X168973500Y-122872500D01*
X173082074Y-122872500D01*
X173054227Y-122811207D01*
X172788510Y-122620793D01*
X172503108Y-122555000D01*
X172197229Y-122456958D01*
X172021500Y-122301000D01*
X171717228Y-122089336D01*
X171421964Y-122047000D01*
X171133643Y-122019328D01*
X171020785Y-121897703D01*
X171005500Y-121729500D01*
X159321500Y-121729500D01*
X159261970Y-121978471D01*
X159067500Y-122047000D01*
X158868323Y-121972586D01*
X158813500Y-121729500D01*
X158873031Y-121480528D01*
X159067500Y-121412000D01*
X159266678Y-121486413D01*
X159321500Y-121729500D01*
X171005500Y-121729500D01*
X171019976Y-121558825D01*
X171101657Y-121463762D01*
X171307929Y-121422238D01*
X171696177Y-121412183D01*
X171831000Y-121412000D01*
X172298420Y-121431729D01*
X172584866Y-121486444D01*
X172656500Y-121548071D01*
X172754645Y-121800301D01*
X173058865Y-121961855D01*
X173583836Y-122038580D01*
X173908871Y-122047000D01*
X174384313Y-122055746D01*
X174665430Y-122092351D01*
X174811600Y-122172359D01*
X174879000Y-122301000D01*
X175017811Y-122487995D01*
X175315603Y-122553502D01*
X175395559Y-122555000D01*
X175685907Y-122589788D01*
X175828503Y-122675126D01*
X175831500Y-122691071D01*
X175938988Y-122928446D01*
X176190852Y-123122894D01*
X176443841Y-123190000D01*
X176641904Y-123139920D01*
X176765486Y-122962175D01*
X176829159Y-122615502D01*
X176847496Y-122058639D01*
X176847501Y-122047000D01*
X176836550Y-121505284D01*
X176779902Y-121168750D01*
X176771657Y-121158000D01*
X170497500Y-121158000D01*
X170407698Y-121370256D01*
X170243500Y-121412000D01*
X170031244Y-121322197D01*
X169989500Y-121158000D01*
X170079303Y-120945743D01*
X170243500Y-120904000D01*
X170455757Y-120993802D01*
X170497500Y-121158000D01*
X176771657Y-121158000D01*
X176641863Y-120988776D01*
X176386739Y-120916741D01*
X176008413Y-120904000D01*
X175581366Y-120883487D01*
X175367288Y-120815369D01*
X175323500Y-120727087D01*
X175287603Y-120650000D01*
X169481500Y-120650000D01*
X169391698Y-120862256D01*
X169227500Y-120904000D01*
X169015244Y-120814197D01*
X168973500Y-120650000D01*
X165671500Y-120650000D01*
X165581698Y-120862256D01*
X165417500Y-120904000D01*
X165205244Y-120814197D01*
X165163500Y-120650000D01*
X165253303Y-120437743D01*
X165417500Y-120396000D01*
X165629757Y-120485802D01*
X165671500Y-120650000D01*
X168973500Y-120650000D01*
X169063303Y-120437743D01*
X169227500Y-120396000D01*
X169439757Y-120485802D01*
X169481500Y-120650000D01*
X175287603Y-120650000D01*
X175240215Y-120548239D01*
X174971795Y-120441615D01*
X174490394Y-120398110D01*
X174310881Y-120396000D01*
X173935360Y-120381128D01*
X173737812Y-120313410D01*
X173642860Y-120158188D01*
X173620349Y-120078500D01*
X173517889Y-119857617D01*
X173305260Y-119770931D01*
X173098581Y-119761000D01*
X172761092Y-119713866D01*
X172656500Y-119584087D01*
X172620603Y-119507000D01*
X165671500Y-119507000D01*
X165581698Y-119719256D01*
X165417500Y-119761000D01*
X165205244Y-119671197D01*
X165163500Y-119507000D01*
X161988500Y-119507000D01*
X161898698Y-119719256D01*
X161734500Y-119761000D01*
X161522244Y-119671197D01*
X161480500Y-119507000D01*
X161570303Y-119294743D01*
X161734500Y-119253000D01*
X161946757Y-119342802D01*
X161988500Y-119507000D01*
X165163500Y-119507000D01*
X165253303Y-119294743D01*
X165417500Y-119253000D01*
X165629757Y-119342802D01*
X165671500Y-119507000D01*
X172620603Y-119507000D01*
X172573215Y-119405239D01*
X172304795Y-119298615D01*
X171823394Y-119255110D01*
X171643881Y-119253000D01*
X171268360Y-119238128D01*
X171070812Y-119170410D01*
X170975860Y-119015188D01*
X170953349Y-118935500D01*
X164655500Y-118935500D01*
X164595970Y-119184471D01*
X164401500Y-119253000D01*
X164202323Y-119178586D01*
X164147500Y-118935500D01*
X164207031Y-118686528D01*
X164401500Y-118618000D01*
X164600678Y-118692413D01*
X164655500Y-118935500D01*
X170953349Y-118935500D01*
X170843983Y-118708291D01*
X170615881Y-118624364D01*
X170459617Y-118618000D01*
X170047853Y-118525178D01*
X169862501Y-118364000D01*
X169725116Y-118228281D01*
X169514451Y-118150672D01*
X169165747Y-118116319D01*
X168754964Y-118110000D01*
X168279246Y-118105748D01*
X168003222Y-118080561D01*
X167872598Y-118015792D01*
X167833076Y-117892794D01*
X167830500Y-117792500D01*
X160972500Y-117792500D01*
X160920046Y-118034182D01*
X160713511Y-118108659D01*
X160655000Y-118110000D01*
X160413318Y-118057545D01*
X160338841Y-117851010D01*
X160337500Y-117792500D01*
X160389955Y-117550817D01*
X160596490Y-117476340D01*
X160655000Y-117475000D01*
X160896683Y-117527454D01*
X160971160Y-117733989D01*
X160972500Y-117792500D01*
X167830500Y-117792500D01*
X167843029Y-117628832D01*
X167916884Y-117533859D01*
X168106465Y-117488708D01*
X168466174Y-117474504D01*
X168751250Y-117473055D01*
X169368372Y-117453801D01*
X169743736Y-117396596D01*
X169887286Y-117297580D01*
X169845835Y-117221000D01*
X167830500Y-117221000D01*
X167787900Y-117387176D01*
X167615717Y-117460619D01*
X167322500Y-117475000D01*
X166990148Y-117453699D01*
X166843262Y-117367608D01*
X166814500Y-117221000D01*
X166306500Y-117221000D01*
X166280772Y-117358460D01*
X166166170Y-117435098D01*
X165906570Y-117468182D01*
X165481000Y-117475000D01*
X165034253Y-117467083D01*
X164785181Y-117431821D01*
X164677658Y-117351944D01*
X164655500Y-117221000D01*
X164681229Y-117083539D01*
X164795831Y-117006901D01*
X165055431Y-116973817D01*
X165481000Y-116967000D01*
X165927748Y-116974916D01*
X166176820Y-117010178D01*
X166284343Y-117090055D01*
X166306500Y-117221000D01*
X166814500Y-117221000D01*
X166857101Y-117054823D01*
X167029284Y-116981380D01*
X167322500Y-116967000D01*
X167654853Y-116988300D01*
X167801739Y-117074391D01*
X167830500Y-117221000D01*
X169845835Y-117221000D01*
X169808967Y-117152890D01*
X169732676Y-117091964D01*
X169537542Y-116894042D01*
X169481501Y-116757021D01*
X169376120Y-116598962D01*
X169227500Y-116522500D01*
X169022143Y-116404625D01*
X168973500Y-116314370D01*
X168892591Y-116141500D01*
X163639500Y-116141500D01*
X163629589Y-116295248D01*
X163566329Y-116389081D01*
X163399433Y-116437791D01*
X163078612Y-116456166D01*
X162560000Y-116459000D01*
X162037256Y-116456084D01*
X161718222Y-116437479D01*
X161552611Y-116388391D01*
X161490133Y-116294032D01*
X161480500Y-116141500D01*
X161490412Y-115987751D01*
X161553672Y-115893918D01*
X161720568Y-115845208D01*
X162041389Y-115826833D01*
X162560000Y-115824000D01*
X163082745Y-115826915D01*
X163401779Y-115845520D01*
X163567390Y-115894608D01*
X163629868Y-115988967D01*
X163639500Y-116141500D01*
X168892591Y-116141500D01*
X168861117Y-116074255D01*
X168582411Y-115891149D01*
X168248608Y-115824000D01*
X167884418Y-115727323D01*
X167703500Y-115570000D01*
X164655500Y-115570000D01*
X164565698Y-115782256D01*
X164401500Y-115824000D01*
X164189244Y-115734197D01*
X164147500Y-115570000D01*
X164237303Y-115357743D01*
X164401500Y-115316000D01*
X164613757Y-115405802D01*
X164655500Y-115570000D01*
X167703500Y-115570000D01*
X167504588Y-115400211D01*
X167180921Y-115325618D01*
X166913464Y-115316000D01*
X166547734Y-115290146D01*
X166334630Y-115222739D01*
X166306501Y-115179928D01*
X166232941Y-114949955D01*
X165993980Y-114796456D01*
X165562197Y-114709987D01*
X164910171Y-114681108D01*
X164857492Y-114681000D01*
X164331117Y-114684671D01*
G04 #@! TD*
M02*
