M48
;DRILL file {KiCad (5.0.0-3-g5ebb6b6)} date Saturday, October 06, 2018 at 02:24:43 PM
;FORMAT={-:-/ absolute / inch / decimal}
FMAT,2
INCH,TZ
T1C0.0276
T2C0.0295
T3C0.0315
T4C0.0394
T5C0.0866
%
G90
G05
M72
T1
X4.3Y-3.2539
X4.6Y-3.2539
X4.17Y-4.0359
X4.17Y-4.3359
X3.8449Y-3.4
X3.8449Y-3.7
X4.3Y-4.446
X4.6Y-4.446
X4.3Y-4.56
X4.6Y-4.56
X4.17Y-3.4561
X4.17Y-3.7561
X3.345Y-3.8375
X3.645Y-3.8375
X3.24Y-3.755
X3.24Y-4.055
X3.345Y-3.9525
X3.645Y-3.9525
X4.3Y-3.362
X4.6Y-3.362
X4.3Y-3.47
X4.6Y-3.47
X3.8449Y-4.11
X3.8449Y-4.41
X4.92Y-3.25
X4.92Y-3.55
X4.3Y-4.332
X4.6Y-4.332
X4.71Y-3.95
X4.71Y-4.25
X3.7Y-4.11
X3.7Y-4.41
X4.92Y-4.2639
X4.92Y-4.5639
X4.71Y-3.54
X4.71Y-3.84
X3.7Y-3.4
X3.7Y-3.7
T2
X4.7417Y-4.4439
X4.7417Y-4.4939
X4.7417Y-4.5439
X4.77Y-3.2701
X4.77Y-3.3201
X4.77Y-3.3701
T3
X4.86Y-3.9
X4.9584Y-3.9
X3.4416Y-4.16
X3.54Y-4.16
X4.0074Y-3.5
X4.0074Y-3.6969
X3.99Y-3.29
X4.0884Y-3.29
X4.0074Y-4.1031
X4.0074Y-4.3
X4.0916Y-3.9
X4.19Y-3.9
X3.4469Y-4.46
X3.5453Y-4.46
X4.3Y-3.6
X4.3Y-3.7
X4.3Y-3.8
X4.3Y-3.9
X4.3Y-4.
X4.3Y-4.1
X4.3Y-4.2
X4.6Y-3.6
X4.6Y-3.7
X4.6Y-3.8
X4.6Y-3.9
X4.6Y-4.
X4.6Y-4.1
X4.6Y-4.2
X3.4469Y-3.33
X3.5453Y-3.33
X3.4416Y-3.63
X3.54Y-3.63
X3.99Y-4.5
X4.0884Y-4.5
X3.8116Y-3.91
X3.91Y-3.91
T4
X3.1Y-3.64
X3.1Y-3.74
X3.1Y-3.84
X3.1Y-3.94
X3.1Y-4.04
X3.1Y-4.14
X5.14Y-3.64
X5.14Y-3.74
X5.14Y-3.84
X5.14Y-3.94
X5.14Y-4.04
X5.14Y-4.14
T5
X5.105Y-4.53
X3.135Y-4.53
X5.105Y-3.245
X3.135Y-3.245
T0
M30
