G04 #@! TF.GenerationSoftware,KiCad,Pcbnew,(5.0.0-3-g5ebb6b6)*
G04 #@! TF.CreationDate,2018-10-06T14:24:39-07:00*
G04 #@! TF.ProjectId,Mega Amp,4D65676120416D702E6B696361645F70,v0*
G04 #@! TF.SameCoordinates,Original*
G04 #@! TF.FileFunction,Legend,Top*
G04 #@! TF.FilePolarity,Positive*
%FSLAX46Y46*%
G04 Gerber Fmt 4.6, Leading zero omitted, Abs format (unit mm)*
G04 Created by KiCad (PCBNEW (5.0.0-3-g5ebb6b6)) date Saturday, October 06, 2018 at 02:24:39 PM*
%MOMM*%
%LPD*%
G01*
G04 APERTURE LIST*
%ADD10C,0.100000*%
%ADD11C,0.125000*%
%ADD12C,0.250000*%
%ADD13C,0.200000*%
%ADD14C,0.120000*%
%ADD15C,0.150000*%
G04 APERTURE END LIST*
D10*
X128967666Y-105556000D02*
X128634333Y-105789333D01*
X128967666Y-105956000D02*
X128267666Y-105956000D01*
X128267666Y-105689333D01*
X128301000Y-105622666D01*
X128334333Y-105589333D01*
X128401000Y-105556000D01*
X128501000Y-105556000D01*
X128567666Y-105589333D01*
X128601000Y-105622666D01*
X128634333Y-105689333D01*
X128634333Y-105956000D01*
X128301000Y-104889333D02*
X128267666Y-104956000D01*
X128267666Y-105056000D01*
X128301000Y-105156000D01*
X128367666Y-105222666D01*
X128434333Y-105256000D01*
X128567666Y-105289333D01*
X128667666Y-105289333D01*
X128801000Y-105256000D01*
X128867666Y-105222666D01*
X128934333Y-105156000D01*
X128967666Y-105056000D01*
X128967666Y-104989333D01*
X128934333Y-104889333D01*
X128901000Y-104856000D01*
X128667666Y-104856000D01*
X128667666Y-104989333D01*
X128267666Y-104656000D02*
X128267666Y-104256000D01*
X128967666Y-104456000D02*
X128267666Y-104456000D01*
X128967666Y-102966000D02*
X128967666Y-103299333D01*
X128267666Y-103299333D01*
X128601000Y-102499333D02*
X128601000Y-102732666D01*
X128967666Y-102732666D02*
X128267666Y-102732666D01*
X128267666Y-102399333D01*
X128267666Y-102232666D02*
X128267666Y-101832666D01*
X128967666Y-102032666D02*
X128267666Y-102032666D01*
X128301000Y-100609333D02*
X128267666Y-100676000D01*
X128267666Y-100776000D01*
X128301000Y-100876000D01*
X128367666Y-100942666D01*
X128434333Y-100976000D01*
X128567666Y-101009333D01*
X128667666Y-101009333D01*
X128801000Y-100976000D01*
X128867666Y-100942666D01*
X128934333Y-100876000D01*
X128967666Y-100776000D01*
X128967666Y-100709333D01*
X128934333Y-100609333D01*
X128901000Y-100576000D01*
X128667666Y-100576000D01*
X128667666Y-100709333D01*
X128967666Y-100276000D02*
X128267666Y-100276000D01*
X128967666Y-99876000D01*
X128267666Y-99876000D01*
X128967666Y-99542666D02*
X128267666Y-99542666D01*
X128267666Y-99376000D01*
X128301000Y-99276000D01*
X128367666Y-99209333D01*
X128434333Y-99176000D01*
X128567666Y-99142666D01*
X128667666Y-99142666D01*
X128801000Y-99176000D01*
X128867666Y-99209333D01*
X128934333Y-99276000D01*
X128967666Y-99376000D01*
X128967666Y-99542666D01*
X128267666Y-98236000D02*
X128267666Y-98102666D01*
X128301000Y-98036000D01*
X128367666Y-97969333D01*
X128501000Y-97936000D01*
X128734333Y-97936000D01*
X128867666Y-97969333D01*
X128934333Y-98036000D01*
X128967666Y-98102666D01*
X128967666Y-98236000D01*
X128934333Y-98302666D01*
X128867666Y-98369333D01*
X128734333Y-98402666D01*
X128501000Y-98402666D01*
X128367666Y-98369333D01*
X128301000Y-98302666D01*
X128267666Y-98236000D01*
X128267666Y-97636000D02*
X128834333Y-97636000D01*
X128901000Y-97602666D01*
X128934333Y-97569333D01*
X128967666Y-97502666D01*
X128967666Y-97369333D01*
X128934333Y-97302666D01*
X128901000Y-97269333D01*
X128834333Y-97236000D01*
X128267666Y-97236000D01*
X128267666Y-97002666D02*
X128267666Y-96602666D01*
X128967666Y-96802666D02*
X128267666Y-96802666D01*
X128301000Y-92989333D02*
X128267666Y-93056000D01*
X128267666Y-93156000D01*
X128301000Y-93256000D01*
X128367666Y-93322666D01*
X128434333Y-93356000D01*
X128567666Y-93389333D01*
X128667666Y-93389333D01*
X128801000Y-93356000D01*
X128867666Y-93322666D01*
X128934333Y-93256000D01*
X128967666Y-93156000D01*
X128967666Y-93089333D01*
X128934333Y-92989333D01*
X128901000Y-92956000D01*
X128667666Y-92956000D01*
X128667666Y-93089333D01*
X128967666Y-92656000D02*
X128267666Y-92656000D01*
X128967666Y-92256000D01*
X128267666Y-92256000D01*
X128967666Y-91922666D02*
X128267666Y-91922666D01*
X128267666Y-91756000D01*
X128301000Y-91656000D01*
X128367666Y-91589333D01*
X128434333Y-91556000D01*
X128567666Y-91522666D01*
X128667666Y-91522666D01*
X128801000Y-91556000D01*
X128867666Y-91589333D01*
X128934333Y-91656000D01*
X128967666Y-91756000D01*
X128967666Y-91922666D01*
X128301000Y-95529333D02*
X128267666Y-95596000D01*
X128267666Y-95696000D01*
X128301000Y-95796000D01*
X128367666Y-95862666D01*
X128434333Y-95896000D01*
X128567666Y-95929333D01*
X128667666Y-95929333D01*
X128801000Y-95896000D01*
X128867666Y-95862666D01*
X128934333Y-95796000D01*
X128967666Y-95696000D01*
X128967666Y-95629333D01*
X128934333Y-95529333D01*
X128901000Y-95496000D01*
X128667666Y-95496000D01*
X128667666Y-95629333D01*
X128967666Y-95196000D02*
X128267666Y-95196000D01*
X128967666Y-94796000D01*
X128267666Y-94796000D01*
X128967666Y-94462666D02*
X128267666Y-94462666D01*
X128267666Y-94296000D01*
X128301000Y-94196000D01*
X128367666Y-94129333D01*
X128434333Y-94096000D01*
X128567666Y-94062666D01*
X128667666Y-94062666D01*
X128801000Y-94096000D01*
X128867666Y-94129333D01*
X128934333Y-94196000D01*
X128967666Y-94296000D01*
X128967666Y-94462666D01*
X81055333Y-100642666D02*
X81088666Y-100542666D01*
X81088666Y-100376000D01*
X81055333Y-100309333D01*
X81022000Y-100276000D01*
X80955333Y-100242666D01*
X80888666Y-100242666D01*
X80822000Y-100276000D01*
X80788666Y-100309333D01*
X80755333Y-100376000D01*
X80722000Y-100509333D01*
X80688666Y-100576000D01*
X80655333Y-100609333D01*
X80588666Y-100642666D01*
X80522000Y-100642666D01*
X80455333Y-100609333D01*
X80422000Y-100576000D01*
X80388666Y-100509333D01*
X80388666Y-100342666D01*
X80422000Y-100242666D01*
X81088666Y-99942666D02*
X80388666Y-99942666D01*
X81088666Y-99542666D01*
X80388666Y-99542666D01*
X80755333Y-98219333D02*
X81088666Y-98219333D01*
X80388666Y-98452666D02*
X80755333Y-98219333D01*
X80388666Y-97986000D01*
X81088666Y-97752666D02*
X80388666Y-97752666D01*
X80888666Y-97519333D01*
X80388666Y-97286000D01*
X81088666Y-97286000D01*
X81088666Y-96619333D02*
X81088666Y-96952666D01*
X80388666Y-96952666D01*
X80755333Y-103493000D02*
X81088666Y-103493000D01*
X80388666Y-103726333D02*
X80755333Y-103493000D01*
X80388666Y-103259666D01*
X81088666Y-103026333D02*
X80388666Y-103026333D01*
X80888666Y-102793000D01*
X80388666Y-102559666D01*
X81088666Y-102559666D01*
X81088666Y-101826333D02*
X80755333Y-102059666D01*
X81088666Y-102226333D02*
X80388666Y-102226333D01*
X80388666Y-101959666D01*
X80422000Y-101893000D01*
X80455333Y-101859666D01*
X80522000Y-101826333D01*
X80622000Y-101826333D01*
X80688666Y-101859666D01*
X80722000Y-101893000D01*
X80755333Y-101959666D01*
X80755333Y-102226333D01*
X80422000Y-95529333D02*
X80388666Y-95596000D01*
X80388666Y-95696000D01*
X80422000Y-95796000D01*
X80488666Y-95862666D01*
X80555333Y-95896000D01*
X80688666Y-95929333D01*
X80788666Y-95929333D01*
X80922000Y-95896000D01*
X80988666Y-95862666D01*
X81055333Y-95796000D01*
X81088666Y-95696000D01*
X81088666Y-95629333D01*
X81055333Y-95529333D01*
X81022000Y-95496000D01*
X80788666Y-95496000D01*
X80788666Y-95629333D01*
X81088666Y-95196000D02*
X80388666Y-95196000D01*
X81088666Y-94796000D01*
X80388666Y-94796000D01*
X81088666Y-94462666D02*
X80388666Y-94462666D01*
X80388666Y-94296000D01*
X80422000Y-94196000D01*
X80488666Y-94129333D01*
X80555333Y-94096000D01*
X80688666Y-94062666D01*
X80788666Y-94062666D01*
X80922000Y-94096000D01*
X80988666Y-94129333D01*
X81055333Y-94196000D01*
X81088666Y-94296000D01*
X81088666Y-94462666D01*
X80422000Y-105816333D02*
X80388666Y-105883000D01*
X80388666Y-105983000D01*
X80422000Y-106083000D01*
X80488666Y-106149666D01*
X80555333Y-106183000D01*
X80688666Y-106216333D01*
X80788666Y-106216333D01*
X80922000Y-106183000D01*
X80988666Y-106149666D01*
X81055333Y-106083000D01*
X81088666Y-105983000D01*
X81088666Y-105916333D01*
X81055333Y-105816333D01*
X81022000Y-105783000D01*
X80788666Y-105783000D01*
X80788666Y-105916333D01*
X81088666Y-105483000D02*
X80388666Y-105483000D01*
X81088666Y-105083000D01*
X80388666Y-105083000D01*
X81088666Y-104749666D02*
X80388666Y-104749666D01*
X80388666Y-104583000D01*
X80422000Y-104483000D01*
X80488666Y-104416333D01*
X80555333Y-104383000D01*
X80688666Y-104349666D01*
X80788666Y-104349666D01*
X80922000Y-104383000D01*
X80988666Y-104416333D01*
X81055333Y-104483000D01*
X81088666Y-104583000D01*
X81088666Y-104749666D01*
X80822000Y-93322666D02*
X80822000Y-92789333D01*
X81088666Y-93056000D02*
X80555333Y-93056000D01*
X80388666Y-92122666D02*
X80388666Y-92456000D01*
X80722000Y-92489333D01*
X80688666Y-92456000D01*
X80655333Y-92389333D01*
X80655333Y-92222666D01*
X80688666Y-92156000D01*
X80722000Y-92122666D01*
X80788666Y-92089333D01*
X80955333Y-92089333D01*
X81022000Y-92122666D01*
X81055333Y-92156000D01*
X81088666Y-92222666D01*
X81088666Y-92389333D01*
X81055333Y-92456000D01*
X81022000Y-92489333D01*
X80622000Y-91856000D02*
X81088666Y-91689333D01*
X80622000Y-91522666D01*
D11*
X77458285Y-107691071D02*
X77434476Y-107714880D01*
X77363047Y-107738690D01*
X77315428Y-107738690D01*
X77244000Y-107714880D01*
X77196380Y-107667261D01*
X77172571Y-107619642D01*
X77148761Y-107524404D01*
X77148761Y-107452976D01*
X77172571Y-107357738D01*
X77196380Y-107310119D01*
X77244000Y-107262500D01*
X77315428Y-107238690D01*
X77363047Y-107238690D01*
X77434476Y-107262500D01*
X77458285Y-107286309D01*
X77958285Y-107691071D02*
X77934476Y-107714880D01*
X77863047Y-107738690D01*
X77815428Y-107738690D01*
X77744000Y-107714880D01*
X77696380Y-107667261D01*
X77672571Y-107619642D01*
X77648761Y-107524404D01*
X77648761Y-107452976D01*
X77672571Y-107357738D01*
X77696380Y-107310119D01*
X77744000Y-107262500D01*
X77815428Y-107238690D01*
X77863047Y-107238690D01*
X77934476Y-107262500D01*
X77958285Y-107286309D01*
X78720190Y-107476785D02*
X78791619Y-107500595D01*
X78815428Y-107524404D01*
X78839238Y-107572023D01*
X78839238Y-107643452D01*
X78815428Y-107691071D01*
X78791619Y-107714880D01*
X78744000Y-107738690D01*
X78553523Y-107738690D01*
X78553523Y-107238690D01*
X78720190Y-107238690D01*
X78767809Y-107262500D01*
X78791619Y-107286309D01*
X78815428Y-107333928D01*
X78815428Y-107381547D01*
X78791619Y-107429166D01*
X78767809Y-107452976D01*
X78720190Y-107476785D01*
X78553523Y-107476785D01*
X79148761Y-107500595D02*
X79148761Y-107738690D01*
X78982095Y-107238690D02*
X79148761Y-107500595D01*
X79315428Y-107238690D01*
X80077333Y-107405357D02*
X80077333Y-107738690D01*
X79958285Y-107214880D02*
X79839238Y-107572023D01*
X80148761Y-107572023D01*
X80339238Y-107691071D02*
X80363047Y-107714880D01*
X80339238Y-107738690D01*
X80315428Y-107714880D01*
X80339238Y-107691071D01*
X80339238Y-107738690D01*
X80672571Y-107238690D02*
X80720190Y-107238690D01*
X80767809Y-107262500D01*
X80791619Y-107286309D01*
X80815428Y-107333928D01*
X80839238Y-107429166D01*
X80839238Y-107548214D01*
X80815428Y-107643452D01*
X80791619Y-107691071D01*
X80767809Y-107714880D01*
X80720190Y-107738690D01*
X80672571Y-107738690D01*
X80624952Y-107714880D01*
X80601142Y-107691071D01*
X80577333Y-107643452D01*
X80553523Y-107548214D01*
X80553523Y-107429166D01*
X80577333Y-107333928D01*
X80601142Y-107286309D01*
X80624952Y-107262500D01*
X80672571Y-107238690D01*
X77029714Y-108280357D02*
X77220190Y-108280357D01*
X77101142Y-108113690D02*
X77101142Y-108542261D01*
X77124952Y-108589880D01*
X77172571Y-108613690D01*
X77220190Y-108613690D01*
X77386857Y-108613690D02*
X77386857Y-108113690D01*
X77601142Y-108613690D02*
X77601142Y-108351785D01*
X77577333Y-108304166D01*
X77529714Y-108280357D01*
X77458285Y-108280357D01*
X77410666Y-108304166D01*
X77386857Y-108327976D01*
X78029714Y-108589880D02*
X77982095Y-108613690D01*
X77886857Y-108613690D01*
X77839238Y-108589880D01*
X77815428Y-108542261D01*
X77815428Y-108351785D01*
X77839238Y-108304166D01*
X77886857Y-108280357D01*
X77982095Y-108280357D01*
X78029714Y-108304166D01*
X78053523Y-108351785D01*
X78053523Y-108399404D01*
X77815428Y-108447023D01*
X78482095Y-108613690D02*
X78482095Y-108351785D01*
X78458285Y-108304166D01*
X78410666Y-108280357D01*
X78315428Y-108280357D01*
X78267809Y-108304166D01*
X78482095Y-108589880D02*
X78434476Y-108613690D01*
X78315428Y-108613690D01*
X78267809Y-108589880D01*
X78244000Y-108542261D01*
X78244000Y-108494642D01*
X78267809Y-108447023D01*
X78315428Y-108423214D01*
X78434476Y-108423214D01*
X78482095Y-108399404D01*
X78720190Y-108566071D02*
X78744000Y-108589880D01*
X78720190Y-108613690D01*
X78696380Y-108589880D01*
X78720190Y-108566071D01*
X78720190Y-108613690D01*
X79172571Y-108589880D02*
X79124952Y-108613690D01*
X79029714Y-108613690D01*
X78982095Y-108589880D01*
X78958285Y-108566071D01*
X78934476Y-108518452D01*
X78934476Y-108375595D01*
X78958285Y-108327976D01*
X78982095Y-108304166D01*
X79029714Y-108280357D01*
X79124952Y-108280357D01*
X79172571Y-108304166D01*
X79458285Y-108613690D02*
X79410666Y-108589880D01*
X79386857Y-108566071D01*
X79363047Y-108518452D01*
X79363047Y-108375595D01*
X79386857Y-108327976D01*
X79410666Y-108304166D01*
X79458285Y-108280357D01*
X79529714Y-108280357D01*
X79577333Y-108304166D01*
X79601142Y-108327976D01*
X79624952Y-108375595D01*
X79624952Y-108518452D01*
X79601142Y-108566071D01*
X79577333Y-108589880D01*
X79529714Y-108613690D01*
X79458285Y-108613690D01*
X80053523Y-108613690D02*
X80053523Y-108113690D01*
X80053523Y-108589880D02*
X80005904Y-108613690D01*
X79910666Y-108613690D01*
X79863047Y-108589880D01*
X79839238Y-108566071D01*
X79815428Y-108518452D01*
X79815428Y-108375595D01*
X79839238Y-108327976D01*
X79863047Y-108304166D01*
X79910666Y-108280357D01*
X80005904Y-108280357D01*
X80053523Y-108304166D01*
X80482095Y-108589880D02*
X80434476Y-108613690D01*
X80339238Y-108613690D01*
X80291619Y-108589880D01*
X80267809Y-108542261D01*
X80267809Y-108351785D01*
X80291619Y-108304166D01*
X80339238Y-108280357D01*
X80434476Y-108280357D01*
X80482095Y-108304166D01*
X80505904Y-108351785D01*
X80505904Y-108399404D01*
X80267809Y-108447023D01*
X80696380Y-108589880D02*
X80744000Y-108613690D01*
X80839238Y-108613690D01*
X80886857Y-108589880D01*
X80910666Y-108542261D01*
X80910666Y-108518452D01*
X80886857Y-108470833D01*
X80839238Y-108447023D01*
X80767809Y-108447023D01*
X80720190Y-108423214D01*
X80696380Y-108375595D01*
X80696380Y-108351785D01*
X80720190Y-108304166D01*
X80767809Y-108280357D01*
X80839238Y-108280357D01*
X80886857Y-108304166D01*
D12*
X82966404Y-79891000D02*
X82871166Y-79843380D01*
X82728309Y-79843380D01*
X82585452Y-79891000D01*
X82490214Y-79986238D01*
X82442595Y-80081476D01*
X82394976Y-80271952D01*
X82394976Y-80414809D01*
X82442595Y-80605285D01*
X82490214Y-80700523D01*
X82585452Y-80795761D01*
X82728309Y-80843380D01*
X82823547Y-80843380D01*
X82966404Y-80795761D01*
X83014023Y-80748142D01*
X83014023Y-80414809D01*
X82823547Y-80414809D01*
X83823547Y-80795761D02*
X83728309Y-80843380D01*
X83537833Y-80843380D01*
X83442595Y-80795761D01*
X83394976Y-80700523D01*
X83394976Y-80319571D01*
X83442595Y-80224333D01*
X83537833Y-80176714D01*
X83728309Y-80176714D01*
X83823547Y-80224333D01*
X83871166Y-80319571D01*
X83871166Y-80414809D01*
X83394976Y-80510047D01*
X84299738Y-80176714D02*
X84299738Y-80843380D01*
X84299738Y-80271952D02*
X84347357Y-80224333D01*
X84442595Y-80176714D01*
X84585452Y-80176714D01*
X84680690Y-80224333D01*
X84728309Y-80319571D01*
X84728309Y-80843380D01*
X85585452Y-80795761D02*
X85490214Y-80843380D01*
X85299738Y-80843380D01*
X85204500Y-80795761D01*
X85156880Y-80700523D01*
X85156880Y-80319571D01*
X85204500Y-80224333D01*
X85299738Y-80176714D01*
X85490214Y-80176714D01*
X85585452Y-80224333D01*
X85633071Y-80319571D01*
X85633071Y-80414809D01*
X85156880Y-80510047D01*
X86014023Y-80795761D02*
X86156880Y-80843380D01*
X86394976Y-80843380D01*
X86490214Y-80795761D01*
X86537833Y-80748142D01*
X86585452Y-80652904D01*
X86585452Y-80557666D01*
X86537833Y-80462428D01*
X86490214Y-80414809D01*
X86394976Y-80367190D01*
X86204500Y-80319571D01*
X86109261Y-80271952D01*
X86061642Y-80224333D01*
X86014023Y-80129095D01*
X86014023Y-80033857D01*
X86061642Y-79938619D01*
X86109261Y-79891000D01*
X86204500Y-79843380D01*
X86442595Y-79843380D01*
X86585452Y-79891000D01*
X86918785Y-80176714D02*
X87156880Y-80843380D01*
X87394976Y-80176714D02*
X87156880Y-80843380D01*
X87061642Y-81081476D01*
X87014023Y-81129095D01*
X86918785Y-81176714D01*
X87775928Y-80176714D02*
X87775928Y-80843380D01*
X87775928Y-80271952D02*
X87823547Y-80224333D01*
X87918785Y-80176714D01*
X88061642Y-80176714D01*
X88156880Y-80224333D01*
X88204500Y-80319571D01*
X88204500Y-80843380D01*
X88537833Y-80176714D02*
X88918785Y-80176714D01*
X88680690Y-79843380D02*
X88680690Y-80700523D01*
X88728309Y-80795761D01*
X88823547Y-80843380D01*
X88918785Y-80843380D01*
X89252119Y-80843380D02*
X89252119Y-79843380D01*
X89680690Y-80843380D02*
X89680690Y-80319571D01*
X89633071Y-80224333D01*
X89537833Y-80176714D01*
X89394976Y-80176714D01*
X89299738Y-80224333D01*
X89252119Y-80271952D01*
X90871166Y-80557666D02*
X91347357Y-80557666D01*
X90775928Y-80843380D02*
X91109261Y-79843380D01*
X91442595Y-80843380D01*
X92204500Y-80176714D02*
X92204500Y-80843380D01*
X91775928Y-80176714D02*
X91775928Y-80700523D01*
X91823547Y-80795761D01*
X91918785Y-80843380D01*
X92061642Y-80843380D01*
X92156880Y-80795761D01*
X92204500Y-80748142D01*
X93109261Y-80843380D02*
X93109261Y-79843380D01*
X93109261Y-80795761D02*
X93014023Y-80843380D01*
X92823547Y-80843380D01*
X92728309Y-80795761D01*
X92680690Y-80748142D01*
X92633071Y-80652904D01*
X92633071Y-80367190D01*
X92680690Y-80271952D01*
X92728309Y-80224333D01*
X92823547Y-80176714D01*
X93014023Y-80176714D01*
X93109261Y-80224333D01*
X93585452Y-80843380D02*
X93585452Y-80176714D01*
X93585452Y-79843380D02*
X93537833Y-79891000D01*
X93585452Y-79938619D01*
X93633071Y-79891000D01*
X93585452Y-79843380D01*
X93585452Y-79938619D01*
X94204500Y-80843380D02*
X94109261Y-80795761D01*
X94061642Y-80748142D01*
X94014023Y-80652904D01*
X94014023Y-80367190D01*
X94061642Y-80271952D01*
X94109261Y-80224333D01*
X94204500Y-80176714D01*
X94347357Y-80176714D01*
X94442595Y-80224333D01*
X94490214Y-80271952D01*
X94537833Y-80367190D01*
X94537833Y-80652904D01*
X94490214Y-80748142D01*
X94442595Y-80795761D01*
X94347357Y-80843380D01*
X94204500Y-80843380D01*
X95680690Y-80557666D02*
X96156880Y-80557666D01*
X95585452Y-80843380D02*
X95918785Y-79843380D01*
X96252119Y-80843380D01*
X96585452Y-80843380D02*
X96585452Y-80176714D01*
X96585452Y-80271952D02*
X96633071Y-80224333D01*
X96728309Y-80176714D01*
X96871166Y-80176714D01*
X96966404Y-80224333D01*
X97014023Y-80319571D01*
X97014023Y-80843380D01*
X97014023Y-80319571D02*
X97061642Y-80224333D01*
X97156880Y-80176714D01*
X97299738Y-80176714D01*
X97394976Y-80224333D01*
X97442595Y-80319571D01*
X97442595Y-80843380D01*
X97918785Y-80176714D02*
X97918785Y-81176714D01*
X97918785Y-80224333D02*
X98014023Y-80176714D01*
X98204500Y-80176714D01*
X98299738Y-80224333D01*
X98347357Y-80271952D01*
X98394976Y-80367190D01*
X98394976Y-80652904D01*
X98347357Y-80748142D01*
X98299738Y-80795761D01*
X98204500Y-80843380D01*
X98014023Y-80843380D01*
X97918785Y-80795761D01*
D13*
X107823000Y-86360000D02*
X105156000Y-86360000D01*
X107823000Y-89535000D02*
X107823000Y-86360000D01*
X118237000Y-89535000D02*
X107823000Y-89535000D01*
X118237000Y-88646000D02*
X118237000Y-89535000D01*
X121285000Y-88646000D02*
X118237000Y-88646000D01*
X121285000Y-91567000D02*
X121285000Y-88646000D01*
X107823000Y-111506000D02*
X104902000Y-111506000D01*
X107823000Y-108585000D02*
X107823000Y-111506000D01*
X118237000Y-108585000D02*
X107823000Y-108585000D01*
X118237000Y-109347000D02*
X118237000Y-108585000D01*
X121285000Y-109347000D02*
X118237000Y-109347000D01*
X121285000Y-106807000D02*
X121285000Y-109347000D01*
X126365000Y-117475000D02*
X104775000Y-117475000D01*
X126492000Y-106807000D02*
X121285000Y-106807000D01*
X126492000Y-117475000D02*
X126492000Y-106807000D01*
X126746000Y-91567000D02*
X121285000Y-91567000D01*
X126746000Y-81026000D02*
X126746000Y-91440000D01*
X105537000Y-81026000D02*
X126619000Y-81026000D01*
D14*
G04 #@! TO.C,R13*
X110160000Y-88138000D02*
X111110000Y-88138000D01*
X115900000Y-88138000D02*
X114950000Y-88138000D01*
X111110000Y-89058000D02*
X114950000Y-89058000D01*
X111110000Y-87218000D02*
X111110000Y-89058000D01*
X114950000Y-87218000D02*
X111110000Y-87218000D01*
X114950000Y-89058000D02*
X114950000Y-87218000D01*
G04 #@! TO.C,R14*
X114950000Y-83570000D02*
X114950000Y-81730000D01*
X114950000Y-81730000D02*
X111110000Y-81730000D01*
X111110000Y-81730000D02*
X111110000Y-83570000D01*
X111110000Y-83570000D02*
X114950000Y-83570000D01*
X115900000Y-82650000D02*
X114950000Y-82650000D01*
X110160000Y-82650000D02*
X111110000Y-82650000D01*
G04 #@! TO.C,R15*
X124968000Y-89230000D02*
X124968000Y-88280000D01*
X124968000Y-83490000D02*
X124968000Y-84440000D01*
X125888000Y-88280000D02*
X125888000Y-84440000D01*
X124048000Y-88280000D02*
X125888000Y-88280000D01*
X124048000Y-84440000D02*
X124048000Y-88280000D01*
X125888000Y-84440000D02*
X124048000Y-84440000D01*
G04 #@! TO.C,R16*
X115900000Y-112928400D02*
X114950000Y-112928400D01*
X110160000Y-112928400D02*
X111110000Y-112928400D01*
X114950000Y-112008400D02*
X111110000Y-112008400D01*
X114950000Y-113848400D02*
X114950000Y-112008400D01*
X111110000Y-113848400D02*
X114950000Y-113848400D01*
X111110000Y-112008400D02*
X111110000Y-113848400D01*
G04 #@! TO.C,R17*
X114950000Y-110952800D02*
X114950000Y-109112800D01*
X114950000Y-109112800D02*
X111110000Y-109112800D01*
X111110000Y-109112800D02*
X111110000Y-110952800D01*
X111110000Y-110952800D02*
X114950000Y-110952800D01*
X115900000Y-110032800D02*
X114950000Y-110032800D01*
X110160000Y-110032800D02*
X111110000Y-110032800D01*
G04 #@! TO.C,R18*
X110160000Y-115824000D02*
X111110000Y-115824000D01*
X115900000Y-115824000D02*
X114950000Y-115824000D01*
X111110000Y-116744000D02*
X114950000Y-116744000D01*
X111110000Y-114904000D02*
X111110000Y-116744000D01*
X114950000Y-114904000D02*
X111110000Y-114904000D01*
X114950000Y-116744000D02*
X114950000Y-114904000D01*
G04 #@! TO.C,R19*
X124048000Y-114034000D02*
X125888000Y-114034000D01*
X125888000Y-114034000D02*
X125888000Y-110194000D01*
X125888000Y-110194000D02*
X124048000Y-110194000D01*
X124048000Y-110194000D02*
X124048000Y-114034000D01*
X124968000Y-114984000D02*
X124968000Y-114034000D01*
X124968000Y-109244000D02*
X124968000Y-110194000D01*
G04 #@! TO.C,C1*
X85616000Y-82428000D02*
X85616000Y-83058000D01*
X85301000Y-82743000D02*
X85931000Y-82743000D01*
X92042241Y-84180000D02*
X92042241Y-84984000D01*
X92002241Y-83949000D02*
X92002241Y-85215000D01*
X91962241Y-83780000D02*
X91962241Y-85384000D01*
X91922241Y-83642000D02*
X91922241Y-85522000D01*
X91882241Y-83523000D02*
X91882241Y-85641000D01*
X91842241Y-83417000D02*
X91842241Y-85747000D01*
X91802241Y-83320000D02*
X91802241Y-85844000D01*
X91762241Y-83232000D02*
X91762241Y-85932000D01*
X91722241Y-83150000D02*
X91722241Y-86014000D01*
X91682241Y-83073000D02*
X91682241Y-86091000D01*
X91642241Y-83001000D02*
X91642241Y-86163000D01*
X91602241Y-82932000D02*
X91602241Y-86232000D01*
X91562241Y-82868000D02*
X91562241Y-86296000D01*
X91522241Y-82806000D02*
X91522241Y-86358000D01*
X91482241Y-82748000D02*
X91482241Y-86416000D01*
X91442241Y-82692000D02*
X91442241Y-86472000D01*
X91402241Y-82638000D02*
X91402241Y-86526000D01*
X91362241Y-82587000D02*
X91362241Y-86577000D01*
X91322241Y-82538000D02*
X91322241Y-86626000D01*
X91282241Y-82490000D02*
X91282241Y-86674000D01*
X91242241Y-82445000D02*
X91242241Y-86719000D01*
X91202241Y-82400000D02*
X91202241Y-86764000D01*
X91162241Y-82358000D02*
X91162241Y-86806000D01*
X91122241Y-82317000D02*
X91122241Y-86847000D01*
X91082241Y-85622000D02*
X91082241Y-86887000D01*
X91082241Y-82277000D02*
X91082241Y-83542000D01*
X91042241Y-85622000D02*
X91042241Y-86925000D01*
X91042241Y-82239000D02*
X91042241Y-83542000D01*
X91002241Y-85622000D02*
X91002241Y-86962000D01*
X91002241Y-82202000D02*
X91002241Y-83542000D01*
X90962241Y-85622000D02*
X90962241Y-86998000D01*
X90962241Y-82166000D02*
X90962241Y-83542000D01*
X90922241Y-85622000D02*
X90922241Y-87032000D01*
X90922241Y-82132000D02*
X90922241Y-83542000D01*
X90882241Y-85622000D02*
X90882241Y-87066000D01*
X90882241Y-82098000D02*
X90882241Y-83542000D01*
X90842241Y-85622000D02*
X90842241Y-87098000D01*
X90842241Y-82066000D02*
X90842241Y-83542000D01*
X90802241Y-85622000D02*
X90802241Y-87130000D01*
X90802241Y-82034000D02*
X90802241Y-83542000D01*
X90762241Y-85622000D02*
X90762241Y-87160000D01*
X90762241Y-82004000D02*
X90762241Y-83542000D01*
X90722241Y-85622000D02*
X90722241Y-87189000D01*
X90722241Y-81975000D02*
X90722241Y-83542000D01*
X90682241Y-85622000D02*
X90682241Y-87218000D01*
X90682241Y-81946000D02*
X90682241Y-83542000D01*
X90642241Y-85622000D02*
X90642241Y-87246000D01*
X90642241Y-81918000D02*
X90642241Y-83542000D01*
X90602241Y-85622000D02*
X90602241Y-87272000D01*
X90602241Y-81892000D02*
X90602241Y-83542000D01*
X90562241Y-85622000D02*
X90562241Y-87298000D01*
X90562241Y-81866000D02*
X90562241Y-83542000D01*
X90522241Y-85622000D02*
X90522241Y-87324000D01*
X90522241Y-81840000D02*
X90522241Y-83542000D01*
X90482241Y-85622000D02*
X90482241Y-87348000D01*
X90482241Y-81816000D02*
X90482241Y-83542000D01*
X90442241Y-85622000D02*
X90442241Y-87372000D01*
X90442241Y-81792000D02*
X90442241Y-83542000D01*
X90402241Y-85622000D02*
X90402241Y-87394000D01*
X90402241Y-81770000D02*
X90402241Y-83542000D01*
X90362241Y-85622000D02*
X90362241Y-87416000D01*
X90362241Y-81748000D02*
X90362241Y-83542000D01*
X90322241Y-85622000D02*
X90322241Y-87438000D01*
X90322241Y-81726000D02*
X90322241Y-83542000D01*
X90282241Y-85622000D02*
X90282241Y-87458000D01*
X90282241Y-81706000D02*
X90282241Y-83542000D01*
X90242241Y-85622000D02*
X90242241Y-87478000D01*
X90242241Y-81686000D02*
X90242241Y-83542000D01*
X90202241Y-85622000D02*
X90202241Y-87498000D01*
X90202241Y-81666000D02*
X90202241Y-83542000D01*
X90162241Y-85622000D02*
X90162241Y-87516000D01*
X90162241Y-81648000D02*
X90162241Y-83542000D01*
X90122241Y-85622000D02*
X90122241Y-87534000D01*
X90122241Y-81630000D02*
X90122241Y-83542000D01*
X90082241Y-85622000D02*
X90082241Y-87552000D01*
X90082241Y-81612000D02*
X90082241Y-83542000D01*
X90042241Y-85622000D02*
X90042241Y-87568000D01*
X90042241Y-81596000D02*
X90042241Y-83542000D01*
X90002241Y-85622000D02*
X90002241Y-87584000D01*
X90002241Y-81580000D02*
X90002241Y-83542000D01*
X89962241Y-85622000D02*
X89962241Y-87600000D01*
X89962241Y-81564000D02*
X89962241Y-83542000D01*
X89922241Y-85622000D02*
X89922241Y-87615000D01*
X89922241Y-81549000D02*
X89922241Y-83542000D01*
X89882241Y-85622000D02*
X89882241Y-87629000D01*
X89882241Y-81535000D02*
X89882241Y-83542000D01*
X89842241Y-85622000D02*
X89842241Y-87643000D01*
X89842241Y-81521000D02*
X89842241Y-83542000D01*
X89802241Y-85622000D02*
X89802241Y-87656000D01*
X89802241Y-81508000D02*
X89802241Y-83542000D01*
X89762241Y-85622000D02*
X89762241Y-87668000D01*
X89762241Y-81496000D02*
X89762241Y-83542000D01*
X89722241Y-85622000D02*
X89722241Y-87680000D01*
X89722241Y-81484000D02*
X89722241Y-83542000D01*
X89682241Y-85622000D02*
X89682241Y-87692000D01*
X89682241Y-81472000D02*
X89682241Y-83542000D01*
X89642241Y-85622000D02*
X89642241Y-87703000D01*
X89642241Y-81461000D02*
X89642241Y-83542000D01*
X89602241Y-85622000D02*
X89602241Y-87713000D01*
X89602241Y-81451000D02*
X89602241Y-83542000D01*
X89562241Y-85622000D02*
X89562241Y-87723000D01*
X89562241Y-81441000D02*
X89562241Y-83542000D01*
X89522241Y-85622000D02*
X89522241Y-87732000D01*
X89522241Y-81432000D02*
X89522241Y-83542000D01*
X89481241Y-85622000D02*
X89481241Y-87741000D01*
X89481241Y-81423000D02*
X89481241Y-83542000D01*
X89441241Y-85622000D02*
X89441241Y-87749000D01*
X89441241Y-81415000D02*
X89441241Y-83542000D01*
X89401241Y-85622000D02*
X89401241Y-87757000D01*
X89401241Y-81407000D02*
X89401241Y-83542000D01*
X89361241Y-85622000D02*
X89361241Y-87764000D01*
X89361241Y-81400000D02*
X89361241Y-83542000D01*
X89321241Y-85622000D02*
X89321241Y-87771000D01*
X89321241Y-81393000D02*
X89321241Y-83542000D01*
X89281241Y-85622000D02*
X89281241Y-87777000D01*
X89281241Y-81387000D02*
X89281241Y-83542000D01*
X89241241Y-85622000D02*
X89241241Y-87783000D01*
X89241241Y-81381000D02*
X89241241Y-83542000D01*
X89201241Y-85622000D02*
X89201241Y-87788000D01*
X89201241Y-81376000D02*
X89201241Y-83542000D01*
X89161241Y-85622000D02*
X89161241Y-87793000D01*
X89161241Y-81371000D02*
X89161241Y-83542000D01*
X89121241Y-85622000D02*
X89121241Y-87797000D01*
X89121241Y-81367000D02*
X89121241Y-83542000D01*
X89081241Y-85622000D02*
X89081241Y-87800000D01*
X89081241Y-81364000D02*
X89081241Y-83542000D01*
X89041241Y-85622000D02*
X89041241Y-87804000D01*
X89041241Y-81360000D02*
X89041241Y-83542000D01*
X89001241Y-81358000D02*
X89001241Y-87806000D01*
X88961241Y-81355000D02*
X88961241Y-87809000D01*
X88921241Y-81354000D02*
X88921241Y-87810000D01*
X88881241Y-81352000D02*
X88881241Y-87812000D01*
X88841241Y-81352000D02*
X88841241Y-87812000D01*
X88801241Y-81352000D02*
X88801241Y-87812000D01*
X92071241Y-84582000D02*
G75*
G03X92071241Y-84582000I-3270000J0D01*
G01*
G04 #@! TO.C,C2*
X91936000Y-92202400D02*
G75*
G03X91936000Y-92202400I-3270000J0D01*
G01*
X88666000Y-95432400D02*
X88666000Y-88972400D01*
X88626000Y-95432400D02*
X88626000Y-88972400D01*
X88586000Y-95432400D02*
X88586000Y-88972400D01*
X88546000Y-95430400D02*
X88546000Y-88974400D01*
X88506000Y-95429400D02*
X88506000Y-88975400D01*
X88466000Y-95426400D02*
X88466000Y-88978400D01*
X88426000Y-95424400D02*
X88426000Y-93242400D01*
X88426000Y-91162400D02*
X88426000Y-88980400D01*
X88386000Y-95420400D02*
X88386000Y-93242400D01*
X88386000Y-91162400D02*
X88386000Y-88984400D01*
X88346000Y-95417400D02*
X88346000Y-93242400D01*
X88346000Y-91162400D02*
X88346000Y-88987400D01*
X88306000Y-95413400D02*
X88306000Y-93242400D01*
X88306000Y-91162400D02*
X88306000Y-88991400D01*
X88266000Y-95408400D02*
X88266000Y-93242400D01*
X88266000Y-91162400D02*
X88266000Y-88996400D01*
X88226000Y-95403400D02*
X88226000Y-93242400D01*
X88226000Y-91162400D02*
X88226000Y-89001400D01*
X88186000Y-95397400D02*
X88186000Y-93242400D01*
X88186000Y-91162400D02*
X88186000Y-89007400D01*
X88146000Y-95391400D02*
X88146000Y-93242400D01*
X88146000Y-91162400D02*
X88146000Y-89013400D01*
X88106000Y-95384400D02*
X88106000Y-93242400D01*
X88106000Y-91162400D02*
X88106000Y-89020400D01*
X88066000Y-95377400D02*
X88066000Y-93242400D01*
X88066000Y-91162400D02*
X88066000Y-89027400D01*
X88026000Y-95369400D02*
X88026000Y-93242400D01*
X88026000Y-91162400D02*
X88026000Y-89035400D01*
X87986000Y-95361400D02*
X87986000Y-93242400D01*
X87986000Y-91162400D02*
X87986000Y-89043400D01*
X87945000Y-95352400D02*
X87945000Y-93242400D01*
X87945000Y-91162400D02*
X87945000Y-89052400D01*
X87905000Y-95343400D02*
X87905000Y-93242400D01*
X87905000Y-91162400D02*
X87905000Y-89061400D01*
X87865000Y-95333400D02*
X87865000Y-93242400D01*
X87865000Y-91162400D02*
X87865000Y-89071400D01*
X87825000Y-95323400D02*
X87825000Y-93242400D01*
X87825000Y-91162400D02*
X87825000Y-89081400D01*
X87785000Y-95312400D02*
X87785000Y-93242400D01*
X87785000Y-91162400D02*
X87785000Y-89092400D01*
X87745000Y-95300400D02*
X87745000Y-93242400D01*
X87745000Y-91162400D02*
X87745000Y-89104400D01*
X87705000Y-95288400D02*
X87705000Y-93242400D01*
X87705000Y-91162400D02*
X87705000Y-89116400D01*
X87665000Y-95276400D02*
X87665000Y-93242400D01*
X87665000Y-91162400D02*
X87665000Y-89128400D01*
X87625000Y-95263400D02*
X87625000Y-93242400D01*
X87625000Y-91162400D02*
X87625000Y-89141400D01*
X87585000Y-95249400D02*
X87585000Y-93242400D01*
X87585000Y-91162400D02*
X87585000Y-89155400D01*
X87545000Y-95235400D02*
X87545000Y-93242400D01*
X87545000Y-91162400D02*
X87545000Y-89169400D01*
X87505000Y-95220400D02*
X87505000Y-93242400D01*
X87505000Y-91162400D02*
X87505000Y-89184400D01*
X87465000Y-95204400D02*
X87465000Y-93242400D01*
X87465000Y-91162400D02*
X87465000Y-89200400D01*
X87425000Y-95188400D02*
X87425000Y-93242400D01*
X87425000Y-91162400D02*
X87425000Y-89216400D01*
X87385000Y-95172400D02*
X87385000Y-93242400D01*
X87385000Y-91162400D02*
X87385000Y-89232400D01*
X87345000Y-95154400D02*
X87345000Y-93242400D01*
X87345000Y-91162400D02*
X87345000Y-89250400D01*
X87305000Y-95136400D02*
X87305000Y-93242400D01*
X87305000Y-91162400D02*
X87305000Y-89268400D01*
X87265000Y-95118400D02*
X87265000Y-93242400D01*
X87265000Y-91162400D02*
X87265000Y-89286400D01*
X87225000Y-95098400D02*
X87225000Y-93242400D01*
X87225000Y-91162400D02*
X87225000Y-89306400D01*
X87185000Y-95078400D02*
X87185000Y-93242400D01*
X87185000Y-91162400D02*
X87185000Y-89326400D01*
X87145000Y-95058400D02*
X87145000Y-93242400D01*
X87145000Y-91162400D02*
X87145000Y-89346400D01*
X87105000Y-95036400D02*
X87105000Y-93242400D01*
X87105000Y-91162400D02*
X87105000Y-89368400D01*
X87065000Y-95014400D02*
X87065000Y-93242400D01*
X87065000Y-91162400D02*
X87065000Y-89390400D01*
X87025000Y-94992400D02*
X87025000Y-93242400D01*
X87025000Y-91162400D02*
X87025000Y-89412400D01*
X86985000Y-94968400D02*
X86985000Y-93242400D01*
X86985000Y-91162400D02*
X86985000Y-89436400D01*
X86945000Y-94944400D02*
X86945000Y-93242400D01*
X86945000Y-91162400D02*
X86945000Y-89460400D01*
X86905000Y-94918400D02*
X86905000Y-93242400D01*
X86905000Y-91162400D02*
X86905000Y-89486400D01*
X86865000Y-94892400D02*
X86865000Y-93242400D01*
X86865000Y-91162400D02*
X86865000Y-89512400D01*
X86825000Y-94866400D02*
X86825000Y-93242400D01*
X86825000Y-91162400D02*
X86825000Y-89538400D01*
X86785000Y-94838400D02*
X86785000Y-93242400D01*
X86785000Y-91162400D02*
X86785000Y-89566400D01*
X86745000Y-94809400D02*
X86745000Y-93242400D01*
X86745000Y-91162400D02*
X86745000Y-89595400D01*
X86705000Y-94780400D02*
X86705000Y-93242400D01*
X86705000Y-91162400D02*
X86705000Y-89624400D01*
X86665000Y-94750400D02*
X86665000Y-93242400D01*
X86665000Y-91162400D02*
X86665000Y-89654400D01*
X86625000Y-94718400D02*
X86625000Y-93242400D01*
X86625000Y-91162400D02*
X86625000Y-89686400D01*
X86585000Y-94686400D02*
X86585000Y-93242400D01*
X86585000Y-91162400D02*
X86585000Y-89718400D01*
X86545000Y-94652400D02*
X86545000Y-93242400D01*
X86545000Y-91162400D02*
X86545000Y-89752400D01*
X86505000Y-94618400D02*
X86505000Y-93242400D01*
X86505000Y-91162400D02*
X86505000Y-89786400D01*
X86465000Y-94582400D02*
X86465000Y-93242400D01*
X86465000Y-91162400D02*
X86465000Y-89822400D01*
X86425000Y-94545400D02*
X86425000Y-93242400D01*
X86425000Y-91162400D02*
X86425000Y-89859400D01*
X86385000Y-94507400D02*
X86385000Y-93242400D01*
X86385000Y-91162400D02*
X86385000Y-89897400D01*
X86345000Y-94467400D02*
X86345000Y-89937400D01*
X86305000Y-94426400D02*
X86305000Y-89978400D01*
X86265000Y-94384400D02*
X86265000Y-90020400D01*
X86225000Y-94339400D02*
X86225000Y-90065400D01*
X86185000Y-94294400D02*
X86185000Y-90110400D01*
X86145000Y-94246400D02*
X86145000Y-90158400D01*
X86105000Y-94197400D02*
X86105000Y-90207400D01*
X86065000Y-94146400D02*
X86065000Y-90258400D01*
X86025000Y-94092400D02*
X86025000Y-90312400D01*
X85985000Y-94036400D02*
X85985000Y-90368400D01*
X85945000Y-93978400D02*
X85945000Y-90426400D01*
X85905000Y-93916400D02*
X85905000Y-90488400D01*
X85865000Y-93852400D02*
X85865000Y-90552400D01*
X85825000Y-93783400D02*
X85825000Y-90621400D01*
X85785000Y-93711400D02*
X85785000Y-90693400D01*
X85745000Y-93634400D02*
X85745000Y-90770400D01*
X85705000Y-93552400D02*
X85705000Y-90852400D01*
X85665000Y-93464400D02*
X85665000Y-90940400D01*
X85625000Y-93367400D02*
X85625000Y-91037400D01*
X85585000Y-93261400D02*
X85585000Y-91143400D01*
X85545000Y-93142400D02*
X85545000Y-91262400D01*
X85505000Y-93004400D02*
X85505000Y-91400400D01*
X85465000Y-92835400D02*
X85465000Y-91569400D01*
X85425000Y-92604400D02*
X85425000Y-91800400D01*
X92166241Y-94041400D02*
X91536241Y-94041400D01*
X91851241Y-94356400D02*
X91851241Y-93726400D01*
G04 #@! TO.C,C3*
X91936000Y-105663600D02*
G75*
G03X91936000Y-105663600I-3270000J0D01*
G01*
X88666000Y-108893600D02*
X88666000Y-102433600D01*
X88626000Y-108893600D02*
X88626000Y-102433600D01*
X88586000Y-108893600D02*
X88586000Y-102433600D01*
X88546000Y-108891600D02*
X88546000Y-102435600D01*
X88506000Y-108890600D02*
X88506000Y-102436600D01*
X88466000Y-108887600D02*
X88466000Y-102439600D01*
X88426000Y-108885600D02*
X88426000Y-106703600D01*
X88426000Y-104623600D02*
X88426000Y-102441600D01*
X88386000Y-108881600D02*
X88386000Y-106703600D01*
X88386000Y-104623600D02*
X88386000Y-102445600D01*
X88346000Y-108878600D02*
X88346000Y-106703600D01*
X88346000Y-104623600D02*
X88346000Y-102448600D01*
X88306000Y-108874600D02*
X88306000Y-106703600D01*
X88306000Y-104623600D02*
X88306000Y-102452600D01*
X88266000Y-108869600D02*
X88266000Y-106703600D01*
X88266000Y-104623600D02*
X88266000Y-102457600D01*
X88226000Y-108864600D02*
X88226000Y-106703600D01*
X88226000Y-104623600D02*
X88226000Y-102462600D01*
X88186000Y-108858600D02*
X88186000Y-106703600D01*
X88186000Y-104623600D02*
X88186000Y-102468600D01*
X88146000Y-108852600D02*
X88146000Y-106703600D01*
X88146000Y-104623600D02*
X88146000Y-102474600D01*
X88106000Y-108845600D02*
X88106000Y-106703600D01*
X88106000Y-104623600D02*
X88106000Y-102481600D01*
X88066000Y-108838600D02*
X88066000Y-106703600D01*
X88066000Y-104623600D02*
X88066000Y-102488600D01*
X88026000Y-108830600D02*
X88026000Y-106703600D01*
X88026000Y-104623600D02*
X88026000Y-102496600D01*
X87986000Y-108822600D02*
X87986000Y-106703600D01*
X87986000Y-104623600D02*
X87986000Y-102504600D01*
X87945000Y-108813600D02*
X87945000Y-106703600D01*
X87945000Y-104623600D02*
X87945000Y-102513600D01*
X87905000Y-108804600D02*
X87905000Y-106703600D01*
X87905000Y-104623600D02*
X87905000Y-102522600D01*
X87865000Y-108794600D02*
X87865000Y-106703600D01*
X87865000Y-104623600D02*
X87865000Y-102532600D01*
X87825000Y-108784600D02*
X87825000Y-106703600D01*
X87825000Y-104623600D02*
X87825000Y-102542600D01*
X87785000Y-108773600D02*
X87785000Y-106703600D01*
X87785000Y-104623600D02*
X87785000Y-102553600D01*
X87745000Y-108761600D02*
X87745000Y-106703600D01*
X87745000Y-104623600D02*
X87745000Y-102565600D01*
X87705000Y-108749600D02*
X87705000Y-106703600D01*
X87705000Y-104623600D02*
X87705000Y-102577600D01*
X87665000Y-108737600D02*
X87665000Y-106703600D01*
X87665000Y-104623600D02*
X87665000Y-102589600D01*
X87625000Y-108724600D02*
X87625000Y-106703600D01*
X87625000Y-104623600D02*
X87625000Y-102602600D01*
X87585000Y-108710600D02*
X87585000Y-106703600D01*
X87585000Y-104623600D02*
X87585000Y-102616600D01*
X87545000Y-108696600D02*
X87545000Y-106703600D01*
X87545000Y-104623600D02*
X87545000Y-102630600D01*
X87505000Y-108681600D02*
X87505000Y-106703600D01*
X87505000Y-104623600D02*
X87505000Y-102645600D01*
X87465000Y-108665600D02*
X87465000Y-106703600D01*
X87465000Y-104623600D02*
X87465000Y-102661600D01*
X87425000Y-108649600D02*
X87425000Y-106703600D01*
X87425000Y-104623600D02*
X87425000Y-102677600D01*
X87385000Y-108633600D02*
X87385000Y-106703600D01*
X87385000Y-104623600D02*
X87385000Y-102693600D01*
X87345000Y-108615600D02*
X87345000Y-106703600D01*
X87345000Y-104623600D02*
X87345000Y-102711600D01*
X87305000Y-108597600D02*
X87305000Y-106703600D01*
X87305000Y-104623600D02*
X87305000Y-102729600D01*
X87265000Y-108579600D02*
X87265000Y-106703600D01*
X87265000Y-104623600D02*
X87265000Y-102747600D01*
X87225000Y-108559600D02*
X87225000Y-106703600D01*
X87225000Y-104623600D02*
X87225000Y-102767600D01*
X87185000Y-108539600D02*
X87185000Y-106703600D01*
X87185000Y-104623600D02*
X87185000Y-102787600D01*
X87145000Y-108519600D02*
X87145000Y-106703600D01*
X87145000Y-104623600D02*
X87145000Y-102807600D01*
X87105000Y-108497600D02*
X87105000Y-106703600D01*
X87105000Y-104623600D02*
X87105000Y-102829600D01*
X87065000Y-108475600D02*
X87065000Y-106703600D01*
X87065000Y-104623600D02*
X87065000Y-102851600D01*
X87025000Y-108453600D02*
X87025000Y-106703600D01*
X87025000Y-104623600D02*
X87025000Y-102873600D01*
X86985000Y-108429600D02*
X86985000Y-106703600D01*
X86985000Y-104623600D02*
X86985000Y-102897600D01*
X86945000Y-108405600D02*
X86945000Y-106703600D01*
X86945000Y-104623600D02*
X86945000Y-102921600D01*
X86905000Y-108379600D02*
X86905000Y-106703600D01*
X86905000Y-104623600D02*
X86905000Y-102947600D01*
X86865000Y-108353600D02*
X86865000Y-106703600D01*
X86865000Y-104623600D02*
X86865000Y-102973600D01*
X86825000Y-108327600D02*
X86825000Y-106703600D01*
X86825000Y-104623600D02*
X86825000Y-102999600D01*
X86785000Y-108299600D02*
X86785000Y-106703600D01*
X86785000Y-104623600D02*
X86785000Y-103027600D01*
X86745000Y-108270600D02*
X86745000Y-106703600D01*
X86745000Y-104623600D02*
X86745000Y-103056600D01*
X86705000Y-108241600D02*
X86705000Y-106703600D01*
X86705000Y-104623600D02*
X86705000Y-103085600D01*
X86665000Y-108211600D02*
X86665000Y-106703600D01*
X86665000Y-104623600D02*
X86665000Y-103115600D01*
X86625000Y-108179600D02*
X86625000Y-106703600D01*
X86625000Y-104623600D02*
X86625000Y-103147600D01*
X86585000Y-108147600D02*
X86585000Y-106703600D01*
X86585000Y-104623600D02*
X86585000Y-103179600D01*
X86545000Y-108113600D02*
X86545000Y-106703600D01*
X86545000Y-104623600D02*
X86545000Y-103213600D01*
X86505000Y-108079600D02*
X86505000Y-106703600D01*
X86505000Y-104623600D02*
X86505000Y-103247600D01*
X86465000Y-108043600D02*
X86465000Y-106703600D01*
X86465000Y-104623600D02*
X86465000Y-103283600D01*
X86425000Y-108006600D02*
X86425000Y-106703600D01*
X86425000Y-104623600D02*
X86425000Y-103320600D01*
X86385000Y-107968600D02*
X86385000Y-106703600D01*
X86385000Y-104623600D02*
X86385000Y-103358600D01*
X86345000Y-107928600D02*
X86345000Y-103398600D01*
X86305000Y-107887600D02*
X86305000Y-103439600D01*
X86265000Y-107845600D02*
X86265000Y-103481600D01*
X86225000Y-107800600D02*
X86225000Y-103526600D01*
X86185000Y-107755600D02*
X86185000Y-103571600D01*
X86145000Y-107707600D02*
X86145000Y-103619600D01*
X86105000Y-107658600D02*
X86105000Y-103668600D01*
X86065000Y-107607600D02*
X86065000Y-103719600D01*
X86025000Y-107553600D02*
X86025000Y-103773600D01*
X85985000Y-107497600D02*
X85985000Y-103829600D01*
X85945000Y-107439600D02*
X85945000Y-103887600D01*
X85905000Y-107377600D02*
X85905000Y-103949600D01*
X85865000Y-107313600D02*
X85865000Y-104013600D01*
X85825000Y-107244600D02*
X85825000Y-104082600D01*
X85785000Y-107172600D02*
X85785000Y-104154600D01*
X85745000Y-107095600D02*
X85745000Y-104231600D01*
X85705000Y-107013600D02*
X85705000Y-104313600D01*
X85665000Y-106925600D02*
X85665000Y-104401600D01*
X85625000Y-106828600D02*
X85625000Y-104498600D01*
X85585000Y-106722600D02*
X85585000Y-104604600D01*
X85545000Y-106603600D02*
X85545000Y-104723600D01*
X85505000Y-106465600D02*
X85505000Y-104861600D01*
X85465000Y-106296600D02*
X85465000Y-105030600D01*
X85425000Y-106065600D02*
X85425000Y-105261600D01*
X92166241Y-107502600D02*
X91536241Y-107502600D01*
X91851241Y-107817600D02*
X91851241Y-107187600D01*
G04 #@! TO.C,C4*
X85616000Y-111130000D02*
X85616000Y-111760000D01*
X85301000Y-111445000D02*
X85931000Y-111445000D01*
X92042241Y-112882000D02*
X92042241Y-113686000D01*
X92002241Y-112651000D02*
X92002241Y-113917000D01*
X91962241Y-112482000D02*
X91962241Y-114086000D01*
X91922241Y-112344000D02*
X91922241Y-114224000D01*
X91882241Y-112225000D02*
X91882241Y-114343000D01*
X91842241Y-112119000D02*
X91842241Y-114449000D01*
X91802241Y-112022000D02*
X91802241Y-114546000D01*
X91762241Y-111934000D02*
X91762241Y-114634000D01*
X91722241Y-111852000D02*
X91722241Y-114716000D01*
X91682241Y-111775000D02*
X91682241Y-114793000D01*
X91642241Y-111703000D02*
X91642241Y-114865000D01*
X91602241Y-111634000D02*
X91602241Y-114934000D01*
X91562241Y-111570000D02*
X91562241Y-114998000D01*
X91522241Y-111508000D02*
X91522241Y-115060000D01*
X91482241Y-111450000D02*
X91482241Y-115118000D01*
X91442241Y-111394000D02*
X91442241Y-115174000D01*
X91402241Y-111340000D02*
X91402241Y-115228000D01*
X91362241Y-111289000D02*
X91362241Y-115279000D01*
X91322241Y-111240000D02*
X91322241Y-115328000D01*
X91282241Y-111192000D02*
X91282241Y-115376000D01*
X91242241Y-111147000D02*
X91242241Y-115421000D01*
X91202241Y-111102000D02*
X91202241Y-115466000D01*
X91162241Y-111060000D02*
X91162241Y-115508000D01*
X91122241Y-111019000D02*
X91122241Y-115549000D01*
X91082241Y-114324000D02*
X91082241Y-115589000D01*
X91082241Y-110979000D02*
X91082241Y-112244000D01*
X91042241Y-114324000D02*
X91042241Y-115627000D01*
X91042241Y-110941000D02*
X91042241Y-112244000D01*
X91002241Y-114324000D02*
X91002241Y-115664000D01*
X91002241Y-110904000D02*
X91002241Y-112244000D01*
X90962241Y-114324000D02*
X90962241Y-115700000D01*
X90962241Y-110868000D02*
X90962241Y-112244000D01*
X90922241Y-114324000D02*
X90922241Y-115734000D01*
X90922241Y-110834000D02*
X90922241Y-112244000D01*
X90882241Y-114324000D02*
X90882241Y-115768000D01*
X90882241Y-110800000D02*
X90882241Y-112244000D01*
X90842241Y-114324000D02*
X90842241Y-115800000D01*
X90842241Y-110768000D02*
X90842241Y-112244000D01*
X90802241Y-114324000D02*
X90802241Y-115832000D01*
X90802241Y-110736000D02*
X90802241Y-112244000D01*
X90762241Y-114324000D02*
X90762241Y-115862000D01*
X90762241Y-110706000D02*
X90762241Y-112244000D01*
X90722241Y-114324000D02*
X90722241Y-115891000D01*
X90722241Y-110677000D02*
X90722241Y-112244000D01*
X90682241Y-114324000D02*
X90682241Y-115920000D01*
X90682241Y-110648000D02*
X90682241Y-112244000D01*
X90642241Y-114324000D02*
X90642241Y-115948000D01*
X90642241Y-110620000D02*
X90642241Y-112244000D01*
X90602241Y-114324000D02*
X90602241Y-115974000D01*
X90602241Y-110594000D02*
X90602241Y-112244000D01*
X90562241Y-114324000D02*
X90562241Y-116000000D01*
X90562241Y-110568000D02*
X90562241Y-112244000D01*
X90522241Y-114324000D02*
X90522241Y-116026000D01*
X90522241Y-110542000D02*
X90522241Y-112244000D01*
X90482241Y-114324000D02*
X90482241Y-116050000D01*
X90482241Y-110518000D02*
X90482241Y-112244000D01*
X90442241Y-114324000D02*
X90442241Y-116074000D01*
X90442241Y-110494000D02*
X90442241Y-112244000D01*
X90402241Y-114324000D02*
X90402241Y-116096000D01*
X90402241Y-110472000D02*
X90402241Y-112244000D01*
X90362241Y-114324000D02*
X90362241Y-116118000D01*
X90362241Y-110450000D02*
X90362241Y-112244000D01*
X90322241Y-114324000D02*
X90322241Y-116140000D01*
X90322241Y-110428000D02*
X90322241Y-112244000D01*
X90282241Y-114324000D02*
X90282241Y-116160000D01*
X90282241Y-110408000D02*
X90282241Y-112244000D01*
X90242241Y-114324000D02*
X90242241Y-116180000D01*
X90242241Y-110388000D02*
X90242241Y-112244000D01*
X90202241Y-114324000D02*
X90202241Y-116200000D01*
X90202241Y-110368000D02*
X90202241Y-112244000D01*
X90162241Y-114324000D02*
X90162241Y-116218000D01*
X90162241Y-110350000D02*
X90162241Y-112244000D01*
X90122241Y-114324000D02*
X90122241Y-116236000D01*
X90122241Y-110332000D02*
X90122241Y-112244000D01*
X90082241Y-114324000D02*
X90082241Y-116254000D01*
X90082241Y-110314000D02*
X90082241Y-112244000D01*
X90042241Y-114324000D02*
X90042241Y-116270000D01*
X90042241Y-110298000D02*
X90042241Y-112244000D01*
X90002241Y-114324000D02*
X90002241Y-116286000D01*
X90002241Y-110282000D02*
X90002241Y-112244000D01*
X89962241Y-114324000D02*
X89962241Y-116302000D01*
X89962241Y-110266000D02*
X89962241Y-112244000D01*
X89922241Y-114324000D02*
X89922241Y-116317000D01*
X89922241Y-110251000D02*
X89922241Y-112244000D01*
X89882241Y-114324000D02*
X89882241Y-116331000D01*
X89882241Y-110237000D02*
X89882241Y-112244000D01*
X89842241Y-114324000D02*
X89842241Y-116345000D01*
X89842241Y-110223000D02*
X89842241Y-112244000D01*
X89802241Y-114324000D02*
X89802241Y-116358000D01*
X89802241Y-110210000D02*
X89802241Y-112244000D01*
X89762241Y-114324000D02*
X89762241Y-116370000D01*
X89762241Y-110198000D02*
X89762241Y-112244000D01*
X89722241Y-114324000D02*
X89722241Y-116382000D01*
X89722241Y-110186000D02*
X89722241Y-112244000D01*
X89682241Y-114324000D02*
X89682241Y-116394000D01*
X89682241Y-110174000D02*
X89682241Y-112244000D01*
X89642241Y-114324000D02*
X89642241Y-116405000D01*
X89642241Y-110163000D02*
X89642241Y-112244000D01*
X89602241Y-114324000D02*
X89602241Y-116415000D01*
X89602241Y-110153000D02*
X89602241Y-112244000D01*
X89562241Y-114324000D02*
X89562241Y-116425000D01*
X89562241Y-110143000D02*
X89562241Y-112244000D01*
X89522241Y-114324000D02*
X89522241Y-116434000D01*
X89522241Y-110134000D02*
X89522241Y-112244000D01*
X89481241Y-114324000D02*
X89481241Y-116443000D01*
X89481241Y-110125000D02*
X89481241Y-112244000D01*
X89441241Y-114324000D02*
X89441241Y-116451000D01*
X89441241Y-110117000D02*
X89441241Y-112244000D01*
X89401241Y-114324000D02*
X89401241Y-116459000D01*
X89401241Y-110109000D02*
X89401241Y-112244000D01*
X89361241Y-114324000D02*
X89361241Y-116466000D01*
X89361241Y-110102000D02*
X89361241Y-112244000D01*
X89321241Y-114324000D02*
X89321241Y-116473000D01*
X89321241Y-110095000D02*
X89321241Y-112244000D01*
X89281241Y-114324000D02*
X89281241Y-116479000D01*
X89281241Y-110089000D02*
X89281241Y-112244000D01*
X89241241Y-114324000D02*
X89241241Y-116485000D01*
X89241241Y-110083000D02*
X89241241Y-112244000D01*
X89201241Y-114324000D02*
X89201241Y-116490000D01*
X89201241Y-110078000D02*
X89201241Y-112244000D01*
X89161241Y-114324000D02*
X89161241Y-116495000D01*
X89161241Y-110073000D02*
X89161241Y-112244000D01*
X89121241Y-114324000D02*
X89121241Y-116499000D01*
X89121241Y-110069000D02*
X89121241Y-112244000D01*
X89081241Y-114324000D02*
X89081241Y-116502000D01*
X89081241Y-110066000D02*
X89081241Y-112244000D01*
X89041241Y-114324000D02*
X89041241Y-116506000D01*
X89041241Y-110062000D02*
X89041241Y-112244000D01*
X89001241Y-110060000D02*
X89001241Y-116508000D01*
X88961241Y-110057000D02*
X88961241Y-116511000D01*
X88921241Y-110056000D02*
X88921241Y-116512000D01*
X88881241Y-110054000D02*
X88881241Y-116514000D01*
X88841241Y-110054000D02*
X88841241Y-116514000D01*
X88801241Y-110054000D02*
X88801241Y-116514000D01*
X92071241Y-113284000D02*
G75*
G03X92071241Y-113284000I-3270000J0D01*
G01*
G04 #@! TO.C,C5*
X101334000Y-99314000D02*
G75*
G03X101334000Y-99314000I-3270000J0D01*
G01*
X98064000Y-102544000D02*
X98064000Y-96084000D01*
X98024000Y-102544000D02*
X98024000Y-96084000D01*
X97984000Y-102544000D02*
X97984000Y-96084000D01*
X97944000Y-102542000D02*
X97944000Y-96086000D01*
X97904000Y-102541000D02*
X97904000Y-96087000D01*
X97864000Y-102538000D02*
X97864000Y-96090000D01*
X97824000Y-102536000D02*
X97824000Y-100354000D01*
X97824000Y-98274000D02*
X97824000Y-96092000D01*
X97784000Y-102532000D02*
X97784000Y-100354000D01*
X97784000Y-98274000D02*
X97784000Y-96096000D01*
X97744000Y-102529000D02*
X97744000Y-100354000D01*
X97744000Y-98274000D02*
X97744000Y-96099000D01*
X97704000Y-102525000D02*
X97704000Y-100354000D01*
X97704000Y-98274000D02*
X97704000Y-96103000D01*
X97664000Y-102520000D02*
X97664000Y-100354000D01*
X97664000Y-98274000D02*
X97664000Y-96108000D01*
X97624000Y-102515000D02*
X97624000Y-100354000D01*
X97624000Y-98274000D02*
X97624000Y-96113000D01*
X97584000Y-102509000D02*
X97584000Y-100354000D01*
X97584000Y-98274000D02*
X97584000Y-96119000D01*
X97544000Y-102503000D02*
X97544000Y-100354000D01*
X97544000Y-98274000D02*
X97544000Y-96125000D01*
X97504000Y-102496000D02*
X97504000Y-100354000D01*
X97504000Y-98274000D02*
X97504000Y-96132000D01*
X97464000Y-102489000D02*
X97464000Y-100354000D01*
X97464000Y-98274000D02*
X97464000Y-96139000D01*
X97424000Y-102481000D02*
X97424000Y-100354000D01*
X97424000Y-98274000D02*
X97424000Y-96147000D01*
X97384000Y-102473000D02*
X97384000Y-100354000D01*
X97384000Y-98274000D02*
X97384000Y-96155000D01*
X97343000Y-102464000D02*
X97343000Y-100354000D01*
X97343000Y-98274000D02*
X97343000Y-96164000D01*
X97303000Y-102455000D02*
X97303000Y-100354000D01*
X97303000Y-98274000D02*
X97303000Y-96173000D01*
X97263000Y-102445000D02*
X97263000Y-100354000D01*
X97263000Y-98274000D02*
X97263000Y-96183000D01*
X97223000Y-102435000D02*
X97223000Y-100354000D01*
X97223000Y-98274000D02*
X97223000Y-96193000D01*
X97183000Y-102424000D02*
X97183000Y-100354000D01*
X97183000Y-98274000D02*
X97183000Y-96204000D01*
X97143000Y-102412000D02*
X97143000Y-100354000D01*
X97143000Y-98274000D02*
X97143000Y-96216000D01*
X97103000Y-102400000D02*
X97103000Y-100354000D01*
X97103000Y-98274000D02*
X97103000Y-96228000D01*
X97063000Y-102388000D02*
X97063000Y-100354000D01*
X97063000Y-98274000D02*
X97063000Y-96240000D01*
X97023000Y-102375000D02*
X97023000Y-100354000D01*
X97023000Y-98274000D02*
X97023000Y-96253000D01*
X96983000Y-102361000D02*
X96983000Y-100354000D01*
X96983000Y-98274000D02*
X96983000Y-96267000D01*
X96943000Y-102347000D02*
X96943000Y-100354000D01*
X96943000Y-98274000D02*
X96943000Y-96281000D01*
X96903000Y-102332000D02*
X96903000Y-100354000D01*
X96903000Y-98274000D02*
X96903000Y-96296000D01*
X96863000Y-102316000D02*
X96863000Y-100354000D01*
X96863000Y-98274000D02*
X96863000Y-96312000D01*
X96823000Y-102300000D02*
X96823000Y-100354000D01*
X96823000Y-98274000D02*
X96823000Y-96328000D01*
X96783000Y-102284000D02*
X96783000Y-100354000D01*
X96783000Y-98274000D02*
X96783000Y-96344000D01*
X96743000Y-102266000D02*
X96743000Y-100354000D01*
X96743000Y-98274000D02*
X96743000Y-96362000D01*
X96703000Y-102248000D02*
X96703000Y-100354000D01*
X96703000Y-98274000D02*
X96703000Y-96380000D01*
X96663000Y-102230000D02*
X96663000Y-100354000D01*
X96663000Y-98274000D02*
X96663000Y-96398000D01*
X96623000Y-102210000D02*
X96623000Y-100354000D01*
X96623000Y-98274000D02*
X96623000Y-96418000D01*
X96583000Y-102190000D02*
X96583000Y-100354000D01*
X96583000Y-98274000D02*
X96583000Y-96438000D01*
X96543000Y-102170000D02*
X96543000Y-100354000D01*
X96543000Y-98274000D02*
X96543000Y-96458000D01*
X96503000Y-102148000D02*
X96503000Y-100354000D01*
X96503000Y-98274000D02*
X96503000Y-96480000D01*
X96463000Y-102126000D02*
X96463000Y-100354000D01*
X96463000Y-98274000D02*
X96463000Y-96502000D01*
X96423000Y-102104000D02*
X96423000Y-100354000D01*
X96423000Y-98274000D02*
X96423000Y-96524000D01*
X96383000Y-102080000D02*
X96383000Y-100354000D01*
X96383000Y-98274000D02*
X96383000Y-96548000D01*
X96343000Y-102056000D02*
X96343000Y-100354000D01*
X96343000Y-98274000D02*
X96343000Y-96572000D01*
X96303000Y-102030000D02*
X96303000Y-100354000D01*
X96303000Y-98274000D02*
X96303000Y-96598000D01*
X96263000Y-102004000D02*
X96263000Y-100354000D01*
X96263000Y-98274000D02*
X96263000Y-96624000D01*
X96223000Y-101978000D02*
X96223000Y-100354000D01*
X96223000Y-98274000D02*
X96223000Y-96650000D01*
X96183000Y-101950000D02*
X96183000Y-100354000D01*
X96183000Y-98274000D02*
X96183000Y-96678000D01*
X96143000Y-101921000D02*
X96143000Y-100354000D01*
X96143000Y-98274000D02*
X96143000Y-96707000D01*
X96103000Y-101892000D02*
X96103000Y-100354000D01*
X96103000Y-98274000D02*
X96103000Y-96736000D01*
X96063000Y-101862000D02*
X96063000Y-100354000D01*
X96063000Y-98274000D02*
X96063000Y-96766000D01*
X96023000Y-101830000D02*
X96023000Y-100354000D01*
X96023000Y-98274000D02*
X96023000Y-96798000D01*
X95983000Y-101798000D02*
X95983000Y-100354000D01*
X95983000Y-98274000D02*
X95983000Y-96830000D01*
X95943000Y-101764000D02*
X95943000Y-100354000D01*
X95943000Y-98274000D02*
X95943000Y-96864000D01*
X95903000Y-101730000D02*
X95903000Y-100354000D01*
X95903000Y-98274000D02*
X95903000Y-96898000D01*
X95863000Y-101694000D02*
X95863000Y-100354000D01*
X95863000Y-98274000D02*
X95863000Y-96934000D01*
X95823000Y-101657000D02*
X95823000Y-100354000D01*
X95823000Y-98274000D02*
X95823000Y-96971000D01*
X95783000Y-101619000D02*
X95783000Y-100354000D01*
X95783000Y-98274000D02*
X95783000Y-97009000D01*
X95743000Y-101579000D02*
X95743000Y-97049000D01*
X95703000Y-101538000D02*
X95703000Y-97090000D01*
X95663000Y-101496000D02*
X95663000Y-97132000D01*
X95623000Y-101451000D02*
X95623000Y-97177000D01*
X95583000Y-101406000D02*
X95583000Y-97222000D01*
X95543000Y-101358000D02*
X95543000Y-97270000D01*
X95503000Y-101309000D02*
X95503000Y-97319000D01*
X95463000Y-101258000D02*
X95463000Y-97370000D01*
X95423000Y-101204000D02*
X95423000Y-97424000D01*
X95383000Y-101148000D02*
X95383000Y-97480000D01*
X95343000Y-101090000D02*
X95343000Y-97538000D01*
X95303000Y-101028000D02*
X95303000Y-97600000D01*
X95263000Y-100964000D02*
X95263000Y-97664000D01*
X95223000Y-100895000D02*
X95223000Y-97733000D01*
X95183000Y-100823000D02*
X95183000Y-97805000D01*
X95143000Y-100746000D02*
X95143000Y-97882000D01*
X95103000Y-100664000D02*
X95103000Y-97964000D01*
X95063000Y-100576000D02*
X95063000Y-98052000D01*
X95023000Y-100479000D02*
X95023000Y-98149000D01*
X94983000Y-100373000D02*
X94983000Y-98255000D01*
X94943000Y-100254000D02*
X94943000Y-98374000D01*
X94903000Y-100116000D02*
X94903000Y-98512000D01*
X94863000Y-99947000D02*
X94863000Y-98681000D01*
X94823000Y-99716000D02*
X94823000Y-98912000D01*
X101564241Y-101153000D02*
X100934241Y-101153000D01*
X101249241Y-101468000D02*
X101249241Y-100838000D01*
G04 #@! TO.C,C6*
X100863666Y-94520000D02*
X100418666Y-94520000D01*
X103158666Y-94520000D02*
X102713666Y-94520000D01*
X100863666Y-88280000D02*
X100418666Y-88280000D01*
X103158666Y-88280000D02*
X102713666Y-88280000D01*
X100418666Y-88280000D02*
X100418666Y-94520000D01*
X103158666Y-88280000D02*
X103158666Y-94520000D01*
G04 #@! TO.C,C7*
X100418666Y-109840000D02*
X100418666Y-103600000D01*
X103158666Y-109840000D02*
X103158666Y-103600000D01*
X100418666Y-109840000D02*
X100863666Y-109840000D01*
X102713666Y-109840000D02*
X103158666Y-109840000D01*
X100418666Y-103600000D02*
X100863666Y-103600000D01*
X102713666Y-103600000D02*
X103158666Y-103600000D01*
G04 #@! TO.C,C8*
X127964000Y-99060000D02*
G75*
G03X127964000Y-99060000I-3270000J0D01*
G01*
X124694000Y-95830000D02*
X124694000Y-102290000D01*
X124734000Y-95830000D02*
X124734000Y-102290000D01*
X124774000Y-95830000D02*
X124774000Y-102290000D01*
X124814000Y-95832000D02*
X124814000Y-102288000D01*
X124854000Y-95833000D02*
X124854000Y-102287000D01*
X124894000Y-95836000D02*
X124894000Y-102284000D01*
X124934000Y-95838000D02*
X124934000Y-98020000D01*
X124934000Y-100100000D02*
X124934000Y-102282000D01*
X124974000Y-95842000D02*
X124974000Y-98020000D01*
X124974000Y-100100000D02*
X124974000Y-102278000D01*
X125014000Y-95845000D02*
X125014000Y-98020000D01*
X125014000Y-100100000D02*
X125014000Y-102275000D01*
X125054000Y-95849000D02*
X125054000Y-98020000D01*
X125054000Y-100100000D02*
X125054000Y-102271000D01*
X125094000Y-95854000D02*
X125094000Y-98020000D01*
X125094000Y-100100000D02*
X125094000Y-102266000D01*
X125134000Y-95859000D02*
X125134000Y-98020000D01*
X125134000Y-100100000D02*
X125134000Y-102261000D01*
X125174000Y-95865000D02*
X125174000Y-98020000D01*
X125174000Y-100100000D02*
X125174000Y-102255000D01*
X125214000Y-95871000D02*
X125214000Y-98020000D01*
X125214000Y-100100000D02*
X125214000Y-102249000D01*
X125254000Y-95878000D02*
X125254000Y-98020000D01*
X125254000Y-100100000D02*
X125254000Y-102242000D01*
X125294000Y-95885000D02*
X125294000Y-98020000D01*
X125294000Y-100100000D02*
X125294000Y-102235000D01*
X125334000Y-95893000D02*
X125334000Y-98020000D01*
X125334000Y-100100000D02*
X125334000Y-102227000D01*
X125374000Y-95901000D02*
X125374000Y-98020000D01*
X125374000Y-100100000D02*
X125374000Y-102219000D01*
X125415000Y-95910000D02*
X125415000Y-98020000D01*
X125415000Y-100100000D02*
X125415000Y-102210000D01*
X125455000Y-95919000D02*
X125455000Y-98020000D01*
X125455000Y-100100000D02*
X125455000Y-102201000D01*
X125495000Y-95929000D02*
X125495000Y-98020000D01*
X125495000Y-100100000D02*
X125495000Y-102191000D01*
X125535000Y-95939000D02*
X125535000Y-98020000D01*
X125535000Y-100100000D02*
X125535000Y-102181000D01*
X125575000Y-95950000D02*
X125575000Y-98020000D01*
X125575000Y-100100000D02*
X125575000Y-102170000D01*
X125615000Y-95962000D02*
X125615000Y-98020000D01*
X125615000Y-100100000D02*
X125615000Y-102158000D01*
X125655000Y-95974000D02*
X125655000Y-98020000D01*
X125655000Y-100100000D02*
X125655000Y-102146000D01*
X125695000Y-95986000D02*
X125695000Y-98020000D01*
X125695000Y-100100000D02*
X125695000Y-102134000D01*
X125735000Y-95999000D02*
X125735000Y-98020000D01*
X125735000Y-100100000D02*
X125735000Y-102121000D01*
X125775000Y-96013000D02*
X125775000Y-98020000D01*
X125775000Y-100100000D02*
X125775000Y-102107000D01*
X125815000Y-96027000D02*
X125815000Y-98020000D01*
X125815000Y-100100000D02*
X125815000Y-102093000D01*
X125855000Y-96042000D02*
X125855000Y-98020000D01*
X125855000Y-100100000D02*
X125855000Y-102078000D01*
X125895000Y-96058000D02*
X125895000Y-98020000D01*
X125895000Y-100100000D02*
X125895000Y-102062000D01*
X125935000Y-96074000D02*
X125935000Y-98020000D01*
X125935000Y-100100000D02*
X125935000Y-102046000D01*
X125975000Y-96090000D02*
X125975000Y-98020000D01*
X125975000Y-100100000D02*
X125975000Y-102030000D01*
X126015000Y-96108000D02*
X126015000Y-98020000D01*
X126015000Y-100100000D02*
X126015000Y-102012000D01*
X126055000Y-96126000D02*
X126055000Y-98020000D01*
X126055000Y-100100000D02*
X126055000Y-101994000D01*
X126095000Y-96144000D02*
X126095000Y-98020000D01*
X126095000Y-100100000D02*
X126095000Y-101976000D01*
X126135000Y-96164000D02*
X126135000Y-98020000D01*
X126135000Y-100100000D02*
X126135000Y-101956000D01*
X126175000Y-96184000D02*
X126175000Y-98020000D01*
X126175000Y-100100000D02*
X126175000Y-101936000D01*
X126215000Y-96204000D02*
X126215000Y-98020000D01*
X126215000Y-100100000D02*
X126215000Y-101916000D01*
X126255000Y-96226000D02*
X126255000Y-98020000D01*
X126255000Y-100100000D02*
X126255000Y-101894000D01*
X126295000Y-96248000D02*
X126295000Y-98020000D01*
X126295000Y-100100000D02*
X126295000Y-101872000D01*
X126335000Y-96270000D02*
X126335000Y-98020000D01*
X126335000Y-100100000D02*
X126335000Y-101850000D01*
X126375000Y-96294000D02*
X126375000Y-98020000D01*
X126375000Y-100100000D02*
X126375000Y-101826000D01*
X126415000Y-96318000D02*
X126415000Y-98020000D01*
X126415000Y-100100000D02*
X126415000Y-101802000D01*
X126455000Y-96344000D02*
X126455000Y-98020000D01*
X126455000Y-100100000D02*
X126455000Y-101776000D01*
X126495000Y-96370000D02*
X126495000Y-98020000D01*
X126495000Y-100100000D02*
X126495000Y-101750000D01*
X126535000Y-96396000D02*
X126535000Y-98020000D01*
X126535000Y-100100000D02*
X126535000Y-101724000D01*
X126575000Y-96424000D02*
X126575000Y-98020000D01*
X126575000Y-100100000D02*
X126575000Y-101696000D01*
X126615000Y-96453000D02*
X126615000Y-98020000D01*
X126615000Y-100100000D02*
X126615000Y-101667000D01*
X126655000Y-96482000D02*
X126655000Y-98020000D01*
X126655000Y-100100000D02*
X126655000Y-101638000D01*
X126695000Y-96512000D02*
X126695000Y-98020000D01*
X126695000Y-100100000D02*
X126695000Y-101608000D01*
X126735000Y-96544000D02*
X126735000Y-98020000D01*
X126735000Y-100100000D02*
X126735000Y-101576000D01*
X126775000Y-96576000D02*
X126775000Y-98020000D01*
X126775000Y-100100000D02*
X126775000Y-101544000D01*
X126815000Y-96610000D02*
X126815000Y-98020000D01*
X126815000Y-100100000D02*
X126815000Y-101510000D01*
X126855000Y-96644000D02*
X126855000Y-98020000D01*
X126855000Y-100100000D02*
X126855000Y-101476000D01*
X126895000Y-96680000D02*
X126895000Y-98020000D01*
X126895000Y-100100000D02*
X126895000Y-101440000D01*
X126935000Y-96717000D02*
X126935000Y-98020000D01*
X126935000Y-100100000D02*
X126935000Y-101403000D01*
X126975000Y-96755000D02*
X126975000Y-98020000D01*
X126975000Y-100100000D02*
X126975000Y-101365000D01*
X127015000Y-96795000D02*
X127015000Y-101325000D01*
X127055000Y-96836000D02*
X127055000Y-101284000D01*
X127095000Y-96878000D02*
X127095000Y-101242000D01*
X127135000Y-96923000D02*
X127135000Y-101197000D01*
X127175000Y-96968000D02*
X127175000Y-101152000D01*
X127215000Y-97016000D02*
X127215000Y-101104000D01*
X127255000Y-97065000D02*
X127255000Y-101055000D01*
X127295000Y-97116000D02*
X127295000Y-101004000D01*
X127335000Y-97170000D02*
X127335000Y-100950000D01*
X127375000Y-97226000D02*
X127375000Y-100894000D01*
X127415000Y-97284000D02*
X127415000Y-100836000D01*
X127455000Y-97346000D02*
X127455000Y-100774000D01*
X127495000Y-97410000D02*
X127495000Y-100710000D01*
X127535000Y-97479000D02*
X127535000Y-100641000D01*
X127575000Y-97551000D02*
X127575000Y-100569000D01*
X127615000Y-97628000D02*
X127615000Y-100492000D01*
X127655000Y-97710000D02*
X127655000Y-100410000D01*
X127695000Y-97798000D02*
X127695000Y-100322000D01*
X127735000Y-97895000D02*
X127735000Y-100225000D01*
X127775000Y-98001000D02*
X127775000Y-100119000D01*
X127815000Y-98120000D02*
X127815000Y-100000000D01*
X127855000Y-98258000D02*
X127855000Y-99862000D01*
X127895000Y-98427000D02*
X127895000Y-99693000D01*
X127935000Y-98658000D02*
X127935000Y-99462000D01*
X121193759Y-97221000D02*
X121823759Y-97221000D01*
X121508759Y-96906000D02*
X121508759Y-97536000D01*
G04 #@! TO.C,C10*
X99410759Y-81412000D02*
X99410759Y-82042000D01*
X99095759Y-81727000D02*
X99725759Y-81727000D01*
X105837000Y-83164000D02*
X105837000Y-83968000D01*
X105797000Y-82933000D02*
X105797000Y-84199000D01*
X105757000Y-82764000D02*
X105757000Y-84368000D01*
X105717000Y-82626000D02*
X105717000Y-84506000D01*
X105677000Y-82507000D02*
X105677000Y-84625000D01*
X105637000Y-82401000D02*
X105637000Y-84731000D01*
X105597000Y-82304000D02*
X105597000Y-84828000D01*
X105557000Y-82216000D02*
X105557000Y-84916000D01*
X105517000Y-82134000D02*
X105517000Y-84998000D01*
X105477000Y-82057000D02*
X105477000Y-85075000D01*
X105437000Y-81985000D02*
X105437000Y-85147000D01*
X105397000Y-81916000D02*
X105397000Y-85216000D01*
X105357000Y-81852000D02*
X105357000Y-85280000D01*
X105317000Y-81790000D02*
X105317000Y-85342000D01*
X105277000Y-81732000D02*
X105277000Y-85400000D01*
X105237000Y-81676000D02*
X105237000Y-85456000D01*
X105197000Y-81622000D02*
X105197000Y-85510000D01*
X105157000Y-81571000D02*
X105157000Y-85561000D01*
X105117000Y-81522000D02*
X105117000Y-85610000D01*
X105077000Y-81474000D02*
X105077000Y-85658000D01*
X105037000Y-81429000D02*
X105037000Y-85703000D01*
X104997000Y-81384000D02*
X104997000Y-85748000D01*
X104957000Y-81342000D02*
X104957000Y-85790000D01*
X104917000Y-81301000D02*
X104917000Y-85831000D01*
X104877000Y-84606000D02*
X104877000Y-85871000D01*
X104877000Y-81261000D02*
X104877000Y-82526000D01*
X104837000Y-84606000D02*
X104837000Y-85909000D01*
X104837000Y-81223000D02*
X104837000Y-82526000D01*
X104797000Y-84606000D02*
X104797000Y-85946000D01*
X104797000Y-81186000D02*
X104797000Y-82526000D01*
X104757000Y-84606000D02*
X104757000Y-85982000D01*
X104757000Y-81150000D02*
X104757000Y-82526000D01*
X104717000Y-84606000D02*
X104717000Y-86016000D01*
X104717000Y-81116000D02*
X104717000Y-82526000D01*
X104677000Y-84606000D02*
X104677000Y-86050000D01*
X104677000Y-81082000D02*
X104677000Y-82526000D01*
X104637000Y-84606000D02*
X104637000Y-86082000D01*
X104637000Y-81050000D02*
X104637000Y-82526000D01*
X104597000Y-84606000D02*
X104597000Y-86114000D01*
X104597000Y-81018000D02*
X104597000Y-82526000D01*
X104557000Y-84606000D02*
X104557000Y-86144000D01*
X104557000Y-80988000D02*
X104557000Y-82526000D01*
X104517000Y-84606000D02*
X104517000Y-86173000D01*
X104517000Y-80959000D02*
X104517000Y-82526000D01*
X104477000Y-84606000D02*
X104477000Y-86202000D01*
X104477000Y-80930000D02*
X104477000Y-82526000D01*
X104437000Y-84606000D02*
X104437000Y-86230000D01*
X104437000Y-80902000D02*
X104437000Y-82526000D01*
X104397000Y-84606000D02*
X104397000Y-86256000D01*
X104397000Y-80876000D02*
X104397000Y-82526000D01*
X104357000Y-84606000D02*
X104357000Y-86282000D01*
X104357000Y-80850000D02*
X104357000Y-82526000D01*
X104317000Y-84606000D02*
X104317000Y-86308000D01*
X104317000Y-80824000D02*
X104317000Y-82526000D01*
X104277000Y-84606000D02*
X104277000Y-86332000D01*
X104277000Y-80800000D02*
X104277000Y-82526000D01*
X104237000Y-84606000D02*
X104237000Y-86356000D01*
X104237000Y-80776000D02*
X104237000Y-82526000D01*
X104197000Y-84606000D02*
X104197000Y-86378000D01*
X104197000Y-80754000D02*
X104197000Y-82526000D01*
X104157000Y-84606000D02*
X104157000Y-86400000D01*
X104157000Y-80732000D02*
X104157000Y-82526000D01*
X104117000Y-84606000D02*
X104117000Y-86422000D01*
X104117000Y-80710000D02*
X104117000Y-82526000D01*
X104077000Y-84606000D02*
X104077000Y-86442000D01*
X104077000Y-80690000D02*
X104077000Y-82526000D01*
X104037000Y-84606000D02*
X104037000Y-86462000D01*
X104037000Y-80670000D02*
X104037000Y-82526000D01*
X103997000Y-84606000D02*
X103997000Y-86482000D01*
X103997000Y-80650000D02*
X103997000Y-82526000D01*
X103957000Y-84606000D02*
X103957000Y-86500000D01*
X103957000Y-80632000D02*
X103957000Y-82526000D01*
X103917000Y-84606000D02*
X103917000Y-86518000D01*
X103917000Y-80614000D02*
X103917000Y-82526000D01*
X103877000Y-84606000D02*
X103877000Y-86536000D01*
X103877000Y-80596000D02*
X103877000Y-82526000D01*
X103837000Y-84606000D02*
X103837000Y-86552000D01*
X103837000Y-80580000D02*
X103837000Y-82526000D01*
X103797000Y-84606000D02*
X103797000Y-86568000D01*
X103797000Y-80564000D02*
X103797000Y-82526000D01*
X103757000Y-84606000D02*
X103757000Y-86584000D01*
X103757000Y-80548000D02*
X103757000Y-82526000D01*
X103717000Y-84606000D02*
X103717000Y-86599000D01*
X103717000Y-80533000D02*
X103717000Y-82526000D01*
X103677000Y-84606000D02*
X103677000Y-86613000D01*
X103677000Y-80519000D02*
X103677000Y-82526000D01*
X103637000Y-84606000D02*
X103637000Y-86627000D01*
X103637000Y-80505000D02*
X103637000Y-82526000D01*
X103597000Y-84606000D02*
X103597000Y-86640000D01*
X103597000Y-80492000D02*
X103597000Y-82526000D01*
X103557000Y-84606000D02*
X103557000Y-86652000D01*
X103557000Y-80480000D02*
X103557000Y-82526000D01*
X103517000Y-84606000D02*
X103517000Y-86664000D01*
X103517000Y-80468000D02*
X103517000Y-82526000D01*
X103477000Y-84606000D02*
X103477000Y-86676000D01*
X103477000Y-80456000D02*
X103477000Y-82526000D01*
X103437000Y-84606000D02*
X103437000Y-86687000D01*
X103437000Y-80445000D02*
X103437000Y-82526000D01*
X103397000Y-84606000D02*
X103397000Y-86697000D01*
X103397000Y-80435000D02*
X103397000Y-82526000D01*
X103357000Y-84606000D02*
X103357000Y-86707000D01*
X103357000Y-80425000D02*
X103357000Y-82526000D01*
X103317000Y-84606000D02*
X103317000Y-86716000D01*
X103317000Y-80416000D02*
X103317000Y-82526000D01*
X103276000Y-84606000D02*
X103276000Y-86725000D01*
X103276000Y-80407000D02*
X103276000Y-82526000D01*
X103236000Y-84606000D02*
X103236000Y-86733000D01*
X103236000Y-80399000D02*
X103236000Y-82526000D01*
X103196000Y-84606000D02*
X103196000Y-86741000D01*
X103196000Y-80391000D02*
X103196000Y-82526000D01*
X103156000Y-84606000D02*
X103156000Y-86748000D01*
X103156000Y-80384000D02*
X103156000Y-82526000D01*
X103116000Y-84606000D02*
X103116000Y-86755000D01*
X103116000Y-80377000D02*
X103116000Y-82526000D01*
X103076000Y-84606000D02*
X103076000Y-86761000D01*
X103076000Y-80371000D02*
X103076000Y-82526000D01*
X103036000Y-84606000D02*
X103036000Y-86767000D01*
X103036000Y-80365000D02*
X103036000Y-82526000D01*
X102996000Y-84606000D02*
X102996000Y-86772000D01*
X102996000Y-80360000D02*
X102996000Y-82526000D01*
X102956000Y-84606000D02*
X102956000Y-86777000D01*
X102956000Y-80355000D02*
X102956000Y-82526000D01*
X102916000Y-84606000D02*
X102916000Y-86781000D01*
X102916000Y-80351000D02*
X102916000Y-82526000D01*
X102876000Y-84606000D02*
X102876000Y-86784000D01*
X102876000Y-80348000D02*
X102876000Y-82526000D01*
X102836000Y-84606000D02*
X102836000Y-86788000D01*
X102836000Y-80344000D02*
X102836000Y-82526000D01*
X102796000Y-80342000D02*
X102796000Y-86790000D01*
X102756000Y-80339000D02*
X102756000Y-86793000D01*
X102716000Y-80338000D02*
X102716000Y-86794000D01*
X102676000Y-80336000D02*
X102676000Y-86796000D01*
X102636000Y-80336000D02*
X102636000Y-86796000D01*
X102596000Y-80336000D02*
X102596000Y-86796000D01*
X105866000Y-83566000D02*
G75*
G03X105866000Y-83566000I-3270000J0D01*
G01*
G04 #@! TO.C,C11*
X99410759Y-112146000D02*
X99410759Y-112776000D01*
X99095759Y-112461000D02*
X99725759Y-112461000D01*
X105837000Y-113898000D02*
X105837000Y-114702000D01*
X105797000Y-113667000D02*
X105797000Y-114933000D01*
X105757000Y-113498000D02*
X105757000Y-115102000D01*
X105717000Y-113360000D02*
X105717000Y-115240000D01*
X105677000Y-113241000D02*
X105677000Y-115359000D01*
X105637000Y-113135000D02*
X105637000Y-115465000D01*
X105597000Y-113038000D02*
X105597000Y-115562000D01*
X105557000Y-112950000D02*
X105557000Y-115650000D01*
X105517000Y-112868000D02*
X105517000Y-115732000D01*
X105477000Y-112791000D02*
X105477000Y-115809000D01*
X105437000Y-112719000D02*
X105437000Y-115881000D01*
X105397000Y-112650000D02*
X105397000Y-115950000D01*
X105357000Y-112586000D02*
X105357000Y-116014000D01*
X105317000Y-112524000D02*
X105317000Y-116076000D01*
X105277000Y-112466000D02*
X105277000Y-116134000D01*
X105237000Y-112410000D02*
X105237000Y-116190000D01*
X105197000Y-112356000D02*
X105197000Y-116244000D01*
X105157000Y-112305000D02*
X105157000Y-116295000D01*
X105117000Y-112256000D02*
X105117000Y-116344000D01*
X105077000Y-112208000D02*
X105077000Y-116392000D01*
X105037000Y-112163000D02*
X105037000Y-116437000D01*
X104997000Y-112118000D02*
X104997000Y-116482000D01*
X104957000Y-112076000D02*
X104957000Y-116524000D01*
X104917000Y-112035000D02*
X104917000Y-116565000D01*
X104877000Y-115340000D02*
X104877000Y-116605000D01*
X104877000Y-111995000D02*
X104877000Y-113260000D01*
X104837000Y-115340000D02*
X104837000Y-116643000D01*
X104837000Y-111957000D02*
X104837000Y-113260000D01*
X104797000Y-115340000D02*
X104797000Y-116680000D01*
X104797000Y-111920000D02*
X104797000Y-113260000D01*
X104757000Y-115340000D02*
X104757000Y-116716000D01*
X104757000Y-111884000D02*
X104757000Y-113260000D01*
X104717000Y-115340000D02*
X104717000Y-116750000D01*
X104717000Y-111850000D02*
X104717000Y-113260000D01*
X104677000Y-115340000D02*
X104677000Y-116784000D01*
X104677000Y-111816000D02*
X104677000Y-113260000D01*
X104637000Y-115340000D02*
X104637000Y-116816000D01*
X104637000Y-111784000D02*
X104637000Y-113260000D01*
X104597000Y-115340000D02*
X104597000Y-116848000D01*
X104597000Y-111752000D02*
X104597000Y-113260000D01*
X104557000Y-115340000D02*
X104557000Y-116878000D01*
X104557000Y-111722000D02*
X104557000Y-113260000D01*
X104517000Y-115340000D02*
X104517000Y-116907000D01*
X104517000Y-111693000D02*
X104517000Y-113260000D01*
X104477000Y-115340000D02*
X104477000Y-116936000D01*
X104477000Y-111664000D02*
X104477000Y-113260000D01*
X104437000Y-115340000D02*
X104437000Y-116964000D01*
X104437000Y-111636000D02*
X104437000Y-113260000D01*
X104397000Y-115340000D02*
X104397000Y-116990000D01*
X104397000Y-111610000D02*
X104397000Y-113260000D01*
X104357000Y-115340000D02*
X104357000Y-117016000D01*
X104357000Y-111584000D02*
X104357000Y-113260000D01*
X104317000Y-115340000D02*
X104317000Y-117042000D01*
X104317000Y-111558000D02*
X104317000Y-113260000D01*
X104277000Y-115340000D02*
X104277000Y-117066000D01*
X104277000Y-111534000D02*
X104277000Y-113260000D01*
X104237000Y-115340000D02*
X104237000Y-117090000D01*
X104237000Y-111510000D02*
X104237000Y-113260000D01*
X104197000Y-115340000D02*
X104197000Y-117112000D01*
X104197000Y-111488000D02*
X104197000Y-113260000D01*
X104157000Y-115340000D02*
X104157000Y-117134000D01*
X104157000Y-111466000D02*
X104157000Y-113260000D01*
X104117000Y-115340000D02*
X104117000Y-117156000D01*
X104117000Y-111444000D02*
X104117000Y-113260000D01*
X104077000Y-115340000D02*
X104077000Y-117176000D01*
X104077000Y-111424000D02*
X104077000Y-113260000D01*
X104037000Y-115340000D02*
X104037000Y-117196000D01*
X104037000Y-111404000D02*
X104037000Y-113260000D01*
X103997000Y-115340000D02*
X103997000Y-117216000D01*
X103997000Y-111384000D02*
X103997000Y-113260000D01*
X103957000Y-115340000D02*
X103957000Y-117234000D01*
X103957000Y-111366000D02*
X103957000Y-113260000D01*
X103917000Y-115340000D02*
X103917000Y-117252000D01*
X103917000Y-111348000D02*
X103917000Y-113260000D01*
X103877000Y-115340000D02*
X103877000Y-117270000D01*
X103877000Y-111330000D02*
X103877000Y-113260000D01*
X103837000Y-115340000D02*
X103837000Y-117286000D01*
X103837000Y-111314000D02*
X103837000Y-113260000D01*
X103797000Y-115340000D02*
X103797000Y-117302000D01*
X103797000Y-111298000D02*
X103797000Y-113260000D01*
X103757000Y-115340000D02*
X103757000Y-117318000D01*
X103757000Y-111282000D02*
X103757000Y-113260000D01*
X103717000Y-115340000D02*
X103717000Y-117333000D01*
X103717000Y-111267000D02*
X103717000Y-113260000D01*
X103677000Y-115340000D02*
X103677000Y-117347000D01*
X103677000Y-111253000D02*
X103677000Y-113260000D01*
X103637000Y-115340000D02*
X103637000Y-117361000D01*
X103637000Y-111239000D02*
X103637000Y-113260000D01*
X103597000Y-115340000D02*
X103597000Y-117374000D01*
X103597000Y-111226000D02*
X103597000Y-113260000D01*
X103557000Y-115340000D02*
X103557000Y-117386000D01*
X103557000Y-111214000D02*
X103557000Y-113260000D01*
X103517000Y-115340000D02*
X103517000Y-117398000D01*
X103517000Y-111202000D02*
X103517000Y-113260000D01*
X103477000Y-115340000D02*
X103477000Y-117410000D01*
X103477000Y-111190000D02*
X103477000Y-113260000D01*
X103437000Y-115340000D02*
X103437000Y-117421000D01*
X103437000Y-111179000D02*
X103437000Y-113260000D01*
X103397000Y-115340000D02*
X103397000Y-117431000D01*
X103397000Y-111169000D02*
X103397000Y-113260000D01*
X103357000Y-115340000D02*
X103357000Y-117441000D01*
X103357000Y-111159000D02*
X103357000Y-113260000D01*
X103317000Y-115340000D02*
X103317000Y-117450000D01*
X103317000Y-111150000D02*
X103317000Y-113260000D01*
X103276000Y-115340000D02*
X103276000Y-117459000D01*
X103276000Y-111141000D02*
X103276000Y-113260000D01*
X103236000Y-115340000D02*
X103236000Y-117467000D01*
X103236000Y-111133000D02*
X103236000Y-113260000D01*
X103196000Y-115340000D02*
X103196000Y-117475000D01*
X103196000Y-111125000D02*
X103196000Y-113260000D01*
X103156000Y-115340000D02*
X103156000Y-117482000D01*
X103156000Y-111118000D02*
X103156000Y-113260000D01*
X103116000Y-115340000D02*
X103116000Y-117489000D01*
X103116000Y-111111000D02*
X103116000Y-113260000D01*
X103076000Y-115340000D02*
X103076000Y-117495000D01*
X103076000Y-111105000D02*
X103076000Y-113260000D01*
X103036000Y-115340000D02*
X103036000Y-117501000D01*
X103036000Y-111099000D02*
X103036000Y-113260000D01*
X102996000Y-115340000D02*
X102996000Y-117506000D01*
X102996000Y-111094000D02*
X102996000Y-113260000D01*
X102956000Y-115340000D02*
X102956000Y-117511000D01*
X102956000Y-111089000D02*
X102956000Y-113260000D01*
X102916000Y-115340000D02*
X102916000Y-117515000D01*
X102916000Y-111085000D02*
X102916000Y-113260000D01*
X102876000Y-115340000D02*
X102876000Y-117518000D01*
X102876000Y-111082000D02*
X102876000Y-113260000D01*
X102836000Y-115340000D02*
X102836000Y-117522000D01*
X102836000Y-111078000D02*
X102836000Y-113260000D01*
X102796000Y-111076000D02*
X102796000Y-117524000D01*
X102756000Y-111073000D02*
X102756000Y-117527000D01*
X102716000Y-111072000D02*
X102716000Y-117528000D01*
X102676000Y-111070000D02*
X102676000Y-117530000D01*
X102636000Y-111070000D02*
X102636000Y-117530000D01*
X102596000Y-111070000D02*
X102596000Y-117530000D01*
X105866000Y-114300000D02*
G75*
G03X105866000Y-114300000I-3270000J0D01*
G01*
G04 #@! TO.C,R1*
X82296000Y-102057000D02*
X82296000Y-101107000D01*
X82296000Y-96317000D02*
X82296000Y-97267000D01*
X83216000Y-101107000D02*
X83216000Y-97267000D01*
X81376000Y-101107000D02*
X83216000Y-101107000D01*
X81376000Y-97267000D02*
X81376000Y-101107000D01*
X83216000Y-97267000D02*
X81376000Y-97267000D01*
G04 #@! TO.C,R2*
X96739333Y-92090000D02*
X98579333Y-92090000D01*
X98579333Y-92090000D02*
X98579333Y-88250000D01*
X98579333Y-88250000D02*
X96739333Y-88250000D01*
X96739333Y-88250000D02*
X96739333Y-92090000D01*
X97659333Y-93040000D02*
X97659333Y-92090000D01*
X97659333Y-87300000D02*
X97659333Y-88250000D01*
G04 #@! TO.C,R3*
X93060000Y-92090000D02*
X94900000Y-92090000D01*
X94900000Y-92090000D02*
X94900000Y-88250000D01*
X94900000Y-88250000D02*
X93060000Y-88250000D01*
X93060000Y-88250000D02*
X93060000Y-92090000D01*
X93980000Y-93040000D02*
X93980000Y-92090000D01*
X93980000Y-87300000D02*
X93980000Y-88250000D01*
G04 #@! TO.C,R4*
X94900000Y-106284000D02*
X93060000Y-106284000D01*
X93060000Y-106284000D02*
X93060000Y-110124000D01*
X93060000Y-110124000D02*
X94900000Y-110124000D01*
X94900000Y-110124000D02*
X94900000Y-106284000D01*
X93980000Y-105334000D02*
X93980000Y-106284000D01*
X93980000Y-111074000D02*
X93980000Y-110124000D01*
G04 #@! TO.C,R5*
X98579333Y-106284000D02*
X96739333Y-106284000D01*
X96739333Y-106284000D02*
X96739333Y-110124000D01*
X96739333Y-110124000D02*
X98579333Y-110124000D01*
X98579333Y-110124000D02*
X98579333Y-106284000D01*
X97659333Y-105334000D02*
X97659333Y-106284000D01*
X97659333Y-111074000D02*
X97659333Y-110124000D01*
G04 #@! TO.C,R7*
X85903000Y-97472800D02*
X86853000Y-97472800D01*
X91643000Y-97472800D02*
X90693000Y-97472800D01*
X86853000Y-98392800D02*
X90693000Y-98392800D01*
X86853000Y-96552800D02*
X86853000Y-98392800D01*
X90693000Y-96552800D02*
X86853000Y-96552800D01*
X90693000Y-98392800D02*
X90693000Y-96552800D01*
G04 #@! TO.C,R8*
X105918000Y-94464000D02*
X105918000Y-93514000D01*
X105918000Y-88724000D02*
X105918000Y-89674000D01*
X106838000Y-93514000D02*
X106838000Y-89674000D01*
X104998000Y-93514000D02*
X106838000Y-93514000D01*
X104998000Y-89674000D02*
X104998000Y-93514000D01*
X106838000Y-89674000D02*
X104998000Y-89674000D01*
G04 #@! TO.C,R9*
X104998000Y-108242800D02*
X106838000Y-108242800D01*
X106838000Y-108242800D02*
X106838000Y-104402800D01*
X106838000Y-104402800D02*
X104998000Y-104402800D01*
X104998000Y-104402800D02*
X104998000Y-108242800D01*
X105918000Y-109192800D02*
X105918000Y-108242800D01*
X105918000Y-103452800D02*
X105918000Y-104402800D01*
G04 #@! TO.C,R10*
X119634000Y-90856000D02*
X119634000Y-91806000D01*
X119634000Y-96596000D02*
X119634000Y-95646000D01*
X118714000Y-91806000D02*
X118714000Y-95646000D01*
X120554000Y-91806000D02*
X118714000Y-91806000D01*
X120554000Y-95646000D02*
X120554000Y-91806000D01*
X118714000Y-95646000D02*
X120554000Y-95646000D01*
G04 #@! TO.C,R11*
X118714000Y-106060000D02*
X120554000Y-106060000D01*
X120554000Y-106060000D02*
X120554000Y-102220000D01*
X120554000Y-102220000D02*
X118714000Y-102220000D01*
X118714000Y-102220000D02*
X118714000Y-106060000D01*
X119634000Y-107010000D02*
X119634000Y-106060000D01*
X119634000Y-101270000D02*
X119634000Y-102220000D01*
G04 #@! TO.C,R12*
X115900000Y-85394000D02*
X114950000Y-85394000D01*
X110160000Y-85394000D02*
X111110000Y-85394000D01*
X114950000Y-84474000D02*
X111110000Y-84474000D01*
X114950000Y-86314000D02*
X114950000Y-84474000D01*
X111110000Y-86314000D02*
X114950000Y-86314000D01*
X111110000Y-84474000D02*
X111110000Y-86314000D01*
G04 #@! TO.C,Q1*
X122996478Y-82491522D02*
G75*
G03X118558000Y-84330000I-1838478J-1838478D01*
G01*
X122996478Y-86168478D02*
G75*
G02X118558000Y-84330000I-1838478J1838478D01*
G01*
X123008000Y-86130000D02*
X123008000Y-82530000D01*
G04 #@! TO.C,Q2*
X118588000Y-112344000D02*
X118588000Y-115944000D01*
X118599522Y-112305522D02*
G75*
G02X123038000Y-114144000I1838478J-1838478D01*
G01*
X118599522Y-115982478D02*
G75*
G03X123038000Y-114144000I1838478J1838478D01*
G01*
G04 #@! TO.C,J2*
X129226000Y-93726000D02*
X131886000Y-93726000D01*
X129226000Y-93726000D02*
X129226000Y-106486000D01*
X129226000Y-106486000D02*
X131886000Y-106486000D01*
X131886000Y-93726000D02*
X131886000Y-106486000D01*
X131886000Y-91126000D02*
X131886000Y-92456000D01*
X130556000Y-91126000D02*
X131886000Y-91126000D01*
G04 #@! TO.C,U1*
X114030000Y-90110000D02*
G75*
G02X112030000Y-90110000I-1000000J0D01*
G01*
X112030000Y-90110000D02*
X110380000Y-90110000D01*
X110380000Y-90110000D02*
X110380000Y-108010000D01*
X110380000Y-108010000D02*
X115680000Y-108010000D01*
X115680000Y-108010000D02*
X115680000Y-90110000D01*
X115680000Y-90110000D02*
X114030000Y-90110000D01*
G04 #@! TO.C,C9*
X107196000Y-100480000D02*
X103156000Y-100480000D01*
X107196000Y-97640000D02*
X103156000Y-97640000D01*
X107196000Y-100480000D02*
X107196000Y-99855000D01*
X107196000Y-98265000D02*
X107196000Y-97640000D01*
X103156000Y-100480000D02*
X103156000Y-99855000D01*
X103156000Y-98265000D02*
X103156000Y-97640000D01*
G04 #@! TO.C,R6*
X86853000Y-99473200D02*
X86853000Y-101313200D01*
X86853000Y-101313200D02*
X90693000Y-101313200D01*
X90693000Y-101313200D02*
X90693000Y-99473200D01*
X90693000Y-99473200D02*
X86853000Y-99473200D01*
X85903000Y-100393200D02*
X86853000Y-100393200D01*
X91643000Y-100393200D02*
X90693000Y-100393200D01*
G04 #@! TO.C,J1*
X78740000Y-91126000D02*
X80070000Y-91126000D01*
X80070000Y-91126000D02*
X80070000Y-92456000D01*
X80070000Y-93726000D02*
X80070000Y-106486000D01*
X77410000Y-106486000D02*
X80070000Y-106486000D01*
X77410000Y-93726000D02*
X77410000Y-106486000D01*
X77410000Y-93726000D02*
X80070000Y-93726000D01*
G04 #@! TO.C,R13*
D15*
X112387142Y-88590380D02*
X112053809Y-88114190D01*
X111815714Y-88590380D02*
X111815714Y-87590380D01*
X112196666Y-87590380D01*
X112291904Y-87638000D01*
X112339523Y-87685619D01*
X112387142Y-87780857D01*
X112387142Y-87923714D01*
X112339523Y-88018952D01*
X112291904Y-88066571D01*
X112196666Y-88114190D01*
X111815714Y-88114190D01*
X113339523Y-88590380D02*
X112768095Y-88590380D01*
X113053809Y-88590380D02*
X113053809Y-87590380D01*
X112958571Y-87733238D01*
X112863333Y-87828476D01*
X112768095Y-87876095D01*
X113672857Y-87590380D02*
X114291904Y-87590380D01*
X113958571Y-87971333D01*
X114101428Y-87971333D01*
X114196666Y-88018952D01*
X114244285Y-88066571D01*
X114291904Y-88161809D01*
X114291904Y-88399904D01*
X114244285Y-88495142D01*
X114196666Y-88542761D01*
X114101428Y-88590380D01*
X113815714Y-88590380D01*
X113720476Y-88542761D01*
X113672857Y-88495142D01*
G04 #@! TO.C,R14*
X112387142Y-83129380D02*
X112053809Y-82653190D01*
X111815714Y-83129380D02*
X111815714Y-82129380D01*
X112196666Y-82129380D01*
X112291904Y-82177000D01*
X112339523Y-82224619D01*
X112387142Y-82319857D01*
X112387142Y-82462714D01*
X112339523Y-82557952D01*
X112291904Y-82605571D01*
X112196666Y-82653190D01*
X111815714Y-82653190D01*
X113339523Y-83129380D02*
X112768095Y-83129380D01*
X113053809Y-83129380D02*
X113053809Y-82129380D01*
X112958571Y-82272238D01*
X112863333Y-82367476D01*
X112768095Y-82415095D01*
X114196666Y-82462714D02*
X114196666Y-83129380D01*
X113958571Y-82081761D02*
X113720476Y-82796047D01*
X114339523Y-82796047D01*
G04 #@! TO.C,R15*
X125420380Y-87002857D02*
X124944190Y-87336190D01*
X125420380Y-87574285D02*
X124420380Y-87574285D01*
X124420380Y-87193333D01*
X124468000Y-87098095D01*
X124515619Y-87050476D01*
X124610857Y-87002857D01*
X124753714Y-87002857D01*
X124848952Y-87050476D01*
X124896571Y-87098095D01*
X124944190Y-87193333D01*
X124944190Y-87574285D01*
X125420380Y-86050476D02*
X125420380Y-86621904D01*
X125420380Y-86336190D02*
X124420380Y-86336190D01*
X124563238Y-86431428D01*
X124658476Y-86526666D01*
X124706095Y-86621904D01*
X124420380Y-85145714D02*
X124420380Y-85621904D01*
X124896571Y-85669523D01*
X124848952Y-85621904D01*
X124801333Y-85526666D01*
X124801333Y-85288571D01*
X124848952Y-85193333D01*
X124896571Y-85145714D01*
X124991809Y-85098095D01*
X125229904Y-85098095D01*
X125325142Y-85145714D01*
X125372761Y-85193333D01*
X125420380Y-85288571D01*
X125420380Y-85526666D01*
X125372761Y-85621904D01*
X125325142Y-85669523D01*
G04 #@! TO.C,R16*
X112387142Y-113355380D02*
X112053809Y-112879190D01*
X111815714Y-113355380D02*
X111815714Y-112355380D01*
X112196666Y-112355380D01*
X112291904Y-112403000D01*
X112339523Y-112450619D01*
X112387142Y-112545857D01*
X112387142Y-112688714D01*
X112339523Y-112783952D01*
X112291904Y-112831571D01*
X112196666Y-112879190D01*
X111815714Y-112879190D01*
X113339523Y-113355380D02*
X112768095Y-113355380D01*
X113053809Y-113355380D02*
X113053809Y-112355380D01*
X112958571Y-112498238D01*
X112863333Y-112593476D01*
X112768095Y-112641095D01*
X114196666Y-112355380D02*
X114006190Y-112355380D01*
X113910952Y-112403000D01*
X113863333Y-112450619D01*
X113768095Y-112593476D01*
X113720476Y-112783952D01*
X113720476Y-113164904D01*
X113768095Y-113260142D01*
X113815714Y-113307761D01*
X113910952Y-113355380D01*
X114101428Y-113355380D01*
X114196666Y-113307761D01*
X114244285Y-113260142D01*
X114291904Y-113164904D01*
X114291904Y-112926809D01*
X114244285Y-112831571D01*
X114196666Y-112783952D01*
X114101428Y-112736333D01*
X113910952Y-112736333D01*
X113815714Y-112783952D01*
X113768095Y-112831571D01*
X113720476Y-112926809D01*
G04 #@! TO.C,R17*
X112387142Y-110561380D02*
X112053809Y-110085190D01*
X111815714Y-110561380D02*
X111815714Y-109561380D01*
X112196666Y-109561380D01*
X112291904Y-109609000D01*
X112339523Y-109656619D01*
X112387142Y-109751857D01*
X112387142Y-109894714D01*
X112339523Y-109989952D01*
X112291904Y-110037571D01*
X112196666Y-110085190D01*
X111815714Y-110085190D01*
X113339523Y-110561380D02*
X112768095Y-110561380D01*
X113053809Y-110561380D02*
X113053809Y-109561380D01*
X112958571Y-109704238D01*
X112863333Y-109799476D01*
X112768095Y-109847095D01*
X113672857Y-109561380D02*
X114339523Y-109561380D01*
X113910952Y-110561380D01*
G04 #@! TO.C,R18*
X112260142Y-116276380D02*
X111926809Y-115800190D01*
X111688714Y-116276380D02*
X111688714Y-115276380D01*
X112069666Y-115276380D01*
X112164904Y-115324000D01*
X112212523Y-115371619D01*
X112260142Y-115466857D01*
X112260142Y-115609714D01*
X112212523Y-115704952D01*
X112164904Y-115752571D01*
X112069666Y-115800190D01*
X111688714Y-115800190D01*
X113212523Y-116276380D02*
X112641095Y-116276380D01*
X112926809Y-116276380D02*
X112926809Y-115276380D01*
X112831571Y-115419238D01*
X112736333Y-115514476D01*
X112641095Y-115562095D01*
X113783952Y-115704952D02*
X113688714Y-115657333D01*
X113641095Y-115609714D01*
X113593476Y-115514476D01*
X113593476Y-115466857D01*
X113641095Y-115371619D01*
X113688714Y-115324000D01*
X113783952Y-115276380D01*
X113974428Y-115276380D01*
X114069666Y-115324000D01*
X114117285Y-115371619D01*
X114164904Y-115466857D01*
X114164904Y-115514476D01*
X114117285Y-115609714D01*
X114069666Y-115657333D01*
X113974428Y-115704952D01*
X113783952Y-115704952D01*
X113688714Y-115752571D01*
X113641095Y-115800190D01*
X113593476Y-115895428D01*
X113593476Y-116085904D01*
X113641095Y-116181142D01*
X113688714Y-116228761D01*
X113783952Y-116276380D01*
X113974428Y-116276380D01*
X114069666Y-116228761D01*
X114117285Y-116181142D01*
X114164904Y-116085904D01*
X114164904Y-115895428D01*
X114117285Y-115800190D01*
X114069666Y-115752571D01*
X113974428Y-115704952D01*
G04 #@! TO.C,R19*
X125547380Y-112656857D02*
X125071190Y-112990190D01*
X125547380Y-113228285D02*
X124547380Y-113228285D01*
X124547380Y-112847333D01*
X124595000Y-112752095D01*
X124642619Y-112704476D01*
X124737857Y-112656857D01*
X124880714Y-112656857D01*
X124975952Y-112704476D01*
X125023571Y-112752095D01*
X125071190Y-112847333D01*
X125071190Y-113228285D01*
X125547380Y-111704476D02*
X125547380Y-112275904D01*
X125547380Y-111990190D02*
X124547380Y-111990190D01*
X124690238Y-112085428D01*
X124785476Y-112180666D01*
X124833095Y-112275904D01*
X125547380Y-111228285D02*
X125547380Y-111037809D01*
X125499761Y-110942571D01*
X125452142Y-110894952D01*
X125309285Y-110799714D01*
X125118809Y-110752095D01*
X124737857Y-110752095D01*
X124642619Y-110799714D01*
X124595000Y-110847333D01*
X124547380Y-110942571D01*
X124547380Y-111133047D01*
X124595000Y-111228285D01*
X124642619Y-111275904D01*
X124737857Y-111323523D01*
X124975952Y-111323523D01*
X125071190Y-111275904D01*
X125118809Y-111228285D01*
X125166428Y-111133047D01*
X125166428Y-110942571D01*
X125118809Y-110847333D01*
X125071190Y-110799714D01*
X124975952Y-110752095D01*
G04 #@! TO.C,C1*
X83907333Y-84939142D02*
X83859714Y-84986761D01*
X83716857Y-85034380D01*
X83621619Y-85034380D01*
X83478761Y-84986761D01*
X83383523Y-84891523D01*
X83335904Y-84796285D01*
X83288285Y-84605809D01*
X83288285Y-84462952D01*
X83335904Y-84272476D01*
X83383523Y-84177238D01*
X83478761Y-84082000D01*
X83621619Y-84034380D01*
X83716857Y-84034380D01*
X83859714Y-84082000D01*
X83907333Y-84129619D01*
X84859714Y-85034380D02*
X84288285Y-85034380D01*
X84574000Y-85034380D02*
X84574000Y-84034380D01*
X84478761Y-84177238D01*
X84383523Y-84272476D01*
X84288285Y-84320095D01*
G04 #@! TO.C,C2*
X83907333Y-92559142D02*
X83859714Y-92606761D01*
X83716857Y-92654380D01*
X83621619Y-92654380D01*
X83478761Y-92606761D01*
X83383523Y-92511523D01*
X83335904Y-92416285D01*
X83288285Y-92225809D01*
X83288285Y-92082952D01*
X83335904Y-91892476D01*
X83383523Y-91797238D01*
X83478761Y-91702000D01*
X83621619Y-91654380D01*
X83716857Y-91654380D01*
X83859714Y-91702000D01*
X83907333Y-91749619D01*
X84288285Y-91749619D02*
X84335904Y-91702000D01*
X84431142Y-91654380D01*
X84669238Y-91654380D01*
X84764476Y-91702000D01*
X84812095Y-91749619D01*
X84859714Y-91844857D01*
X84859714Y-91940095D01*
X84812095Y-92082952D01*
X84240666Y-92654380D01*
X84859714Y-92654380D01*
G04 #@! TO.C,C3*
X83907333Y-106021142D02*
X83859714Y-106068761D01*
X83716857Y-106116380D01*
X83621619Y-106116380D01*
X83478761Y-106068761D01*
X83383523Y-105973523D01*
X83335904Y-105878285D01*
X83288285Y-105687809D01*
X83288285Y-105544952D01*
X83335904Y-105354476D01*
X83383523Y-105259238D01*
X83478761Y-105164000D01*
X83621619Y-105116380D01*
X83716857Y-105116380D01*
X83859714Y-105164000D01*
X83907333Y-105211619D01*
X84240666Y-105116380D02*
X84859714Y-105116380D01*
X84526380Y-105497333D01*
X84669238Y-105497333D01*
X84764476Y-105544952D01*
X84812095Y-105592571D01*
X84859714Y-105687809D01*
X84859714Y-105925904D01*
X84812095Y-106021142D01*
X84764476Y-106068761D01*
X84669238Y-106116380D01*
X84383523Y-106116380D01*
X84288285Y-106068761D01*
X84240666Y-106021142D01*
G04 #@! TO.C,C4*
X83907333Y-113641142D02*
X83859714Y-113688761D01*
X83716857Y-113736380D01*
X83621619Y-113736380D01*
X83478761Y-113688761D01*
X83383523Y-113593523D01*
X83335904Y-113498285D01*
X83288285Y-113307809D01*
X83288285Y-113164952D01*
X83335904Y-112974476D01*
X83383523Y-112879238D01*
X83478761Y-112784000D01*
X83621619Y-112736380D01*
X83716857Y-112736380D01*
X83859714Y-112784000D01*
X83907333Y-112831619D01*
X84764476Y-113069714D02*
X84764476Y-113736380D01*
X84526380Y-112688761D02*
X84288285Y-113403047D01*
X84907333Y-113403047D01*
G04 #@! TO.C,C5*
X94575333Y-96623142D02*
X94527714Y-96670761D01*
X94384857Y-96718380D01*
X94289619Y-96718380D01*
X94146761Y-96670761D01*
X94051523Y-96575523D01*
X94003904Y-96480285D01*
X93956285Y-96289809D01*
X93956285Y-96146952D01*
X94003904Y-95956476D01*
X94051523Y-95861238D01*
X94146761Y-95766000D01*
X94289619Y-95718380D01*
X94384857Y-95718380D01*
X94527714Y-95766000D01*
X94575333Y-95813619D01*
X95480095Y-95718380D02*
X95003904Y-95718380D01*
X94956285Y-96194571D01*
X95003904Y-96146952D01*
X95099142Y-96099333D01*
X95337238Y-96099333D01*
X95432476Y-96146952D01*
X95480095Y-96194571D01*
X95527714Y-96289809D01*
X95527714Y-96527904D01*
X95480095Y-96623142D01*
X95432476Y-96670761D01*
X95337238Y-96718380D01*
X95099142Y-96718380D01*
X95003904Y-96670761D01*
X94956285Y-96623142D01*
G04 #@! TO.C,C6*
X102211142Y-91566666D02*
X102258761Y-91614285D01*
X102306380Y-91757142D01*
X102306380Y-91852380D01*
X102258761Y-91995238D01*
X102163523Y-92090476D01*
X102068285Y-92138095D01*
X101877809Y-92185714D01*
X101734952Y-92185714D01*
X101544476Y-92138095D01*
X101449238Y-92090476D01*
X101354000Y-91995238D01*
X101306380Y-91852380D01*
X101306380Y-91757142D01*
X101354000Y-91614285D01*
X101401619Y-91566666D01*
X101306380Y-90709523D02*
X101306380Y-90900000D01*
X101354000Y-90995238D01*
X101401619Y-91042857D01*
X101544476Y-91138095D01*
X101734952Y-91185714D01*
X102115904Y-91185714D01*
X102211142Y-91138095D01*
X102258761Y-91090476D01*
X102306380Y-90995238D01*
X102306380Y-90804761D01*
X102258761Y-90709523D01*
X102211142Y-90661904D01*
X102115904Y-90614285D01*
X101877809Y-90614285D01*
X101782571Y-90661904D01*
X101734952Y-90709523D01*
X101687333Y-90804761D01*
X101687333Y-90995238D01*
X101734952Y-91090476D01*
X101782571Y-91138095D01*
X101877809Y-91185714D01*
G04 #@! TO.C,C7*
X102211142Y-106846666D02*
X102258761Y-106894285D01*
X102306380Y-107037142D01*
X102306380Y-107132380D01*
X102258761Y-107275238D01*
X102163523Y-107370476D01*
X102068285Y-107418095D01*
X101877809Y-107465714D01*
X101734952Y-107465714D01*
X101544476Y-107418095D01*
X101449238Y-107370476D01*
X101354000Y-107275238D01*
X101306380Y-107132380D01*
X101306380Y-107037142D01*
X101354000Y-106894285D01*
X101401619Y-106846666D01*
X101306380Y-106513333D02*
X101306380Y-105846666D01*
X102306380Y-106275238D01*
G04 #@! TO.C,C8*
X124527333Y-95017142D02*
X124479714Y-95064761D01*
X124336857Y-95112380D01*
X124241619Y-95112380D01*
X124098761Y-95064761D01*
X124003523Y-94969523D01*
X123955904Y-94874285D01*
X123908285Y-94683809D01*
X123908285Y-94540952D01*
X123955904Y-94350476D01*
X124003523Y-94255238D01*
X124098761Y-94160000D01*
X124241619Y-94112380D01*
X124336857Y-94112380D01*
X124479714Y-94160000D01*
X124527333Y-94207619D01*
X125098761Y-94540952D02*
X125003523Y-94493333D01*
X124955904Y-94445714D01*
X124908285Y-94350476D01*
X124908285Y-94302857D01*
X124955904Y-94207619D01*
X125003523Y-94160000D01*
X125098761Y-94112380D01*
X125289238Y-94112380D01*
X125384476Y-94160000D01*
X125432095Y-94207619D01*
X125479714Y-94302857D01*
X125479714Y-94350476D01*
X125432095Y-94445714D01*
X125384476Y-94493333D01*
X125289238Y-94540952D01*
X125098761Y-94540952D01*
X125003523Y-94588571D01*
X124955904Y-94636190D01*
X124908285Y-94731428D01*
X124908285Y-94921904D01*
X124955904Y-95017142D01*
X125003523Y-95064761D01*
X125098761Y-95112380D01*
X125289238Y-95112380D01*
X125384476Y-95064761D01*
X125432095Y-95017142D01*
X125479714Y-94921904D01*
X125479714Y-94731428D01*
X125432095Y-94636190D01*
X125384476Y-94588571D01*
X125289238Y-94540952D01*
G04 #@! TO.C,C10*
X96893142Y-84050142D02*
X96845523Y-84097761D01*
X96702666Y-84145380D01*
X96607428Y-84145380D01*
X96464571Y-84097761D01*
X96369333Y-84002523D01*
X96321714Y-83907285D01*
X96274095Y-83716809D01*
X96274095Y-83573952D01*
X96321714Y-83383476D01*
X96369333Y-83288238D01*
X96464571Y-83193000D01*
X96607428Y-83145380D01*
X96702666Y-83145380D01*
X96845523Y-83193000D01*
X96893142Y-83240619D01*
X97845523Y-84145380D02*
X97274095Y-84145380D01*
X97559809Y-84145380D02*
X97559809Y-83145380D01*
X97464571Y-83288238D01*
X97369333Y-83383476D01*
X97274095Y-83431095D01*
X98464571Y-83145380D02*
X98559809Y-83145380D01*
X98655047Y-83193000D01*
X98702666Y-83240619D01*
X98750285Y-83335857D01*
X98797904Y-83526333D01*
X98797904Y-83764428D01*
X98750285Y-83954904D01*
X98702666Y-84050142D01*
X98655047Y-84097761D01*
X98559809Y-84145380D01*
X98464571Y-84145380D01*
X98369333Y-84097761D01*
X98321714Y-84050142D01*
X98274095Y-83954904D01*
X98226476Y-83764428D01*
X98226476Y-83526333D01*
X98274095Y-83335857D01*
X98321714Y-83240619D01*
X98369333Y-83193000D01*
X98464571Y-83145380D01*
G04 #@! TO.C,C11*
X97020142Y-114657142D02*
X96972523Y-114704761D01*
X96829666Y-114752380D01*
X96734428Y-114752380D01*
X96591571Y-114704761D01*
X96496333Y-114609523D01*
X96448714Y-114514285D01*
X96401095Y-114323809D01*
X96401095Y-114180952D01*
X96448714Y-113990476D01*
X96496333Y-113895238D01*
X96591571Y-113800000D01*
X96734428Y-113752380D01*
X96829666Y-113752380D01*
X96972523Y-113800000D01*
X97020142Y-113847619D01*
X97972523Y-114752380D02*
X97401095Y-114752380D01*
X97686809Y-114752380D02*
X97686809Y-113752380D01*
X97591571Y-113895238D01*
X97496333Y-113990476D01*
X97401095Y-114038095D01*
X98924904Y-114752380D02*
X98353476Y-114752380D01*
X98639190Y-114752380D02*
X98639190Y-113752380D01*
X98543952Y-113895238D01*
X98448714Y-113990476D01*
X98353476Y-114038095D01*
G04 #@! TO.C,R1*
X82748380Y-99226666D02*
X82272190Y-99560000D01*
X82748380Y-99798095D02*
X81748380Y-99798095D01*
X81748380Y-99417142D01*
X81796000Y-99321904D01*
X81843619Y-99274285D01*
X81938857Y-99226666D01*
X82081714Y-99226666D01*
X82176952Y-99274285D01*
X82224571Y-99321904D01*
X82272190Y-99417142D01*
X82272190Y-99798095D01*
X82748380Y-98274285D02*
X82748380Y-98845714D01*
X82748380Y-98560000D02*
X81748380Y-98560000D01*
X81891238Y-98655238D01*
X81986476Y-98750476D01*
X82034095Y-98845714D01*
G04 #@! TO.C,R2*
X98115380Y-90336666D02*
X97639190Y-90670000D01*
X98115380Y-90908095D02*
X97115380Y-90908095D01*
X97115380Y-90527142D01*
X97163000Y-90431904D01*
X97210619Y-90384285D01*
X97305857Y-90336666D01*
X97448714Y-90336666D01*
X97543952Y-90384285D01*
X97591571Y-90431904D01*
X97639190Y-90527142D01*
X97639190Y-90908095D01*
X97210619Y-89955714D02*
X97163000Y-89908095D01*
X97115380Y-89812857D01*
X97115380Y-89574761D01*
X97163000Y-89479523D01*
X97210619Y-89431904D01*
X97305857Y-89384285D01*
X97401095Y-89384285D01*
X97543952Y-89431904D01*
X98115380Y-90003333D01*
X98115380Y-89384285D01*
G04 #@! TO.C,R3*
X94432380Y-90336666D02*
X93956190Y-90670000D01*
X94432380Y-90908095D02*
X93432380Y-90908095D01*
X93432380Y-90527142D01*
X93480000Y-90431904D01*
X93527619Y-90384285D01*
X93622857Y-90336666D01*
X93765714Y-90336666D01*
X93860952Y-90384285D01*
X93908571Y-90431904D01*
X93956190Y-90527142D01*
X93956190Y-90908095D01*
X93432380Y-90003333D02*
X93432380Y-89384285D01*
X93813333Y-89717619D01*
X93813333Y-89574761D01*
X93860952Y-89479523D01*
X93908571Y-89431904D01*
X94003809Y-89384285D01*
X94241904Y-89384285D01*
X94337142Y-89431904D01*
X94384761Y-89479523D01*
X94432380Y-89574761D01*
X94432380Y-89860476D01*
X94384761Y-89955714D01*
X94337142Y-90003333D01*
G04 #@! TO.C,R4*
X94432380Y-108370666D02*
X93956190Y-108704000D01*
X94432380Y-108942095D02*
X93432380Y-108942095D01*
X93432380Y-108561142D01*
X93480000Y-108465904D01*
X93527619Y-108418285D01*
X93622857Y-108370666D01*
X93765714Y-108370666D01*
X93860952Y-108418285D01*
X93908571Y-108465904D01*
X93956190Y-108561142D01*
X93956190Y-108942095D01*
X93765714Y-107513523D02*
X94432380Y-107513523D01*
X93384761Y-107751619D02*
X94099047Y-107989714D01*
X94099047Y-107370666D01*
G04 #@! TO.C,R5*
X98115380Y-108243666D02*
X97639190Y-108577000D01*
X98115380Y-108815095D02*
X97115380Y-108815095D01*
X97115380Y-108434142D01*
X97163000Y-108338904D01*
X97210619Y-108291285D01*
X97305857Y-108243666D01*
X97448714Y-108243666D01*
X97543952Y-108291285D01*
X97591571Y-108338904D01*
X97639190Y-108434142D01*
X97639190Y-108815095D01*
X97115380Y-107338904D02*
X97115380Y-107815095D01*
X97591571Y-107862714D01*
X97543952Y-107815095D01*
X97496333Y-107719857D01*
X97496333Y-107481761D01*
X97543952Y-107386523D01*
X97591571Y-107338904D01*
X97686809Y-107291285D01*
X97924904Y-107291285D01*
X98020142Y-107338904D01*
X98067761Y-107386523D01*
X98115380Y-107481761D01*
X98115380Y-107719857D01*
X98067761Y-107815095D01*
X98020142Y-107862714D01*
G04 #@! TO.C,R7*
X88606333Y-97988380D02*
X88273000Y-97512190D01*
X88034904Y-97988380D02*
X88034904Y-96988380D01*
X88415857Y-96988380D01*
X88511095Y-97036000D01*
X88558714Y-97083619D01*
X88606333Y-97178857D01*
X88606333Y-97321714D01*
X88558714Y-97416952D01*
X88511095Y-97464571D01*
X88415857Y-97512190D01*
X88034904Y-97512190D01*
X88939666Y-96988380D02*
X89606333Y-96988380D01*
X89177761Y-97988380D01*
G04 #@! TO.C,R8*
X106370380Y-91733666D02*
X105894190Y-92067000D01*
X106370380Y-92305095D02*
X105370380Y-92305095D01*
X105370380Y-91924142D01*
X105418000Y-91828904D01*
X105465619Y-91781285D01*
X105560857Y-91733666D01*
X105703714Y-91733666D01*
X105798952Y-91781285D01*
X105846571Y-91828904D01*
X105894190Y-91924142D01*
X105894190Y-92305095D01*
X105798952Y-91162238D02*
X105751333Y-91257476D01*
X105703714Y-91305095D01*
X105608476Y-91352714D01*
X105560857Y-91352714D01*
X105465619Y-91305095D01*
X105418000Y-91257476D01*
X105370380Y-91162238D01*
X105370380Y-90971761D01*
X105418000Y-90876523D01*
X105465619Y-90828904D01*
X105560857Y-90781285D01*
X105608476Y-90781285D01*
X105703714Y-90828904D01*
X105751333Y-90876523D01*
X105798952Y-90971761D01*
X105798952Y-91162238D01*
X105846571Y-91257476D01*
X105894190Y-91305095D01*
X105989428Y-91352714D01*
X106179904Y-91352714D01*
X106275142Y-91305095D01*
X106322761Y-91257476D01*
X106370380Y-91162238D01*
X106370380Y-90971761D01*
X106322761Y-90876523D01*
X106275142Y-90828904D01*
X106179904Y-90781285D01*
X105989428Y-90781285D01*
X105894190Y-90828904D01*
X105846571Y-90876523D01*
X105798952Y-90971761D01*
G04 #@! TO.C,R9*
X106370380Y-106465666D02*
X105894190Y-106799000D01*
X106370380Y-107037095D02*
X105370380Y-107037095D01*
X105370380Y-106656142D01*
X105418000Y-106560904D01*
X105465619Y-106513285D01*
X105560857Y-106465666D01*
X105703714Y-106465666D01*
X105798952Y-106513285D01*
X105846571Y-106560904D01*
X105894190Y-106656142D01*
X105894190Y-107037095D01*
X106370380Y-105989476D02*
X106370380Y-105799000D01*
X106322761Y-105703761D01*
X106275142Y-105656142D01*
X106132285Y-105560904D01*
X105941809Y-105513285D01*
X105560857Y-105513285D01*
X105465619Y-105560904D01*
X105418000Y-105608523D01*
X105370380Y-105703761D01*
X105370380Y-105894238D01*
X105418000Y-105989476D01*
X105465619Y-106037095D01*
X105560857Y-106084714D01*
X105798952Y-106084714D01*
X105894190Y-106037095D01*
X105941809Y-105989476D01*
X105989428Y-105894238D01*
X105989428Y-105703761D01*
X105941809Y-105608523D01*
X105894190Y-105560904D01*
X105798952Y-105513285D01*
G04 #@! TO.C,R10*
X120086380Y-94368857D02*
X119610190Y-94702190D01*
X120086380Y-94940285D02*
X119086380Y-94940285D01*
X119086380Y-94559333D01*
X119134000Y-94464095D01*
X119181619Y-94416476D01*
X119276857Y-94368857D01*
X119419714Y-94368857D01*
X119514952Y-94416476D01*
X119562571Y-94464095D01*
X119610190Y-94559333D01*
X119610190Y-94940285D01*
X120086380Y-93416476D02*
X120086380Y-93987904D01*
X120086380Y-93702190D02*
X119086380Y-93702190D01*
X119229238Y-93797428D01*
X119324476Y-93892666D01*
X119372095Y-93987904D01*
X119086380Y-92797428D02*
X119086380Y-92702190D01*
X119134000Y-92606952D01*
X119181619Y-92559333D01*
X119276857Y-92511714D01*
X119467333Y-92464095D01*
X119705428Y-92464095D01*
X119895904Y-92511714D01*
X119991142Y-92559333D01*
X120038761Y-92606952D01*
X120086380Y-92702190D01*
X120086380Y-92797428D01*
X120038761Y-92892666D01*
X119991142Y-92940285D01*
X119895904Y-92987904D01*
X119705428Y-93035523D01*
X119467333Y-93035523D01*
X119276857Y-92987904D01*
X119181619Y-92940285D01*
X119134000Y-92892666D01*
X119086380Y-92797428D01*
G04 #@! TO.C,R11*
X120086380Y-104655857D02*
X119610190Y-104989190D01*
X120086380Y-105227285D02*
X119086380Y-105227285D01*
X119086380Y-104846333D01*
X119134000Y-104751095D01*
X119181619Y-104703476D01*
X119276857Y-104655857D01*
X119419714Y-104655857D01*
X119514952Y-104703476D01*
X119562571Y-104751095D01*
X119610190Y-104846333D01*
X119610190Y-105227285D01*
X120086380Y-103703476D02*
X120086380Y-104274904D01*
X120086380Y-103989190D02*
X119086380Y-103989190D01*
X119229238Y-104084428D01*
X119324476Y-104179666D01*
X119372095Y-104274904D01*
X120086380Y-102751095D02*
X120086380Y-103322523D01*
X120086380Y-103036809D02*
X119086380Y-103036809D01*
X119229238Y-103132047D01*
X119324476Y-103227285D01*
X119372095Y-103322523D01*
G04 #@! TO.C,R12*
X112387142Y-85923380D02*
X112053809Y-85447190D01*
X111815714Y-85923380D02*
X111815714Y-84923380D01*
X112196666Y-84923380D01*
X112291904Y-84971000D01*
X112339523Y-85018619D01*
X112387142Y-85113857D01*
X112387142Y-85256714D01*
X112339523Y-85351952D01*
X112291904Y-85399571D01*
X112196666Y-85447190D01*
X111815714Y-85447190D01*
X113339523Y-85923380D02*
X112768095Y-85923380D01*
X113053809Y-85923380D02*
X113053809Y-84923380D01*
X112958571Y-85066238D01*
X112863333Y-85161476D01*
X112768095Y-85209095D01*
X113720476Y-85018619D02*
X113768095Y-84971000D01*
X113863333Y-84923380D01*
X114101428Y-84923380D01*
X114196666Y-84971000D01*
X114244285Y-85018619D01*
X114291904Y-85113857D01*
X114291904Y-85209095D01*
X114244285Y-85351952D01*
X113672857Y-85923380D01*
X114291904Y-85923380D01*
G04 #@! TO.C,Q1*
X121062761Y-88558619D02*
X120967523Y-88511000D01*
X120872285Y-88415761D01*
X120729428Y-88272904D01*
X120634190Y-88225285D01*
X120538952Y-88225285D01*
X120586571Y-88463380D02*
X120491333Y-88415761D01*
X120396095Y-88320523D01*
X120348476Y-88130047D01*
X120348476Y-87796714D01*
X120396095Y-87606238D01*
X120491333Y-87511000D01*
X120586571Y-87463380D01*
X120777047Y-87463380D01*
X120872285Y-87511000D01*
X120967523Y-87606238D01*
X121015142Y-87796714D01*
X121015142Y-88130047D01*
X120967523Y-88320523D01*
X120872285Y-88415761D01*
X120777047Y-88463380D01*
X120586571Y-88463380D01*
X121967523Y-88463380D02*
X121396095Y-88463380D01*
X121681809Y-88463380D02*
X121681809Y-87463380D01*
X121586571Y-87606238D01*
X121491333Y-87701476D01*
X121396095Y-87749095D01*
G04 #@! TO.C,Q2*
X120681761Y-111164619D02*
X120586523Y-111117000D01*
X120491285Y-111021761D01*
X120348428Y-110878904D01*
X120253190Y-110831285D01*
X120157952Y-110831285D01*
X120205571Y-111069380D02*
X120110333Y-111021761D01*
X120015095Y-110926523D01*
X119967476Y-110736047D01*
X119967476Y-110402714D01*
X120015095Y-110212238D01*
X120110333Y-110117000D01*
X120205571Y-110069380D01*
X120396047Y-110069380D01*
X120491285Y-110117000D01*
X120586523Y-110212238D01*
X120634142Y-110402714D01*
X120634142Y-110736047D01*
X120586523Y-110926523D01*
X120491285Y-111021761D01*
X120396047Y-111069380D01*
X120205571Y-111069380D01*
X121015095Y-110164619D02*
X121062714Y-110117000D01*
X121157952Y-110069380D01*
X121396047Y-110069380D01*
X121491285Y-110117000D01*
X121538904Y-110164619D01*
X121586523Y-110259857D01*
X121586523Y-110355095D01*
X121538904Y-110497952D01*
X120967476Y-111069380D01*
X121586523Y-111069380D01*
G04 #@! TO.C,J2*
X130222666Y-89138380D02*
X130222666Y-89852666D01*
X130175047Y-89995523D01*
X130079809Y-90090761D01*
X129936952Y-90138380D01*
X129841714Y-90138380D01*
X130651238Y-89233619D02*
X130698857Y-89186000D01*
X130794095Y-89138380D01*
X131032190Y-89138380D01*
X131127428Y-89186000D01*
X131175047Y-89233619D01*
X131222666Y-89328857D01*
X131222666Y-89424095D01*
X131175047Y-89566952D01*
X130603619Y-90138380D01*
X131222666Y-90138380D01*
G04 #@! TO.C,U1*
X112268095Y-98512380D02*
X112268095Y-99321904D01*
X112315714Y-99417142D01*
X112363333Y-99464761D01*
X112458571Y-99512380D01*
X112649047Y-99512380D01*
X112744285Y-99464761D01*
X112791904Y-99417142D01*
X112839523Y-99321904D01*
X112839523Y-98512380D01*
X113839523Y-99512380D02*
X113268095Y-99512380D01*
X113553809Y-99512380D02*
X113553809Y-98512380D01*
X113458571Y-98655238D01*
X113363333Y-98750476D01*
X113268095Y-98798095D01*
G04 #@! TO.C,C9*
X103338333Y-97131142D02*
X103290714Y-97178761D01*
X103147857Y-97226380D01*
X103052619Y-97226380D01*
X102909761Y-97178761D01*
X102814523Y-97083523D01*
X102766904Y-96988285D01*
X102719285Y-96797809D01*
X102719285Y-96654952D01*
X102766904Y-96464476D01*
X102814523Y-96369238D01*
X102909761Y-96274000D01*
X103052619Y-96226380D01*
X103147857Y-96226380D01*
X103290714Y-96274000D01*
X103338333Y-96321619D01*
X103814523Y-97226380D02*
X104005000Y-97226380D01*
X104100238Y-97178761D01*
X104147857Y-97131142D01*
X104243095Y-96988285D01*
X104290714Y-96797809D01*
X104290714Y-96416857D01*
X104243095Y-96321619D01*
X104195476Y-96274000D01*
X104100238Y-96226380D01*
X103909761Y-96226380D01*
X103814523Y-96274000D01*
X103766904Y-96321619D01*
X103719285Y-96416857D01*
X103719285Y-96654952D01*
X103766904Y-96750190D01*
X103814523Y-96797809D01*
X103909761Y-96845428D01*
X104100238Y-96845428D01*
X104195476Y-96797809D01*
X104243095Y-96750190D01*
X104290714Y-96654952D01*
G04 #@! TO.C,R6*
X88479333Y-100782380D02*
X88146000Y-100306190D01*
X87907904Y-100782380D02*
X87907904Y-99782380D01*
X88288857Y-99782380D01*
X88384095Y-99830000D01*
X88431714Y-99877619D01*
X88479333Y-99972857D01*
X88479333Y-100115714D01*
X88431714Y-100210952D01*
X88384095Y-100258571D01*
X88288857Y-100306190D01*
X87907904Y-100306190D01*
X89336476Y-99782380D02*
X89146000Y-99782380D01*
X89050761Y-99830000D01*
X89003142Y-99877619D01*
X88907904Y-100020476D01*
X88860285Y-100210952D01*
X88860285Y-100591904D01*
X88907904Y-100687142D01*
X88955523Y-100734761D01*
X89050761Y-100782380D01*
X89241238Y-100782380D01*
X89336476Y-100734761D01*
X89384095Y-100687142D01*
X89431714Y-100591904D01*
X89431714Y-100353809D01*
X89384095Y-100258571D01*
X89336476Y-100210952D01*
X89241238Y-100163333D01*
X89050761Y-100163333D01*
X88955523Y-100210952D01*
X88907904Y-100258571D01*
X88860285Y-100353809D01*
G04 #@! TO.C,J1*
X78406666Y-89138380D02*
X78406666Y-89852666D01*
X78359047Y-89995523D01*
X78263809Y-90090761D01*
X78120952Y-90138380D01*
X78025714Y-90138380D01*
X79406666Y-90138380D02*
X78835238Y-90138380D01*
X79120952Y-90138380D02*
X79120952Y-89138380D01*
X79025714Y-89281238D01*
X78930476Y-89376476D01*
X78835238Y-89424095D01*
G04 #@! TD*
M02*
