G04 #@! TF.GenerationSoftware,KiCad,Pcbnew,(5.0.0-3-g5ebb6b6)*
G04 #@! TF.CreationDate,2018-10-06T14:24:39-07:00*
G04 #@! TF.ProjectId,Mega Amp,4D65676120416D702E6B696361645F70,v0*
G04 #@! TF.SameCoordinates,Original*
G04 #@! TF.FileFunction,Copper,L1,Top,Signal*
G04 #@! TF.FilePolarity,Positive*
%FSLAX46Y46*%
G04 Gerber Fmt 4.6, Leading zero omitted, Abs format (unit mm)*
G04 Created by KiCad (PCBNEW (5.0.0-3-g5ebb6b6)) date Saturday, October 06, 2018 at 02:24:39 PM*
%MOMM*%
%LPD*%
G01*
G04 APERTURE LIST*
G04 #@! TA.AperFunction,ComponentPad*
%ADD10C,4.400000*%
G04 #@! TD*
G04 #@! TA.AperFunction,ComponentPad*
%ADD11O,1.400000X1.400000*%
G04 #@! TD*
G04 #@! TA.AperFunction,ComponentPad*
%ADD12C,1.400000*%
G04 #@! TD*
G04 #@! TA.AperFunction,ComponentPad*
%ADD13C,1.600000*%
G04 #@! TD*
G04 #@! TA.AperFunction,ComponentPad*
%ADD14R,1.600000X1.600000*%
G04 #@! TD*
G04 #@! TA.AperFunction,ComponentPad*
%ADD15R,1.500000X1.050000*%
G04 #@! TD*
G04 #@! TA.AperFunction,ComponentPad*
%ADD16O,1.500000X1.050000*%
G04 #@! TD*
G04 #@! TA.AperFunction,ComponentPad*
%ADD17R,1.700000X1.700000*%
G04 #@! TD*
G04 #@! TA.AperFunction,ComponentPad*
%ADD18O,1.700000X1.700000*%
G04 #@! TD*
G04 #@! TA.AperFunction,ComponentPad*
%ADD19O,1.600000X1.600000*%
G04 #@! TD*
G04 #@! TA.AperFunction,Conductor*
%ADD20C,0.152400*%
G04 #@! TD*
G04 #@! TA.AperFunction,Conductor*
%ADD21C,0.254000*%
G04 #@! TD*
G04 APERTURE END LIST*
D10*
G04 #@! TO.P,REF\002A\002A,1*
G04 #@! TO.N,N/C*
X79629000Y-82423000D03*
G04 #@! TD*
G04 #@! TO.P,REF\002A\002A,1*
G04 #@! TO.N,N/C*
X129667000Y-82423000D03*
G04 #@! TD*
G04 #@! TO.P,REF\002A\002A,1*
G04 #@! TO.N,N/C*
X79629000Y-115062000D03*
G04 #@! TD*
D11*
G04 #@! TO.P,R13,2*
G04 #@! TO.N,+5V*
X109220000Y-88138000D03*
D12*
G04 #@! TO.P,R13,1*
G04 #@! TO.N,Net-(Q1-Pad1)*
X116840000Y-88138000D03*
G04 #@! TD*
G04 #@! TO.P,R14,1*
G04 #@! TO.N,Net-(Q1-Pad3)*
X116840000Y-82650000D03*
D11*
G04 #@! TO.P,R14,2*
G04 #@! TO.N,GND*
X109220000Y-82650000D03*
G04 #@! TD*
G04 #@! TO.P,R15,2*
G04 #@! TO.N,HeadphoneLeft*
X124968000Y-90170000D03*
D12*
G04 #@! TO.P,R15,1*
G04 #@! TO.N,Net-(Q1-Pad3)*
X124968000Y-82550000D03*
G04 #@! TD*
D11*
G04 #@! TO.P,R16,2*
G04 #@! TO.N,Net-(Q2-Pad1)*
X116840000Y-112928400D03*
D12*
G04 #@! TO.P,R16,1*
G04 #@! TO.N,Net-(C11-Pad2)*
X109220000Y-112928400D03*
G04 #@! TD*
G04 #@! TO.P,R17,1*
G04 #@! TO.N,Net-(Q2-Pad1)*
X116840000Y-110032800D03*
D11*
G04 #@! TO.P,R17,2*
G04 #@! TO.N,+5V*
X109220000Y-110032800D03*
G04 #@! TD*
G04 #@! TO.P,R18,2*
G04 #@! TO.N,GND*
X109220000Y-115824000D03*
D12*
G04 #@! TO.P,R18,1*
G04 #@! TO.N,Net-(Q2-Pad3)*
X116840000Y-115824000D03*
G04 #@! TD*
G04 #@! TO.P,R19,1*
G04 #@! TO.N,Net-(Q2-Pad3)*
X124968000Y-115924000D03*
D11*
G04 #@! TO.P,R19,2*
G04 #@! TO.N,HeadphoneRight*
X124968000Y-108304000D03*
G04 #@! TD*
D13*
G04 #@! TO.P,C1,2*
G04 #@! TO.N,Net-(C1-Pad2)*
X90051241Y-84582000D03*
D14*
G04 #@! TO.P,C1,1*
G04 #@! TO.N,YMLeft*
X87551241Y-84582000D03*
G04 #@! TD*
G04 #@! TO.P,C2,1*
G04 #@! TO.N,Net-(C2-Pad1)*
X89916000Y-92202400D03*
D13*
G04 #@! TO.P,C2,2*
G04 #@! TO.N,SN*
X87416000Y-92202400D03*
G04 #@! TD*
D14*
G04 #@! TO.P,C3,1*
G04 #@! TO.N,Net-(C3-Pad1)*
X89916000Y-105663600D03*
D13*
G04 #@! TO.P,C3,2*
G04 #@! TO.N,SN*
X87416000Y-105663600D03*
G04 #@! TD*
G04 #@! TO.P,C4,2*
G04 #@! TO.N,Net-(C4-Pad2)*
X90051241Y-113284000D03*
D14*
G04 #@! TO.P,C4,1*
G04 #@! TO.N,YMRight*
X87551241Y-113284000D03*
G04 #@! TD*
G04 #@! TO.P,C5,1*
G04 #@! TO.N,Net-(C5-Pad1)*
X99314000Y-99314000D03*
D13*
G04 #@! TO.P,C5,2*
G04 #@! TO.N,GND*
X96814000Y-99314000D03*
G04 #@! TD*
G04 #@! TO.P,C6,2*
G04 #@! TO.N,Net-(C6-Pad2)*
X101788666Y-93900000D03*
G04 #@! TO.P,C6,1*
G04 #@! TO.N,RawAudioLeft*
X101788666Y-88900000D03*
G04 #@! TD*
G04 #@! TO.P,C7,1*
G04 #@! TO.N,RawAudioRight*
X101788666Y-109220000D03*
G04 #@! TO.P,C7,2*
G04 #@! TO.N,Net-(C7-Pad2)*
X101788666Y-104220000D03*
G04 #@! TD*
D14*
G04 #@! TO.P,C8,1*
G04 #@! TO.N,Net-(C8-Pad1)*
X123444000Y-99060000D03*
D13*
G04 #@! TO.P,C8,2*
G04 #@! TO.N,Mono*
X125944000Y-99060000D03*
G04 #@! TD*
G04 #@! TO.P,C10,2*
G04 #@! TO.N,Net-(C10-Pad2)*
X103846000Y-83566000D03*
D14*
G04 #@! TO.P,C10,1*
G04 #@! TO.N,RawAudioLeft*
X101346000Y-83566000D03*
G04 #@! TD*
D13*
G04 #@! TO.P,C11,2*
G04 #@! TO.N,Net-(C11-Pad2)*
X103846000Y-114300000D03*
D14*
G04 #@! TO.P,C11,1*
G04 #@! TO.N,RawAudioRight*
X101346000Y-114300000D03*
G04 #@! TD*
D11*
G04 #@! TO.P,R1,2*
G04 #@! TO.N,SN*
X82296000Y-102997000D03*
D12*
G04 #@! TO.P,R1,1*
G04 #@! TO.N,GND*
X82296000Y-95377000D03*
G04 #@! TD*
G04 #@! TO.P,R2,1*
G04 #@! TO.N,Net-(C6-Pad2)*
X97659333Y-93980000D03*
D11*
G04 #@! TO.P,R2,2*
G04 #@! TO.N,Net-(C1-Pad2)*
X97659333Y-86360000D03*
G04 #@! TD*
D12*
G04 #@! TO.P,R3,1*
G04 #@! TO.N,Net-(C6-Pad2)*
X93980000Y-93980000D03*
D11*
G04 #@! TO.P,R3,2*
G04 #@! TO.N,Net-(C2-Pad1)*
X93980000Y-86360000D03*
G04 #@! TD*
D12*
G04 #@! TO.P,R4,1*
G04 #@! TO.N,Net-(C7-Pad2)*
X93980000Y-104394000D03*
D11*
G04 #@! TO.P,R4,2*
G04 #@! TO.N,Net-(C3-Pad1)*
X93980000Y-112014000D03*
G04 #@! TD*
D12*
G04 #@! TO.P,R5,1*
G04 #@! TO.N,Net-(C7-Pad2)*
X97659333Y-104394000D03*
D11*
G04 #@! TO.P,R5,2*
G04 #@! TO.N,Net-(C4-Pad2)*
X97659333Y-112014000D03*
G04 #@! TD*
G04 #@! TO.P,R7,2*
G04 #@! TO.N,Net-(C5-Pad1)*
X84963000Y-97472800D03*
D12*
G04 #@! TO.P,R7,1*
G04 #@! TO.N,GND*
X92583000Y-97472800D03*
G04 #@! TD*
D11*
G04 #@! TO.P,R8,2*
G04 #@! TO.N,Net-(C6-Pad2)*
X105918000Y-95404000D03*
D12*
G04 #@! TO.P,R8,1*
G04 #@! TO.N,RawAudioLeft*
X105918000Y-87784000D03*
G04 #@! TD*
G04 #@! TO.P,R9,1*
G04 #@! TO.N,RawAudioRight*
X105918000Y-110132800D03*
D11*
G04 #@! TO.P,R9,2*
G04 #@! TO.N,Net-(C7-Pad2)*
X105918000Y-102512800D03*
G04 #@! TD*
G04 #@! TO.P,R10,2*
G04 #@! TO.N,Net-(R10-Pad2)*
X119634000Y-89916000D03*
D12*
G04 #@! TO.P,R10,1*
G04 #@! TO.N,Net-(C8-Pad1)*
X119634000Y-97536000D03*
G04 #@! TD*
G04 #@! TO.P,R11,1*
G04 #@! TO.N,Net-(R11-Pad1)*
X119634000Y-107950000D03*
D11*
G04 #@! TO.P,R11,2*
G04 #@! TO.N,Net-(C8-Pad1)*
X119634000Y-100330000D03*
G04 #@! TD*
G04 #@! TO.P,R12,2*
G04 #@! TO.N,Net-(Q1-Pad1)*
X116840000Y-85394000D03*
D12*
G04 #@! TO.P,R12,1*
G04 #@! TO.N,Net-(C10-Pad2)*
X109220000Y-85394000D03*
G04 #@! TD*
D15*
G04 #@! TO.P,Q1,1*
G04 #@! TO.N,Net-(Q1-Pad1)*
X121158000Y-85600000D03*
D16*
G04 #@! TO.P,Q1,3*
G04 #@! TO.N,Net-(Q1-Pad3)*
X121158000Y-83060000D03*
G04 #@! TO.P,Q1,2*
G04 #@! TO.N,Net-(C10-Pad2)*
X121158000Y-84330000D03*
G04 #@! TD*
G04 #@! TO.P,Q2,2*
G04 #@! TO.N,Net-(C11-Pad2)*
X120438000Y-114144000D03*
G04 #@! TO.P,Q2,3*
G04 #@! TO.N,Net-(Q2-Pad3)*
X120438000Y-115414000D03*
D15*
G04 #@! TO.P,Q2,1*
G04 #@! TO.N,Net-(Q2-Pad1)*
X120438000Y-112874000D03*
G04 #@! TD*
D17*
G04 #@! TO.P,J2,1*
G04 #@! TO.N,GND*
X130556000Y-92456000D03*
D18*
G04 #@! TO.P,J2,2*
X130556000Y-94996000D03*
G04 #@! TO.P,J2,3*
G04 #@! TO.N,Mono*
X130556000Y-97536000D03*
G04 #@! TO.P,J2,4*
G04 #@! TO.N,GND*
X130556000Y-100076000D03*
G04 #@! TO.P,J2,5*
G04 #@! TO.N,HeadphoneLeft*
X130556000Y-102616000D03*
G04 #@! TO.P,J2,6*
G04 #@! TO.N,HeadphoneRight*
X130556000Y-105156000D03*
G04 #@! TD*
D14*
G04 #@! TO.P,U1,1*
G04 #@! TO.N,RawAudioLeft*
X109220000Y-91440000D03*
D19*
G04 #@! TO.P,U1,8*
G04 #@! TO.N,Net-(R11-Pad1)*
X116840000Y-106680000D03*
G04 #@! TO.P,U1,2*
G04 #@! TO.N,Net-(C6-Pad2)*
X109220000Y-93980000D03*
G04 #@! TO.P,U1,9*
G04 #@! TO.N,Net-(R11-Pad1)*
X116840000Y-104140000D03*
G04 #@! TO.P,U1,3*
G04 #@! TO.N,Net-(C5-Pad1)*
X109220000Y-96520000D03*
G04 #@! TO.P,U1,10*
G04 #@! TO.N,RawAudioRight*
X116840000Y-101600000D03*
G04 #@! TO.P,U1,4*
G04 #@! TO.N,+5V*
X109220000Y-99060000D03*
G04 #@! TO.P,U1,11*
G04 #@! TO.N,GND*
X116840000Y-99060000D03*
G04 #@! TO.P,U1,5*
G04 #@! TO.N,Net-(C5-Pad1)*
X109220000Y-101600000D03*
G04 #@! TO.P,U1,12*
G04 #@! TO.N,RawAudioLeft*
X116840000Y-96520000D03*
G04 #@! TO.P,U1,6*
G04 #@! TO.N,Net-(C7-Pad2)*
X109220000Y-104140000D03*
G04 #@! TO.P,U1,13*
G04 #@! TO.N,Net-(R10-Pad2)*
X116840000Y-93980000D03*
G04 #@! TO.P,U1,7*
G04 #@! TO.N,RawAudioRight*
X109220000Y-106680000D03*
G04 #@! TO.P,U1,14*
G04 #@! TO.N,Net-(R10-Pad2)*
X116840000Y-91440000D03*
G04 #@! TD*
D13*
G04 #@! TO.P,C9,1*
G04 #@! TO.N,+5V*
X106426000Y-99060000D03*
G04 #@! TO.P,C9,2*
G04 #@! TO.N,GND*
X103926000Y-99060000D03*
G04 #@! TD*
D12*
G04 #@! TO.P,R6,1*
G04 #@! TO.N,Net-(C5-Pad1)*
X84963000Y-100393200D03*
D11*
G04 #@! TO.P,R6,2*
G04 #@! TO.N,+5V*
X92583000Y-100393200D03*
G04 #@! TD*
D18*
G04 #@! TO.P,J1,6*
G04 #@! TO.N,GND*
X78740000Y-105156000D03*
G04 #@! TO.P,J1,5*
G04 #@! TO.N,YMRight*
X78740000Y-102616000D03*
G04 #@! TO.P,J1,4*
G04 #@! TO.N,SN*
X78740000Y-100076000D03*
G04 #@! TO.P,J1,3*
G04 #@! TO.N,YMLeft*
X78740000Y-97536000D03*
G04 #@! TO.P,J1,2*
G04 #@! TO.N,GND*
X78740000Y-94996000D03*
D17*
G04 #@! TO.P,J1,1*
G04 #@! TO.N,+5V*
X78740000Y-92456000D03*
G04 #@! TD*
D10*
G04 #@! TO.P,REF\002A\002A,1*
G04 #@! TO.N,N/C*
X129667000Y-115062000D03*
G04 #@! TD*
D20*
G04 #@! TO.N,Net-(C1-Pad2)*
X96959334Y-85660001D02*
X97659333Y-86360000D01*
X95881333Y-84582000D02*
X96959334Y-85660001D01*
X90051241Y-84582000D02*
X95881333Y-84582000D01*
G04 #@! TO.N,Net-(C2-Pad1)*
X89916000Y-90424000D02*
X93980000Y-86360000D01*
X89916000Y-92202400D02*
X89916000Y-90424000D01*
G04 #@! TO.N,Net-(C3-Pad1)*
X90868400Y-105663600D02*
X89916000Y-105663600D01*
X93980000Y-108775200D02*
X90868400Y-105663600D01*
X93980000Y-112014000D02*
X93980000Y-108775200D01*
G04 #@! TO.N,Net-(C4-Pad2)*
X96389333Y-113284000D02*
X97659333Y-112014000D01*
X90051241Y-113284000D02*
X96389333Y-113284000D01*
G04 #@! TO.N,Net-(C5-Pad1)*
X100266400Y-99314000D02*
X102044400Y-101092000D01*
X99314000Y-99314000D02*
X100266400Y-99314000D01*
X102044400Y-101092000D02*
X107188000Y-101092000D01*
X107696000Y-101600000D02*
X109220000Y-101600000D01*
X107188000Y-101092000D02*
X107696000Y-101600000D01*
X110744000Y-98044000D02*
X109220000Y-96520000D01*
X110744000Y-100076000D02*
X110744000Y-98044000D01*
X109220000Y-101600000D02*
X110744000Y-100076000D01*
X85662999Y-98172799D02*
X84963000Y-97472800D01*
X85662999Y-99693201D02*
X85662999Y-98172799D01*
X84963000Y-100393200D02*
X85662999Y-99693201D01*
X99314000Y-100584000D02*
X99314000Y-99314000D01*
X87159749Y-101600000D02*
X98298000Y-101600000D01*
X85952949Y-100393200D02*
X87159749Y-101600000D01*
X98298000Y-101600000D02*
X99314000Y-100584000D01*
X84963000Y-100393200D02*
X85952949Y-100393200D01*
G04 #@! TO.N,Net-(C6-Pad2)*
X93980000Y-93980000D02*
X97659333Y-93980000D01*
X101708666Y-93980000D02*
X101788666Y-93900000D01*
X97659333Y-93980000D02*
X101708666Y-93980000D01*
X103292666Y-95404000D02*
X105918000Y-95404000D01*
X101788666Y-93900000D02*
X103292666Y-95404000D01*
X107342000Y-93980000D02*
X109220000Y-93980000D01*
X105918000Y-95404000D02*
X107342000Y-93980000D01*
G04 #@! TO.N,Net-(C7-Pad2)*
X93980000Y-104394000D02*
X97659333Y-104394000D01*
X101614666Y-104394000D02*
X101788666Y-104220000D01*
X97659333Y-104394000D02*
X101614666Y-104394000D01*
X103495866Y-102512800D02*
X105918000Y-102512800D01*
X101788666Y-104220000D02*
X103495866Y-102512800D01*
X107592800Y-102512800D02*
X109220000Y-104140000D01*
X105918000Y-102512800D02*
X107592800Y-102512800D01*
G04 #@! TO.N,Net-(C8-Pad1)*
X119634000Y-98525949D02*
X119634000Y-100330000D01*
X119634000Y-97536000D02*
X119634000Y-98525949D01*
X121158000Y-99060000D02*
X119634000Y-97536000D01*
X123444000Y-99060000D02*
X121158000Y-99060000D01*
G04 #@! TO.N,Net-(R10-Pad2)*
X116840000Y-93980000D02*
X116840000Y-91440000D01*
X118364000Y-89916000D02*
X119634000Y-89916000D01*
X116840000Y-91440000D02*
X118364000Y-89916000D01*
G04 #@! TO.N,Net-(R11-Pad1)*
X116840000Y-105271370D02*
X116840000Y-106680000D01*
X116840000Y-104140000D02*
X116840000Y-105271370D01*
X118110000Y-107950000D02*
X119634000Y-107950000D01*
X116840000Y-106680000D02*
X118110000Y-107950000D01*
G04 #@! TO.N,RawAudioLeft*
X105918000Y-88773949D02*
X105918000Y-87784000D01*
X105918000Y-89090400D02*
X105918000Y-88773949D01*
X108267600Y-91440000D02*
X105918000Y-89090400D01*
X109220000Y-91440000D02*
X108267600Y-91440000D01*
X102904666Y-87784000D02*
X105918000Y-87784000D01*
X101788666Y-88900000D02*
X102904666Y-87784000D01*
X101788666Y-84008666D02*
X101346000Y-83566000D01*
X101788666Y-88900000D02*
X101788666Y-84008666D01*
X111760000Y-91440000D02*
X116840000Y-96520000D01*
X109220000Y-91440000D02*
X111760000Y-91440000D01*
G04 #@! TO.N,RawAudioRight*
X101346000Y-109662666D02*
X101788666Y-109220000D01*
X101346000Y-114300000D02*
X101346000Y-109662666D01*
X105005200Y-109220000D02*
X105918000Y-110132800D01*
X101788666Y-109220000D02*
X105005200Y-109220000D01*
X111760000Y-106680000D02*
X116840000Y-101600000D01*
X109220000Y-106680000D02*
X111760000Y-106680000D01*
X109220000Y-106830800D02*
X109220000Y-106680000D01*
X105918000Y-110132800D02*
X109220000Y-106830800D01*
G04 #@! TO.N,Net-(C10-Pad2)*
X107392000Y-83566000D02*
X109220000Y-85394000D01*
X103846000Y-83566000D02*
X107392000Y-83566000D01*
X109919999Y-84694001D02*
X112917999Y-84694001D01*
X109220000Y-85394000D02*
X109919999Y-84694001D01*
X112917999Y-84694001D02*
X113538000Y-84074000D01*
X113538000Y-84074000D02*
X118618000Y-84074000D01*
X118874000Y-84330000D02*
X121158000Y-84330000D01*
X118618000Y-84074000D02*
X118874000Y-84330000D01*
G04 #@! TO.N,Net-(C11-Pad2)*
X105217600Y-112928400D02*
X109220000Y-112928400D01*
X103846000Y-114300000D02*
X105217600Y-112928400D01*
X119535600Y-114144000D02*
X120438000Y-114144000D01*
X111425549Y-114144000D02*
X119535600Y-114144000D01*
X110209949Y-112928400D02*
X111425549Y-114144000D01*
X109220000Y-112928400D02*
X110209949Y-112928400D01*
G04 #@! TO.N,Net-(Q1-Pad1)*
X116840000Y-86383949D02*
X116840000Y-88138000D01*
X116840000Y-85394000D02*
X116840000Y-86383949D01*
X120952000Y-85394000D02*
X121158000Y-85600000D01*
X116840000Y-85394000D02*
X120952000Y-85394000D01*
G04 #@! TO.N,Net-(Q1-Pad3)*
X120748000Y-82650000D02*
X121158000Y-83060000D01*
X116840000Y-82650000D02*
X120748000Y-82650000D01*
X124458000Y-83060000D02*
X124968000Y-82550000D01*
X121158000Y-83060000D02*
X124458000Y-83060000D01*
G04 #@! TO.N,Net-(Q2-Pad3)*
X120028000Y-115824000D02*
X120438000Y-115414000D01*
X116840000Y-115824000D02*
X120028000Y-115824000D01*
X120948000Y-115924000D02*
X120438000Y-115414000D01*
X124968000Y-115924000D02*
X120948000Y-115924000D01*
G04 #@! TO.N,Net-(Q2-Pad1)*
X116894400Y-112874000D02*
X116840000Y-112928400D01*
X120438000Y-112874000D02*
X116894400Y-112874000D01*
X116840000Y-112928400D02*
X116840000Y-110032800D01*
G04 #@! TO.N,HeadphoneRight*
X127408000Y-108304000D02*
X130556000Y-105156000D01*
X124968000Y-108304000D02*
X127408000Y-108304000D01*
G04 #@! TO.N,YMLeft*
X85455641Y-87630000D02*
X87551241Y-85534400D01*
X84328000Y-87630000D02*
X85455641Y-87630000D01*
X80772000Y-91186000D02*
X84328000Y-87630000D01*
X80772000Y-95504000D02*
X80772000Y-91186000D01*
X87551241Y-85534400D02*
X87551241Y-84582000D01*
X78740000Y-97536000D02*
X80772000Y-95504000D01*
G04 #@! TO.N,SN*
X84962600Y-105663600D02*
X87416000Y-105663600D01*
X82296000Y-102997000D02*
X84962600Y-105663600D01*
X79375000Y-100076000D02*
X78740000Y-100076000D01*
X82296000Y-102997000D02*
X79375000Y-100076000D01*
X82296000Y-102007051D02*
X83566000Y-100737051D01*
X82296000Y-102997000D02*
X82296000Y-102007051D01*
X83566000Y-96052400D02*
X87416000Y-92202400D01*
X83566000Y-100737051D02*
X83566000Y-96052400D01*
G04 #@! TO.N,YMRight*
X87551241Y-111427241D02*
X87551241Y-113284000D01*
X78740000Y-102616000D02*
X87551241Y-111427241D01*
G04 #@! TO.N,Mono*
X129032000Y-99060000D02*
X130556000Y-97536000D01*
X125944000Y-99060000D02*
X129032000Y-99060000D01*
G04 #@! TD*
D21*
G04 #@! TO.N,GND*
G36*
X127263603Y-80817101D02*
X126832000Y-81859083D01*
X126832000Y-82986917D01*
X127263603Y-84028899D01*
X128061101Y-84826397D01*
X129103083Y-85258000D01*
X130230917Y-85258000D01*
X131272899Y-84826397D01*
X131878000Y-84221296D01*
X131878000Y-91179975D01*
X131765698Y-91067673D01*
X131532309Y-90971000D01*
X130841750Y-90971000D01*
X130683000Y-91129750D01*
X130683000Y-92329000D01*
X130703000Y-92329000D01*
X130703000Y-92583000D01*
X130683000Y-92583000D01*
X130683000Y-94869000D01*
X130703000Y-94869000D01*
X130703000Y-95123000D01*
X130683000Y-95123000D01*
X130683000Y-95143000D01*
X130429000Y-95143000D01*
X130429000Y-95123000D01*
X129235845Y-95123000D01*
X129114524Y-95352890D01*
X129284355Y-95762924D01*
X129674642Y-96191183D01*
X129804478Y-96252157D01*
X129485375Y-96465375D01*
X129157161Y-96956582D01*
X129041908Y-97536000D01*
X129126241Y-97959971D01*
X128737412Y-98348800D01*
X127202644Y-98348800D01*
X127160534Y-98247138D01*
X126756862Y-97843466D01*
X126229439Y-97625000D01*
X125658561Y-97625000D01*
X125131138Y-97843466D01*
X124862101Y-98112503D01*
X124842157Y-98012235D01*
X124701809Y-97802191D01*
X124491765Y-97661843D01*
X124244000Y-97612560D01*
X122644000Y-97612560D01*
X122396235Y-97661843D01*
X122186191Y-97802191D01*
X122045843Y-98012235D01*
X121996560Y-98260000D01*
X121996560Y-98348800D01*
X121452589Y-98348800D01*
X120950353Y-97846565D01*
X120969000Y-97801548D01*
X120969000Y-97270452D01*
X120765758Y-96779783D01*
X120390217Y-96404242D01*
X119899548Y-96201000D01*
X119368452Y-96201000D01*
X118877783Y-96404242D01*
X118502242Y-96779783D01*
X118299000Y-97270452D01*
X118299000Y-97801548D01*
X118502242Y-98292217D01*
X118877783Y-98667758D01*
X118922800Y-98686405D01*
X118922800Y-99199618D01*
X118671519Y-99367519D01*
X118376458Y-99809109D01*
X118272846Y-100330000D01*
X118376458Y-100850891D01*
X118671519Y-101292481D01*
X119113109Y-101587542D01*
X119502515Y-101665000D01*
X119765485Y-101665000D01*
X120154891Y-101587542D01*
X120596481Y-101292481D01*
X120891542Y-100850891D01*
X120995154Y-100330000D01*
X120891542Y-99809109D01*
X120804875Y-99679402D01*
X120880502Y-99729935D01*
X120880503Y-99729935D01*
X120880504Y-99729936D01*
X121087954Y-99771200D01*
X121087957Y-99771200D01*
X121157999Y-99785132D01*
X121228041Y-99771200D01*
X121996560Y-99771200D01*
X121996560Y-99860000D01*
X122045843Y-100107765D01*
X122186191Y-100317809D01*
X122396235Y-100458157D01*
X122644000Y-100507440D01*
X124244000Y-100507440D01*
X124491765Y-100458157D01*
X124701809Y-100317809D01*
X124842157Y-100107765D01*
X124862101Y-100007497D01*
X125131138Y-100276534D01*
X125658561Y-100495000D01*
X126229439Y-100495000D01*
X126756862Y-100276534D01*
X127160534Y-99872862D01*
X127202644Y-99771200D01*
X128961959Y-99771200D01*
X129032000Y-99785132D01*
X129102041Y-99771200D01*
X129102046Y-99771200D01*
X129138217Y-99764005D01*
X129235845Y-99949000D01*
X130429000Y-99949000D01*
X130429000Y-99929000D01*
X130683000Y-99929000D01*
X130683000Y-99949000D01*
X130703000Y-99949000D01*
X130703000Y-100203000D01*
X130683000Y-100203000D01*
X130683000Y-100223000D01*
X130429000Y-100223000D01*
X130429000Y-100203000D01*
X129235845Y-100203000D01*
X129114524Y-100432890D01*
X129284355Y-100842924D01*
X129674642Y-101271183D01*
X129804478Y-101332157D01*
X129485375Y-101545375D01*
X129157161Y-102036582D01*
X129041908Y-102616000D01*
X129157161Y-103195418D01*
X129485375Y-103686625D01*
X129783761Y-103886000D01*
X129485375Y-104085375D01*
X129157161Y-104576582D01*
X129041908Y-105156000D01*
X129126241Y-105579971D01*
X127113412Y-107592800D01*
X126098382Y-107592800D01*
X125930481Y-107341519D01*
X125488891Y-107046458D01*
X125099485Y-106969000D01*
X124836515Y-106969000D01*
X124447109Y-107046458D01*
X124005519Y-107341519D01*
X123710458Y-107783109D01*
X123606846Y-108304000D01*
X123710458Y-108824891D01*
X124005519Y-109266481D01*
X124447109Y-109561542D01*
X124836515Y-109639000D01*
X125099485Y-109639000D01*
X125488891Y-109561542D01*
X125930481Y-109266481D01*
X126098382Y-109015200D01*
X127337959Y-109015200D01*
X127408000Y-109029132D01*
X127478041Y-109015200D01*
X127478046Y-109015200D01*
X127685496Y-108973936D01*
X127920746Y-108816746D01*
X127960424Y-108757364D01*
X130132029Y-106585759D01*
X130409744Y-106641000D01*
X130702256Y-106641000D01*
X131135418Y-106554839D01*
X131626625Y-106226625D01*
X131878001Y-105850415D01*
X131878001Y-113263705D01*
X131272899Y-112658603D01*
X130230917Y-112227000D01*
X129103083Y-112227000D01*
X128061101Y-112658603D01*
X127263603Y-113456101D01*
X126832000Y-114498083D01*
X126832000Y-115625917D01*
X127263603Y-116667899D01*
X127995704Y-117400000D01*
X81300296Y-117400000D01*
X82032397Y-116667899D01*
X82243881Y-116157329D01*
X107927284Y-116157329D01*
X108070203Y-116502396D01*
X108417337Y-116890764D01*
X108886669Y-117116727D01*
X109093000Y-116994206D01*
X109093000Y-115951000D01*
X109347000Y-115951000D01*
X109347000Y-116994206D01*
X109553331Y-117116727D01*
X110022663Y-116890764D01*
X110369797Y-116502396D01*
X110512716Y-116157329D01*
X110389374Y-115951000D01*
X109347000Y-115951000D01*
X109093000Y-115951000D01*
X108050626Y-115951000D01*
X107927284Y-116157329D01*
X82243881Y-116157329D01*
X82464000Y-115625917D01*
X82464000Y-114498083D01*
X82032397Y-113456101D01*
X81234899Y-112658603D01*
X80192917Y-112227000D01*
X79065083Y-112227000D01*
X78023101Y-112658603D01*
X77418000Y-113263704D01*
X77418000Y-105801349D01*
X77468355Y-105922924D01*
X77858642Y-106351183D01*
X78383108Y-106597486D01*
X78613000Y-106476819D01*
X78613000Y-105283000D01*
X78867000Y-105283000D01*
X78867000Y-106476819D01*
X79096892Y-106597486D01*
X79621358Y-106351183D01*
X80011645Y-105922924D01*
X80181476Y-105512890D01*
X80060155Y-105283000D01*
X78867000Y-105283000D01*
X78613000Y-105283000D01*
X78593000Y-105283000D01*
X78593000Y-105029000D01*
X78613000Y-105029000D01*
X78613000Y-105009000D01*
X78867000Y-105009000D01*
X78867000Y-105029000D01*
X80060155Y-105029000D01*
X80090228Y-104972016D01*
X86840041Y-111721830D01*
X86840041Y-111836560D01*
X86751241Y-111836560D01*
X86503476Y-111885843D01*
X86293432Y-112026191D01*
X86153084Y-112236235D01*
X86103801Y-112484000D01*
X86103801Y-114084000D01*
X86153084Y-114331765D01*
X86293432Y-114541809D01*
X86503476Y-114682157D01*
X86751241Y-114731440D01*
X88351241Y-114731440D01*
X88599006Y-114682157D01*
X88809050Y-114541809D01*
X88949398Y-114331765D01*
X88969342Y-114231497D01*
X89238379Y-114500534D01*
X89765802Y-114719000D01*
X90336680Y-114719000D01*
X90864103Y-114500534D01*
X91267775Y-114096862D01*
X91309885Y-113995200D01*
X96319292Y-113995200D01*
X96389333Y-114009132D01*
X96459374Y-113995200D01*
X96459379Y-113995200D01*
X96666829Y-113953936D01*
X96902079Y-113796746D01*
X96941757Y-113737364D01*
X97362926Y-113316195D01*
X97527848Y-113349000D01*
X97790818Y-113349000D01*
X98180224Y-113271542D01*
X98621814Y-112976481D01*
X98916875Y-112534891D01*
X99020487Y-112014000D01*
X98916875Y-111493109D01*
X98621814Y-111051519D01*
X98180224Y-110756458D01*
X97790818Y-110679000D01*
X97527848Y-110679000D01*
X97138442Y-110756458D01*
X96696852Y-111051519D01*
X96401791Y-111493109D01*
X96298179Y-112014000D01*
X96357138Y-112310407D01*
X96094745Y-112572800D01*
X95212212Y-112572800D01*
X95237542Y-112534891D01*
X95341154Y-112014000D01*
X95237542Y-111493109D01*
X94942481Y-111051519D01*
X94691200Y-110883618D01*
X94691200Y-108845242D01*
X94705132Y-108775200D01*
X94691200Y-108705158D01*
X94691200Y-108705154D01*
X94649936Y-108497704D01*
X94609733Y-108437536D01*
X94532424Y-108321835D01*
X94532422Y-108321833D01*
X94492746Y-108262454D01*
X94433367Y-108222778D01*
X91420823Y-105210235D01*
X91381146Y-105150854D01*
X91363440Y-105139023D01*
X91363440Y-104863600D01*
X91314157Y-104615835D01*
X91173809Y-104405791D01*
X90963765Y-104265443D01*
X90716000Y-104216160D01*
X89116000Y-104216160D01*
X88868235Y-104265443D01*
X88658191Y-104405791D01*
X88517843Y-104615835D01*
X88497899Y-104716103D01*
X88228862Y-104447066D01*
X87701439Y-104228600D01*
X87130561Y-104228600D01*
X86603138Y-104447066D01*
X86199466Y-104850738D01*
X86157356Y-104952400D01*
X85257189Y-104952400D01*
X83598195Y-103293407D01*
X83657154Y-102997000D01*
X83553542Y-102476109D01*
X83264825Y-102044014D01*
X83995332Y-101313507D01*
X84206783Y-101524958D01*
X84697452Y-101728200D01*
X85228548Y-101728200D01*
X85719217Y-101524958D01*
X85899068Y-101345107D01*
X86607327Y-102053367D01*
X86647003Y-102112746D01*
X86706382Y-102152422D01*
X86706384Y-102152424D01*
X86822085Y-102229733D01*
X86882253Y-102269936D01*
X87089703Y-102311200D01*
X87089707Y-102311200D01*
X87159749Y-102325132D01*
X87229791Y-102311200D01*
X98227959Y-102311200D01*
X98298000Y-102325132D01*
X98368041Y-102311200D01*
X98368046Y-102311200D01*
X98575496Y-102269936D01*
X98810746Y-102112746D01*
X98850424Y-102053364D01*
X99767369Y-101136420D01*
X99826745Y-101096746D01*
X99866420Y-101037369D01*
X99866424Y-101037365D01*
X99983935Y-100861497D01*
X99983936Y-100861496D01*
X100003838Y-100761440D01*
X100114000Y-100761440D01*
X100361765Y-100712157D01*
X100539805Y-100593194D01*
X101491978Y-101545367D01*
X101531654Y-101604746D01*
X101591033Y-101644422D01*
X101591035Y-101644424D01*
X101706736Y-101721733D01*
X101766904Y-101761936D01*
X101974354Y-101803200D01*
X101974358Y-101803200D01*
X102044400Y-101817132D01*
X102114442Y-101803200D01*
X103417776Y-101803200D01*
X103218370Y-101842864D01*
X103218369Y-101842865D01*
X103218368Y-101842865D01*
X103042501Y-101960376D01*
X103042499Y-101960378D01*
X102983120Y-102000054D01*
X102943444Y-102059433D01*
X102175767Y-102827110D01*
X102074105Y-102785000D01*
X101503227Y-102785000D01*
X100975804Y-103003466D01*
X100572132Y-103407138D01*
X100457949Y-103682800D01*
X98809738Y-103682800D01*
X98791091Y-103637783D01*
X98415550Y-103262242D01*
X97924881Y-103059000D01*
X97393785Y-103059000D01*
X96903116Y-103262242D01*
X96527575Y-103637783D01*
X96508928Y-103682800D01*
X95130405Y-103682800D01*
X95111758Y-103637783D01*
X94736217Y-103262242D01*
X94245548Y-103059000D01*
X93714452Y-103059000D01*
X93223783Y-103262242D01*
X92848242Y-103637783D01*
X92645000Y-104128452D01*
X92645000Y-104659548D01*
X92848242Y-105150217D01*
X93223783Y-105525758D01*
X93714452Y-105729000D01*
X94245548Y-105729000D01*
X94736217Y-105525758D01*
X95111758Y-105150217D01*
X95130405Y-105105200D01*
X96508928Y-105105200D01*
X96527575Y-105150217D01*
X96903116Y-105525758D01*
X97393785Y-105729000D01*
X97924881Y-105729000D01*
X98415550Y-105525758D01*
X98791091Y-105150217D01*
X98809738Y-105105200D01*
X100644470Y-105105200D01*
X100975804Y-105436534D01*
X101503227Y-105655000D01*
X102074105Y-105655000D01*
X102601528Y-105436534D01*
X103005200Y-105032862D01*
X103223666Y-104505439D01*
X103223666Y-103934561D01*
X103181556Y-103832899D01*
X103790455Y-103224000D01*
X104787618Y-103224000D01*
X104955519Y-103475281D01*
X105397109Y-103770342D01*
X105786515Y-103847800D01*
X106049485Y-103847800D01*
X106438891Y-103770342D01*
X106880481Y-103475281D01*
X107048382Y-103224000D01*
X107298212Y-103224000D01*
X107832762Y-103758551D01*
X107756887Y-104140000D01*
X107868260Y-104699909D01*
X108185423Y-105174577D01*
X108537758Y-105410000D01*
X108185423Y-105645423D01*
X107868260Y-106120091D01*
X107756887Y-106680000D01*
X107857781Y-107187230D01*
X106228565Y-108816447D01*
X106183548Y-108797800D01*
X105652452Y-108797800D01*
X105607435Y-108816447D01*
X105557624Y-108766636D01*
X105517946Y-108707254D01*
X105282696Y-108550064D01*
X105075246Y-108508800D01*
X105075241Y-108508800D01*
X105005200Y-108494868D01*
X104935159Y-108508800D01*
X103047310Y-108508800D01*
X103005200Y-108407138D01*
X102601528Y-108003466D01*
X102074105Y-107785000D01*
X101503227Y-107785000D01*
X100975804Y-108003466D01*
X100572132Y-108407138D01*
X100353666Y-108934561D01*
X100353666Y-109505439D01*
X100572132Y-110032862D01*
X100634801Y-110095531D01*
X100634800Y-112852560D01*
X100546000Y-112852560D01*
X100298235Y-112901843D01*
X100088191Y-113042191D01*
X99947843Y-113252235D01*
X99898560Y-113500000D01*
X99898560Y-115100000D01*
X99947843Y-115347765D01*
X100088191Y-115557809D01*
X100298235Y-115698157D01*
X100546000Y-115747440D01*
X102146000Y-115747440D01*
X102393765Y-115698157D01*
X102603809Y-115557809D01*
X102744157Y-115347765D01*
X102764101Y-115247497D01*
X103033138Y-115516534D01*
X103560561Y-115735000D01*
X104131439Y-115735000D01*
X104658862Y-115516534D01*
X104684725Y-115490671D01*
X107927284Y-115490671D01*
X108050626Y-115697000D01*
X109093000Y-115697000D01*
X109093000Y-114653794D01*
X109347000Y-114653794D01*
X109347000Y-115697000D01*
X110389374Y-115697000D01*
X110512716Y-115490671D01*
X110369797Y-115145604D01*
X110022663Y-114757236D01*
X109553331Y-114531273D01*
X109347000Y-114653794D01*
X109093000Y-114653794D01*
X108886669Y-114531273D01*
X108417337Y-114757236D01*
X108070203Y-115145604D01*
X107927284Y-115490671D01*
X104684725Y-115490671D01*
X105062534Y-115112862D01*
X105281000Y-114585439D01*
X105281000Y-114014561D01*
X105238890Y-113912899D01*
X105512189Y-113639600D01*
X108069595Y-113639600D01*
X108088242Y-113684617D01*
X108463783Y-114060158D01*
X108954452Y-114263400D01*
X109485548Y-114263400D01*
X109976217Y-114060158D01*
X110156068Y-113880307D01*
X110873127Y-114597367D01*
X110912803Y-114656746D01*
X110972182Y-114696422D01*
X110972184Y-114696424D01*
X111043484Y-114744065D01*
X111148053Y-114813936D01*
X111355503Y-114855200D01*
X111355507Y-114855200D01*
X111425548Y-114869132D01*
X111495590Y-114855200D01*
X115920825Y-114855200D01*
X115708242Y-115067783D01*
X115505000Y-115558452D01*
X115505000Y-116089548D01*
X115708242Y-116580217D01*
X116083783Y-116955758D01*
X116574452Y-117159000D01*
X117105548Y-117159000D01*
X117596217Y-116955758D01*
X117971758Y-116580217D01*
X117990405Y-116535200D01*
X119903694Y-116535200D01*
X120098754Y-116574000D01*
X120640668Y-116574000D01*
X120670504Y-116593936D01*
X120877954Y-116635200D01*
X120877958Y-116635200D01*
X120948000Y-116649132D01*
X121018042Y-116635200D01*
X123817595Y-116635200D01*
X123836242Y-116680217D01*
X124211783Y-117055758D01*
X124702452Y-117259000D01*
X125233548Y-117259000D01*
X125724217Y-117055758D01*
X126099758Y-116680217D01*
X126303000Y-116189548D01*
X126303000Y-115658452D01*
X126099758Y-115167783D01*
X125724217Y-114792242D01*
X125233548Y-114589000D01*
X124702452Y-114589000D01*
X124211783Y-114792242D01*
X123836242Y-115167783D01*
X123817595Y-115212800D01*
X121805704Y-115212800D01*
X121755695Y-114961391D01*
X121633826Y-114779000D01*
X121755695Y-114596609D01*
X121845725Y-114144000D01*
X121755843Y-113692133D01*
X121786157Y-113646765D01*
X121835440Y-113399000D01*
X121835440Y-112349000D01*
X121786157Y-112101235D01*
X121645809Y-111891191D01*
X121435765Y-111750843D01*
X121188000Y-111701560D01*
X119688000Y-111701560D01*
X119440235Y-111750843D01*
X119230191Y-111891191D01*
X119089843Y-112101235D01*
X119077597Y-112162800D01*
X117934033Y-112162800D01*
X117802481Y-111965919D01*
X117551200Y-111798018D01*
X117551200Y-111183205D01*
X117596217Y-111164558D01*
X117971758Y-110789017D01*
X118175000Y-110298348D01*
X118175000Y-109767252D01*
X117971758Y-109276583D01*
X117596217Y-108901042D01*
X117105548Y-108697800D01*
X116574452Y-108697800D01*
X116083783Y-108901042D01*
X115708242Y-109276583D01*
X115505000Y-109767252D01*
X115505000Y-110298348D01*
X115708242Y-110789017D01*
X116083783Y-111164558D01*
X116128801Y-111183205D01*
X116128800Y-111798018D01*
X115877519Y-111965919D01*
X115582458Y-112407509D01*
X115478846Y-112928400D01*
X115579178Y-113432800D01*
X111720138Y-113432800D01*
X110762373Y-112475036D01*
X110722695Y-112415654D01*
X110487445Y-112258464D01*
X110378523Y-112236798D01*
X110351758Y-112172183D01*
X109976217Y-111796642D01*
X109485548Y-111593400D01*
X108954452Y-111593400D01*
X108463783Y-111796642D01*
X108088242Y-112172183D01*
X108069595Y-112217200D01*
X105287641Y-112217200D01*
X105217599Y-112203268D01*
X105147557Y-112217200D01*
X105147554Y-112217200D01*
X104940104Y-112258464D01*
X104940103Y-112258465D01*
X104940102Y-112258465D01*
X104764235Y-112375976D01*
X104764233Y-112375978D01*
X104704854Y-112415654D01*
X104665178Y-112475033D01*
X104233101Y-112907110D01*
X104131439Y-112865000D01*
X103560561Y-112865000D01*
X103033138Y-113083466D01*
X102764101Y-113352503D01*
X102744157Y-113252235D01*
X102603809Y-113042191D01*
X102393765Y-112901843D01*
X102146000Y-112852560D01*
X102057200Y-112852560D01*
X102057200Y-110655000D01*
X102074105Y-110655000D01*
X102601528Y-110436534D01*
X103005200Y-110032862D01*
X103047310Y-109931200D01*
X104583000Y-109931200D01*
X104583000Y-110398348D01*
X104786242Y-110889017D01*
X105161783Y-111264558D01*
X105652452Y-111467800D01*
X106183548Y-111467800D01*
X106674217Y-111264558D01*
X107049758Y-110889017D01*
X107253000Y-110398348D01*
X107253000Y-110032800D01*
X107858846Y-110032800D01*
X107962458Y-110553691D01*
X108257519Y-110995281D01*
X108699109Y-111290342D01*
X109088515Y-111367800D01*
X109351485Y-111367800D01*
X109740891Y-111290342D01*
X110182481Y-110995281D01*
X110477542Y-110553691D01*
X110581154Y-110032800D01*
X110477542Y-109511909D01*
X110182481Y-109070319D01*
X109740891Y-108775258D01*
X109351485Y-108697800D01*
X109088515Y-108697800D01*
X108699109Y-108775258D01*
X108257519Y-109070319D01*
X107962458Y-109511909D01*
X107858846Y-110032800D01*
X107253000Y-110032800D01*
X107253000Y-109867252D01*
X107234353Y-109822235D01*
X108964332Y-108092257D01*
X109078667Y-108115000D01*
X109361333Y-108115000D01*
X109779909Y-108031740D01*
X110254577Y-107714577D01*
X110470651Y-107391200D01*
X111689959Y-107391200D01*
X111760000Y-107405132D01*
X111830041Y-107391200D01*
X111830046Y-107391200D01*
X112037496Y-107349936D01*
X112272746Y-107192746D01*
X112312424Y-107133364D01*
X115394541Y-104051248D01*
X115376887Y-104140000D01*
X115488260Y-104699909D01*
X115805423Y-105174577D01*
X116128800Y-105390651D01*
X116128800Y-105429349D01*
X115805423Y-105645423D01*
X115488260Y-106120091D01*
X115376887Y-106680000D01*
X115488260Y-107239909D01*
X115805423Y-107714577D01*
X116280091Y-108031740D01*
X116698667Y-108115000D01*
X116981333Y-108115000D01*
X117221449Y-108067238D01*
X117557578Y-108403367D01*
X117597254Y-108462746D01*
X117656633Y-108502422D01*
X117656635Y-108502424D01*
X117832502Y-108619935D01*
X117832503Y-108619935D01*
X117832504Y-108619936D01*
X118039954Y-108661200D01*
X118039957Y-108661200D01*
X118109999Y-108675132D01*
X118180041Y-108661200D01*
X118483595Y-108661200D01*
X118502242Y-108706217D01*
X118877783Y-109081758D01*
X119368452Y-109285000D01*
X119899548Y-109285000D01*
X120390217Y-109081758D01*
X120765758Y-108706217D01*
X120969000Y-108215548D01*
X120969000Y-107684452D01*
X120765758Y-107193783D01*
X120390217Y-106818242D01*
X119899548Y-106615000D01*
X119368452Y-106615000D01*
X118877783Y-106818242D01*
X118502242Y-107193783D01*
X118483595Y-107238800D01*
X118404589Y-107238800D01*
X118227238Y-107061449D01*
X118303113Y-106680000D01*
X118191740Y-106120091D01*
X117874577Y-105645423D01*
X117551200Y-105429349D01*
X117551200Y-105390651D01*
X117874577Y-105174577D01*
X118191740Y-104699909D01*
X118303113Y-104140000D01*
X118191740Y-103580091D01*
X117874577Y-103105423D01*
X117522242Y-102870000D01*
X117874577Y-102634577D01*
X118191740Y-102159909D01*
X118303113Y-101600000D01*
X118191740Y-101040091D01*
X117874577Y-100565423D01*
X117490892Y-100309053D01*
X117695134Y-100212389D01*
X118071041Y-99797423D01*
X118231904Y-99409039D01*
X118109915Y-99187000D01*
X116967000Y-99187000D01*
X116967000Y-99207000D01*
X116713000Y-99207000D01*
X116713000Y-99187000D01*
X115570085Y-99187000D01*
X115448096Y-99409039D01*
X115608959Y-99797423D01*
X115984866Y-100212389D01*
X116189108Y-100309053D01*
X115805423Y-100565423D01*
X115488260Y-101040091D01*
X115376887Y-101600000D01*
X115452762Y-101981449D01*
X111465412Y-105968800D01*
X110470651Y-105968800D01*
X110254577Y-105645423D01*
X109902242Y-105410000D01*
X110254577Y-105174577D01*
X110571740Y-104699909D01*
X110683113Y-104140000D01*
X110571740Y-103580091D01*
X110254577Y-103105423D01*
X109902242Y-102870000D01*
X110254577Y-102634577D01*
X110571740Y-102159909D01*
X110683113Y-101600000D01*
X110607238Y-101218551D01*
X111197369Y-100628420D01*
X111256745Y-100588746D01*
X111296420Y-100529369D01*
X111296424Y-100529365D01*
X111413935Y-100353498D01*
X111413935Y-100353497D01*
X111413936Y-100353496D01*
X111455200Y-100146046D01*
X111455200Y-100146043D01*
X111469132Y-100076001D01*
X111455200Y-100005959D01*
X111455200Y-98114041D01*
X111469132Y-98043999D01*
X111455200Y-97973957D01*
X111455200Y-97973954D01*
X111413936Y-97766504D01*
X111382485Y-97719434D01*
X111296424Y-97590635D01*
X111296422Y-97590633D01*
X111256746Y-97531254D01*
X111197367Y-97491578D01*
X110607238Y-96901449D01*
X110683113Y-96520000D01*
X110571740Y-95960091D01*
X110254577Y-95485423D01*
X109902242Y-95250000D01*
X110254577Y-95014577D01*
X110571740Y-94539909D01*
X110683113Y-93980000D01*
X110571740Y-93420091D01*
X110254577Y-92945423D01*
X110133894Y-92864785D01*
X110267765Y-92838157D01*
X110477809Y-92697809D01*
X110618157Y-92487765D01*
X110667440Y-92240000D01*
X110667440Y-92151200D01*
X111465412Y-92151200D01*
X115452762Y-96138551D01*
X115376887Y-96520000D01*
X115488260Y-97079909D01*
X115805423Y-97554577D01*
X116189108Y-97810947D01*
X115984866Y-97907611D01*
X115608959Y-98322577D01*
X115448096Y-98710961D01*
X115570085Y-98933000D01*
X116713000Y-98933000D01*
X116713000Y-98913000D01*
X116967000Y-98913000D01*
X116967000Y-98933000D01*
X118109915Y-98933000D01*
X118231904Y-98710961D01*
X118071041Y-98322577D01*
X117695134Y-97907611D01*
X117490892Y-97810947D01*
X117874577Y-97554577D01*
X118191740Y-97079909D01*
X118303113Y-96520000D01*
X118191740Y-95960091D01*
X117874577Y-95485423D01*
X117522242Y-95250000D01*
X117874577Y-95014577D01*
X118191740Y-94539909D01*
X118303113Y-93980000D01*
X118191740Y-93420091D01*
X117874577Y-92945423D01*
X117569760Y-92741750D01*
X129071000Y-92741750D01*
X129071000Y-93432310D01*
X129167673Y-93665699D01*
X129346302Y-93844327D01*
X129555878Y-93931136D01*
X129284355Y-94229076D01*
X129114524Y-94639110D01*
X129235845Y-94869000D01*
X130429000Y-94869000D01*
X130429000Y-92583000D01*
X129229750Y-92583000D01*
X129071000Y-92741750D01*
X117569760Y-92741750D01*
X117551200Y-92729349D01*
X117551200Y-92690651D01*
X117874577Y-92474577D01*
X118191740Y-91999909D01*
X118303113Y-91440000D01*
X118227238Y-91058551D01*
X118565691Y-90720098D01*
X118671519Y-90878481D01*
X119113109Y-91173542D01*
X119502515Y-91251000D01*
X119765485Y-91251000D01*
X120154891Y-91173542D01*
X120596481Y-90878481D01*
X120891542Y-90436891D01*
X120944630Y-90170000D01*
X123606846Y-90170000D01*
X123710458Y-90690891D01*
X124005519Y-91132481D01*
X124447109Y-91427542D01*
X124836515Y-91505000D01*
X125099485Y-91505000D01*
X125226726Y-91479690D01*
X129071000Y-91479690D01*
X129071000Y-92170250D01*
X129229750Y-92329000D01*
X130429000Y-92329000D01*
X130429000Y-91129750D01*
X130270250Y-90971000D01*
X129579691Y-90971000D01*
X129346302Y-91067673D01*
X129167673Y-91246301D01*
X129071000Y-91479690D01*
X125226726Y-91479690D01*
X125488891Y-91427542D01*
X125930481Y-91132481D01*
X126225542Y-90690891D01*
X126329154Y-90170000D01*
X126225542Y-89649109D01*
X125930481Y-89207519D01*
X125488891Y-88912458D01*
X125099485Y-88835000D01*
X124836515Y-88835000D01*
X124447109Y-88912458D01*
X124005519Y-89207519D01*
X123710458Y-89649109D01*
X123606846Y-90170000D01*
X120944630Y-90170000D01*
X120995154Y-89916000D01*
X120891542Y-89395109D01*
X120596481Y-88953519D01*
X120154891Y-88658458D01*
X119765485Y-88581000D01*
X119502515Y-88581000D01*
X119113109Y-88658458D01*
X118671519Y-88953519D01*
X118503618Y-89204800D01*
X118434041Y-89204800D01*
X118363999Y-89190868D01*
X118293957Y-89204800D01*
X118293954Y-89204800D01*
X118086504Y-89246064D01*
X118086503Y-89246065D01*
X118086502Y-89246065D01*
X117910635Y-89363576D01*
X117910633Y-89363578D01*
X117851254Y-89403254D01*
X117811578Y-89462633D01*
X117221449Y-90052762D01*
X116981333Y-90005000D01*
X116698667Y-90005000D01*
X116280091Y-90088260D01*
X115805423Y-90405423D01*
X115488260Y-90880091D01*
X115376887Y-91440000D01*
X115488260Y-91999909D01*
X115805423Y-92474577D01*
X116128801Y-92690651D01*
X116128800Y-92729349D01*
X115805423Y-92945423D01*
X115488260Y-93420091D01*
X115376887Y-93980000D01*
X115394541Y-94068752D01*
X112312423Y-90986635D01*
X112272746Y-90927254D01*
X112037496Y-90770064D01*
X111830046Y-90728800D01*
X111830041Y-90728800D01*
X111760000Y-90714868D01*
X111689959Y-90728800D01*
X110667440Y-90728800D01*
X110667440Y-90640000D01*
X110618157Y-90392235D01*
X110477809Y-90182191D01*
X110267765Y-90041843D01*
X110020000Y-89992560D01*
X108420000Y-89992560D01*
X108172235Y-90041843D01*
X107994195Y-90160806D01*
X106711682Y-88878293D01*
X107049758Y-88540217D01*
X107216361Y-88138000D01*
X107858846Y-88138000D01*
X107962458Y-88658891D01*
X108257519Y-89100481D01*
X108699109Y-89395542D01*
X109088515Y-89473000D01*
X109351485Y-89473000D01*
X109740891Y-89395542D01*
X110182481Y-89100481D01*
X110477542Y-88658891D01*
X110581154Y-88138000D01*
X110477542Y-87617109D01*
X110182481Y-87175519D01*
X109740891Y-86880458D01*
X109351485Y-86803000D01*
X109088515Y-86803000D01*
X108699109Y-86880458D01*
X108257519Y-87175519D01*
X107962458Y-87617109D01*
X107858846Y-88138000D01*
X107216361Y-88138000D01*
X107253000Y-88049548D01*
X107253000Y-87518452D01*
X107049758Y-87027783D01*
X106674217Y-86652242D01*
X106183548Y-86449000D01*
X105652452Y-86449000D01*
X105161783Y-86652242D01*
X104786242Y-87027783D01*
X104767595Y-87072800D01*
X102974707Y-87072800D01*
X102904665Y-87058868D01*
X102834623Y-87072800D01*
X102834620Y-87072800D01*
X102627170Y-87114064D01*
X102627169Y-87114065D01*
X102627168Y-87114065D01*
X102499866Y-87199126D01*
X102499866Y-84893262D01*
X102603809Y-84823809D01*
X102744157Y-84613765D01*
X102764101Y-84513497D01*
X103033138Y-84782534D01*
X103560561Y-85001000D01*
X104131439Y-85001000D01*
X104658862Y-84782534D01*
X105062534Y-84378862D01*
X105104644Y-84277200D01*
X107097412Y-84277200D01*
X107903647Y-85083435D01*
X107885000Y-85128452D01*
X107885000Y-85659548D01*
X108088242Y-86150217D01*
X108463783Y-86525758D01*
X108954452Y-86729000D01*
X109485548Y-86729000D01*
X109976217Y-86525758D01*
X110351758Y-86150217D01*
X110555000Y-85659548D01*
X110555000Y-85405201D01*
X112847958Y-85405201D01*
X112917999Y-85419133D01*
X112988040Y-85405201D01*
X112988045Y-85405201D01*
X113195495Y-85363937D01*
X113430745Y-85206747D01*
X113470423Y-85147365D01*
X113832589Y-84785200D01*
X115641197Y-84785200D01*
X115582458Y-84873109D01*
X115478846Y-85394000D01*
X115582458Y-85914891D01*
X115877519Y-86356481D01*
X116128800Y-86524382D01*
X116128800Y-86987595D01*
X116083783Y-87006242D01*
X115708242Y-87381783D01*
X115505000Y-87872452D01*
X115505000Y-88403548D01*
X115708242Y-88894217D01*
X116083783Y-89269758D01*
X116574452Y-89473000D01*
X117105548Y-89473000D01*
X117596217Y-89269758D01*
X117971758Y-88894217D01*
X118175000Y-88403548D01*
X118175000Y-87872452D01*
X117971758Y-87381783D01*
X117596217Y-87006242D01*
X117551200Y-86987595D01*
X117551200Y-86524382D01*
X117802481Y-86356481D01*
X117970382Y-86105200D01*
X119760560Y-86105200D01*
X119760560Y-86125000D01*
X119809843Y-86372765D01*
X119950191Y-86582809D01*
X120160235Y-86723157D01*
X120408000Y-86772440D01*
X121908000Y-86772440D01*
X122155765Y-86723157D01*
X122365809Y-86582809D01*
X122506157Y-86372765D01*
X122555440Y-86125000D01*
X122555440Y-85075000D01*
X122506157Y-84827235D01*
X122475843Y-84781867D01*
X122565725Y-84330000D01*
X122475695Y-83877391D01*
X122404741Y-83771200D01*
X124387959Y-83771200D01*
X124458000Y-83785132D01*
X124460263Y-83784682D01*
X124702452Y-83885000D01*
X125233548Y-83885000D01*
X125724217Y-83681758D01*
X126099758Y-83306217D01*
X126303000Y-82815548D01*
X126303000Y-82284452D01*
X126099758Y-81793783D01*
X125724217Y-81418242D01*
X125233548Y-81215000D01*
X124702452Y-81215000D01*
X124211783Y-81418242D01*
X123836242Y-81793783D01*
X123633000Y-82284452D01*
X123633000Y-82348800D01*
X122302911Y-82348800D01*
X122219313Y-82223687D01*
X121835609Y-81967305D01*
X121497246Y-81900000D01*
X120818754Y-81900000D01*
X120623694Y-81938800D01*
X117990405Y-81938800D01*
X117971758Y-81893783D01*
X117596217Y-81518242D01*
X117105548Y-81315000D01*
X116574452Y-81315000D01*
X116083783Y-81518242D01*
X115708242Y-81893783D01*
X115505000Y-82384452D01*
X115505000Y-82915548D01*
X115690258Y-83362800D01*
X113608042Y-83362800D01*
X113538000Y-83348868D01*
X113467958Y-83362800D01*
X113467954Y-83362800D01*
X113260504Y-83404064D01*
X113260502Y-83404065D01*
X113260503Y-83404065D01*
X113084635Y-83521576D01*
X113084633Y-83521578D01*
X113025254Y-83561254D01*
X112985578Y-83620633D01*
X112623411Y-83982801D01*
X109990040Y-83982801D01*
X109919998Y-83968869D01*
X109849956Y-83982801D01*
X109849953Y-83982801D01*
X109642503Y-84024065D01*
X109642502Y-84024066D01*
X109642501Y-84024066D01*
X109550163Y-84085764D01*
X109485548Y-84059000D01*
X108954452Y-84059000D01*
X108909435Y-84077647D01*
X108670383Y-83838595D01*
X108886669Y-83942727D01*
X109093000Y-83820206D01*
X109093000Y-82777000D01*
X109347000Y-82777000D01*
X109347000Y-83820206D01*
X109553331Y-83942727D01*
X110022663Y-83716764D01*
X110369797Y-83328396D01*
X110512716Y-82983329D01*
X110389374Y-82777000D01*
X109347000Y-82777000D01*
X109093000Y-82777000D01*
X108050626Y-82777000D01*
X107927284Y-82983329D01*
X108006586Y-83174798D01*
X107944424Y-83112636D01*
X107904746Y-83053254D01*
X107669496Y-82896064D01*
X107462046Y-82854800D01*
X107462041Y-82854800D01*
X107392000Y-82840868D01*
X107321959Y-82854800D01*
X105104644Y-82854800D01*
X105062534Y-82753138D01*
X104658862Y-82349466D01*
X104579688Y-82316671D01*
X107927284Y-82316671D01*
X108050626Y-82523000D01*
X109093000Y-82523000D01*
X109093000Y-81479794D01*
X109347000Y-81479794D01*
X109347000Y-82523000D01*
X110389374Y-82523000D01*
X110512716Y-82316671D01*
X110369797Y-81971604D01*
X110022663Y-81583236D01*
X109553331Y-81357273D01*
X109347000Y-81479794D01*
X109093000Y-81479794D01*
X108886669Y-81357273D01*
X108417337Y-81583236D01*
X108070203Y-81971604D01*
X107927284Y-82316671D01*
X104579688Y-82316671D01*
X104131439Y-82131000D01*
X103560561Y-82131000D01*
X103033138Y-82349466D01*
X102764101Y-82618503D01*
X102744157Y-82518235D01*
X102603809Y-82308191D01*
X102393765Y-82167843D01*
X102146000Y-82118560D01*
X100546000Y-82118560D01*
X100298235Y-82167843D01*
X100088191Y-82308191D01*
X99947843Y-82518235D01*
X99898560Y-82766000D01*
X99898560Y-84366000D01*
X99947843Y-84613765D01*
X100088191Y-84823809D01*
X100298235Y-84964157D01*
X100546000Y-85013440D01*
X101077467Y-85013440D01*
X101077466Y-87641356D01*
X100975804Y-87683466D01*
X100572132Y-88087138D01*
X100353666Y-88614561D01*
X100353666Y-89185439D01*
X100572132Y-89712862D01*
X100975804Y-90116534D01*
X101503227Y-90335000D01*
X102074105Y-90335000D01*
X102601528Y-90116534D01*
X103005200Y-89712862D01*
X103223666Y-89185439D01*
X103223666Y-88614561D01*
X103181556Y-88512899D01*
X103199255Y-88495200D01*
X104767595Y-88495200D01*
X104786242Y-88540217D01*
X105161783Y-88915758D01*
X105206800Y-88934405D01*
X105206800Y-89020359D01*
X105192868Y-89090400D01*
X105206800Y-89160441D01*
X105206800Y-89160445D01*
X105248064Y-89367895D01*
X105248065Y-89367896D01*
X105365576Y-89543764D01*
X105365578Y-89543766D01*
X105405254Y-89603145D01*
X105464634Y-89642822D01*
X107715178Y-91893367D01*
X107754854Y-91952746D01*
X107772560Y-91964577D01*
X107772560Y-92240000D01*
X107821843Y-92487765D01*
X107962191Y-92697809D01*
X108172235Y-92838157D01*
X108306106Y-92864785D01*
X108185423Y-92945423D01*
X107969349Y-93268800D01*
X107412041Y-93268800D01*
X107341999Y-93254868D01*
X107271957Y-93268800D01*
X107271954Y-93268800D01*
X107064504Y-93310064D01*
X107064503Y-93310065D01*
X107064502Y-93310065D01*
X106888635Y-93427576D01*
X106888633Y-93427578D01*
X106829254Y-93467254D01*
X106789578Y-93526633D01*
X106214406Y-94101805D01*
X106049485Y-94069000D01*
X105786515Y-94069000D01*
X105397109Y-94146458D01*
X104955519Y-94441519D01*
X104787618Y-94692800D01*
X103587255Y-94692800D01*
X103181556Y-94287101D01*
X103223666Y-94185439D01*
X103223666Y-93614561D01*
X103005200Y-93087138D01*
X102601528Y-92683466D01*
X102074105Y-92465000D01*
X101503227Y-92465000D01*
X100975804Y-92683466D01*
X100572132Y-93087138D01*
X100496885Y-93268800D01*
X98809738Y-93268800D01*
X98791091Y-93223783D01*
X98415550Y-92848242D01*
X97924881Y-92645000D01*
X97393785Y-92645000D01*
X96903116Y-92848242D01*
X96527575Y-93223783D01*
X96508928Y-93268800D01*
X95130405Y-93268800D01*
X95111758Y-93223783D01*
X94736217Y-92848242D01*
X94245548Y-92645000D01*
X93714452Y-92645000D01*
X93223783Y-92848242D01*
X92848242Y-93223783D01*
X92645000Y-93714452D01*
X92645000Y-94245548D01*
X92848242Y-94736217D01*
X93223783Y-95111758D01*
X93714452Y-95315000D01*
X94245548Y-95315000D01*
X94736217Y-95111758D01*
X95111758Y-94736217D01*
X95130405Y-94691200D01*
X96508928Y-94691200D01*
X96527575Y-94736217D01*
X96903116Y-95111758D01*
X97393785Y-95315000D01*
X97924881Y-95315000D01*
X98415550Y-95111758D01*
X98791091Y-94736217D01*
X98809738Y-94691200D01*
X100563159Y-94691200D01*
X100572132Y-94712862D01*
X100975804Y-95116534D01*
X101503227Y-95335000D01*
X102074105Y-95335000D01*
X102175767Y-95292890D01*
X102740244Y-95857367D01*
X102779920Y-95916746D01*
X102839299Y-95956422D01*
X102839301Y-95956424D01*
X103015168Y-96073935D01*
X103015169Y-96073935D01*
X103015170Y-96073936D01*
X103222620Y-96115200D01*
X103222623Y-96115200D01*
X103292665Y-96129132D01*
X103362707Y-96115200D01*
X104787618Y-96115200D01*
X104955519Y-96366481D01*
X105397109Y-96661542D01*
X105786515Y-96739000D01*
X106049485Y-96739000D01*
X106438891Y-96661542D01*
X106880481Y-96366481D01*
X107175542Y-95924891D01*
X107279154Y-95404000D01*
X107220195Y-95107594D01*
X107636589Y-94691200D01*
X107969349Y-94691200D01*
X108185423Y-95014577D01*
X108537758Y-95250000D01*
X108185423Y-95485423D01*
X107868260Y-95960091D01*
X107756887Y-96520000D01*
X107868260Y-97079909D01*
X108185423Y-97554577D01*
X108537758Y-97790000D01*
X108185423Y-98025423D01*
X107868260Y-98500091D01*
X107829021Y-98697357D01*
X107642534Y-98247138D01*
X107238862Y-97843466D01*
X106711439Y-97625000D01*
X106140561Y-97625000D01*
X105613138Y-97843466D01*
X105209466Y-98247138D01*
X105182475Y-98312299D01*
X105179864Y-98305995D01*
X104933745Y-98231861D01*
X104105605Y-99060000D01*
X104933745Y-99888139D01*
X105179864Y-99814005D01*
X105182290Y-99807254D01*
X105209466Y-99872862D01*
X105613138Y-100276534D01*
X105864858Y-100380800D01*
X104518408Y-100380800D01*
X104680005Y-100313864D01*
X104754139Y-100067745D01*
X103926000Y-99239605D01*
X103097861Y-100067745D01*
X103171995Y-100313864D01*
X103358218Y-100380800D01*
X102338989Y-100380800D01*
X100818824Y-98860636D01*
X100807189Y-98843223D01*
X102479035Y-98843223D01*
X102506222Y-99413454D01*
X102672136Y-99814005D01*
X102918255Y-99888139D01*
X103746395Y-99060000D01*
X102918255Y-98231861D01*
X102672136Y-98305995D01*
X102479035Y-98843223D01*
X100807189Y-98843223D01*
X100779146Y-98801254D01*
X100761440Y-98789423D01*
X100761440Y-98514000D01*
X100712157Y-98266235D01*
X100571809Y-98056191D01*
X100565919Y-98052255D01*
X103097861Y-98052255D01*
X103926000Y-98880395D01*
X104754139Y-98052255D01*
X104680005Y-97806136D01*
X104142777Y-97613035D01*
X103572546Y-97640222D01*
X103171995Y-97806136D01*
X103097861Y-98052255D01*
X100565919Y-98052255D01*
X100361765Y-97915843D01*
X100114000Y-97866560D01*
X98514000Y-97866560D01*
X98266235Y-97915843D01*
X98056191Y-98056191D01*
X97915843Y-98266235D01*
X97869307Y-98500187D01*
X97821745Y-98485861D01*
X96993605Y-99314000D01*
X97821745Y-100142139D01*
X97869307Y-100127813D01*
X97915843Y-100361765D01*
X98056191Y-100571809D01*
X98214574Y-100677638D01*
X98003412Y-100888800D01*
X93845573Y-100888800D01*
X93944154Y-100393200D01*
X93929941Y-100321745D01*
X95985861Y-100321745D01*
X96059995Y-100567864D01*
X96597223Y-100760965D01*
X97167454Y-100733778D01*
X97568005Y-100567864D01*
X97642139Y-100321745D01*
X96814000Y-99493605D01*
X95985861Y-100321745D01*
X93929941Y-100321745D01*
X93840542Y-99872309D01*
X93545481Y-99430719D01*
X93103891Y-99135658D01*
X92910667Y-99097223D01*
X95367035Y-99097223D01*
X95394222Y-99667454D01*
X95560136Y-100068005D01*
X95806255Y-100142139D01*
X96634395Y-99314000D01*
X95806255Y-98485861D01*
X95560136Y-98559995D01*
X95367035Y-99097223D01*
X92910667Y-99097223D01*
X92714485Y-99058200D01*
X92451515Y-99058200D01*
X92062109Y-99135658D01*
X91620519Y-99430719D01*
X91325458Y-99872309D01*
X91221846Y-100393200D01*
X91320427Y-100888800D01*
X87454338Y-100888800D01*
X86505373Y-99939836D01*
X86465695Y-99880454D01*
X86364354Y-99812740D01*
X86374199Y-99763247D01*
X86374199Y-99763244D01*
X86388131Y-99693202D01*
X86374199Y-99623160D01*
X86374199Y-98408075D01*
X91827331Y-98408075D01*
X91889169Y-98643842D01*
X92390122Y-98820219D01*
X92920440Y-98791464D01*
X93276831Y-98643842D01*
X93338669Y-98408075D01*
X93236850Y-98306255D01*
X95985861Y-98306255D01*
X96814000Y-99134395D01*
X97642139Y-98306255D01*
X97568005Y-98060136D01*
X97030777Y-97867035D01*
X96460546Y-97894222D01*
X96059995Y-98060136D01*
X95985861Y-98306255D01*
X93236850Y-98306255D01*
X92583000Y-97652405D01*
X91827331Y-98408075D01*
X86374199Y-98408075D01*
X86374199Y-98242840D01*
X86388131Y-98172798D01*
X86374199Y-98102756D01*
X86374199Y-98102753D01*
X86332935Y-97895303D01*
X86314047Y-97867035D01*
X86261406Y-97788253D01*
X86324154Y-97472800D01*
X86285789Y-97279922D01*
X91235581Y-97279922D01*
X91264336Y-97810240D01*
X91411958Y-98166631D01*
X91647725Y-98228469D01*
X92403395Y-97472800D01*
X92762605Y-97472800D01*
X93518275Y-98228469D01*
X93754042Y-98166631D01*
X93930419Y-97665678D01*
X93901664Y-97135360D01*
X93754042Y-96778969D01*
X93518275Y-96717131D01*
X92762605Y-97472800D01*
X92403395Y-97472800D01*
X91647725Y-96717131D01*
X91411958Y-96778969D01*
X91235581Y-97279922D01*
X86285789Y-97279922D01*
X86220542Y-96951909D01*
X85943660Y-96537525D01*
X91827331Y-96537525D01*
X92583000Y-97293195D01*
X93338669Y-96537525D01*
X93276831Y-96301758D01*
X92775878Y-96125381D01*
X92245560Y-96154136D01*
X91889169Y-96301758D01*
X91827331Y-96537525D01*
X85943660Y-96537525D01*
X85925481Y-96510319D01*
X85483891Y-96215258D01*
X85094485Y-96137800D01*
X84831515Y-96137800D01*
X84442109Y-96215258D01*
X84342119Y-96282069D01*
X87028899Y-93595290D01*
X87130561Y-93637400D01*
X87701439Y-93637400D01*
X88228862Y-93418934D01*
X88497899Y-93149897D01*
X88517843Y-93250165D01*
X88658191Y-93460209D01*
X88868235Y-93600557D01*
X89116000Y-93649840D01*
X90716000Y-93649840D01*
X90963765Y-93600557D01*
X91173809Y-93460209D01*
X91314157Y-93250165D01*
X91363440Y-93002400D01*
X91363440Y-91402400D01*
X91314157Y-91154635D01*
X91173809Y-90944591D01*
X90963765Y-90804243D01*
X90716000Y-90754960D01*
X90627200Y-90754960D01*
X90627200Y-90718588D01*
X93683594Y-87662195D01*
X93848515Y-87695000D01*
X94111485Y-87695000D01*
X94500891Y-87617542D01*
X94942481Y-87322481D01*
X95237542Y-86880891D01*
X95341154Y-86360000D01*
X95237542Y-85839109D01*
X94942481Y-85397519D01*
X94786357Y-85293200D01*
X95586745Y-85293200D01*
X96357138Y-86063594D01*
X96298179Y-86360000D01*
X96401791Y-86880891D01*
X96696852Y-87322481D01*
X97138442Y-87617542D01*
X97527848Y-87695000D01*
X97790818Y-87695000D01*
X98180224Y-87617542D01*
X98621814Y-87322481D01*
X98916875Y-86880891D01*
X99020487Y-86360000D01*
X98916875Y-85839109D01*
X98621814Y-85397519D01*
X98180224Y-85102458D01*
X97790818Y-85025000D01*
X97527848Y-85025000D01*
X97362927Y-85057805D01*
X96433757Y-84128636D01*
X96394079Y-84069254D01*
X96158829Y-83912064D01*
X95951379Y-83870800D01*
X95951374Y-83870800D01*
X95881333Y-83856868D01*
X95811292Y-83870800D01*
X91309885Y-83870800D01*
X91267775Y-83769138D01*
X90864103Y-83365466D01*
X90336680Y-83147000D01*
X89765802Y-83147000D01*
X89238379Y-83365466D01*
X88969342Y-83634503D01*
X88949398Y-83534235D01*
X88809050Y-83324191D01*
X88599006Y-83183843D01*
X88351241Y-83134560D01*
X86751241Y-83134560D01*
X86503476Y-83183843D01*
X86293432Y-83324191D01*
X86153084Y-83534235D01*
X86103801Y-83782000D01*
X86103801Y-85382000D01*
X86153084Y-85629765D01*
X86272047Y-85807805D01*
X85161053Y-86918800D01*
X84398041Y-86918800D01*
X84327999Y-86904868D01*
X84257957Y-86918800D01*
X84257954Y-86918800D01*
X84050504Y-86960064D01*
X84050503Y-86960065D01*
X84050502Y-86960065D01*
X83874635Y-87077576D01*
X83874633Y-87077578D01*
X83815254Y-87117254D01*
X83775578Y-87176633D01*
X80318634Y-90633578D01*
X80259255Y-90673254D01*
X80219579Y-90732633D01*
X80219576Y-90732636D01*
X80102065Y-90908504D01*
X80052879Y-91155779D01*
X80047809Y-91148191D01*
X79837765Y-91007843D01*
X79590000Y-90958560D01*
X77890000Y-90958560D01*
X77642235Y-91007843D01*
X77432191Y-91148191D01*
X77418000Y-91169429D01*
X77418000Y-84221296D01*
X78023101Y-84826397D01*
X79065083Y-85258000D01*
X80192917Y-85258000D01*
X81234899Y-84826397D01*
X82032397Y-84028899D01*
X82464000Y-82986917D01*
X82464000Y-81859083D01*
X82032397Y-80817101D01*
X81427296Y-80212000D01*
X127868704Y-80212000D01*
X127263603Y-80817101D01*
X127263603Y-80817101D01*
G37*
X127263603Y-80817101D02*
X126832000Y-81859083D01*
X126832000Y-82986917D01*
X127263603Y-84028899D01*
X128061101Y-84826397D01*
X129103083Y-85258000D01*
X130230917Y-85258000D01*
X131272899Y-84826397D01*
X131878000Y-84221296D01*
X131878000Y-91179975D01*
X131765698Y-91067673D01*
X131532309Y-90971000D01*
X130841750Y-90971000D01*
X130683000Y-91129750D01*
X130683000Y-92329000D01*
X130703000Y-92329000D01*
X130703000Y-92583000D01*
X130683000Y-92583000D01*
X130683000Y-94869000D01*
X130703000Y-94869000D01*
X130703000Y-95123000D01*
X130683000Y-95123000D01*
X130683000Y-95143000D01*
X130429000Y-95143000D01*
X130429000Y-95123000D01*
X129235845Y-95123000D01*
X129114524Y-95352890D01*
X129284355Y-95762924D01*
X129674642Y-96191183D01*
X129804478Y-96252157D01*
X129485375Y-96465375D01*
X129157161Y-96956582D01*
X129041908Y-97536000D01*
X129126241Y-97959971D01*
X128737412Y-98348800D01*
X127202644Y-98348800D01*
X127160534Y-98247138D01*
X126756862Y-97843466D01*
X126229439Y-97625000D01*
X125658561Y-97625000D01*
X125131138Y-97843466D01*
X124862101Y-98112503D01*
X124842157Y-98012235D01*
X124701809Y-97802191D01*
X124491765Y-97661843D01*
X124244000Y-97612560D01*
X122644000Y-97612560D01*
X122396235Y-97661843D01*
X122186191Y-97802191D01*
X122045843Y-98012235D01*
X121996560Y-98260000D01*
X121996560Y-98348800D01*
X121452589Y-98348800D01*
X120950353Y-97846565D01*
X120969000Y-97801548D01*
X120969000Y-97270452D01*
X120765758Y-96779783D01*
X120390217Y-96404242D01*
X119899548Y-96201000D01*
X119368452Y-96201000D01*
X118877783Y-96404242D01*
X118502242Y-96779783D01*
X118299000Y-97270452D01*
X118299000Y-97801548D01*
X118502242Y-98292217D01*
X118877783Y-98667758D01*
X118922800Y-98686405D01*
X118922800Y-99199618D01*
X118671519Y-99367519D01*
X118376458Y-99809109D01*
X118272846Y-100330000D01*
X118376458Y-100850891D01*
X118671519Y-101292481D01*
X119113109Y-101587542D01*
X119502515Y-101665000D01*
X119765485Y-101665000D01*
X120154891Y-101587542D01*
X120596481Y-101292481D01*
X120891542Y-100850891D01*
X120995154Y-100330000D01*
X120891542Y-99809109D01*
X120804875Y-99679402D01*
X120880502Y-99729935D01*
X120880503Y-99729935D01*
X120880504Y-99729936D01*
X121087954Y-99771200D01*
X121087957Y-99771200D01*
X121157999Y-99785132D01*
X121228041Y-99771200D01*
X121996560Y-99771200D01*
X121996560Y-99860000D01*
X122045843Y-100107765D01*
X122186191Y-100317809D01*
X122396235Y-100458157D01*
X122644000Y-100507440D01*
X124244000Y-100507440D01*
X124491765Y-100458157D01*
X124701809Y-100317809D01*
X124842157Y-100107765D01*
X124862101Y-100007497D01*
X125131138Y-100276534D01*
X125658561Y-100495000D01*
X126229439Y-100495000D01*
X126756862Y-100276534D01*
X127160534Y-99872862D01*
X127202644Y-99771200D01*
X128961959Y-99771200D01*
X129032000Y-99785132D01*
X129102041Y-99771200D01*
X129102046Y-99771200D01*
X129138217Y-99764005D01*
X129235845Y-99949000D01*
X130429000Y-99949000D01*
X130429000Y-99929000D01*
X130683000Y-99929000D01*
X130683000Y-99949000D01*
X130703000Y-99949000D01*
X130703000Y-100203000D01*
X130683000Y-100203000D01*
X130683000Y-100223000D01*
X130429000Y-100223000D01*
X130429000Y-100203000D01*
X129235845Y-100203000D01*
X129114524Y-100432890D01*
X129284355Y-100842924D01*
X129674642Y-101271183D01*
X129804478Y-101332157D01*
X129485375Y-101545375D01*
X129157161Y-102036582D01*
X129041908Y-102616000D01*
X129157161Y-103195418D01*
X129485375Y-103686625D01*
X129783761Y-103886000D01*
X129485375Y-104085375D01*
X129157161Y-104576582D01*
X129041908Y-105156000D01*
X129126241Y-105579971D01*
X127113412Y-107592800D01*
X126098382Y-107592800D01*
X125930481Y-107341519D01*
X125488891Y-107046458D01*
X125099485Y-106969000D01*
X124836515Y-106969000D01*
X124447109Y-107046458D01*
X124005519Y-107341519D01*
X123710458Y-107783109D01*
X123606846Y-108304000D01*
X123710458Y-108824891D01*
X124005519Y-109266481D01*
X124447109Y-109561542D01*
X124836515Y-109639000D01*
X125099485Y-109639000D01*
X125488891Y-109561542D01*
X125930481Y-109266481D01*
X126098382Y-109015200D01*
X127337959Y-109015200D01*
X127408000Y-109029132D01*
X127478041Y-109015200D01*
X127478046Y-109015200D01*
X127685496Y-108973936D01*
X127920746Y-108816746D01*
X127960424Y-108757364D01*
X130132029Y-106585759D01*
X130409744Y-106641000D01*
X130702256Y-106641000D01*
X131135418Y-106554839D01*
X131626625Y-106226625D01*
X131878001Y-105850415D01*
X131878001Y-113263705D01*
X131272899Y-112658603D01*
X130230917Y-112227000D01*
X129103083Y-112227000D01*
X128061101Y-112658603D01*
X127263603Y-113456101D01*
X126832000Y-114498083D01*
X126832000Y-115625917D01*
X127263603Y-116667899D01*
X127995704Y-117400000D01*
X81300296Y-117400000D01*
X82032397Y-116667899D01*
X82243881Y-116157329D01*
X107927284Y-116157329D01*
X108070203Y-116502396D01*
X108417337Y-116890764D01*
X108886669Y-117116727D01*
X109093000Y-116994206D01*
X109093000Y-115951000D01*
X109347000Y-115951000D01*
X109347000Y-116994206D01*
X109553331Y-117116727D01*
X110022663Y-116890764D01*
X110369797Y-116502396D01*
X110512716Y-116157329D01*
X110389374Y-115951000D01*
X109347000Y-115951000D01*
X109093000Y-115951000D01*
X108050626Y-115951000D01*
X107927284Y-116157329D01*
X82243881Y-116157329D01*
X82464000Y-115625917D01*
X82464000Y-114498083D01*
X82032397Y-113456101D01*
X81234899Y-112658603D01*
X80192917Y-112227000D01*
X79065083Y-112227000D01*
X78023101Y-112658603D01*
X77418000Y-113263704D01*
X77418000Y-105801349D01*
X77468355Y-105922924D01*
X77858642Y-106351183D01*
X78383108Y-106597486D01*
X78613000Y-106476819D01*
X78613000Y-105283000D01*
X78867000Y-105283000D01*
X78867000Y-106476819D01*
X79096892Y-106597486D01*
X79621358Y-106351183D01*
X80011645Y-105922924D01*
X80181476Y-105512890D01*
X80060155Y-105283000D01*
X78867000Y-105283000D01*
X78613000Y-105283000D01*
X78593000Y-105283000D01*
X78593000Y-105029000D01*
X78613000Y-105029000D01*
X78613000Y-105009000D01*
X78867000Y-105009000D01*
X78867000Y-105029000D01*
X80060155Y-105029000D01*
X80090228Y-104972016D01*
X86840041Y-111721830D01*
X86840041Y-111836560D01*
X86751241Y-111836560D01*
X86503476Y-111885843D01*
X86293432Y-112026191D01*
X86153084Y-112236235D01*
X86103801Y-112484000D01*
X86103801Y-114084000D01*
X86153084Y-114331765D01*
X86293432Y-114541809D01*
X86503476Y-114682157D01*
X86751241Y-114731440D01*
X88351241Y-114731440D01*
X88599006Y-114682157D01*
X88809050Y-114541809D01*
X88949398Y-114331765D01*
X88969342Y-114231497D01*
X89238379Y-114500534D01*
X89765802Y-114719000D01*
X90336680Y-114719000D01*
X90864103Y-114500534D01*
X91267775Y-114096862D01*
X91309885Y-113995200D01*
X96319292Y-113995200D01*
X96389333Y-114009132D01*
X96459374Y-113995200D01*
X96459379Y-113995200D01*
X96666829Y-113953936D01*
X96902079Y-113796746D01*
X96941757Y-113737364D01*
X97362926Y-113316195D01*
X97527848Y-113349000D01*
X97790818Y-113349000D01*
X98180224Y-113271542D01*
X98621814Y-112976481D01*
X98916875Y-112534891D01*
X99020487Y-112014000D01*
X98916875Y-111493109D01*
X98621814Y-111051519D01*
X98180224Y-110756458D01*
X97790818Y-110679000D01*
X97527848Y-110679000D01*
X97138442Y-110756458D01*
X96696852Y-111051519D01*
X96401791Y-111493109D01*
X96298179Y-112014000D01*
X96357138Y-112310407D01*
X96094745Y-112572800D01*
X95212212Y-112572800D01*
X95237542Y-112534891D01*
X95341154Y-112014000D01*
X95237542Y-111493109D01*
X94942481Y-111051519D01*
X94691200Y-110883618D01*
X94691200Y-108845242D01*
X94705132Y-108775200D01*
X94691200Y-108705158D01*
X94691200Y-108705154D01*
X94649936Y-108497704D01*
X94609733Y-108437536D01*
X94532424Y-108321835D01*
X94532422Y-108321833D01*
X94492746Y-108262454D01*
X94433367Y-108222778D01*
X91420823Y-105210235D01*
X91381146Y-105150854D01*
X91363440Y-105139023D01*
X91363440Y-104863600D01*
X91314157Y-104615835D01*
X91173809Y-104405791D01*
X90963765Y-104265443D01*
X90716000Y-104216160D01*
X89116000Y-104216160D01*
X88868235Y-104265443D01*
X88658191Y-104405791D01*
X88517843Y-104615835D01*
X88497899Y-104716103D01*
X88228862Y-104447066D01*
X87701439Y-104228600D01*
X87130561Y-104228600D01*
X86603138Y-104447066D01*
X86199466Y-104850738D01*
X86157356Y-104952400D01*
X85257189Y-104952400D01*
X83598195Y-103293407D01*
X83657154Y-102997000D01*
X83553542Y-102476109D01*
X83264825Y-102044014D01*
X83995332Y-101313507D01*
X84206783Y-101524958D01*
X84697452Y-101728200D01*
X85228548Y-101728200D01*
X85719217Y-101524958D01*
X85899068Y-101345107D01*
X86607327Y-102053367D01*
X86647003Y-102112746D01*
X86706382Y-102152422D01*
X86706384Y-102152424D01*
X86822085Y-102229733D01*
X86882253Y-102269936D01*
X87089703Y-102311200D01*
X87089707Y-102311200D01*
X87159749Y-102325132D01*
X87229791Y-102311200D01*
X98227959Y-102311200D01*
X98298000Y-102325132D01*
X98368041Y-102311200D01*
X98368046Y-102311200D01*
X98575496Y-102269936D01*
X98810746Y-102112746D01*
X98850424Y-102053364D01*
X99767369Y-101136420D01*
X99826745Y-101096746D01*
X99866420Y-101037369D01*
X99866424Y-101037365D01*
X99983935Y-100861497D01*
X99983936Y-100861496D01*
X100003838Y-100761440D01*
X100114000Y-100761440D01*
X100361765Y-100712157D01*
X100539805Y-100593194D01*
X101491978Y-101545367D01*
X101531654Y-101604746D01*
X101591033Y-101644422D01*
X101591035Y-101644424D01*
X101706736Y-101721733D01*
X101766904Y-101761936D01*
X101974354Y-101803200D01*
X101974358Y-101803200D01*
X102044400Y-101817132D01*
X102114442Y-101803200D01*
X103417776Y-101803200D01*
X103218370Y-101842864D01*
X103218369Y-101842865D01*
X103218368Y-101842865D01*
X103042501Y-101960376D01*
X103042499Y-101960378D01*
X102983120Y-102000054D01*
X102943444Y-102059433D01*
X102175767Y-102827110D01*
X102074105Y-102785000D01*
X101503227Y-102785000D01*
X100975804Y-103003466D01*
X100572132Y-103407138D01*
X100457949Y-103682800D01*
X98809738Y-103682800D01*
X98791091Y-103637783D01*
X98415550Y-103262242D01*
X97924881Y-103059000D01*
X97393785Y-103059000D01*
X96903116Y-103262242D01*
X96527575Y-103637783D01*
X96508928Y-103682800D01*
X95130405Y-103682800D01*
X95111758Y-103637783D01*
X94736217Y-103262242D01*
X94245548Y-103059000D01*
X93714452Y-103059000D01*
X93223783Y-103262242D01*
X92848242Y-103637783D01*
X92645000Y-104128452D01*
X92645000Y-104659548D01*
X92848242Y-105150217D01*
X93223783Y-105525758D01*
X93714452Y-105729000D01*
X94245548Y-105729000D01*
X94736217Y-105525758D01*
X95111758Y-105150217D01*
X95130405Y-105105200D01*
X96508928Y-105105200D01*
X96527575Y-105150217D01*
X96903116Y-105525758D01*
X97393785Y-105729000D01*
X97924881Y-105729000D01*
X98415550Y-105525758D01*
X98791091Y-105150217D01*
X98809738Y-105105200D01*
X100644470Y-105105200D01*
X100975804Y-105436534D01*
X101503227Y-105655000D01*
X102074105Y-105655000D01*
X102601528Y-105436534D01*
X103005200Y-105032862D01*
X103223666Y-104505439D01*
X103223666Y-103934561D01*
X103181556Y-103832899D01*
X103790455Y-103224000D01*
X104787618Y-103224000D01*
X104955519Y-103475281D01*
X105397109Y-103770342D01*
X105786515Y-103847800D01*
X106049485Y-103847800D01*
X106438891Y-103770342D01*
X106880481Y-103475281D01*
X107048382Y-103224000D01*
X107298212Y-103224000D01*
X107832762Y-103758551D01*
X107756887Y-104140000D01*
X107868260Y-104699909D01*
X108185423Y-105174577D01*
X108537758Y-105410000D01*
X108185423Y-105645423D01*
X107868260Y-106120091D01*
X107756887Y-106680000D01*
X107857781Y-107187230D01*
X106228565Y-108816447D01*
X106183548Y-108797800D01*
X105652452Y-108797800D01*
X105607435Y-108816447D01*
X105557624Y-108766636D01*
X105517946Y-108707254D01*
X105282696Y-108550064D01*
X105075246Y-108508800D01*
X105075241Y-108508800D01*
X105005200Y-108494868D01*
X104935159Y-108508800D01*
X103047310Y-108508800D01*
X103005200Y-108407138D01*
X102601528Y-108003466D01*
X102074105Y-107785000D01*
X101503227Y-107785000D01*
X100975804Y-108003466D01*
X100572132Y-108407138D01*
X100353666Y-108934561D01*
X100353666Y-109505439D01*
X100572132Y-110032862D01*
X100634801Y-110095531D01*
X100634800Y-112852560D01*
X100546000Y-112852560D01*
X100298235Y-112901843D01*
X100088191Y-113042191D01*
X99947843Y-113252235D01*
X99898560Y-113500000D01*
X99898560Y-115100000D01*
X99947843Y-115347765D01*
X100088191Y-115557809D01*
X100298235Y-115698157D01*
X100546000Y-115747440D01*
X102146000Y-115747440D01*
X102393765Y-115698157D01*
X102603809Y-115557809D01*
X102744157Y-115347765D01*
X102764101Y-115247497D01*
X103033138Y-115516534D01*
X103560561Y-115735000D01*
X104131439Y-115735000D01*
X104658862Y-115516534D01*
X104684725Y-115490671D01*
X107927284Y-115490671D01*
X108050626Y-115697000D01*
X109093000Y-115697000D01*
X109093000Y-114653794D01*
X109347000Y-114653794D01*
X109347000Y-115697000D01*
X110389374Y-115697000D01*
X110512716Y-115490671D01*
X110369797Y-115145604D01*
X110022663Y-114757236D01*
X109553331Y-114531273D01*
X109347000Y-114653794D01*
X109093000Y-114653794D01*
X108886669Y-114531273D01*
X108417337Y-114757236D01*
X108070203Y-115145604D01*
X107927284Y-115490671D01*
X104684725Y-115490671D01*
X105062534Y-115112862D01*
X105281000Y-114585439D01*
X105281000Y-114014561D01*
X105238890Y-113912899D01*
X105512189Y-113639600D01*
X108069595Y-113639600D01*
X108088242Y-113684617D01*
X108463783Y-114060158D01*
X108954452Y-114263400D01*
X109485548Y-114263400D01*
X109976217Y-114060158D01*
X110156068Y-113880307D01*
X110873127Y-114597367D01*
X110912803Y-114656746D01*
X110972182Y-114696422D01*
X110972184Y-114696424D01*
X111043484Y-114744065D01*
X111148053Y-114813936D01*
X111355503Y-114855200D01*
X111355507Y-114855200D01*
X111425548Y-114869132D01*
X111495590Y-114855200D01*
X115920825Y-114855200D01*
X115708242Y-115067783D01*
X115505000Y-115558452D01*
X115505000Y-116089548D01*
X115708242Y-116580217D01*
X116083783Y-116955758D01*
X116574452Y-117159000D01*
X117105548Y-117159000D01*
X117596217Y-116955758D01*
X117971758Y-116580217D01*
X117990405Y-116535200D01*
X119903694Y-116535200D01*
X120098754Y-116574000D01*
X120640668Y-116574000D01*
X120670504Y-116593936D01*
X120877954Y-116635200D01*
X120877958Y-116635200D01*
X120948000Y-116649132D01*
X121018042Y-116635200D01*
X123817595Y-116635200D01*
X123836242Y-116680217D01*
X124211783Y-117055758D01*
X124702452Y-117259000D01*
X125233548Y-117259000D01*
X125724217Y-117055758D01*
X126099758Y-116680217D01*
X126303000Y-116189548D01*
X126303000Y-115658452D01*
X126099758Y-115167783D01*
X125724217Y-114792242D01*
X125233548Y-114589000D01*
X124702452Y-114589000D01*
X124211783Y-114792242D01*
X123836242Y-115167783D01*
X123817595Y-115212800D01*
X121805704Y-115212800D01*
X121755695Y-114961391D01*
X121633826Y-114779000D01*
X121755695Y-114596609D01*
X121845725Y-114144000D01*
X121755843Y-113692133D01*
X121786157Y-113646765D01*
X121835440Y-113399000D01*
X121835440Y-112349000D01*
X121786157Y-112101235D01*
X121645809Y-111891191D01*
X121435765Y-111750843D01*
X121188000Y-111701560D01*
X119688000Y-111701560D01*
X119440235Y-111750843D01*
X119230191Y-111891191D01*
X119089843Y-112101235D01*
X119077597Y-112162800D01*
X117934033Y-112162800D01*
X117802481Y-111965919D01*
X117551200Y-111798018D01*
X117551200Y-111183205D01*
X117596217Y-111164558D01*
X117971758Y-110789017D01*
X118175000Y-110298348D01*
X118175000Y-109767252D01*
X117971758Y-109276583D01*
X117596217Y-108901042D01*
X117105548Y-108697800D01*
X116574452Y-108697800D01*
X116083783Y-108901042D01*
X115708242Y-109276583D01*
X115505000Y-109767252D01*
X115505000Y-110298348D01*
X115708242Y-110789017D01*
X116083783Y-111164558D01*
X116128801Y-111183205D01*
X116128800Y-111798018D01*
X115877519Y-111965919D01*
X115582458Y-112407509D01*
X115478846Y-112928400D01*
X115579178Y-113432800D01*
X111720138Y-113432800D01*
X110762373Y-112475036D01*
X110722695Y-112415654D01*
X110487445Y-112258464D01*
X110378523Y-112236798D01*
X110351758Y-112172183D01*
X109976217Y-111796642D01*
X109485548Y-111593400D01*
X108954452Y-111593400D01*
X108463783Y-111796642D01*
X108088242Y-112172183D01*
X108069595Y-112217200D01*
X105287641Y-112217200D01*
X105217599Y-112203268D01*
X105147557Y-112217200D01*
X105147554Y-112217200D01*
X104940104Y-112258464D01*
X104940103Y-112258465D01*
X104940102Y-112258465D01*
X104764235Y-112375976D01*
X104764233Y-112375978D01*
X104704854Y-112415654D01*
X104665178Y-112475033D01*
X104233101Y-112907110D01*
X104131439Y-112865000D01*
X103560561Y-112865000D01*
X103033138Y-113083466D01*
X102764101Y-113352503D01*
X102744157Y-113252235D01*
X102603809Y-113042191D01*
X102393765Y-112901843D01*
X102146000Y-112852560D01*
X102057200Y-112852560D01*
X102057200Y-110655000D01*
X102074105Y-110655000D01*
X102601528Y-110436534D01*
X103005200Y-110032862D01*
X103047310Y-109931200D01*
X104583000Y-109931200D01*
X104583000Y-110398348D01*
X104786242Y-110889017D01*
X105161783Y-111264558D01*
X105652452Y-111467800D01*
X106183548Y-111467800D01*
X106674217Y-111264558D01*
X107049758Y-110889017D01*
X107253000Y-110398348D01*
X107253000Y-110032800D01*
X107858846Y-110032800D01*
X107962458Y-110553691D01*
X108257519Y-110995281D01*
X108699109Y-111290342D01*
X109088515Y-111367800D01*
X109351485Y-111367800D01*
X109740891Y-111290342D01*
X110182481Y-110995281D01*
X110477542Y-110553691D01*
X110581154Y-110032800D01*
X110477542Y-109511909D01*
X110182481Y-109070319D01*
X109740891Y-108775258D01*
X109351485Y-108697800D01*
X109088515Y-108697800D01*
X108699109Y-108775258D01*
X108257519Y-109070319D01*
X107962458Y-109511909D01*
X107858846Y-110032800D01*
X107253000Y-110032800D01*
X107253000Y-109867252D01*
X107234353Y-109822235D01*
X108964332Y-108092257D01*
X109078667Y-108115000D01*
X109361333Y-108115000D01*
X109779909Y-108031740D01*
X110254577Y-107714577D01*
X110470651Y-107391200D01*
X111689959Y-107391200D01*
X111760000Y-107405132D01*
X111830041Y-107391200D01*
X111830046Y-107391200D01*
X112037496Y-107349936D01*
X112272746Y-107192746D01*
X112312424Y-107133364D01*
X115394541Y-104051248D01*
X115376887Y-104140000D01*
X115488260Y-104699909D01*
X115805423Y-105174577D01*
X116128800Y-105390651D01*
X116128800Y-105429349D01*
X115805423Y-105645423D01*
X115488260Y-106120091D01*
X115376887Y-106680000D01*
X115488260Y-107239909D01*
X115805423Y-107714577D01*
X116280091Y-108031740D01*
X116698667Y-108115000D01*
X116981333Y-108115000D01*
X117221449Y-108067238D01*
X117557578Y-108403367D01*
X117597254Y-108462746D01*
X117656633Y-108502422D01*
X117656635Y-108502424D01*
X117832502Y-108619935D01*
X117832503Y-108619935D01*
X117832504Y-108619936D01*
X118039954Y-108661200D01*
X118039957Y-108661200D01*
X118109999Y-108675132D01*
X118180041Y-108661200D01*
X118483595Y-108661200D01*
X118502242Y-108706217D01*
X118877783Y-109081758D01*
X119368452Y-109285000D01*
X119899548Y-109285000D01*
X120390217Y-109081758D01*
X120765758Y-108706217D01*
X120969000Y-108215548D01*
X120969000Y-107684452D01*
X120765758Y-107193783D01*
X120390217Y-106818242D01*
X119899548Y-106615000D01*
X119368452Y-106615000D01*
X118877783Y-106818242D01*
X118502242Y-107193783D01*
X118483595Y-107238800D01*
X118404589Y-107238800D01*
X118227238Y-107061449D01*
X118303113Y-106680000D01*
X118191740Y-106120091D01*
X117874577Y-105645423D01*
X117551200Y-105429349D01*
X117551200Y-105390651D01*
X117874577Y-105174577D01*
X118191740Y-104699909D01*
X118303113Y-104140000D01*
X118191740Y-103580091D01*
X117874577Y-103105423D01*
X117522242Y-102870000D01*
X117874577Y-102634577D01*
X118191740Y-102159909D01*
X118303113Y-101600000D01*
X118191740Y-101040091D01*
X117874577Y-100565423D01*
X117490892Y-100309053D01*
X117695134Y-100212389D01*
X118071041Y-99797423D01*
X118231904Y-99409039D01*
X118109915Y-99187000D01*
X116967000Y-99187000D01*
X116967000Y-99207000D01*
X116713000Y-99207000D01*
X116713000Y-99187000D01*
X115570085Y-99187000D01*
X115448096Y-99409039D01*
X115608959Y-99797423D01*
X115984866Y-100212389D01*
X116189108Y-100309053D01*
X115805423Y-100565423D01*
X115488260Y-101040091D01*
X115376887Y-101600000D01*
X115452762Y-101981449D01*
X111465412Y-105968800D01*
X110470651Y-105968800D01*
X110254577Y-105645423D01*
X109902242Y-105410000D01*
X110254577Y-105174577D01*
X110571740Y-104699909D01*
X110683113Y-104140000D01*
X110571740Y-103580091D01*
X110254577Y-103105423D01*
X109902242Y-102870000D01*
X110254577Y-102634577D01*
X110571740Y-102159909D01*
X110683113Y-101600000D01*
X110607238Y-101218551D01*
X111197369Y-100628420D01*
X111256745Y-100588746D01*
X111296420Y-100529369D01*
X111296424Y-100529365D01*
X111413935Y-100353498D01*
X111413935Y-100353497D01*
X111413936Y-100353496D01*
X111455200Y-100146046D01*
X111455200Y-100146043D01*
X111469132Y-100076001D01*
X111455200Y-100005959D01*
X111455200Y-98114041D01*
X111469132Y-98043999D01*
X111455200Y-97973957D01*
X111455200Y-97973954D01*
X111413936Y-97766504D01*
X111382485Y-97719434D01*
X111296424Y-97590635D01*
X111296422Y-97590633D01*
X111256746Y-97531254D01*
X111197367Y-97491578D01*
X110607238Y-96901449D01*
X110683113Y-96520000D01*
X110571740Y-95960091D01*
X110254577Y-95485423D01*
X109902242Y-95250000D01*
X110254577Y-95014577D01*
X110571740Y-94539909D01*
X110683113Y-93980000D01*
X110571740Y-93420091D01*
X110254577Y-92945423D01*
X110133894Y-92864785D01*
X110267765Y-92838157D01*
X110477809Y-92697809D01*
X110618157Y-92487765D01*
X110667440Y-92240000D01*
X110667440Y-92151200D01*
X111465412Y-92151200D01*
X115452762Y-96138551D01*
X115376887Y-96520000D01*
X115488260Y-97079909D01*
X115805423Y-97554577D01*
X116189108Y-97810947D01*
X115984866Y-97907611D01*
X115608959Y-98322577D01*
X115448096Y-98710961D01*
X115570085Y-98933000D01*
X116713000Y-98933000D01*
X116713000Y-98913000D01*
X116967000Y-98913000D01*
X116967000Y-98933000D01*
X118109915Y-98933000D01*
X118231904Y-98710961D01*
X118071041Y-98322577D01*
X117695134Y-97907611D01*
X117490892Y-97810947D01*
X117874577Y-97554577D01*
X118191740Y-97079909D01*
X118303113Y-96520000D01*
X118191740Y-95960091D01*
X117874577Y-95485423D01*
X117522242Y-95250000D01*
X117874577Y-95014577D01*
X118191740Y-94539909D01*
X118303113Y-93980000D01*
X118191740Y-93420091D01*
X117874577Y-92945423D01*
X117569760Y-92741750D01*
X129071000Y-92741750D01*
X129071000Y-93432310D01*
X129167673Y-93665699D01*
X129346302Y-93844327D01*
X129555878Y-93931136D01*
X129284355Y-94229076D01*
X129114524Y-94639110D01*
X129235845Y-94869000D01*
X130429000Y-94869000D01*
X130429000Y-92583000D01*
X129229750Y-92583000D01*
X129071000Y-92741750D01*
X117569760Y-92741750D01*
X117551200Y-92729349D01*
X117551200Y-92690651D01*
X117874577Y-92474577D01*
X118191740Y-91999909D01*
X118303113Y-91440000D01*
X118227238Y-91058551D01*
X118565691Y-90720098D01*
X118671519Y-90878481D01*
X119113109Y-91173542D01*
X119502515Y-91251000D01*
X119765485Y-91251000D01*
X120154891Y-91173542D01*
X120596481Y-90878481D01*
X120891542Y-90436891D01*
X120944630Y-90170000D01*
X123606846Y-90170000D01*
X123710458Y-90690891D01*
X124005519Y-91132481D01*
X124447109Y-91427542D01*
X124836515Y-91505000D01*
X125099485Y-91505000D01*
X125226726Y-91479690D01*
X129071000Y-91479690D01*
X129071000Y-92170250D01*
X129229750Y-92329000D01*
X130429000Y-92329000D01*
X130429000Y-91129750D01*
X130270250Y-90971000D01*
X129579691Y-90971000D01*
X129346302Y-91067673D01*
X129167673Y-91246301D01*
X129071000Y-91479690D01*
X125226726Y-91479690D01*
X125488891Y-91427542D01*
X125930481Y-91132481D01*
X126225542Y-90690891D01*
X126329154Y-90170000D01*
X126225542Y-89649109D01*
X125930481Y-89207519D01*
X125488891Y-88912458D01*
X125099485Y-88835000D01*
X124836515Y-88835000D01*
X124447109Y-88912458D01*
X124005519Y-89207519D01*
X123710458Y-89649109D01*
X123606846Y-90170000D01*
X120944630Y-90170000D01*
X120995154Y-89916000D01*
X120891542Y-89395109D01*
X120596481Y-88953519D01*
X120154891Y-88658458D01*
X119765485Y-88581000D01*
X119502515Y-88581000D01*
X119113109Y-88658458D01*
X118671519Y-88953519D01*
X118503618Y-89204800D01*
X118434041Y-89204800D01*
X118363999Y-89190868D01*
X118293957Y-89204800D01*
X118293954Y-89204800D01*
X118086504Y-89246064D01*
X118086503Y-89246065D01*
X118086502Y-89246065D01*
X117910635Y-89363576D01*
X117910633Y-89363578D01*
X117851254Y-89403254D01*
X117811578Y-89462633D01*
X117221449Y-90052762D01*
X116981333Y-90005000D01*
X116698667Y-90005000D01*
X116280091Y-90088260D01*
X115805423Y-90405423D01*
X115488260Y-90880091D01*
X115376887Y-91440000D01*
X115488260Y-91999909D01*
X115805423Y-92474577D01*
X116128801Y-92690651D01*
X116128800Y-92729349D01*
X115805423Y-92945423D01*
X115488260Y-93420091D01*
X115376887Y-93980000D01*
X115394541Y-94068752D01*
X112312423Y-90986635D01*
X112272746Y-90927254D01*
X112037496Y-90770064D01*
X111830046Y-90728800D01*
X111830041Y-90728800D01*
X111760000Y-90714868D01*
X111689959Y-90728800D01*
X110667440Y-90728800D01*
X110667440Y-90640000D01*
X110618157Y-90392235D01*
X110477809Y-90182191D01*
X110267765Y-90041843D01*
X110020000Y-89992560D01*
X108420000Y-89992560D01*
X108172235Y-90041843D01*
X107994195Y-90160806D01*
X106711682Y-88878293D01*
X107049758Y-88540217D01*
X107216361Y-88138000D01*
X107858846Y-88138000D01*
X107962458Y-88658891D01*
X108257519Y-89100481D01*
X108699109Y-89395542D01*
X109088515Y-89473000D01*
X109351485Y-89473000D01*
X109740891Y-89395542D01*
X110182481Y-89100481D01*
X110477542Y-88658891D01*
X110581154Y-88138000D01*
X110477542Y-87617109D01*
X110182481Y-87175519D01*
X109740891Y-86880458D01*
X109351485Y-86803000D01*
X109088515Y-86803000D01*
X108699109Y-86880458D01*
X108257519Y-87175519D01*
X107962458Y-87617109D01*
X107858846Y-88138000D01*
X107216361Y-88138000D01*
X107253000Y-88049548D01*
X107253000Y-87518452D01*
X107049758Y-87027783D01*
X106674217Y-86652242D01*
X106183548Y-86449000D01*
X105652452Y-86449000D01*
X105161783Y-86652242D01*
X104786242Y-87027783D01*
X104767595Y-87072800D01*
X102974707Y-87072800D01*
X102904665Y-87058868D01*
X102834623Y-87072800D01*
X102834620Y-87072800D01*
X102627170Y-87114064D01*
X102627169Y-87114065D01*
X102627168Y-87114065D01*
X102499866Y-87199126D01*
X102499866Y-84893262D01*
X102603809Y-84823809D01*
X102744157Y-84613765D01*
X102764101Y-84513497D01*
X103033138Y-84782534D01*
X103560561Y-85001000D01*
X104131439Y-85001000D01*
X104658862Y-84782534D01*
X105062534Y-84378862D01*
X105104644Y-84277200D01*
X107097412Y-84277200D01*
X107903647Y-85083435D01*
X107885000Y-85128452D01*
X107885000Y-85659548D01*
X108088242Y-86150217D01*
X108463783Y-86525758D01*
X108954452Y-86729000D01*
X109485548Y-86729000D01*
X109976217Y-86525758D01*
X110351758Y-86150217D01*
X110555000Y-85659548D01*
X110555000Y-85405201D01*
X112847958Y-85405201D01*
X112917999Y-85419133D01*
X112988040Y-85405201D01*
X112988045Y-85405201D01*
X113195495Y-85363937D01*
X113430745Y-85206747D01*
X113470423Y-85147365D01*
X113832589Y-84785200D01*
X115641197Y-84785200D01*
X115582458Y-84873109D01*
X115478846Y-85394000D01*
X115582458Y-85914891D01*
X115877519Y-86356481D01*
X116128800Y-86524382D01*
X116128800Y-86987595D01*
X116083783Y-87006242D01*
X115708242Y-87381783D01*
X115505000Y-87872452D01*
X115505000Y-88403548D01*
X115708242Y-88894217D01*
X116083783Y-89269758D01*
X116574452Y-89473000D01*
X117105548Y-89473000D01*
X117596217Y-89269758D01*
X117971758Y-88894217D01*
X118175000Y-88403548D01*
X118175000Y-87872452D01*
X117971758Y-87381783D01*
X117596217Y-87006242D01*
X117551200Y-86987595D01*
X117551200Y-86524382D01*
X117802481Y-86356481D01*
X117970382Y-86105200D01*
X119760560Y-86105200D01*
X119760560Y-86125000D01*
X119809843Y-86372765D01*
X119950191Y-86582809D01*
X120160235Y-86723157D01*
X120408000Y-86772440D01*
X121908000Y-86772440D01*
X122155765Y-86723157D01*
X122365809Y-86582809D01*
X122506157Y-86372765D01*
X122555440Y-86125000D01*
X122555440Y-85075000D01*
X122506157Y-84827235D01*
X122475843Y-84781867D01*
X122565725Y-84330000D01*
X122475695Y-83877391D01*
X122404741Y-83771200D01*
X124387959Y-83771200D01*
X124458000Y-83785132D01*
X124460263Y-83784682D01*
X124702452Y-83885000D01*
X125233548Y-83885000D01*
X125724217Y-83681758D01*
X126099758Y-83306217D01*
X126303000Y-82815548D01*
X126303000Y-82284452D01*
X126099758Y-81793783D01*
X125724217Y-81418242D01*
X125233548Y-81215000D01*
X124702452Y-81215000D01*
X124211783Y-81418242D01*
X123836242Y-81793783D01*
X123633000Y-82284452D01*
X123633000Y-82348800D01*
X122302911Y-82348800D01*
X122219313Y-82223687D01*
X121835609Y-81967305D01*
X121497246Y-81900000D01*
X120818754Y-81900000D01*
X120623694Y-81938800D01*
X117990405Y-81938800D01*
X117971758Y-81893783D01*
X117596217Y-81518242D01*
X117105548Y-81315000D01*
X116574452Y-81315000D01*
X116083783Y-81518242D01*
X115708242Y-81893783D01*
X115505000Y-82384452D01*
X115505000Y-82915548D01*
X115690258Y-83362800D01*
X113608042Y-83362800D01*
X113538000Y-83348868D01*
X113467958Y-83362800D01*
X113467954Y-83362800D01*
X113260504Y-83404064D01*
X113260502Y-83404065D01*
X113260503Y-83404065D01*
X113084635Y-83521576D01*
X113084633Y-83521578D01*
X113025254Y-83561254D01*
X112985578Y-83620633D01*
X112623411Y-83982801D01*
X109990040Y-83982801D01*
X109919998Y-83968869D01*
X109849956Y-83982801D01*
X109849953Y-83982801D01*
X109642503Y-84024065D01*
X109642502Y-84024066D01*
X109642501Y-84024066D01*
X109550163Y-84085764D01*
X109485548Y-84059000D01*
X108954452Y-84059000D01*
X108909435Y-84077647D01*
X108670383Y-83838595D01*
X108886669Y-83942727D01*
X109093000Y-83820206D01*
X109093000Y-82777000D01*
X109347000Y-82777000D01*
X109347000Y-83820206D01*
X109553331Y-83942727D01*
X110022663Y-83716764D01*
X110369797Y-83328396D01*
X110512716Y-82983329D01*
X110389374Y-82777000D01*
X109347000Y-82777000D01*
X109093000Y-82777000D01*
X108050626Y-82777000D01*
X107927284Y-82983329D01*
X108006586Y-83174798D01*
X107944424Y-83112636D01*
X107904746Y-83053254D01*
X107669496Y-82896064D01*
X107462046Y-82854800D01*
X107462041Y-82854800D01*
X107392000Y-82840868D01*
X107321959Y-82854800D01*
X105104644Y-82854800D01*
X105062534Y-82753138D01*
X104658862Y-82349466D01*
X104579688Y-82316671D01*
X107927284Y-82316671D01*
X108050626Y-82523000D01*
X109093000Y-82523000D01*
X109093000Y-81479794D01*
X109347000Y-81479794D01*
X109347000Y-82523000D01*
X110389374Y-82523000D01*
X110512716Y-82316671D01*
X110369797Y-81971604D01*
X110022663Y-81583236D01*
X109553331Y-81357273D01*
X109347000Y-81479794D01*
X109093000Y-81479794D01*
X108886669Y-81357273D01*
X108417337Y-81583236D01*
X108070203Y-81971604D01*
X107927284Y-82316671D01*
X104579688Y-82316671D01*
X104131439Y-82131000D01*
X103560561Y-82131000D01*
X103033138Y-82349466D01*
X102764101Y-82618503D01*
X102744157Y-82518235D01*
X102603809Y-82308191D01*
X102393765Y-82167843D01*
X102146000Y-82118560D01*
X100546000Y-82118560D01*
X100298235Y-82167843D01*
X100088191Y-82308191D01*
X99947843Y-82518235D01*
X99898560Y-82766000D01*
X99898560Y-84366000D01*
X99947843Y-84613765D01*
X100088191Y-84823809D01*
X100298235Y-84964157D01*
X100546000Y-85013440D01*
X101077467Y-85013440D01*
X101077466Y-87641356D01*
X100975804Y-87683466D01*
X100572132Y-88087138D01*
X100353666Y-88614561D01*
X100353666Y-89185439D01*
X100572132Y-89712862D01*
X100975804Y-90116534D01*
X101503227Y-90335000D01*
X102074105Y-90335000D01*
X102601528Y-90116534D01*
X103005200Y-89712862D01*
X103223666Y-89185439D01*
X103223666Y-88614561D01*
X103181556Y-88512899D01*
X103199255Y-88495200D01*
X104767595Y-88495200D01*
X104786242Y-88540217D01*
X105161783Y-88915758D01*
X105206800Y-88934405D01*
X105206800Y-89020359D01*
X105192868Y-89090400D01*
X105206800Y-89160441D01*
X105206800Y-89160445D01*
X105248064Y-89367895D01*
X105248065Y-89367896D01*
X105365576Y-89543764D01*
X105365578Y-89543766D01*
X105405254Y-89603145D01*
X105464634Y-89642822D01*
X107715178Y-91893367D01*
X107754854Y-91952746D01*
X107772560Y-91964577D01*
X107772560Y-92240000D01*
X107821843Y-92487765D01*
X107962191Y-92697809D01*
X108172235Y-92838157D01*
X108306106Y-92864785D01*
X108185423Y-92945423D01*
X107969349Y-93268800D01*
X107412041Y-93268800D01*
X107341999Y-93254868D01*
X107271957Y-93268800D01*
X107271954Y-93268800D01*
X107064504Y-93310064D01*
X107064503Y-93310065D01*
X107064502Y-93310065D01*
X106888635Y-93427576D01*
X106888633Y-93427578D01*
X106829254Y-93467254D01*
X106789578Y-93526633D01*
X106214406Y-94101805D01*
X106049485Y-94069000D01*
X105786515Y-94069000D01*
X105397109Y-94146458D01*
X104955519Y-94441519D01*
X104787618Y-94692800D01*
X103587255Y-94692800D01*
X103181556Y-94287101D01*
X103223666Y-94185439D01*
X103223666Y-93614561D01*
X103005200Y-93087138D01*
X102601528Y-92683466D01*
X102074105Y-92465000D01*
X101503227Y-92465000D01*
X100975804Y-92683466D01*
X100572132Y-93087138D01*
X100496885Y-93268800D01*
X98809738Y-93268800D01*
X98791091Y-93223783D01*
X98415550Y-92848242D01*
X97924881Y-92645000D01*
X97393785Y-92645000D01*
X96903116Y-92848242D01*
X96527575Y-93223783D01*
X96508928Y-93268800D01*
X95130405Y-93268800D01*
X95111758Y-93223783D01*
X94736217Y-92848242D01*
X94245548Y-92645000D01*
X93714452Y-92645000D01*
X93223783Y-92848242D01*
X92848242Y-93223783D01*
X92645000Y-93714452D01*
X92645000Y-94245548D01*
X92848242Y-94736217D01*
X93223783Y-95111758D01*
X93714452Y-95315000D01*
X94245548Y-95315000D01*
X94736217Y-95111758D01*
X95111758Y-94736217D01*
X95130405Y-94691200D01*
X96508928Y-94691200D01*
X96527575Y-94736217D01*
X96903116Y-95111758D01*
X97393785Y-95315000D01*
X97924881Y-95315000D01*
X98415550Y-95111758D01*
X98791091Y-94736217D01*
X98809738Y-94691200D01*
X100563159Y-94691200D01*
X100572132Y-94712862D01*
X100975804Y-95116534D01*
X101503227Y-95335000D01*
X102074105Y-95335000D01*
X102175767Y-95292890D01*
X102740244Y-95857367D01*
X102779920Y-95916746D01*
X102839299Y-95956422D01*
X102839301Y-95956424D01*
X103015168Y-96073935D01*
X103015169Y-96073935D01*
X103015170Y-96073936D01*
X103222620Y-96115200D01*
X103222623Y-96115200D01*
X103292665Y-96129132D01*
X103362707Y-96115200D01*
X104787618Y-96115200D01*
X104955519Y-96366481D01*
X105397109Y-96661542D01*
X105786515Y-96739000D01*
X106049485Y-96739000D01*
X106438891Y-96661542D01*
X106880481Y-96366481D01*
X107175542Y-95924891D01*
X107279154Y-95404000D01*
X107220195Y-95107594D01*
X107636589Y-94691200D01*
X107969349Y-94691200D01*
X108185423Y-95014577D01*
X108537758Y-95250000D01*
X108185423Y-95485423D01*
X107868260Y-95960091D01*
X107756887Y-96520000D01*
X107868260Y-97079909D01*
X108185423Y-97554577D01*
X108537758Y-97790000D01*
X108185423Y-98025423D01*
X107868260Y-98500091D01*
X107829021Y-98697357D01*
X107642534Y-98247138D01*
X107238862Y-97843466D01*
X106711439Y-97625000D01*
X106140561Y-97625000D01*
X105613138Y-97843466D01*
X105209466Y-98247138D01*
X105182475Y-98312299D01*
X105179864Y-98305995D01*
X104933745Y-98231861D01*
X104105605Y-99060000D01*
X104933745Y-99888139D01*
X105179864Y-99814005D01*
X105182290Y-99807254D01*
X105209466Y-99872862D01*
X105613138Y-100276534D01*
X105864858Y-100380800D01*
X104518408Y-100380800D01*
X104680005Y-100313864D01*
X104754139Y-100067745D01*
X103926000Y-99239605D01*
X103097861Y-100067745D01*
X103171995Y-100313864D01*
X103358218Y-100380800D01*
X102338989Y-100380800D01*
X100818824Y-98860636D01*
X100807189Y-98843223D01*
X102479035Y-98843223D01*
X102506222Y-99413454D01*
X102672136Y-99814005D01*
X102918255Y-99888139D01*
X103746395Y-99060000D01*
X102918255Y-98231861D01*
X102672136Y-98305995D01*
X102479035Y-98843223D01*
X100807189Y-98843223D01*
X100779146Y-98801254D01*
X100761440Y-98789423D01*
X100761440Y-98514000D01*
X100712157Y-98266235D01*
X100571809Y-98056191D01*
X100565919Y-98052255D01*
X103097861Y-98052255D01*
X103926000Y-98880395D01*
X104754139Y-98052255D01*
X104680005Y-97806136D01*
X104142777Y-97613035D01*
X103572546Y-97640222D01*
X103171995Y-97806136D01*
X103097861Y-98052255D01*
X100565919Y-98052255D01*
X100361765Y-97915843D01*
X100114000Y-97866560D01*
X98514000Y-97866560D01*
X98266235Y-97915843D01*
X98056191Y-98056191D01*
X97915843Y-98266235D01*
X97869307Y-98500187D01*
X97821745Y-98485861D01*
X96993605Y-99314000D01*
X97821745Y-100142139D01*
X97869307Y-100127813D01*
X97915843Y-100361765D01*
X98056191Y-100571809D01*
X98214574Y-100677638D01*
X98003412Y-100888800D01*
X93845573Y-100888800D01*
X93944154Y-100393200D01*
X93929941Y-100321745D01*
X95985861Y-100321745D01*
X96059995Y-100567864D01*
X96597223Y-100760965D01*
X97167454Y-100733778D01*
X97568005Y-100567864D01*
X97642139Y-100321745D01*
X96814000Y-99493605D01*
X95985861Y-100321745D01*
X93929941Y-100321745D01*
X93840542Y-99872309D01*
X93545481Y-99430719D01*
X93103891Y-99135658D01*
X92910667Y-99097223D01*
X95367035Y-99097223D01*
X95394222Y-99667454D01*
X95560136Y-100068005D01*
X95806255Y-100142139D01*
X96634395Y-99314000D01*
X95806255Y-98485861D01*
X95560136Y-98559995D01*
X95367035Y-99097223D01*
X92910667Y-99097223D01*
X92714485Y-99058200D01*
X92451515Y-99058200D01*
X92062109Y-99135658D01*
X91620519Y-99430719D01*
X91325458Y-99872309D01*
X91221846Y-100393200D01*
X91320427Y-100888800D01*
X87454338Y-100888800D01*
X86505373Y-99939836D01*
X86465695Y-99880454D01*
X86364354Y-99812740D01*
X86374199Y-99763247D01*
X86374199Y-99763244D01*
X86388131Y-99693202D01*
X86374199Y-99623160D01*
X86374199Y-98408075D01*
X91827331Y-98408075D01*
X91889169Y-98643842D01*
X92390122Y-98820219D01*
X92920440Y-98791464D01*
X93276831Y-98643842D01*
X93338669Y-98408075D01*
X93236850Y-98306255D01*
X95985861Y-98306255D01*
X96814000Y-99134395D01*
X97642139Y-98306255D01*
X97568005Y-98060136D01*
X97030777Y-97867035D01*
X96460546Y-97894222D01*
X96059995Y-98060136D01*
X95985861Y-98306255D01*
X93236850Y-98306255D01*
X92583000Y-97652405D01*
X91827331Y-98408075D01*
X86374199Y-98408075D01*
X86374199Y-98242840D01*
X86388131Y-98172798D01*
X86374199Y-98102756D01*
X86374199Y-98102753D01*
X86332935Y-97895303D01*
X86314047Y-97867035D01*
X86261406Y-97788253D01*
X86324154Y-97472800D01*
X86285789Y-97279922D01*
X91235581Y-97279922D01*
X91264336Y-97810240D01*
X91411958Y-98166631D01*
X91647725Y-98228469D01*
X92403395Y-97472800D01*
X92762605Y-97472800D01*
X93518275Y-98228469D01*
X93754042Y-98166631D01*
X93930419Y-97665678D01*
X93901664Y-97135360D01*
X93754042Y-96778969D01*
X93518275Y-96717131D01*
X92762605Y-97472800D01*
X92403395Y-97472800D01*
X91647725Y-96717131D01*
X91411958Y-96778969D01*
X91235581Y-97279922D01*
X86285789Y-97279922D01*
X86220542Y-96951909D01*
X85943660Y-96537525D01*
X91827331Y-96537525D01*
X92583000Y-97293195D01*
X93338669Y-96537525D01*
X93276831Y-96301758D01*
X92775878Y-96125381D01*
X92245560Y-96154136D01*
X91889169Y-96301758D01*
X91827331Y-96537525D01*
X85943660Y-96537525D01*
X85925481Y-96510319D01*
X85483891Y-96215258D01*
X85094485Y-96137800D01*
X84831515Y-96137800D01*
X84442109Y-96215258D01*
X84342119Y-96282069D01*
X87028899Y-93595290D01*
X87130561Y-93637400D01*
X87701439Y-93637400D01*
X88228862Y-93418934D01*
X88497899Y-93149897D01*
X88517843Y-93250165D01*
X88658191Y-93460209D01*
X88868235Y-93600557D01*
X89116000Y-93649840D01*
X90716000Y-93649840D01*
X90963765Y-93600557D01*
X91173809Y-93460209D01*
X91314157Y-93250165D01*
X91363440Y-93002400D01*
X91363440Y-91402400D01*
X91314157Y-91154635D01*
X91173809Y-90944591D01*
X90963765Y-90804243D01*
X90716000Y-90754960D01*
X90627200Y-90754960D01*
X90627200Y-90718588D01*
X93683594Y-87662195D01*
X93848515Y-87695000D01*
X94111485Y-87695000D01*
X94500891Y-87617542D01*
X94942481Y-87322481D01*
X95237542Y-86880891D01*
X95341154Y-86360000D01*
X95237542Y-85839109D01*
X94942481Y-85397519D01*
X94786357Y-85293200D01*
X95586745Y-85293200D01*
X96357138Y-86063594D01*
X96298179Y-86360000D01*
X96401791Y-86880891D01*
X96696852Y-87322481D01*
X97138442Y-87617542D01*
X97527848Y-87695000D01*
X97790818Y-87695000D01*
X98180224Y-87617542D01*
X98621814Y-87322481D01*
X98916875Y-86880891D01*
X99020487Y-86360000D01*
X98916875Y-85839109D01*
X98621814Y-85397519D01*
X98180224Y-85102458D01*
X97790818Y-85025000D01*
X97527848Y-85025000D01*
X97362927Y-85057805D01*
X96433757Y-84128636D01*
X96394079Y-84069254D01*
X96158829Y-83912064D01*
X95951379Y-83870800D01*
X95951374Y-83870800D01*
X95881333Y-83856868D01*
X95811292Y-83870800D01*
X91309885Y-83870800D01*
X91267775Y-83769138D01*
X90864103Y-83365466D01*
X90336680Y-83147000D01*
X89765802Y-83147000D01*
X89238379Y-83365466D01*
X88969342Y-83634503D01*
X88949398Y-83534235D01*
X88809050Y-83324191D01*
X88599006Y-83183843D01*
X88351241Y-83134560D01*
X86751241Y-83134560D01*
X86503476Y-83183843D01*
X86293432Y-83324191D01*
X86153084Y-83534235D01*
X86103801Y-83782000D01*
X86103801Y-85382000D01*
X86153084Y-85629765D01*
X86272047Y-85807805D01*
X85161053Y-86918800D01*
X84398041Y-86918800D01*
X84327999Y-86904868D01*
X84257957Y-86918800D01*
X84257954Y-86918800D01*
X84050504Y-86960064D01*
X84050503Y-86960065D01*
X84050502Y-86960065D01*
X83874635Y-87077576D01*
X83874633Y-87077578D01*
X83815254Y-87117254D01*
X83775578Y-87176633D01*
X80318634Y-90633578D01*
X80259255Y-90673254D01*
X80219579Y-90732633D01*
X80219576Y-90732636D01*
X80102065Y-90908504D01*
X80052879Y-91155779D01*
X80047809Y-91148191D01*
X79837765Y-91007843D01*
X79590000Y-90958560D01*
X77890000Y-90958560D01*
X77642235Y-91007843D01*
X77432191Y-91148191D01*
X77418000Y-91169429D01*
X77418000Y-84221296D01*
X78023101Y-84826397D01*
X79065083Y-85258000D01*
X80192917Y-85258000D01*
X81234899Y-84826397D01*
X82032397Y-84028899D01*
X82464000Y-82986917D01*
X82464000Y-81859083D01*
X82032397Y-80817101D01*
X81427296Y-80212000D01*
X127868704Y-80212000D01*
X127263603Y-80817101D01*
G36*
X93017519Y-85397519D02*
X92722458Y-85839109D01*
X92618846Y-86360000D01*
X92677805Y-86656406D01*
X89462634Y-89871578D01*
X89403255Y-89911254D01*
X89363579Y-89970633D01*
X89363576Y-89970636D01*
X89246065Y-90146504D01*
X89190868Y-90424000D01*
X89204801Y-90494046D01*
X89204801Y-90754960D01*
X89116000Y-90754960D01*
X88868235Y-90804243D01*
X88658191Y-90944591D01*
X88517843Y-91154635D01*
X88497899Y-91254903D01*
X88228862Y-90985866D01*
X87701439Y-90767400D01*
X87130561Y-90767400D01*
X86603138Y-90985866D01*
X86199466Y-91389538D01*
X85981000Y-91916961D01*
X85981000Y-92487839D01*
X86023110Y-92589501D01*
X83602476Y-95010136D01*
X83467042Y-94683169D01*
X83231275Y-94621331D01*
X82475605Y-95377000D01*
X82489748Y-95391142D01*
X82310142Y-95570748D01*
X82296000Y-95556605D01*
X81540331Y-96312275D01*
X81602169Y-96548042D01*
X82103122Y-96724419D01*
X82633440Y-96695664D01*
X82854801Y-96603973D01*
X82854800Y-100442462D01*
X81842634Y-101454629D01*
X81792750Y-101487961D01*
X80222633Y-99917845D01*
X80138839Y-99496582D01*
X79810625Y-99005375D01*
X79512239Y-98806000D01*
X79810625Y-98606625D01*
X80138839Y-98115418D01*
X80254092Y-97536000D01*
X80169759Y-97112029D01*
X81193088Y-96088701D01*
X81360725Y-96132669D01*
X82116395Y-95377000D01*
X82102252Y-95362858D01*
X82281858Y-95183252D01*
X82296000Y-95197395D01*
X83051669Y-94441725D01*
X82989831Y-94205958D01*
X82488878Y-94029581D01*
X81958560Y-94058336D01*
X81602169Y-94205958D01*
X81540331Y-94441723D01*
X81483200Y-94384592D01*
X81483200Y-91480588D01*
X84622589Y-88341200D01*
X85385600Y-88341200D01*
X85455641Y-88355132D01*
X85525682Y-88341200D01*
X85525687Y-88341200D01*
X85733137Y-88299936D01*
X85968387Y-88142746D01*
X86008065Y-88083364D01*
X88004610Y-86086820D01*
X88063986Y-86047146D01*
X88075817Y-86029440D01*
X88351241Y-86029440D01*
X88599006Y-85980157D01*
X88809050Y-85839809D01*
X88949398Y-85629765D01*
X88969342Y-85529497D01*
X89238379Y-85798534D01*
X89765802Y-86017000D01*
X90336680Y-86017000D01*
X90864103Y-85798534D01*
X91267775Y-85394862D01*
X91309885Y-85293200D01*
X93173643Y-85293200D01*
X93017519Y-85397519D01*
X93017519Y-85397519D01*
G37*
X93017519Y-85397519D02*
X92722458Y-85839109D01*
X92618846Y-86360000D01*
X92677805Y-86656406D01*
X89462634Y-89871578D01*
X89403255Y-89911254D01*
X89363579Y-89970633D01*
X89363576Y-89970636D01*
X89246065Y-90146504D01*
X89190868Y-90424000D01*
X89204801Y-90494046D01*
X89204801Y-90754960D01*
X89116000Y-90754960D01*
X88868235Y-90804243D01*
X88658191Y-90944591D01*
X88517843Y-91154635D01*
X88497899Y-91254903D01*
X88228862Y-90985866D01*
X87701439Y-90767400D01*
X87130561Y-90767400D01*
X86603138Y-90985866D01*
X86199466Y-91389538D01*
X85981000Y-91916961D01*
X85981000Y-92487839D01*
X86023110Y-92589501D01*
X83602476Y-95010136D01*
X83467042Y-94683169D01*
X83231275Y-94621331D01*
X82475605Y-95377000D01*
X82489748Y-95391142D01*
X82310142Y-95570748D01*
X82296000Y-95556605D01*
X81540331Y-96312275D01*
X81602169Y-96548042D01*
X82103122Y-96724419D01*
X82633440Y-96695664D01*
X82854801Y-96603973D01*
X82854800Y-100442462D01*
X81842634Y-101454629D01*
X81792750Y-101487961D01*
X80222633Y-99917845D01*
X80138839Y-99496582D01*
X79810625Y-99005375D01*
X79512239Y-98806000D01*
X79810625Y-98606625D01*
X80138839Y-98115418D01*
X80254092Y-97536000D01*
X80169759Y-97112029D01*
X81193088Y-96088701D01*
X81360725Y-96132669D01*
X82116395Y-95377000D01*
X82102252Y-95362858D01*
X82281858Y-95183252D01*
X82296000Y-95197395D01*
X83051669Y-94441725D01*
X82989831Y-94205958D01*
X82488878Y-94029581D01*
X81958560Y-94058336D01*
X81602169Y-94205958D01*
X81540331Y-94441723D01*
X81483200Y-94384592D01*
X81483200Y-91480588D01*
X84622589Y-88341200D01*
X85385600Y-88341200D01*
X85455641Y-88355132D01*
X85525682Y-88341200D01*
X85525687Y-88341200D01*
X85733137Y-88299936D01*
X85968387Y-88142746D01*
X86008065Y-88083364D01*
X88004610Y-86086820D01*
X88063986Y-86047146D01*
X88075817Y-86029440D01*
X88351241Y-86029440D01*
X88599006Y-85980157D01*
X88809050Y-85839809D01*
X88949398Y-85629765D01*
X88969342Y-85529497D01*
X89238379Y-85798534D01*
X89765802Y-86017000D01*
X90336680Y-86017000D01*
X90864103Y-85798534D01*
X91267775Y-85394862D01*
X91309885Y-85293200D01*
X93173643Y-85293200D01*
X93017519Y-85397519D01*
G36*
X78867000Y-94869000D02*
X78887000Y-94869000D01*
X78887000Y-95123000D01*
X78867000Y-95123000D01*
X78867000Y-95143000D01*
X78613000Y-95143000D01*
X78613000Y-95123000D01*
X78593000Y-95123000D01*
X78593000Y-94869000D01*
X78613000Y-94869000D01*
X78613000Y-94849000D01*
X78867000Y-94849000D01*
X78867000Y-94869000D01*
X78867000Y-94869000D01*
G37*
X78867000Y-94869000D02*
X78887000Y-94869000D01*
X78887000Y-95123000D01*
X78867000Y-95123000D01*
X78867000Y-95143000D01*
X78613000Y-95143000D01*
X78613000Y-95123000D01*
X78593000Y-95123000D01*
X78593000Y-94869000D01*
X78613000Y-94869000D01*
X78613000Y-94849000D01*
X78867000Y-94849000D01*
X78867000Y-94869000D01*
G04 #@! TD*
M02*
