G04 #@! TF.GenerationSoftware,KiCad,Pcbnew,(5.0.0-3-g5ebb6b6)*
G04 #@! TF.CreationDate,2018-10-06T14:24:39-07:00*
G04 #@! TF.ProjectId,Mega Amp,4D65676120416D702E6B696361645F70,v0*
G04 #@! TF.SameCoordinates,Original*
G04 #@! TF.FileFunction,Copper,L2,Bot,Signal*
G04 #@! TF.FilePolarity,Positive*
%FSLAX46Y46*%
G04 Gerber Fmt 4.6, Leading zero omitted, Abs format (unit mm)*
G04 Created by KiCad (PCBNEW (5.0.0-3-g5ebb6b6)) date Saturday, October 06, 2018 at 02:24:39 PM*
%MOMM*%
%LPD*%
G01*
G04 APERTURE LIST*
G04 #@! TA.AperFunction,ComponentPad*
%ADD10C,4.400000*%
G04 #@! TD*
G04 #@! TA.AperFunction,ComponentPad*
%ADD11O,1.400000X1.400000*%
G04 #@! TD*
G04 #@! TA.AperFunction,ComponentPad*
%ADD12C,1.400000*%
G04 #@! TD*
G04 #@! TA.AperFunction,ComponentPad*
%ADD13C,1.600000*%
G04 #@! TD*
G04 #@! TA.AperFunction,ComponentPad*
%ADD14R,1.600000X1.600000*%
G04 #@! TD*
G04 #@! TA.AperFunction,ComponentPad*
%ADD15R,1.500000X1.050000*%
G04 #@! TD*
G04 #@! TA.AperFunction,ComponentPad*
%ADD16O,1.500000X1.050000*%
G04 #@! TD*
G04 #@! TA.AperFunction,ComponentPad*
%ADD17R,1.700000X1.700000*%
G04 #@! TD*
G04 #@! TA.AperFunction,ComponentPad*
%ADD18O,1.700000X1.700000*%
G04 #@! TD*
G04 #@! TA.AperFunction,ComponentPad*
%ADD19O,1.600000X1.600000*%
G04 #@! TD*
G04 #@! TA.AperFunction,Conductor*
%ADD20C,0.304800*%
G04 #@! TD*
G04 #@! TA.AperFunction,Conductor*
%ADD21C,0.152400*%
G04 #@! TD*
G04 #@! TA.AperFunction,Conductor*
%ADD22C,0.254000*%
G04 #@! TD*
G04 APERTURE END LIST*
D10*
G04 #@! TO.P,REF\002A\002A,1*
G04 #@! TO.N,N/C*
X79629000Y-82423000D03*
G04 #@! TD*
G04 #@! TO.P,REF\002A\002A,1*
G04 #@! TO.N,N/C*
X129667000Y-82423000D03*
G04 #@! TD*
G04 #@! TO.P,REF\002A\002A,1*
G04 #@! TO.N,N/C*
X79629000Y-115062000D03*
G04 #@! TD*
D11*
G04 #@! TO.P,R13,2*
G04 #@! TO.N,+5V*
X109220000Y-88138000D03*
D12*
G04 #@! TO.P,R13,1*
G04 #@! TO.N,Net-(Q1-Pad1)*
X116840000Y-88138000D03*
G04 #@! TD*
G04 #@! TO.P,R14,1*
G04 #@! TO.N,Net-(Q1-Pad3)*
X116840000Y-82650000D03*
D11*
G04 #@! TO.P,R14,2*
G04 #@! TO.N,GND*
X109220000Y-82650000D03*
G04 #@! TD*
G04 #@! TO.P,R15,2*
G04 #@! TO.N,HeadphoneLeft*
X124968000Y-90170000D03*
D12*
G04 #@! TO.P,R15,1*
G04 #@! TO.N,Net-(Q1-Pad3)*
X124968000Y-82550000D03*
G04 #@! TD*
D11*
G04 #@! TO.P,R16,2*
G04 #@! TO.N,Net-(Q2-Pad1)*
X116840000Y-112928400D03*
D12*
G04 #@! TO.P,R16,1*
G04 #@! TO.N,Net-(C11-Pad2)*
X109220000Y-112928400D03*
G04 #@! TD*
G04 #@! TO.P,R17,1*
G04 #@! TO.N,Net-(Q2-Pad1)*
X116840000Y-110032800D03*
D11*
G04 #@! TO.P,R17,2*
G04 #@! TO.N,+5V*
X109220000Y-110032800D03*
G04 #@! TD*
G04 #@! TO.P,R18,2*
G04 #@! TO.N,GND*
X109220000Y-115824000D03*
D12*
G04 #@! TO.P,R18,1*
G04 #@! TO.N,Net-(Q2-Pad3)*
X116840000Y-115824000D03*
G04 #@! TD*
G04 #@! TO.P,R19,1*
G04 #@! TO.N,Net-(Q2-Pad3)*
X124968000Y-115924000D03*
D11*
G04 #@! TO.P,R19,2*
G04 #@! TO.N,HeadphoneRight*
X124968000Y-108304000D03*
G04 #@! TD*
D13*
G04 #@! TO.P,C1,2*
G04 #@! TO.N,Net-(C1-Pad2)*
X90051241Y-84582000D03*
D14*
G04 #@! TO.P,C1,1*
G04 #@! TO.N,YMLeft*
X87551241Y-84582000D03*
G04 #@! TD*
G04 #@! TO.P,C2,1*
G04 #@! TO.N,Net-(C2-Pad1)*
X89916000Y-92202400D03*
D13*
G04 #@! TO.P,C2,2*
G04 #@! TO.N,SN*
X87416000Y-92202400D03*
G04 #@! TD*
D14*
G04 #@! TO.P,C3,1*
G04 #@! TO.N,Net-(C3-Pad1)*
X89916000Y-105663600D03*
D13*
G04 #@! TO.P,C3,2*
G04 #@! TO.N,SN*
X87416000Y-105663600D03*
G04 #@! TD*
G04 #@! TO.P,C4,2*
G04 #@! TO.N,Net-(C4-Pad2)*
X90051241Y-113284000D03*
D14*
G04 #@! TO.P,C4,1*
G04 #@! TO.N,YMRight*
X87551241Y-113284000D03*
G04 #@! TD*
G04 #@! TO.P,C5,1*
G04 #@! TO.N,Net-(C5-Pad1)*
X99314000Y-99314000D03*
D13*
G04 #@! TO.P,C5,2*
G04 #@! TO.N,GND*
X96814000Y-99314000D03*
G04 #@! TD*
G04 #@! TO.P,C6,2*
G04 #@! TO.N,Net-(C6-Pad2)*
X101788666Y-93900000D03*
G04 #@! TO.P,C6,1*
G04 #@! TO.N,RawAudioLeft*
X101788666Y-88900000D03*
G04 #@! TD*
G04 #@! TO.P,C7,1*
G04 #@! TO.N,RawAudioRight*
X101788666Y-109220000D03*
G04 #@! TO.P,C7,2*
G04 #@! TO.N,Net-(C7-Pad2)*
X101788666Y-104220000D03*
G04 #@! TD*
D14*
G04 #@! TO.P,C8,1*
G04 #@! TO.N,Net-(C8-Pad1)*
X123444000Y-99060000D03*
D13*
G04 #@! TO.P,C8,2*
G04 #@! TO.N,Mono*
X125944000Y-99060000D03*
G04 #@! TD*
G04 #@! TO.P,C10,2*
G04 #@! TO.N,Net-(C10-Pad2)*
X103846000Y-83566000D03*
D14*
G04 #@! TO.P,C10,1*
G04 #@! TO.N,RawAudioLeft*
X101346000Y-83566000D03*
G04 #@! TD*
D13*
G04 #@! TO.P,C11,2*
G04 #@! TO.N,Net-(C11-Pad2)*
X103846000Y-114300000D03*
D14*
G04 #@! TO.P,C11,1*
G04 #@! TO.N,RawAudioRight*
X101346000Y-114300000D03*
G04 #@! TD*
D11*
G04 #@! TO.P,R1,2*
G04 #@! TO.N,SN*
X82296000Y-102997000D03*
D12*
G04 #@! TO.P,R1,1*
G04 #@! TO.N,GND*
X82296000Y-95377000D03*
G04 #@! TD*
G04 #@! TO.P,R2,1*
G04 #@! TO.N,Net-(C6-Pad2)*
X97659333Y-93980000D03*
D11*
G04 #@! TO.P,R2,2*
G04 #@! TO.N,Net-(C1-Pad2)*
X97659333Y-86360000D03*
G04 #@! TD*
D12*
G04 #@! TO.P,R3,1*
G04 #@! TO.N,Net-(C6-Pad2)*
X93980000Y-93980000D03*
D11*
G04 #@! TO.P,R3,2*
G04 #@! TO.N,Net-(C2-Pad1)*
X93980000Y-86360000D03*
G04 #@! TD*
D12*
G04 #@! TO.P,R4,1*
G04 #@! TO.N,Net-(C7-Pad2)*
X93980000Y-104394000D03*
D11*
G04 #@! TO.P,R4,2*
G04 #@! TO.N,Net-(C3-Pad1)*
X93980000Y-112014000D03*
G04 #@! TD*
D12*
G04 #@! TO.P,R5,1*
G04 #@! TO.N,Net-(C7-Pad2)*
X97659333Y-104394000D03*
D11*
G04 #@! TO.P,R5,2*
G04 #@! TO.N,Net-(C4-Pad2)*
X97659333Y-112014000D03*
G04 #@! TD*
G04 #@! TO.P,R7,2*
G04 #@! TO.N,Net-(C5-Pad1)*
X84963000Y-97472800D03*
D12*
G04 #@! TO.P,R7,1*
G04 #@! TO.N,GND*
X92583000Y-97472800D03*
G04 #@! TD*
D11*
G04 #@! TO.P,R8,2*
G04 #@! TO.N,Net-(C6-Pad2)*
X105918000Y-95404000D03*
D12*
G04 #@! TO.P,R8,1*
G04 #@! TO.N,RawAudioLeft*
X105918000Y-87784000D03*
G04 #@! TD*
G04 #@! TO.P,R9,1*
G04 #@! TO.N,RawAudioRight*
X105918000Y-110132800D03*
D11*
G04 #@! TO.P,R9,2*
G04 #@! TO.N,Net-(C7-Pad2)*
X105918000Y-102512800D03*
G04 #@! TD*
G04 #@! TO.P,R10,2*
G04 #@! TO.N,Net-(R10-Pad2)*
X119634000Y-89916000D03*
D12*
G04 #@! TO.P,R10,1*
G04 #@! TO.N,Net-(C8-Pad1)*
X119634000Y-97536000D03*
G04 #@! TD*
G04 #@! TO.P,R11,1*
G04 #@! TO.N,Net-(R11-Pad1)*
X119634000Y-107950000D03*
D11*
G04 #@! TO.P,R11,2*
G04 #@! TO.N,Net-(C8-Pad1)*
X119634000Y-100330000D03*
G04 #@! TD*
G04 #@! TO.P,R12,2*
G04 #@! TO.N,Net-(Q1-Pad1)*
X116840000Y-85394000D03*
D12*
G04 #@! TO.P,R12,1*
G04 #@! TO.N,Net-(C10-Pad2)*
X109220000Y-85394000D03*
G04 #@! TD*
D15*
G04 #@! TO.P,Q1,1*
G04 #@! TO.N,Net-(Q1-Pad1)*
X121158000Y-85600000D03*
D16*
G04 #@! TO.P,Q1,3*
G04 #@! TO.N,Net-(Q1-Pad3)*
X121158000Y-83060000D03*
G04 #@! TO.P,Q1,2*
G04 #@! TO.N,Net-(C10-Pad2)*
X121158000Y-84330000D03*
G04 #@! TD*
G04 #@! TO.P,Q2,2*
G04 #@! TO.N,Net-(C11-Pad2)*
X120438000Y-114144000D03*
G04 #@! TO.P,Q2,3*
G04 #@! TO.N,Net-(Q2-Pad3)*
X120438000Y-115414000D03*
D15*
G04 #@! TO.P,Q2,1*
G04 #@! TO.N,Net-(Q2-Pad1)*
X120438000Y-112874000D03*
G04 #@! TD*
D17*
G04 #@! TO.P,J2,1*
G04 #@! TO.N,GND*
X130556000Y-92456000D03*
D18*
G04 #@! TO.P,J2,2*
X130556000Y-94996000D03*
G04 #@! TO.P,J2,3*
G04 #@! TO.N,Mono*
X130556000Y-97536000D03*
G04 #@! TO.P,J2,4*
G04 #@! TO.N,GND*
X130556000Y-100076000D03*
G04 #@! TO.P,J2,5*
G04 #@! TO.N,HeadphoneLeft*
X130556000Y-102616000D03*
G04 #@! TO.P,J2,6*
G04 #@! TO.N,HeadphoneRight*
X130556000Y-105156000D03*
G04 #@! TD*
D14*
G04 #@! TO.P,U1,1*
G04 #@! TO.N,RawAudioLeft*
X109220000Y-91440000D03*
D19*
G04 #@! TO.P,U1,8*
G04 #@! TO.N,Net-(R11-Pad1)*
X116840000Y-106680000D03*
G04 #@! TO.P,U1,2*
G04 #@! TO.N,Net-(C6-Pad2)*
X109220000Y-93980000D03*
G04 #@! TO.P,U1,9*
G04 #@! TO.N,Net-(R11-Pad1)*
X116840000Y-104140000D03*
G04 #@! TO.P,U1,3*
G04 #@! TO.N,Net-(C5-Pad1)*
X109220000Y-96520000D03*
G04 #@! TO.P,U1,10*
G04 #@! TO.N,RawAudioRight*
X116840000Y-101600000D03*
G04 #@! TO.P,U1,4*
G04 #@! TO.N,+5V*
X109220000Y-99060000D03*
G04 #@! TO.P,U1,11*
G04 #@! TO.N,GND*
X116840000Y-99060000D03*
G04 #@! TO.P,U1,5*
G04 #@! TO.N,Net-(C5-Pad1)*
X109220000Y-101600000D03*
G04 #@! TO.P,U1,12*
G04 #@! TO.N,RawAudioLeft*
X116840000Y-96520000D03*
G04 #@! TO.P,U1,6*
G04 #@! TO.N,Net-(C7-Pad2)*
X109220000Y-104140000D03*
G04 #@! TO.P,U1,13*
G04 #@! TO.N,Net-(R10-Pad2)*
X116840000Y-93980000D03*
G04 #@! TO.P,U1,7*
G04 #@! TO.N,RawAudioRight*
X109220000Y-106680000D03*
G04 #@! TO.P,U1,14*
G04 #@! TO.N,Net-(R10-Pad2)*
X116840000Y-91440000D03*
G04 #@! TD*
D13*
G04 #@! TO.P,C9,1*
G04 #@! TO.N,+5V*
X106426000Y-99060000D03*
G04 #@! TO.P,C9,2*
G04 #@! TO.N,GND*
X103926000Y-99060000D03*
G04 #@! TD*
D12*
G04 #@! TO.P,R6,1*
G04 #@! TO.N,Net-(C5-Pad1)*
X84963000Y-100393200D03*
D11*
G04 #@! TO.P,R6,2*
G04 #@! TO.N,+5V*
X92583000Y-100393200D03*
G04 #@! TD*
D18*
G04 #@! TO.P,J1,6*
G04 #@! TO.N,GND*
X78740000Y-105156000D03*
G04 #@! TO.P,J1,5*
G04 #@! TO.N,YMRight*
X78740000Y-102616000D03*
G04 #@! TO.P,J1,4*
G04 #@! TO.N,SN*
X78740000Y-100076000D03*
G04 #@! TO.P,J1,3*
G04 #@! TO.N,YMLeft*
X78740000Y-97536000D03*
G04 #@! TO.P,J1,2*
G04 #@! TO.N,GND*
X78740000Y-94996000D03*
D17*
G04 #@! TO.P,J1,1*
G04 #@! TO.N,+5V*
X78740000Y-92456000D03*
G04 #@! TD*
D10*
G04 #@! TO.P,REF\002A\002A,1*
G04 #@! TO.N,N/C*
X129667000Y-115062000D03*
G04 #@! TD*
D20*
G04 #@! TO.N,+5V*
X84645800Y-92456000D02*
X92583000Y-100393200D01*
X78740000Y-92456000D02*
X84645800Y-92456000D01*
X93282999Y-99693201D02*
X93346799Y-99693201D01*
X92583000Y-100393200D02*
X93282999Y-99693201D01*
X93346799Y-99693201D02*
X95758000Y-97282000D01*
X104648000Y-97282000D02*
X106426000Y-99060000D01*
X95758000Y-97282000D02*
X104648000Y-97282000D01*
X106426000Y-99060000D02*
X109220000Y-99060000D01*
X111506000Y-90424000D02*
X109220000Y-88138000D01*
X111506000Y-96774000D02*
X111506000Y-90424000D01*
X109220000Y-99060000D02*
X111506000Y-96774000D01*
X111506000Y-107746800D02*
X109220000Y-110032800D01*
X111506000Y-101346000D02*
X111506000Y-107746800D01*
X109220000Y-99060000D02*
X111506000Y-101346000D01*
D21*
G04 #@! TO.N,HeadphoneLeft*
X130556000Y-102616000D02*
X127762000Y-99822000D01*
X127762000Y-92964000D02*
X124968000Y-90170000D01*
X127762000Y-99822000D02*
X127762000Y-92964000D01*
G04 #@! TD*
D22*
G04 #@! TO.N,GND*
G36*
X127263603Y-80817101D02*
X126832000Y-81859083D01*
X126832000Y-82986917D01*
X127263603Y-84028899D01*
X128061101Y-84826397D01*
X129103083Y-85258000D01*
X130230917Y-85258000D01*
X131272899Y-84826397D01*
X131878000Y-84221296D01*
X131878000Y-91179975D01*
X131765698Y-91067673D01*
X131532309Y-90971000D01*
X130841750Y-90971000D01*
X130683000Y-91129750D01*
X130683000Y-92329000D01*
X130703000Y-92329000D01*
X130703000Y-92583000D01*
X130683000Y-92583000D01*
X130683000Y-94869000D01*
X130703000Y-94869000D01*
X130703000Y-95123000D01*
X130683000Y-95123000D01*
X130683000Y-95143000D01*
X130429000Y-95143000D01*
X130429000Y-95123000D01*
X129235845Y-95123000D01*
X129114524Y-95352890D01*
X129284355Y-95762924D01*
X129674642Y-96191183D01*
X129804478Y-96252157D01*
X129485375Y-96465375D01*
X129157161Y-96956582D01*
X129041908Y-97536000D01*
X129157161Y-98115418D01*
X129485375Y-98606625D01*
X129804478Y-98819843D01*
X129674642Y-98880817D01*
X129284355Y-99309076D01*
X129114524Y-99719110D01*
X129235845Y-99949000D01*
X130429000Y-99949000D01*
X130429000Y-99929000D01*
X130683000Y-99929000D01*
X130683000Y-99949000D01*
X130703000Y-99949000D01*
X130703000Y-100203000D01*
X130683000Y-100203000D01*
X130683000Y-100223000D01*
X130429000Y-100223000D01*
X130429000Y-100203000D01*
X129235845Y-100203000D01*
X129205772Y-100259984D01*
X128473200Y-99527412D01*
X128473200Y-93034042D01*
X128487132Y-92964000D01*
X128473200Y-92893958D01*
X128473200Y-92893954D01*
X128442926Y-92741750D01*
X129071000Y-92741750D01*
X129071000Y-93432310D01*
X129167673Y-93665699D01*
X129346302Y-93844327D01*
X129555878Y-93931136D01*
X129284355Y-94229076D01*
X129114524Y-94639110D01*
X129235845Y-94869000D01*
X130429000Y-94869000D01*
X130429000Y-92583000D01*
X129229750Y-92583000D01*
X129071000Y-92741750D01*
X128442926Y-92741750D01*
X128431936Y-92686504D01*
X128391733Y-92626336D01*
X128314424Y-92510635D01*
X128314422Y-92510633D01*
X128274746Y-92451254D01*
X128215367Y-92411578D01*
X127283479Y-91479690D01*
X129071000Y-91479690D01*
X129071000Y-92170250D01*
X129229750Y-92329000D01*
X130429000Y-92329000D01*
X130429000Y-91129750D01*
X130270250Y-90971000D01*
X129579691Y-90971000D01*
X129346302Y-91067673D01*
X129167673Y-91246301D01*
X129071000Y-91479690D01*
X127283479Y-91479690D01*
X126270195Y-90466407D01*
X126329154Y-90170000D01*
X126225542Y-89649109D01*
X125930481Y-89207519D01*
X125488891Y-88912458D01*
X125099485Y-88835000D01*
X124836515Y-88835000D01*
X124447109Y-88912458D01*
X124005519Y-89207519D01*
X123710458Y-89649109D01*
X123606846Y-90170000D01*
X123710458Y-90690891D01*
X124005519Y-91132481D01*
X124447109Y-91427542D01*
X124836515Y-91505000D01*
X125099485Y-91505000D01*
X125264407Y-91472195D01*
X127050801Y-93258590D01*
X127050800Y-98137404D01*
X126756862Y-97843466D01*
X126229439Y-97625000D01*
X125658561Y-97625000D01*
X125131138Y-97843466D01*
X124862101Y-98112503D01*
X124842157Y-98012235D01*
X124701809Y-97802191D01*
X124491765Y-97661843D01*
X124244000Y-97612560D01*
X122644000Y-97612560D01*
X122396235Y-97661843D01*
X122186191Y-97802191D01*
X122045843Y-98012235D01*
X121996560Y-98260000D01*
X121996560Y-99860000D01*
X122045843Y-100107765D01*
X122186191Y-100317809D01*
X122396235Y-100458157D01*
X122644000Y-100507440D01*
X124244000Y-100507440D01*
X124491765Y-100458157D01*
X124701809Y-100317809D01*
X124842157Y-100107765D01*
X124862101Y-100007497D01*
X125131138Y-100276534D01*
X125658561Y-100495000D01*
X126229439Y-100495000D01*
X126756862Y-100276534D01*
X127065823Y-99967573D01*
X127092064Y-100099495D01*
X127092065Y-100099496D01*
X127209576Y-100275364D01*
X127209578Y-100275366D01*
X127249254Y-100334745D01*
X127308634Y-100374422D01*
X129126241Y-102192029D01*
X129041908Y-102616000D01*
X129157161Y-103195418D01*
X129485375Y-103686625D01*
X129783761Y-103886000D01*
X129485375Y-104085375D01*
X129157161Y-104576582D01*
X129041908Y-105156000D01*
X129157161Y-105735418D01*
X129485375Y-106226625D01*
X129976582Y-106554839D01*
X130409744Y-106641000D01*
X130702256Y-106641000D01*
X131135418Y-106554839D01*
X131626625Y-106226625D01*
X131878001Y-105850415D01*
X131878001Y-113263705D01*
X131272899Y-112658603D01*
X130230917Y-112227000D01*
X129103083Y-112227000D01*
X128061101Y-112658603D01*
X127263603Y-113456101D01*
X126832000Y-114498083D01*
X126832000Y-115625917D01*
X127263603Y-116667899D01*
X127995704Y-117400000D01*
X81300296Y-117400000D01*
X82032397Y-116667899D01*
X82243881Y-116157329D01*
X107927284Y-116157329D01*
X108070203Y-116502396D01*
X108417337Y-116890764D01*
X108886669Y-117116727D01*
X109093000Y-116994206D01*
X109093000Y-115951000D01*
X109347000Y-115951000D01*
X109347000Y-116994206D01*
X109553331Y-117116727D01*
X110022663Y-116890764D01*
X110369797Y-116502396D01*
X110512716Y-116157329D01*
X110389374Y-115951000D01*
X109347000Y-115951000D01*
X109093000Y-115951000D01*
X108050626Y-115951000D01*
X107927284Y-116157329D01*
X82243881Y-116157329D01*
X82464000Y-115625917D01*
X82464000Y-114498083D01*
X82032397Y-113456101D01*
X81234899Y-112658603D01*
X80813370Y-112484000D01*
X86103801Y-112484000D01*
X86103801Y-114084000D01*
X86153084Y-114331765D01*
X86293432Y-114541809D01*
X86503476Y-114682157D01*
X86751241Y-114731440D01*
X88351241Y-114731440D01*
X88599006Y-114682157D01*
X88809050Y-114541809D01*
X88949398Y-114331765D01*
X88969342Y-114231497D01*
X89238379Y-114500534D01*
X89765802Y-114719000D01*
X90336680Y-114719000D01*
X90864103Y-114500534D01*
X91267775Y-114096862D01*
X91486241Y-113569439D01*
X91486241Y-113500000D01*
X99898560Y-113500000D01*
X99898560Y-115100000D01*
X99947843Y-115347765D01*
X100088191Y-115557809D01*
X100298235Y-115698157D01*
X100546000Y-115747440D01*
X102146000Y-115747440D01*
X102393765Y-115698157D01*
X102603809Y-115557809D01*
X102744157Y-115347765D01*
X102764101Y-115247497D01*
X103033138Y-115516534D01*
X103560561Y-115735000D01*
X104131439Y-115735000D01*
X104658862Y-115516534D01*
X104684725Y-115490671D01*
X107927284Y-115490671D01*
X108050626Y-115697000D01*
X109093000Y-115697000D01*
X109093000Y-114653794D01*
X109347000Y-114653794D01*
X109347000Y-115697000D01*
X110389374Y-115697000D01*
X110472197Y-115558452D01*
X115505000Y-115558452D01*
X115505000Y-116089548D01*
X115708242Y-116580217D01*
X116083783Y-116955758D01*
X116574452Y-117159000D01*
X117105548Y-117159000D01*
X117596217Y-116955758D01*
X117971758Y-116580217D01*
X118175000Y-116089548D01*
X118175000Y-115558452D01*
X117971758Y-115067783D01*
X117596217Y-114692242D01*
X117105548Y-114489000D01*
X116574452Y-114489000D01*
X116083783Y-114692242D01*
X115708242Y-115067783D01*
X115505000Y-115558452D01*
X110472197Y-115558452D01*
X110512716Y-115490671D01*
X110369797Y-115145604D01*
X110022663Y-114757236D01*
X109553331Y-114531273D01*
X109347000Y-114653794D01*
X109093000Y-114653794D01*
X108886669Y-114531273D01*
X108417337Y-114757236D01*
X108070203Y-115145604D01*
X107927284Y-115490671D01*
X104684725Y-115490671D01*
X105062534Y-115112862D01*
X105281000Y-114585439D01*
X105281000Y-114014561D01*
X105062534Y-113487138D01*
X104658862Y-113083466D01*
X104131439Y-112865000D01*
X103560561Y-112865000D01*
X103033138Y-113083466D01*
X102764101Y-113352503D01*
X102744157Y-113252235D01*
X102603809Y-113042191D01*
X102393765Y-112901843D01*
X102146000Y-112852560D01*
X100546000Y-112852560D01*
X100298235Y-112901843D01*
X100088191Y-113042191D01*
X99947843Y-113252235D01*
X99898560Y-113500000D01*
X91486241Y-113500000D01*
X91486241Y-112998561D01*
X91267775Y-112471138D01*
X90864103Y-112067466D01*
X90735025Y-112014000D01*
X92618846Y-112014000D01*
X92722458Y-112534891D01*
X93017519Y-112976481D01*
X93459109Y-113271542D01*
X93848515Y-113349000D01*
X94111485Y-113349000D01*
X94500891Y-113271542D01*
X94942481Y-112976481D01*
X95237542Y-112534891D01*
X95341154Y-112014000D01*
X96298179Y-112014000D01*
X96401791Y-112534891D01*
X96696852Y-112976481D01*
X97138442Y-113271542D01*
X97527848Y-113349000D01*
X97790818Y-113349000D01*
X98180224Y-113271542D01*
X98621814Y-112976481D01*
X98831374Y-112662852D01*
X107885000Y-112662852D01*
X107885000Y-113193948D01*
X108088242Y-113684617D01*
X108463783Y-114060158D01*
X108954452Y-114263400D01*
X109485548Y-114263400D01*
X109976217Y-114060158D01*
X110351758Y-113684617D01*
X110555000Y-113193948D01*
X110555000Y-112928400D01*
X115478846Y-112928400D01*
X115582458Y-113449291D01*
X115877519Y-113890881D01*
X116319109Y-114185942D01*
X116708515Y-114263400D01*
X116971485Y-114263400D01*
X117360891Y-114185942D01*
X117423661Y-114144000D01*
X119030275Y-114144000D01*
X119120305Y-114596609D01*
X119242174Y-114779000D01*
X119120305Y-114961391D01*
X119030275Y-115414000D01*
X119120305Y-115866609D01*
X119376687Y-116250313D01*
X119760391Y-116506695D01*
X120098754Y-116574000D01*
X120777246Y-116574000D01*
X121115609Y-116506695D01*
X121499313Y-116250313D01*
X121755695Y-115866609D01*
X121797100Y-115658452D01*
X123633000Y-115658452D01*
X123633000Y-116189548D01*
X123836242Y-116680217D01*
X124211783Y-117055758D01*
X124702452Y-117259000D01*
X125233548Y-117259000D01*
X125724217Y-117055758D01*
X126099758Y-116680217D01*
X126303000Y-116189548D01*
X126303000Y-115658452D01*
X126099758Y-115167783D01*
X125724217Y-114792242D01*
X125233548Y-114589000D01*
X124702452Y-114589000D01*
X124211783Y-114792242D01*
X123836242Y-115167783D01*
X123633000Y-115658452D01*
X121797100Y-115658452D01*
X121845725Y-115414000D01*
X121755695Y-114961391D01*
X121633826Y-114779000D01*
X121755695Y-114596609D01*
X121845725Y-114144000D01*
X121755843Y-113692133D01*
X121786157Y-113646765D01*
X121835440Y-113399000D01*
X121835440Y-112349000D01*
X121786157Y-112101235D01*
X121645809Y-111891191D01*
X121435765Y-111750843D01*
X121188000Y-111701560D01*
X119688000Y-111701560D01*
X119440235Y-111750843D01*
X119230191Y-111891191D01*
X119089843Y-112101235D01*
X119040560Y-112349000D01*
X119040560Y-113399000D01*
X119089843Y-113646765D01*
X119120157Y-113692133D01*
X119030275Y-114144000D01*
X117423661Y-114144000D01*
X117802481Y-113890881D01*
X118097542Y-113449291D01*
X118201154Y-112928400D01*
X118097542Y-112407509D01*
X117802481Y-111965919D01*
X117360891Y-111670858D01*
X116971485Y-111593400D01*
X116708515Y-111593400D01*
X116319109Y-111670858D01*
X115877519Y-111965919D01*
X115582458Y-112407509D01*
X115478846Y-112928400D01*
X110555000Y-112928400D01*
X110555000Y-112662852D01*
X110351758Y-112172183D01*
X109976217Y-111796642D01*
X109485548Y-111593400D01*
X108954452Y-111593400D01*
X108463783Y-111796642D01*
X108088242Y-112172183D01*
X107885000Y-112662852D01*
X98831374Y-112662852D01*
X98916875Y-112534891D01*
X99020487Y-112014000D01*
X98916875Y-111493109D01*
X98621814Y-111051519D01*
X98180224Y-110756458D01*
X97790818Y-110679000D01*
X97527848Y-110679000D01*
X97138442Y-110756458D01*
X96696852Y-111051519D01*
X96401791Y-111493109D01*
X96298179Y-112014000D01*
X95341154Y-112014000D01*
X95237542Y-111493109D01*
X94942481Y-111051519D01*
X94500891Y-110756458D01*
X94111485Y-110679000D01*
X93848515Y-110679000D01*
X93459109Y-110756458D01*
X93017519Y-111051519D01*
X92722458Y-111493109D01*
X92618846Y-112014000D01*
X90735025Y-112014000D01*
X90336680Y-111849000D01*
X89765802Y-111849000D01*
X89238379Y-112067466D01*
X88969342Y-112336503D01*
X88949398Y-112236235D01*
X88809050Y-112026191D01*
X88599006Y-111885843D01*
X88351241Y-111836560D01*
X86751241Y-111836560D01*
X86503476Y-111885843D01*
X86293432Y-112026191D01*
X86153084Y-112236235D01*
X86103801Y-112484000D01*
X80813370Y-112484000D01*
X80192917Y-112227000D01*
X79065083Y-112227000D01*
X78023101Y-112658603D01*
X77418000Y-113263704D01*
X77418000Y-108934561D01*
X100353666Y-108934561D01*
X100353666Y-109505439D01*
X100572132Y-110032862D01*
X100975804Y-110436534D01*
X101503227Y-110655000D01*
X102074105Y-110655000D01*
X102601528Y-110436534D01*
X103005200Y-110032862D01*
X103073797Y-109867252D01*
X104583000Y-109867252D01*
X104583000Y-110398348D01*
X104786242Y-110889017D01*
X105161783Y-111264558D01*
X105652452Y-111467800D01*
X106183548Y-111467800D01*
X106674217Y-111264558D01*
X107049758Y-110889017D01*
X107253000Y-110398348D01*
X107253000Y-109867252D01*
X107049758Y-109376583D01*
X106674217Y-109001042D01*
X106183548Y-108797800D01*
X105652452Y-108797800D01*
X105161783Y-109001042D01*
X104786242Y-109376583D01*
X104583000Y-109867252D01*
X103073797Y-109867252D01*
X103223666Y-109505439D01*
X103223666Y-108934561D01*
X103005200Y-108407138D01*
X102601528Y-108003466D01*
X102074105Y-107785000D01*
X101503227Y-107785000D01*
X100975804Y-108003466D01*
X100572132Y-108407138D01*
X100353666Y-108934561D01*
X77418000Y-108934561D01*
X77418000Y-105801349D01*
X77468355Y-105922924D01*
X77858642Y-106351183D01*
X78383108Y-106597486D01*
X78613000Y-106476819D01*
X78613000Y-105283000D01*
X78867000Y-105283000D01*
X78867000Y-106476819D01*
X79096892Y-106597486D01*
X79621358Y-106351183D01*
X80011645Y-105922924D01*
X80181476Y-105512890D01*
X80110375Y-105378161D01*
X85981000Y-105378161D01*
X85981000Y-105949039D01*
X86199466Y-106476462D01*
X86603138Y-106880134D01*
X87130561Y-107098600D01*
X87701439Y-107098600D01*
X88228862Y-106880134D01*
X88497899Y-106611097D01*
X88517843Y-106711365D01*
X88658191Y-106921409D01*
X88868235Y-107061757D01*
X89116000Y-107111040D01*
X90716000Y-107111040D01*
X90963765Y-107061757D01*
X91173809Y-106921409D01*
X91314157Y-106711365D01*
X91363440Y-106463600D01*
X91363440Y-104863600D01*
X91314157Y-104615835D01*
X91173809Y-104405791D01*
X90963765Y-104265443D01*
X90716000Y-104216160D01*
X89116000Y-104216160D01*
X88868235Y-104265443D01*
X88658191Y-104405791D01*
X88517843Y-104615835D01*
X88497899Y-104716103D01*
X88228862Y-104447066D01*
X87701439Y-104228600D01*
X87130561Y-104228600D01*
X86603138Y-104447066D01*
X86199466Y-104850738D01*
X85981000Y-105378161D01*
X80110375Y-105378161D01*
X80060155Y-105283000D01*
X78867000Y-105283000D01*
X78613000Y-105283000D01*
X78593000Y-105283000D01*
X78593000Y-105029000D01*
X78613000Y-105029000D01*
X78613000Y-105009000D01*
X78867000Y-105009000D01*
X78867000Y-105029000D01*
X80060155Y-105029000D01*
X80181476Y-104799110D01*
X80011645Y-104389076D01*
X79621358Y-103960817D01*
X79491522Y-103899843D01*
X79810625Y-103686625D01*
X80138839Y-103195418D01*
X80178306Y-102997000D01*
X80934846Y-102997000D01*
X81038458Y-103517891D01*
X81333519Y-103959481D01*
X81775109Y-104254542D01*
X82164515Y-104332000D01*
X82427485Y-104332000D01*
X82816891Y-104254542D01*
X83005598Y-104128452D01*
X92645000Y-104128452D01*
X92645000Y-104659548D01*
X92848242Y-105150217D01*
X93223783Y-105525758D01*
X93714452Y-105729000D01*
X94245548Y-105729000D01*
X94736217Y-105525758D01*
X95111758Y-105150217D01*
X95315000Y-104659548D01*
X95315000Y-104128452D01*
X96324333Y-104128452D01*
X96324333Y-104659548D01*
X96527575Y-105150217D01*
X96903116Y-105525758D01*
X97393785Y-105729000D01*
X97924881Y-105729000D01*
X98415550Y-105525758D01*
X98791091Y-105150217D01*
X98994333Y-104659548D01*
X98994333Y-104128452D01*
X98914021Y-103934561D01*
X100353666Y-103934561D01*
X100353666Y-104505439D01*
X100572132Y-105032862D01*
X100975804Y-105436534D01*
X101503227Y-105655000D01*
X102074105Y-105655000D01*
X102601528Y-105436534D01*
X103005200Y-105032862D01*
X103223666Y-104505439D01*
X103223666Y-103934561D01*
X103005200Y-103407138D01*
X102601528Y-103003466D01*
X102074105Y-102785000D01*
X101503227Y-102785000D01*
X100975804Y-103003466D01*
X100572132Y-103407138D01*
X100353666Y-103934561D01*
X98914021Y-103934561D01*
X98791091Y-103637783D01*
X98415550Y-103262242D01*
X97924881Y-103059000D01*
X97393785Y-103059000D01*
X96903116Y-103262242D01*
X96527575Y-103637783D01*
X96324333Y-104128452D01*
X95315000Y-104128452D01*
X95111758Y-103637783D01*
X94736217Y-103262242D01*
X94245548Y-103059000D01*
X93714452Y-103059000D01*
X93223783Y-103262242D01*
X92848242Y-103637783D01*
X92645000Y-104128452D01*
X83005598Y-104128452D01*
X83258481Y-103959481D01*
X83553542Y-103517891D01*
X83657154Y-102997000D01*
X83560841Y-102512800D01*
X104556846Y-102512800D01*
X104660458Y-103033691D01*
X104955519Y-103475281D01*
X105397109Y-103770342D01*
X105786515Y-103847800D01*
X106049485Y-103847800D01*
X106438891Y-103770342D01*
X106880481Y-103475281D01*
X107175542Y-103033691D01*
X107279154Y-102512800D01*
X107175542Y-101991909D01*
X106880481Y-101550319D01*
X106438891Y-101255258D01*
X106049485Y-101177800D01*
X105786515Y-101177800D01*
X105397109Y-101255258D01*
X104955519Y-101550319D01*
X104660458Y-101991909D01*
X104556846Y-102512800D01*
X83560841Y-102512800D01*
X83553542Y-102476109D01*
X83258481Y-102034519D01*
X82816891Y-101739458D01*
X82427485Y-101662000D01*
X82164515Y-101662000D01*
X81775109Y-101739458D01*
X81333519Y-102034519D01*
X81038458Y-102476109D01*
X80934846Y-102997000D01*
X80178306Y-102997000D01*
X80254092Y-102616000D01*
X80138839Y-102036582D01*
X79810625Y-101545375D01*
X79512239Y-101346000D01*
X79810625Y-101146625D01*
X80138839Y-100655418D01*
X80243817Y-100127652D01*
X83628000Y-100127652D01*
X83628000Y-100658748D01*
X83831242Y-101149417D01*
X84206783Y-101524958D01*
X84697452Y-101728200D01*
X85228548Y-101728200D01*
X85719217Y-101524958D01*
X86094758Y-101149417D01*
X86298000Y-100658748D01*
X86298000Y-100127652D01*
X86094758Y-99636983D01*
X85719217Y-99261442D01*
X85228548Y-99058200D01*
X84697452Y-99058200D01*
X84206783Y-99261442D01*
X83831242Y-99636983D01*
X83628000Y-100127652D01*
X80243817Y-100127652D01*
X80254092Y-100076000D01*
X80138839Y-99496582D01*
X79810625Y-99005375D01*
X79512239Y-98806000D01*
X79810625Y-98606625D01*
X80138839Y-98115418D01*
X80254092Y-97536000D01*
X80241521Y-97472800D01*
X83601846Y-97472800D01*
X83705458Y-97993691D01*
X84000519Y-98435281D01*
X84442109Y-98730342D01*
X84831515Y-98807800D01*
X85094485Y-98807800D01*
X85483891Y-98730342D01*
X85925481Y-98435281D01*
X86220542Y-97993691D01*
X86324154Y-97472800D01*
X86220542Y-96951909D01*
X85925481Y-96510319D01*
X85483891Y-96215258D01*
X85094485Y-96137800D01*
X84831515Y-96137800D01*
X84442109Y-96215258D01*
X84000519Y-96510319D01*
X83705458Y-96951909D01*
X83601846Y-97472800D01*
X80241521Y-97472800D01*
X80138839Y-96956582D01*
X79810625Y-96465375D01*
X79581495Y-96312275D01*
X81540331Y-96312275D01*
X81602169Y-96548042D01*
X82103122Y-96724419D01*
X82633440Y-96695664D01*
X82989831Y-96548042D01*
X83051669Y-96312275D01*
X82296000Y-95556605D01*
X81540331Y-96312275D01*
X79581495Y-96312275D01*
X79491522Y-96252157D01*
X79621358Y-96191183D01*
X80011645Y-95762924D01*
X80181476Y-95352890D01*
X80092412Y-95184122D01*
X80948581Y-95184122D01*
X80977336Y-95714440D01*
X81124958Y-96070831D01*
X81360725Y-96132669D01*
X82116395Y-95377000D01*
X82475605Y-95377000D01*
X83231275Y-96132669D01*
X83467042Y-96070831D01*
X83643419Y-95569878D01*
X83614664Y-95039560D01*
X83467042Y-94683169D01*
X83231275Y-94621331D01*
X82475605Y-95377000D01*
X82116395Y-95377000D01*
X81360725Y-94621331D01*
X81124958Y-94683169D01*
X80948581Y-95184122D01*
X80092412Y-95184122D01*
X80060155Y-95123000D01*
X78867000Y-95123000D01*
X78867000Y-95143000D01*
X78613000Y-95143000D01*
X78613000Y-95123000D01*
X78593000Y-95123000D01*
X78593000Y-94869000D01*
X78613000Y-94869000D01*
X78613000Y-94849000D01*
X78867000Y-94849000D01*
X78867000Y-94869000D01*
X80060155Y-94869000D01*
X80181476Y-94639110D01*
X80099722Y-94441725D01*
X81540331Y-94441725D01*
X82296000Y-95197395D01*
X83051669Y-94441725D01*
X82989831Y-94205958D01*
X82488878Y-94029581D01*
X81958560Y-94058336D01*
X81602169Y-94205958D01*
X81540331Y-94441725D01*
X80099722Y-94441725D01*
X80011645Y-94229076D01*
X79734292Y-93924739D01*
X79837765Y-93904157D01*
X80047809Y-93763809D01*
X80188157Y-93553765D01*
X80237440Y-93306000D01*
X80237440Y-93243400D01*
X84319649Y-93243400D01*
X91262926Y-100186678D01*
X91221846Y-100393200D01*
X91325458Y-100914091D01*
X91620519Y-101355681D01*
X92062109Y-101650742D01*
X92451515Y-101728200D01*
X92714485Y-101728200D01*
X93103891Y-101650742D01*
X93545481Y-101355681D01*
X93840542Y-100914091D01*
X93944154Y-100393200D01*
X93929941Y-100321745D01*
X95985861Y-100321745D01*
X96059995Y-100567864D01*
X96597223Y-100760965D01*
X97167454Y-100733778D01*
X97568005Y-100567864D01*
X97642139Y-100321745D01*
X96814000Y-99493605D01*
X95985861Y-100321745D01*
X93929941Y-100321745D01*
X93917066Y-100257019D01*
X93958415Y-100195136D01*
X95541383Y-98612169D01*
X95367035Y-99097223D01*
X95394222Y-99667454D01*
X95560136Y-100068005D01*
X95806255Y-100142139D01*
X96634395Y-99314000D01*
X96620252Y-99299858D01*
X96799858Y-99120252D01*
X96814000Y-99134395D01*
X97642139Y-98306255D01*
X97570795Y-98069400D01*
X98047365Y-98069400D01*
X97915843Y-98266235D01*
X97869307Y-98500187D01*
X97821745Y-98485861D01*
X96993605Y-99314000D01*
X97821745Y-100142139D01*
X97869307Y-100127813D01*
X97915843Y-100361765D01*
X98056191Y-100571809D01*
X98266235Y-100712157D01*
X98514000Y-100761440D01*
X100114000Y-100761440D01*
X100361765Y-100712157D01*
X100571809Y-100571809D01*
X100712157Y-100361765D01*
X100761440Y-100114000D01*
X100761440Y-100067745D01*
X103097861Y-100067745D01*
X103171995Y-100313864D01*
X103709223Y-100506965D01*
X104279454Y-100479778D01*
X104680005Y-100313864D01*
X104754139Y-100067745D01*
X103926000Y-99239605D01*
X103097861Y-100067745D01*
X100761440Y-100067745D01*
X100761440Y-98514000D01*
X100712157Y-98266235D01*
X100580635Y-98069400D01*
X102850964Y-98069400D01*
X102803378Y-98116986D01*
X102918253Y-98231861D01*
X102672136Y-98305995D01*
X102479035Y-98843223D01*
X102506222Y-99413454D01*
X102672136Y-99814005D01*
X102918255Y-99888139D01*
X103746395Y-99060000D01*
X103732252Y-99045858D01*
X103911858Y-98866252D01*
X103926000Y-98880395D01*
X103940143Y-98866253D01*
X104119748Y-99045858D01*
X104105605Y-99060000D01*
X104933745Y-99888139D01*
X105179864Y-99814005D01*
X105182290Y-99807254D01*
X105209466Y-99872862D01*
X105613138Y-100276534D01*
X106140561Y-100495000D01*
X106711439Y-100495000D01*
X107238862Y-100276534D01*
X107642534Y-99872862D01*
X107653081Y-99847400D01*
X108020265Y-99847400D01*
X108185423Y-100094577D01*
X108537758Y-100330000D01*
X108185423Y-100565423D01*
X107868260Y-101040091D01*
X107756887Y-101600000D01*
X107868260Y-102159909D01*
X108185423Y-102634577D01*
X108537758Y-102870000D01*
X108185423Y-103105423D01*
X107868260Y-103580091D01*
X107756887Y-104140000D01*
X107868260Y-104699909D01*
X108185423Y-105174577D01*
X108537758Y-105410000D01*
X108185423Y-105645423D01*
X107868260Y-106120091D01*
X107756887Y-106680000D01*
X107868260Y-107239909D01*
X108185423Y-107714577D01*
X108660091Y-108031740D01*
X109078667Y-108115000D01*
X109361333Y-108115000D01*
X109779909Y-108031740D01*
X110254577Y-107714577D01*
X110571740Y-107239909D01*
X110683113Y-106680000D01*
X110571740Y-106120091D01*
X110254577Y-105645423D01*
X109902242Y-105410000D01*
X110254577Y-105174577D01*
X110571740Y-104699909D01*
X110683113Y-104140000D01*
X110571740Y-103580091D01*
X110254577Y-103105423D01*
X109902242Y-102870000D01*
X110254577Y-102634577D01*
X110571740Y-102159909D01*
X110677030Y-101630582D01*
X110718600Y-101672152D01*
X110718601Y-107420647D01*
X109426523Y-108712726D01*
X109351485Y-108697800D01*
X109088515Y-108697800D01*
X108699109Y-108775258D01*
X108257519Y-109070319D01*
X107962458Y-109511909D01*
X107858846Y-110032800D01*
X107962458Y-110553691D01*
X108257519Y-110995281D01*
X108699109Y-111290342D01*
X109088515Y-111367800D01*
X109351485Y-111367800D01*
X109740891Y-111290342D01*
X110182481Y-110995281D01*
X110477542Y-110553691D01*
X110581154Y-110032800D01*
X110540074Y-109826277D01*
X110599099Y-109767252D01*
X115505000Y-109767252D01*
X115505000Y-110298348D01*
X115708242Y-110789017D01*
X116083783Y-111164558D01*
X116574452Y-111367800D01*
X117105548Y-111367800D01*
X117596217Y-111164558D01*
X117971758Y-110789017D01*
X118175000Y-110298348D01*
X118175000Y-109767252D01*
X117971758Y-109276583D01*
X117596217Y-108901042D01*
X117105548Y-108697800D01*
X116574452Y-108697800D01*
X116083783Y-108901042D01*
X115708242Y-109276583D01*
X115505000Y-109767252D01*
X110599099Y-109767252D01*
X112007938Y-108358414D01*
X112073684Y-108314484D01*
X112247715Y-108054028D01*
X112293400Y-107824352D01*
X112308826Y-107746801D01*
X112293400Y-107669250D01*
X112293400Y-101600000D01*
X115376887Y-101600000D01*
X115488260Y-102159909D01*
X115805423Y-102634577D01*
X116157758Y-102870000D01*
X115805423Y-103105423D01*
X115488260Y-103580091D01*
X115376887Y-104140000D01*
X115488260Y-104699909D01*
X115805423Y-105174577D01*
X116157758Y-105410000D01*
X115805423Y-105645423D01*
X115488260Y-106120091D01*
X115376887Y-106680000D01*
X115488260Y-107239909D01*
X115805423Y-107714577D01*
X116280091Y-108031740D01*
X116698667Y-108115000D01*
X116981333Y-108115000D01*
X117399909Y-108031740D01*
X117874577Y-107714577D01*
X117894705Y-107684452D01*
X118299000Y-107684452D01*
X118299000Y-108215548D01*
X118502242Y-108706217D01*
X118877783Y-109081758D01*
X119368452Y-109285000D01*
X119899548Y-109285000D01*
X120390217Y-109081758D01*
X120765758Y-108706217D01*
X120932361Y-108304000D01*
X123606846Y-108304000D01*
X123710458Y-108824891D01*
X124005519Y-109266481D01*
X124447109Y-109561542D01*
X124836515Y-109639000D01*
X125099485Y-109639000D01*
X125488891Y-109561542D01*
X125930481Y-109266481D01*
X126225542Y-108824891D01*
X126329154Y-108304000D01*
X126225542Y-107783109D01*
X125930481Y-107341519D01*
X125488891Y-107046458D01*
X125099485Y-106969000D01*
X124836515Y-106969000D01*
X124447109Y-107046458D01*
X124005519Y-107341519D01*
X123710458Y-107783109D01*
X123606846Y-108304000D01*
X120932361Y-108304000D01*
X120969000Y-108215548D01*
X120969000Y-107684452D01*
X120765758Y-107193783D01*
X120390217Y-106818242D01*
X119899548Y-106615000D01*
X119368452Y-106615000D01*
X118877783Y-106818242D01*
X118502242Y-107193783D01*
X118299000Y-107684452D01*
X117894705Y-107684452D01*
X118191740Y-107239909D01*
X118303113Y-106680000D01*
X118191740Y-106120091D01*
X117874577Y-105645423D01*
X117522242Y-105410000D01*
X117874577Y-105174577D01*
X118191740Y-104699909D01*
X118303113Y-104140000D01*
X118191740Y-103580091D01*
X117874577Y-103105423D01*
X117522242Y-102870000D01*
X117874577Y-102634577D01*
X118191740Y-102159909D01*
X118303113Y-101600000D01*
X118191740Y-101040091D01*
X117874577Y-100565423D01*
X117522242Y-100330000D01*
X118272846Y-100330000D01*
X118376458Y-100850891D01*
X118671519Y-101292481D01*
X119113109Y-101587542D01*
X119502515Y-101665000D01*
X119765485Y-101665000D01*
X120154891Y-101587542D01*
X120596481Y-101292481D01*
X120891542Y-100850891D01*
X120995154Y-100330000D01*
X120891542Y-99809109D01*
X120596481Y-99367519D01*
X120154891Y-99072458D01*
X119765485Y-98995000D01*
X119502515Y-98995000D01*
X119113109Y-99072458D01*
X118671519Y-99367519D01*
X118376458Y-99809109D01*
X118272846Y-100330000D01*
X117522242Y-100330000D01*
X117490892Y-100309053D01*
X117695134Y-100212389D01*
X118071041Y-99797423D01*
X118231904Y-99409039D01*
X118109915Y-99187000D01*
X116967000Y-99187000D01*
X116967000Y-99207000D01*
X116713000Y-99207000D01*
X116713000Y-99187000D01*
X115570085Y-99187000D01*
X115448096Y-99409039D01*
X115608959Y-99797423D01*
X115984866Y-100212389D01*
X116189108Y-100309053D01*
X115805423Y-100565423D01*
X115488260Y-101040091D01*
X115376887Y-101600000D01*
X112293400Y-101600000D01*
X112293400Y-101423550D01*
X112308826Y-101345999D01*
X112269168Y-101146625D01*
X112247715Y-101038772D01*
X112073684Y-100778316D01*
X112007938Y-100734386D01*
X110625117Y-99351566D01*
X110683113Y-99060000D01*
X110625117Y-98768434D01*
X112007938Y-97385614D01*
X112073684Y-97341684D01*
X112247715Y-97081228D01*
X112293400Y-96851552D01*
X112293400Y-96851551D01*
X112308826Y-96774001D01*
X112293400Y-96696450D01*
X112293400Y-91440000D01*
X115376887Y-91440000D01*
X115488260Y-91999909D01*
X115805423Y-92474577D01*
X116157758Y-92710000D01*
X115805423Y-92945423D01*
X115488260Y-93420091D01*
X115376887Y-93980000D01*
X115488260Y-94539909D01*
X115805423Y-95014577D01*
X116157758Y-95250000D01*
X115805423Y-95485423D01*
X115488260Y-95960091D01*
X115376887Y-96520000D01*
X115488260Y-97079909D01*
X115805423Y-97554577D01*
X116189108Y-97810947D01*
X115984866Y-97907611D01*
X115608959Y-98322577D01*
X115448096Y-98710961D01*
X115570085Y-98933000D01*
X116713000Y-98933000D01*
X116713000Y-98913000D01*
X116967000Y-98913000D01*
X116967000Y-98933000D01*
X118109915Y-98933000D01*
X118231904Y-98710961D01*
X118071041Y-98322577D01*
X117695134Y-97907611D01*
X117490892Y-97810947D01*
X117874577Y-97554577D01*
X118064423Y-97270452D01*
X118299000Y-97270452D01*
X118299000Y-97801548D01*
X118502242Y-98292217D01*
X118877783Y-98667758D01*
X119368452Y-98871000D01*
X119899548Y-98871000D01*
X120390217Y-98667758D01*
X120765758Y-98292217D01*
X120969000Y-97801548D01*
X120969000Y-97270452D01*
X120765758Y-96779783D01*
X120390217Y-96404242D01*
X119899548Y-96201000D01*
X119368452Y-96201000D01*
X118877783Y-96404242D01*
X118502242Y-96779783D01*
X118299000Y-97270452D01*
X118064423Y-97270452D01*
X118191740Y-97079909D01*
X118303113Y-96520000D01*
X118191740Y-95960091D01*
X117874577Y-95485423D01*
X117522242Y-95250000D01*
X117874577Y-95014577D01*
X118191740Y-94539909D01*
X118303113Y-93980000D01*
X118191740Y-93420091D01*
X117874577Y-92945423D01*
X117522242Y-92710000D01*
X117874577Y-92474577D01*
X118191740Y-91999909D01*
X118303113Y-91440000D01*
X118191740Y-90880091D01*
X117874577Y-90405423D01*
X117399909Y-90088260D01*
X116981333Y-90005000D01*
X116698667Y-90005000D01*
X116280091Y-90088260D01*
X115805423Y-90405423D01*
X115488260Y-90880091D01*
X115376887Y-91440000D01*
X112293400Y-91440000D01*
X112293400Y-90501550D01*
X112308826Y-90423999D01*
X112291123Y-90335000D01*
X112247715Y-90116772D01*
X112113564Y-89916000D01*
X118272846Y-89916000D01*
X118376458Y-90436891D01*
X118671519Y-90878481D01*
X119113109Y-91173542D01*
X119502515Y-91251000D01*
X119765485Y-91251000D01*
X120154891Y-91173542D01*
X120596481Y-90878481D01*
X120891542Y-90436891D01*
X120995154Y-89916000D01*
X120891542Y-89395109D01*
X120596481Y-88953519D01*
X120154891Y-88658458D01*
X119765485Y-88581000D01*
X119502515Y-88581000D01*
X119113109Y-88658458D01*
X118671519Y-88953519D01*
X118376458Y-89395109D01*
X118272846Y-89916000D01*
X112113564Y-89916000D01*
X112073684Y-89856316D01*
X112007938Y-89812386D01*
X110540074Y-88344523D01*
X110581154Y-88138000D01*
X110528334Y-87872452D01*
X115505000Y-87872452D01*
X115505000Y-88403548D01*
X115708242Y-88894217D01*
X116083783Y-89269758D01*
X116574452Y-89473000D01*
X117105548Y-89473000D01*
X117596217Y-89269758D01*
X117971758Y-88894217D01*
X118175000Y-88403548D01*
X118175000Y-87872452D01*
X117971758Y-87381783D01*
X117596217Y-87006242D01*
X117105548Y-86803000D01*
X116574452Y-86803000D01*
X116083783Y-87006242D01*
X115708242Y-87381783D01*
X115505000Y-87872452D01*
X110528334Y-87872452D01*
X110477542Y-87617109D01*
X110182481Y-87175519D01*
X109740891Y-86880458D01*
X109351485Y-86803000D01*
X109088515Y-86803000D01*
X108699109Y-86880458D01*
X108257519Y-87175519D01*
X107962458Y-87617109D01*
X107858846Y-88138000D01*
X107962458Y-88658891D01*
X108257519Y-89100481D01*
X108699109Y-89395542D01*
X109088515Y-89473000D01*
X109351485Y-89473000D01*
X109426523Y-89458074D01*
X109961008Y-89992560D01*
X108420000Y-89992560D01*
X108172235Y-90041843D01*
X107962191Y-90182191D01*
X107821843Y-90392235D01*
X107772560Y-90640000D01*
X107772560Y-92240000D01*
X107821843Y-92487765D01*
X107962191Y-92697809D01*
X108172235Y-92838157D01*
X108306106Y-92864785D01*
X108185423Y-92945423D01*
X107868260Y-93420091D01*
X107756887Y-93980000D01*
X107868260Y-94539909D01*
X108185423Y-95014577D01*
X108537758Y-95250000D01*
X108185423Y-95485423D01*
X107868260Y-95960091D01*
X107756887Y-96520000D01*
X107868260Y-97079909D01*
X108185423Y-97554577D01*
X108537758Y-97790000D01*
X108185423Y-98025423D01*
X108020265Y-98272600D01*
X107653081Y-98272600D01*
X107642534Y-98247138D01*
X107238862Y-97843466D01*
X106711439Y-97625000D01*
X106140561Y-97625000D01*
X106115098Y-97635547D01*
X105259616Y-96780065D01*
X105215684Y-96714316D01*
X104955228Y-96540285D01*
X104725552Y-96494600D01*
X104725551Y-96494600D01*
X104648000Y-96479174D01*
X104570449Y-96494600D01*
X95835550Y-96494600D01*
X95757999Y-96479174D01*
X95680448Y-96494600D01*
X95450772Y-96540285D01*
X95190316Y-96714316D01*
X95146386Y-96780062D01*
X93608128Y-98318320D01*
X93518277Y-98228469D01*
X93754042Y-98166631D01*
X93930419Y-97665678D01*
X93901664Y-97135360D01*
X93754042Y-96778969D01*
X93518275Y-96717131D01*
X92762605Y-97472800D01*
X92776748Y-97486942D01*
X92597142Y-97666548D01*
X92583000Y-97652405D01*
X92568858Y-97666548D01*
X92389252Y-97486942D01*
X92403395Y-97472800D01*
X91647725Y-96717131D01*
X91411958Y-96778969D01*
X91235581Y-97279922D01*
X91264336Y-97810240D01*
X91370928Y-98067577D01*
X89840876Y-96537525D01*
X91827331Y-96537525D01*
X92583000Y-97293195D01*
X93338669Y-96537525D01*
X93276831Y-96301758D01*
X92775878Y-96125381D01*
X92245560Y-96154136D01*
X91889169Y-96301758D01*
X91827331Y-96537525D01*
X89840876Y-96537525D01*
X88707351Y-95404000D01*
X104556846Y-95404000D01*
X104660458Y-95924891D01*
X104955519Y-96366481D01*
X105397109Y-96661542D01*
X105786515Y-96739000D01*
X106049485Y-96739000D01*
X106438891Y-96661542D01*
X106880481Y-96366481D01*
X107175542Y-95924891D01*
X107279154Y-95404000D01*
X107175542Y-94883109D01*
X106880481Y-94441519D01*
X106438891Y-94146458D01*
X106049485Y-94069000D01*
X105786515Y-94069000D01*
X105397109Y-94146458D01*
X104955519Y-94441519D01*
X104660458Y-94883109D01*
X104556846Y-95404000D01*
X88707351Y-95404000D01*
X87017803Y-93714452D01*
X92645000Y-93714452D01*
X92645000Y-94245548D01*
X92848242Y-94736217D01*
X93223783Y-95111758D01*
X93714452Y-95315000D01*
X94245548Y-95315000D01*
X94736217Y-95111758D01*
X95111758Y-94736217D01*
X95315000Y-94245548D01*
X95315000Y-93714452D01*
X96324333Y-93714452D01*
X96324333Y-94245548D01*
X96527575Y-94736217D01*
X96903116Y-95111758D01*
X97393785Y-95315000D01*
X97924881Y-95315000D01*
X98415550Y-95111758D01*
X98791091Y-94736217D01*
X98994333Y-94245548D01*
X98994333Y-93714452D01*
X98952957Y-93614561D01*
X100353666Y-93614561D01*
X100353666Y-94185439D01*
X100572132Y-94712862D01*
X100975804Y-95116534D01*
X101503227Y-95335000D01*
X102074105Y-95335000D01*
X102601528Y-95116534D01*
X103005200Y-94712862D01*
X103223666Y-94185439D01*
X103223666Y-93614561D01*
X103005200Y-93087138D01*
X102601528Y-92683466D01*
X102074105Y-92465000D01*
X101503227Y-92465000D01*
X100975804Y-92683466D01*
X100572132Y-93087138D01*
X100353666Y-93614561D01*
X98952957Y-93614561D01*
X98791091Y-93223783D01*
X98415550Y-92848242D01*
X97924881Y-92645000D01*
X97393785Y-92645000D01*
X96903116Y-92848242D01*
X96527575Y-93223783D01*
X96324333Y-93714452D01*
X95315000Y-93714452D01*
X95111758Y-93223783D01*
X94736217Y-92848242D01*
X94245548Y-92645000D01*
X93714452Y-92645000D01*
X93223783Y-92848242D01*
X92848242Y-93223783D01*
X92645000Y-93714452D01*
X87017803Y-93714452D01*
X86806535Y-93503184D01*
X87130561Y-93637400D01*
X87701439Y-93637400D01*
X88228862Y-93418934D01*
X88497899Y-93149897D01*
X88517843Y-93250165D01*
X88658191Y-93460209D01*
X88868235Y-93600557D01*
X89116000Y-93649840D01*
X90716000Y-93649840D01*
X90963765Y-93600557D01*
X91173809Y-93460209D01*
X91314157Y-93250165D01*
X91363440Y-93002400D01*
X91363440Y-91402400D01*
X91314157Y-91154635D01*
X91173809Y-90944591D01*
X90963765Y-90804243D01*
X90716000Y-90754960D01*
X89116000Y-90754960D01*
X88868235Y-90804243D01*
X88658191Y-90944591D01*
X88517843Y-91154635D01*
X88497899Y-91254903D01*
X88228862Y-90985866D01*
X87701439Y-90767400D01*
X87130561Y-90767400D01*
X86603138Y-90985866D01*
X86199466Y-91389538D01*
X85981000Y-91916961D01*
X85981000Y-92487839D01*
X86115216Y-92811865D01*
X85257416Y-91954065D01*
X85213484Y-91888316D01*
X84953028Y-91714285D01*
X84723352Y-91668600D01*
X84723351Y-91668600D01*
X84645800Y-91653174D01*
X84568249Y-91668600D01*
X80237440Y-91668600D01*
X80237440Y-91606000D01*
X80188157Y-91358235D01*
X80047809Y-91148191D01*
X79837765Y-91007843D01*
X79590000Y-90958560D01*
X77890000Y-90958560D01*
X77642235Y-91007843D01*
X77432191Y-91148191D01*
X77418000Y-91169429D01*
X77418000Y-88614561D01*
X100353666Y-88614561D01*
X100353666Y-89185439D01*
X100572132Y-89712862D01*
X100975804Y-90116534D01*
X101503227Y-90335000D01*
X102074105Y-90335000D01*
X102601528Y-90116534D01*
X103005200Y-89712862D01*
X103223666Y-89185439D01*
X103223666Y-88614561D01*
X103005200Y-88087138D01*
X102601528Y-87683466D01*
X102203150Y-87518452D01*
X104583000Y-87518452D01*
X104583000Y-88049548D01*
X104786242Y-88540217D01*
X105161783Y-88915758D01*
X105652452Y-89119000D01*
X106183548Y-89119000D01*
X106674217Y-88915758D01*
X107049758Y-88540217D01*
X107253000Y-88049548D01*
X107253000Y-87518452D01*
X107049758Y-87027783D01*
X106674217Y-86652242D01*
X106183548Y-86449000D01*
X105652452Y-86449000D01*
X105161783Y-86652242D01*
X104786242Y-87027783D01*
X104583000Y-87518452D01*
X102203150Y-87518452D01*
X102074105Y-87465000D01*
X101503227Y-87465000D01*
X100975804Y-87683466D01*
X100572132Y-88087138D01*
X100353666Y-88614561D01*
X77418000Y-88614561D01*
X77418000Y-86360000D01*
X92618846Y-86360000D01*
X92722458Y-86880891D01*
X93017519Y-87322481D01*
X93459109Y-87617542D01*
X93848515Y-87695000D01*
X94111485Y-87695000D01*
X94500891Y-87617542D01*
X94942481Y-87322481D01*
X95237542Y-86880891D01*
X95341154Y-86360000D01*
X96298179Y-86360000D01*
X96401791Y-86880891D01*
X96696852Y-87322481D01*
X97138442Y-87617542D01*
X97527848Y-87695000D01*
X97790818Y-87695000D01*
X98180224Y-87617542D01*
X98621814Y-87322481D01*
X98916875Y-86880891D01*
X99020487Y-86360000D01*
X98916875Y-85839109D01*
X98621814Y-85397519D01*
X98219127Y-85128452D01*
X107885000Y-85128452D01*
X107885000Y-85659548D01*
X108088242Y-86150217D01*
X108463783Y-86525758D01*
X108954452Y-86729000D01*
X109485548Y-86729000D01*
X109976217Y-86525758D01*
X110351758Y-86150217D01*
X110555000Y-85659548D01*
X110555000Y-85394000D01*
X115478846Y-85394000D01*
X115582458Y-85914891D01*
X115877519Y-86356481D01*
X116319109Y-86651542D01*
X116708515Y-86729000D01*
X116971485Y-86729000D01*
X117360891Y-86651542D01*
X117802481Y-86356481D01*
X118097542Y-85914891D01*
X118201154Y-85394000D01*
X118097542Y-84873109D01*
X117802481Y-84431519D01*
X117360891Y-84136458D01*
X116971485Y-84059000D01*
X116708515Y-84059000D01*
X116319109Y-84136458D01*
X115877519Y-84431519D01*
X115582458Y-84873109D01*
X115478846Y-85394000D01*
X110555000Y-85394000D01*
X110555000Y-85128452D01*
X110351758Y-84637783D01*
X109976217Y-84262242D01*
X109485548Y-84059000D01*
X108954452Y-84059000D01*
X108463783Y-84262242D01*
X108088242Y-84637783D01*
X107885000Y-85128452D01*
X98219127Y-85128452D01*
X98180224Y-85102458D01*
X97790818Y-85025000D01*
X97527848Y-85025000D01*
X97138442Y-85102458D01*
X96696852Y-85397519D01*
X96401791Y-85839109D01*
X96298179Y-86360000D01*
X95341154Y-86360000D01*
X95237542Y-85839109D01*
X94942481Y-85397519D01*
X94500891Y-85102458D01*
X94111485Y-85025000D01*
X93848515Y-85025000D01*
X93459109Y-85102458D01*
X93017519Y-85397519D01*
X92722458Y-85839109D01*
X92618846Y-86360000D01*
X77418000Y-86360000D01*
X77418000Y-84221296D01*
X78023101Y-84826397D01*
X79065083Y-85258000D01*
X80192917Y-85258000D01*
X81234899Y-84826397D01*
X82032397Y-84028899D01*
X82134665Y-83782000D01*
X86103801Y-83782000D01*
X86103801Y-85382000D01*
X86153084Y-85629765D01*
X86293432Y-85839809D01*
X86503476Y-85980157D01*
X86751241Y-86029440D01*
X88351241Y-86029440D01*
X88599006Y-85980157D01*
X88809050Y-85839809D01*
X88949398Y-85629765D01*
X88969342Y-85529497D01*
X89238379Y-85798534D01*
X89765802Y-86017000D01*
X90336680Y-86017000D01*
X90864103Y-85798534D01*
X91267775Y-85394862D01*
X91486241Y-84867439D01*
X91486241Y-84296561D01*
X91267775Y-83769138D01*
X90864103Y-83365466D01*
X90336680Y-83147000D01*
X89765802Y-83147000D01*
X89238379Y-83365466D01*
X88969342Y-83634503D01*
X88949398Y-83534235D01*
X88809050Y-83324191D01*
X88599006Y-83183843D01*
X88351241Y-83134560D01*
X86751241Y-83134560D01*
X86503476Y-83183843D01*
X86293432Y-83324191D01*
X86153084Y-83534235D01*
X86103801Y-83782000D01*
X82134665Y-83782000D01*
X82464000Y-82986917D01*
X82464000Y-82766000D01*
X99898560Y-82766000D01*
X99898560Y-84366000D01*
X99947843Y-84613765D01*
X100088191Y-84823809D01*
X100298235Y-84964157D01*
X100546000Y-85013440D01*
X102146000Y-85013440D01*
X102393765Y-84964157D01*
X102603809Y-84823809D01*
X102744157Y-84613765D01*
X102764101Y-84513497D01*
X103033138Y-84782534D01*
X103560561Y-85001000D01*
X104131439Y-85001000D01*
X104658862Y-84782534D01*
X105062534Y-84378862D01*
X105281000Y-83851439D01*
X105281000Y-83280561D01*
X105157883Y-82983329D01*
X107927284Y-82983329D01*
X108070203Y-83328396D01*
X108417337Y-83716764D01*
X108886669Y-83942727D01*
X109093000Y-83820206D01*
X109093000Y-82777000D01*
X109347000Y-82777000D01*
X109347000Y-83820206D01*
X109553331Y-83942727D01*
X110022663Y-83716764D01*
X110369797Y-83328396D01*
X110512716Y-82983329D01*
X110389374Y-82777000D01*
X109347000Y-82777000D01*
X109093000Y-82777000D01*
X108050626Y-82777000D01*
X107927284Y-82983329D01*
X105157883Y-82983329D01*
X105062534Y-82753138D01*
X104658862Y-82349466D01*
X104579688Y-82316671D01*
X107927284Y-82316671D01*
X108050626Y-82523000D01*
X109093000Y-82523000D01*
X109093000Y-81479794D01*
X109347000Y-81479794D01*
X109347000Y-82523000D01*
X110389374Y-82523000D01*
X110472197Y-82384452D01*
X115505000Y-82384452D01*
X115505000Y-82915548D01*
X115708242Y-83406217D01*
X116083783Y-83781758D01*
X116574452Y-83985000D01*
X117105548Y-83985000D01*
X117596217Y-83781758D01*
X117971758Y-83406217D01*
X118115165Y-83060000D01*
X119750275Y-83060000D01*
X119840305Y-83512609D01*
X119962174Y-83695000D01*
X119840305Y-83877391D01*
X119750275Y-84330000D01*
X119840157Y-84781867D01*
X119809843Y-84827235D01*
X119760560Y-85075000D01*
X119760560Y-86125000D01*
X119809843Y-86372765D01*
X119950191Y-86582809D01*
X120160235Y-86723157D01*
X120408000Y-86772440D01*
X121908000Y-86772440D01*
X122155765Y-86723157D01*
X122365809Y-86582809D01*
X122506157Y-86372765D01*
X122555440Y-86125000D01*
X122555440Y-85075000D01*
X122506157Y-84827235D01*
X122475843Y-84781867D01*
X122565725Y-84330000D01*
X122475695Y-83877391D01*
X122353826Y-83695000D01*
X122475695Y-83512609D01*
X122565725Y-83060000D01*
X122475695Y-82607391D01*
X122259915Y-82284452D01*
X123633000Y-82284452D01*
X123633000Y-82815548D01*
X123836242Y-83306217D01*
X124211783Y-83681758D01*
X124702452Y-83885000D01*
X125233548Y-83885000D01*
X125724217Y-83681758D01*
X126099758Y-83306217D01*
X126303000Y-82815548D01*
X126303000Y-82284452D01*
X126099758Y-81793783D01*
X125724217Y-81418242D01*
X125233548Y-81215000D01*
X124702452Y-81215000D01*
X124211783Y-81418242D01*
X123836242Y-81793783D01*
X123633000Y-82284452D01*
X122259915Y-82284452D01*
X122219313Y-82223687D01*
X121835609Y-81967305D01*
X121497246Y-81900000D01*
X120818754Y-81900000D01*
X120480391Y-81967305D01*
X120096687Y-82223687D01*
X119840305Y-82607391D01*
X119750275Y-83060000D01*
X118115165Y-83060000D01*
X118175000Y-82915548D01*
X118175000Y-82384452D01*
X117971758Y-81893783D01*
X117596217Y-81518242D01*
X117105548Y-81315000D01*
X116574452Y-81315000D01*
X116083783Y-81518242D01*
X115708242Y-81893783D01*
X115505000Y-82384452D01*
X110472197Y-82384452D01*
X110512716Y-82316671D01*
X110369797Y-81971604D01*
X110022663Y-81583236D01*
X109553331Y-81357273D01*
X109347000Y-81479794D01*
X109093000Y-81479794D01*
X108886669Y-81357273D01*
X108417337Y-81583236D01*
X108070203Y-81971604D01*
X107927284Y-82316671D01*
X104579688Y-82316671D01*
X104131439Y-82131000D01*
X103560561Y-82131000D01*
X103033138Y-82349466D01*
X102764101Y-82618503D01*
X102744157Y-82518235D01*
X102603809Y-82308191D01*
X102393765Y-82167843D01*
X102146000Y-82118560D01*
X100546000Y-82118560D01*
X100298235Y-82167843D01*
X100088191Y-82308191D01*
X99947843Y-82518235D01*
X99898560Y-82766000D01*
X82464000Y-82766000D01*
X82464000Y-81859083D01*
X82032397Y-80817101D01*
X81427296Y-80212000D01*
X127868704Y-80212000D01*
X127263603Y-80817101D01*
X127263603Y-80817101D01*
G37*
X127263603Y-80817101D02*
X126832000Y-81859083D01*
X126832000Y-82986917D01*
X127263603Y-84028899D01*
X128061101Y-84826397D01*
X129103083Y-85258000D01*
X130230917Y-85258000D01*
X131272899Y-84826397D01*
X131878000Y-84221296D01*
X131878000Y-91179975D01*
X131765698Y-91067673D01*
X131532309Y-90971000D01*
X130841750Y-90971000D01*
X130683000Y-91129750D01*
X130683000Y-92329000D01*
X130703000Y-92329000D01*
X130703000Y-92583000D01*
X130683000Y-92583000D01*
X130683000Y-94869000D01*
X130703000Y-94869000D01*
X130703000Y-95123000D01*
X130683000Y-95123000D01*
X130683000Y-95143000D01*
X130429000Y-95143000D01*
X130429000Y-95123000D01*
X129235845Y-95123000D01*
X129114524Y-95352890D01*
X129284355Y-95762924D01*
X129674642Y-96191183D01*
X129804478Y-96252157D01*
X129485375Y-96465375D01*
X129157161Y-96956582D01*
X129041908Y-97536000D01*
X129157161Y-98115418D01*
X129485375Y-98606625D01*
X129804478Y-98819843D01*
X129674642Y-98880817D01*
X129284355Y-99309076D01*
X129114524Y-99719110D01*
X129235845Y-99949000D01*
X130429000Y-99949000D01*
X130429000Y-99929000D01*
X130683000Y-99929000D01*
X130683000Y-99949000D01*
X130703000Y-99949000D01*
X130703000Y-100203000D01*
X130683000Y-100203000D01*
X130683000Y-100223000D01*
X130429000Y-100223000D01*
X130429000Y-100203000D01*
X129235845Y-100203000D01*
X129205772Y-100259984D01*
X128473200Y-99527412D01*
X128473200Y-93034042D01*
X128487132Y-92964000D01*
X128473200Y-92893958D01*
X128473200Y-92893954D01*
X128442926Y-92741750D01*
X129071000Y-92741750D01*
X129071000Y-93432310D01*
X129167673Y-93665699D01*
X129346302Y-93844327D01*
X129555878Y-93931136D01*
X129284355Y-94229076D01*
X129114524Y-94639110D01*
X129235845Y-94869000D01*
X130429000Y-94869000D01*
X130429000Y-92583000D01*
X129229750Y-92583000D01*
X129071000Y-92741750D01*
X128442926Y-92741750D01*
X128431936Y-92686504D01*
X128391733Y-92626336D01*
X128314424Y-92510635D01*
X128314422Y-92510633D01*
X128274746Y-92451254D01*
X128215367Y-92411578D01*
X127283479Y-91479690D01*
X129071000Y-91479690D01*
X129071000Y-92170250D01*
X129229750Y-92329000D01*
X130429000Y-92329000D01*
X130429000Y-91129750D01*
X130270250Y-90971000D01*
X129579691Y-90971000D01*
X129346302Y-91067673D01*
X129167673Y-91246301D01*
X129071000Y-91479690D01*
X127283479Y-91479690D01*
X126270195Y-90466407D01*
X126329154Y-90170000D01*
X126225542Y-89649109D01*
X125930481Y-89207519D01*
X125488891Y-88912458D01*
X125099485Y-88835000D01*
X124836515Y-88835000D01*
X124447109Y-88912458D01*
X124005519Y-89207519D01*
X123710458Y-89649109D01*
X123606846Y-90170000D01*
X123710458Y-90690891D01*
X124005519Y-91132481D01*
X124447109Y-91427542D01*
X124836515Y-91505000D01*
X125099485Y-91505000D01*
X125264407Y-91472195D01*
X127050801Y-93258590D01*
X127050800Y-98137404D01*
X126756862Y-97843466D01*
X126229439Y-97625000D01*
X125658561Y-97625000D01*
X125131138Y-97843466D01*
X124862101Y-98112503D01*
X124842157Y-98012235D01*
X124701809Y-97802191D01*
X124491765Y-97661843D01*
X124244000Y-97612560D01*
X122644000Y-97612560D01*
X122396235Y-97661843D01*
X122186191Y-97802191D01*
X122045843Y-98012235D01*
X121996560Y-98260000D01*
X121996560Y-99860000D01*
X122045843Y-100107765D01*
X122186191Y-100317809D01*
X122396235Y-100458157D01*
X122644000Y-100507440D01*
X124244000Y-100507440D01*
X124491765Y-100458157D01*
X124701809Y-100317809D01*
X124842157Y-100107765D01*
X124862101Y-100007497D01*
X125131138Y-100276534D01*
X125658561Y-100495000D01*
X126229439Y-100495000D01*
X126756862Y-100276534D01*
X127065823Y-99967573D01*
X127092064Y-100099495D01*
X127092065Y-100099496D01*
X127209576Y-100275364D01*
X127209578Y-100275366D01*
X127249254Y-100334745D01*
X127308634Y-100374422D01*
X129126241Y-102192029D01*
X129041908Y-102616000D01*
X129157161Y-103195418D01*
X129485375Y-103686625D01*
X129783761Y-103886000D01*
X129485375Y-104085375D01*
X129157161Y-104576582D01*
X129041908Y-105156000D01*
X129157161Y-105735418D01*
X129485375Y-106226625D01*
X129976582Y-106554839D01*
X130409744Y-106641000D01*
X130702256Y-106641000D01*
X131135418Y-106554839D01*
X131626625Y-106226625D01*
X131878001Y-105850415D01*
X131878001Y-113263705D01*
X131272899Y-112658603D01*
X130230917Y-112227000D01*
X129103083Y-112227000D01*
X128061101Y-112658603D01*
X127263603Y-113456101D01*
X126832000Y-114498083D01*
X126832000Y-115625917D01*
X127263603Y-116667899D01*
X127995704Y-117400000D01*
X81300296Y-117400000D01*
X82032397Y-116667899D01*
X82243881Y-116157329D01*
X107927284Y-116157329D01*
X108070203Y-116502396D01*
X108417337Y-116890764D01*
X108886669Y-117116727D01*
X109093000Y-116994206D01*
X109093000Y-115951000D01*
X109347000Y-115951000D01*
X109347000Y-116994206D01*
X109553331Y-117116727D01*
X110022663Y-116890764D01*
X110369797Y-116502396D01*
X110512716Y-116157329D01*
X110389374Y-115951000D01*
X109347000Y-115951000D01*
X109093000Y-115951000D01*
X108050626Y-115951000D01*
X107927284Y-116157329D01*
X82243881Y-116157329D01*
X82464000Y-115625917D01*
X82464000Y-114498083D01*
X82032397Y-113456101D01*
X81234899Y-112658603D01*
X80813370Y-112484000D01*
X86103801Y-112484000D01*
X86103801Y-114084000D01*
X86153084Y-114331765D01*
X86293432Y-114541809D01*
X86503476Y-114682157D01*
X86751241Y-114731440D01*
X88351241Y-114731440D01*
X88599006Y-114682157D01*
X88809050Y-114541809D01*
X88949398Y-114331765D01*
X88969342Y-114231497D01*
X89238379Y-114500534D01*
X89765802Y-114719000D01*
X90336680Y-114719000D01*
X90864103Y-114500534D01*
X91267775Y-114096862D01*
X91486241Y-113569439D01*
X91486241Y-113500000D01*
X99898560Y-113500000D01*
X99898560Y-115100000D01*
X99947843Y-115347765D01*
X100088191Y-115557809D01*
X100298235Y-115698157D01*
X100546000Y-115747440D01*
X102146000Y-115747440D01*
X102393765Y-115698157D01*
X102603809Y-115557809D01*
X102744157Y-115347765D01*
X102764101Y-115247497D01*
X103033138Y-115516534D01*
X103560561Y-115735000D01*
X104131439Y-115735000D01*
X104658862Y-115516534D01*
X104684725Y-115490671D01*
X107927284Y-115490671D01*
X108050626Y-115697000D01*
X109093000Y-115697000D01*
X109093000Y-114653794D01*
X109347000Y-114653794D01*
X109347000Y-115697000D01*
X110389374Y-115697000D01*
X110472197Y-115558452D01*
X115505000Y-115558452D01*
X115505000Y-116089548D01*
X115708242Y-116580217D01*
X116083783Y-116955758D01*
X116574452Y-117159000D01*
X117105548Y-117159000D01*
X117596217Y-116955758D01*
X117971758Y-116580217D01*
X118175000Y-116089548D01*
X118175000Y-115558452D01*
X117971758Y-115067783D01*
X117596217Y-114692242D01*
X117105548Y-114489000D01*
X116574452Y-114489000D01*
X116083783Y-114692242D01*
X115708242Y-115067783D01*
X115505000Y-115558452D01*
X110472197Y-115558452D01*
X110512716Y-115490671D01*
X110369797Y-115145604D01*
X110022663Y-114757236D01*
X109553331Y-114531273D01*
X109347000Y-114653794D01*
X109093000Y-114653794D01*
X108886669Y-114531273D01*
X108417337Y-114757236D01*
X108070203Y-115145604D01*
X107927284Y-115490671D01*
X104684725Y-115490671D01*
X105062534Y-115112862D01*
X105281000Y-114585439D01*
X105281000Y-114014561D01*
X105062534Y-113487138D01*
X104658862Y-113083466D01*
X104131439Y-112865000D01*
X103560561Y-112865000D01*
X103033138Y-113083466D01*
X102764101Y-113352503D01*
X102744157Y-113252235D01*
X102603809Y-113042191D01*
X102393765Y-112901843D01*
X102146000Y-112852560D01*
X100546000Y-112852560D01*
X100298235Y-112901843D01*
X100088191Y-113042191D01*
X99947843Y-113252235D01*
X99898560Y-113500000D01*
X91486241Y-113500000D01*
X91486241Y-112998561D01*
X91267775Y-112471138D01*
X90864103Y-112067466D01*
X90735025Y-112014000D01*
X92618846Y-112014000D01*
X92722458Y-112534891D01*
X93017519Y-112976481D01*
X93459109Y-113271542D01*
X93848515Y-113349000D01*
X94111485Y-113349000D01*
X94500891Y-113271542D01*
X94942481Y-112976481D01*
X95237542Y-112534891D01*
X95341154Y-112014000D01*
X96298179Y-112014000D01*
X96401791Y-112534891D01*
X96696852Y-112976481D01*
X97138442Y-113271542D01*
X97527848Y-113349000D01*
X97790818Y-113349000D01*
X98180224Y-113271542D01*
X98621814Y-112976481D01*
X98831374Y-112662852D01*
X107885000Y-112662852D01*
X107885000Y-113193948D01*
X108088242Y-113684617D01*
X108463783Y-114060158D01*
X108954452Y-114263400D01*
X109485548Y-114263400D01*
X109976217Y-114060158D01*
X110351758Y-113684617D01*
X110555000Y-113193948D01*
X110555000Y-112928400D01*
X115478846Y-112928400D01*
X115582458Y-113449291D01*
X115877519Y-113890881D01*
X116319109Y-114185942D01*
X116708515Y-114263400D01*
X116971485Y-114263400D01*
X117360891Y-114185942D01*
X117423661Y-114144000D01*
X119030275Y-114144000D01*
X119120305Y-114596609D01*
X119242174Y-114779000D01*
X119120305Y-114961391D01*
X119030275Y-115414000D01*
X119120305Y-115866609D01*
X119376687Y-116250313D01*
X119760391Y-116506695D01*
X120098754Y-116574000D01*
X120777246Y-116574000D01*
X121115609Y-116506695D01*
X121499313Y-116250313D01*
X121755695Y-115866609D01*
X121797100Y-115658452D01*
X123633000Y-115658452D01*
X123633000Y-116189548D01*
X123836242Y-116680217D01*
X124211783Y-117055758D01*
X124702452Y-117259000D01*
X125233548Y-117259000D01*
X125724217Y-117055758D01*
X126099758Y-116680217D01*
X126303000Y-116189548D01*
X126303000Y-115658452D01*
X126099758Y-115167783D01*
X125724217Y-114792242D01*
X125233548Y-114589000D01*
X124702452Y-114589000D01*
X124211783Y-114792242D01*
X123836242Y-115167783D01*
X123633000Y-115658452D01*
X121797100Y-115658452D01*
X121845725Y-115414000D01*
X121755695Y-114961391D01*
X121633826Y-114779000D01*
X121755695Y-114596609D01*
X121845725Y-114144000D01*
X121755843Y-113692133D01*
X121786157Y-113646765D01*
X121835440Y-113399000D01*
X121835440Y-112349000D01*
X121786157Y-112101235D01*
X121645809Y-111891191D01*
X121435765Y-111750843D01*
X121188000Y-111701560D01*
X119688000Y-111701560D01*
X119440235Y-111750843D01*
X119230191Y-111891191D01*
X119089843Y-112101235D01*
X119040560Y-112349000D01*
X119040560Y-113399000D01*
X119089843Y-113646765D01*
X119120157Y-113692133D01*
X119030275Y-114144000D01*
X117423661Y-114144000D01*
X117802481Y-113890881D01*
X118097542Y-113449291D01*
X118201154Y-112928400D01*
X118097542Y-112407509D01*
X117802481Y-111965919D01*
X117360891Y-111670858D01*
X116971485Y-111593400D01*
X116708515Y-111593400D01*
X116319109Y-111670858D01*
X115877519Y-111965919D01*
X115582458Y-112407509D01*
X115478846Y-112928400D01*
X110555000Y-112928400D01*
X110555000Y-112662852D01*
X110351758Y-112172183D01*
X109976217Y-111796642D01*
X109485548Y-111593400D01*
X108954452Y-111593400D01*
X108463783Y-111796642D01*
X108088242Y-112172183D01*
X107885000Y-112662852D01*
X98831374Y-112662852D01*
X98916875Y-112534891D01*
X99020487Y-112014000D01*
X98916875Y-111493109D01*
X98621814Y-111051519D01*
X98180224Y-110756458D01*
X97790818Y-110679000D01*
X97527848Y-110679000D01*
X97138442Y-110756458D01*
X96696852Y-111051519D01*
X96401791Y-111493109D01*
X96298179Y-112014000D01*
X95341154Y-112014000D01*
X95237542Y-111493109D01*
X94942481Y-111051519D01*
X94500891Y-110756458D01*
X94111485Y-110679000D01*
X93848515Y-110679000D01*
X93459109Y-110756458D01*
X93017519Y-111051519D01*
X92722458Y-111493109D01*
X92618846Y-112014000D01*
X90735025Y-112014000D01*
X90336680Y-111849000D01*
X89765802Y-111849000D01*
X89238379Y-112067466D01*
X88969342Y-112336503D01*
X88949398Y-112236235D01*
X88809050Y-112026191D01*
X88599006Y-111885843D01*
X88351241Y-111836560D01*
X86751241Y-111836560D01*
X86503476Y-111885843D01*
X86293432Y-112026191D01*
X86153084Y-112236235D01*
X86103801Y-112484000D01*
X80813370Y-112484000D01*
X80192917Y-112227000D01*
X79065083Y-112227000D01*
X78023101Y-112658603D01*
X77418000Y-113263704D01*
X77418000Y-108934561D01*
X100353666Y-108934561D01*
X100353666Y-109505439D01*
X100572132Y-110032862D01*
X100975804Y-110436534D01*
X101503227Y-110655000D01*
X102074105Y-110655000D01*
X102601528Y-110436534D01*
X103005200Y-110032862D01*
X103073797Y-109867252D01*
X104583000Y-109867252D01*
X104583000Y-110398348D01*
X104786242Y-110889017D01*
X105161783Y-111264558D01*
X105652452Y-111467800D01*
X106183548Y-111467800D01*
X106674217Y-111264558D01*
X107049758Y-110889017D01*
X107253000Y-110398348D01*
X107253000Y-109867252D01*
X107049758Y-109376583D01*
X106674217Y-109001042D01*
X106183548Y-108797800D01*
X105652452Y-108797800D01*
X105161783Y-109001042D01*
X104786242Y-109376583D01*
X104583000Y-109867252D01*
X103073797Y-109867252D01*
X103223666Y-109505439D01*
X103223666Y-108934561D01*
X103005200Y-108407138D01*
X102601528Y-108003466D01*
X102074105Y-107785000D01*
X101503227Y-107785000D01*
X100975804Y-108003466D01*
X100572132Y-108407138D01*
X100353666Y-108934561D01*
X77418000Y-108934561D01*
X77418000Y-105801349D01*
X77468355Y-105922924D01*
X77858642Y-106351183D01*
X78383108Y-106597486D01*
X78613000Y-106476819D01*
X78613000Y-105283000D01*
X78867000Y-105283000D01*
X78867000Y-106476819D01*
X79096892Y-106597486D01*
X79621358Y-106351183D01*
X80011645Y-105922924D01*
X80181476Y-105512890D01*
X80110375Y-105378161D01*
X85981000Y-105378161D01*
X85981000Y-105949039D01*
X86199466Y-106476462D01*
X86603138Y-106880134D01*
X87130561Y-107098600D01*
X87701439Y-107098600D01*
X88228862Y-106880134D01*
X88497899Y-106611097D01*
X88517843Y-106711365D01*
X88658191Y-106921409D01*
X88868235Y-107061757D01*
X89116000Y-107111040D01*
X90716000Y-107111040D01*
X90963765Y-107061757D01*
X91173809Y-106921409D01*
X91314157Y-106711365D01*
X91363440Y-106463600D01*
X91363440Y-104863600D01*
X91314157Y-104615835D01*
X91173809Y-104405791D01*
X90963765Y-104265443D01*
X90716000Y-104216160D01*
X89116000Y-104216160D01*
X88868235Y-104265443D01*
X88658191Y-104405791D01*
X88517843Y-104615835D01*
X88497899Y-104716103D01*
X88228862Y-104447066D01*
X87701439Y-104228600D01*
X87130561Y-104228600D01*
X86603138Y-104447066D01*
X86199466Y-104850738D01*
X85981000Y-105378161D01*
X80110375Y-105378161D01*
X80060155Y-105283000D01*
X78867000Y-105283000D01*
X78613000Y-105283000D01*
X78593000Y-105283000D01*
X78593000Y-105029000D01*
X78613000Y-105029000D01*
X78613000Y-105009000D01*
X78867000Y-105009000D01*
X78867000Y-105029000D01*
X80060155Y-105029000D01*
X80181476Y-104799110D01*
X80011645Y-104389076D01*
X79621358Y-103960817D01*
X79491522Y-103899843D01*
X79810625Y-103686625D01*
X80138839Y-103195418D01*
X80178306Y-102997000D01*
X80934846Y-102997000D01*
X81038458Y-103517891D01*
X81333519Y-103959481D01*
X81775109Y-104254542D01*
X82164515Y-104332000D01*
X82427485Y-104332000D01*
X82816891Y-104254542D01*
X83005598Y-104128452D01*
X92645000Y-104128452D01*
X92645000Y-104659548D01*
X92848242Y-105150217D01*
X93223783Y-105525758D01*
X93714452Y-105729000D01*
X94245548Y-105729000D01*
X94736217Y-105525758D01*
X95111758Y-105150217D01*
X95315000Y-104659548D01*
X95315000Y-104128452D01*
X96324333Y-104128452D01*
X96324333Y-104659548D01*
X96527575Y-105150217D01*
X96903116Y-105525758D01*
X97393785Y-105729000D01*
X97924881Y-105729000D01*
X98415550Y-105525758D01*
X98791091Y-105150217D01*
X98994333Y-104659548D01*
X98994333Y-104128452D01*
X98914021Y-103934561D01*
X100353666Y-103934561D01*
X100353666Y-104505439D01*
X100572132Y-105032862D01*
X100975804Y-105436534D01*
X101503227Y-105655000D01*
X102074105Y-105655000D01*
X102601528Y-105436534D01*
X103005200Y-105032862D01*
X103223666Y-104505439D01*
X103223666Y-103934561D01*
X103005200Y-103407138D01*
X102601528Y-103003466D01*
X102074105Y-102785000D01*
X101503227Y-102785000D01*
X100975804Y-103003466D01*
X100572132Y-103407138D01*
X100353666Y-103934561D01*
X98914021Y-103934561D01*
X98791091Y-103637783D01*
X98415550Y-103262242D01*
X97924881Y-103059000D01*
X97393785Y-103059000D01*
X96903116Y-103262242D01*
X96527575Y-103637783D01*
X96324333Y-104128452D01*
X95315000Y-104128452D01*
X95111758Y-103637783D01*
X94736217Y-103262242D01*
X94245548Y-103059000D01*
X93714452Y-103059000D01*
X93223783Y-103262242D01*
X92848242Y-103637783D01*
X92645000Y-104128452D01*
X83005598Y-104128452D01*
X83258481Y-103959481D01*
X83553542Y-103517891D01*
X83657154Y-102997000D01*
X83560841Y-102512800D01*
X104556846Y-102512800D01*
X104660458Y-103033691D01*
X104955519Y-103475281D01*
X105397109Y-103770342D01*
X105786515Y-103847800D01*
X106049485Y-103847800D01*
X106438891Y-103770342D01*
X106880481Y-103475281D01*
X107175542Y-103033691D01*
X107279154Y-102512800D01*
X107175542Y-101991909D01*
X106880481Y-101550319D01*
X106438891Y-101255258D01*
X106049485Y-101177800D01*
X105786515Y-101177800D01*
X105397109Y-101255258D01*
X104955519Y-101550319D01*
X104660458Y-101991909D01*
X104556846Y-102512800D01*
X83560841Y-102512800D01*
X83553542Y-102476109D01*
X83258481Y-102034519D01*
X82816891Y-101739458D01*
X82427485Y-101662000D01*
X82164515Y-101662000D01*
X81775109Y-101739458D01*
X81333519Y-102034519D01*
X81038458Y-102476109D01*
X80934846Y-102997000D01*
X80178306Y-102997000D01*
X80254092Y-102616000D01*
X80138839Y-102036582D01*
X79810625Y-101545375D01*
X79512239Y-101346000D01*
X79810625Y-101146625D01*
X80138839Y-100655418D01*
X80243817Y-100127652D01*
X83628000Y-100127652D01*
X83628000Y-100658748D01*
X83831242Y-101149417D01*
X84206783Y-101524958D01*
X84697452Y-101728200D01*
X85228548Y-101728200D01*
X85719217Y-101524958D01*
X86094758Y-101149417D01*
X86298000Y-100658748D01*
X86298000Y-100127652D01*
X86094758Y-99636983D01*
X85719217Y-99261442D01*
X85228548Y-99058200D01*
X84697452Y-99058200D01*
X84206783Y-99261442D01*
X83831242Y-99636983D01*
X83628000Y-100127652D01*
X80243817Y-100127652D01*
X80254092Y-100076000D01*
X80138839Y-99496582D01*
X79810625Y-99005375D01*
X79512239Y-98806000D01*
X79810625Y-98606625D01*
X80138839Y-98115418D01*
X80254092Y-97536000D01*
X80241521Y-97472800D01*
X83601846Y-97472800D01*
X83705458Y-97993691D01*
X84000519Y-98435281D01*
X84442109Y-98730342D01*
X84831515Y-98807800D01*
X85094485Y-98807800D01*
X85483891Y-98730342D01*
X85925481Y-98435281D01*
X86220542Y-97993691D01*
X86324154Y-97472800D01*
X86220542Y-96951909D01*
X85925481Y-96510319D01*
X85483891Y-96215258D01*
X85094485Y-96137800D01*
X84831515Y-96137800D01*
X84442109Y-96215258D01*
X84000519Y-96510319D01*
X83705458Y-96951909D01*
X83601846Y-97472800D01*
X80241521Y-97472800D01*
X80138839Y-96956582D01*
X79810625Y-96465375D01*
X79581495Y-96312275D01*
X81540331Y-96312275D01*
X81602169Y-96548042D01*
X82103122Y-96724419D01*
X82633440Y-96695664D01*
X82989831Y-96548042D01*
X83051669Y-96312275D01*
X82296000Y-95556605D01*
X81540331Y-96312275D01*
X79581495Y-96312275D01*
X79491522Y-96252157D01*
X79621358Y-96191183D01*
X80011645Y-95762924D01*
X80181476Y-95352890D01*
X80092412Y-95184122D01*
X80948581Y-95184122D01*
X80977336Y-95714440D01*
X81124958Y-96070831D01*
X81360725Y-96132669D01*
X82116395Y-95377000D01*
X82475605Y-95377000D01*
X83231275Y-96132669D01*
X83467042Y-96070831D01*
X83643419Y-95569878D01*
X83614664Y-95039560D01*
X83467042Y-94683169D01*
X83231275Y-94621331D01*
X82475605Y-95377000D01*
X82116395Y-95377000D01*
X81360725Y-94621331D01*
X81124958Y-94683169D01*
X80948581Y-95184122D01*
X80092412Y-95184122D01*
X80060155Y-95123000D01*
X78867000Y-95123000D01*
X78867000Y-95143000D01*
X78613000Y-95143000D01*
X78613000Y-95123000D01*
X78593000Y-95123000D01*
X78593000Y-94869000D01*
X78613000Y-94869000D01*
X78613000Y-94849000D01*
X78867000Y-94849000D01*
X78867000Y-94869000D01*
X80060155Y-94869000D01*
X80181476Y-94639110D01*
X80099722Y-94441725D01*
X81540331Y-94441725D01*
X82296000Y-95197395D01*
X83051669Y-94441725D01*
X82989831Y-94205958D01*
X82488878Y-94029581D01*
X81958560Y-94058336D01*
X81602169Y-94205958D01*
X81540331Y-94441725D01*
X80099722Y-94441725D01*
X80011645Y-94229076D01*
X79734292Y-93924739D01*
X79837765Y-93904157D01*
X80047809Y-93763809D01*
X80188157Y-93553765D01*
X80237440Y-93306000D01*
X80237440Y-93243400D01*
X84319649Y-93243400D01*
X91262926Y-100186678D01*
X91221846Y-100393200D01*
X91325458Y-100914091D01*
X91620519Y-101355681D01*
X92062109Y-101650742D01*
X92451515Y-101728200D01*
X92714485Y-101728200D01*
X93103891Y-101650742D01*
X93545481Y-101355681D01*
X93840542Y-100914091D01*
X93944154Y-100393200D01*
X93929941Y-100321745D01*
X95985861Y-100321745D01*
X96059995Y-100567864D01*
X96597223Y-100760965D01*
X97167454Y-100733778D01*
X97568005Y-100567864D01*
X97642139Y-100321745D01*
X96814000Y-99493605D01*
X95985861Y-100321745D01*
X93929941Y-100321745D01*
X93917066Y-100257019D01*
X93958415Y-100195136D01*
X95541383Y-98612169D01*
X95367035Y-99097223D01*
X95394222Y-99667454D01*
X95560136Y-100068005D01*
X95806255Y-100142139D01*
X96634395Y-99314000D01*
X96620252Y-99299858D01*
X96799858Y-99120252D01*
X96814000Y-99134395D01*
X97642139Y-98306255D01*
X97570795Y-98069400D01*
X98047365Y-98069400D01*
X97915843Y-98266235D01*
X97869307Y-98500187D01*
X97821745Y-98485861D01*
X96993605Y-99314000D01*
X97821745Y-100142139D01*
X97869307Y-100127813D01*
X97915843Y-100361765D01*
X98056191Y-100571809D01*
X98266235Y-100712157D01*
X98514000Y-100761440D01*
X100114000Y-100761440D01*
X100361765Y-100712157D01*
X100571809Y-100571809D01*
X100712157Y-100361765D01*
X100761440Y-100114000D01*
X100761440Y-100067745D01*
X103097861Y-100067745D01*
X103171995Y-100313864D01*
X103709223Y-100506965D01*
X104279454Y-100479778D01*
X104680005Y-100313864D01*
X104754139Y-100067745D01*
X103926000Y-99239605D01*
X103097861Y-100067745D01*
X100761440Y-100067745D01*
X100761440Y-98514000D01*
X100712157Y-98266235D01*
X100580635Y-98069400D01*
X102850964Y-98069400D01*
X102803378Y-98116986D01*
X102918253Y-98231861D01*
X102672136Y-98305995D01*
X102479035Y-98843223D01*
X102506222Y-99413454D01*
X102672136Y-99814005D01*
X102918255Y-99888139D01*
X103746395Y-99060000D01*
X103732252Y-99045858D01*
X103911858Y-98866252D01*
X103926000Y-98880395D01*
X103940143Y-98866253D01*
X104119748Y-99045858D01*
X104105605Y-99060000D01*
X104933745Y-99888139D01*
X105179864Y-99814005D01*
X105182290Y-99807254D01*
X105209466Y-99872862D01*
X105613138Y-100276534D01*
X106140561Y-100495000D01*
X106711439Y-100495000D01*
X107238862Y-100276534D01*
X107642534Y-99872862D01*
X107653081Y-99847400D01*
X108020265Y-99847400D01*
X108185423Y-100094577D01*
X108537758Y-100330000D01*
X108185423Y-100565423D01*
X107868260Y-101040091D01*
X107756887Y-101600000D01*
X107868260Y-102159909D01*
X108185423Y-102634577D01*
X108537758Y-102870000D01*
X108185423Y-103105423D01*
X107868260Y-103580091D01*
X107756887Y-104140000D01*
X107868260Y-104699909D01*
X108185423Y-105174577D01*
X108537758Y-105410000D01*
X108185423Y-105645423D01*
X107868260Y-106120091D01*
X107756887Y-106680000D01*
X107868260Y-107239909D01*
X108185423Y-107714577D01*
X108660091Y-108031740D01*
X109078667Y-108115000D01*
X109361333Y-108115000D01*
X109779909Y-108031740D01*
X110254577Y-107714577D01*
X110571740Y-107239909D01*
X110683113Y-106680000D01*
X110571740Y-106120091D01*
X110254577Y-105645423D01*
X109902242Y-105410000D01*
X110254577Y-105174577D01*
X110571740Y-104699909D01*
X110683113Y-104140000D01*
X110571740Y-103580091D01*
X110254577Y-103105423D01*
X109902242Y-102870000D01*
X110254577Y-102634577D01*
X110571740Y-102159909D01*
X110677030Y-101630582D01*
X110718600Y-101672152D01*
X110718601Y-107420647D01*
X109426523Y-108712726D01*
X109351485Y-108697800D01*
X109088515Y-108697800D01*
X108699109Y-108775258D01*
X108257519Y-109070319D01*
X107962458Y-109511909D01*
X107858846Y-110032800D01*
X107962458Y-110553691D01*
X108257519Y-110995281D01*
X108699109Y-111290342D01*
X109088515Y-111367800D01*
X109351485Y-111367800D01*
X109740891Y-111290342D01*
X110182481Y-110995281D01*
X110477542Y-110553691D01*
X110581154Y-110032800D01*
X110540074Y-109826277D01*
X110599099Y-109767252D01*
X115505000Y-109767252D01*
X115505000Y-110298348D01*
X115708242Y-110789017D01*
X116083783Y-111164558D01*
X116574452Y-111367800D01*
X117105548Y-111367800D01*
X117596217Y-111164558D01*
X117971758Y-110789017D01*
X118175000Y-110298348D01*
X118175000Y-109767252D01*
X117971758Y-109276583D01*
X117596217Y-108901042D01*
X117105548Y-108697800D01*
X116574452Y-108697800D01*
X116083783Y-108901042D01*
X115708242Y-109276583D01*
X115505000Y-109767252D01*
X110599099Y-109767252D01*
X112007938Y-108358414D01*
X112073684Y-108314484D01*
X112247715Y-108054028D01*
X112293400Y-107824352D01*
X112308826Y-107746801D01*
X112293400Y-107669250D01*
X112293400Y-101600000D01*
X115376887Y-101600000D01*
X115488260Y-102159909D01*
X115805423Y-102634577D01*
X116157758Y-102870000D01*
X115805423Y-103105423D01*
X115488260Y-103580091D01*
X115376887Y-104140000D01*
X115488260Y-104699909D01*
X115805423Y-105174577D01*
X116157758Y-105410000D01*
X115805423Y-105645423D01*
X115488260Y-106120091D01*
X115376887Y-106680000D01*
X115488260Y-107239909D01*
X115805423Y-107714577D01*
X116280091Y-108031740D01*
X116698667Y-108115000D01*
X116981333Y-108115000D01*
X117399909Y-108031740D01*
X117874577Y-107714577D01*
X117894705Y-107684452D01*
X118299000Y-107684452D01*
X118299000Y-108215548D01*
X118502242Y-108706217D01*
X118877783Y-109081758D01*
X119368452Y-109285000D01*
X119899548Y-109285000D01*
X120390217Y-109081758D01*
X120765758Y-108706217D01*
X120932361Y-108304000D01*
X123606846Y-108304000D01*
X123710458Y-108824891D01*
X124005519Y-109266481D01*
X124447109Y-109561542D01*
X124836515Y-109639000D01*
X125099485Y-109639000D01*
X125488891Y-109561542D01*
X125930481Y-109266481D01*
X126225542Y-108824891D01*
X126329154Y-108304000D01*
X126225542Y-107783109D01*
X125930481Y-107341519D01*
X125488891Y-107046458D01*
X125099485Y-106969000D01*
X124836515Y-106969000D01*
X124447109Y-107046458D01*
X124005519Y-107341519D01*
X123710458Y-107783109D01*
X123606846Y-108304000D01*
X120932361Y-108304000D01*
X120969000Y-108215548D01*
X120969000Y-107684452D01*
X120765758Y-107193783D01*
X120390217Y-106818242D01*
X119899548Y-106615000D01*
X119368452Y-106615000D01*
X118877783Y-106818242D01*
X118502242Y-107193783D01*
X118299000Y-107684452D01*
X117894705Y-107684452D01*
X118191740Y-107239909D01*
X118303113Y-106680000D01*
X118191740Y-106120091D01*
X117874577Y-105645423D01*
X117522242Y-105410000D01*
X117874577Y-105174577D01*
X118191740Y-104699909D01*
X118303113Y-104140000D01*
X118191740Y-103580091D01*
X117874577Y-103105423D01*
X117522242Y-102870000D01*
X117874577Y-102634577D01*
X118191740Y-102159909D01*
X118303113Y-101600000D01*
X118191740Y-101040091D01*
X117874577Y-100565423D01*
X117522242Y-100330000D01*
X118272846Y-100330000D01*
X118376458Y-100850891D01*
X118671519Y-101292481D01*
X119113109Y-101587542D01*
X119502515Y-101665000D01*
X119765485Y-101665000D01*
X120154891Y-101587542D01*
X120596481Y-101292481D01*
X120891542Y-100850891D01*
X120995154Y-100330000D01*
X120891542Y-99809109D01*
X120596481Y-99367519D01*
X120154891Y-99072458D01*
X119765485Y-98995000D01*
X119502515Y-98995000D01*
X119113109Y-99072458D01*
X118671519Y-99367519D01*
X118376458Y-99809109D01*
X118272846Y-100330000D01*
X117522242Y-100330000D01*
X117490892Y-100309053D01*
X117695134Y-100212389D01*
X118071041Y-99797423D01*
X118231904Y-99409039D01*
X118109915Y-99187000D01*
X116967000Y-99187000D01*
X116967000Y-99207000D01*
X116713000Y-99207000D01*
X116713000Y-99187000D01*
X115570085Y-99187000D01*
X115448096Y-99409039D01*
X115608959Y-99797423D01*
X115984866Y-100212389D01*
X116189108Y-100309053D01*
X115805423Y-100565423D01*
X115488260Y-101040091D01*
X115376887Y-101600000D01*
X112293400Y-101600000D01*
X112293400Y-101423550D01*
X112308826Y-101345999D01*
X112269168Y-101146625D01*
X112247715Y-101038772D01*
X112073684Y-100778316D01*
X112007938Y-100734386D01*
X110625117Y-99351566D01*
X110683113Y-99060000D01*
X110625117Y-98768434D01*
X112007938Y-97385614D01*
X112073684Y-97341684D01*
X112247715Y-97081228D01*
X112293400Y-96851552D01*
X112293400Y-96851551D01*
X112308826Y-96774001D01*
X112293400Y-96696450D01*
X112293400Y-91440000D01*
X115376887Y-91440000D01*
X115488260Y-91999909D01*
X115805423Y-92474577D01*
X116157758Y-92710000D01*
X115805423Y-92945423D01*
X115488260Y-93420091D01*
X115376887Y-93980000D01*
X115488260Y-94539909D01*
X115805423Y-95014577D01*
X116157758Y-95250000D01*
X115805423Y-95485423D01*
X115488260Y-95960091D01*
X115376887Y-96520000D01*
X115488260Y-97079909D01*
X115805423Y-97554577D01*
X116189108Y-97810947D01*
X115984866Y-97907611D01*
X115608959Y-98322577D01*
X115448096Y-98710961D01*
X115570085Y-98933000D01*
X116713000Y-98933000D01*
X116713000Y-98913000D01*
X116967000Y-98913000D01*
X116967000Y-98933000D01*
X118109915Y-98933000D01*
X118231904Y-98710961D01*
X118071041Y-98322577D01*
X117695134Y-97907611D01*
X117490892Y-97810947D01*
X117874577Y-97554577D01*
X118064423Y-97270452D01*
X118299000Y-97270452D01*
X118299000Y-97801548D01*
X118502242Y-98292217D01*
X118877783Y-98667758D01*
X119368452Y-98871000D01*
X119899548Y-98871000D01*
X120390217Y-98667758D01*
X120765758Y-98292217D01*
X120969000Y-97801548D01*
X120969000Y-97270452D01*
X120765758Y-96779783D01*
X120390217Y-96404242D01*
X119899548Y-96201000D01*
X119368452Y-96201000D01*
X118877783Y-96404242D01*
X118502242Y-96779783D01*
X118299000Y-97270452D01*
X118064423Y-97270452D01*
X118191740Y-97079909D01*
X118303113Y-96520000D01*
X118191740Y-95960091D01*
X117874577Y-95485423D01*
X117522242Y-95250000D01*
X117874577Y-95014577D01*
X118191740Y-94539909D01*
X118303113Y-93980000D01*
X118191740Y-93420091D01*
X117874577Y-92945423D01*
X117522242Y-92710000D01*
X117874577Y-92474577D01*
X118191740Y-91999909D01*
X118303113Y-91440000D01*
X118191740Y-90880091D01*
X117874577Y-90405423D01*
X117399909Y-90088260D01*
X116981333Y-90005000D01*
X116698667Y-90005000D01*
X116280091Y-90088260D01*
X115805423Y-90405423D01*
X115488260Y-90880091D01*
X115376887Y-91440000D01*
X112293400Y-91440000D01*
X112293400Y-90501550D01*
X112308826Y-90423999D01*
X112291123Y-90335000D01*
X112247715Y-90116772D01*
X112113564Y-89916000D01*
X118272846Y-89916000D01*
X118376458Y-90436891D01*
X118671519Y-90878481D01*
X119113109Y-91173542D01*
X119502515Y-91251000D01*
X119765485Y-91251000D01*
X120154891Y-91173542D01*
X120596481Y-90878481D01*
X120891542Y-90436891D01*
X120995154Y-89916000D01*
X120891542Y-89395109D01*
X120596481Y-88953519D01*
X120154891Y-88658458D01*
X119765485Y-88581000D01*
X119502515Y-88581000D01*
X119113109Y-88658458D01*
X118671519Y-88953519D01*
X118376458Y-89395109D01*
X118272846Y-89916000D01*
X112113564Y-89916000D01*
X112073684Y-89856316D01*
X112007938Y-89812386D01*
X110540074Y-88344523D01*
X110581154Y-88138000D01*
X110528334Y-87872452D01*
X115505000Y-87872452D01*
X115505000Y-88403548D01*
X115708242Y-88894217D01*
X116083783Y-89269758D01*
X116574452Y-89473000D01*
X117105548Y-89473000D01*
X117596217Y-89269758D01*
X117971758Y-88894217D01*
X118175000Y-88403548D01*
X118175000Y-87872452D01*
X117971758Y-87381783D01*
X117596217Y-87006242D01*
X117105548Y-86803000D01*
X116574452Y-86803000D01*
X116083783Y-87006242D01*
X115708242Y-87381783D01*
X115505000Y-87872452D01*
X110528334Y-87872452D01*
X110477542Y-87617109D01*
X110182481Y-87175519D01*
X109740891Y-86880458D01*
X109351485Y-86803000D01*
X109088515Y-86803000D01*
X108699109Y-86880458D01*
X108257519Y-87175519D01*
X107962458Y-87617109D01*
X107858846Y-88138000D01*
X107962458Y-88658891D01*
X108257519Y-89100481D01*
X108699109Y-89395542D01*
X109088515Y-89473000D01*
X109351485Y-89473000D01*
X109426523Y-89458074D01*
X109961008Y-89992560D01*
X108420000Y-89992560D01*
X108172235Y-90041843D01*
X107962191Y-90182191D01*
X107821843Y-90392235D01*
X107772560Y-90640000D01*
X107772560Y-92240000D01*
X107821843Y-92487765D01*
X107962191Y-92697809D01*
X108172235Y-92838157D01*
X108306106Y-92864785D01*
X108185423Y-92945423D01*
X107868260Y-93420091D01*
X107756887Y-93980000D01*
X107868260Y-94539909D01*
X108185423Y-95014577D01*
X108537758Y-95250000D01*
X108185423Y-95485423D01*
X107868260Y-95960091D01*
X107756887Y-96520000D01*
X107868260Y-97079909D01*
X108185423Y-97554577D01*
X108537758Y-97790000D01*
X108185423Y-98025423D01*
X108020265Y-98272600D01*
X107653081Y-98272600D01*
X107642534Y-98247138D01*
X107238862Y-97843466D01*
X106711439Y-97625000D01*
X106140561Y-97625000D01*
X106115098Y-97635547D01*
X105259616Y-96780065D01*
X105215684Y-96714316D01*
X104955228Y-96540285D01*
X104725552Y-96494600D01*
X104725551Y-96494600D01*
X104648000Y-96479174D01*
X104570449Y-96494600D01*
X95835550Y-96494600D01*
X95757999Y-96479174D01*
X95680448Y-96494600D01*
X95450772Y-96540285D01*
X95190316Y-96714316D01*
X95146386Y-96780062D01*
X93608128Y-98318320D01*
X93518277Y-98228469D01*
X93754042Y-98166631D01*
X93930419Y-97665678D01*
X93901664Y-97135360D01*
X93754042Y-96778969D01*
X93518275Y-96717131D01*
X92762605Y-97472800D01*
X92776748Y-97486942D01*
X92597142Y-97666548D01*
X92583000Y-97652405D01*
X92568858Y-97666548D01*
X92389252Y-97486942D01*
X92403395Y-97472800D01*
X91647725Y-96717131D01*
X91411958Y-96778969D01*
X91235581Y-97279922D01*
X91264336Y-97810240D01*
X91370928Y-98067577D01*
X89840876Y-96537525D01*
X91827331Y-96537525D01*
X92583000Y-97293195D01*
X93338669Y-96537525D01*
X93276831Y-96301758D01*
X92775878Y-96125381D01*
X92245560Y-96154136D01*
X91889169Y-96301758D01*
X91827331Y-96537525D01*
X89840876Y-96537525D01*
X88707351Y-95404000D01*
X104556846Y-95404000D01*
X104660458Y-95924891D01*
X104955519Y-96366481D01*
X105397109Y-96661542D01*
X105786515Y-96739000D01*
X106049485Y-96739000D01*
X106438891Y-96661542D01*
X106880481Y-96366481D01*
X107175542Y-95924891D01*
X107279154Y-95404000D01*
X107175542Y-94883109D01*
X106880481Y-94441519D01*
X106438891Y-94146458D01*
X106049485Y-94069000D01*
X105786515Y-94069000D01*
X105397109Y-94146458D01*
X104955519Y-94441519D01*
X104660458Y-94883109D01*
X104556846Y-95404000D01*
X88707351Y-95404000D01*
X87017803Y-93714452D01*
X92645000Y-93714452D01*
X92645000Y-94245548D01*
X92848242Y-94736217D01*
X93223783Y-95111758D01*
X93714452Y-95315000D01*
X94245548Y-95315000D01*
X94736217Y-95111758D01*
X95111758Y-94736217D01*
X95315000Y-94245548D01*
X95315000Y-93714452D01*
X96324333Y-93714452D01*
X96324333Y-94245548D01*
X96527575Y-94736217D01*
X96903116Y-95111758D01*
X97393785Y-95315000D01*
X97924881Y-95315000D01*
X98415550Y-95111758D01*
X98791091Y-94736217D01*
X98994333Y-94245548D01*
X98994333Y-93714452D01*
X98952957Y-93614561D01*
X100353666Y-93614561D01*
X100353666Y-94185439D01*
X100572132Y-94712862D01*
X100975804Y-95116534D01*
X101503227Y-95335000D01*
X102074105Y-95335000D01*
X102601528Y-95116534D01*
X103005200Y-94712862D01*
X103223666Y-94185439D01*
X103223666Y-93614561D01*
X103005200Y-93087138D01*
X102601528Y-92683466D01*
X102074105Y-92465000D01*
X101503227Y-92465000D01*
X100975804Y-92683466D01*
X100572132Y-93087138D01*
X100353666Y-93614561D01*
X98952957Y-93614561D01*
X98791091Y-93223783D01*
X98415550Y-92848242D01*
X97924881Y-92645000D01*
X97393785Y-92645000D01*
X96903116Y-92848242D01*
X96527575Y-93223783D01*
X96324333Y-93714452D01*
X95315000Y-93714452D01*
X95111758Y-93223783D01*
X94736217Y-92848242D01*
X94245548Y-92645000D01*
X93714452Y-92645000D01*
X93223783Y-92848242D01*
X92848242Y-93223783D01*
X92645000Y-93714452D01*
X87017803Y-93714452D01*
X86806535Y-93503184D01*
X87130561Y-93637400D01*
X87701439Y-93637400D01*
X88228862Y-93418934D01*
X88497899Y-93149897D01*
X88517843Y-93250165D01*
X88658191Y-93460209D01*
X88868235Y-93600557D01*
X89116000Y-93649840D01*
X90716000Y-93649840D01*
X90963765Y-93600557D01*
X91173809Y-93460209D01*
X91314157Y-93250165D01*
X91363440Y-93002400D01*
X91363440Y-91402400D01*
X91314157Y-91154635D01*
X91173809Y-90944591D01*
X90963765Y-90804243D01*
X90716000Y-90754960D01*
X89116000Y-90754960D01*
X88868235Y-90804243D01*
X88658191Y-90944591D01*
X88517843Y-91154635D01*
X88497899Y-91254903D01*
X88228862Y-90985866D01*
X87701439Y-90767400D01*
X87130561Y-90767400D01*
X86603138Y-90985866D01*
X86199466Y-91389538D01*
X85981000Y-91916961D01*
X85981000Y-92487839D01*
X86115216Y-92811865D01*
X85257416Y-91954065D01*
X85213484Y-91888316D01*
X84953028Y-91714285D01*
X84723352Y-91668600D01*
X84723351Y-91668600D01*
X84645800Y-91653174D01*
X84568249Y-91668600D01*
X80237440Y-91668600D01*
X80237440Y-91606000D01*
X80188157Y-91358235D01*
X80047809Y-91148191D01*
X79837765Y-91007843D01*
X79590000Y-90958560D01*
X77890000Y-90958560D01*
X77642235Y-91007843D01*
X77432191Y-91148191D01*
X77418000Y-91169429D01*
X77418000Y-88614561D01*
X100353666Y-88614561D01*
X100353666Y-89185439D01*
X100572132Y-89712862D01*
X100975804Y-90116534D01*
X101503227Y-90335000D01*
X102074105Y-90335000D01*
X102601528Y-90116534D01*
X103005200Y-89712862D01*
X103223666Y-89185439D01*
X103223666Y-88614561D01*
X103005200Y-88087138D01*
X102601528Y-87683466D01*
X102203150Y-87518452D01*
X104583000Y-87518452D01*
X104583000Y-88049548D01*
X104786242Y-88540217D01*
X105161783Y-88915758D01*
X105652452Y-89119000D01*
X106183548Y-89119000D01*
X106674217Y-88915758D01*
X107049758Y-88540217D01*
X107253000Y-88049548D01*
X107253000Y-87518452D01*
X107049758Y-87027783D01*
X106674217Y-86652242D01*
X106183548Y-86449000D01*
X105652452Y-86449000D01*
X105161783Y-86652242D01*
X104786242Y-87027783D01*
X104583000Y-87518452D01*
X102203150Y-87518452D01*
X102074105Y-87465000D01*
X101503227Y-87465000D01*
X100975804Y-87683466D01*
X100572132Y-88087138D01*
X100353666Y-88614561D01*
X77418000Y-88614561D01*
X77418000Y-86360000D01*
X92618846Y-86360000D01*
X92722458Y-86880891D01*
X93017519Y-87322481D01*
X93459109Y-87617542D01*
X93848515Y-87695000D01*
X94111485Y-87695000D01*
X94500891Y-87617542D01*
X94942481Y-87322481D01*
X95237542Y-86880891D01*
X95341154Y-86360000D01*
X96298179Y-86360000D01*
X96401791Y-86880891D01*
X96696852Y-87322481D01*
X97138442Y-87617542D01*
X97527848Y-87695000D01*
X97790818Y-87695000D01*
X98180224Y-87617542D01*
X98621814Y-87322481D01*
X98916875Y-86880891D01*
X99020487Y-86360000D01*
X98916875Y-85839109D01*
X98621814Y-85397519D01*
X98219127Y-85128452D01*
X107885000Y-85128452D01*
X107885000Y-85659548D01*
X108088242Y-86150217D01*
X108463783Y-86525758D01*
X108954452Y-86729000D01*
X109485548Y-86729000D01*
X109976217Y-86525758D01*
X110351758Y-86150217D01*
X110555000Y-85659548D01*
X110555000Y-85394000D01*
X115478846Y-85394000D01*
X115582458Y-85914891D01*
X115877519Y-86356481D01*
X116319109Y-86651542D01*
X116708515Y-86729000D01*
X116971485Y-86729000D01*
X117360891Y-86651542D01*
X117802481Y-86356481D01*
X118097542Y-85914891D01*
X118201154Y-85394000D01*
X118097542Y-84873109D01*
X117802481Y-84431519D01*
X117360891Y-84136458D01*
X116971485Y-84059000D01*
X116708515Y-84059000D01*
X116319109Y-84136458D01*
X115877519Y-84431519D01*
X115582458Y-84873109D01*
X115478846Y-85394000D01*
X110555000Y-85394000D01*
X110555000Y-85128452D01*
X110351758Y-84637783D01*
X109976217Y-84262242D01*
X109485548Y-84059000D01*
X108954452Y-84059000D01*
X108463783Y-84262242D01*
X108088242Y-84637783D01*
X107885000Y-85128452D01*
X98219127Y-85128452D01*
X98180224Y-85102458D01*
X97790818Y-85025000D01*
X97527848Y-85025000D01*
X97138442Y-85102458D01*
X96696852Y-85397519D01*
X96401791Y-85839109D01*
X96298179Y-86360000D01*
X95341154Y-86360000D01*
X95237542Y-85839109D01*
X94942481Y-85397519D01*
X94500891Y-85102458D01*
X94111485Y-85025000D01*
X93848515Y-85025000D01*
X93459109Y-85102458D01*
X93017519Y-85397519D01*
X92722458Y-85839109D01*
X92618846Y-86360000D01*
X77418000Y-86360000D01*
X77418000Y-84221296D01*
X78023101Y-84826397D01*
X79065083Y-85258000D01*
X80192917Y-85258000D01*
X81234899Y-84826397D01*
X82032397Y-84028899D01*
X82134665Y-83782000D01*
X86103801Y-83782000D01*
X86103801Y-85382000D01*
X86153084Y-85629765D01*
X86293432Y-85839809D01*
X86503476Y-85980157D01*
X86751241Y-86029440D01*
X88351241Y-86029440D01*
X88599006Y-85980157D01*
X88809050Y-85839809D01*
X88949398Y-85629765D01*
X88969342Y-85529497D01*
X89238379Y-85798534D01*
X89765802Y-86017000D01*
X90336680Y-86017000D01*
X90864103Y-85798534D01*
X91267775Y-85394862D01*
X91486241Y-84867439D01*
X91486241Y-84296561D01*
X91267775Y-83769138D01*
X90864103Y-83365466D01*
X90336680Y-83147000D01*
X89765802Y-83147000D01*
X89238379Y-83365466D01*
X88969342Y-83634503D01*
X88949398Y-83534235D01*
X88809050Y-83324191D01*
X88599006Y-83183843D01*
X88351241Y-83134560D01*
X86751241Y-83134560D01*
X86503476Y-83183843D01*
X86293432Y-83324191D01*
X86153084Y-83534235D01*
X86103801Y-83782000D01*
X82134665Y-83782000D01*
X82464000Y-82986917D01*
X82464000Y-82766000D01*
X99898560Y-82766000D01*
X99898560Y-84366000D01*
X99947843Y-84613765D01*
X100088191Y-84823809D01*
X100298235Y-84964157D01*
X100546000Y-85013440D01*
X102146000Y-85013440D01*
X102393765Y-84964157D01*
X102603809Y-84823809D01*
X102744157Y-84613765D01*
X102764101Y-84513497D01*
X103033138Y-84782534D01*
X103560561Y-85001000D01*
X104131439Y-85001000D01*
X104658862Y-84782534D01*
X105062534Y-84378862D01*
X105281000Y-83851439D01*
X105281000Y-83280561D01*
X105157883Y-82983329D01*
X107927284Y-82983329D01*
X108070203Y-83328396D01*
X108417337Y-83716764D01*
X108886669Y-83942727D01*
X109093000Y-83820206D01*
X109093000Y-82777000D01*
X109347000Y-82777000D01*
X109347000Y-83820206D01*
X109553331Y-83942727D01*
X110022663Y-83716764D01*
X110369797Y-83328396D01*
X110512716Y-82983329D01*
X110389374Y-82777000D01*
X109347000Y-82777000D01*
X109093000Y-82777000D01*
X108050626Y-82777000D01*
X107927284Y-82983329D01*
X105157883Y-82983329D01*
X105062534Y-82753138D01*
X104658862Y-82349466D01*
X104579688Y-82316671D01*
X107927284Y-82316671D01*
X108050626Y-82523000D01*
X109093000Y-82523000D01*
X109093000Y-81479794D01*
X109347000Y-81479794D01*
X109347000Y-82523000D01*
X110389374Y-82523000D01*
X110472197Y-82384452D01*
X115505000Y-82384452D01*
X115505000Y-82915548D01*
X115708242Y-83406217D01*
X116083783Y-83781758D01*
X116574452Y-83985000D01*
X117105548Y-83985000D01*
X117596217Y-83781758D01*
X117971758Y-83406217D01*
X118115165Y-83060000D01*
X119750275Y-83060000D01*
X119840305Y-83512609D01*
X119962174Y-83695000D01*
X119840305Y-83877391D01*
X119750275Y-84330000D01*
X119840157Y-84781867D01*
X119809843Y-84827235D01*
X119760560Y-85075000D01*
X119760560Y-86125000D01*
X119809843Y-86372765D01*
X119950191Y-86582809D01*
X120160235Y-86723157D01*
X120408000Y-86772440D01*
X121908000Y-86772440D01*
X122155765Y-86723157D01*
X122365809Y-86582809D01*
X122506157Y-86372765D01*
X122555440Y-86125000D01*
X122555440Y-85075000D01*
X122506157Y-84827235D01*
X122475843Y-84781867D01*
X122565725Y-84330000D01*
X122475695Y-83877391D01*
X122353826Y-83695000D01*
X122475695Y-83512609D01*
X122565725Y-83060000D01*
X122475695Y-82607391D01*
X122259915Y-82284452D01*
X123633000Y-82284452D01*
X123633000Y-82815548D01*
X123836242Y-83306217D01*
X124211783Y-83681758D01*
X124702452Y-83885000D01*
X125233548Y-83885000D01*
X125724217Y-83681758D01*
X126099758Y-83306217D01*
X126303000Y-82815548D01*
X126303000Y-82284452D01*
X126099758Y-81793783D01*
X125724217Y-81418242D01*
X125233548Y-81215000D01*
X124702452Y-81215000D01*
X124211783Y-81418242D01*
X123836242Y-81793783D01*
X123633000Y-82284452D01*
X122259915Y-82284452D01*
X122219313Y-82223687D01*
X121835609Y-81967305D01*
X121497246Y-81900000D01*
X120818754Y-81900000D01*
X120480391Y-81967305D01*
X120096687Y-82223687D01*
X119840305Y-82607391D01*
X119750275Y-83060000D01*
X118115165Y-83060000D01*
X118175000Y-82915548D01*
X118175000Y-82384452D01*
X117971758Y-81893783D01*
X117596217Y-81518242D01*
X117105548Y-81315000D01*
X116574452Y-81315000D01*
X116083783Y-81518242D01*
X115708242Y-81893783D01*
X115505000Y-82384452D01*
X110472197Y-82384452D01*
X110512716Y-82316671D01*
X110369797Y-81971604D01*
X110022663Y-81583236D01*
X109553331Y-81357273D01*
X109347000Y-81479794D01*
X109093000Y-81479794D01*
X108886669Y-81357273D01*
X108417337Y-81583236D01*
X108070203Y-81971604D01*
X107927284Y-82316671D01*
X104579688Y-82316671D01*
X104131439Y-82131000D01*
X103560561Y-82131000D01*
X103033138Y-82349466D01*
X102764101Y-82618503D01*
X102744157Y-82518235D01*
X102603809Y-82308191D01*
X102393765Y-82167843D01*
X102146000Y-82118560D01*
X100546000Y-82118560D01*
X100298235Y-82167843D01*
X100088191Y-82308191D01*
X99947843Y-82518235D01*
X99898560Y-82766000D01*
X82464000Y-82766000D01*
X82464000Y-81859083D01*
X82032397Y-80817101D01*
X81427296Y-80212000D01*
X127868704Y-80212000D01*
X127263603Y-80817101D01*
G04 #@! TD*
M02*
