M48
;DRILL file {KiCad (5.0.0)} date 10/18/18 19:20:50
;FORMAT={-:-/ absolute / inch / decimal}
FMAT,2
INCH,TZ
T1C0.0315
T2C0.0394
T3C0.0433
T4C0.1180
T5C0.1260
T6C0.1378
%
G90
G05
M72
T1
X4.5896Y-3.4041
X4.5896Y-3.5025
X5.3631Y-4.91
X5.56Y-4.91
X5.5016Y-3.46
X5.6Y-3.46
X5.9Y-4.1
X5.9Y-4.4
X4.56Y-4.16
X4.56Y-4.76
X4.66Y-4.16
X4.66Y-4.76
X4.76Y-4.16
X4.76Y-4.76
X4.86Y-4.16
X4.86Y-4.76
X4.96Y-4.16
X4.96Y-4.76
X5.06Y-4.16
X5.06Y-4.76
X5.16Y-4.16
X5.16Y-4.76
X5.26Y-4.16
X5.26Y-4.76
X5.36Y-4.16
X5.36Y-4.76
X5.46Y-4.16
X5.46Y-4.76
X5.56Y-4.16
X5.56Y-4.76
X5.66Y-4.16
X5.66Y-4.76
X5.67Y-4.91
X5.8669Y-4.91
X6.04Y-4.26
X6.04Y-4.56
X6.205Y-3.342
X6.205Y-3.5389
X5.2657Y-3.3411
X5.2657Y-3.5379
T2
X3.54Y-3.44
X3.54Y-3.54
X3.54Y-3.64
X3.54Y-3.74
X3.54Y-3.84
X3.54Y-3.94
X3.54Y-4.04
X3.54Y-4.14
X3.54Y-4.24
X3.54Y-4.34
X3.54Y-4.44
X3.54Y-4.54
X6.1952Y-3.96
X6.1952Y-4.06
X6.1952Y-4.16
X6.1952Y-4.26
X6.1952Y-4.36
X6.1952Y-4.46
X6.1952Y-4.56
T3
X5.8044Y-3.5389
X5.9044Y-3.5389
X6.0044Y-3.5389
X4.865Y-3.5379
X4.965Y-3.5379
X5.065Y-3.5379
X3.765Y-2.81
X3.765Y-2.91
X3.765Y-3.01
X3.765Y-3.11
X3.765Y-3.21
X3.765Y-3.31
X3.765Y-3.41
X3.765Y-3.51
X3.765Y-3.61
X3.765Y-3.71
X3.765Y-3.81
X3.765Y-3.91
X3.765Y-4.01
X3.765Y-4.11
X3.765Y-4.21
X3.765Y-4.31
X3.765Y-4.41
X3.765Y-4.51
X3.765Y-4.61
X3.765Y-4.71
X3.765Y-4.81
X3.765Y-4.91
X3.765Y-5.01
X3.765Y-5.11
X4.365Y-2.81
X4.365Y-2.91
X4.365Y-3.01
X4.365Y-3.11
X4.365Y-3.21
X4.365Y-3.31
X4.365Y-3.41
X4.365Y-3.51
X4.365Y-3.61
X4.365Y-3.71
X4.365Y-3.81
X4.365Y-3.91
X4.365Y-4.01
X4.365Y-4.11
X4.365Y-4.21
X4.365Y-4.31
X4.365Y-4.41
X4.365Y-4.51
X4.365Y-4.61
X4.365Y-4.71
X4.365Y-4.81
X4.365Y-4.91
X4.365Y-5.01
X4.365Y-5.11
T4
X5.255Y-3.0981
X5.44Y-2.98
X5.44Y-3.2162
T5
X6.21Y-2.77
X6.21Y-5.11
X3.53Y-2.77
X3.53Y-5.11
T6
X5.9044Y-2.883
X4.965Y-2.882
T0
M30
