G04 #@! TF.GenerationSoftware,KiCad,Pcbnew,(5.0.0)*
G04 #@! TF.CreationDate,2018-10-18T19:20:22-07:00*
G04 #@! TF.ProjectId,Genesynth,47656E6573796E74682E6B696361645F,v0*
G04 #@! TF.SameCoordinates,Original*
G04 #@! TF.FileFunction,Legend,Top*
G04 #@! TF.FilePolarity,Positive*
%FSLAX46Y46*%
G04 Gerber Fmt 4.6, Leading zero omitted, Abs format (unit mm)*
G04 Created by KiCad (PCBNEW (5.0.0)) date 10/18/18 19:20:22*
%MOMM*%
%LPD*%
G01*
G04 APERTURE LIST*
%ADD10C,0.175000*%
%ADD11C,0.300000*%
%ADD12C,0.120000*%
%ADD13C,0.150000*%
%ADD14C,0.203200*%
%ADD15C,0.010000*%
%ADD16C,0.127000*%
G04 APERTURE END LIST*
D10*
X153101072Y-127104000D02*
X153267738Y-127570666D01*
X153434405Y-127104000D01*
X153834405Y-126870666D02*
X153901072Y-126870666D01*
X153967738Y-126904000D01*
X154001072Y-126937333D01*
X154034405Y-127004000D01*
X154067738Y-127137333D01*
X154067738Y-127304000D01*
X154034405Y-127437333D01*
X154001072Y-127504000D01*
X153967738Y-127537333D01*
X153901072Y-127570666D01*
X153834405Y-127570666D01*
X153767738Y-127537333D01*
X153734405Y-127504000D01*
X153701072Y-127437333D01*
X153667738Y-127304000D01*
X153667738Y-127137333D01*
X153701072Y-127004000D01*
X153734405Y-126937333D01*
X153767738Y-126904000D01*
X153834405Y-126870666D01*
X142803869Y-127504000D02*
X142770535Y-127537333D01*
X142670535Y-127570666D01*
X142603869Y-127570666D01*
X142503869Y-127537333D01*
X142437202Y-127470666D01*
X142403869Y-127404000D01*
X142370535Y-127270666D01*
X142370535Y-127170666D01*
X142403869Y-127037333D01*
X142437202Y-126970666D01*
X142503869Y-126904000D01*
X142603869Y-126870666D01*
X142670535Y-126870666D01*
X142770535Y-126904000D01*
X142803869Y-126937333D01*
X143503869Y-127504000D02*
X143470535Y-127537333D01*
X143370535Y-127570666D01*
X143303869Y-127570666D01*
X143203869Y-127537333D01*
X143137202Y-127470666D01*
X143103869Y-127404000D01*
X143070535Y-127270666D01*
X143070535Y-127170666D01*
X143103869Y-127037333D01*
X143137202Y-126970666D01*
X143203869Y-126904000D01*
X143303869Y-126870666D01*
X143370535Y-126870666D01*
X143470535Y-126904000D01*
X143503869Y-126937333D01*
X144570535Y-127204000D02*
X144670535Y-127237333D01*
X144703869Y-127270666D01*
X144737202Y-127337333D01*
X144737202Y-127437333D01*
X144703869Y-127504000D01*
X144670535Y-127537333D01*
X144603869Y-127570666D01*
X144337202Y-127570666D01*
X144337202Y-126870666D01*
X144570535Y-126870666D01*
X144637202Y-126904000D01*
X144670535Y-126937333D01*
X144703869Y-127004000D01*
X144703869Y-127070666D01*
X144670535Y-127137333D01*
X144637202Y-127170666D01*
X144570535Y-127204000D01*
X144337202Y-127204000D01*
X145170535Y-127237333D02*
X145170535Y-127570666D01*
X144937202Y-126870666D02*
X145170535Y-127237333D01*
X145403869Y-126870666D01*
X146137202Y-127537333D02*
X146237202Y-127570666D01*
X146403869Y-127570666D01*
X146470535Y-127537333D01*
X146503869Y-127504000D01*
X146537202Y-127437333D01*
X146537202Y-127370666D01*
X146503869Y-127304000D01*
X146470535Y-127270666D01*
X146403869Y-127237333D01*
X146270535Y-127204000D01*
X146203869Y-127170666D01*
X146170535Y-127137333D01*
X146137202Y-127070666D01*
X146137202Y-127004000D01*
X146170535Y-126937333D01*
X146203869Y-126904000D01*
X146270535Y-126870666D01*
X146437202Y-126870666D01*
X146537202Y-126904000D01*
X146803869Y-127370666D02*
X147137202Y-127370666D01*
X146737202Y-127570666D02*
X146970535Y-126870666D01*
X147203869Y-127570666D01*
X148270535Y-127104000D02*
X148270535Y-127570666D01*
X148103869Y-126837333D02*
X147937202Y-127337333D01*
X148370535Y-127337333D01*
X148637202Y-127504000D02*
X148670535Y-127537333D01*
X148637202Y-127570666D01*
X148603869Y-127537333D01*
X148637202Y-127504000D01*
X148637202Y-127570666D01*
X149103869Y-126870666D02*
X149170535Y-126870666D01*
X149237202Y-126904000D01*
X149270535Y-126937333D01*
X149303869Y-127004000D01*
X149337202Y-127137333D01*
X149337202Y-127304000D01*
X149303869Y-127437333D01*
X149270535Y-127504000D01*
X149237202Y-127537333D01*
X149170535Y-127570666D01*
X149103869Y-127570666D01*
X149037202Y-127537333D01*
X149003869Y-127504000D01*
X148970535Y-127437333D01*
X148937202Y-127304000D01*
X148937202Y-127137333D01*
X148970535Y-127004000D01*
X149003869Y-126937333D01*
X149037202Y-126904000D01*
X149103869Y-126870666D01*
X133140000Y-127104000D02*
X133406666Y-127104000D01*
X133240000Y-126870666D02*
X133240000Y-127470666D01*
X133273333Y-127537333D01*
X133340000Y-127570666D01*
X133406666Y-127570666D01*
X133640000Y-127570666D02*
X133640000Y-126870666D01*
X133940000Y-127570666D02*
X133940000Y-127204000D01*
X133906666Y-127137333D01*
X133840000Y-127104000D01*
X133740000Y-127104000D01*
X133673333Y-127137333D01*
X133640000Y-127170666D01*
X134540000Y-127537333D02*
X134473333Y-127570666D01*
X134340000Y-127570666D01*
X134273333Y-127537333D01*
X134240000Y-127470666D01*
X134240000Y-127204000D01*
X134273333Y-127137333D01*
X134340000Y-127104000D01*
X134473333Y-127104000D01*
X134540000Y-127137333D01*
X134573333Y-127204000D01*
X134573333Y-127270666D01*
X134240000Y-127337333D01*
X135173333Y-127570666D02*
X135173333Y-127204000D01*
X135140000Y-127137333D01*
X135073333Y-127104000D01*
X134940000Y-127104000D01*
X134873333Y-127137333D01*
X135173333Y-127537333D02*
X135106666Y-127570666D01*
X134940000Y-127570666D01*
X134873333Y-127537333D01*
X134840000Y-127470666D01*
X134840000Y-127404000D01*
X134873333Y-127337333D01*
X134940000Y-127304000D01*
X135106666Y-127304000D01*
X135173333Y-127270666D01*
X135506666Y-127504000D02*
X135540000Y-127537333D01*
X135506666Y-127570666D01*
X135473333Y-127537333D01*
X135506666Y-127504000D01*
X135506666Y-127570666D01*
X136140000Y-127537333D02*
X136073333Y-127570666D01*
X135940000Y-127570666D01*
X135873333Y-127537333D01*
X135840000Y-127504000D01*
X135806666Y-127437333D01*
X135806666Y-127237333D01*
X135840000Y-127170666D01*
X135873333Y-127137333D01*
X135940000Y-127104000D01*
X136073333Y-127104000D01*
X136140000Y-127137333D01*
X136540000Y-127570666D02*
X136473333Y-127537333D01*
X136440000Y-127504000D01*
X136406666Y-127437333D01*
X136406666Y-127237333D01*
X136440000Y-127170666D01*
X136473333Y-127137333D01*
X136540000Y-127104000D01*
X136640000Y-127104000D01*
X136706666Y-127137333D01*
X136740000Y-127170666D01*
X136773333Y-127237333D01*
X136773333Y-127437333D01*
X136740000Y-127504000D01*
X136706666Y-127537333D01*
X136640000Y-127570666D01*
X136540000Y-127570666D01*
X137373333Y-127570666D02*
X137373333Y-126870666D01*
X137373333Y-127537333D02*
X137306666Y-127570666D01*
X137173333Y-127570666D01*
X137106666Y-127537333D01*
X137073333Y-127504000D01*
X137040000Y-127437333D01*
X137040000Y-127237333D01*
X137073333Y-127170666D01*
X137106666Y-127137333D01*
X137173333Y-127104000D01*
X137306666Y-127104000D01*
X137373333Y-127137333D01*
X137973333Y-127537333D02*
X137906666Y-127570666D01*
X137773333Y-127570666D01*
X137706666Y-127537333D01*
X137673333Y-127470666D01*
X137673333Y-127204000D01*
X137706666Y-127137333D01*
X137773333Y-127104000D01*
X137906666Y-127104000D01*
X137973333Y-127137333D01*
X138006666Y-127204000D01*
X138006666Y-127270666D01*
X137673333Y-127337333D01*
X138273333Y-127537333D02*
X138340000Y-127570666D01*
X138473333Y-127570666D01*
X138540000Y-127537333D01*
X138573333Y-127470666D01*
X138573333Y-127437333D01*
X138540000Y-127370666D01*
X138473333Y-127337333D01*
X138373333Y-127337333D01*
X138306666Y-127304000D01*
X138273333Y-127237333D01*
X138273333Y-127204000D01*
X138306666Y-127137333D01*
X138373333Y-127104000D01*
X138473333Y-127104000D01*
X138540000Y-127137333D01*
D11*
X133795714Y-128178000D02*
X133681428Y-128120857D01*
X133510000Y-128120857D01*
X133338571Y-128178000D01*
X133224285Y-128292285D01*
X133167142Y-128406571D01*
X133110000Y-128635142D01*
X133110000Y-128806571D01*
X133167142Y-129035142D01*
X133224285Y-129149428D01*
X133338571Y-129263714D01*
X133510000Y-129320857D01*
X133624285Y-129320857D01*
X133795714Y-129263714D01*
X133852857Y-129206571D01*
X133852857Y-128806571D01*
X133624285Y-128806571D01*
X134824285Y-129263714D02*
X134710000Y-129320857D01*
X134481428Y-129320857D01*
X134367142Y-129263714D01*
X134310000Y-129149428D01*
X134310000Y-128692285D01*
X134367142Y-128578000D01*
X134481428Y-128520857D01*
X134710000Y-128520857D01*
X134824285Y-128578000D01*
X134881428Y-128692285D01*
X134881428Y-128806571D01*
X134310000Y-128920857D01*
X135395714Y-128520857D02*
X135395714Y-129320857D01*
X135395714Y-128635142D02*
X135452857Y-128578000D01*
X135567142Y-128520857D01*
X135738571Y-128520857D01*
X135852857Y-128578000D01*
X135910000Y-128692285D01*
X135910000Y-129320857D01*
X136938571Y-129263714D02*
X136824285Y-129320857D01*
X136595714Y-129320857D01*
X136481428Y-129263714D01*
X136424285Y-129149428D01*
X136424285Y-128692285D01*
X136481428Y-128578000D01*
X136595714Y-128520857D01*
X136824285Y-128520857D01*
X136938571Y-128578000D01*
X136995714Y-128692285D01*
X136995714Y-128806571D01*
X136424285Y-128920857D01*
X137452857Y-129263714D02*
X137624285Y-129320857D01*
X137910000Y-129320857D01*
X138024285Y-129263714D01*
X138081428Y-129206571D01*
X138138571Y-129092285D01*
X138138571Y-128978000D01*
X138081428Y-128863714D01*
X138024285Y-128806571D01*
X137910000Y-128749428D01*
X137681428Y-128692285D01*
X137567142Y-128635142D01*
X137510000Y-128578000D01*
X137452857Y-128463714D01*
X137452857Y-128349428D01*
X137510000Y-128235142D01*
X137567142Y-128178000D01*
X137681428Y-128120857D01*
X137967142Y-128120857D01*
X138138571Y-128178000D01*
X138538571Y-128520857D02*
X138824285Y-129320857D01*
X139110000Y-128520857D02*
X138824285Y-129320857D01*
X138710000Y-129606571D01*
X138652857Y-129663714D01*
X138538571Y-129720857D01*
X139567142Y-128520857D02*
X139567142Y-129320857D01*
X139567142Y-128635142D02*
X139624285Y-128578000D01*
X139738571Y-128520857D01*
X139910000Y-128520857D01*
X140024285Y-128578000D01*
X140081428Y-128692285D01*
X140081428Y-129320857D01*
X140481428Y-128520857D02*
X140938571Y-128520857D01*
X140652857Y-128120857D02*
X140652857Y-129149428D01*
X140710000Y-129263714D01*
X140824285Y-129320857D01*
X140938571Y-129320857D01*
X141338571Y-129320857D02*
X141338571Y-128120857D01*
X141852857Y-129320857D02*
X141852857Y-128692285D01*
X141795714Y-128578000D01*
X141681428Y-128520857D01*
X141510000Y-128520857D01*
X141395714Y-128578000D01*
X141338571Y-128635142D01*
X143338571Y-129320857D02*
X143338571Y-128120857D01*
X143738571Y-128978000D01*
X144138571Y-128120857D01*
X144138571Y-129320857D01*
X144881428Y-129320857D02*
X144767142Y-129263714D01*
X144710000Y-129206571D01*
X144652857Y-129092285D01*
X144652857Y-128749428D01*
X144710000Y-128635142D01*
X144767142Y-128578000D01*
X144881428Y-128520857D01*
X145052857Y-128520857D01*
X145167142Y-128578000D01*
X145224285Y-128635142D01*
X145281428Y-128749428D01*
X145281428Y-129092285D01*
X145224285Y-129206571D01*
X145167142Y-129263714D01*
X145052857Y-129320857D01*
X144881428Y-129320857D01*
X145624285Y-128520857D02*
X146081428Y-128520857D01*
X145795714Y-128120857D02*
X145795714Y-129149428D01*
X145852857Y-129263714D01*
X145967142Y-129320857D01*
X146081428Y-129320857D01*
X146481428Y-129320857D02*
X146481428Y-128120857D01*
X146995714Y-129320857D02*
X146995714Y-128692285D01*
X146938571Y-128578000D01*
X146824285Y-128520857D01*
X146652857Y-128520857D01*
X146538571Y-128578000D01*
X146481428Y-128635142D01*
X148024285Y-129263714D02*
X147910000Y-129320857D01*
X147681428Y-129320857D01*
X147567142Y-129263714D01*
X147510000Y-129149428D01*
X147510000Y-128692285D01*
X147567142Y-128578000D01*
X147681428Y-128520857D01*
X147910000Y-128520857D01*
X148024285Y-128578000D01*
X148081428Y-128692285D01*
X148081428Y-128806571D01*
X147510000Y-128920857D01*
X148595714Y-129320857D02*
X148595714Y-128520857D01*
X148595714Y-128749428D02*
X148652857Y-128635142D01*
X148710000Y-128578000D01*
X148824285Y-128520857D01*
X148938571Y-128520857D01*
X149338571Y-129320857D02*
X149338571Y-128120857D01*
X149338571Y-128578000D02*
X149452857Y-128520857D01*
X149681428Y-128520857D01*
X149795714Y-128578000D01*
X149852857Y-128635142D01*
X149910000Y-128749428D01*
X149910000Y-129092285D01*
X149852857Y-129206571D01*
X149795714Y-129263714D01*
X149681428Y-129320857D01*
X149452857Y-129320857D01*
X149338571Y-129263714D01*
X150595714Y-129320857D02*
X150481428Y-129263714D01*
X150424285Y-129206571D01*
X150367142Y-129092285D01*
X150367142Y-128749428D01*
X150424285Y-128635142D01*
X150481428Y-128578000D01*
X150595714Y-128520857D01*
X150767142Y-128520857D01*
X150881428Y-128578000D01*
X150938571Y-128635142D01*
X150995714Y-128749428D01*
X150995714Y-129092285D01*
X150938571Y-129206571D01*
X150881428Y-129263714D01*
X150767142Y-129320857D01*
X150595714Y-129320857D01*
X152024285Y-129320857D02*
X152024285Y-128692285D01*
X151967142Y-128578000D01*
X151852857Y-128520857D01*
X151624285Y-128520857D01*
X151510000Y-128578000D01*
X152024285Y-129263714D02*
X151910000Y-129320857D01*
X151624285Y-129320857D01*
X151510000Y-129263714D01*
X151452857Y-129149428D01*
X151452857Y-129035142D01*
X151510000Y-128920857D01*
X151624285Y-128863714D01*
X151910000Y-128863714D01*
X152024285Y-128806571D01*
X152595714Y-129320857D02*
X152595714Y-128520857D01*
X152595714Y-128749428D02*
X152652857Y-128635142D01*
X152710000Y-128578000D01*
X152824285Y-128520857D01*
X152938571Y-128520857D01*
X153852857Y-129320857D02*
X153852857Y-128120857D01*
X153852857Y-129263714D02*
X153738571Y-129320857D01*
X153510000Y-129320857D01*
X153395714Y-129263714D01*
X153338571Y-129206571D01*
X153281428Y-129092285D01*
X153281428Y-128749428D01*
X153338571Y-128635142D01*
X153395714Y-128578000D01*
X153510000Y-128520857D01*
X153738571Y-128520857D01*
X153852857Y-128578000D01*
D10*
X155098000Y-113817333D02*
X155064666Y-113884000D01*
X155064666Y-113984000D01*
X155098000Y-114084000D01*
X155164666Y-114150666D01*
X155231333Y-114184000D01*
X155364666Y-114217333D01*
X155464666Y-114217333D01*
X155598000Y-114184000D01*
X155664666Y-114150666D01*
X155731333Y-114084000D01*
X155764666Y-113984000D01*
X155764666Y-113917333D01*
X155731333Y-113817333D01*
X155698000Y-113784000D01*
X155464666Y-113784000D01*
X155464666Y-113917333D01*
X155764666Y-113484000D02*
X155064666Y-113484000D01*
X155764666Y-113084000D01*
X155064666Y-113084000D01*
X155764666Y-112750666D02*
X155064666Y-112750666D01*
X155064666Y-112584000D01*
X155098000Y-112484000D01*
X155164666Y-112417333D01*
X155231333Y-112384000D01*
X155364666Y-112350666D01*
X155464666Y-112350666D01*
X155598000Y-112384000D01*
X155664666Y-112417333D01*
X155731333Y-112484000D01*
X155764666Y-112584000D01*
X155764666Y-112750666D01*
X155431333Y-111494000D02*
X155764666Y-111494000D01*
X155064666Y-111727333D02*
X155431333Y-111494000D01*
X155064666Y-111260666D01*
X155764666Y-111027333D02*
X155064666Y-111027333D01*
X155564666Y-110794000D01*
X155064666Y-110560666D01*
X155764666Y-110560666D01*
X155764666Y-109827333D02*
X155431333Y-110060666D01*
X155764666Y-110227333D02*
X155064666Y-110227333D01*
X155064666Y-109960666D01*
X155098000Y-109894000D01*
X155131333Y-109860666D01*
X155198000Y-109827333D01*
X155298000Y-109827333D01*
X155364666Y-109860666D01*
X155398000Y-109894000D01*
X155431333Y-109960666D01*
X155431333Y-110227333D01*
X155098000Y-103657333D02*
X155064666Y-103724000D01*
X155064666Y-103824000D01*
X155098000Y-103924000D01*
X155164666Y-103990666D01*
X155231333Y-104024000D01*
X155364666Y-104057333D01*
X155464666Y-104057333D01*
X155598000Y-104024000D01*
X155664666Y-103990666D01*
X155731333Y-103924000D01*
X155764666Y-103824000D01*
X155764666Y-103757333D01*
X155731333Y-103657333D01*
X155698000Y-103624000D01*
X155464666Y-103624000D01*
X155464666Y-103757333D01*
X155764666Y-103324000D02*
X155064666Y-103324000D01*
X155764666Y-102924000D01*
X155064666Y-102924000D01*
X155764666Y-102590666D02*
X155064666Y-102590666D01*
X155064666Y-102424000D01*
X155098000Y-102324000D01*
X155164666Y-102257333D01*
X155231333Y-102224000D01*
X155364666Y-102190666D01*
X155464666Y-102190666D01*
X155598000Y-102224000D01*
X155664666Y-102257333D01*
X155731333Y-102324000D01*
X155764666Y-102424000D01*
X155764666Y-102590666D01*
X155431333Y-106347333D02*
X155764666Y-106347333D01*
X155064666Y-106580666D02*
X155431333Y-106347333D01*
X155064666Y-106114000D01*
X155764666Y-105880666D02*
X155064666Y-105880666D01*
X155564666Y-105647333D01*
X155064666Y-105414000D01*
X155764666Y-105414000D01*
X155764666Y-104747333D02*
X155764666Y-105080666D01*
X155064666Y-105080666D01*
X155098000Y-108737333D02*
X155064666Y-108804000D01*
X155064666Y-108904000D01*
X155098000Y-109004000D01*
X155164666Y-109070666D01*
X155231333Y-109104000D01*
X155364666Y-109137333D01*
X155464666Y-109137333D01*
X155598000Y-109104000D01*
X155664666Y-109070666D01*
X155731333Y-109004000D01*
X155764666Y-108904000D01*
X155764666Y-108837333D01*
X155731333Y-108737333D01*
X155698000Y-108704000D01*
X155464666Y-108704000D01*
X155464666Y-108837333D01*
X155764666Y-108404000D02*
X155064666Y-108404000D01*
X155764666Y-108004000D01*
X155064666Y-108004000D01*
X155764666Y-107670666D02*
X155064666Y-107670666D01*
X155064666Y-107504000D01*
X155098000Y-107404000D01*
X155164666Y-107337333D01*
X155231333Y-107304000D01*
X155364666Y-107270666D01*
X155464666Y-107270666D01*
X155598000Y-107304000D01*
X155664666Y-107337333D01*
X155731333Y-107404000D01*
X155764666Y-107504000D01*
X155764666Y-107670666D01*
X91926666Y-114966000D02*
X91860000Y-114932666D01*
X91760000Y-114932666D01*
X91660000Y-114966000D01*
X91593333Y-115032666D01*
X91560000Y-115099333D01*
X91526666Y-115232666D01*
X91526666Y-115332666D01*
X91560000Y-115466000D01*
X91593333Y-115532666D01*
X91660000Y-115599333D01*
X91760000Y-115632666D01*
X91826666Y-115632666D01*
X91926666Y-115599333D01*
X91960000Y-115566000D01*
X91960000Y-115332666D01*
X91826666Y-115332666D01*
X92260000Y-115632666D02*
X92260000Y-114932666D01*
X92660000Y-115632666D01*
X92660000Y-114932666D01*
X92993333Y-115632666D02*
X92993333Y-114932666D01*
X93160000Y-114932666D01*
X93260000Y-114966000D01*
X93326666Y-115032666D01*
X93360000Y-115099333D01*
X93393333Y-115232666D01*
X93393333Y-115332666D01*
X93360000Y-115466000D01*
X93326666Y-115532666D01*
X93260000Y-115599333D01*
X93160000Y-115632666D01*
X92993333Y-115632666D01*
X91793333Y-112726000D02*
X91893333Y-112759333D01*
X91926666Y-112792666D01*
X91960000Y-112859333D01*
X91960000Y-112959333D01*
X91926666Y-113026000D01*
X91893333Y-113059333D01*
X91826666Y-113092666D01*
X91560000Y-113092666D01*
X91560000Y-112392666D01*
X91793333Y-112392666D01*
X91860000Y-112426000D01*
X91893333Y-112459333D01*
X91926666Y-112526000D01*
X91926666Y-112592666D01*
X91893333Y-112659333D01*
X91860000Y-112692666D01*
X91793333Y-112726000D01*
X91560000Y-112726000D01*
X92160000Y-112392666D02*
X92560000Y-112392666D01*
X92360000Y-113092666D02*
X92360000Y-112392666D01*
X92793333Y-113092666D02*
X92793333Y-112392666D01*
X93193333Y-113092666D01*
X93193333Y-112392666D01*
X93893333Y-113092666D02*
X93493333Y-113092666D01*
X93693333Y-113092666D02*
X93693333Y-112392666D01*
X93626666Y-112492666D01*
X93560000Y-112559333D01*
X93493333Y-112592666D01*
X91793333Y-110186000D02*
X91893333Y-110219333D01*
X91926666Y-110252666D01*
X91960000Y-110319333D01*
X91960000Y-110419333D01*
X91926666Y-110486000D01*
X91893333Y-110519333D01*
X91826666Y-110552666D01*
X91560000Y-110552666D01*
X91560000Y-109852666D01*
X91793333Y-109852666D01*
X91860000Y-109886000D01*
X91893333Y-109919333D01*
X91926666Y-109986000D01*
X91926666Y-110052666D01*
X91893333Y-110119333D01*
X91860000Y-110152666D01*
X91793333Y-110186000D01*
X91560000Y-110186000D01*
X92160000Y-109852666D02*
X92560000Y-109852666D01*
X92360000Y-110552666D02*
X92360000Y-109852666D01*
X92793333Y-110552666D02*
X92793333Y-109852666D01*
X93193333Y-110552666D01*
X93193333Y-109852666D01*
X93493333Y-109919333D02*
X93526666Y-109886000D01*
X93593333Y-109852666D01*
X93760000Y-109852666D01*
X93826666Y-109886000D01*
X93860000Y-109919333D01*
X93893333Y-109986000D01*
X93893333Y-110052666D01*
X93860000Y-110152666D01*
X93460000Y-110552666D01*
X93893333Y-110552666D01*
X91793333Y-107646000D02*
X91893333Y-107679333D01*
X91926666Y-107712666D01*
X91960000Y-107779333D01*
X91960000Y-107879333D01*
X91926666Y-107946000D01*
X91893333Y-107979333D01*
X91826666Y-108012666D01*
X91560000Y-108012666D01*
X91560000Y-107312666D01*
X91793333Y-107312666D01*
X91860000Y-107346000D01*
X91893333Y-107379333D01*
X91926666Y-107446000D01*
X91926666Y-107512666D01*
X91893333Y-107579333D01*
X91860000Y-107612666D01*
X91793333Y-107646000D01*
X91560000Y-107646000D01*
X92160000Y-107312666D02*
X92560000Y-107312666D01*
X92360000Y-108012666D02*
X92360000Y-107312666D01*
X92793333Y-108012666D02*
X92793333Y-107312666D01*
X93193333Y-108012666D01*
X93193333Y-107312666D01*
X93460000Y-107312666D02*
X93893333Y-107312666D01*
X93660000Y-107579333D01*
X93760000Y-107579333D01*
X93826666Y-107612666D01*
X93860000Y-107646000D01*
X93893333Y-107712666D01*
X93893333Y-107879333D01*
X93860000Y-107946000D01*
X93826666Y-107979333D01*
X93760000Y-108012666D01*
X93560000Y-108012666D01*
X93493333Y-107979333D01*
X93460000Y-107946000D01*
X91793333Y-105106000D02*
X91893333Y-105139333D01*
X91926666Y-105172666D01*
X91960000Y-105239333D01*
X91960000Y-105339333D01*
X91926666Y-105406000D01*
X91893333Y-105439333D01*
X91826666Y-105472666D01*
X91560000Y-105472666D01*
X91560000Y-104772666D01*
X91793333Y-104772666D01*
X91860000Y-104806000D01*
X91893333Y-104839333D01*
X91926666Y-104906000D01*
X91926666Y-104972666D01*
X91893333Y-105039333D01*
X91860000Y-105072666D01*
X91793333Y-105106000D01*
X91560000Y-105106000D01*
X92160000Y-104772666D02*
X92560000Y-104772666D01*
X92360000Y-105472666D02*
X92360000Y-104772666D01*
X92793333Y-105472666D02*
X92793333Y-104772666D01*
X93193333Y-105472666D01*
X93193333Y-104772666D01*
X93826666Y-105006000D02*
X93826666Y-105472666D01*
X93660000Y-104739333D02*
X93493333Y-105239333D01*
X93926666Y-105239333D01*
X91960000Y-102866000D02*
X91926667Y-102899333D01*
X91826667Y-102932666D01*
X91760000Y-102932666D01*
X91660000Y-102899333D01*
X91593333Y-102832666D01*
X91560000Y-102766000D01*
X91526667Y-102632666D01*
X91526667Y-102532666D01*
X91560000Y-102399333D01*
X91593333Y-102332666D01*
X91660000Y-102266000D01*
X91760000Y-102232666D01*
X91826667Y-102232666D01*
X91926667Y-102266000D01*
X91960000Y-102299333D01*
X92226667Y-102899333D02*
X92326667Y-102932666D01*
X92493333Y-102932666D01*
X92560000Y-102899333D01*
X92593333Y-102866000D01*
X92626667Y-102799333D01*
X92626667Y-102732666D01*
X92593333Y-102666000D01*
X92560000Y-102632666D01*
X92493333Y-102599333D01*
X92360000Y-102566000D01*
X92293333Y-102532666D01*
X92260000Y-102499333D01*
X92226667Y-102432666D01*
X92226667Y-102366000D01*
X92260000Y-102299333D01*
X92293333Y-102266000D01*
X92360000Y-102232666D01*
X92526667Y-102232666D01*
X92626667Y-102266000D01*
X91560000Y-100392666D02*
X91560000Y-99692666D01*
X91726667Y-99692666D01*
X91826667Y-99726000D01*
X91893334Y-99792666D01*
X91926667Y-99859333D01*
X91960000Y-99992666D01*
X91960000Y-100092666D01*
X91926667Y-100226000D01*
X91893334Y-100292666D01*
X91826667Y-100359333D01*
X91726667Y-100392666D01*
X91560000Y-100392666D01*
X92660000Y-100326000D02*
X92626667Y-100359333D01*
X92526667Y-100392666D01*
X92460000Y-100392666D01*
X92360000Y-100359333D01*
X92293334Y-100292666D01*
X92260000Y-100226000D01*
X92226667Y-100092666D01*
X92226667Y-99992666D01*
X92260000Y-99859333D01*
X92293334Y-99792666D01*
X92360000Y-99726000D01*
X92460000Y-99692666D01*
X92526667Y-99692666D01*
X92626667Y-99726000D01*
X92660000Y-99759333D01*
X91960000Y-97852666D02*
X91726667Y-97519333D01*
X91560000Y-97852666D02*
X91560000Y-97152666D01*
X91826667Y-97152666D01*
X91893334Y-97186000D01*
X91926667Y-97219333D01*
X91960000Y-97286000D01*
X91960000Y-97386000D01*
X91926667Y-97452666D01*
X91893334Y-97486000D01*
X91826667Y-97519333D01*
X91560000Y-97519333D01*
X92260000Y-97486000D02*
X92493334Y-97486000D01*
X92593334Y-97852666D02*
X92260000Y-97852666D01*
X92260000Y-97152666D01*
X92593334Y-97152666D01*
X92860000Y-97819333D02*
X92960000Y-97852666D01*
X93126667Y-97852666D01*
X93193334Y-97819333D01*
X93226667Y-97786000D01*
X93260000Y-97719333D01*
X93260000Y-97652666D01*
X93226667Y-97586000D01*
X93193334Y-97552666D01*
X93126667Y-97519333D01*
X92993334Y-97486000D01*
X92926667Y-97452666D01*
X92893334Y-97419333D01*
X92860000Y-97352666D01*
X92860000Y-97286000D01*
X92893334Y-97219333D01*
X92926667Y-97186000D01*
X92993334Y-97152666D01*
X93160000Y-97152666D01*
X93260000Y-97186000D01*
X91560000Y-95312666D02*
X91560000Y-94612666D01*
X91793333Y-95112666D01*
X92026666Y-94612666D01*
X92026666Y-95312666D01*
X92493333Y-94612666D02*
X92626666Y-94612666D01*
X92693333Y-94646000D01*
X92760000Y-94712666D01*
X92793333Y-94846000D01*
X92793333Y-95079333D01*
X92760000Y-95212666D01*
X92693333Y-95279333D01*
X92626666Y-95312666D01*
X92493333Y-95312666D01*
X92426666Y-95279333D01*
X92360000Y-95212666D01*
X92326666Y-95079333D01*
X92326666Y-94846000D01*
X92360000Y-94712666D01*
X92426666Y-94646000D01*
X92493333Y-94612666D01*
X93060000Y-95279333D02*
X93160000Y-95312666D01*
X93326666Y-95312666D01*
X93393333Y-95279333D01*
X93426666Y-95246000D01*
X93460000Y-95179333D01*
X93460000Y-95112666D01*
X93426666Y-95046000D01*
X93393333Y-95012666D01*
X93326666Y-94979333D01*
X93193333Y-94946000D01*
X93126666Y-94912666D01*
X93093333Y-94879333D01*
X93060000Y-94812666D01*
X93060000Y-94746000D01*
X93093333Y-94679333D01*
X93126666Y-94646000D01*
X93193333Y-94612666D01*
X93360000Y-94612666D01*
X93460000Y-94646000D01*
X93760000Y-95312666D02*
X93760000Y-94612666D01*
X91960000Y-92706000D02*
X91926667Y-92739333D01*
X91826667Y-92772666D01*
X91760000Y-92772666D01*
X91660000Y-92739333D01*
X91593333Y-92672666D01*
X91560000Y-92606000D01*
X91526667Y-92472666D01*
X91526667Y-92372666D01*
X91560000Y-92239333D01*
X91593333Y-92172666D01*
X91660000Y-92106000D01*
X91760000Y-92072666D01*
X91826667Y-92072666D01*
X91926667Y-92106000D01*
X91960000Y-92139333D01*
X92593333Y-92772666D02*
X92260000Y-92772666D01*
X92260000Y-92072666D01*
X92826667Y-92772666D02*
X92826667Y-92072666D01*
X93226667Y-92772666D02*
X92926667Y-92372666D01*
X93226667Y-92072666D02*
X92826667Y-92472666D01*
X91560000Y-89966000D02*
X92093333Y-89966000D01*
X91826666Y-90232666D02*
X91826666Y-89699333D01*
X92760000Y-89532666D02*
X92426666Y-89532666D01*
X92393333Y-89866000D01*
X92426666Y-89832666D01*
X92493333Y-89799333D01*
X92660000Y-89799333D01*
X92726666Y-89832666D01*
X92760000Y-89866000D01*
X92793333Y-89932666D01*
X92793333Y-90099333D01*
X92760000Y-90166000D01*
X92726666Y-90199333D01*
X92660000Y-90232666D01*
X92493333Y-90232666D01*
X92426666Y-90199333D01*
X92393333Y-90166000D01*
X92993333Y-89532666D02*
X93226666Y-90232666D01*
X93460000Y-89532666D01*
X91926666Y-87026000D02*
X91860000Y-86992666D01*
X91760000Y-86992666D01*
X91660000Y-87026000D01*
X91593333Y-87092666D01*
X91560000Y-87159333D01*
X91526666Y-87292666D01*
X91526666Y-87392666D01*
X91560000Y-87526000D01*
X91593333Y-87592666D01*
X91660000Y-87659333D01*
X91760000Y-87692666D01*
X91826666Y-87692666D01*
X91926666Y-87659333D01*
X91960000Y-87626000D01*
X91960000Y-87392666D01*
X91826666Y-87392666D01*
X92260000Y-87692666D02*
X92260000Y-86992666D01*
X92660000Y-87692666D01*
X92660000Y-86992666D01*
X92993333Y-87692666D02*
X92993333Y-86992666D01*
X93160000Y-86992666D01*
X93260000Y-87026000D01*
X93326666Y-87092666D01*
X93360000Y-87159333D01*
X93393333Y-87292666D01*
X93393333Y-87392666D01*
X93360000Y-87526000D01*
X93326666Y-87592666D01*
X93260000Y-87659333D01*
X93160000Y-87692666D01*
X92993333Y-87692666D01*
D12*
G04 #@! TO.C,R1*
X148820000Y-111220000D02*
X148490000Y-111220000D01*
X148490000Y-111220000D02*
X148490000Y-104680000D01*
X148490000Y-104680000D02*
X148820000Y-104680000D01*
X150900000Y-111220000D02*
X151230000Y-111220000D01*
X151230000Y-111220000D02*
X151230000Y-104680000D01*
X151230000Y-104680000D02*
X150900000Y-104680000D01*
G04 #@! TO.C,J1*
X156027000Y-101854000D02*
X158687000Y-101854000D01*
X156027000Y-101854000D02*
X156027000Y-117154000D01*
X156027000Y-117154000D02*
X158687000Y-117154000D01*
X158687000Y-101854000D02*
X158687000Y-117154000D01*
X158687000Y-99254000D02*
X158687000Y-100584000D01*
X157357000Y-99254000D02*
X158687000Y-99254000D01*
G04 #@! TO.C,R2*
X154786000Y-108744000D02*
X154456000Y-108744000D01*
X154786000Y-115284000D02*
X154786000Y-108744000D01*
X154456000Y-115284000D02*
X154786000Y-115284000D01*
X152046000Y-108744000D02*
X152376000Y-108744000D01*
X152046000Y-115284000D02*
X152046000Y-108744000D01*
X152376000Y-115284000D02*
X152046000Y-115284000D01*
G04 #@! TO.C,U2*
X145094000Y-114284000D02*
G75*
G02X145094000Y-112284000I0J1000000D01*
G01*
X145094000Y-112284000D02*
X145094000Y-106824000D01*
X145094000Y-106824000D02*
X114494000Y-106824000D01*
X114494000Y-106824000D02*
X114494000Y-119744000D01*
X114494000Y-119744000D02*
X145094000Y-119744000D01*
X145094000Y-119744000D02*
X145094000Y-114284000D01*
G04 #@! TO.C,C1*
X132377583Y-90983284D02*
X132377583Y-83743284D01*
X135117583Y-90983284D02*
X135117583Y-83743284D01*
X132377583Y-90983284D02*
X135117583Y-90983284D01*
X132377583Y-83743284D02*
X135117583Y-83743284D01*
G04 #@! TO.C,C2*
X156237000Y-83767000D02*
X158977000Y-83767000D01*
X156237000Y-91007000D02*
X158977000Y-91007000D01*
X158977000Y-91007000D02*
X158977000Y-83767000D01*
X156237000Y-91007000D02*
X156237000Y-83767000D01*
G04 #@! TO.C,C3*
X119844783Y-87713284D02*
G75*
G03X119844783Y-87713284I-3270000J0D01*
G01*
X119804783Y-87713284D02*
X113344783Y-87713284D01*
X119804783Y-87753284D02*
X113344783Y-87753284D01*
X119804783Y-87793284D02*
X113344783Y-87793284D01*
X119802783Y-87833284D02*
X113346783Y-87833284D01*
X119801783Y-87873284D02*
X113347783Y-87873284D01*
X119798783Y-87913284D02*
X113350783Y-87913284D01*
X119796783Y-87953284D02*
X117614783Y-87953284D01*
X115534783Y-87953284D02*
X113352783Y-87953284D01*
X119792783Y-87993284D02*
X117614783Y-87993284D01*
X115534783Y-87993284D02*
X113356783Y-87993284D01*
X119789783Y-88033284D02*
X117614783Y-88033284D01*
X115534783Y-88033284D02*
X113359783Y-88033284D01*
X119785783Y-88073284D02*
X117614783Y-88073284D01*
X115534783Y-88073284D02*
X113363783Y-88073284D01*
X119780783Y-88113284D02*
X117614783Y-88113284D01*
X115534783Y-88113284D02*
X113368783Y-88113284D01*
X119775783Y-88153284D02*
X117614783Y-88153284D01*
X115534783Y-88153284D02*
X113373783Y-88153284D01*
X119769783Y-88193284D02*
X117614783Y-88193284D01*
X115534783Y-88193284D02*
X113379783Y-88193284D01*
X119763783Y-88233284D02*
X117614783Y-88233284D01*
X115534783Y-88233284D02*
X113385783Y-88233284D01*
X119756783Y-88273284D02*
X117614783Y-88273284D01*
X115534783Y-88273284D02*
X113392783Y-88273284D01*
X119749783Y-88313284D02*
X117614783Y-88313284D01*
X115534783Y-88313284D02*
X113399783Y-88313284D01*
X119741783Y-88353284D02*
X117614783Y-88353284D01*
X115534783Y-88353284D02*
X113407783Y-88353284D01*
X119733783Y-88393284D02*
X117614783Y-88393284D01*
X115534783Y-88393284D02*
X113415783Y-88393284D01*
X119724783Y-88434284D02*
X117614783Y-88434284D01*
X115534783Y-88434284D02*
X113424783Y-88434284D01*
X119715783Y-88474284D02*
X117614783Y-88474284D01*
X115534783Y-88474284D02*
X113433783Y-88474284D01*
X119705783Y-88514284D02*
X117614783Y-88514284D01*
X115534783Y-88514284D02*
X113443783Y-88514284D01*
X119695783Y-88554284D02*
X117614783Y-88554284D01*
X115534783Y-88554284D02*
X113453783Y-88554284D01*
X119684783Y-88594284D02*
X117614783Y-88594284D01*
X115534783Y-88594284D02*
X113464783Y-88594284D01*
X119672783Y-88634284D02*
X117614783Y-88634284D01*
X115534783Y-88634284D02*
X113476783Y-88634284D01*
X119660783Y-88674284D02*
X117614783Y-88674284D01*
X115534783Y-88674284D02*
X113488783Y-88674284D01*
X119648783Y-88714284D02*
X117614783Y-88714284D01*
X115534783Y-88714284D02*
X113500783Y-88714284D01*
X119635783Y-88754284D02*
X117614783Y-88754284D01*
X115534783Y-88754284D02*
X113513783Y-88754284D01*
X119621783Y-88794284D02*
X117614783Y-88794284D01*
X115534783Y-88794284D02*
X113527783Y-88794284D01*
X119607783Y-88834284D02*
X117614783Y-88834284D01*
X115534783Y-88834284D02*
X113541783Y-88834284D01*
X119592783Y-88874284D02*
X117614783Y-88874284D01*
X115534783Y-88874284D02*
X113556783Y-88874284D01*
X119576783Y-88914284D02*
X117614783Y-88914284D01*
X115534783Y-88914284D02*
X113572783Y-88914284D01*
X119560783Y-88954284D02*
X117614783Y-88954284D01*
X115534783Y-88954284D02*
X113588783Y-88954284D01*
X119544783Y-88994284D02*
X117614783Y-88994284D01*
X115534783Y-88994284D02*
X113604783Y-88994284D01*
X119526783Y-89034284D02*
X117614783Y-89034284D01*
X115534783Y-89034284D02*
X113622783Y-89034284D01*
X119508783Y-89074284D02*
X117614783Y-89074284D01*
X115534783Y-89074284D02*
X113640783Y-89074284D01*
X119490783Y-89114284D02*
X117614783Y-89114284D01*
X115534783Y-89114284D02*
X113658783Y-89114284D01*
X119470783Y-89154284D02*
X117614783Y-89154284D01*
X115534783Y-89154284D02*
X113678783Y-89154284D01*
X119450783Y-89194284D02*
X117614783Y-89194284D01*
X115534783Y-89194284D02*
X113698783Y-89194284D01*
X119430783Y-89234284D02*
X117614783Y-89234284D01*
X115534783Y-89234284D02*
X113718783Y-89234284D01*
X119408783Y-89274284D02*
X117614783Y-89274284D01*
X115534783Y-89274284D02*
X113740783Y-89274284D01*
X119386783Y-89314284D02*
X117614783Y-89314284D01*
X115534783Y-89314284D02*
X113762783Y-89314284D01*
X119364783Y-89354284D02*
X117614783Y-89354284D01*
X115534783Y-89354284D02*
X113784783Y-89354284D01*
X119340783Y-89394284D02*
X117614783Y-89394284D01*
X115534783Y-89394284D02*
X113808783Y-89394284D01*
X119316783Y-89434284D02*
X117614783Y-89434284D01*
X115534783Y-89434284D02*
X113832783Y-89434284D01*
X119290783Y-89474284D02*
X117614783Y-89474284D01*
X115534783Y-89474284D02*
X113858783Y-89474284D01*
X119264783Y-89514284D02*
X117614783Y-89514284D01*
X115534783Y-89514284D02*
X113884783Y-89514284D01*
X119238783Y-89554284D02*
X117614783Y-89554284D01*
X115534783Y-89554284D02*
X113910783Y-89554284D01*
X119210783Y-89594284D02*
X117614783Y-89594284D01*
X115534783Y-89594284D02*
X113938783Y-89594284D01*
X119181783Y-89634284D02*
X117614783Y-89634284D01*
X115534783Y-89634284D02*
X113967783Y-89634284D01*
X119152783Y-89674284D02*
X117614783Y-89674284D01*
X115534783Y-89674284D02*
X113996783Y-89674284D01*
X119122783Y-89714284D02*
X117614783Y-89714284D01*
X115534783Y-89714284D02*
X114026783Y-89714284D01*
X119090783Y-89754284D02*
X117614783Y-89754284D01*
X115534783Y-89754284D02*
X114058783Y-89754284D01*
X119058783Y-89794284D02*
X117614783Y-89794284D01*
X115534783Y-89794284D02*
X114090783Y-89794284D01*
X119024783Y-89834284D02*
X117614783Y-89834284D01*
X115534783Y-89834284D02*
X114124783Y-89834284D01*
X118990783Y-89874284D02*
X117614783Y-89874284D01*
X115534783Y-89874284D02*
X114158783Y-89874284D01*
X118954783Y-89914284D02*
X117614783Y-89914284D01*
X115534783Y-89914284D02*
X114194783Y-89914284D01*
X118917783Y-89954284D02*
X117614783Y-89954284D01*
X115534783Y-89954284D02*
X114231783Y-89954284D01*
X118879783Y-89994284D02*
X117614783Y-89994284D01*
X115534783Y-89994284D02*
X114269783Y-89994284D01*
X118839783Y-90034284D02*
X114309783Y-90034284D01*
X118798783Y-90074284D02*
X114350783Y-90074284D01*
X118756783Y-90114284D02*
X114392783Y-90114284D01*
X118711783Y-90154284D02*
X114437783Y-90154284D01*
X118666783Y-90194284D02*
X114482783Y-90194284D01*
X118618783Y-90234284D02*
X114530783Y-90234284D01*
X118569783Y-90274284D02*
X114579783Y-90274284D01*
X118518783Y-90314284D02*
X114630783Y-90314284D01*
X118464783Y-90354284D02*
X114684783Y-90354284D01*
X118408783Y-90394284D02*
X114740783Y-90394284D01*
X118350783Y-90434284D02*
X114798783Y-90434284D01*
X118288783Y-90474284D02*
X114860783Y-90474284D01*
X118224783Y-90514284D02*
X114924783Y-90514284D01*
X118155783Y-90554284D02*
X114993783Y-90554284D01*
X118083783Y-90594284D02*
X115065783Y-90594284D01*
X118006783Y-90634284D02*
X115142783Y-90634284D01*
X117924783Y-90674284D02*
X115224783Y-90674284D01*
X117836783Y-90714284D02*
X115312783Y-90714284D01*
X117739783Y-90754284D02*
X115409783Y-90754284D01*
X117633783Y-90794284D02*
X115515783Y-90794284D01*
X117514783Y-90834284D02*
X115634783Y-90834284D01*
X117376783Y-90874284D02*
X115772783Y-90874284D01*
X117207783Y-90914284D02*
X115941783Y-90914284D01*
X116976783Y-90954284D02*
X116172783Y-90954284D01*
X118413783Y-84213043D02*
X118413783Y-84843043D01*
X118728783Y-84528043D02*
X118098783Y-84528043D01*
G04 #@! TO.C,C4*
X144175241Y-90038000D02*
X144175241Y-89408000D01*
X144490241Y-89723000D02*
X143860241Y-89723000D01*
X137749000Y-88286000D02*
X137749000Y-87482000D01*
X137789000Y-88517000D02*
X137789000Y-87251000D01*
X137829000Y-88686000D02*
X137829000Y-87082000D01*
X137869000Y-88824000D02*
X137869000Y-86944000D01*
X137909000Y-88943000D02*
X137909000Y-86825000D01*
X137949000Y-89049000D02*
X137949000Y-86719000D01*
X137989000Y-89146000D02*
X137989000Y-86622000D01*
X138029000Y-89234000D02*
X138029000Y-86534000D01*
X138069000Y-89316000D02*
X138069000Y-86452000D01*
X138109000Y-89393000D02*
X138109000Y-86375000D01*
X138149000Y-89465000D02*
X138149000Y-86303000D01*
X138189000Y-89534000D02*
X138189000Y-86234000D01*
X138229000Y-89598000D02*
X138229000Y-86170000D01*
X138269000Y-89660000D02*
X138269000Y-86108000D01*
X138309000Y-89718000D02*
X138309000Y-86050000D01*
X138349000Y-89774000D02*
X138349000Y-85994000D01*
X138389000Y-89828000D02*
X138389000Y-85940000D01*
X138429000Y-89879000D02*
X138429000Y-85889000D01*
X138469000Y-89928000D02*
X138469000Y-85840000D01*
X138509000Y-89976000D02*
X138509000Y-85792000D01*
X138549000Y-90021000D02*
X138549000Y-85747000D01*
X138589000Y-90066000D02*
X138589000Y-85702000D01*
X138629000Y-90108000D02*
X138629000Y-85660000D01*
X138669000Y-90149000D02*
X138669000Y-85619000D01*
X138709000Y-86844000D02*
X138709000Y-85579000D01*
X138709000Y-90189000D02*
X138709000Y-88924000D01*
X138749000Y-86844000D02*
X138749000Y-85541000D01*
X138749000Y-90227000D02*
X138749000Y-88924000D01*
X138789000Y-86844000D02*
X138789000Y-85504000D01*
X138789000Y-90264000D02*
X138789000Y-88924000D01*
X138829000Y-86844000D02*
X138829000Y-85468000D01*
X138829000Y-90300000D02*
X138829000Y-88924000D01*
X138869000Y-86844000D02*
X138869000Y-85434000D01*
X138869000Y-90334000D02*
X138869000Y-88924000D01*
X138909000Y-86844000D02*
X138909000Y-85400000D01*
X138909000Y-90368000D02*
X138909000Y-88924000D01*
X138949000Y-86844000D02*
X138949000Y-85368000D01*
X138949000Y-90400000D02*
X138949000Y-88924000D01*
X138989000Y-86844000D02*
X138989000Y-85336000D01*
X138989000Y-90432000D02*
X138989000Y-88924000D01*
X139029000Y-86844000D02*
X139029000Y-85306000D01*
X139029000Y-90462000D02*
X139029000Y-88924000D01*
X139069000Y-86844000D02*
X139069000Y-85277000D01*
X139069000Y-90491000D02*
X139069000Y-88924000D01*
X139109000Y-86844000D02*
X139109000Y-85248000D01*
X139109000Y-90520000D02*
X139109000Y-88924000D01*
X139149000Y-86844000D02*
X139149000Y-85220000D01*
X139149000Y-90548000D02*
X139149000Y-88924000D01*
X139189000Y-86844000D02*
X139189000Y-85194000D01*
X139189000Y-90574000D02*
X139189000Y-88924000D01*
X139229000Y-86844000D02*
X139229000Y-85168000D01*
X139229000Y-90600000D02*
X139229000Y-88924000D01*
X139269000Y-86844000D02*
X139269000Y-85142000D01*
X139269000Y-90626000D02*
X139269000Y-88924000D01*
X139309000Y-86844000D02*
X139309000Y-85118000D01*
X139309000Y-90650000D02*
X139309000Y-88924000D01*
X139349000Y-86844000D02*
X139349000Y-85094000D01*
X139349000Y-90674000D02*
X139349000Y-88924000D01*
X139389000Y-86844000D02*
X139389000Y-85072000D01*
X139389000Y-90696000D02*
X139389000Y-88924000D01*
X139429000Y-86844000D02*
X139429000Y-85050000D01*
X139429000Y-90718000D02*
X139429000Y-88924000D01*
X139469000Y-86844000D02*
X139469000Y-85028000D01*
X139469000Y-90740000D02*
X139469000Y-88924000D01*
X139509000Y-86844000D02*
X139509000Y-85008000D01*
X139509000Y-90760000D02*
X139509000Y-88924000D01*
X139549000Y-86844000D02*
X139549000Y-84988000D01*
X139549000Y-90780000D02*
X139549000Y-88924000D01*
X139589000Y-86844000D02*
X139589000Y-84968000D01*
X139589000Y-90800000D02*
X139589000Y-88924000D01*
X139629000Y-86844000D02*
X139629000Y-84950000D01*
X139629000Y-90818000D02*
X139629000Y-88924000D01*
X139669000Y-86844000D02*
X139669000Y-84932000D01*
X139669000Y-90836000D02*
X139669000Y-88924000D01*
X139709000Y-86844000D02*
X139709000Y-84914000D01*
X139709000Y-90854000D02*
X139709000Y-88924000D01*
X139749000Y-86844000D02*
X139749000Y-84898000D01*
X139749000Y-90870000D02*
X139749000Y-88924000D01*
X139789000Y-86844000D02*
X139789000Y-84882000D01*
X139789000Y-90886000D02*
X139789000Y-88924000D01*
X139829000Y-86844000D02*
X139829000Y-84866000D01*
X139829000Y-90902000D02*
X139829000Y-88924000D01*
X139869000Y-86844000D02*
X139869000Y-84851000D01*
X139869000Y-90917000D02*
X139869000Y-88924000D01*
X139909000Y-86844000D02*
X139909000Y-84837000D01*
X139909000Y-90931000D02*
X139909000Y-88924000D01*
X139949000Y-86844000D02*
X139949000Y-84823000D01*
X139949000Y-90945000D02*
X139949000Y-88924000D01*
X139989000Y-86844000D02*
X139989000Y-84810000D01*
X139989000Y-90958000D02*
X139989000Y-88924000D01*
X140029000Y-86844000D02*
X140029000Y-84798000D01*
X140029000Y-90970000D02*
X140029000Y-88924000D01*
X140069000Y-86844000D02*
X140069000Y-84786000D01*
X140069000Y-90982000D02*
X140069000Y-88924000D01*
X140109000Y-86844000D02*
X140109000Y-84774000D01*
X140109000Y-90994000D02*
X140109000Y-88924000D01*
X140149000Y-86844000D02*
X140149000Y-84763000D01*
X140149000Y-91005000D02*
X140149000Y-88924000D01*
X140189000Y-86844000D02*
X140189000Y-84753000D01*
X140189000Y-91015000D02*
X140189000Y-88924000D01*
X140229000Y-86844000D02*
X140229000Y-84743000D01*
X140229000Y-91025000D02*
X140229000Y-88924000D01*
X140269000Y-86844000D02*
X140269000Y-84734000D01*
X140269000Y-91034000D02*
X140269000Y-88924000D01*
X140310000Y-86844000D02*
X140310000Y-84725000D01*
X140310000Y-91043000D02*
X140310000Y-88924000D01*
X140350000Y-86844000D02*
X140350000Y-84717000D01*
X140350000Y-91051000D02*
X140350000Y-88924000D01*
X140390000Y-86844000D02*
X140390000Y-84709000D01*
X140390000Y-91059000D02*
X140390000Y-88924000D01*
X140430000Y-86844000D02*
X140430000Y-84702000D01*
X140430000Y-91066000D02*
X140430000Y-88924000D01*
X140470000Y-86844000D02*
X140470000Y-84695000D01*
X140470000Y-91073000D02*
X140470000Y-88924000D01*
X140510000Y-86844000D02*
X140510000Y-84689000D01*
X140510000Y-91079000D02*
X140510000Y-88924000D01*
X140550000Y-86844000D02*
X140550000Y-84683000D01*
X140550000Y-91085000D02*
X140550000Y-88924000D01*
X140590000Y-86844000D02*
X140590000Y-84678000D01*
X140590000Y-91090000D02*
X140590000Y-88924000D01*
X140630000Y-86844000D02*
X140630000Y-84673000D01*
X140630000Y-91095000D02*
X140630000Y-88924000D01*
X140670000Y-86844000D02*
X140670000Y-84669000D01*
X140670000Y-91099000D02*
X140670000Y-88924000D01*
X140710000Y-86844000D02*
X140710000Y-84666000D01*
X140710000Y-91102000D02*
X140710000Y-88924000D01*
X140750000Y-86844000D02*
X140750000Y-84662000D01*
X140750000Y-91106000D02*
X140750000Y-88924000D01*
X140790000Y-91108000D02*
X140790000Y-84660000D01*
X140830000Y-91111000D02*
X140830000Y-84657000D01*
X140870000Y-91112000D02*
X140870000Y-84656000D01*
X140910000Y-91114000D02*
X140910000Y-84654000D01*
X140950000Y-91114000D02*
X140950000Y-84654000D01*
X140990000Y-91114000D02*
X140990000Y-84654000D01*
X144260000Y-87884000D02*
G75*
G03X144260000Y-87884000I-3270000J0D01*
G01*
G04 #@! TO.C,J2*
X91246000Y-114046000D02*
X88586000Y-114046000D01*
X91246000Y-114046000D02*
X91246000Y-86046000D01*
X91246000Y-86046000D02*
X88586000Y-86046000D01*
X88586000Y-114046000D02*
X88586000Y-86046000D01*
X88586000Y-116646000D02*
X88586000Y-115316000D01*
X89916000Y-116646000D02*
X88586000Y-116646000D01*
G04 #@! TO.C,TP1*
X133110522Y-93157000D02*
X135010522Y-93157000D01*
X135010522Y-93157000D02*
X135010522Y-95057000D01*
X135010522Y-95057000D02*
X133110522Y-95057000D01*
X133110522Y-95057000D02*
X133110522Y-93157000D01*
G04 #@! TO.C,TP2*
X141137261Y-95057000D02*
X141137261Y-93157000D01*
X143037261Y-95057000D02*
X141137261Y-95057000D01*
X143037261Y-93157000D02*
X143037261Y-95057000D01*
X141137261Y-93157000D02*
X143037261Y-93157000D01*
G04 #@! TO.C,TP3*
X125083783Y-93157000D02*
X126983783Y-93157000D01*
X126983783Y-93157000D02*
X126983783Y-95057000D01*
X126983783Y-95057000D02*
X125083783Y-95057000D01*
X125083783Y-95057000D02*
X125083783Y-93157000D01*
G04 #@! TO.C,TP4*
X149164000Y-95057000D02*
X149164000Y-93157000D01*
X151064000Y-95057000D02*
X149164000Y-95057000D01*
X151064000Y-93157000D02*
X151064000Y-95057000D01*
X149164000Y-93157000D02*
X151064000Y-93157000D01*
G04 #@! TO.C,U3*
X120991183Y-86173284D02*
X131231183Y-86173284D01*
X120991183Y-70283284D02*
X131231183Y-70283284D01*
X120991183Y-70283284D02*
X120991183Y-86173284D01*
X131231183Y-70283284D02*
X131231183Y-86173284D01*
X123571183Y-86173284D02*
X123571183Y-88713284D01*
X126111183Y-86173284D02*
X126111183Y-88713284D01*
X128651183Y-86173284D02*
X128651183Y-88713284D01*
G04 #@! TO.C,U4*
X152510600Y-86197000D02*
X152510600Y-88737000D01*
X149970600Y-86197000D02*
X149970600Y-88737000D01*
X147430600Y-86197000D02*
X147430600Y-88737000D01*
X155090600Y-70307000D02*
X155090600Y-86197000D01*
X144850600Y-70307000D02*
X144850600Y-86197000D01*
X144850600Y-70307000D02*
X155090600Y-70307000D01*
X144850600Y-86197000D02*
X155090600Y-86197000D01*
D13*
G04 #@! TO.C,U1*
X107061000Y-86614000D02*
X104521000Y-86614000D01*
X104521000Y-86614000D02*
X104521000Y-89154000D01*
X104521000Y-89154000D02*
X107061000Y-89154000D01*
X107061000Y-89154000D02*
X107061000Y-86614000D01*
X98171000Y-94234000D02*
X98171000Y-90424000D01*
X98171000Y-90424000D02*
X100711000Y-90424000D01*
X100711000Y-90424000D02*
X100711000Y-94234000D01*
X100711000Y-94234000D02*
X98171000Y-94234000D01*
X96901000Y-108204000D02*
X109601000Y-108204000D01*
X109601000Y-95504000D02*
X96901000Y-95504000D01*
X96901000Y-95504000D02*
X96901000Y-108204000D01*
X109601000Y-95504000D02*
X109601000Y-108204000D01*
X98171000Y-129794000D02*
X98171000Y-131064000D01*
X99441000Y-129794000D02*
X99441000Y-131064000D01*
X100711000Y-129794000D02*
X100711000Y-131064000D01*
X101981000Y-129794000D02*
X101981000Y-131064000D01*
X103251000Y-129794000D02*
X103251000Y-131064000D01*
X104521000Y-129794000D02*
X104521000Y-131064000D01*
X105791000Y-129794000D02*
X105791000Y-131064000D01*
X107061000Y-129794000D02*
X107061000Y-131064000D01*
X108331000Y-129794000D02*
X108331000Y-131064000D01*
X96901000Y-131064000D02*
X98171000Y-129794000D01*
X98171000Y-129794000D02*
X108331000Y-129794000D01*
X108331000Y-129794000D02*
X109601000Y-131064000D01*
X109601000Y-131064000D02*
X109601000Y-118364000D01*
X109601000Y-118364000D02*
X96901000Y-118364000D01*
X96901000Y-118364000D02*
X96901000Y-131064000D01*
X112141000Y-131064000D02*
X112141000Y-70104000D01*
X94361000Y-70104000D02*
X94361000Y-131064000D01*
X99441000Y-70104000D02*
X99441000Y-68834000D01*
X99441000Y-68834000D02*
X107061000Y-68834000D01*
X107061000Y-68834000D02*
X107061000Y-70104000D01*
X99441000Y-75184000D02*
X107061000Y-75184000D01*
X107061000Y-75184000D02*
X107061000Y-70104000D01*
X99441000Y-75184000D02*
X99441000Y-70104000D01*
X105791000Y-114554000D02*
X100711000Y-114554000D01*
X100711000Y-114554000D02*
X100711000Y-112014000D01*
X100711000Y-112014000D02*
X105791000Y-112014000D01*
X105791000Y-112014000D02*
X105791000Y-114554000D01*
X112141000Y-131064000D02*
X94361000Y-131064000D01*
X94361000Y-70104000D02*
X112141000Y-70104000D01*
D14*
G04 #@! TO.C,J3*
X133677660Y-81691480D02*
X135778240Y-81691480D01*
X133677660Y-70993000D02*
X133677660Y-76291440D01*
X133677660Y-81691480D02*
X133677660Y-80992980D01*
X142674340Y-70993000D02*
X142674340Y-81691480D01*
X142674340Y-81691480D02*
X140573760Y-81691480D01*
X142674340Y-70993000D02*
X133677660Y-70993000D01*
D15*
G04 #@! TO.C,G\002A\002A\002A*
G36*
X118300500Y-124354166D02*
X114194166Y-124354166D01*
X114194166Y-123549833D01*
X118300500Y-123549833D01*
X118300500Y-124354166D01*
X118300500Y-124354166D01*
G37*
X118300500Y-124354166D02*
X114194166Y-124354166D01*
X114194166Y-123549833D01*
X118300500Y-123549833D01*
X118300500Y-124354166D01*
G36*
X120353666Y-125581833D02*
X121073333Y-125581833D01*
X121073333Y-123549833D01*
X121877666Y-123549833D01*
X121877666Y-126365000D01*
X119549333Y-126365000D01*
X119549333Y-123549833D01*
X120353666Y-123549833D01*
X120353666Y-125581833D01*
X120353666Y-125581833D01*
G37*
X120353666Y-125581833D02*
X121073333Y-125581833D01*
X121073333Y-123549833D01*
X121877666Y-123549833D01*
X121877666Y-126365000D01*
X119549333Y-126365000D01*
X119549333Y-123549833D01*
X120353666Y-123549833D01*
X120353666Y-125581833D01*
G36*
X127122177Y-124962017D02*
X127116416Y-125359583D01*
X126059529Y-125365074D01*
X125811564Y-125366319D01*
X125602600Y-125367570D01*
X125429307Y-125369285D01*
X125288354Y-125371926D01*
X125176412Y-125375951D01*
X125090149Y-125381820D01*
X125026237Y-125389994D01*
X124981344Y-125400932D01*
X124952141Y-125415093D01*
X124935298Y-125432938D01*
X124927483Y-125454926D01*
X124925369Y-125481517D01*
X124925623Y-125513171D01*
X124925666Y-125521613D01*
X124925666Y-125603000D01*
X126661333Y-125603000D01*
X126661333Y-126386166D01*
X124184833Y-126386166D01*
X124184993Y-125915208D01*
X124186138Y-125718554D01*
X124189991Y-125557816D01*
X124197399Y-125426616D01*
X124209212Y-125318577D01*
X124226276Y-125227323D01*
X124249439Y-125146476D01*
X124279550Y-125069659D01*
X124304508Y-125016306D01*
X124402935Y-124857963D01*
X124527047Y-124732507D01*
X124679461Y-124637328D01*
X124689126Y-124632728D01*
X124809250Y-124576416D01*
X125968594Y-124570434D01*
X127127939Y-124564452D01*
X127122177Y-124962017D01*
X127122177Y-124962017D01*
G37*
X127122177Y-124962017D02*
X127116416Y-125359583D01*
X126059529Y-125365074D01*
X125811564Y-125366319D01*
X125602600Y-125367570D01*
X125429307Y-125369285D01*
X125288354Y-125371926D01*
X125176412Y-125375951D01*
X125090149Y-125381820D01*
X125026237Y-125389994D01*
X124981344Y-125400932D01*
X124952141Y-125415093D01*
X124935298Y-125432938D01*
X124927483Y-125454926D01*
X124925369Y-125481517D01*
X124925623Y-125513171D01*
X124925666Y-125521613D01*
X124925666Y-125603000D01*
X126661333Y-125603000D01*
X126661333Y-126386166D01*
X124184833Y-126386166D01*
X124184993Y-125915208D01*
X124186138Y-125718554D01*
X124189991Y-125557816D01*
X124197399Y-125426616D01*
X124209212Y-125318577D01*
X124226276Y-125227323D01*
X124249439Y-125146476D01*
X124279550Y-125069659D01*
X124304508Y-125016306D01*
X124402935Y-124857963D01*
X124527047Y-124732507D01*
X124679461Y-124637328D01*
X124689126Y-124632728D01*
X124809250Y-124576416D01*
X125968594Y-124570434D01*
X127127939Y-124564452D01*
X127122177Y-124962017D01*
G36*
X126661333Y-127381000D02*
X124925666Y-127381000D01*
X124925666Y-127462386D01*
X124925339Y-127495329D01*
X124926578Y-127523099D01*
X124932713Y-127546155D01*
X124947075Y-127564957D01*
X124972993Y-127579965D01*
X125013797Y-127591638D01*
X125072818Y-127600436D01*
X125153387Y-127606819D01*
X125258832Y-127611247D01*
X125392484Y-127614179D01*
X125557674Y-127616076D01*
X125757732Y-127617396D01*
X125995987Y-127618600D01*
X126059529Y-127618925D01*
X127116416Y-127624416D01*
X127127934Y-128418166D01*
X126000342Y-128416750D01*
X125736110Y-128416180D01*
X125511221Y-128415139D01*
X125322683Y-128413553D01*
X125167507Y-128411352D01*
X125042703Y-128408463D01*
X124945282Y-128404814D01*
X124872253Y-128400333D01*
X124820628Y-128394949D01*
X124787415Y-128388589D01*
X124783554Y-128387459D01*
X124617698Y-128315073D01*
X124477287Y-128209242D01*
X124361561Y-128069285D01*
X124294145Y-127949205D01*
X124261455Y-127873823D01*
X124235764Y-127796254D01*
X124216299Y-127710255D01*
X124202286Y-127609580D01*
X124192950Y-127487984D01*
X124187518Y-127339225D01*
X124185214Y-127157056D01*
X124184993Y-127068791D01*
X124184833Y-126597833D01*
X126661333Y-126597833D01*
X126661333Y-127381000D01*
X126661333Y-127381000D01*
G37*
X126661333Y-127381000D02*
X124925666Y-127381000D01*
X124925666Y-127462386D01*
X124925339Y-127495329D01*
X124926578Y-127523099D01*
X124932713Y-127546155D01*
X124947075Y-127564957D01*
X124972993Y-127579965D01*
X125013797Y-127591638D01*
X125072818Y-127600436D01*
X125153387Y-127606819D01*
X125258832Y-127611247D01*
X125392484Y-127614179D01*
X125557674Y-127616076D01*
X125757732Y-127617396D01*
X125995987Y-127618600D01*
X126059529Y-127618925D01*
X127116416Y-127624416D01*
X127127934Y-128418166D01*
X126000342Y-128416750D01*
X125736110Y-128416180D01*
X125511221Y-128415139D01*
X125322683Y-128413553D01*
X125167507Y-128411352D01*
X125042703Y-128408463D01*
X124945282Y-128404814D01*
X124872253Y-128400333D01*
X124820628Y-128394949D01*
X124787415Y-128388589D01*
X124783554Y-128387459D01*
X124617698Y-128315073D01*
X124477287Y-128209242D01*
X124361561Y-128069285D01*
X124294145Y-127949205D01*
X124261455Y-127873823D01*
X124235764Y-127796254D01*
X124216299Y-127710255D01*
X124202286Y-127609580D01*
X124192950Y-127487984D01*
X124187518Y-127339225D01*
X124185214Y-127157056D01*
X124184993Y-127068791D01*
X124184833Y-126597833D01*
X126661333Y-126597833D01*
X126661333Y-127381000D01*
G36*
X129929794Y-124575209D02*
X129983468Y-124603075D01*
X129995969Y-124621701D01*
X130016346Y-124664418D01*
X130045158Y-124732735D01*
X130082968Y-124828165D01*
X130130334Y-124952219D01*
X130187819Y-125106408D01*
X130255982Y-125292243D01*
X130335384Y-125511236D01*
X130426586Y-125764899D01*
X130530149Y-126054741D01*
X130646633Y-126382276D01*
X130715642Y-126576866D01*
X130812848Y-126851245D01*
X130905958Y-127114140D01*
X130994008Y-127362830D01*
X131076037Y-127594595D01*
X131151083Y-127806713D01*
X131218184Y-127996463D01*
X131276378Y-128161126D01*
X131324702Y-128297979D01*
X131362195Y-128404303D01*
X131387894Y-128477376D01*
X131400838Y-128514477D01*
X131402245Y-128518708D01*
X131381816Y-128519724D01*
X131322981Y-128520676D01*
X131229669Y-128521545D01*
X131105807Y-128522313D01*
X130955322Y-128522959D01*
X130782143Y-128523466D01*
X130590198Y-128523814D01*
X130383413Y-128523985D01*
X130302000Y-128524000D01*
X129201333Y-128524000D01*
X129199662Y-128412875D01*
X129198312Y-128383109D01*
X129194396Y-128368197D01*
X129186488Y-128371514D01*
X129173162Y-128396436D01*
X129152991Y-128446338D01*
X129124550Y-128524596D01*
X129086412Y-128634586D01*
X129037152Y-128779683D01*
X129007398Y-128867958D01*
X128816805Y-129434166D01*
X128458736Y-129434166D01*
X128340960Y-129433193D01*
X128239481Y-129430498D01*
X128161187Y-129426415D01*
X128112967Y-129421279D01*
X128100666Y-129416764D01*
X128107441Y-129394907D01*
X128127198Y-129335516D01*
X128159091Y-129241067D01*
X128202269Y-129114036D01*
X128255887Y-128956899D01*
X128319093Y-128772131D01*
X128391041Y-128562209D01*
X128470883Y-128329609D01*
X128557768Y-128076806D01*
X128650850Y-127806277D01*
X128656289Y-127790483D01*
X129413000Y-127790483D01*
X129433178Y-127794432D01*
X129489766Y-127797942D01*
X129576840Y-127800845D01*
X129688474Y-127802970D01*
X129818747Y-127804149D01*
X129897393Y-127804333D01*
X130381787Y-127804333D01*
X130135518Y-127055662D01*
X130079709Y-126887662D01*
X130027625Y-126734059D01*
X129980783Y-126599091D01*
X129940704Y-126486996D01*
X129908904Y-126402014D01*
X129886902Y-126348383D01*
X129876218Y-126330343D01*
X129875804Y-126330704D01*
X129866647Y-126355461D01*
X129846734Y-126414761D01*
X129817838Y-126503012D01*
X129781731Y-126614624D01*
X129740185Y-126744008D01*
X129694973Y-126885573D01*
X129647866Y-127033728D01*
X129600638Y-127182885D01*
X129555060Y-127327452D01*
X129512905Y-127461839D01*
X129475945Y-127580457D01*
X129445952Y-127677715D01*
X129424698Y-127748023D01*
X129413957Y-127785791D01*
X129413000Y-127790483D01*
X128656289Y-127790483D01*
X128749280Y-127520497D01*
X128852210Y-127221942D01*
X128924416Y-127012669D01*
X129065794Y-126603752D01*
X129194929Y-126231706D01*
X129311706Y-125896859D01*
X129416005Y-125599539D01*
X129507712Y-125340073D01*
X129586707Y-125118791D01*
X129652875Y-124936019D01*
X129706099Y-124792086D01*
X129746260Y-124687320D01*
X129773243Y-124622048D01*
X129786929Y-124596600D01*
X129786958Y-124596578D01*
X129854505Y-124569525D01*
X129929794Y-124575209D01*
X129929794Y-124575209D01*
G37*
X129929794Y-124575209D02*
X129983468Y-124603075D01*
X129995969Y-124621701D01*
X130016346Y-124664418D01*
X130045158Y-124732735D01*
X130082968Y-124828165D01*
X130130334Y-124952219D01*
X130187819Y-125106408D01*
X130255982Y-125292243D01*
X130335384Y-125511236D01*
X130426586Y-125764899D01*
X130530149Y-126054741D01*
X130646633Y-126382276D01*
X130715642Y-126576866D01*
X130812848Y-126851245D01*
X130905958Y-127114140D01*
X130994008Y-127362830D01*
X131076037Y-127594595D01*
X131151083Y-127806713D01*
X131218184Y-127996463D01*
X131276378Y-128161126D01*
X131324702Y-128297979D01*
X131362195Y-128404303D01*
X131387894Y-128477376D01*
X131400838Y-128514477D01*
X131402245Y-128518708D01*
X131381816Y-128519724D01*
X131322981Y-128520676D01*
X131229669Y-128521545D01*
X131105807Y-128522313D01*
X130955322Y-128522959D01*
X130782143Y-128523466D01*
X130590198Y-128523814D01*
X130383413Y-128523985D01*
X130302000Y-128524000D01*
X129201333Y-128524000D01*
X129199662Y-128412875D01*
X129198312Y-128383109D01*
X129194396Y-128368197D01*
X129186488Y-128371514D01*
X129173162Y-128396436D01*
X129152991Y-128446338D01*
X129124550Y-128524596D01*
X129086412Y-128634586D01*
X129037152Y-128779683D01*
X129007398Y-128867958D01*
X128816805Y-129434166D01*
X128458736Y-129434166D01*
X128340960Y-129433193D01*
X128239481Y-129430498D01*
X128161187Y-129426415D01*
X128112967Y-129421279D01*
X128100666Y-129416764D01*
X128107441Y-129394907D01*
X128127198Y-129335516D01*
X128159091Y-129241067D01*
X128202269Y-129114036D01*
X128255887Y-128956899D01*
X128319093Y-128772131D01*
X128391041Y-128562209D01*
X128470883Y-128329609D01*
X128557768Y-128076806D01*
X128650850Y-127806277D01*
X128656289Y-127790483D01*
X129413000Y-127790483D01*
X129433178Y-127794432D01*
X129489766Y-127797942D01*
X129576840Y-127800845D01*
X129688474Y-127802970D01*
X129818747Y-127804149D01*
X129897393Y-127804333D01*
X130381787Y-127804333D01*
X130135518Y-127055662D01*
X130079709Y-126887662D01*
X130027625Y-126734059D01*
X129980783Y-126599091D01*
X129940704Y-126486996D01*
X129908904Y-126402014D01*
X129886902Y-126348383D01*
X129876218Y-126330343D01*
X129875804Y-126330704D01*
X129866647Y-126355461D01*
X129846734Y-126414761D01*
X129817838Y-126503012D01*
X129781731Y-126614624D01*
X129740185Y-126744008D01*
X129694973Y-126885573D01*
X129647866Y-127033728D01*
X129600638Y-127182885D01*
X129555060Y-127327452D01*
X129512905Y-127461839D01*
X129475945Y-127580457D01*
X129445952Y-127677715D01*
X129424698Y-127748023D01*
X129413957Y-127785791D01*
X129413000Y-127790483D01*
X128656289Y-127790483D01*
X128749280Y-127520497D01*
X128852210Y-127221942D01*
X128924416Y-127012669D01*
X129065794Y-126603752D01*
X129194929Y-126231706D01*
X129311706Y-125896859D01*
X129416005Y-125599539D01*
X129507712Y-125340073D01*
X129586707Y-125118791D01*
X129652875Y-124936019D01*
X129706099Y-124792086D01*
X129746260Y-124687320D01*
X129773243Y-124622048D01*
X129786929Y-124596600D01*
X129786958Y-124596578D01*
X129854505Y-124569525D01*
X129929794Y-124575209D01*
G36*
X127116416Y-124343583D02*
X125909916Y-124354228D01*
X125645616Y-124356544D01*
X125420058Y-124358704D01*
X125229654Y-124361062D01*
X125070817Y-124363973D01*
X124939959Y-124367792D01*
X124833492Y-124372875D01*
X124747828Y-124379575D01*
X124679380Y-124388249D01*
X124624558Y-124399252D01*
X124579776Y-124412938D01*
X124541446Y-124429663D01*
X124505980Y-124449781D01*
X124469789Y-124473648D01*
X124430763Y-124500604D01*
X124348531Y-124566616D01*
X124261711Y-124651562D01*
X124181728Y-124742940D01*
X124120002Y-124828252D01*
X124101362Y-124861061D01*
X124078062Y-124907454D01*
X124058059Y-124949172D01*
X124041103Y-124989703D01*
X124026942Y-125032535D01*
X124015326Y-125081155D01*
X124006001Y-125139052D01*
X123998717Y-125209713D01*
X123993223Y-125296626D01*
X123989266Y-125403279D01*
X123986595Y-125533158D01*
X123984959Y-125689754D01*
X123984106Y-125876552D01*
X123983785Y-126097041D01*
X123983744Y-126354709D01*
X123983750Y-126492000D01*
X123983746Y-126768667D01*
X123983902Y-127006489D01*
X123984469Y-127208954D01*
X123985700Y-127379548D01*
X123987844Y-127521761D01*
X123991155Y-127639079D01*
X123995884Y-127734991D01*
X124002281Y-127812984D01*
X124010599Y-127876545D01*
X124021089Y-127929164D01*
X124034002Y-127974327D01*
X124049591Y-128015523D01*
X124068106Y-128056239D01*
X124089799Y-128099963D01*
X124101362Y-128122938D01*
X124151261Y-128201514D01*
X124224512Y-128291731D01*
X124309694Y-128381090D01*
X124395383Y-128457091D01*
X124430763Y-128483395D01*
X124471061Y-128511222D01*
X124507168Y-128534956D01*
X124542673Y-128554954D01*
X124581162Y-128571570D01*
X124626225Y-128585160D01*
X124681447Y-128596078D01*
X124750419Y-128604680D01*
X124836726Y-128611320D01*
X124943958Y-128616354D01*
X125075702Y-128620137D01*
X125235546Y-128623024D01*
X125427077Y-128625369D01*
X125653884Y-128627528D01*
X125909916Y-128629771D01*
X127116416Y-128640416D01*
X127127000Y-128949338D01*
X127137583Y-129258260D01*
X128036984Y-126716255D01*
X128149492Y-126398676D01*
X128258868Y-126090729D01*
X128364203Y-125794930D01*
X128464591Y-125513796D01*
X128559123Y-125249840D01*
X128646893Y-125005579D01*
X128726993Y-124783529D01*
X128798514Y-124586204D01*
X128860551Y-124416121D01*
X128912195Y-124275795D01*
X128952538Y-124167742D01*
X128980674Y-124094477D01*
X128995694Y-124058515D01*
X128996038Y-124057833D01*
X129101465Y-123896806D01*
X129236616Y-123764018D01*
X129398031Y-123661421D01*
X129582249Y-123590969D01*
X129785809Y-123554615D01*
X129896041Y-123549833D01*
X130098331Y-123569247D01*
X130287265Y-123625646D01*
X130458064Y-123716263D01*
X130605947Y-123838331D01*
X130726134Y-123989085D01*
X130762405Y-124051166D01*
X130778162Y-124087481D01*
X130807352Y-124162157D01*
X130849405Y-124273602D01*
X130903750Y-124420226D01*
X130969817Y-124600440D01*
X131047035Y-124812653D01*
X131134834Y-125055274D01*
X131232644Y-125326713D01*
X131339893Y-125625381D01*
X131456012Y-125949686D01*
X131580430Y-126298039D01*
X131712577Y-126668850D01*
X131851883Y-127060527D01*
X131997776Y-127471481D01*
X132149687Y-127900122D01*
X132307044Y-128344859D01*
X132469279Y-128804102D01*
X132588885Y-129143125D01*
X132691508Y-129434166D01*
X129201333Y-129434166D01*
X129201333Y-128735666D01*
X130442052Y-128735666D01*
X130702523Y-128735611D01*
X130923808Y-128735381D01*
X131109053Y-128734882D01*
X131261406Y-128734019D01*
X131384013Y-128732697D01*
X131480021Y-128730823D01*
X131552577Y-128728301D01*
X131604827Y-128725036D01*
X131639920Y-128720934D01*
X131661000Y-128715900D01*
X131671217Y-128709840D01*
X131673715Y-128702658D01*
X131673055Y-128698625D01*
X131664479Y-128673246D01*
X131642676Y-128611280D01*
X131608808Y-128515952D01*
X131564039Y-128390491D01*
X131509529Y-128238120D01*
X131446442Y-128062066D01*
X131375938Y-127865556D01*
X131299180Y-127651815D01*
X131217329Y-127424070D01*
X131131549Y-127185547D01*
X131043000Y-126939471D01*
X130952845Y-126689069D01*
X130862246Y-126437566D01*
X130772365Y-126188190D01*
X130684364Y-125944166D01*
X130599404Y-125708720D01*
X130518648Y-125485078D01*
X130443259Y-125276467D01*
X130374397Y-125086112D01*
X130313225Y-124917239D01*
X130260905Y-124773076D01*
X130218599Y-124656846D01*
X130187468Y-124571778D01*
X130168676Y-124521097D01*
X130163947Y-124508872D01*
X130114403Y-124440757D01*
X130036753Y-124390910D01*
X129942309Y-124362157D01*
X129842383Y-124357330D01*
X129748288Y-124379256D01*
X129714351Y-124396434D01*
X129658097Y-124444270D01*
X129615099Y-124503364D01*
X129613092Y-124507480D01*
X129602073Y-124535949D01*
X129577940Y-124601847D01*
X129541586Y-124702652D01*
X129493905Y-124835843D01*
X129435791Y-124998900D01*
X129368137Y-125189303D01*
X129291838Y-125404530D01*
X129207787Y-125642062D01*
X129116878Y-125899377D01*
X129020004Y-126173955D01*
X128918061Y-126463276D01*
X128811940Y-126764818D01*
X128729261Y-127000000D01*
X127877624Y-129423583D01*
X126269353Y-129426058D01*
X126010980Y-129426340D01*
X125764076Y-129426387D01*
X125532035Y-129426211D01*
X125318253Y-129425825D01*
X125126126Y-129425242D01*
X124959047Y-129424475D01*
X124820413Y-129423538D01*
X124713618Y-129422442D01*
X124642057Y-129421202D01*
X124609126Y-129419830D01*
X124608166Y-129419699D01*
X124560496Y-129408789D01*
X124489153Y-129389190D01*
X124419934Y-129368343D01*
X124172131Y-129268868D01*
X123945561Y-129134140D01*
X123742685Y-128966850D01*
X123565969Y-128769690D01*
X123417874Y-128545350D01*
X123300864Y-128296523D01*
X123226902Y-128064711D01*
X123217438Y-128026773D01*
X123209323Y-127990490D01*
X123202453Y-127952430D01*
X123196724Y-127909157D01*
X123192034Y-127857237D01*
X123188278Y-127793236D01*
X123185352Y-127713717D01*
X123183153Y-127615248D01*
X123181578Y-127494392D01*
X123180521Y-127347717D01*
X123179881Y-127171786D01*
X123179552Y-126963166D01*
X123179432Y-126718421D01*
X123179416Y-126492000D01*
X123179444Y-126215567D01*
X123179596Y-125978033D01*
X123179977Y-125775963D01*
X123180689Y-125605922D01*
X123181837Y-125464477D01*
X123183524Y-125348191D01*
X123185855Y-125253631D01*
X123188932Y-125177362D01*
X123192860Y-125115949D01*
X123197742Y-125065958D01*
X123203681Y-125023954D01*
X123210783Y-124986502D01*
X123219149Y-124950168D01*
X123226902Y-124919288D01*
X123317117Y-124644247D01*
X123440486Y-124395364D01*
X123596191Y-124173536D01*
X123783412Y-123979664D01*
X124001330Y-123814647D01*
X124249126Y-123679385D01*
X124418552Y-123610448D01*
X124447292Y-123600318D01*
X124475076Y-123591669D01*
X124505373Y-123584365D01*
X124541653Y-123578269D01*
X124587384Y-123573245D01*
X124646037Y-123569158D01*
X124721080Y-123565871D01*
X124815982Y-123563249D01*
X124934214Y-123561155D01*
X125079244Y-123559453D01*
X125254541Y-123558008D01*
X125463575Y-123556684D01*
X125709816Y-123555343D01*
X125841595Y-123554658D01*
X127127940Y-123547991D01*
X127116416Y-124343583D01*
X127116416Y-124343583D01*
G37*
X127116416Y-124343583D02*
X125909916Y-124354228D01*
X125645616Y-124356544D01*
X125420058Y-124358704D01*
X125229654Y-124361062D01*
X125070817Y-124363973D01*
X124939959Y-124367792D01*
X124833492Y-124372875D01*
X124747828Y-124379575D01*
X124679380Y-124388249D01*
X124624558Y-124399252D01*
X124579776Y-124412938D01*
X124541446Y-124429663D01*
X124505980Y-124449781D01*
X124469789Y-124473648D01*
X124430763Y-124500604D01*
X124348531Y-124566616D01*
X124261711Y-124651562D01*
X124181728Y-124742940D01*
X124120002Y-124828252D01*
X124101362Y-124861061D01*
X124078062Y-124907454D01*
X124058059Y-124949172D01*
X124041103Y-124989703D01*
X124026942Y-125032535D01*
X124015326Y-125081155D01*
X124006001Y-125139052D01*
X123998717Y-125209713D01*
X123993223Y-125296626D01*
X123989266Y-125403279D01*
X123986595Y-125533158D01*
X123984959Y-125689754D01*
X123984106Y-125876552D01*
X123983785Y-126097041D01*
X123983744Y-126354709D01*
X123983750Y-126492000D01*
X123983746Y-126768667D01*
X123983902Y-127006489D01*
X123984469Y-127208954D01*
X123985700Y-127379548D01*
X123987844Y-127521761D01*
X123991155Y-127639079D01*
X123995884Y-127734991D01*
X124002281Y-127812984D01*
X124010599Y-127876545D01*
X124021089Y-127929164D01*
X124034002Y-127974327D01*
X124049591Y-128015523D01*
X124068106Y-128056239D01*
X124089799Y-128099963D01*
X124101362Y-128122938D01*
X124151261Y-128201514D01*
X124224512Y-128291731D01*
X124309694Y-128381090D01*
X124395383Y-128457091D01*
X124430763Y-128483395D01*
X124471061Y-128511222D01*
X124507168Y-128534956D01*
X124542673Y-128554954D01*
X124581162Y-128571570D01*
X124626225Y-128585160D01*
X124681447Y-128596078D01*
X124750419Y-128604680D01*
X124836726Y-128611320D01*
X124943958Y-128616354D01*
X125075702Y-128620137D01*
X125235546Y-128623024D01*
X125427077Y-128625369D01*
X125653884Y-128627528D01*
X125909916Y-128629771D01*
X127116416Y-128640416D01*
X127127000Y-128949338D01*
X127137583Y-129258260D01*
X128036984Y-126716255D01*
X128149492Y-126398676D01*
X128258868Y-126090729D01*
X128364203Y-125794930D01*
X128464591Y-125513796D01*
X128559123Y-125249840D01*
X128646893Y-125005579D01*
X128726993Y-124783529D01*
X128798514Y-124586204D01*
X128860551Y-124416121D01*
X128912195Y-124275795D01*
X128952538Y-124167742D01*
X128980674Y-124094477D01*
X128995694Y-124058515D01*
X128996038Y-124057833D01*
X129101465Y-123896806D01*
X129236616Y-123764018D01*
X129398031Y-123661421D01*
X129582249Y-123590969D01*
X129785809Y-123554615D01*
X129896041Y-123549833D01*
X130098331Y-123569247D01*
X130287265Y-123625646D01*
X130458064Y-123716263D01*
X130605947Y-123838331D01*
X130726134Y-123989085D01*
X130762405Y-124051166D01*
X130778162Y-124087481D01*
X130807352Y-124162157D01*
X130849405Y-124273602D01*
X130903750Y-124420226D01*
X130969817Y-124600440D01*
X131047035Y-124812653D01*
X131134834Y-125055274D01*
X131232644Y-125326713D01*
X131339893Y-125625381D01*
X131456012Y-125949686D01*
X131580430Y-126298039D01*
X131712577Y-126668850D01*
X131851883Y-127060527D01*
X131997776Y-127471481D01*
X132149687Y-127900122D01*
X132307044Y-128344859D01*
X132469279Y-128804102D01*
X132588885Y-129143125D01*
X132691508Y-129434166D01*
X129201333Y-129434166D01*
X129201333Y-128735666D01*
X130442052Y-128735666D01*
X130702523Y-128735611D01*
X130923808Y-128735381D01*
X131109053Y-128734882D01*
X131261406Y-128734019D01*
X131384013Y-128732697D01*
X131480021Y-128730823D01*
X131552577Y-128728301D01*
X131604827Y-128725036D01*
X131639920Y-128720934D01*
X131661000Y-128715900D01*
X131671217Y-128709840D01*
X131673715Y-128702658D01*
X131673055Y-128698625D01*
X131664479Y-128673246D01*
X131642676Y-128611280D01*
X131608808Y-128515952D01*
X131564039Y-128390491D01*
X131509529Y-128238120D01*
X131446442Y-128062066D01*
X131375938Y-127865556D01*
X131299180Y-127651815D01*
X131217329Y-127424070D01*
X131131549Y-127185547D01*
X131043000Y-126939471D01*
X130952845Y-126689069D01*
X130862246Y-126437566D01*
X130772365Y-126188190D01*
X130684364Y-125944166D01*
X130599404Y-125708720D01*
X130518648Y-125485078D01*
X130443259Y-125276467D01*
X130374397Y-125086112D01*
X130313225Y-124917239D01*
X130260905Y-124773076D01*
X130218599Y-124656846D01*
X130187468Y-124571778D01*
X130168676Y-124521097D01*
X130163947Y-124508872D01*
X130114403Y-124440757D01*
X130036753Y-124390910D01*
X129942309Y-124362157D01*
X129842383Y-124357330D01*
X129748288Y-124379256D01*
X129714351Y-124396434D01*
X129658097Y-124444270D01*
X129615099Y-124503364D01*
X129613092Y-124507480D01*
X129602073Y-124535949D01*
X129577940Y-124601847D01*
X129541586Y-124702652D01*
X129493905Y-124835843D01*
X129435791Y-124998900D01*
X129368137Y-125189303D01*
X129291838Y-125404530D01*
X129207787Y-125642062D01*
X129116878Y-125899377D01*
X129020004Y-126173955D01*
X128918061Y-126463276D01*
X128811940Y-126764818D01*
X128729261Y-127000000D01*
X127877624Y-129423583D01*
X126269353Y-129426058D01*
X126010980Y-129426340D01*
X125764076Y-129426387D01*
X125532035Y-129426211D01*
X125318253Y-129425825D01*
X125126126Y-129425242D01*
X124959047Y-129424475D01*
X124820413Y-129423538D01*
X124713618Y-129422442D01*
X124642057Y-129421202D01*
X124609126Y-129419830D01*
X124608166Y-129419699D01*
X124560496Y-129408789D01*
X124489153Y-129389190D01*
X124419934Y-129368343D01*
X124172131Y-129268868D01*
X123945561Y-129134140D01*
X123742685Y-128966850D01*
X123565969Y-128769690D01*
X123417874Y-128545350D01*
X123300864Y-128296523D01*
X123226902Y-128064711D01*
X123217438Y-128026773D01*
X123209323Y-127990490D01*
X123202453Y-127952430D01*
X123196724Y-127909157D01*
X123192034Y-127857237D01*
X123188278Y-127793236D01*
X123185352Y-127713717D01*
X123183153Y-127615248D01*
X123181578Y-127494392D01*
X123180521Y-127347717D01*
X123179881Y-127171786D01*
X123179552Y-126963166D01*
X123179432Y-126718421D01*
X123179416Y-126492000D01*
X123179444Y-126215567D01*
X123179596Y-125978033D01*
X123179977Y-125775963D01*
X123180689Y-125605922D01*
X123181837Y-125464477D01*
X123183524Y-125348191D01*
X123185855Y-125253631D01*
X123188932Y-125177362D01*
X123192860Y-125115949D01*
X123197742Y-125065958D01*
X123203681Y-125023954D01*
X123210783Y-124986502D01*
X123219149Y-124950168D01*
X123226902Y-124919288D01*
X123317117Y-124644247D01*
X123440486Y-124395364D01*
X123596191Y-124173536D01*
X123783412Y-123979664D01*
X124001330Y-123814647D01*
X124249126Y-123679385D01*
X124418552Y-123610448D01*
X124447292Y-123600318D01*
X124475076Y-123591669D01*
X124505373Y-123584365D01*
X124541653Y-123578269D01*
X124587384Y-123573245D01*
X124646037Y-123569158D01*
X124721080Y-123565871D01*
X124815982Y-123563249D01*
X124934214Y-123561155D01*
X125079244Y-123559453D01*
X125254541Y-123558008D01*
X125463575Y-123556684D01*
X125709816Y-123555343D01*
X125841595Y-123554658D01*
X127127940Y-123547991D01*
X127116416Y-124343583D01*
G36*
X122893666Y-129434166D02*
X122089333Y-129434166D01*
X122089333Y-123549833D01*
X122893666Y-123549833D01*
X122893666Y-129434166D01*
X122893666Y-129434166D01*
G37*
X122893666Y-129434166D02*
X122089333Y-129434166D01*
X122089333Y-123549833D01*
X122893666Y-123549833D01*
X122893666Y-129434166D01*
G36*
X121877666Y-129434166D02*
X121073333Y-129434166D01*
X121073333Y-127381000D01*
X120353666Y-127381000D01*
X120353666Y-129434166D01*
X119549333Y-129434166D01*
X119549333Y-126597833D01*
X121877666Y-126597833D01*
X121877666Y-129434166D01*
X121877666Y-129434166D01*
G37*
X121877666Y-129434166D02*
X121073333Y-129434166D01*
X121073333Y-127381000D01*
X120353666Y-127381000D01*
X120353666Y-129434166D01*
X119549333Y-129434166D01*
X119549333Y-126597833D01*
X121877666Y-126597833D01*
X121877666Y-129434166D01*
G36*
X119337666Y-129434166D02*
X118533333Y-129434166D01*
X118533333Y-123549833D01*
X119337666Y-123549833D01*
X119337666Y-129434166D01*
X119337666Y-129434166D01*
G37*
X119337666Y-129434166D02*
X118533333Y-129434166D01*
X118533333Y-123549833D01*
X119337666Y-123549833D01*
X119337666Y-129434166D01*
G36*
X118300500Y-125370166D02*
X117157500Y-125370166D01*
X117157500Y-129434166D01*
X116353166Y-129434166D01*
X116353166Y-124565833D01*
X118300500Y-124565833D01*
X118300500Y-125370166D01*
X118300500Y-125370166D01*
G37*
X118300500Y-125370166D02*
X117157500Y-125370166D01*
X117157500Y-129434166D01*
X116353166Y-129434166D01*
X116353166Y-124565833D01*
X118300500Y-124565833D01*
X118300500Y-125370166D01*
G36*
X116141500Y-129434166D02*
X115337166Y-129434166D01*
X115337166Y-125370166D01*
X114194166Y-125370166D01*
X114194166Y-124565833D01*
X116141500Y-124565833D01*
X116141500Y-129434166D01*
X116141500Y-129434166D01*
G37*
X116141500Y-129434166D02*
X115337166Y-129434166D01*
X115337166Y-125370166D01*
X114194166Y-125370166D01*
X114194166Y-124565833D01*
X116141500Y-124565833D01*
X116141500Y-129434166D01*
D12*
G04 #@! TO.C,C5*
X135104000Y-126084000D02*
X135104000Y-123344000D01*
X142344000Y-126084000D02*
X142344000Y-123344000D01*
X142344000Y-123344000D02*
X135104000Y-123344000D01*
X142344000Y-126084000D02*
X135104000Y-126084000D01*
G04 #@! TO.C,C6*
X142898000Y-123344000D02*
X150138000Y-123344000D01*
X142898000Y-126084000D02*
X150138000Y-126084000D01*
X142898000Y-123344000D02*
X142898000Y-126084000D01*
X150138000Y-123344000D02*
X150138000Y-126084000D01*
G04 #@! TO.C,R1*
D13*
X150312380Y-108116666D02*
X149836190Y-108450000D01*
X150312380Y-108688095D02*
X149312380Y-108688095D01*
X149312380Y-108307142D01*
X149360000Y-108211904D01*
X149407619Y-108164285D01*
X149502857Y-108116666D01*
X149645714Y-108116666D01*
X149740952Y-108164285D01*
X149788571Y-108211904D01*
X149836190Y-108307142D01*
X149836190Y-108688095D01*
X150312380Y-107164285D02*
X150312380Y-107735714D01*
X150312380Y-107450000D02*
X149312380Y-107450000D01*
X149455238Y-107545238D01*
X149550476Y-107640476D01*
X149598095Y-107735714D01*
G04 #@! TO.C,R2*
X153868380Y-112180666D02*
X153392190Y-112514000D01*
X153868380Y-112752095D02*
X152868380Y-112752095D01*
X152868380Y-112371142D01*
X152916000Y-112275904D01*
X152963619Y-112228285D01*
X153058857Y-112180666D01*
X153201714Y-112180666D01*
X153296952Y-112228285D01*
X153344571Y-112275904D01*
X153392190Y-112371142D01*
X153392190Y-112752095D01*
X152963619Y-111799714D02*
X152916000Y-111752095D01*
X152868380Y-111656857D01*
X152868380Y-111418761D01*
X152916000Y-111323523D01*
X152963619Y-111275904D01*
X153058857Y-111228285D01*
X153154095Y-111228285D01*
X153296952Y-111275904D01*
X153868380Y-111847333D01*
X153868380Y-111228285D01*
G04 #@! TO.C,U2*
X127571809Y-113260190D02*
X127571809Y-113736380D01*
X127238476Y-112736380D02*
X127571809Y-113260190D01*
X127905142Y-112736380D01*
X128238476Y-113736380D02*
X128238476Y-112736380D01*
X128571809Y-113450666D01*
X128905142Y-112736380D01*
X128905142Y-113736380D01*
X129333714Y-112831619D02*
X129381333Y-112784000D01*
X129476571Y-112736380D01*
X129714666Y-112736380D01*
X129809904Y-112784000D01*
X129857523Y-112831619D01*
X129905142Y-112926857D01*
X129905142Y-113022095D01*
X129857523Y-113164952D01*
X129286095Y-113736380D01*
X129905142Y-113736380D01*
X130762285Y-112736380D02*
X130571809Y-112736380D01*
X130476571Y-112784000D01*
X130428952Y-112831619D01*
X130333714Y-112974476D01*
X130286095Y-113164952D01*
X130286095Y-113545904D01*
X130333714Y-113641142D01*
X130381333Y-113688761D01*
X130476571Y-113736380D01*
X130667047Y-113736380D01*
X130762285Y-113688761D01*
X130809904Y-113641142D01*
X130857523Y-113545904D01*
X130857523Y-113307809D01*
X130809904Y-113212571D01*
X130762285Y-113164952D01*
X130667047Y-113117333D01*
X130476571Y-113117333D01*
X130381333Y-113164952D01*
X130333714Y-113212571D01*
X130286095Y-113307809D01*
X131809904Y-113736380D02*
X131238476Y-113736380D01*
X131524190Y-113736380D02*
X131524190Y-112736380D01*
X131428952Y-112879238D01*
X131333714Y-112974476D01*
X131238476Y-113022095D01*
X132190857Y-112831619D02*
X132238476Y-112784000D01*
X132333714Y-112736380D01*
X132571809Y-112736380D01*
X132667047Y-112784000D01*
X132714666Y-112831619D01*
X132762285Y-112926857D01*
X132762285Y-113022095D01*
X132714666Y-113164952D01*
X132143238Y-113736380D01*
X132762285Y-113736380D01*
G04 #@! TO.C,C1*
X133961142Y-87542666D02*
X134008761Y-87590285D01*
X134056380Y-87733142D01*
X134056380Y-87828380D01*
X134008761Y-87971238D01*
X133913523Y-88066476D01*
X133818285Y-88114095D01*
X133627809Y-88161714D01*
X133484952Y-88161714D01*
X133294476Y-88114095D01*
X133199238Y-88066476D01*
X133104000Y-87971238D01*
X133056380Y-87828380D01*
X133056380Y-87733142D01*
X133104000Y-87590285D01*
X133151619Y-87542666D01*
X134056380Y-86590285D02*
X134056380Y-87161714D01*
X134056380Y-86876000D02*
X133056380Y-86876000D01*
X133199238Y-86971238D01*
X133294476Y-87066476D01*
X133342095Y-87161714D01*
G04 #@! TO.C,C2*
X157837142Y-87542666D02*
X157884761Y-87590285D01*
X157932380Y-87733142D01*
X157932380Y-87828380D01*
X157884761Y-87971238D01*
X157789523Y-88066476D01*
X157694285Y-88114095D01*
X157503809Y-88161714D01*
X157360952Y-88161714D01*
X157170476Y-88114095D01*
X157075238Y-88066476D01*
X156980000Y-87971238D01*
X156932380Y-87828380D01*
X156932380Y-87733142D01*
X156980000Y-87590285D01*
X157027619Y-87542666D01*
X157027619Y-87161714D02*
X156980000Y-87114095D01*
X156932380Y-87018857D01*
X156932380Y-86780761D01*
X156980000Y-86685523D01*
X157027619Y-86637904D01*
X157122857Y-86590285D01*
X157218095Y-86590285D01*
X157360952Y-86637904D01*
X157932380Y-87209333D01*
X157932380Y-86590285D01*
G04 #@! TO.C,C3*
X119467333Y-91035142D02*
X119419714Y-91082761D01*
X119276857Y-91130380D01*
X119181619Y-91130380D01*
X119038761Y-91082761D01*
X118943523Y-90987523D01*
X118895904Y-90892285D01*
X118848285Y-90701809D01*
X118848285Y-90558952D01*
X118895904Y-90368476D01*
X118943523Y-90273238D01*
X119038761Y-90178000D01*
X119181619Y-90130380D01*
X119276857Y-90130380D01*
X119419714Y-90178000D01*
X119467333Y-90225619D01*
X119800666Y-90130380D02*
X120419714Y-90130380D01*
X120086380Y-90511333D01*
X120229238Y-90511333D01*
X120324476Y-90558952D01*
X120372095Y-90606571D01*
X120419714Y-90701809D01*
X120419714Y-90939904D01*
X120372095Y-91035142D01*
X120324476Y-91082761D01*
X120229238Y-91130380D01*
X119943523Y-91130380D01*
X119848285Y-91082761D01*
X119800666Y-91035142D01*
G04 #@! TO.C,C4*
X137691857Y-90793133D02*
X137644238Y-90745514D01*
X137596619Y-90602657D01*
X137596619Y-90507419D01*
X137644238Y-90364561D01*
X137739476Y-90269323D01*
X137834714Y-90221704D01*
X138025190Y-90174085D01*
X138168047Y-90174085D01*
X138358523Y-90221704D01*
X138453761Y-90269323D01*
X138549000Y-90364561D01*
X138596619Y-90507419D01*
X138596619Y-90602657D01*
X138549000Y-90745514D01*
X138501380Y-90793133D01*
X138263285Y-91650276D02*
X137596619Y-91650276D01*
X138644238Y-91412180D02*
X137929952Y-91174085D01*
X137929952Y-91793133D01*
G04 #@! TO.C,TP1*
X132850095Y-95464380D02*
X133421523Y-95464380D01*
X133135809Y-96464380D02*
X133135809Y-95464380D01*
X133754857Y-96464380D02*
X133754857Y-95464380D01*
X134135809Y-95464380D01*
X134231047Y-95512000D01*
X134278666Y-95559619D01*
X134326285Y-95654857D01*
X134326285Y-95797714D01*
X134278666Y-95892952D01*
X134231047Y-95940571D01*
X134135809Y-95988190D01*
X133754857Y-95988190D01*
X135278666Y-96464380D02*
X134707238Y-96464380D01*
X134992952Y-96464380D02*
X134992952Y-95464380D01*
X134897714Y-95607238D01*
X134802476Y-95702476D01*
X134707238Y-95750095D01*
G04 #@! TO.C,TP2*
X140825356Y-95464380D02*
X141396784Y-95464380D01*
X141111070Y-96464380D02*
X141111070Y-95464380D01*
X141730118Y-96464380D02*
X141730118Y-95464380D01*
X142111070Y-95464380D01*
X142206308Y-95512000D01*
X142253927Y-95559619D01*
X142301546Y-95654857D01*
X142301546Y-95797714D01*
X142253927Y-95892952D01*
X142206308Y-95940571D01*
X142111070Y-95988190D01*
X141730118Y-95988190D01*
X142682499Y-95559619D02*
X142730118Y-95512000D01*
X142825356Y-95464380D01*
X143063451Y-95464380D01*
X143158689Y-95512000D01*
X143206308Y-95559619D01*
X143253927Y-95654857D01*
X143253927Y-95750095D01*
X143206308Y-95892952D01*
X142634880Y-96464380D01*
X143253927Y-96464380D01*
G04 #@! TO.C,TP3*
X124771878Y-95464380D02*
X125343306Y-95464380D01*
X125057592Y-96464380D02*
X125057592Y-95464380D01*
X125676640Y-96464380D02*
X125676640Y-95464380D01*
X126057592Y-95464380D01*
X126152830Y-95512000D01*
X126200449Y-95559619D01*
X126248068Y-95654857D01*
X126248068Y-95797714D01*
X126200449Y-95892952D01*
X126152830Y-95940571D01*
X126057592Y-95988190D01*
X125676640Y-95988190D01*
X126581402Y-95464380D02*
X127200449Y-95464380D01*
X126867116Y-95845333D01*
X127009973Y-95845333D01*
X127105211Y-95892952D01*
X127152830Y-95940571D01*
X127200449Y-96035809D01*
X127200449Y-96273904D01*
X127152830Y-96369142D01*
X127105211Y-96416761D01*
X127009973Y-96464380D01*
X126724259Y-96464380D01*
X126629021Y-96416761D01*
X126581402Y-96369142D01*
G04 #@! TO.C,TP4*
X148852095Y-95464380D02*
X149423523Y-95464380D01*
X149137809Y-96464380D02*
X149137809Y-95464380D01*
X149756857Y-96464380D02*
X149756857Y-95464380D01*
X150137809Y-95464380D01*
X150233047Y-95512000D01*
X150280666Y-95559619D01*
X150328285Y-95654857D01*
X150328285Y-95797714D01*
X150280666Y-95892952D01*
X150233047Y-95940571D01*
X150137809Y-95988190D01*
X149756857Y-95988190D01*
X151185428Y-95797714D02*
X151185428Y-96464380D01*
X150947333Y-95416761D02*
X150709238Y-96131047D01*
X151328285Y-96131047D01*
G04 #@! TO.C,U3*
X125349278Y-81435664D02*
X125349278Y-82245188D01*
X125396897Y-82340426D01*
X125444516Y-82388045D01*
X125539754Y-82435664D01*
X125730230Y-82435664D01*
X125825468Y-82388045D01*
X125873087Y-82340426D01*
X125920706Y-82245188D01*
X125920706Y-81435664D01*
X126301659Y-81435664D02*
X126920706Y-81435664D01*
X126587373Y-81816617D01*
X126730230Y-81816617D01*
X126825468Y-81864236D01*
X126873087Y-81911855D01*
X126920706Y-82007093D01*
X126920706Y-82245188D01*
X126873087Y-82340426D01*
X126825468Y-82388045D01*
X126730230Y-82435664D01*
X126444516Y-82435664D01*
X126349278Y-82388045D01*
X126301659Y-82340426D01*
G04 #@! TO.C,U4*
X149208695Y-81459380D02*
X149208695Y-82268904D01*
X149256314Y-82364142D01*
X149303933Y-82411761D01*
X149399171Y-82459380D01*
X149589647Y-82459380D01*
X149684885Y-82411761D01*
X149732504Y-82364142D01*
X149780123Y-82268904D01*
X149780123Y-81459380D01*
X150684885Y-81792714D02*
X150684885Y-82459380D01*
X150446790Y-81411761D02*
X150208695Y-82126047D01*
X150827742Y-82126047D01*
G04 #@! TO.C,J3*
D16*
X142922171Y-73276460D02*
X143357600Y-73276460D01*
X143444685Y-73305488D01*
X143502742Y-73363545D01*
X143531771Y-73450631D01*
X143531771Y-73508688D01*
X142922171Y-73044231D02*
X142922171Y-72666860D01*
X143154400Y-72870060D01*
X143154400Y-72782974D01*
X143183428Y-72724917D01*
X143212457Y-72695888D01*
X143270514Y-72666860D01*
X143415657Y-72666860D01*
X143473714Y-72695888D01*
X143502742Y-72724917D01*
X143531771Y-72782974D01*
X143531771Y-72957145D01*
X143502742Y-73015202D01*
X143473714Y-73044231D01*
X135432800Y-72411771D02*
X135432800Y-71802171D01*
X135665028Y-71802171D01*
X135723085Y-71831200D01*
X135752114Y-71860228D01*
X135781142Y-71918285D01*
X135781142Y-72005371D01*
X135752114Y-72063428D01*
X135723085Y-72092457D01*
X135665028Y-72121485D01*
X135432800Y-72121485D01*
X136158514Y-71802171D02*
X136274628Y-71802171D01*
X136332685Y-71831200D01*
X136390742Y-71889257D01*
X136419771Y-72005371D01*
X136419771Y-72208571D01*
X136390742Y-72324685D01*
X136332685Y-72382742D01*
X136274628Y-72411771D01*
X136158514Y-72411771D01*
X136100457Y-72382742D01*
X136042400Y-72324685D01*
X136013371Y-72208571D01*
X136013371Y-72005371D01*
X136042400Y-71889257D01*
X136100457Y-71831200D01*
X136158514Y-71802171D01*
X136622971Y-71802171D02*
X136768114Y-72411771D01*
X136884228Y-71976342D01*
X137000342Y-72411771D01*
X137145485Y-71802171D01*
X137377714Y-72092457D02*
X137580914Y-72092457D01*
X137668000Y-72411771D02*
X137377714Y-72411771D01*
X137377714Y-71802171D01*
X137668000Y-71802171D01*
X138277600Y-72411771D02*
X138074400Y-72121485D01*
X137929257Y-72411771D02*
X137929257Y-71802171D01*
X138161485Y-71802171D01*
X138219542Y-71831200D01*
X138248571Y-71860228D01*
X138277600Y-71918285D01*
X138277600Y-72005371D01*
X138248571Y-72063428D01*
X138219542Y-72092457D01*
X138161485Y-72121485D01*
X137929257Y-72121485D01*
X138393714Y-72469828D02*
X138858171Y-72469828D01*
X139177485Y-71802171D02*
X139177485Y-72237600D01*
X139148457Y-72324685D01*
X139090400Y-72382742D01*
X139003314Y-72411771D01*
X138945257Y-72411771D01*
X139438742Y-72237600D02*
X139729028Y-72237600D01*
X139380685Y-72411771D02*
X139583885Y-71802171D01*
X139787085Y-72411771D01*
X140338628Y-72353714D02*
X140309600Y-72382742D01*
X140222514Y-72411771D01*
X140164457Y-72411771D01*
X140077371Y-72382742D01*
X140019314Y-72324685D01*
X139990285Y-72266628D01*
X139961257Y-72150514D01*
X139961257Y-72063428D01*
X139990285Y-71947314D01*
X140019314Y-71889257D01*
X140077371Y-71831200D01*
X140164457Y-71802171D01*
X140222514Y-71802171D01*
X140309600Y-71831200D01*
X140338628Y-71860228D01*
X140599885Y-72411771D02*
X140599885Y-71802171D01*
X140948228Y-72411771D02*
X140686971Y-72063428D01*
X140948228Y-71802171D02*
X140599885Y-72150514D01*
G04 #@! TO.C,C5*
D13*
X138517333Y-125071142D02*
X138469714Y-125118761D01*
X138326857Y-125166380D01*
X138231619Y-125166380D01*
X138088761Y-125118761D01*
X137993523Y-125023523D01*
X137945904Y-124928285D01*
X137898285Y-124737809D01*
X137898285Y-124594952D01*
X137945904Y-124404476D01*
X137993523Y-124309238D01*
X138088761Y-124214000D01*
X138231619Y-124166380D01*
X138326857Y-124166380D01*
X138469714Y-124214000D01*
X138517333Y-124261619D01*
X139422095Y-124166380D02*
X138945904Y-124166380D01*
X138898285Y-124642571D01*
X138945904Y-124594952D01*
X139041142Y-124547333D01*
X139279238Y-124547333D01*
X139374476Y-124594952D01*
X139422095Y-124642571D01*
X139469714Y-124737809D01*
X139469714Y-124975904D01*
X139422095Y-125071142D01*
X139374476Y-125118761D01*
X139279238Y-125166380D01*
X139041142Y-125166380D01*
X138945904Y-125118761D01*
X138898285Y-125071142D01*
G04 #@! TO.C,C6*
X146391333Y-125071142D02*
X146343714Y-125118761D01*
X146200857Y-125166380D01*
X146105619Y-125166380D01*
X145962761Y-125118761D01*
X145867523Y-125023523D01*
X145819904Y-124928285D01*
X145772285Y-124737809D01*
X145772285Y-124594952D01*
X145819904Y-124404476D01*
X145867523Y-124309238D01*
X145962761Y-124214000D01*
X146105619Y-124166380D01*
X146200857Y-124166380D01*
X146343714Y-124214000D01*
X146391333Y-124261619D01*
X147248476Y-124166380D02*
X147058000Y-124166380D01*
X146962761Y-124214000D01*
X146915142Y-124261619D01*
X146819904Y-124404476D01*
X146772285Y-124594952D01*
X146772285Y-124975904D01*
X146819904Y-125071142D01*
X146867523Y-125118761D01*
X146962761Y-125166380D01*
X147153238Y-125166380D01*
X147248476Y-125118761D01*
X147296095Y-125071142D01*
X147343714Y-124975904D01*
X147343714Y-124737809D01*
X147296095Y-124642571D01*
X147248476Y-124594952D01*
X147153238Y-124547333D01*
X146962761Y-124547333D01*
X146867523Y-124594952D01*
X146819904Y-124642571D01*
X146772285Y-124737809D01*
G04 #@! TD*
M02*
