G04 #@! TF.GenerationSoftware,KiCad,Pcbnew,(5.0.0)*
G04 #@! TF.CreationDate,2018-10-18T19:20:22-07:00*
G04 #@! TF.ProjectId,Genesynth,47656E6573796E74682E6B696361645F,v0*
G04 #@! TF.SameCoordinates,Original*
G04 #@! TF.FileFunction,Copper,L1,Top,Signal*
G04 #@! TF.FilePolarity,Positive*
%FSLAX46Y46*%
G04 Gerber Fmt 4.6, Leading zero omitted, Abs format (unit mm)*
G04 Created by KiCad (PCBNEW (5.0.0)) date 10/18/18 19:20:22*
%MOMM*%
%LPD*%
G01*
G04 APERTURE LIST*
G04 #@! TA.AperFunction,ComponentPad*
%ADD10C,1.600000*%
G04 #@! TD*
G04 #@! TA.AperFunction,ComponentPad*
%ADD11O,1.600000X1.600000*%
G04 #@! TD*
G04 #@! TA.AperFunction,ComponentPad*
%ADD12R,1.700000X1.700000*%
G04 #@! TD*
G04 #@! TA.AperFunction,ComponentPad*
%ADD13O,1.700000X1.700000*%
G04 #@! TD*
G04 #@! TA.AperFunction,ComponentPad*
%ADD14R,1.600000X1.600000*%
G04 #@! TD*
G04 #@! TA.AperFunction,SMDPad,CuDef*
%ADD15R,1.500000X1.500000*%
G04 #@! TD*
G04 #@! TA.AperFunction,ComponentPad*
%ADD16R,1.905000X2.000000*%
G04 #@! TD*
G04 #@! TA.AperFunction,ComponentPad*
%ADD17O,1.905000X2.000000*%
G04 #@! TD*
G04 #@! TA.AperFunction,ComponentPad*
%ADD18C,4.318000*%
G04 #@! TD*
G04 #@! TA.AperFunction,Conductor*
%ADD19C,0.177800*%
G04 #@! TD*
G04 #@! TA.AperFunction,Conductor*
%ADD20C,0.508000*%
G04 #@! TD*
G04 #@! TA.AperFunction,Conductor*
%ADD21C,0.254000*%
G04 #@! TD*
G04 APERTURE END LIST*
D10*
G04 #@! TO.P,R1,1*
G04 #@! TO.N,YM_L_RAW*
X149860000Y-111760000D03*
D11*
G04 #@! TO.P,R1,2*
G04 #@! TO.N,GND*
X149860000Y-104140000D03*
G04 #@! TD*
D12*
G04 #@! TO.P,J1,1*
G04 #@! TO.N,+5VA*
X157357000Y-100584000D03*
D13*
G04 #@! TO.P,J1,2*
G04 #@! TO.N,GND*
X157357000Y-103124000D03*
G04 #@! TO.P,J1,3*
G04 #@! TO.N,YM_L_RAW*
X157357000Y-105664000D03*
G04 #@! TO.P,J1,4*
G04 #@! TO.N,GND*
X157357000Y-108204000D03*
G04 #@! TO.P,J1,5*
G04 #@! TO.N,YM_R_RAW*
X157357000Y-110744000D03*
G04 #@! TO.P,J1,6*
G04 #@! TO.N,GND*
X157357000Y-113284000D03*
G04 #@! TO.P,J1,7*
G04 #@! TO.N,N/C*
X157357000Y-115824000D03*
G04 #@! TD*
D11*
G04 #@! TO.P,R2,2*
G04 #@! TO.N,GND*
X153416000Y-108204000D03*
D10*
G04 #@! TO.P,R2,1*
G04 #@! TO.N,YM_R_RAW*
X153416000Y-115824000D03*
G04 #@! TD*
D14*
G04 #@! TO.P,U2,1*
G04 #@! TO.N,GND*
X143764000Y-105664000D03*
D11*
G04 #@! TO.P,U2,13*
G04 #@! TO.N,Net-(U2-Pad13)*
X115824000Y-120904000D03*
G04 #@! TO.P,U2,2*
G04 #@! TO.N,Data0*
X141224000Y-105664000D03*
G04 #@! TO.P,U2,14*
G04 #@! TO.N,YM_CS*
X118364000Y-120904000D03*
G04 #@! TO.P,U2,3*
G04 #@! TO.N,Data1*
X138684000Y-105664000D03*
G04 #@! TO.P,U2,15*
G04 #@! TO.N,YM_WR*
X120904000Y-120904000D03*
G04 #@! TO.P,U2,4*
G04 #@! TO.N,Data2*
X136144000Y-105664000D03*
G04 #@! TO.P,U2,16*
G04 #@! TO.N,YM_RD*
X123444000Y-120904000D03*
G04 #@! TO.P,U2,5*
G04 #@! TO.N,Data3*
X133604000Y-105664000D03*
G04 #@! TO.P,U2,17*
G04 #@! TO.N,YM_A0*
X125984000Y-120904000D03*
G04 #@! TO.P,U2,6*
G04 #@! TO.N,Data4*
X131064000Y-105664000D03*
G04 #@! TO.P,U2,18*
G04 #@! TO.N,YM_A1*
X128524000Y-120904000D03*
G04 #@! TO.P,U2,7*
G04 #@! TO.N,Data5*
X128524000Y-105664000D03*
G04 #@! TO.P,U2,19*
G04 #@! TO.N,GND*
X131064000Y-120904000D03*
G04 #@! TO.P,U2,8*
G04 #@! TO.N,Data6*
X125984000Y-105664000D03*
G04 #@! TO.P,U2,20*
G04 #@! TO.N,YM_R_RAW*
X133604000Y-120904000D03*
G04 #@! TO.P,U2,9*
G04 #@! TO.N,Data7*
X123444000Y-105664000D03*
G04 #@! TO.P,U2,21*
G04 #@! TO.N,YM_L_RAW*
X136144000Y-120904000D03*
G04 #@! TO.P,U2,10*
G04 #@! TO.N,Net-(U2-Pad10)*
X120904000Y-105664000D03*
G04 #@! TO.P,U2,22*
G04 #@! TO.N,+5VA*
X138684000Y-120904000D03*
G04 #@! TO.P,U2,11*
G04 #@! TO.N,YM_IC*
X118364000Y-105664000D03*
G04 #@! TO.P,U2,23*
G04 #@! TO.N,+5V*
X141224000Y-120904000D03*
G04 #@! TO.P,U2,12*
G04 #@! TO.N,GND*
X115824000Y-105664000D03*
G04 #@! TO.P,U2,24*
G04 #@! TO.N,YM_CLK*
X143764000Y-120904000D03*
G04 #@! TD*
D10*
G04 #@! TO.P,C1,1*
G04 #@! TO.N,+9V*
X133747583Y-89863284D03*
G04 #@! TO.P,C1,2*
G04 #@! TO.N,GND*
X133747583Y-84863284D03*
G04 #@! TD*
G04 #@! TO.P,C2,2*
G04 #@! TO.N,GND*
X157607000Y-84887000D03*
G04 #@! TO.P,C2,1*
G04 #@! TO.N,+9V*
X157607000Y-89887000D03*
G04 #@! TD*
D14*
G04 #@! TO.P,C3,1*
G04 #@! TO.N,+5V*
X116574783Y-86463284D03*
D10*
G04 #@! TO.P,C3,2*
G04 #@! TO.N,GND*
X116574783Y-88963284D03*
G04 #@! TD*
G04 #@! TO.P,C4,2*
G04 #@! TO.N,GND*
X139740000Y-87884000D03*
D14*
G04 #@! TO.P,C4,1*
G04 #@! TO.N,+5VA*
X142240000Y-87884000D03*
G04 #@! TD*
D12*
G04 #@! TO.P,J2,1*
G04 #@! TO.N,GND*
X89916000Y-115316000D03*
D13*
G04 #@! TO.P,J2,2*
G04 #@! TO.N,BUTTON_1*
X89916000Y-112776000D03*
G04 #@! TO.P,J2,3*
G04 #@! TO.N,BUTTON_2*
X89916000Y-110236000D03*
G04 #@! TO.P,J2,4*
G04 #@! TO.N,BUTTON_3*
X89916000Y-107696000D03*
G04 #@! TO.P,J2,5*
G04 #@! TO.N,BUTTON_4*
X89916000Y-105156000D03*
G04 #@! TO.P,J2,6*
G04 #@! TO.N,DISPLAY_CS*
X89916000Y-102616000D03*
G04 #@! TO.P,J2,7*
G04 #@! TO.N,DISPLAY_DC*
X89916000Y-100076000D03*
G04 #@! TO.P,J2,8*
G04 #@! TO.N,DISPLAY_RES*
X89916000Y-97536000D03*
G04 #@! TO.P,J2,9*
G04 #@! TO.N,DISPLAY_MOSI*
X89916000Y-94996000D03*
G04 #@! TO.P,J2,10*
G04 #@! TO.N,DISPLAY_CLK*
X89916000Y-92456000D03*
G04 #@! TO.P,J2,11*
G04 #@! TO.N,+5V*
X89916000Y-89916000D03*
G04 #@! TO.P,J2,12*
G04 #@! TO.N,GND*
X89916000Y-87376000D03*
G04 #@! TD*
D15*
G04 #@! TO.P,TP1,1*
G04 #@! TO.N,+9V*
X134060522Y-94107000D03*
G04 #@! TD*
G04 #@! TO.P,TP2,1*
G04 #@! TO.N,GND*
X142087261Y-94107000D03*
G04 #@! TD*
G04 #@! TO.P,TP3,1*
G04 #@! TO.N,+5V*
X126033783Y-94107000D03*
G04 #@! TD*
G04 #@! TO.P,TP4,1*
G04 #@! TO.N,+5VA*
X150114000Y-94107000D03*
G04 #@! TD*
D16*
G04 #@! TO.P,U3,1*
G04 #@! TO.N,GND*
X123571183Y-89863284D03*
D17*
G04 #@! TO.P,U3,2*
G04 #@! TO.N,+5V*
X126111183Y-89863284D03*
G04 #@! TO.P,U3,3*
G04 #@! TO.N,+9V*
X128651183Y-89863284D03*
G04 #@! TD*
G04 #@! TO.P,U4,3*
G04 #@! TO.N,+9V*
X152510600Y-89887000D03*
G04 #@! TO.P,U4,2*
G04 #@! TO.N,+5VA*
X149970600Y-89887000D03*
D16*
G04 #@! TO.P,U4,1*
G04 #@! TO.N,GND*
X147430600Y-89887000D03*
G04 #@! TD*
D10*
G04 #@! TO.P,U1,17*
G04 #@! TO.N,BUTTON_3*
X95631000Y-112014000D03*
G04 #@! TO.P,U1,18*
G04 #@! TO.N,BUTTON_2*
X95631000Y-114554000D03*
G04 #@! TO.P,U1,19*
G04 #@! TO.N,BUTTON_1*
X95631000Y-117094000D03*
G04 #@! TO.P,U1,20*
G04 #@! TO.N,YM_CS*
X95631000Y-119634000D03*
G04 #@! TO.P,U1,16*
G04 #@! TO.N,BUTTON_4*
X95631000Y-109474000D03*
G04 #@! TO.P,U1,15*
G04 #@! TO.N,Net-(U1-Pad15)*
X95631000Y-106934000D03*
G04 #@! TO.P,U1,14*
G04 #@! TO.N,Net-(U1-Pad14)*
X95631000Y-104394000D03*
G04 #@! TO.P,U1,21*
G04 #@! TO.N,YM_WR*
X95631000Y-122174000D03*
G04 #@! TO.P,U1,22*
G04 #@! TO.N,YM_RD*
X95631000Y-124714000D03*
G04 #@! TO.P,U1,23*
G04 #@! TO.N,YM_A0*
X95631000Y-127254000D03*
G04 #@! TO.P,U1,24*
G04 #@! TO.N,YM_A1*
X95631000Y-129794000D03*
G04 #@! TO.P,U1,30*
G04 #@! TO.N,YM_IC*
X110871000Y-129794000D03*
G04 #@! TO.P,U1,31*
G04 #@! TO.N,Net-(U1-Pad31)*
X110871000Y-127254000D03*
G04 #@! TO.P,U1,32*
G04 #@! TO.N,Net-(U1-Pad32)*
X110871000Y-124714000D03*
G04 #@! TO.P,U1,33*
G04 #@! TO.N,Net-(U1-Pad33)*
X110871000Y-122174000D03*
G04 #@! TO.P,U1,34*
G04 #@! TO.N,Net-(U1-Pad34)*
X110871000Y-119634000D03*
G04 #@! TO.P,U1,35*
G04 #@! TO.N,Net-(U1-Pad35)*
X110871000Y-117094000D03*
G04 #@! TO.P,U1,36*
G04 #@! TO.N,Net-(U1-Pad36)*
X110871000Y-114554000D03*
G04 #@! TO.P,U1,37*
G04 #@! TO.N,Net-(U1-Pad37)*
X110871000Y-112014000D03*
G04 #@! TO.P,U1,13*
G04 #@! TO.N,DISPLAY_MOSI*
X95631000Y-101854000D03*
G04 #@! TO.P,U1,12*
G04 #@! TO.N,DISPLAY_CS*
X95631000Y-99314000D03*
G04 #@! TO.P,U1,11*
G04 #@! TO.N,DISPLAY_DC*
X95631000Y-96774000D03*
G04 #@! TO.P,U1,10*
G04 #@! TO.N,DISPLAY_RES*
X95631000Y-94234000D03*
G04 #@! TO.P,U1,9*
G04 #@! TO.N,Net-(U1-Pad9)*
X95631000Y-91694000D03*
G04 #@! TO.P,U1,8*
G04 #@! TO.N,Net-(U1-Pad8)*
X95631000Y-89154000D03*
G04 #@! TO.P,U1,7*
G04 #@! TO.N,Net-(U1-Pad7)*
X95631000Y-86614000D03*
G04 #@! TO.P,U1,6*
G04 #@! TO.N,YM_CLK*
X95631000Y-84074000D03*
G04 #@! TO.P,U1,5*
G04 #@! TO.N,Net-(U1-Pad5)*
X95631000Y-81534000D03*
G04 #@! TO.P,U1,4*
G04 #@! TO.N,Net-(U1-Pad4)*
X95631000Y-78994000D03*
G04 #@! TO.P,U1,3*
G04 #@! TO.N,Net-(U1-Pad3)*
X95631000Y-76454000D03*
G04 #@! TO.P,U1,2*
G04 #@! TO.N,Net-(U1-Pad2)*
X95631000Y-73914000D03*
D14*
G04 #@! TO.P,U1,1*
G04 #@! TO.N,GND*
X95631000Y-71374000D03*
D10*
G04 #@! TO.P,U1,38*
G04 #@! TO.N,Net-(U1-Pad38)*
X110871000Y-109474000D03*
G04 #@! TO.P,U1,39*
G04 #@! TO.N,Net-(U1-Pad39)*
X110871000Y-106934000D03*
G04 #@! TO.P,U1,40*
G04 #@! TO.N,DISPLAY_CLK*
X110871000Y-104394000D03*
G04 #@! TO.P,U1,41*
G04 #@! TO.N,Data7*
X110871000Y-101854000D03*
G04 #@! TO.P,U1,42*
G04 #@! TO.N,Data6*
X110871000Y-99314000D03*
G04 #@! TO.P,U1,43*
G04 #@! TO.N,Data5*
X110871000Y-96774000D03*
G04 #@! TO.P,U1,44*
G04 #@! TO.N,Data4*
X110871000Y-94234000D03*
G04 #@! TO.P,U1,45*
G04 #@! TO.N,Data3*
X110871000Y-91694000D03*
G04 #@! TO.P,U1,46*
G04 #@! TO.N,Data2*
X110871000Y-89154000D03*
G04 #@! TO.P,U1,47*
G04 #@! TO.N,Data1*
X110871000Y-86614000D03*
G04 #@! TO.P,U1,48*
G04 #@! TO.N,Data0*
X110871000Y-84074000D03*
G04 #@! TO.P,U1,49*
G04 #@! TO.N,Net-(U1-Pad49)*
X110871000Y-81534000D03*
G04 #@! TO.P,U1,50*
G04 #@! TO.N,Net-(U1-Pad50)*
X110871000Y-78994000D03*
G04 #@! TO.P,U1,51*
G04 #@! TO.N,Net-(U1-Pad51)*
X110871000Y-76454000D03*
G04 #@! TO.P,U1,52*
G04 #@! TO.N,Net-(U1-Pad52)*
X110871000Y-73914000D03*
G04 #@! TO.P,U1,53*
G04 #@! TO.N,+5V*
X110871000Y-71374000D03*
G04 #@! TD*
D18*
G04 #@! TO.P,J3,GND*
G04 #@! TO.N,GND*
X138176000Y-75692000D03*
G04 #@! TO.P,J3,GNDB*
G04 #@! TO.N,Net-(J3-PadGNDB)*
X133477000Y-78691740D03*
G04 #@! TO.P,J3,PWR*
G04 #@! TO.N,+9V*
X138176000Y-81691480D03*
G04 #@! TD*
D10*
G04 #@! TO.P,C5,2*
G04 #@! TO.N,GND*
X136224000Y-124714000D03*
G04 #@! TO.P,C5,1*
G04 #@! TO.N,+5V*
X141224000Y-124714000D03*
G04 #@! TD*
G04 #@! TO.P,C6,1*
G04 #@! TO.N,+5VA*
X144018000Y-124714000D03*
G04 #@! TO.P,C6,2*
G04 #@! TO.N,GND*
X149018000Y-124714000D03*
G04 #@! TD*
D19*
G04 #@! TO.N,YM_IC*
X110871000Y-129794000D02*
X111937701Y-128727299D01*
X117564001Y-106463999D02*
X118364000Y-105664000D01*
X114757299Y-125907701D02*
X114757299Y-109270701D01*
X114757299Y-109270701D02*
X117564001Y-106463999D01*
X110871000Y-129794000D02*
X114757299Y-125907701D01*
D20*
G04 #@! TO.N,+9V*
X133747583Y-89863284D02*
X128651183Y-89863284D01*
X156475630Y-89887000D02*
X152510600Y-89887000D01*
X157607000Y-89887000D02*
X156475630Y-89887000D01*
X133747583Y-93794061D02*
X134060522Y-94107000D01*
X133747583Y-89863284D02*
X133747583Y-93794061D01*
X144362580Y-81691480D02*
X141229287Y-81691480D01*
X152510600Y-89839500D02*
X144362580Y-81691480D01*
X141229287Y-81691480D02*
X138176000Y-81691480D01*
X152510600Y-89887000D02*
X152510600Y-89839500D01*
X138176000Y-85434867D02*
X138176000Y-81691480D01*
X133747583Y-89863284D02*
X138176000Y-85434867D01*
G04 #@! TO.N,+5V*
X126111183Y-94029600D02*
X126033783Y-94107000D01*
X126111183Y-89863284D02*
X126111183Y-94029600D01*
X117882783Y-86463284D02*
X116574783Y-86463284D01*
X124219183Y-86463284D02*
X117882783Y-86463284D01*
X126111183Y-88355284D02*
X124219183Y-86463284D01*
X126111183Y-89863284D02*
X126111183Y-88355284D01*
X116574783Y-77077783D02*
X110871000Y-71374000D01*
X116574783Y-86463284D02*
X116574783Y-77077783D01*
X90765999Y-89066001D02*
X89916000Y-89916000D01*
X94485559Y-70142199D02*
X91197801Y-73429957D01*
X91197801Y-73429957D02*
X91197801Y-88634199D01*
X108507829Y-70142199D02*
X94485559Y-70142199D01*
X91197801Y-88634199D02*
X90765999Y-89066001D01*
X109739630Y-71374000D02*
X108507829Y-70142199D01*
X110871000Y-71374000D02*
X109739630Y-71374000D01*
X140424001Y-120104001D02*
X141224000Y-120904000D01*
X134912199Y-114592199D02*
X140424001Y-120104001D01*
X134912199Y-104243416D02*
X134912199Y-114592199D01*
X126033783Y-95365000D02*
X134912199Y-104243416D01*
X126033783Y-94107000D02*
X126033783Y-95365000D01*
G04 #@! TO.N,+5VA*
X149970600Y-93963600D02*
X150114000Y-94107000D01*
X149970600Y-89887000D02*
X149970600Y-93963600D01*
X151372000Y-94107000D02*
X150114000Y-94107000D01*
X157357000Y-100092000D02*
X151372000Y-94107000D01*
X143548000Y-87884000D02*
X142240000Y-87884000D01*
X148015100Y-87884000D02*
X143548000Y-87884000D01*
X149970600Y-89839500D02*
X148015100Y-87884000D01*
X149970600Y-89887000D02*
X149970600Y-89839500D01*
D19*
G04 #@! TO.N,YM_L_RAW*
X149860000Y-111760000D02*
X149860000Y-121163092D01*
X149860000Y-121163092D02*
X149854908Y-121163092D01*
X149854908Y-121163092D02*
X148336000Y-122682000D01*
X137922000Y-122682000D02*
X136144000Y-120904000D01*
X148336000Y-122682000D02*
X137922000Y-122682000D01*
X150659999Y-110960001D02*
X152691999Y-110960001D01*
X149860000Y-111760000D02*
X150659999Y-110960001D01*
X156507001Y-106513999D02*
X157357000Y-105664000D01*
X156507001Y-107144999D02*
X156507001Y-106513999D01*
X152691999Y-110960001D02*
X156507001Y-107144999D01*
G04 #@! TO.N,YM_R_RAW*
X152616001Y-116623999D02*
X152616001Y-118909999D01*
X153416000Y-115824000D02*
X152616001Y-116623999D01*
X152616001Y-118909999D02*
X148336000Y-123190000D01*
X135890000Y-123190000D02*
X133604000Y-120904000D01*
X148336000Y-123190000D02*
X135890000Y-123190000D01*
X156507001Y-111593999D02*
X157357000Y-110744000D01*
X154215999Y-113885001D02*
X156507001Y-111593999D01*
X154215999Y-115024001D02*
X154215999Y-113885001D01*
X153416000Y-115824000D02*
X154215999Y-115024001D01*
G04 #@! TO.N,BUTTON_1*
X91313000Y-112776000D02*
X89916000Y-112776000D01*
X95631000Y-117094000D02*
X91313000Y-112776000D01*
G04 #@! TO.N,BUTTON_2*
X91313000Y-110236000D02*
X89916000Y-110236000D01*
X95631000Y-114554000D02*
X91313000Y-110236000D01*
G04 #@! TO.N,BUTTON_3*
X91313000Y-107696000D02*
X89916000Y-107696000D01*
X95631000Y-112014000D02*
X91313000Y-107696000D01*
G04 #@! TO.N,BUTTON_4*
X91313000Y-105156000D02*
X89916000Y-105156000D01*
X95631000Y-109474000D02*
X91313000Y-105156000D01*
G04 #@! TO.N,DISPLAY_CS*
X93218000Y-99314000D02*
X89916000Y-102616000D01*
X95631000Y-99314000D02*
X93218000Y-99314000D01*
G04 #@! TO.N,DISPLAY_DC*
X93218000Y-96774000D02*
X89916000Y-100076000D01*
X95631000Y-96774000D02*
X93218000Y-96774000D01*
G04 #@! TO.N,DISPLAY_RES*
X93218000Y-94234000D02*
X89916000Y-97536000D01*
X95631000Y-94234000D02*
X93218000Y-94234000D01*
G04 #@! TO.N,DISPLAY_MOSI*
X88799299Y-96112701D02*
X89066001Y-95845999D01*
X88799299Y-103152017D02*
X88799299Y-96112701D01*
X89379983Y-103732701D02*
X88799299Y-103152017D01*
X89066001Y-95845999D02*
X89916000Y-94996000D01*
X92620929Y-103732701D02*
X89379983Y-103732701D01*
X94499630Y-101854000D02*
X92620929Y-103732701D01*
X95631000Y-101854000D02*
X94499630Y-101854000D01*
G04 #@! TO.N,DISPLAY_CLK*
X91118081Y-92456000D02*
X89916000Y-92456000D01*
X91829380Y-93167299D02*
X91118081Y-92456000D01*
X99644299Y-93167299D02*
X91829380Y-93167299D01*
X110871000Y-104394000D02*
X99644299Y-93167299D01*
G04 #@! TD*
D21*
G04 #@! TO.N,GND*
G36*
X155839259Y-69091974D02*
X155499000Y-69913431D01*
X155499000Y-70802569D01*
X155839259Y-71624026D01*
X156467974Y-72252741D01*
X157289431Y-72593000D01*
X158178569Y-72593000D01*
X159000026Y-72252741D01*
X159285000Y-71967767D01*
X159285001Y-128184234D01*
X159000026Y-127899259D01*
X158178569Y-127559000D01*
X157289431Y-127559000D01*
X156467974Y-127899259D01*
X155839259Y-128527974D01*
X155499000Y-129349431D01*
X155499000Y-130238569D01*
X155839259Y-131060026D01*
X156124233Y-131345000D01*
X91271767Y-131345000D01*
X91556741Y-131060026D01*
X91897000Y-130238569D01*
X91897000Y-129349431D01*
X91556741Y-128527974D01*
X90928026Y-127899259D01*
X90106569Y-127559000D01*
X89217431Y-127559000D01*
X88395974Y-127899259D01*
X88111000Y-128184233D01*
X88111000Y-115601750D01*
X88431000Y-115601750D01*
X88431000Y-116292310D01*
X88527673Y-116525699D01*
X88706302Y-116704327D01*
X88939691Y-116801000D01*
X89630250Y-116801000D01*
X89789000Y-116642250D01*
X89789000Y-115443000D01*
X90043000Y-115443000D01*
X90043000Y-116642250D01*
X90201750Y-116801000D01*
X90892309Y-116801000D01*
X91125698Y-116704327D01*
X91304327Y-116525699D01*
X91401000Y-116292310D01*
X91401000Y-115601750D01*
X91242250Y-115443000D01*
X90043000Y-115443000D01*
X89789000Y-115443000D01*
X88589750Y-115443000D01*
X88431000Y-115601750D01*
X88111000Y-115601750D01*
X88111000Y-103402293D01*
X88117400Y-103434468D01*
X88277396Y-103673919D01*
X88337841Y-103714308D01*
X88790714Y-104167181D01*
X88517161Y-104576582D01*
X88401908Y-105156000D01*
X88517161Y-105735418D01*
X88845375Y-106226625D01*
X89143761Y-106426000D01*
X88845375Y-106625375D01*
X88517161Y-107116582D01*
X88401908Y-107696000D01*
X88517161Y-108275418D01*
X88845375Y-108766625D01*
X89143761Y-108966000D01*
X88845375Y-109165375D01*
X88517161Y-109656582D01*
X88401908Y-110236000D01*
X88517161Y-110815418D01*
X88845375Y-111306625D01*
X89143761Y-111506000D01*
X88845375Y-111705375D01*
X88517161Y-112196582D01*
X88401908Y-112776000D01*
X88517161Y-113355418D01*
X88845375Y-113846625D01*
X88867033Y-113861096D01*
X88706302Y-113927673D01*
X88527673Y-114106301D01*
X88431000Y-114339690D01*
X88431000Y-115030250D01*
X88589750Y-115189000D01*
X89789000Y-115189000D01*
X89789000Y-115169000D01*
X90043000Y-115169000D01*
X90043000Y-115189000D01*
X91242250Y-115189000D01*
X91401000Y-115030250D01*
X91401000Y-114339690D01*
X91304327Y-114106301D01*
X91125698Y-113927673D01*
X90964967Y-113861096D01*
X90986625Y-113846625D01*
X91136129Y-113622877D01*
X94232850Y-116719598D01*
X94196000Y-116808561D01*
X94196000Y-117379439D01*
X94414466Y-117906862D01*
X94818138Y-118310534D01*
X94947216Y-118364000D01*
X94818138Y-118417466D01*
X94414466Y-118821138D01*
X94196000Y-119348561D01*
X94196000Y-119919439D01*
X94414466Y-120446862D01*
X94818138Y-120850534D01*
X94947216Y-120904000D01*
X94818138Y-120957466D01*
X94414466Y-121361138D01*
X94196000Y-121888561D01*
X94196000Y-122459439D01*
X94414466Y-122986862D01*
X94818138Y-123390534D01*
X94947216Y-123444000D01*
X94818138Y-123497466D01*
X94414466Y-123901138D01*
X94196000Y-124428561D01*
X94196000Y-124999439D01*
X94414466Y-125526862D01*
X94818138Y-125930534D01*
X94947216Y-125984000D01*
X94818138Y-126037466D01*
X94414466Y-126441138D01*
X94196000Y-126968561D01*
X94196000Y-127539439D01*
X94414466Y-128066862D01*
X94818138Y-128470534D01*
X94947216Y-128524000D01*
X94818138Y-128577466D01*
X94414466Y-128981138D01*
X94196000Y-129508561D01*
X94196000Y-130079439D01*
X94414466Y-130606862D01*
X94818138Y-131010534D01*
X95345561Y-131229000D01*
X95916439Y-131229000D01*
X96443862Y-131010534D01*
X96847534Y-130606862D01*
X97066000Y-130079439D01*
X97066000Y-129508561D01*
X96847534Y-128981138D01*
X96443862Y-128577466D01*
X96314784Y-128524000D01*
X96443862Y-128470534D01*
X96847534Y-128066862D01*
X97066000Y-127539439D01*
X97066000Y-126968561D01*
X96847534Y-126441138D01*
X96443862Y-126037466D01*
X96314784Y-125984000D01*
X96443862Y-125930534D01*
X96847534Y-125526862D01*
X97066000Y-124999439D01*
X97066000Y-124428561D01*
X96847534Y-123901138D01*
X96443862Y-123497466D01*
X96314784Y-123444000D01*
X96443862Y-123390534D01*
X96847534Y-122986862D01*
X97066000Y-122459439D01*
X97066000Y-121888561D01*
X96847534Y-121361138D01*
X96443862Y-120957466D01*
X96314784Y-120904000D01*
X96443862Y-120850534D01*
X96847534Y-120446862D01*
X97066000Y-119919439D01*
X97066000Y-119348561D01*
X96847534Y-118821138D01*
X96443862Y-118417466D01*
X96314784Y-118364000D01*
X96443862Y-118310534D01*
X96847534Y-117906862D01*
X97066000Y-117379439D01*
X97066000Y-116808561D01*
X96847534Y-116281138D01*
X96443862Y-115877466D01*
X96314784Y-115824000D01*
X96443862Y-115770534D01*
X96847534Y-115366862D01*
X97066000Y-114839439D01*
X97066000Y-114268561D01*
X96847534Y-113741138D01*
X96443862Y-113337466D01*
X96314784Y-113284000D01*
X96443862Y-113230534D01*
X96847534Y-112826862D01*
X97066000Y-112299439D01*
X97066000Y-111728561D01*
X96847534Y-111201138D01*
X96443862Y-110797466D01*
X96314784Y-110744000D01*
X96443862Y-110690534D01*
X96847534Y-110286862D01*
X97066000Y-109759439D01*
X97066000Y-109188561D01*
X96847534Y-108661138D01*
X96443862Y-108257466D01*
X96314784Y-108204000D01*
X96443862Y-108150534D01*
X96847534Y-107746862D01*
X97066000Y-107219439D01*
X97066000Y-106648561D01*
X96847534Y-106121138D01*
X96443862Y-105717466D01*
X96314784Y-105664000D01*
X96443862Y-105610534D01*
X96847534Y-105206862D01*
X97066000Y-104679439D01*
X97066000Y-104108561D01*
X96847534Y-103581138D01*
X96443862Y-103177466D01*
X96314784Y-103124000D01*
X96443862Y-103070534D01*
X96847534Y-102666862D01*
X97066000Y-102139439D01*
X97066000Y-101568561D01*
X96847534Y-101041138D01*
X96443862Y-100637466D01*
X96314784Y-100584000D01*
X96443862Y-100530534D01*
X96847534Y-100126862D01*
X97066000Y-99599439D01*
X97066000Y-99028561D01*
X96847534Y-98501138D01*
X96443862Y-98097466D01*
X96314784Y-98044000D01*
X96443862Y-97990534D01*
X96847534Y-97586862D01*
X97066000Y-97059439D01*
X97066000Y-96488561D01*
X96847534Y-95961138D01*
X96443862Y-95557466D01*
X96314784Y-95504000D01*
X96443862Y-95450534D01*
X96847534Y-95046862D01*
X97066000Y-94519439D01*
X97066000Y-93948561D01*
X97042240Y-93891199D01*
X99344451Y-93891199D01*
X109472849Y-104019599D01*
X109436000Y-104108561D01*
X109436000Y-104679439D01*
X109654466Y-105206862D01*
X110058138Y-105610534D01*
X110187216Y-105664000D01*
X110058138Y-105717466D01*
X109654466Y-106121138D01*
X109436000Y-106648561D01*
X109436000Y-107219439D01*
X109654466Y-107746862D01*
X110058138Y-108150534D01*
X110187216Y-108204000D01*
X110058138Y-108257466D01*
X109654466Y-108661138D01*
X109436000Y-109188561D01*
X109436000Y-109759439D01*
X109654466Y-110286862D01*
X110058138Y-110690534D01*
X110187216Y-110744000D01*
X110058138Y-110797466D01*
X109654466Y-111201138D01*
X109436000Y-111728561D01*
X109436000Y-112299439D01*
X109654466Y-112826862D01*
X110058138Y-113230534D01*
X110187216Y-113284000D01*
X110058138Y-113337466D01*
X109654466Y-113741138D01*
X109436000Y-114268561D01*
X109436000Y-114839439D01*
X109654466Y-115366862D01*
X110058138Y-115770534D01*
X110187216Y-115824000D01*
X110058138Y-115877466D01*
X109654466Y-116281138D01*
X109436000Y-116808561D01*
X109436000Y-117379439D01*
X109654466Y-117906862D01*
X110058138Y-118310534D01*
X110187216Y-118364000D01*
X110058138Y-118417466D01*
X109654466Y-118821138D01*
X109436000Y-119348561D01*
X109436000Y-119919439D01*
X109654466Y-120446862D01*
X110058138Y-120850534D01*
X110187216Y-120904000D01*
X110058138Y-120957466D01*
X109654466Y-121361138D01*
X109436000Y-121888561D01*
X109436000Y-122459439D01*
X109654466Y-122986862D01*
X110058138Y-123390534D01*
X110187216Y-123444000D01*
X110058138Y-123497466D01*
X109654466Y-123901138D01*
X109436000Y-124428561D01*
X109436000Y-124999439D01*
X109654466Y-125526862D01*
X110058138Y-125930534D01*
X110187216Y-125984000D01*
X110058138Y-126037466D01*
X109654466Y-126441138D01*
X109436000Y-126968561D01*
X109436000Y-127539439D01*
X109654466Y-128066862D01*
X110058138Y-128470534D01*
X110187216Y-128524000D01*
X110058138Y-128577466D01*
X109654466Y-128981138D01*
X109436000Y-129508561D01*
X109436000Y-130079439D01*
X109654466Y-130606862D01*
X110058138Y-131010534D01*
X110585561Y-131229000D01*
X111156439Y-131229000D01*
X111683862Y-131010534D01*
X112087534Y-130606862D01*
X112306000Y-130079439D01*
X112306000Y-129508561D01*
X112269150Y-129419598D01*
X112499990Y-129188759D01*
X112499991Y-129188758D01*
X115218762Y-126469988D01*
X115279201Y-126429604D01*
X115319586Y-126369164D01*
X115319589Y-126369161D01*
X115439198Y-126190153D01*
X115495381Y-125907701D01*
X115481199Y-125836403D01*
X115481199Y-125721745D01*
X135395861Y-125721745D01*
X135469995Y-125967864D01*
X136007223Y-126160965D01*
X136577454Y-126133778D01*
X136978005Y-125967864D01*
X137052139Y-125721745D01*
X136224000Y-124893605D01*
X135395861Y-125721745D01*
X115481199Y-125721745D01*
X115481199Y-124497223D01*
X134777035Y-124497223D01*
X134804222Y-125067454D01*
X134970136Y-125468005D01*
X135216255Y-125542139D01*
X136044395Y-124714000D01*
X135216255Y-123885861D01*
X134970136Y-123959995D01*
X134777035Y-124497223D01*
X115481199Y-124497223D01*
X115481199Y-122298925D01*
X115682667Y-122339000D01*
X115965333Y-122339000D01*
X116383909Y-122255740D01*
X116858577Y-121938577D01*
X117094000Y-121586242D01*
X117329423Y-121938577D01*
X117804091Y-122255740D01*
X118222667Y-122339000D01*
X118505333Y-122339000D01*
X118923909Y-122255740D01*
X119398577Y-121938577D01*
X119634000Y-121586242D01*
X119869423Y-121938577D01*
X120344091Y-122255740D01*
X120762667Y-122339000D01*
X121045333Y-122339000D01*
X121463909Y-122255740D01*
X121938577Y-121938577D01*
X122174000Y-121586242D01*
X122409423Y-121938577D01*
X122884091Y-122255740D01*
X123302667Y-122339000D01*
X123585333Y-122339000D01*
X124003909Y-122255740D01*
X124478577Y-121938577D01*
X124714000Y-121586242D01*
X124949423Y-121938577D01*
X125424091Y-122255740D01*
X125842667Y-122339000D01*
X126125333Y-122339000D01*
X126543909Y-122255740D01*
X127018577Y-121938577D01*
X127254000Y-121586242D01*
X127489423Y-121938577D01*
X127964091Y-122255740D01*
X128382667Y-122339000D01*
X128665333Y-122339000D01*
X129083909Y-122255740D01*
X129558577Y-121938577D01*
X129814947Y-121554892D01*
X129911611Y-121759134D01*
X130326577Y-122135041D01*
X130714961Y-122295904D01*
X130937000Y-122173915D01*
X130937000Y-121031000D01*
X130917000Y-121031000D01*
X130917000Y-120777000D01*
X130937000Y-120777000D01*
X130937000Y-119634085D01*
X130714961Y-119512096D01*
X130326577Y-119672959D01*
X129911611Y-120048866D01*
X129814947Y-120253108D01*
X129558577Y-119869423D01*
X129083909Y-119552260D01*
X128665333Y-119469000D01*
X128382667Y-119469000D01*
X127964091Y-119552260D01*
X127489423Y-119869423D01*
X127254000Y-120221758D01*
X127018577Y-119869423D01*
X126543909Y-119552260D01*
X126125333Y-119469000D01*
X125842667Y-119469000D01*
X125424091Y-119552260D01*
X124949423Y-119869423D01*
X124714000Y-120221758D01*
X124478577Y-119869423D01*
X124003909Y-119552260D01*
X123585333Y-119469000D01*
X123302667Y-119469000D01*
X122884091Y-119552260D01*
X122409423Y-119869423D01*
X122174000Y-120221758D01*
X121938577Y-119869423D01*
X121463909Y-119552260D01*
X121045333Y-119469000D01*
X120762667Y-119469000D01*
X120344091Y-119552260D01*
X119869423Y-119869423D01*
X119634000Y-120221758D01*
X119398577Y-119869423D01*
X118923909Y-119552260D01*
X118505333Y-119469000D01*
X118222667Y-119469000D01*
X117804091Y-119552260D01*
X117329423Y-119869423D01*
X117094000Y-120221758D01*
X116858577Y-119869423D01*
X116383909Y-119552260D01*
X115965333Y-119469000D01*
X115682667Y-119469000D01*
X115481199Y-119509075D01*
X115481199Y-109570549D01*
X117997531Y-107054218D01*
X118222667Y-107099000D01*
X118505333Y-107099000D01*
X118923909Y-107015740D01*
X119398577Y-106698577D01*
X119634000Y-106346242D01*
X119869423Y-106698577D01*
X120344091Y-107015740D01*
X120762667Y-107099000D01*
X121045333Y-107099000D01*
X121463909Y-107015740D01*
X121938577Y-106698577D01*
X122174000Y-106346242D01*
X122409423Y-106698577D01*
X122884091Y-107015740D01*
X123302667Y-107099000D01*
X123585333Y-107099000D01*
X124003909Y-107015740D01*
X124478577Y-106698577D01*
X124714000Y-106346242D01*
X124949423Y-106698577D01*
X125424091Y-107015740D01*
X125842667Y-107099000D01*
X126125333Y-107099000D01*
X126543909Y-107015740D01*
X127018577Y-106698577D01*
X127254000Y-106346242D01*
X127489423Y-106698577D01*
X127964091Y-107015740D01*
X128382667Y-107099000D01*
X128665333Y-107099000D01*
X129083909Y-107015740D01*
X129558577Y-106698577D01*
X129794000Y-106346242D01*
X130029423Y-106698577D01*
X130504091Y-107015740D01*
X130922667Y-107099000D01*
X131205333Y-107099000D01*
X131623909Y-107015740D01*
X132098577Y-106698577D01*
X132334000Y-106346242D01*
X132569423Y-106698577D01*
X133044091Y-107015740D01*
X133462667Y-107099000D01*
X133745333Y-107099000D01*
X134023199Y-107043729D01*
X134023200Y-114504640D01*
X134005783Y-114592199D01*
X134074781Y-114939069D01*
X134179170Y-115095298D01*
X134271267Y-115233132D01*
X134345493Y-115282728D01*
X138533573Y-119470809D01*
X138124091Y-119552260D01*
X137649423Y-119869423D01*
X137414000Y-120221758D01*
X137178577Y-119869423D01*
X136703909Y-119552260D01*
X136285333Y-119469000D01*
X136002667Y-119469000D01*
X135584091Y-119552260D01*
X135109423Y-119869423D01*
X134874000Y-120221758D01*
X134638577Y-119869423D01*
X134163909Y-119552260D01*
X133745333Y-119469000D01*
X133462667Y-119469000D01*
X133044091Y-119552260D01*
X132569423Y-119869423D01*
X132313053Y-120253108D01*
X132216389Y-120048866D01*
X131801423Y-119672959D01*
X131413039Y-119512096D01*
X131191000Y-119634085D01*
X131191000Y-120777000D01*
X131211000Y-120777000D01*
X131211000Y-121031000D01*
X131191000Y-121031000D01*
X131191000Y-122173915D01*
X131413039Y-122295904D01*
X131801423Y-122135041D01*
X132216389Y-121759134D01*
X132313053Y-121554892D01*
X132569423Y-121938577D01*
X133044091Y-122255740D01*
X133462667Y-122339000D01*
X133745333Y-122339000D01*
X133970469Y-122294218D01*
X135327709Y-123651458D01*
X135368097Y-123711903D01*
X135468789Y-123779184D01*
X136224000Y-124534395D01*
X136238142Y-124520252D01*
X136417748Y-124699858D01*
X136403605Y-124714000D01*
X137231745Y-125542139D01*
X137477864Y-125468005D01*
X137670965Y-124930777D01*
X137643778Y-124360546D01*
X137477864Y-123959995D01*
X137324832Y-123913900D01*
X140002180Y-123913900D01*
X139789000Y-124428561D01*
X139789000Y-124999439D01*
X140007466Y-125526862D01*
X140411138Y-125930534D01*
X140938561Y-126149000D01*
X141509439Y-126149000D01*
X142036862Y-125930534D01*
X142440534Y-125526862D01*
X142621000Y-125091179D01*
X142801466Y-125526862D01*
X143205138Y-125930534D01*
X143732561Y-126149000D01*
X144303439Y-126149000D01*
X144830862Y-125930534D01*
X145039651Y-125721745D01*
X148189861Y-125721745D01*
X148263995Y-125967864D01*
X148801223Y-126160965D01*
X149371454Y-126133778D01*
X149772005Y-125967864D01*
X149846139Y-125721745D01*
X149018000Y-124893605D01*
X148189861Y-125721745D01*
X145039651Y-125721745D01*
X145234534Y-125526862D01*
X145453000Y-124999439D01*
X145453000Y-124428561D01*
X145239820Y-123913900D01*
X147917168Y-123913900D01*
X147764136Y-123959995D01*
X147571035Y-124497223D01*
X147598222Y-125067454D01*
X147764136Y-125468005D01*
X148010255Y-125542139D01*
X148838395Y-124714000D01*
X149197605Y-124714000D01*
X150025745Y-125542139D01*
X150271864Y-125468005D01*
X150464965Y-124930777D01*
X150437778Y-124360546D01*
X150271864Y-123959995D01*
X150025745Y-123885861D01*
X149197605Y-124714000D01*
X148838395Y-124714000D01*
X148824252Y-124699858D01*
X149003858Y-124520253D01*
X149018000Y-124534395D01*
X149846139Y-123706255D01*
X149772005Y-123460136D01*
X149270039Y-123279709D01*
X153077459Y-119472290D01*
X153137904Y-119431902D01*
X153297900Y-119192451D01*
X153339901Y-118981297D01*
X153339901Y-118981293D01*
X153354082Y-118910000D01*
X153339901Y-118838707D01*
X153339901Y-117259000D01*
X153701439Y-117259000D01*
X154228862Y-117040534D01*
X154632534Y-116636862D01*
X154851000Y-116109439D01*
X154851000Y-115824000D01*
X155842908Y-115824000D01*
X155958161Y-116403418D01*
X156286375Y-116894625D01*
X156777582Y-117222839D01*
X157210744Y-117309000D01*
X157503256Y-117309000D01*
X157936418Y-117222839D01*
X158427625Y-116894625D01*
X158755839Y-116403418D01*
X158871092Y-115824000D01*
X158755839Y-115244582D01*
X158427625Y-114753375D01*
X158108522Y-114540157D01*
X158238358Y-114479183D01*
X158628645Y-114050924D01*
X158798476Y-113640890D01*
X158677155Y-113411000D01*
X157484000Y-113411000D01*
X157484000Y-113431000D01*
X157230000Y-113431000D01*
X157230000Y-113411000D01*
X156036845Y-113411000D01*
X155915524Y-113640890D01*
X156085355Y-114050924D01*
X156475642Y-114479183D01*
X156605478Y-114540157D01*
X156286375Y-114753375D01*
X155958161Y-115244582D01*
X155842908Y-115824000D01*
X154851000Y-115824000D01*
X154851000Y-115538561D01*
X154809597Y-115438605D01*
X154897898Y-115306453D01*
X154939899Y-115095299D01*
X154939899Y-115095295D01*
X154954080Y-115024002D01*
X154939899Y-114952709D01*
X154939899Y-114184849D01*
X156012977Y-113111772D01*
X156036845Y-113157000D01*
X157230000Y-113157000D01*
X157230000Y-113137000D01*
X157484000Y-113137000D01*
X157484000Y-113157000D01*
X158677155Y-113157000D01*
X158798476Y-112927110D01*
X158628645Y-112517076D01*
X158238358Y-112088817D01*
X158108522Y-112027843D01*
X158427625Y-111814625D01*
X158755839Y-111323418D01*
X158871092Y-110744000D01*
X158755839Y-110164582D01*
X158427625Y-109673375D01*
X158108522Y-109460157D01*
X158238358Y-109399183D01*
X158628645Y-108970924D01*
X158798476Y-108560890D01*
X158677155Y-108331000D01*
X157484000Y-108331000D01*
X157484000Y-108351000D01*
X157230000Y-108351000D01*
X157230000Y-108331000D01*
X157210000Y-108331000D01*
X157210000Y-108077000D01*
X157230000Y-108077000D01*
X157230000Y-108057000D01*
X157484000Y-108057000D01*
X157484000Y-108077000D01*
X158677155Y-108077000D01*
X158798476Y-107847110D01*
X158628645Y-107437076D01*
X158238358Y-107008817D01*
X158108522Y-106947843D01*
X158427625Y-106734625D01*
X158755839Y-106243418D01*
X158871092Y-105664000D01*
X158755839Y-105084582D01*
X158427625Y-104593375D01*
X158108522Y-104380157D01*
X158238358Y-104319183D01*
X158628645Y-103890924D01*
X158798476Y-103480890D01*
X158677155Y-103251000D01*
X157484000Y-103251000D01*
X157484000Y-103271000D01*
X157230000Y-103271000D01*
X157230000Y-103251000D01*
X156036845Y-103251000D01*
X155915524Y-103480890D01*
X156085355Y-103890924D01*
X156475642Y-104319183D01*
X156605478Y-104380157D01*
X156286375Y-104593375D01*
X155958161Y-105084582D01*
X155842908Y-105664000D01*
X155925818Y-106080816D01*
X155825102Y-106231547D01*
X155825102Y-106231548D01*
X155768919Y-106513999D01*
X155783101Y-106585297D01*
X155783101Y-106845150D01*
X154796792Y-107831459D01*
X154568389Y-107348866D01*
X154153423Y-106972959D01*
X153765039Y-106812096D01*
X153543000Y-106934085D01*
X153543000Y-108077000D01*
X153563000Y-108077000D01*
X153563000Y-108331000D01*
X153543000Y-108331000D01*
X153543000Y-108351000D01*
X153289000Y-108351000D01*
X153289000Y-108331000D01*
X152145371Y-108331000D01*
X152024086Y-108553041D01*
X152263611Y-109059134D01*
X152678577Y-109435041D01*
X153042485Y-109585767D01*
X152392151Y-110236101D01*
X150731291Y-110236101D01*
X150659998Y-110221920D01*
X150588705Y-110236101D01*
X150588701Y-110236101D01*
X150377547Y-110278102D01*
X150245395Y-110366403D01*
X150145439Y-110325000D01*
X149574561Y-110325000D01*
X149047138Y-110543466D01*
X148643466Y-110947138D01*
X148425000Y-111474561D01*
X148425000Y-112045439D01*
X148643466Y-112572862D01*
X149047138Y-112976534D01*
X149136100Y-113013383D01*
X149136101Y-120858150D01*
X148036152Y-121958100D01*
X144769359Y-121958100D01*
X144798577Y-121938577D01*
X145115740Y-121463909D01*
X145227113Y-120904000D01*
X145115740Y-120344091D01*
X144798577Y-119869423D01*
X144323909Y-119552260D01*
X143905333Y-119469000D01*
X143622667Y-119469000D01*
X143204091Y-119552260D01*
X142729423Y-119869423D01*
X142494000Y-120221758D01*
X142258577Y-119869423D01*
X141783909Y-119552260D01*
X141365333Y-119469000D01*
X141082667Y-119469000D01*
X141052280Y-119475044D01*
X135801199Y-114223964D01*
X135801199Y-107854959D01*
X152024086Y-107854959D01*
X152145371Y-108077000D01*
X153289000Y-108077000D01*
X153289000Y-106934085D01*
X153066961Y-106812096D01*
X152678577Y-106972959D01*
X152263611Y-107348866D01*
X152024086Y-107854959D01*
X135801199Y-107854959D01*
X135801199Y-107058925D01*
X136002667Y-107099000D01*
X136285333Y-107099000D01*
X136703909Y-107015740D01*
X137178577Y-106698577D01*
X137414000Y-106346242D01*
X137649423Y-106698577D01*
X138124091Y-107015740D01*
X138542667Y-107099000D01*
X138825333Y-107099000D01*
X139243909Y-107015740D01*
X139718577Y-106698577D01*
X139954000Y-106346242D01*
X140189423Y-106698577D01*
X140664091Y-107015740D01*
X141082667Y-107099000D01*
X141365333Y-107099000D01*
X141783909Y-107015740D01*
X142258577Y-106698577D01*
X142329735Y-106592082D01*
X142425673Y-106823698D01*
X142604301Y-107002327D01*
X142837690Y-107099000D01*
X143478250Y-107099000D01*
X143637000Y-106940250D01*
X143637000Y-105791000D01*
X143891000Y-105791000D01*
X143891000Y-106940250D01*
X144049750Y-107099000D01*
X144690310Y-107099000D01*
X144923699Y-107002327D01*
X145102327Y-106823698D01*
X145199000Y-106590309D01*
X145199000Y-105949750D01*
X145040250Y-105791000D01*
X143891000Y-105791000D01*
X143637000Y-105791000D01*
X143617000Y-105791000D01*
X143617000Y-105537000D01*
X143637000Y-105537000D01*
X143637000Y-104387750D01*
X143891000Y-104387750D01*
X143891000Y-105537000D01*
X145040250Y-105537000D01*
X145199000Y-105378250D01*
X145199000Y-104737691D01*
X145102327Y-104504302D01*
X145087067Y-104489041D01*
X148468086Y-104489041D01*
X148707611Y-104995134D01*
X149122577Y-105371041D01*
X149510961Y-105531904D01*
X149733000Y-105409915D01*
X149733000Y-104267000D01*
X149987000Y-104267000D01*
X149987000Y-105409915D01*
X150209039Y-105531904D01*
X150597423Y-105371041D01*
X151012389Y-104995134D01*
X151251914Y-104489041D01*
X151130629Y-104267000D01*
X149987000Y-104267000D01*
X149733000Y-104267000D01*
X148589371Y-104267000D01*
X148468086Y-104489041D01*
X145087067Y-104489041D01*
X144923699Y-104325673D01*
X144690310Y-104229000D01*
X144049750Y-104229000D01*
X143891000Y-104387750D01*
X143637000Y-104387750D01*
X143478250Y-104229000D01*
X142837690Y-104229000D01*
X142604301Y-104325673D01*
X142425673Y-104504302D01*
X142329735Y-104735918D01*
X142258577Y-104629423D01*
X141783909Y-104312260D01*
X141365333Y-104229000D01*
X141082667Y-104229000D01*
X140664091Y-104312260D01*
X140189423Y-104629423D01*
X139954000Y-104981758D01*
X139718577Y-104629423D01*
X139243909Y-104312260D01*
X138825333Y-104229000D01*
X138542667Y-104229000D01*
X138124091Y-104312260D01*
X137649423Y-104629423D01*
X137414000Y-104981758D01*
X137178577Y-104629423D01*
X136703909Y-104312260D01*
X136285333Y-104229000D01*
X136002667Y-104229000D01*
X135814017Y-104266525D01*
X135818614Y-104243415D01*
X135801199Y-104155864D01*
X135801199Y-104155860D01*
X135749618Y-103896546D01*
X135679068Y-103790959D01*
X148468086Y-103790959D01*
X148589371Y-104013000D01*
X149733000Y-104013000D01*
X149733000Y-102870085D01*
X149987000Y-102870085D01*
X149987000Y-104013000D01*
X151130629Y-104013000D01*
X151251914Y-103790959D01*
X151012389Y-103284866D01*
X150597423Y-102908959D01*
X150209039Y-102748096D01*
X149987000Y-102870085D01*
X149733000Y-102870085D01*
X149510961Y-102748096D01*
X149122577Y-102908959D01*
X148707611Y-103284866D01*
X148468086Y-103790959D01*
X135679068Y-103790959D01*
X135553132Y-103602483D01*
X135478906Y-103552887D01*
X127241133Y-95315115D01*
X127241592Y-95314809D01*
X127381940Y-95104765D01*
X127431223Y-94857000D01*
X127431223Y-93357000D01*
X127381940Y-93109235D01*
X127241592Y-92899191D01*
X127031548Y-92758843D01*
X127000183Y-92752604D01*
X127000183Y-91226042D01*
X127255706Y-91055307D01*
X127381183Y-90867517D01*
X127506660Y-91055307D01*
X128031773Y-91406175D01*
X128651183Y-91529384D01*
X129270594Y-91406175D01*
X129795706Y-91055307D01*
X129998179Y-90752284D01*
X132607187Y-90752284D01*
X132858583Y-91003680D01*
X132858584Y-92895268D01*
X132852713Y-92899191D01*
X132712365Y-93109235D01*
X132663082Y-93357000D01*
X132663082Y-94857000D01*
X132712365Y-95104765D01*
X132852713Y-95314809D01*
X133062757Y-95455157D01*
X133310522Y-95504440D01*
X134810522Y-95504440D01*
X135058287Y-95455157D01*
X135268331Y-95314809D01*
X135408679Y-95104765D01*
X135457962Y-94857000D01*
X135457962Y-94392750D01*
X140702261Y-94392750D01*
X140702261Y-94983310D01*
X140798934Y-95216699D01*
X140977563Y-95395327D01*
X141210952Y-95492000D01*
X141801511Y-95492000D01*
X141960261Y-95333250D01*
X141960261Y-94234000D01*
X142214261Y-94234000D01*
X142214261Y-95333250D01*
X142373011Y-95492000D01*
X142963570Y-95492000D01*
X143196959Y-95395327D01*
X143375588Y-95216699D01*
X143472261Y-94983310D01*
X143472261Y-94392750D01*
X143313511Y-94234000D01*
X142214261Y-94234000D01*
X141960261Y-94234000D01*
X140861011Y-94234000D01*
X140702261Y-94392750D01*
X135457962Y-94392750D01*
X135457962Y-93357000D01*
X135432838Y-93230690D01*
X140702261Y-93230690D01*
X140702261Y-93821250D01*
X140861011Y-93980000D01*
X141960261Y-93980000D01*
X141960261Y-92880750D01*
X142214261Y-92880750D01*
X142214261Y-93980000D01*
X143313511Y-93980000D01*
X143472261Y-93821250D01*
X143472261Y-93230690D01*
X143375588Y-92997301D01*
X143196959Y-92818673D01*
X142963570Y-92722000D01*
X142373011Y-92722000D01*
X142214261Y-92880750D01*
X141960261Y-92880750D01*
X141801511Y-92722000D01*
X141210952Y-92722000D01*
X140977563Y-92818673D01*
X140798934Y-92997301D01*
X140702261Y-93230690D01*
X135432838Y-93230690D01*
X135408679Y-93109235D01*
X135268331Y-92899191D01*
X135058287Y-92758843D01*
X134810522Y-92709560D01*
X134636583Y-92709560D01*
X134636583Y-91003680D01*
X134964117Y-90676146D01*
X135172630Y-90172750D01*
X145843100Y-90172750D01*
X145843100Y-91013310D01*
X145939773Y-91246699D01*
X146118402Y-91425327D01*
X146351791Y-91522000D01*
X147144850Y-91522000D01*
X147303600Y-91363250D01*
X147303600Y-90014000D01*
X146001850Y-90014000D01*
X145843100Y-90172750D01*
X135172630Y-90172750D01*
X135182583Y-90148723D01*
X135182583Y-89685519D01*
X135976357Y-88891745D01*
X138911861Y-88891745D01*
X138985995Y-89137864D01*
X139523223Y-89330965D01*
X140093454Y-89303778D01*
X140494005Y-89137864D01*
X140568139Y-88891745D01*
X139740000Y-88063605D01*
X138911861Y-88891745D01*
X135976357Y-88891745D01*
X137200879Y-87667223D01*
X138293035Y-87667223D01*
X138320222Y-88237454D01*
X138486136Y-88638005D01*
X138732255Y-88712139D01*
X139560395Y-87884000D01*
X138732255Y-87055861D01*
X138486136Y-87129995D01*
X138293035Y-87667223D01*
X137200879Y-87667223D01*
X137991847Y-86876255D01*
X138911861Y-86876255D01*
X139740000Y-87704395D01*
X140568139Y-86876255D01*
X140494005Y-86630136D01*
X139956777Y-86437035D01*
X139386546Y-86464222D01*
X138985995Y-86630136D01*
X138911861Y-86876255D01*
X137991847Y-86876255D01*
X138742707Y-86125396D01*
X138816933Y-86075800D01*
X139013419Y-85781737D01*
X139065000Y-85522423D01*
X139065000Y-85522419D01*
X139082415Y-85434868D01*
X139065000Y-85347317D01*
X139065000Y-84347448D01*
X139758674Y-84060119D01*
X140544639Y-83274154D01*
X140831968Y-82580480D01*
X143994345Y-82580480D01*
X149690483Y-88276619D01*
X149669190Y-88280854D01*
X148705631Y-87317296D01*
X148656033Y-87243067D01*
X148361970Y-87046581D01*
X148102656Y-86995000D01*
X148102655Y-86995000D01*
X148015100Y-86977584D01*
X147927545Y-86995000D01*
X143669737Y-86995000D01*
X143638157Y-86836235D01*
X143497809Y-86626191D01*
X143287765Y-86485843D01*
X143040000Y-86436560D01*
X141440000Y-86436560D01*
X141192235Y-86485843D01*
X140982191Y-86626191D01*
X140841843Y-86836235D01*
X140795307Y-87070187D01*
X140747745Y-87055861D01*
X139919605Y-87884000D01*
X140747745Y-88712139D01*
X140795307Y-88697813D01*
X140841843Y-88931765D01*
X140982191Y-89141809D01*
X141192235Y-89282157D01*
X141440000Y-89331440D01*
X143040000Y-89331440D01*
X143287765Y-89282157D01*
X143497809Y-89141809D01*
X143638157Y-88931765D01*
X143669737Y-88773000D01*
X145843100Y-88773000D01*
X145843100Y-89601250D01*
X146001850Y-89760000D01*
X147303600Y-89760000D01*
X147303600Y-89740000D01*
X147557600Y-89740000D01*
X147557600Y-89760000D01*
X147577600Y-89760000D01*
X147577600Y-90014000D01*
X147557600Y-90014000D01*
X147557600Y-91363250D01*
X147716350Y-91522000D01*
X148509409Y-91522000D01*
X148742798Y-91425327D01*
X148921427Y-91246699D01*
X148955156Y-91165270D01*
X149081600Y-91249758D01*
X149081601Y-92781985D01*
X148906191Y-92899191D01*
X148765843Y-93109235D01*
X148716560Y-93357000D01*
X148716560Y-94857000D01*
X148765843Y-95104765D01*
X148906191Y-95314809D01*
X149116235Y-95455157D01*
X149364000Y-95504440D01*
X150864000Y-95504440D01*
X151111765Y-95455157D01*
X151321809Y-95314809D01*
X151322115Y-95314350D01*
X155859560Y-99851796D01*
X155859560Y-101434000D01*
X155908843Y-101681765D01*
X156049191Y-101891809D01*
X156259235Y-102032157D01*
X156362708Y-102052739D01*
X156085355Y-102357076D01*
X155915524Y-102767110D01*
X156036845Y-102997000D01*
X157230000Y-102997000D01*
X157230000Y-102977000D01*
X157484000Y-102977000D01*
X157484000Y-102997000D01*
X158677155Y-102997000D01*
X158798476Y-102767110D01*
X158628645Y-102357076D01*
X158351292Y-102052739D01*
X158454765Y-102032157D01*
X158664809Y-101891809D01*
X158805157Y-101681765D01*
X158854440Y-101434000D01*
X158854440Y-99734000D01*
X158805157Y-99486235D01*
X158664809Y-99276191D01*
X158454765Y-99135843D01*
X158207000Y-99086560D01*
X157608796Y-99086560D01*
X152062531Y-93540296D01*
X152012933Y-93466067D01*
X151718870Y-93269581D01*
X151484790Y-93223019D01*
X151462157Y-93109235D01*
X151321809Y-92899191D01*
X151111765Y-92758843D01*
X150864000Y-92709560D01*
X150859600Y-92709560D01*
X150859600Y-91249758D01*
X151115123Y-91079023D01*
X151240600Y-90891233D01*
X151366077Y-91079023D01*
X151891190Y-91429891D01*
X152510600Y-91553100D01*
X153130011Y-91429891D01*
X153655123Y-91079023D01*
X153857596Y-90776000D01*
X156466604Y-90776000D01*
X156794138Y-91103534D01*
X157321561Y-91322000D01*
X157892439Y-91322000D01*
X158419862Y-91103534D01*
X158823534Y-90699862D01*
X159042000Y-90172439D01*
X159042000Y-89601561D01*
X158823534Y-89074138D01*
X158419862Y-88670466D01*
X157892439Y-88452000D01*
X157321561Y-88452000D01*
X156794138Y-88670466D01*
X156466604Y-88998000D01*
X153857596Y-88998000D01*
X153655123Y-88694977D01*
X153130010Y-88344109D01*
X152510600Y-88220900D01*
X152209190Y-88280854D01*
X149823081Y-85894745D01*
X156778861Y-85894745D01*
X156852995Y-86140864D01*
X157390223Y-86333965D01*
X157960454Y-86306778D01*
X158361005Y-86140864D01*
X158435139Y-85894745D01*
X157607000Y-85066605D01*
X156778861Y-85894745D01*
X149823081Y-85894745D01*
X148598559Y-84670223D01*
X156160035Y-84670223D01*
X156187222Y-85240454D01*
X156353136Y-85641005D01*
X156599255Y-85715139D01*
X157427395Y-84887000D01*
X157786605Y-84887000D01*
X158614745Y-85715139D01*
X158860864Y-85641005D01*
X159053965Y-85103777D01*
X159026778Y-84533546D01*
X158860864Y-84132995D01*
X158614745Y-84058861D01*
X157786605Y-84887000D01*
X157427395Y-84887000D01*
X156599255Y-84058861D01*
X156353136Y-84132995D01*
X156160035Y-84670223D01*
X148598559Y-84670223D01*
X147807591Y-83879255D01*
X156778861Y-83879255D01*
X157607000Y-84707395D01*
X158435139Y-83879255D01*
X158361005Y-83633136D01*
X157823777Y-83440035D01*
X157253546Y-83467222D01*
X156852995Y-83633136D01*
X156778861Y-83879255D01*
X147807591Y-83879255D01*
X145053111Y-81124776D01*
X145003513Y-81050547D01*
X144709450Y-80854061D01*
X144450136Y-80802480D01*
X144450135Y-80802480D01*
X144362580Y-80785064D01*
X144275025Y-80802480D01*
X140831968Y-80802480D01*
X140544639Y-80108806D01*
X139758674Y-79322841D01*
X138731761Y-78897480D01*
X137620239Y-78897480D01*
X136593326Y-79322841D01*
X135989808Y-79926359D01*
X136271000Y-79247501D01*
X136271000Y-78135979D01*
X136082869Y-77681790D01*
X136365815Y-77681790D01*
X136605963Y-78069035D01*
X137635127Y-78488921D01*
X138746634Y-78483001D01*
X139746037Y-78069035D01*
X139986185Y-77681790D01*
X138176000Y-75871605D01*
X136365815Y-77681790D01*
X136082869Y-77681790D01*
X135947037Y-77353863D01*
X136186210Y-77502185D01*
X137996395Y-75692000D01*
X138355605Y-75692000D01*
X140165790Y-77502185D01*
X140553035Y-77262037D01*
X140972921Y-76232873D01*
X140967001Y-75121366D01*
X140553035Y-74121963D01*
X140165790Y-73881815D01*
X138355605Y-75692000D01*
X137996395Y-75692000D01*
X136186210Y-73881815D01*
X135798965Y-74121963D01*
X135379079Y-75151127D01*
X135384999Y-76262634D01*
X135657795Y-76921222D01*
X135059674Y-76323101D01*
X134032761Y-75897740D01*
X132921239Y-75897740D01*
X131894326Y-76323101D01*
X131108361Y-77109066D01*
X130683000Y-78135979D01*
X130683000Y-79247501D01*
X131108361Y-80274414D01*
X131894326Y-81060379D01*
X132921239Y-81485740D01*
X134032761Y-81485740D01*
X135059674Y-81060379D01*
X135663192Y-80456861D01*
X135382000Y-81135719D01*
X135382000Y-82247241D01*
X135807361Y-83274154D01*
X136593326Y-84060119D01*
X137287000Y-84347448D01*
X137287000Y-85066631D01*
X133925348Y-88428284D01*
X133462144Y-88428284D01*
X132934721Y-88646750D01*
X132607187Y-88974284D01*
X129998179Y-88974284D01*
X129795706Y-88671261D01*
X129270593Y-88320393D01*
X128651183Y-88197184D01*
X128031772Y-88320393D01*
X127506660Y-88671261D01*
X127381183Y-88859051D01*
X127255706Y-88671261D01*
X127000183Y-88500527D01*
X127000183Y-88442838D01*
X127017599Y-88355283D01*
X126992851Y-88230870D01*
X126948602Y-88008414D01*
X126752116Y-87714351D01*
X126677890Y-87664755D01*
X124909714Y-85896580D01*
X124892642Y-85871029D01*
X132919444Y-85871029D01*
X132993578Y-86117148D01*
X133530806Y-86310249D01*
X134101037Y-86283062D01*
X134501588Y-86117148D01*
X134575722Y-85871029D01*
X133747583Y-85042889D01*
X132919444Y-85871029D01*
X124892642Y-85871029D01*
X124860116Y-85822351D01*
X124566053Y-85625865D01*
X124306739Y-85574284D01*
X124306738Y-85574284D01*
X124219183Y-85556868D01*
X124131628Y-85574284D01*
X118004520Y-85574284D01*
X117972940Y-85415519D01*
X117832592Y-85205475D01*
X117622548Y-85065127D01*
X117463783Y-85033547D01*
X117463783Y-84646507D01*
X132300618Y-84646507D01*
X132327805Y-85216738D01*
X132493719Y-85617289D01*
X132739838Y-85691423D01*
X133567978Y-84863284D01*
X133927188Y-84863284D01*
X134755328Y-85691423D01*
X135001447Y-85617289D01*
X135194548Y-85080061D01*
X135167361Y-84509830D01*
X135001447Y-84109279D01*
X134755328Y-84035145D01*
X133927188Y-84863284D01*
X133567978Y-84863284D01*
X132739838Y-84035145D01*
X132493719Y-84109279D01*
X132300618Y-84646507D01*
X117463783Y-84646507D01*
X117463783Y-83855539D01*
X132919444Y-83855539D01*
X133747583Y-84683679D01*
X134575722Y-83855539D01*
X134501588Y-83609420D01*
X133964360Y-83416319D01*
X133394129Y-83443506D01*
X132993578Y-83609420D01*
X132919444Y-83855539D01*
X117463783Y-83855539D01*
X117463783Y-77165333D01*
X117481198Y-77077782D01*
X117463783Y-76990231D01*
X117463783Y-76990227D01*
X117412202Y-76730913D01*
X117215716Y-76436850D01*
X117141490Y-76387254D01*
X113957520Y-73203284D01*
X123679459Y-73203284D01*
X123864563Y-74133864D01*
X124391694Y-74922773D01*
X125180603Y-75449904D01*
X125876286Y-75588284D01*
X126346080Y-75588284D01*
X127041763Y-75449904D01*
X127830672Y-74922773D01*
X128357803Y-74133864D01*
X128443664Y-73702210D01*
X136365815Y-73702210D01*
X138176000Y-75512395D01*
X139986185Y-73702210D01*
X139746037Y-73314965D01*
X139530430Y-73227000D01*
X147538876Y-73227000D01*
X147723980Y-74157580D01*
X148251111Y-74946489D01*
X149040020Y-75473620D01*
X149735703Y-75612000D01*
X150205497Y-75612000D01*
X150901180Y-75473620D01*
X151690089Y-74946489D01*
X152217220Y-74157580D01*
X152402324Y-73227000D01*
X152217220Y-72296420D01*
X151690089Y-71507511D01*
X150901180Y-70980380D01*
X150205497Y-70842000D01*
X149735703Y-70842000D01*
X149040020Y-70980380D01*
X148251111Y-71507511D01*
X147723980Y-72296420D01*
X147538876Y-73227000D01*
X139530430Y-73227000D01*
X138716873Y-72895079D01*
X137605366Y-72900999D01*
X136605963Y-73314965D01*
X136365815Y-73702210D01*
X128443664Y-73702210D01*
X128542907Y-73203284D01*
X128357803Y-72272704D01*
X127830672Y-71483795D01*
X127041763Y-70956664D01*
X126346080Y-70818284D01*
X125876286Y-70818284D01*
X125180603Y-70956664D01*
X124391694Y-71483795D01*
X123864563Y-72272704D01*
X123679459Y-73203284D01*
X113957520Y-73203284D01*
X112306000Y-71551765D01*
X112306000Y-71088561D01*
X112087534Y-70561138D01*
X111683862Y-70157466D01*
X111156439Y-69939000D01*
X110585561Y-69939000D01*
X110058138Y-70157466D01*
X109919235Y-70296369D01*
X109198360Y-69575495D01*
X109148762Y-69501266D01*
X108854699Y-69304780D01*
X108595385Y-69253199D01*
X108595384Y-69253199D01*
X108507829Y-69235783D01*
X108420274Y-69253199D01*
X94573114Y-69253199D01*
X94485559Y-69235783D01*
X94398004Y-69253199D01*
X94398003Y-69253199D01*
X94138689Y-69304780D01*
X93844626Y-69501266D01*
X93795030Y-69575492D01*
X90631097Y-72739426D01*
X90556868Y-72789024D01*
X90360382Y-73083088D01*
X90331756Y-73227000D01*
X90291385Y-73429957D01*
X90308801Y-73517512D01*
X90308802Y-85951378D01*
X90272892Y-85934514D01*
X90043000Y-86055181D01*
X90043000Y-87249000D01*
X90063000Y-87249000D01*
X90063000Y-87503000D01*
X90043000Y-87503000D01*
X90043000Y-87523000D01*
X89789000Y-87523000D01*
X89789000Y-87503000D01*
X88595845Y-87503000D01*
X88474524Y-87732890D01*
X88644355Y-88142924D01*
X89034642Y-88571183D01*
X89164478Y-88632157D01*
X88845375Y-88845375D01*
X88517161Y-89336582D01*
X88401908Y-89916000D01*
X88517161Y-90495418D01*
X88845375Y-90986625D01*
X89143761Y-91186000D01*
X88845375Y-91385375D01*
X88517161Y-91876582D01*
X88401908Y-92456000D01*
X88517161Y-93035418D01*
X88845375Y-93526625D01*
X89143761Y-93726000D01*
X88845375Y-93925375D01*
X88517161Y-94416582D01*
X88401908Y-94996000D01*
X88483261Y-95404990D01*
X88337841Y-95550410D01*
X88277397Y-95590798D01*
X88237010Y-95651242D01*
X88117400Y-95830250D01*
X88111000Y-95862425D01*
X88111000Y-87019110D01*
X88474524Y-87019110D01*
X88595845Y-87249000D01*
X89789000Y-87249000D01*
X89789000Y-86055181D01*
X89559108Y-85934514D01*
X89034642Y-86180817D01*
X88644355Y-86609076D01*
X88474524Y-87019110D01*
X88111000Y-87019110D01*
X88111000Y-71967767D01*
X88395974Y-72252741D01*
X89217431Y-72593000D01*
X90106569Y-72593000D01*
X90928026Y-72252741D01*
X91556741Y-71624026D01*
X91897000Y-70802569D01*
X91897000Y-69913431D01*
X91556741Y-69091974D01*
X91271767Y-68807000D01*
X156124233Y-68807000D01*
X155839259Y-69091974D01*
X155839259Y-69091974D01*
G37*
X155839259Y-69091974D02*
X155499000Y-69913431D01*
X155499000Y-70802569D01*
X155839259Y-71624026D01*
X156467974Y-72252741D01*
X157289431Y-72593000D01*
X158178569Y-72593000D01*
X159000026Y-72252741D01*
X159285000Y-71967767D01*
X159285001Y-128184234D01*
X159000026Y-127899259D01*
X158178569Y-127559000D01*
X157289431Y-127559000D01*
X156467974Y-127899259D01*
X155839259Y-128527974D01*
X155499000Y-129349431D01*
X155499000Y-130238569D01*
X155839259Y-131060026D01*
X156124233Y-131345000D01*
X91271767Y-131345000D01*
X91556741Y-131060026D01*
X91897000Y-130238569D01*
X91897000Y-129349431D01*
X91556741Y-128527974D01*
X90928026Y-127899259D01*
X90106569Y-127559000D01*
X89217431Y-127559000D01*
X88395974Y-127899259D01*
X88111000Y-128184233D01*
X88111000Y-115601750D01*
X88431000Y-115601750D01*
X88431000Y-116292310D01*
X88527673Y-116525699D01*
X88706302Y-116704327D01*
X88939691Y-116801000D01*
X89630250Y-116801000D01*
X89789000Y-116642250D01*
X89789000Y-115443000D01*
X90043000Y-115443000D01*
X90043000Y-116642250D01*
X90201750Y-116801000D01*
X90892309Y-116801000D01*
X91125698Y-116704327D01*
X91304327Y-116525699D01*
X91401000Y-116292310D01*
X91401000Y-115601750D01*
X91242250Y-115443000D01*
X90043000Y-115443000D01*
X89789000Y-115443000D01*
X88589750Y-115443000D01*
X88431000Y-115601750D01*
X88111000Y-115601750D01*
X88111000Y-103402293D01*
X88117400Y-103434468D01*
X88277396Y-103673919D01*
X88337841Y-103714308D01*
X88790714Y-104167181D01*
X88517161Y-104576582D01*
X88401908Y-105156000D01*
X88517161Y-105735418D01*
X88845375Y-106226625D01*
X89143761Y-106426000D01*
X88845375Y-106625375D01*
X88517161Y-107116582D01*
X88401908Y-107696000D01*
X88517161Y-108275418D01*
X88845375Y-108766625D01*
X89143761Y-108966000D01*
X88845375Y-109165375D01*
X88517161Y-109656582D01*
X88401908Y-110236000D01*
X88517161Y-110815418D01*
X88845375Y-111306625D01*
X89143761Y-111506000D01*
X88845375Y-111705375D01*
X88517161Y-112196582D01*
X88401908Y-112776000D01*
X88517161Y-113355418D01*
X88845375Y-113846625D01*
X88867033Y-113861096D01*
X88706302Y-113927673D01*
X88527673Y-114106301D01*
X88431000Y-114339690D01*
X88431000Y-115030250D01*
X88589750Y-115189000D01*
X89789000Y-115189000D01*
X89789000Y-115169000D01*
X90043000Y-115169000D01*
X90043000Y-115189000D01*
X91242250Y-115189000D01*
X91401000Y-115030250D01*
X91401000Y-114339690D01*
X91304327Y-114106301D01*
X91125698Y-113927673D01*
X90964967Y-113861096D01*
X90986625Y-113846625D01*
X91136129Y-113622877D01*
X94232850Y-116719598D01*
X94196000Y-116808561D01*
X94196000Y-117379439D01*
X94414466Y-117906862D01*
X94818138Y-118310534D01*
X94947216Y-118364000D01*
X94818138Y-118417466D01*
X94414466Y-118821138D01*
X94196000Y-119348561D01*
X94196000Y-119919439D01*
X94414466Y-120446862D01*
X94818138Y-120850534D01*
X94947216Y-120904000D01*
X94818138Y-120957466D01*
X94414466Y-121361138D01*
X94196000Y-121888561D01*
X94196000Y-122459439D01*
X94414466Y-122986862D01*
X94818138Y-123390534D01*
X94947216Y-123444000D01*
X94818138Y-123497466D01*
X94414466Y-123901138D01*
X94196000Y-124428561D01*
X94196000Y-124999439D01*
X94414466Y-125526862D01*
X94818138Y-125930534D01*
X94947216Y-125984000D01*
X94818138Y-126037466D01*
X94414466Y-126441138D01*
X94196000Y-126968561D01*
X94196000Y-127539439D01*
X94414466Y-128066862D01*
X94818138Y-128470534D01*
X94947216Y-128524000D01*
X94818138Y-128577466D01*
X94414466Y-128981138D01*
X94196000Y-129508561D01*
X94196000Y-130079439D01*
X94414466Y-130606862D01*
X94818138Y-131010534D01*
X95345561Y-131229000D01*
X95916439Y-131229000D01*
X96443862Y-131010534D01*
X96847534Y-130606862D01*
X97066000Y-130079439D01*
X97066000Y-129508561D01*
X96847534Y-128981138D01*
X96443862Y-128577466D01*
X96314784Y-128524000D01*
X96443862Y-128470534D01*
X96847534Y-128066862D01*
X97066000Y-127539439D01*
X97066000Y-126968561D01*
X96847534Y-126441138D01*
X96443862Y-126037466D01*
X96314784Y-125984000D01*
X96443862Y-125930534D01*
X96847534Y-125526862D01*
X97066000Y-124999439D01*
X97066000Y-124428561D01*
X96847534Y-123901138D01*
X96443862Y-123497466D01*
X96314784Y-123444000D01*
X96443862Y-123390534D01*
X96847534Y-122986862D01*
X97066000Y-122459439D01*
X97066000Y-121888561D01*
X96847534Y-121361138D01*
X96443862Y-120957466D01*
X96314784Y-120904000D01*
X96443862Y-120850534D01*
X96847534Y-120446862D01*
X97066000Y-119919439D01*
X97066000Y-119348561D01*
X96847534Y-118821138D01*
X96443862Y-118417466D01*
X96314784Y-118364000D01*
X96443862Y-118310534D01*
X96847534Y-117906862D01*
X97066000Y-117379439D01*
X97066000Y-116808561D01*
X96847534Y-116281138D01*
X96443862Y-115877466D01*
X96314784Y-115824000D01*
X96443862Y-115770534D01*
X96847534Y-115366862D01*
X97066000Y-114839439D01*
X97066000Y-114268561D01*
X96847534Y-113741138D01*
X96443862Y-113337466D01*
X96314784Y-113284000D01*
X96443862Y-113230534D01*
X96847534Y-112826862D01*
X97066000Y-112299439D01*
X97066000Y-111728561D01*
X96847534Y-111201138D01*
X96443862Y-110797466D01*
X96314784Y-110744000D01*
X96443862Y-110690534D01*
X96847534Y-110286862D01*
X97066000Y-109759439D01*
X97066000Y-109188561D01*
X96847534Y-108661138D01*
X96443862Y-108257466D01*
X96314784Y-108204000D01*
X96443862Y-108150534D01*
X96847534Y-107746862D01*
X97066000Y-107219439D01*
X97066000Y-106648561D01*
X96847534Y-106121138D01*
X96443862Y-105717466D01*
X96314784Y-105664000D01*
X96443862Y-105610534D01*
X96847534Y-105206862D01*
X97066000Y-104679439D01*
X97066000Y-104108561D01*
X96847534Y-103581138D01*
X96443862Y-103177466D01*
X96314784Y-103124000D01*
X96443862Y-103070534D01*
X96847534Y-102666862D01*
X97066000Y-102139439D01*
X97066000Y-101568561D01*
X96847534Y-101041138D01*
X96443862Y-100637466D01*
X96314784Y-100584000D01*
X96443862Y-100530534D01*
X96847534Y-100126862D01*
X97066000Y-99599439D01*
X97066000Y-99028561D01*
X96847534Y-98501138D01*
X96443862Y-98097466D01*
X96314784Y-98044000D01*
X96443862Y-97990534D01*
X96847534Y-97586862D01*
X97066000Y-97059439D01*
X97066000Y-96488561D01*
X96847534Y-95961138D01*
X96443862Y-95557466D01*
X96314784Y-95504000D01*
X96443862Y-95450534D01*
X96847534Y-95046862D01*
X97066000Y-94519439D01*
X97066000Y-93948561D01*
X97042240Y-93891199D01*
X99344451Y-93891199D01*
X109472849Y-104019599D01*
X109436000Y-104108561D01*
X109436000Y-104679439D01*
X109654466Y-105206862D01*
X110058138Y-105610534D01*
X110187216Y-105664000D01*
X110058138Y-105717466D01*
X109654466Y-106121138D01*
X109436000Y-106648561D01*
X109436000Y-107219439D01*
X109654466Y-107746862D01*
X110058138Y-108150534D01*
X110187216Y-108204000D01*
X110058138Y-108257466D01*
X109654466Y-108661138D01*
X109436000Y-109188561D01*
X109436000Y-109759439D01*
X109654466Y-110286862D01*
X110058138Y-110690534D01*
X110187216Y-110744000D01*
X110058138Y-110797466D01*
X109654466Y-111201138D01*
X109436000Y-111728561D01*
X109436000Y-112299439D01*
X109654466Y-112826862D01*
X110058138Y-113230534D01*
X110187216Y-113284000D01*
X110058138Y-113337466D01*
X109654466Y-113741138D01*
X109436000Y-114268561D01*
X109436000Y-114839439D01*
X109654466Y-115366862D01*
X110058138Y-115770534D01*
X110187216Y-115824000D01*
X110058138Y-115877466D01*
X109654466Y-116281138D01*
X109436000Y-116808561D01*
X109436000Y-117379439D01*
X109654466Y-117906862D01*
X110058138Y-118310534D01*
X110187216Y-118364000D01*
X110058138Y-118417466D01*
X109654466Y-118821138D01*
X109436000Y-119348561D01*
X109436000Y-119919439D01*
X109654466Y-120446862D01*
X110058138Y-120850534D01*
X110187216Y-120904000D01*
X110058138Y-120957466D01*
X109654466Y-121361138D01*
X109436000Y-121888561D01*
X109436000Y-122459439D01*
X109654466Y-122986862D01*
X110058138Y-123390534D01*
X110187216Y-123444000D01*
X110058138Y-123497466D01*
X109654466Y-123901138D01*
X109436000Y-124428561D01*
X109436000Y-124999439D01*
X109654466Y-125526862D01*
X110058138Y-125930534D01*
X110187216Y-125984000D01*
X110058138Y-126037466D01*
X109654466Y-126441138D01*
X109436000Y-126968561D01*
X109436000Y-127539439D01*
X109654466Y-128066862D01*
X110058138Y-128470534D01*
X110187216Y-128524000D01*
X110058138Y-128577466D01*
X109654466Y-128981138D01*
X109436000Y-129508561D01*
X109436000Y-130079439D01*
X109654466Y-130606862D01*
X110058138Y-131010534D01*
X110585561Y-131229000D01*
X111156439Y-131229000D01*
X111683862Y-131010534D01*
X112087534Y-130606862D01*
X112306000Y-130079439D01*
X112306000Y-129508561D01*
X112269150Y-129419598D01*
X112499990Y-129188759D01*
X112499991Y-129188758D01*
X115218762Y-126469988D01*
X115279201Y-126429604D01*
X115319586Y-126369164D01*
X115319589Y-126369161D01*
X115439198Y-126190153D01*
X115495381Y-125907701D01*
X115481199Y-125836403D01*
X115481199Y-125721745D01*
X135395861Y-125721745D01*
X135469995Y-125967864D01*
X136007223Y-126160965D01*
X136577454Y-126133778D01*
X136978005Y-125967864D01*
X137052139Y-125721745D01*
X136224000Y-124893605D01*
X135395861Y-125721745D01*
X115481199Y-125721745D01*
X115481199Y-124497223D01*
X134777035Y-124497223D01*
X134804222Y-125067454D01*
X134970136Y-125468005D01*
X135216255Y-125542139D01*
X136044395Y-124714000D01*
X135216255Y-123885861D01*
X134970136Y-123959995D01*
X134777035Y-124497223D01*
X115481199Y-124497223D01*
X115481199Y-122298925D01*
X115682667Y-122339000D01*
X115965333Y-122339000D01*
X116383909Y-122255740D01*
X116858577Y-121938577D01*
X117094000Y-121586242D01*
X117329423Y-121938577D01*
X117804091Y-122255740D01*
X118222667Y-122339000D01*
X118505333Y-122339000D01*
X118923909Y-122255740D01*
X119398577Y-121938577D01*
X119634000Y-121586242D01*
X119869423Y-121938577D01*
X120344091Y-122255740D01*
X120762667Y-122339000D01*
X121045333Y-122339000D01*
X121463909Y-122255740D01*
X121938577Y-121938577D01*
X122174000Y-121586242D01*
X122409423Y-121938577D01*
X122884091Y-122255740D01*
X123302667Y-122339000D01*
X123585333Y-122339000D01*
X124003909Y-122255740D01*
X124478577Y-121938577D01*
X124714000Y-121586242D01*
X124949423Y-121938577D01*
X125424091Y-122255740D01*
X125842667Y-122339000D01*
X126125333Y-122339000D01*
X126543909Y-122255740D01*
X127018577Y-121938577D01*
X127254000Y-121586242D01*
X127489423Y-121938577D01*
X127964091Y-122255740D01*
X128382667Y-122339000D01*
X128665333Y-122339000D01*
X129083909Y-122255740D01*
X129558577Y-121938577D01*
X129814947Y-121554892D01*
X129911611Y-121759134D01*
X130326577Y-122135041D01*
X130714961Y-122295904D01*
X130937000Y-122173915D01*
X130937000Y-121031000D01*
X130917000Y-121031000D01*
X130917000Y-120777000D01*
X130937000Y-120777000D01*
X130937000Y-119634085D01*
X130714961Y-119512096D01*
X130326577Y-119672959D01*
X129911611Y-120048866D01*
X129814947Y-120253108D01*
X129558577Y-119869423D01*
X129083909Y-119552260D01*
X128665333Y-119469000D01*
X128382667Y-119469000D01*
X127964091Y-119552260D01*
X127489423Y-119869423D01*
X127254000Y-120221758D01*
X127018577Y-119869423D01*
X126543909Y-119552260D01*
X126125333Y-119469000D01*
X125842667Y-119469000D01*
X125424091Y-119552260D01*
X124949423Y-119869423D01*
X124714000Y-120221758D01*
X124478577Y-119869423D01*
X124003909Y-119552260D01*
X123585333Y-119469000D01*
X123302667Y-119469000D01*
X122884091Y-119552260D01*
X122409423Y-119869423D01*
X122174000Y-120221758D01*
X121938577Y-119869423D01*
X121463909Y-119552260D01*
X121045333Y-119469000D01*
X120762667Y-119469000D01*
X120344091Y-119552260D01*
X119869423Y-119869423D01*
X119634000Y-120221758D01*
X119398577Y-119869423D01*
X118923909Y-119552260D01*
X118505333Y-119469000D01*
X118222667Y-119469000D01*
X117804091Y-119552260D01*
X117329423Y-119869423D01*
X117094000Y-120221758D01*
X116858577Y-119869423D01*
X116383909Y-119552260D01*
X115965333Y-119469000D01*
X115682667Y-119469000D01*
X115481199Y-119509075D01*
X115481199Y-109570549D01*
X117997531Y-107054218D01*
X118222667Y-107099000D01*
X118505333Y-107099000D01*
X118923909Y-107015740D01*
X119398577Y-106698577D01*
X119634000Y-106346242D01*
X119869423Y-106698577D01*
X120344091Y-107015740D01*
X120762667Y-107099000D01*
X121045333Y-107099000D01*
X121463909Y-107015740D01*
X121938577Y-106698577D01*
X122174000Y-106346242D01*
X122409423Y-106698577D01*
X122884091Y-107015740D01*
X123302667Y-107099000D01*
X123585333Y-107099000D01*
X124003909Y-107015740D01*
X124478577Y-106698577D01*
X124714000Y-106346242D01*
X124949423Y-106698577D01*
X125424091Y-107015740D01*
X125842667Y-107099000D01*
X126125333Y-107099000D01*
X126543909Y-107015740D01*
X127018577Y-106698577D01*
X127254000Y-106346242D01*
X127489423Y-106698577D01*
X127964091Y-107015740D01*
X128382667Y-107099000D01*
X128665333Y-107099000D01*
X129083909Y-107015740D01*
X129558577Y-106698577D01*
X129794000Y-106346242D01*
X130029423Y-106698577D01*
X130504091Y-107015740D01*
X130922667Y-107099000D01*
X131205333Y-107099000D01*
X131623909Y-107015740D01*
X132098577Y-106698577D01*
X132334000Y-106346242D01*
X132569423Y-106698577D01*
X133044091Y-107015740D01*
X133462667Y-107099000D01*
X133745333Y-107099000D01*
X134023199Y-107043729D01*
X134023200Y-114504640D01*
X134005783Y-114592199D01*
X134074781Y-114939069D01*
X134179170Y-115095298D01*
X134271267Y-115233132D01*
X134345493Y-115282728D01*
X138533573Y-119470809D01*
X138124091Y-119552260D01*
X137649423Y-119869423D01*
X137414000Y-120221758D01*
X137178577Y-119869423D01*
X136703909Y-119552260D01*
X136285333Y-119469000D01*
X136002667Y-119469000D01*
X135584091Y-119552260D01*
X135109423Y-119869423D01*
X134874000Y-120221758D01*
X134638577Y-119869423D01*
X134163909Y-119552260D01*
X133745333Y-119469000D01*
X133462667Y-119469000D01*
X133044091Y-119552260D01*
X132569423Y-119869423D01*
X132313053Y-120253108D01*
X132216389Y-120048866D01*
X131801423Y-119672959D01*
X131413039Y-119512096D01*
X131191000Y-119634085D01*
X131191000Y-120777000D01*
X131211000Y-120777000D01*
X131211000Y-121031000D01*
X131191000Y-121031000D01*
X131191000Y-122173915D01*
X131413039Y-122295904D01*
X131801423Y-122135041D01*
X132216389Y-121759134D01*
X132313053Y-121554892D01*
X132569423Y-121938577D01*
X133044091Y-122255740D01*
X133462667Y-122339000D01*
X133745333Y-122339000D01*
X133970469Y-122294218D01*
X135327709Y-123651458D01*
X135368097Y-123711903D01*
X135468789Y-123779184D01*
X136224000Y-124534395D01*
X136238142Y-124520252D01*
X136417748Y-124699858D01*
X136403605Y-124714000D01*
X137231745Y-125542139D01*
X137477864Y-125468005D01*
X137670965Y-124930777D01*
X137643778Y-124360546D01*
X137477864Y-123959995D01*
X137324832Y-123913900D01*
X140002180Y-123913900D01*
X139789000Y-124428561D01*
X139789000Y-124999439D01*
X140007466Y-125526862D01*
X140411138Y-125930534D01*
X140938561Y-126149000D01*
X141509439Y-126149000D01*
X142036862Y-125930534D01*
X142440534Y-125526862D01*
X142621000Y-125091179D01*
X142801466Y-125526862D01*
X143205138Y-125930534D01*
X143732561Y-126149000D01*
X144303439Y-126149000D01*
X144830862Y-125930534D01*
X145039651Y-125721745D01*
X148189861Y-125721745D01*
X148263995Y-125967864D01*
X148801223Y-126160965D01*
X149371454Y-126133778D01*
X149772005Y-125967864D01*
X149846139Y-125721745D01*
X149018000Y-124893605D01*
X148189861Y-125721745D01*
X145039651Y-125721745D01*
X145234534Y-125526862D01*
X145453000Y-124999439D01*
X145453000Y-124428561D01*
X145239820Y-123913900D01*
X147917168Y-123913900D01*
X147764136Y-123959995D01*
X147571035Y-124497223D01*
X147598222Y-125067454D01*
X147764136Y-125468005D01*
X148010255Y-125542139D01*
X148838395Y-124714000D01*
X149197605Y-124714000D01*
X150025745Y-125542139D01*
X150271864Y-125468005D01*
X150464965Y-124930777D01*
X150437778Y-124360546D01*
X150271864Y-123959995D01*
X150025745Y-123885861D01*
X149197605Y-124714000D01*
X148838395Y-124714000D01*
X148824252Y-124699858D01*
X149003858Y-124520253D01*
X149018000Y-124534395D01*
X149846139Y-123706255D01*
X149772005Y-123460136D01*
X149270039Y-123279709D01*
X153077459Y-119472290D01*
X153137904Y-119431902D01*
X153297900Y-119192451D01*
X153339901Y-118981297D01*
X153339901Y-118981293D01*
X153354082Y-118910000D01*
X153339901Y-118838707D01*
X153339901Y-117259000D01*
X153701439Y-117259000D01*
X154228862Y-117040534D01*
X154632534Y-116636862D01*
X154851000Y-116109439D01*
X154851000Y-115824000D01*
X155842908Y-115824000D01*
X155958161Y-116403418D01*
X156286375Y-116894625D01*
X156777582Y-117222839D01*
X157210744Y-117309000D01*
X157503256Y-117309000D01*
X157936418Y-117222839D01*
X158427625Y-116894625D01*
X158755839Y-116403418D01*
X158871092Y-115824000D01*
X158755839Y-115244582D01*
X158427625Y-114753375D01*
X158108522Y-114540157D01*
X158238358Y-114479183D01*
X158628645Y-114050924D01*
X158798476Y-113640890D01*
X158677155Y-113411000D01*
X157484000Y-113411000D01*
X157484000Y-113431000D01*
X157230000Y-113431000D01*
X157230000Y-113411000D01*
X156036845Y-113411000D01*
X155915524Y-113640890D01*
X156085355Y-114050924D01*
X156475642Y-114479183D01*
X156605478Y-114540157D01*
X156286375Y-114753375D01*
X155958161Y-115244582D01*
X155842908Y-115824000D01*
X154851000Y-115824000D01*
X154851000Y-115538561D01*
X154809597Y-115438605D01*
X154897898Y-115306453D01*
X154939899Y-115095299D01*
X154939899Y-115095295D01*
X154954080Y-115024002D01*
X154939899Y-114952709D01*
X154939899Y-114184849D01*
X156012977Y-113111772D01*
X156036845Y-113157000D01*
X157230000Y-113157000D01*
X157230000Y-113137000D01*
X157484000Y-113137000D01*
X157484000Y-113157000D01*
X158677155Y-113157000D01*
X158798476Y-112927110D01*
X158628645Y-112517076D01*
X158238358Y-112088817D01*
X158108522Y-112027843D01*
X158427625Y-111814625D01*
X158755839Y-111323418D01*
X158871092Y-110744000D01*
X158755839Y-110164582D01*
X158427625Y-109673375D01*
X158108522Y-109460157D01*
X158238358Y-109399183D01*
X158628645Y-108970924D01*
X158798476Y-108560890D01*
X158677155Y-108331000D01*
X157484000Y-108331000D01*
X157484000Y-108351000D01*
X157230000Y-108351000D01*
X157230000Y-108331000D01*
X157210000Y-108331000D01*
X157210000Y-108077000D01*
X157230000Y-108077000D01*
X157230000Y-108057000D01*
X157484000Y-108057000D01*
X157484000Y-108077000D01*
X158677155Y-108077000D01*
X158798476Y-107847110D01*
X158628645Y-107437076D01*
X158238358Y-107008817D01*
X158108522Y-106947843D01*
X158427625Y-106734625D01*
X158755839Y-106243418D01*
X158871092Y-105664000D01*
X158755839Y-105084582D01*
X158427625Y-104593375D01*
X158108522Y-104380157D01*
X158238358Y-104319183D01*
X158628645Y-103890924D01*
X158798476Y-103480890D01*
X158677155Y-103251000D01*
X157484000Y-103251000D01*
X157484000Y-103271000D01*
X157230000Y-103271000D01*
X157230000Y-103251000D01*
X156036845Y-103251000D01*
X155915524Y-103480890D01*
X156085355Y-103890924D01*
X156475642Y-104319183D01*
X156605478Y-104380157D01*
X156286375Y-104593375D01*
X155958161Y-105084582D01*
X155842908Y-105664000D01*
X155925818Y-106080816D01*
X155825102Y-106231547D01*
X155825102Y-106231548D01*
X155768919Y-106513999D01*
X155783101Y-106585297D01*
X155783101Y-106845150D01*
X154796792Y-107831459D01*
X154568389Y-107348866D01*
X154153423Y-106972959D01*
X153765039Y-106812096D01*
X153543000Y-106934085D01*
X153543000Y-108077000D01*
X153563000Y-108077000D01*
X153563000Y-108331000D01*
X153543000Y-108331000D01*
X153543000Y-108351000D01*
X153289000Y-108351000D01*
X153289000Y-108331000D01*
X152145371Y-108331000D01*
X152024086Y-108553041D01*
X152263611Y-109059134D01*
X152678577Y-109435041D01*
X153042485Y-109585767D01*
X152392151Y-110236101D01*
X150731291Y-110236101D01*
X150659998Y-110221920D01*
X150588705Y-110236101D01*
X150588701Y-110236101D01*
X150377547Y-110278102D01*
X150245395Y-110366403D01*
X150145439Y-110325000D01*
X149574561Y-110325000D01*
X149047138Y-110543466D01*
X148643466Y-110947138D01*
X148425000Y-111474561D01*
X148425000Y-112045439D01*
X148643466Y-112572862D01*
X149047138Y-112976534D01*
X149136100Y-113013383D01*
X149136101Y-120858150D01*
X148036152Y-121958100D01*
X144769359Y-121958100D01*
X144798577Y-121938577D01*
X145115740Y-121463909D01*
X145227113Y-120904000D01*
X145115740Y-120344091D01*
X144798577Y-119869423D01*
X144323909Y-119552260D01*
X143905333Y-119469000D01*
X143622667Y-119469000D01*
X143204091Y-119552260D01*
X142729423Y-119869423D01*
X142494000Y-120221758D01*
X142258577Y-119869423D01*
X141783909Y-119552260D01*
X141365333Y-119469000D01*
X141082667Y-119469000D01*
X141052280Y-119475044D01*
X135801199Y-114223964D01*
X135801199Y-107854959D01*
X152024086Y-107854959D01*
X152145371Y-108077000D01*
X153289000Y-108077000D01*
X153289000Y-106934085D01*
X153066961Y-106812096D01*
X152678577Y-106972959D01*
X152263611Y-107348866D01*
X152024086Y-107854959D01*
X135801199Y-107854959D01*
X135801199Y-107058925D01*
X136002667Y-107099000D01*
X136285333Y-107099000D01*
X136703909Y-107015740D01*
X137178577Y-106698577D01*
X137414000Y-106346242D01*
X137649423Y-106698577D01*
X138124091Y-107015740D01*
X138542667Y-107099000D01*
X138825333Y-107099000D01*
X139243909Y-107015740D01*
X139718577Y-106698577D01*
X139954000Y-106346242D01*
X140189423Y-106698577D01*
X140664091Y-107015740D01*
X141082667Y-107099000D01*
X141365333Y-107099000D01*
X141783909Y-107015740D01*
X142258577Y-106698577D01*
X142329735Y-106592082D01*
X142425673Y-106823698D01*
X142604301Y-107002327D01*
X142837690Y-107099000D01*
X143478250Y-107099000D01*
X143637000Y-106940250D01*
X143637000Y-105791000D01*
X143891000Y-105791000D01*
X143891000Y-106940250D01*
X144049750Y-107099000D01*
X144690310Y-107099000D01*
X144923699Y-107002327D01*
X145102327Y-106823698D01*
X145199000Y-106590309D01*
X145199000Y-105949750D01*
X145040250Y-105791000D01*
X143891000Y-105791000D01*
X143637000Y-105791000D01*
X143617000Y-105791000D01*
X143617000Y-105537000D01*
X143637000Y-105537000D01*
X143637000Y-104387750D01*
X143891000Y-104387750D01*
X143891000Y-105537000D01*
X145040250Y-105537000D01*
X145199000Y-105378250D01*
X145199000Y-104737691D01*
X145102327Y-104504302D01*
X145087067Y-104489041D01*
X148468086Y-104489041D01*
X148707611Y-104995134D01*
X149122577Y-105371041D01*
X149510961Y-105531904D01*
X149733000Y-105409915D01*
X149733000Y-104267000D01*
X149987000Y-104267000D01*
X149987000Y-105409915D01*
X150209039Y-105531904D01*
X150597423Y-105371041D01*
X151012389Y-104995134D01*
X151251914Y-104489041D01*
X151130629Y-104267000D01*
X149987000Y-104267000D01*
X149733000Y-104267000D01*
X148589371Y-104267000D01*
X148468086Y-104489041D01*
X145087067Y-104489041D01*
X144923699Y-104325673D01*
X144690310Y-104229000D01*
X144049750Y-104229000D01*
X143891000Y-104387750D01*
X143637000Y-104387750D01*
X143478250Y-104229000D01*
X142837690Y-104229000D01*
X142604301Y-104325673D01*
X142425673Y-104504302D01*
X142329735Y-104735918D01*
X142258577Y-104629423D01*
X141783909Y-104312260D01*
X141365333Y-104229000D01*
X141082667Y-104229000D01*
X140664091Y-104312260D01*
X140189423Y-104629423D01*
X139954000Y-104981758D01*
X139718577Y-104629423D01*
X139243909Y-104312260D01*
X138825333Y-104229000D01*
X138542667Y-104229000D01*
X138124091Y-104312260D01*
X137649423Y-104629423D01*
X137414000Y-104981758D01*
X137178577Y-104629423D01*
X136703909Y-104312260D01*
X136285333Y-104229000D01*
X136002667Y-104229000D01*
X135814017Y-104266525D01*
X135818614Y-104243415D01*
X135801199Y-104155864D01*
X135801199Y-104155860D01*
X135749618Y-103896546D01*
X135679068Y-103790959D01*
X148468086Y-103790959D01*
X148589371Y-104013000D01*
X149733000Y-104013000D01*
X149733000Y-102870085D01*
X149987000Y-102870085D01*
X149987000Y-104013000D01*
X151130629Y-104013000D01*
X151251914Y-103790959D01*
X151012389Y-103284866D01*
X150597423Y-102908959D01*
X150209039Y-102748096D01*
X149987000Y-102870085D01*
X149733000Y-102870085D01*
X149510961Y-102748096D01*
X149122577Y-102908959D01*
X148707611Y-103284866D01*
X148468086Y-103790959D01*
X135679068Y-103790959D01*
X135553132Y-103602483D01*
X135478906Y-103552887D01*
X127241133Y-95315115D01*
X127241592Y-95314809D01*
X127381940Y-95104765D01*
X127431223Y-94857000D01*
X127431223Y-93357000D01*
X127381940Y-93109235D01*
X127241592Y-92899191D01*
X127031548Y-92758843D01*
X127000183Y-92752604D01*
X127000183Y-91226042D01*
X127255706Y-91055307D01*
X127381183Y-90867517D01*
X127506660Y-91055307D01*
X128031773Y-91406175D01*
X128651183Y-91529384D01*
X129270594Y-91406175D01*
X129795706Y-91055307D01*
X129998179Y-90752284D01*
X132607187Y-90752284D01*
X132858583Y-91003680D01*
X132858584Y-92895268D01*
X132852713Y-92899191D01*
X132712365Y-93109235D01*
X132663082Y-93357000D01*
X132663082Y-94857000D01*
X132712365Y-95104765D01*
X132852713Y-95314809D01*
X133062757Y-95455157D01*
X133310522Y-95504440D01*
X134810522Y-95504440D01*
X135058287Y-95455157D01*
X135268331Y-95314809D01*
X135408679Y-95104765D01*
X135457962Y-94857000D01*
X135457962Y-94392750D01*
X140702261Y-94392750D01*
X140702261Y-94983310D01*
X140798934Y-95216699D01*
X140977563Y-95395327D01*
X141210952Y-95492000D01*
X141801511Y-95492000D01*
X141960261Y-95333250D01*
X141960261Y-94234000D01*
X142214261Y-94234000D01*
X142214261Y-95333250D01*
X142373011Y-95492000D01*
X142963570Y-95492000D01*
X143196959Y-95395327D01*
X143375588Y-95216699D01*
X143472261Y-94983310D01*
X143472261Y-94392750D01*
X143313511Y-94234000D01*
X142214261Y-94234000D01*
X141960261Y-94234000D01*
X140861011Y-94234000D01*
X140702261Y-94392750D01*
X135457962Y-94392750D01*
X135457962Y-93357000D01*
X135432838Y-93230690D01*
X140702261Y-93230690D01*
X140702261Y-93821250D01*
X140861011Y-93980000D01*
X141960261Y-93980000D01*
X141960261Y-92880750D01*
X142214261Y-92880750D01*
X142214261Y-93980000D01*
X143313511Y-93980000D01*
X143472261Y-93821250D01*
X143472261Y-93230690D01*
X143375588Y-92997301D01*
X143196959Y-92818673D01*
X142963570Y-92722000D01*
X142373011Y-92722000D01*
X142214261Y-92880750D01*
X141960261Y-92880750D01*
X141801511Y-92722000D01*
X141210952Y-92722000D01*
X140977563Y-92818673D01*
X140798934Y-92997301D01*
X140702261Y-93230690D01*
X135432838Y-93230690D01*
X135408679Y-93109235D01*
X135268331Y-92899191D01*
X135058287Y-92758843D01*
X134810522Y-92709560D01*
X134636583Y-92709560D01*
X134636583Y-91003680D01*
X134964117Y-90676146D01*
X135172630Y-90172750D01*
X145843100Y-90172750D01*
X145843100Y-91013310D01*
X145939773Y-91246699D01*
X146118402Y-91425327D01*
X146351791Y-91522000D01*
X147144850Y-91522000D01*
X147303600Y-91363250D01*
X147303600Y-90014000D01*
X146001850Y-90014000D01*
X145843100Y-90172750D01*
X135172630Y-90172750D01*
X135182583Y-90148723D01*
X135182583Y-89685519D01*
X135976357Y-88891745D01*
X138911861Y-88891745D01*
X138985995Y-89137864D01*
X139523223Y-89330965D01*
X140093454Y-89303778D01*
X140494005Y-89137864D01*
X140568139Y-88891745D01*
X139740000Y-88063605D01*
X138911861Y-88891745D01*
X135976357Y-88891745D01*
X137200879Y-87667223D01*
X138293035Y-87667223D01*
X138320222Y-88237454D01*
X138486136Y-88638005D01*
X138732255Y-88712139D01*
X139560395Y-87884000D01*
X138732255Y-87055861D01*
X138486136Y-87129995D01*
X138293035Y-87667223D01*
X137200879Y-87667223D01*
X137991847Y-86876255D01*
X138911861Y-86876255D01*
X139740000Y-87704395D01*
X140568139Y-86876255D01*
X140494005Y-86630136D01*
X139956777Y-86437035D01*
X139386546Y-86464222D01*
X138985995Y-86630136D01*
X138911861Y-86876255D01*
X137991847Y-86876255D01*
X138742707Y-86125396D01*
X138816933Y-86075800D01*
X139013419Y-85781737D01*
X139065000Y-85522423D01*
X139065000Y-85522419D01*
X139082415Y-85434868D01*
X139065000Y-85347317D01*
X139065000Y-84347448D01*
X139758674Y-84060119D01*
X140544639Y-83274154D01*
X140831968Y-82580480D01*
X143994345Y-82580480D01*
X149690483Y-88276619D01*
X149669190Y-88280854D01*
X148705631Y-87317296D01*
X148656033Y-87243067D01*
X148361970Y-87046581D01*
X148102656Y-86995000D01*
X148102655Y-86995000D01*
X148015100Y-86977584D01*
X147927545Y-86995000D01*
X143669737Y-86995000D01*
X143638157Y-86836235D01*
X143497809Y-86626191D01*
X143287765Y-86485843D01*
X143040000Y-86436560D01*
X141440000Y-86436560D01*
X141192235Y-86485843D01*
X140982191Y-86626191D01*
X140841843Y-86836235D01*
X140795307Y-87070187D01*
X140747745Y-87055861D01*
X139919605Y-87884000D01*
X140747745Y-88712139D01*
X140795307Y-88697813D01*
X140841843Y-88931765D01*
X140982191Y-89141809D01*
X141192235Y-89282157D01*
X141440000Y-89331440D01*
X143040000Y-89331440D01*
X143287765Y-89282157D01*
X143497809Y-89141809D01*
X143638157Y-88931765D01*
X143669737Y-88773000D01*
X145843100Y-88773000D01*
X145843100Y-89601250D01*
X146001850Y-89760000D01*
X147303600Y-89760000D01*
X147303600Y-89740000D01*
X147557600Y-89740000D01*
X147557600Y-89760000D01*
X147577600Y-89760000D01*
X147577600Y-90014000D01*
X147557600Y-90014000D01*
X147557600Y-91363250D01*
X147716350Y-91522000D01*
X148509409Y-91522000D01*
X148742798Y-91425327D01*
X148921427Y-91246699D01*
X148955156Y-91165270D01*
X149081600Y-91249758D01*
X149081601Y-92781985D01*
X148906191Y-92899191D01*
X148765843Y-93109235D01*
X148716560Y-93357000D01*
X148716560Y-94857000D01*
X148765843Y-95104765D01*
X148906191Y-95314809D01*
X149116235Y-95455157D01*
X149364000Y-95504440D01*
X150864000Y-95504440D01*
X151111765Y-95455157D01*
X151321809Y-95314809D01*
X151322115Y-95314350D01*
X155859560Y-99851796D01*
X155859560Y-101434000D01*
X155908843Y-101681765D01*
X156049191Y-101891809D01*
X156259235Y-102032157D01*
X156362708Y-102052739D01*
X156085355Y-102357076D01*
X155915524Y-102767110D01*
X156036845Y-102997000D01*
X157230000Y-102997000D01*
X157230000Y-102977000D01*
X157484000Y-102977000D01*
X157484000Y-102997000D01*
X158677155Y-102997000D01*
X158798476Y-102767110D01*
X158628645Y-102357076D01*
X158351292Y-102052739D01*
X158454765Y-102032157D01*
X158664809Y-101891809D01*
X158805157Y-101681765D01*
X158854440Y-101434000D01*
X158854440Y-99734000D01*
X158805157Y-99486235D01*
X158664809Y-99276191D01*
X158454765Y-99135843D01*
X158207000Y-99086560D01*
X157608796Y-99086560D01*
X152062531Y-93540296D01*
X152012933Y-93466067D01*
X151718870Y-93269581D01*
X151484790Y-93223019D01*
X151462157Y-93109235D01*
X151321809Y-92899191D01*
X151111765Y-92758843D01*
X150864000Y-92709560D01*
X150859600Y-92709560D01*
X150859600Y-91249758D01*
X151115123Y-91079023D01*
X151240600Y-90891233D01*
X151366077Y-91079023D01*
X151891190Y-91429891D01*
X152510600Y-91553100D01*
X153130011Y-91429891D01*
X153655123Y-91079023D01*
X153857596Y-90776000D01*
X156466604Y-90776000D01*
X156794138Y-91103534D01*
X157321561Y-91322000D01*
X157892439Y-91322000D01*
X158419862Y-91103534D01*
X158823534Y-90699862D01*
X159042000Y-90172439D01*
X159042000Y-89601561D01*
X158823534Y-89074138D01*
X158419862Y-88670466D01*
X157892439Y-88452000D01*
X157321561Y-88452000D01*
X156794138Y-88670466D01*
X156466604Y-88998000D01*
X153857596Y-88998000D01*
X153655123Y-88694977D01*
X153130010Y-88344109D01*
X152510600Y-88220900D01*
X152209190Y-88280854D01*
X149823081Y-85894745D01*
X156778861Y-85894745D01*
X156852995Y-86140864D01*
X157390223Y-86333965D01*
X157960454Y-86306778D01*
X158361005Y-86140864D01*
X158435139Y-85894745D01*
X157607000Y-85066605D01*
X156778861Y-85894745D01*
X149823081Y-85894745D01*
X148598559Y-84670223D01*
X156160035Y-84670223D01*
X156187222Y-85240454D01*
X156353136Y-85641005D01*
X156599255Y-85715139D01*
X157427395Y-84887000D01*
X157786605Y-84887000D01*
X158614745Y-85715139D01*
X158860864Y-85641005D01*
X159053965Y-85103777D01*
X159026778Y-84533546D01*
X158860864Y-84132995D01*
X158614745Y-84058861D01*
X157786605Y-84887000D01*
X157427395Y-84887000D01*
X156599255Y-84058861D01*
X156353136Y-84132995D01*
X156160035Y-84670223D01*
X148598559Y-84670223D01*
X147807591Y-83879255D01*
X156778861Y-83879255D01*
X157607000Y-84707395D01*
X158435139Y-83879255D01*
X158361005Y-83633136D01*
X157823777Y-83440035D01*
X157253546Y-83467222D01*
X156852995Y-83633136D01*
X156778861Y-83879255D01*
X147807591Y-83879255D01*
X145053111Y-81124776D01*
X145003513Y-81050547D01*
X144709450Y-80854061D01*
X144450136Y-80802480D01*
X144450135Y-80802480D01*
X144362580Y-80785064D01*
X144275025Y-80802480D01*
X140831968Y-80802480D01*
X140544639Y-80108806D01*
X139758674Y-79322841D01*
X138731761Y-78897480D01*
X137620239Y-78897480D01*
X136593326Y-79322841D01*
X135989808Y-79926359D01*
X136271000Y-79247501D01*
X136271000Y-78135979D01*
X136082869Y-77681790D01*
X136365815Y-77681790D01*
X136605963Y-78069035D01*
X137635127Y-78488921D01*
X138746634Y-78483001D01*
X139746037Y-78069035D01*
X139986185Y-77681790D01*
X138176000Y-75871605D01*
X136365815Y-77681790D01*
X136082869Y-77681790D01*
X135947037Y-77353863D01*
X136186210Y-77502185D01*
X137996395Y-75692000D01*
X138355605Y-75692000D01*
X140165790Y-77502185D01*
X140553035Y-77262037D01*
X140972921Y-76232873D01*
X140967001Y-75121366D01*
X140553035Y-74121963D01*
X140165790Y-73881815D01*
X138355605Y-75692000D01*
X137996395Y-75692000D01*
X136186210Y-73881815D01*
X135798965Y-74121963D01*
X135379079Y-75151127D01*
X135384999Y-76262634D01*
X135657795Y-76921222D01*
X135059674Y-76323101D01*
X134032761Y-75897740D01*
X132921239Y-75897740D01*
X131894326Y-76323101D01*
X131108361Y-77109066D01*
X130683000Y-78135979D01*
X130683000Y-79247501D01*
X131108361Y-80274414D01*
X131894326Y-81060379D01*
X132921239Y-81485740D01*
X134032761Y-81485740D01*
X135059674Y-81060379D01*
X135663192Y-80456861D01*
X135382000Y-81135719D01*
X135382000Y-82247241D01*
X135807361Y-83274154D01*
X136593326Y-84060119D01*
X137287000Y-84347448D01*
X137287000Y-85066631D01*
X133925348Y-88428284D01*
X133462144Y-88428284D01*
X132934721Y-88646750D01*
X132607187Y-88974284D01*
X129998179Y-88974284D01*
X129795706Y-88671261D01*
X129270593Y-88320393D01*
X128651183Y-88197184D01*
X128031772Y-88320393D01*
X127506660Y-88671261D01*
X127381183Y-88859051D01*
X127255706Y-88671261D01*
X127000183Y-88500527D01*
X127000183Y-88442838D01*
X127017599Y-88355283D01*
X126992851Y-88230870D01*
X126948602Y-88008414D01*
X126752116Y-87714351D01*
X126677890Y-87664755D01*
X124909714Y-85896580D01*
X124892642Y-85871029D01*
X132919444Y-85871029D01*
X132993578Y-86117148D01*
X133530806Y-86310249D01*
X134101037Y-86283062D01*
X134501588Y-86117148D01*
X134575722Y-85871029D01*
X133747583Y-85042889D01*
X132919444Y-85871029D01*
X124892642Y-85871029D01*
X124860116Y-85822351D01*
X124566053Y-85625865D01*
X124306739Y-85574284D01*
X124306738Y-85574284D01*
X124219183Y-85556868D01*
X124131628Y-85574284D01*
X118004520Y-85574284D01*
X117972940Y-85415519D01*
X117832592Y-85205475D01*
X117622548Y-85065127D01*
X117463783Y-85033547D01*
X117463783Y-84646507D01*
X132300618Y-84646507D01*
X132327805Y-85216738D01*
X132493719Y-85617289D01*
X132739838Y-85691423D01*
X133567978Y-84863284D01*
X133927188Y-84863284D01*
X134755328Y-85691423D01*
X135001447Y-85617289D01*
X135194548Y-85080061D01*
X135167361Y-84509830D01*
X135001447Y-84109279D01*
X134755328Y-84035145D01*
X133927188Y-84863284D01*
X133567978Y-84863284D01*
X132739838Y-84035145D01*
X132493719Y-84109279D01*
X132300618Y-84646507D01*
X117463783Y-84646507D01*
X117463783Y-83855539D01*
X132919444Y-83855539D01*
X133747583Y-84683679D01*
X134575722Y-83855539D01*
X134501588Y-83609420D01*
X133964360Y-83416319D01*
X133394129Y-83443506D01*
X132993578Y-83609420D01*
X132919444Y-83855539D01*
X117463783Y-83855539D01*
X117463783Y-77165333D01*
X117481198Y-77077782D01*
X117463783Y-76990231D01*
X117463783Y-76990227D01*
X117412202Y-76730913D01*
X117215716Y-76436850D01*
X117141490Y-76387254D01*
X113957520Y-73203284D01*
X123679459Y-73203284D01*
X123864563Y-74133864D01*
X124391694Y-74922773D01*
X125180603Y-75449904D01*
X125876286Y-75588284D01*
X126346080Y-75588284D01*
X127041763Y-75449904D01*
X127830672Y-74922773D01*
X128357803Y-74133864D01*
X128443664Y-73702210D01*
X136365815Y-73702210D01*
X138176000Y-75512395D01*
X139986185Y-73702210D01*
X139746037Y-73314965D01*
X139530430Y-73227000D01*
X147538876Y-73227000D01*
X147723980Y-74157580D01*
X148251111Y-74946489D01*
X149040020Y-75473620D01*
X149735703Y-75612000D01*
X150205497Y-75612000D01*
X150901180Y-75473620D01*
X151690089Y-74946489D01*
X152217220Y-74157580D01*
X152402324Y-73227000D01*
X152217220Y-72296420D01*
X151690089Y-71507511D01*
X150901180Y-70980380D01*
X150205497Y-70842000D01*
X149735703Y-70842000D01*
X149040020Y-70980380D01*
X148251111Y-71507511D01*
X147723980Y-72296420D01*
X147538876Y-73227000D01*
X139530430Y-73227000D01*
X138716873Y-72895079D01*
X137605366Y-72900999D01*
X136605963Y-73314965D01*
X136365815Y-73702210D01*
X128443664Y-73702210D01*
X128542907Y-73203284D01*
X128357803Y-72272704D01*
X127830672Y-71483795D01*
X127041763Y-70956664D01*
X126346080Y-70818284D01*
X125876286Y-70818284D01*
X125180603Y-70956664D01*
X124391694Y-71483795D01*
X123864563Y-72272704D01*
X123679459Y-73203284D01*
X113957520Y-73203284D01*
X112306000Y-71551765D01*
X112306000Y-71088561D01*
X112087534Y-70561138D01*
X111683862Y-70157466D01*
X111156439Y-69939000D01*
X110585561Y-69939000D01*
X110058138Y-70157466D01*
X109919235Y-70296369D01*
X109198360Y-69575495D01*
X109148762Y-69501266D01*
X108854699Y-69304780D01*
X108595385Y-69253199D01*
X108595384Y-69253199D01*
X108507829Y-69235783D01*
X108420274Y-69253199D01*
X94573114Y-69253199D01*
X94485559Y-69235783D01*
X94398004Y-69253199D01*
X94398003Y-69253199D01*
X94138689Y-69304780D01*
X93844626Y-69501266D01*
X93795030Y-69575492D01*
X90631097Y-72739426D01*
X90556868Y-72789024D01*
X90360382Y-73083088D01*
X90331756Y-73227000D01*
X90291385Y-73429957D01*
X90308801Y-73517512D01*
X90308802Y-85951378D01*
X90272892Y-85934514D01*
X90043000Y-86055181D01*
X90043000Y-87249000D01*
X90063000Y-87249000D01*
X90063000Y-87503000D01*
X90043000Y-87503000D01*
X90043000Y-87523000D01*
X89789000Y-87523000D01*
X89789000Y-87503000D01*
X88595845Y-87503000D01*
X88474524Y-87732890D01*
X88644355Y-88142924D01*
X89034642Y-88571183D01*
X89164478Y-88632157D01*
X88845375Y-88845375D01*
X88517161Y-89336582D01*
X88401908Y-89916000D01*
X88517161Y-90495418D01*
X88845375Y-90986625D01*
X89143761Y-91186000D01*
X88845375Y-91385375D01*
X88517161Y-91876582D01*
X88401908Y-92456000D01*
X88517161Y-93035418D01*
X88845375Y-93526625D01*
X89143761Y-93726000D01*
X88845375Y-93925375D01*
X88517161Y-94416582D01*
X88401908Y-94996000D01*
X88483261Y-95404990D01*
X88337841Y-95550410D01*
X88277397Y-95590798D01*
X88237010Y-95651242D01*
X88117400Y-95830250D01*
X88111000Y-95862425D01*
X88111000Y-87019110D01*
X88474524Y-87019110D01*
X88595845Y-87249000D01*
X89789000Y-87249000D01*
X89789000Y-86055181D01*
X89559108Y-85934514D01*
X89034642Y-86180817D01*
X88644355Y-86609076D01*
X88474524Y-87019110D01*
X88111000Y-87019110D01*
X88111000Y-71967767D01*
X88395974Y-72252741D01*
X89217431Y-72593000D01*
X90106569Y-72593000D01*
X90928026Y-72252741D01*
X91556741Y-71624026D01*
X91897000Y-70802569D01*
X91897000Y-69913431D01*
X91556741Y-69091974D01*
X91271767Y-68807000D01*
X156124233Y-68807000D01*
X155839259Y-69091974D01*
G36*
X115685784Y-77446020D02*
X115685783Y-85033547D01*
X115527018Y-85065127D01*
X115316974Y-85205475D01*
X115176626Y-85415519D01*
X115127343Y-85663284D01*
X115127343Y-87263284D01*
X115176626Y-87511049D01*
X115316974Y-87721093D01*
X115527018Y-87861441D01*
X115760970Y-87907977D01*
X115746644Y-87955539D01*
X116574783Y-88783679D01*
X117402922Y-87955539D01*
X117388596Y-87907977D01*
X117622548Y-87861441D01*
X117832592Y-87721093D01*
X117972940Y-87511049D01*
X118004520Y-87352284D01*
X123850948Y-87352284D01*
X124781363Y-88282700D01*
X124649992Y-88228284D01*
X123856933Y-88228284D01*
X123698183Y-88387034D01*
X123698183Y-89736284D01*
X123718183Y-89736284D01*
X123718183Y-89990284D01*
X123698183Y-89990284D01*
X123698183Y-91339534D01*
X123856933Y-91498284D01*
X124649992Y-91498284D01*
X124883381Y-91401611D01*
X125062010Y-91222983D01*
X125095739Y-91141554D01*
X125222183Y-91226042D01*
X125222184Y-92721813D01*
X125036018Y-92758843D01*
X124825974Y-92899191D01*
X124685626Y-93109235D01*
X124636343Y-93357000D01*
X124636343Y-94857000D01*
X124685626Y-95104765D01*
X124825974Y-95314809D01*
X125036018Y-95455157D01*
X125149803Y-95477790D01*
X125196365Y-95711870D01*
X125392851Y-96005933D01*
X125467077Y-96055529D01*
X133640547Y-104229000D01*
X133462667Y-104229000D01*
X133044091Y-104312260D01*
X132569423Y-104629423D01*
X132334000Y-104981758D01*
X132098577Y-104629423D01*
X131623909Y-104312260D01*
X131205333Y-104229000D01*
X130922667Y-104229000D01*
X130504091Y-104312260D01*
X130029423Y-104629423D01*
X129794000Y-104981758D01*
X129558577Y-104629423D01*
X129083909Y-104312260D01*
X128665333Y-104229000D01*
X128382667Y-104229000D01*
X127964091Y-104312260D01*
X127489423Y-104629423D01*
X127254000Y-104981758D01*
X127018577Y-104629423D01*
X126543909Y-104312260D01*
X126125333Y-104229000D01*
X125842667Y-104229000D01*
X125424091Y-104312260D01*
X124949423Y-104629423D01*
X124714000Y-104981758D01*
X124478577Y-104629423D01*
X124003909Y-104312260D01*
X123585333Y-104229000D01*
X123302667Y-104229000D01*
X122884091Y-104312260D01*
X122409423Y-104629423D01*
X122174000Y-104981758D01*
X121938577Y-104629423D01*
X121463909Y-104312260D01*
X121045333Y-104229000D01*
X120762667Y-104229000D01*
X120344091Y-104312260D01*
X119869423Y-104629423D01*
X119634000Y-104981758D01*
X119398577Y-104629423D01*
X118923909Y-104312260D01*
X118505333Y-104229000D01*
X118222667Y-104229000D01*
X117804091Y-104312260D01*
X117329423Y-104629423D01*
X117073053Y-105013108D01*
X116976389Y-104808866D01*
X116561423Y-104432959D01*
X116173039Y-104272096D01*
X115951000Y-104394085D01*
X115951000Y-105537000D01*
X115971000Y-105537000D01*
X115971000Y-105791000D01*
X115951000Y-105791000D01*
X115951000Y-106933915D01*
X116028021Y-106976231D01*
X114295842Y-108708410D01*
X114235397Y-108748798D01*
X114195010Y-108809242D01*
X114075400Y-108988250D01*
X114019217Y-109270701D01*
X114033400Y-109342004D01*
X114033399Y-125607851D01*
X112306000Y-127335251D01*
X112306000Y-126968561D01*
X112087534Y-126441138D01*
X111683862Y-126037466D01*
X111554784Y-125984000D01*
X111683862Y-125930534D01*
X112087534Y-125526862D01*
X112306000Y-124999439D01*
X112306000Y-124428561D01*
X112087534Y-123901138D01*
X111683862Y-123497466D01*
X111554784Y-123444000D01*
X111683862Y-123390534D01*
X112087534Y-122986862D01*
X112306000Y-122459439D01*
X112306000Y-121888561D01*
X112087534Y-121361138D01*
X111683862Y-120957466D01*
X111554784Y-120904000D01*
X111683862Y-120850534D01*
X112087534Y-120446862D01*
X112306000Y-119919439D01*
X112306000Y-119348561D01*
X112087534Y-118821138D01*
X111683862Y-118417466D01*
X111554784Y-118364000D01*
X111683862Y-118310534D01*
X112087534Y-117906862D01*
X112306000Y-117379439D01*
X112306000Y-116808561D01*
X112087534Y-116281138D01*
X111683862Y-115877466D01*
X111554784Y-115824000D01*
X111683862Y-115770534D01*
X112087534Y-115366862D01*
X112306000Y-114839439D01*
X112306000Y-114268561D01*
X112087534Y-113741138D01*
X111683862Y-113337466D01*
X111554784Y-113284000D01*
X111683862Y-113230534D01*
X112087534Y-112826862D01*
X112306000Y-112299439D01*
X112306000Y-111728561D01*
X112087534Y-111201138D01*
X111683862Y-110797466D01*
X111554784Y-110744000D01*
X111683862Y-110690534D01*
X112087534Y-110286862D01*
X112306000Y-109759439D01*
X112306000Y-109188561D01*
X112087534Y-108661138D01*
X111683862Y-108257466D01*
X111554784Y-108204000D01*
X111683862Y-108150534D01*
X112087534Y-107746862D01*
X112306000Y-107219439D01*
X112306000Y-106648561D01*
X112087534Y-106121138D01*
X111979437Y-106013041D01*
X114432086Y-106013041D01*
X114671611Y-106519134D01*
X115086577Y-106895041D01*
X115474961Y-107055904D01*
X115697000Y-106933915D01*
X115697000Y-105791000D01*
X114553371Y-105791000D01*
X114432086Y-106013041D01*
X111979437Y-106013041D01*
X111683862Y-105717466D01*
X111554784Y-105664000D01*
X111683862Y-105610534D01*
X111979437Y-105314959D01*
X114432086Y-105314959D01*
X114553371Y-105537000D01*
X115697000Y-105537000D01*
X115697000Y-104394085D01*
X115474961Y-104272096D01*
X115086577Y-104432959D01*
X114671611Y-104808866D01*
X114432086Y-105314959D01*
X111979437Y-105314959D01*
X112087534Y-105206862D01*
X112306000Y-104679439D01*
X112306000Y-104108561D01*
X112087534Y-103581138D01*
X111683862Y-103177466D01*
X111554784Y-103124000D01*
X111683862Y-103070534D01*
X112087534Y-102666862D01*
X112306000Y-102139439D01*
X112306000Y-101568561D01*
X112087534Y-101041138D01*
X111683862Y-100637466D01*
X111554784Y-100584000D01*
X111683862Y-100530534D01*
X112087534Y-100126862D01*
X112306000Y-99599439D01*
X112306000Y-99028561D01*
X112087534Y-98501138D01*
X111683862Y-98097466D01*
X111554784Y-98044000D01*
X111683862Y-97990534D01*
X112087534Y-97586862D01*
X112306000Y-97059439D01*
X112306000Y-96488561D01*
X112087534Y-95961138D01*
X111683862Y-95557466D01*
X111554784Y-95504000D01*
X111683862Y-95450534D01*
X112087534Y-95046862D01*
X112306000Y-94519439D01*
X112306000Y-93948561D01*
X112087534Y-93421138D01*
X111683862Y-93017466D01*
X111554784Y-92964000D01*
X111683862Y-92910534D01*
X112087534Y-92506862D01*
X112306000Y-91979439D01*
X112306000Y-91408561D01*
X112087534Y-90881138D01*
X111683862Y-90477466D01*
X111554784Y-90424000D01*
X111683862Y-90370534D01*
X112083367Y-89971029D01*
X115746644Y-89971029D01*
X115820778Y-90217148D01*
X116358006Y-90410249D01*
X116928237Y-90383062D01*
X117328788Y-90217148D01*
X117349304Y-90149034D01*
X121983683Y-90149034D01*
X121983683Y-90989594D01*
X122080356Y-91222983D01*
X122258985Y-91401611D01*
X122492374Y-91498284D01*
X123285433Y-91498284D01*
X123444183Y-91339534D01*
X123444183Y-89990284D01*
X122142433Y-89990284D01*
X121983683Y-90149034D01*
X117349304Y-90149034D01*
X117402922Y-89971029D01*
X116574783Y-89142889D01*
X115746644Y-89971029D01*
X112083367Y-89971029D01*
X112087534Y-89966862D01*
X112306000Y-89439439D01*
X112306000Y-88868561D01*
X112255444Y-88746507D01*
X115127818Y-88746507D01*
X115155005Y-89316738D01*
X115320919Y-89717289D01*
X115567038Y-89791423D01*
X116395178Y-88963284D01*
X116754388Y-88963284D01*
X117582528Y-89791423D01*
X117828647Y-89717289D01*
X118021748Y-89180061D01*
X118000623Y-88736974D01*
X121983683Y-88736974D01*
X121983683Y-89577534D01*
X122142433Y-89736284D01*
X123444183Y-89736284D01*
X123444183Y-88387034D01*
X123285433Y-88228284D01*
X122492374Y-88228284D01*
X122258985Y-88324957D01*
X122080356Y-88503585D01*
X121983683Y-88736974D01*
X118000623Y-88736974D01*
X117994561Y-88609830D01*
X117828647Y-88209279D01*
X117582528Y-88135145D01*
X116754388Y-88963284D01*
X116395178Y-88963284D01*
X115567038Y-88135145D01*
X115320919Y-88209279D01*
X115127818Y-88746507D01*
X112255444Y-88746507D01*
X112087534Y-88341138D01*
X111683862Y-87937466D01*
X111554784Y-87884000D01*
X111683862Y-87830534D01*
X112087534Y-87426862D01*
X112306000Y-86899439D01*
X112306000Y-86328561D01*
X112087534Y-85801138D01*
X111683862Y-85397466D01*
X111554784Y-85344000D01*
X111683862Y-85290534D01*
X112087534Y-84886862D01*
X112306000Y-84359439D01*
X112306000Y-83788561D01*
X112087534Y-83261138D01*
X111683862Y-82857466D01*
X111554784Y-82804000D01*
X111683862Y-82750534D01*
X112087534Y-82346862D01*
X112306000Y-81819439D01*
X112306000Y-81248561D01*
X112087534Y-80721138D01*
X111683862Y-80317466D01*
X111554784Y-80264000D01*
X111683862Y-80210534D01*
X112087534Y-79806862D01*
X112306000Y-79279439D01*
X112306000Y-78708561D01*
X112087534Y-78181138D01*
X111683862Y-77777466D01*
X111554784Y-77724000D01*
X111683862Y-77670534D01*
X112087534Y-77266862D01*
X112306000Y-76739439D01*
X112306000Y-76168561D01*
X112087534Y-75641138D01*
X111683862Y-75237466D01*
X111554784Y-75184000D01*
X111683862Y-75130534D01*
X112087534Y-74726862D01*
X112306000Y-74199439D01*
X112306000Y-74066235D01*
X115685784Y-77446020D01*
X115685784Y-77446020D01*
G37*
X115685784Y-77446020D02*
X115685783Y-85033547D01*
X115527018Y-85065127D01*
X115316974Y-85205475D01*
X115176626Y-85415519D01*
X115127343Y-85663284D01*
X115127343Y-87263284D01*
X115176626Y-87511049D01*
X115316974Y-87721093D01*
X115527018Y-87861441D01*
X115760970Y-87907977D01*
X115746644Y-87955539D01*
X116574783Y-88783679D01*
X117402922Y-87955539D01*
X117388596Y-87907977D01*
X117622548Y-87861441D01*
X117832592Y-87721093D01*
X117972940Y-87511049D01*
X118004520Y-87352284D01*
X123850948Y-87352284D01*
X124781363Y-88282700D01*
X124649992Y-88228284D01*
X123856933Y-88228284D01*
X123698183Y-88387034D01*
X123698183Y-89736284D01*
X123718183Y-89736284D01*
X123718183Y-89990284D01*
X123698183Y-89990284D01*
X123698183Y-91339534D01*
X123856933Y-91498284D01*
X124649992Y-91498284D01*
X124883381Y-91401611D01*
X125062010Y-91222983D01*
X125095739Y-91141554D01*
X125222183Y-91226042D01*
X125222184Y-92721813D01*
X125036018Y-92758843D01*
X124825974Y-92899191D01*
X124685626Y-93109235D01*
X124636343Y-93357000D01*
X124636343Y-94857000D01*
X124685626Y-95104765D01*
X124825974Y-95314809D01*
X125036018Y-95455157D01*
X125149803Y-95477790D01*
X125196365Y-95711870D01*
X125392851Y-96005933D01*
X125467077Y-96055529D01*
X133640547Y-104229000D01*
X133462667Y-104229000D01*
X133044091Y-104312260D01*
X132569423Y-104629423D01*
X132334000Y-104981758D01*
X132098577Y-104629423D01*
X131623909Y-104312260D01*
X131205333Y-104229000D01*
X130922667Y-104229000D01*
X130504091Y-104312260D01*
X130029423Y-104629423D01*
X129794000Y-104981758D01*
X129558577Y-104629423D01*
X129083909Y-104312260D01*
X128665333Y-104229000D01*
X128382667Y-104229000D01*
X127964091Y-104312260D01*
X127489423Y-104629423D01*
X127254000Y-104981758D01*
X127018577Y-104629423D01*
X126543909Y-104312260D01*
X126125333Y-104229000D01*
X125842667Y-104229000D01*
X125424091Y-104312260D01*
X124949423Y-104629423D01*
X124714000Y-104981758D01*
X124478577Y-104629423D01*
X124003909Y-104312260D01*
X123585333Y-104229000D01*
X123302667Y-104229000D01*
X122884091Y-104312260D01*
X122409423Y-104629423D01*
X122174000Y-104981758D01*
X121938577Y-104629423D01*
X121463909Y-104312260D01*
X121045333Y-104229000D01*
X120762667Y-104229000D01*
X120344091Y-104312260D01*
X119869423Y-104629423D01*
X119634000Y-104981758D01*
X119398577Y-104629423D01*
X118923909Y-104312260D01*
X118505333Y-104229000D01*
X118222667Y-104229000D01*
X117804091Y-104312260D01*
X117329423Y-104629423D01*
X117073053Y-105013108D01*
X116976389Y-104808866D01*
X116561423Y-104432959D01*
X116173039Y-104272096D01*
X115951000Y-104394085D01*
X115951000Y-105537000D01*
X115971000Y-105537000D01*
X115971000Y-105791000D01*
X115951000Y-105791000D01*
X115951000Y-106933915D01*
X116028021Y-106976231D01*
X114295842Y-108708410D01*
X114235397Y-108748798D01*
X114195010Y-108809242D01*
X114075400Y-108988250D01*
X114019217Y-109270701D01*
X114033400Y-109342004D01*
X114033399Y-125607851D01*
X112306000Y-127335251D01*
X112306000Y-126968561D01*
X112087534Y-126441138D01*
X111683862Y-126037466D01*
X111554784Y-125984000D01*
X111683862Y-125930534D01*
X112087534Y-125526862D01*
X112306000Y-124999439D01*
X112306000Y-124428561D01*
X112087534Y-123901138D01*
X111683862Y-123497466D01*
X111554784Y-123444000D01*
X111683862Y-123390534D01*
X112087534Y-122986862D01*
X112306000Y-122459439D01*
X112306000Y-121888561D01*
X112087534Y-121361138D01*
X111683862Y-120957466D01*
X111554784Y-120904000D01*
X111683862Y-120850534D01*
X112087534Y-120446862D01*
X112306000Y-119919439D01*
X112306000Y-119348561D01*
X112087534Y-118821138D01*
X111683862Y-118417466D01*
X111554784Y-118364000D01*
X111683862Y-118310534D01*
X112087534Y-117906862D01*
X112306000Y-117379439D01*
X112306000Y-116808561D01*
X112087534Y-116281138D01*
X111683862Y-115877466D01*
X111554784Y-115824000D01*
X111683862Y-115770534D01*
X112087534Y-115366862D01*
X112306000Y-114839439D01*
X112306000Y-114268561D01*
X112087534Y-113741138D01*
X111683862Y-113337466D01*
X111554784Y-113284000D01*
X111683862Y-113230534D01*
X112087534Y-112826862D01*
X112306000Y-112299439D01*
X112306000Y-111728561D01*
X112087534Y-111201138D01*
X111683862Y-110797466D01*
X111554784Y-110744000D01*
X111683862Y-110690534D01*
X112087534Y-110286862D01*
X112306000Y-109759439D01*
X112306000Y-109188561D01*
X112087534Y-108661138D01*
X111683862Y-108257466D01*
X111554784Y-108204000D01*
X111683862Y-108150534D01*
X112087534Y-107746862D01*
X112306000Y-107219439D01*
X112306000Y-106648561D01*
X112087534Y-106121138D01*
X111979437Y-106013041D01*
X114432086Y-106013041D01*
X114671611Y-106519134D01*
X115086577Y-106895041D01*
X115474961Y-107055904D01*
X115697000Y-106933915D01*
X115697000Y-105791000D01*
X114553371Y-105791000D01*
X114432086Y-106013041D01*
X111979437Y-106013041D01*
X111683862Y-105717466D01*
X111554784Y-105664000D01*
X111683862Y-105610534D01*
X111979437Y-105314959D01*
X114432086Y-105314959D01*
X114553371Y-105537000D01*
X115697000Y-105537000D01*
X115697000Y-104394085D01*
X115474961Y-104272096D01*
X115086577Y-104432959D01*
X114671611Y-104808866D01*
X114432086Y-105314959D01*
X111979437Y-105314959D01*
X112087534Y-105206862D01*
X112306000Y-104679439D01*
X112306000Y-104108561D01*
X112087534Y-103581138D01*
X111683862Y-103177466D01*
X111554784Y-103124000D01*
X111683862Y-103070534D01*
X112087534Y-102666862D01*
X112306000Y-102139439D01*
X112306000Y-101568561D01*
X112087534Y-101041138D01*
X111683862Y-100637466D01*
X111554784Y-100584000D01*
X111683862Y-100530534D01*
X112087534Y-100126862D01*
X112306000Y-99599439D01*
X112306000Y-99028561D01*
X112087534Y-98501138D01*
X111683862Y-98097466D01*
X111554784Y-98044000D01*
X111683862Y-97990534D01*
X112087534Y-97586862D01*
X112306000Y-97059439D01*
X112306000Y-96488561D01*
X112087534Y-95961138D01*
X111683862Y-95557466D01*
X111554784Y-95504000D01*
X111683862Y-95450534D01*
X112087534Y-95046862D01*
X112306000Y-94519439D01*
X112306000Y-93948561D01*
X112087534Y-93421138D01*
X111683862Y-93017466D01*
X111554784Y-92964000D01*
X111683862Y-92910534D01*
X112087534Y-92506862D01*
X112306000Y-91979439D01*
X112306000Y-91408561D01*
X112087534Y-90881138D01*
X111683862Y-90477466D01*
X111554784Y-90424000D01*
X111683862Y-90370534D01*
X112083367Y-89971029D01*
X115746644Y-89971029D01*
X115820778Y-90217148D01*
X116358006Y-90410249D01*
X116928237Y-90383062D01*
X117328788Y-90217148D01*
X117349304Y-90149034D01*
X121983683Y-90149034D01*
X121983683Y-90989594D01*
X122080356Y-91222983D01*
X122258985Y-91401611D01*
X122492374Y-91498284D01*
X123285433Y-91498284D01*
X123444183Y-91339534D01*
X123444183Y-89990284D01*
X122142433Y-89990284D01*
X121983683Y-90149034D01*
X117349304Y-90149034D01*
X117402922Y-89971029D01*
X116574783Y-89142889D01*
X115746644Y-89971029D01*
X112083367Y-89971029D01*
X112087534Y-89966862D01*
X112306000Y-89439439D01*
X112306000Y-88868561D01*
X112255444Y-88746507D01*
X115127818Y-88746507D01*
X115155005Y-89316738D01*
X115320919Y-89717289D01*
X115567038Y-89791423D01*
X116395178Y-88963284D01*
X116754388Y-88963284D01*
X117582528Y-89791423D01*
X117828647Y-89717289D01*
X118021748Y-89180061D01*
X118000623Y-88736974D01*
X121983683Y-88736974D01*
X121983683Y-89577534D01*
X122142433Y-89736284D01*
X123444183Y-89736284D01*
X123444183Y-88387034D01*
X123285433Y-88228284D01*
X122492374Y-88228284D01*
X122258985Y-88324957D01*
X122080356Y-88503585D01*
X121983683Y-88736974D01*
X118000623Y-88736974D01*
X117994561Y-88609830D01*
X117828647Y-88209279D01*
X117582528Y-88135145D01*
X116754388Y-88963284D01*
X116395178Y-88963284D01*
X115567038Y-88135145D01*
X115320919Y-88209279D01*
X115127818Y-88746507D01*
X112255444Y-88746507D01*
X112087534Y-88341138D01*
X111683862Y-87937466D01*
X111554784Y-87884000D01*
X111683862Y-87830534D01*
X112087534Y-87426862D01*
X112306000Y-86899439D01*
X112306000Y-86328561D01*
X112087534Y-85801138D01*
X111683862Y-85397466D01*
X111554784Y-85344000D01*
X111683862Y-85290534D01*
X112087534Y-84886862D01*
X112306000Y-84359439D01*
X112306000Y-83788561D01*
X112087534Y-83261138D01*
X111683862Y-82857466D01*
X111554784Y-82804000D01*
X111683862Y-82750534D01*
X112087534Y-82346862D01*
X112306000Y-81819439D01*
X112306000Y-81248561D01*
X112087534Y-80721138D01*
X111683862Y-80317466D01*
X111554784Y-80264000D01*
X111683862Y-80210534D01*
X112087534Y-79806862D01*
X112306000Y-79279439D01*
X112306000Y-78708561D01*
X112087534Y-78181138D01*
X111683862Y-77777466D01*
X111554784Y-77724000D01*
X111683862Y-77670534D01*
X112087534Y-77266862D01*
X112306000Y-76739439D01*
X112306000Y-76168561D01*
X112087534Y-75641138D01*
X111683862Y-75237466D01*
X111554784Y-75184000D01*
X111683862Y-75130534D01*
X112087534Y-74726862D01*
X112306000Y-74199439D01*
X112306000Y-74066235D01*
X115685784Y-77446020D01*
G36*
X109049100Y-71940706D02*
X109098697Y-72014933D01*
X109172923Y-72064529D01*
X109392759Y-72211419D01*
X109739630Y-72280416D01*
X109746628Y-72279024D01*
X110058138Y-72590534D01*
X110187216Y-72644000D01*
X110058138Y-72697466D01*
X109654466Y-73101138D01*
X109436000Y-73628561D01*
X109436000Y-74199439D01*
X109654466Y-74726862D01*
X110058138Y-75130534D01*
X110187216Y-75184000D01*
X110058138Y-75237466D01*
X109654466Y-75641138D01*
X109436000Y-76168561D01*
X109436000Y-76739439D01*
X109654466Y-77266862D01*
X110058138Y-77670534D01*
X110187216Y-77724000D01*
X110058138Y-77777466D01*
X109654466Y-78181138D01*
X109436000Y-78708561D01*
X109436000Y-79279439D01*
X109654466Y-79806862D01*
X110058138Y-80210534D01*
X110187216Y-80264000D01*
X110058138Y-80317466D01*
X109654466Y-80721138D01*
X109436000Y-81248561D01*
X109436000Y-81819439D01*
X109654466Y-82346862D01*
X110058138Y-82750534D01*
X110187216Y-82804000D01*
X110058138Y-82857466D01*
X109654466Y-83261138D01*
X109436000Y-83788561D01*
X109436000Y-84359439D01*
X109654466Y-84886862D01*
X110058138Y-85290534D01*
X110187216Y-85344000D01*
X110058138Y-85397466D01*
X109654466Y-85801138D01*
X109436000Y-86328561D01*
X109436000Y-86899439D01*
X109654466Y-87426862D01*
X110058138Y-87830534D01*
X110187216Y-87884000D01*
X110058138Y-87937466D01*
X109654466Y-88341138D01*
X109436000Y-88868561D01*
X109436000Y-89439439D01*
X109654466Y-89966862D01*
X110058138Y-90370534D01*
X110187216Y-90424000D01*
X110058138Y-90477466D01*
X109654466Y-90881138D01*
X109436000Y-91408561D01*
X109436000Y-91979439D01*
X109654466Y-92506862D01*
X110058138Y-92910534D01*
X110187216Y-92964000D01*
X110058138Y-93017466D01*
X109654466Y-93421138D01*
X109436000Y-93948561D01*
X109436000Y-94519439D01*
X109654466Y-95046862D01*
X110058138Y-95450534D01*
X110187216Y-95504000D01*
X110058138Y-95557466D01*
X109654466Y-95961138D01*
X109436000Y-96488561D01*
X109436000Y-97059439D01*
X109654466Y-97586862D01*
X110058138Y-97990534D01*
X110187216Y-98044000D01*
X110058138Y-98097466D01*
X109654466Y-98501138D01*
X109436000Y-99028561D01*
X109436000Y-99599439D01*
X109654466Y-100126862D01*
X110058138Y-100530534D01*
X110187216Y-100584000D01*
X110058138Y-100637466D01*
X109654466Y-101041138D01*
X109436000Y-101568561D01*
X109436000Y-101935250D01*
X100206592Y-92705844D01*
X100166202Y-92645396D01*
X99926751Y-92485400D01*
X99715597Y-92443399D01*
X99644299Y-92429217D01*
X99573001Y-92443399D01*
X96873821Y-92443399D01*
X97066000Y-91979439D01*
X97066000Y-91408561D01*
X96847534Y-90881138D01*
X96443862Y-90477466D01*
X96314784Y-90424000D01*
X96443862Y-90370534D01*
X96847534Y-89966862D01*
X97066000Y-89439439D01*
X97066000Y-88868561D01*
X96847534Y-88341138D01*
X96443862Y-87937466D01*
X96314784Y-87884000D01*
X96443862Y-87830534D01*
X96847534Y-87426862D01*
X97066000Y-86899439D01*
X97066000Y-86328561D01*
X96847534Y-85801138D01*
X96443862Y-85397466D01*
X96314784Y-85344000D01*
X96443862Y-85290534D01*
X96847534Y-84886862D01*
X97066000Y-84359439D01*
X97066000Y-83788561D01*
X96847534Y-83261138D01*
X96443862Y-82857466D01*
X96314784Y-82804000D01*
X96443862Y-82750534D01*
X96847534Y-82346862D01*
X97066000Y-81819439D01*
X97066000Y-81248561D01*
X96847534Y-80721138D01*
X96443862Y-80317466D01*
X96314784Y-80264000D01*
X96443862Y-80210534D01*
X96847534Y-79806862D01*
X97066000Y-79279439D01*
X97066000Y-78708561D01*
X96847534Y-78181138D01*
X96443862Y-77777466D01*
X96314784Y-77724000D01*
X96443862Y-77670534D01*
X96847534Y-77266862D01*
X97066000Y-76739439D01*
X97066000Y-76168561D01*
X96847534Y-75641138D01*
X96443862Y-75237466D01*
X96314784Y-75184000D01*
X96443862Y-75130534D01*
X96847534Y-74726862D01*
X97066000Y-74199439D01*
X97066000Y-73628561D01*
X96847534Y-73101138D01*
X96555396Y-72809000D01*
X96557310Y-72809000D01*
X96790699Y-72712327D01*
X96969327Y-72533698D01*
X97066000Y-72300309D01*
X97066000Y-71659750D01*
X96907250Y-71501000D01*
X95758000Y-71501000D01*
X95758000Y-71521000D01*
X95504000Y-71521000D01*
X95504000Y-71501000D01*
X95484000Y-71501000D01*
X95484000Y-71247000D01*
X95504000Y-71247000D01*
X95504000Y-71227000D01*
X95758000Y-71227000D01*
X95758000Y-71247000D01*
X96907250Y-71247000D01*
X97066000Y-71088250D01*
X97066000Y-71031199D01*
X108139594Y-71031199D01*
X109049100Y-71940706D01*
X109049100Y-71940706D01*
G37*
X109049100Y-71940706D02*
X109098697Y-72014933D01*
X109172923Y-72064529D01*
X109392759Y-72211419D01*
X109739630Y-72280416D01*
X109746628Y-72279024D01*
X110058138Y-72590534D01*
X110187216Y-72644000D01*
X110058138Y-72697466D01*
X109654466Y-73101138D01*
X109436000Y-73628561D01*
X109436000Y-74199439D01*
X109654466Y-74726862D01*
X110058138Y-75130534D01*
X110187216Y-75184000D01*
X110058138Y-75237466D01*
X109654466Y-75641138D01*
X109436000Y-76168561D01*
X109436000Y-76739439D01*
X109654466Y-77266862D01*
X110058138Y-77670534D01*
X110187216Y-77724000D01*
X110058138Y-77777466D01*
X109654466Y-78181138D01*
X109436000Y-78708561D01*
X109436000Y-79279439D01*
X109654466Y-79806862D01*
X110058138Y-80210534D01*
X110187216Y-80264000D01*
X110058138Y-80317466D01*
X109654466Y-80721138D01*
X109436000Y-81248561D01*
X109436000Y-81819439D01*
X109654466Y-82346862D01*
X110058138Y-82750534D01*
X110187216Y-82804000D01*
X110058138Y-82857466D01*
X109654466Y-83261138D01*
X109436000Y-83788561D01*
X109436000Y-84359439D01*
X109654466Y-84886862D01*
X110058138Y-85290534D01*
X110187216Y-85344000D01*
X110058138Y-85397466D01*
X109654466Y-85801138D01*
X109436000Y-86328561D01*
X109436000Y-86899439D01*
X109654466Y-87426862D01*
X110058138Y-87830534D01*
X110187216Y-87884000D01*
X110058138Y-87937466D01*
X109654466Y-88341138D01*
X109436000Y-88868561D01*
X109436000Y-89439439D01*
X109654466Y-89966862D01*
X110058138Y-90370534D01*
X110187216Y-90424000D01*
X110058138Y-90477466D01*
X109654466Y-90881138D01*
X109436000Y-91408561D01*
X109436000Y-91979439D01*
X109654466Y-92506862D01*
X110058138Y-92910534D01*
X110187216Y-92964000D01*
X110058138Y-93017466D01*
X109654466Y-93421138D01*
X109436000Y-93948561D01*
X109436000Y-94519439D01*
X109654466Y-95046862D01*
X110058138Y-95450534D01*
X110187216Y-95504000D01*
X110058138Y-95557466D01*
X109654466Y-95961138D01*
X109436000Y-96488561D01*
X109436000Y-97059439D01*
X109654466Y-97586862D01*
X110058138Y-97990534D01*
X110187216Y-98044000D01*
X110058138Y-98097466D01*
X109654466Y-98501138D01*
X109436000Y-99028561D01*
X109436000Y-99599439D01*
X109654466Y-100126862D01*
X110058138Y-100530534D01*
X110187216Y-100584000D01*
X110058138Y-100637466D01*
X109654466Y-101041138D01*
X109436000Y-101568561D01*
X109436000Y-101935250D01*
X100206592Y-92705844D01*
X100166202Y-92645396D01*
X99926751Y-92485400D01*
X99715597Y-92443399D01*
X99644299Y-92429217D01*
X99573001Y-92443399D01*
X96873821Y-92443399D01*
X97066000Y-91979439D01*
X97066000Y-91408561D01*
X96847534Y-90881138D01*
X96443862Y-90477466D01*
X96314784Y-90424000D01*
X96443862Y-90370534D01*
X96847534Y-89966862D01*
X97066000Y-89439439D01*
X97066000Y-88868561D01*
X96847534Y-88341138D01*
X96443862Y-87937466D01*
X96314784Y-87884000D01*
X96443862Y-87830534D01*
X96847534Y-87426862D01*
X97066000Y-86899439D01*
X97066000Y-86328561D01*
X96847534Y-85801138D01*
X96443862Y-85397466D01*
X96314784Y-85344000D01*
X96443862Y-85290534D01*
X96847534Y-84886862D01*
X97066000Y-84359439D01*
X97066000Y-83788561D01*
X96847534Y-83261138D01*
X96443862Y-82857466D01*
X96314784Y-82804000D01*
X96443862Y-82750534D01*
X96847534Y-82346862D01*
X97066000Y-81819439D01*
X97066000Y-81248561D01*
X96847534Y-80721138D01*
X96443862Y-80317466D01*
X96314784Y-80264000D01*
X96443862Y-80210534D01*
X96847534Y-79806862D01*
X97066000Y-79279439D01*
X97066000Y-78708561D01*
X96847534Y-78181138D01*
X96443862Y-77777466D01*
X96314784Y-77724000D01*
X96443862Y-77670534D01*
X96847534Y-77266862D01*
X97066000Y-76739439D01*
X97066000Y-76168561D01*
X96847534Y-75641138D01*
X96443862Y-75237466D01*
X96314784Y-75184000D01*
X96443862Y-75130534D01*
X96847534Y-74726862D01*
X97066000Y-74199439D01*
X97066000Y-73628561D01*
X96847534Y-73101138D01*
X96555396Y-72809000D01*
X96557310Y-72809000D01*
X96790699Y-72712327D01*
X96969327Y-72533698D01*
X97066000Y-72300309D01*
X97066000Y-71659750D01*
X96907250Y-71501000D01*
X95758000Y-71501000D01*
X95758000Y-71521000D01*
X95504000Y-71521000D01*
X95504000Y-71501000D01*
X95484000Y-71501000D01*
X95484000Y-71247000D01*
X95504000Y-71247000D01*
X95504000Y-71227000D01*
X95758000Y-71227000D01*
X95758000Y-71247000D01*
X96907250Y-71247000D01*
X97066000Y-71088250D01*
X97066000Y-71031199D01*
X108139594Y-71031199D01*
X109049100Y-71940706D01*
G04 #@! TD*
M02*
