G04 #@! TF.GenerationSoftware,KiCad,Pcbnew,(5.0.0)*
G04 #@! TF.CreationDate,2018-10-18T19:20:22-07:00*
G04 #@! TF.ProjectId,Genesynth,47656E6573796E74682E6B696361645F,v0*
G04 #@! TF.SameCoordinates,Original*
G04 #@! TF.FileFunction,Copper,L2,Bot,Signal*
G04 #@! TF.FilePolarity,Positive*
%FSLAX46Y46*%
G04 Gerber Fmt 4.6, Leading zero omitted, Abs format (unit mm)*
G04 Created by KiCad (PCBNEW (5.0.0)) date 10/18/18 19:20:22*
%MOMM*%
%LPD*%
G01*
G04 APERTURE LIST*
G04 #@! TA.AperFunction,ComponentPad*
%ADD10C,1.600000*%
G04 #@! TD*
G04 #@! TA.AperFunction,ComponentPad*
%ADD11O,1.600000X1.600000*%
G04 #@! TD*
G04 #@! TA.AperFunction,ComponentPad*
%ADD12R,1.700000X1.700000*%
G04 #@! TD*
G04 #@! TA.AperFunction,ComponentPad*
%ADD13O,1.700000X1.700000*%
G04 #@! TD*
G04 #@! TA.AperFunction,ComponentPad*
%ADD14R,1.600000X1.600000*%
G04 #@! TD*
G04 #@! TA.AperFunction,ComponentPad*
%ADD15R,1.905000X2.000000*%
G04 #@! TD*
G04 #@! TA.AperFunction,ComponentPad*
%ADD16O,1.905000X2.000000*%
G04 #@! TD*
G04 #@! TA.AperFunction,ComponentPad*
%ADD17C,4.318000*%
G04 #@! TD*
G04 #@! TA.AperFunction,Conductor*
%ADD18C,0.177800*%
G04 #@! TD*
G04 #@! TA.AperFunction,Conductor*
%ADD19C,0.508000*%
G04 #@! TD*
G04 #@! TA.AperFunction,Conductor*
%ADD20C,0.254000*%
G04 #@! TD*
G04 APERTURE END LIST*
D10*
G04 #@! TO.P,R1,1*
G04 #@! TO.N,YM_L_RAW*
X149860000Y-111760000D03*
D11*
G04 #@! TO.P,R1,2*
G04 #@! TO.N,GND*
X149860000Y-104140000D03*
G04 #@! TD*
D12*
G04 #@! TO.P,J1,1*
G04 #@! TO.N,+5VA*
X157357000Y-100584000D03*
D13*
G04 #@! TO.P,J1,2*
G04 #@! TO.N,GND*
X157357000Y-103124000D03*
G04 #@! TO.P,J1,3*
G04 #@! TO.N,YM_L_RAW*
X157357000Y-105664000D03*
G04 #@! TO.P,J1,4*
G04 #@! TO.N,GND*
X157357000Y-108204000D03*
G04 #@! TO.P,J1,5*
G04 #@! TO.N,YM_R_RAW*
X157357000Y-110744000D03*
G04 #@! TO.P,J1,6*
G04 #@! TO.N,GND*
X157357000Y-113284000D03*
G04 #@! TO.P,J1,7*
G04 #@! TO.N,N/C*
X157357000Y-115824000D03*
G04 #@! TD*
D11*
G04 #@! TO.P,R2,2*
G04 #@! TO.N,GND*
X153416000Y-108204000D03*
D10*
G04 #@! TO.P,R2,1*
G04 #@! TO.N,YM_R_RAW*
X153416000Y-115824000D03*
G04 #@! TD*
D14*
G04 #@! TO.P,U2,1*
G04 #@! TO.N,GND*
X143764000Y-105664000D03*
D11*
G04 #@! TO.P,U2,13*
G04 #@! TO.N,Net-(U2-Pad13)*
X115824000Y-120904000D03*
G04 #@! TO.P,U2,2*
G04 #@! TO.N,Data0*
X141224000Y-105664000D03*
G04 #@! TO.P,U2,14*
G04 #@! TO.N,YM_CS*
X118364000Y-120904000D03*
G04 #@! TO.P,U2,3*
G04 #@! TO.N,Data1*
X138684000Y-105664000D03*
G04 #@! TO.P,U2,15*
G04 #@! TO.N,YM_WR*
X120904000Y-120904000D03*
G04 #@! TO.P,U2,4*
G04 #@! TO.N,Data2*
X136144000Y-105664000D03*
G04 #@! TO.P,U2,16*
G04 #@! TO.N,YM_RD*
X123444000Y-120904000D03*
G04 #@! TO.P,U2,5*
G04 #@! TO.N,Data3*
X133604000Y-105664000D03*
G04 #@! TO.P,U2,17*
G04 #@! TO.N,YM_A0*
X125984000Y-120904000D03*
G04 #@! TO.P,U2,6*
G04 #@! TO.N,Data4*
X131064000Y-105664000D03*
G04 #@! TO.P,U2,18*
G04 #@! TO.N,YM_A1*
X128524000Y-120904000D03*
G04 #@! TO.P,U2,7*
G04 #@! TO.N,Data5*
X128524000Y-105664000D03*
G04 #@! TO.P,U2,19*
G04 #@! TO.N,GND*
X131064000Y-120904000D03*
G04 #@! TO.P,U2,8*
G04 #@! TO.N,Data6*
X125984000Y-105664000D03*
G04 #@! TO.P,U2,20*
G04 #@! TO.N,YM_R_RAW*
X133604000Y-120904000D03*
G04 #@! TO.P,U2,9*
G04 #@! TO.N,Data7*
X123444000Y-105664000D03*
G04 #@! TO.P,U2,21*
G04 #@! TO.N,YM_L_RAW*
X136144000Y-120904000D03*
G04 #@! TO.P,U2,10*
G04 #@! TO.N,Net-(U2-Pad10)*
X120904000Y-105664000D03*
G04 #@! TO.P,U2,22*
G04 #@! TO.N,+5VA*
X138684000Y-120904000D03*
G04 #@! TO.P,U2,11*
G04 #@! TO.N,YM_IC*
X118364000Y-105664000D03*
G04 #@! TO.P,U2,23*
G04 #@! TO.N,+5V*
X141224000Y-120904000D03*
G04 #@! TO.P,U2,12*
G04 #@! TO.N,GND*
X115824000Y-105664000D03*
G04 #@! TO.P,U2,24*
G04 #@! TO.N,YM_CLK*
X143764000Y-120904000D03*
G04 #@! TD*
D10*
G04 #@! TO.P,C1,1*
G04 #@! TO.N,+9V*
X133747583Y-89863284D03*
G04 #@! TO.P,C1,2*
G04 #@! TO.N,GND*
X133747583Y-84863284D03*
G04 #@! TD*
G04 #@! TO.P,C2,2*
G04 #@! TO.N,GND*
X157607000Y-84887000D03*
G04 #@! TO.P,C2,1*
G04 #@! TO.N,+9V*
X157607000Y-89887000D03*
G04 #@! TD*
D14*
G04 #@! TO.P,C3,1*
G04 #@! TO.N,+5V*
X116574783Y-86463284D03*
D10*
G04 #@! TO.P,C3,2*
G04 #@! TO.N,GND*
X116574783Y-88963284D03*
G04 #@! TD*
G04 #@! TO.P,C4,2*
G04 #@! TO.N,GND*
X139740000Y-87884000D03*
D14*
G04 #@! TO.P,C4,1*
G04 #@! TO.N,+5VA*
X142240000Y-87884000D03*
G04 #@! TD*
D12*
G04 #@! TO.P,J2,1*
G04 #@! TO.N,GND*
X89916000Y-115316000D03*
D13*
G04 #@! TO.P,J2,2*
G04 #@! TO.N,BUTTON_1*
X89916000Y-112776000D03*
G04 #@! TO.P,J2,3*
G04 #@! TO.N,BUTTON_2*
X89916000Y-110236000D03*
G04 #@! TO.P,J2,4*
G04 #@! TO.N,BUTTON_3*
X89916000Y-107696000D03*
G04 #@! TO.P,J2,5*
G04 #@! TO.N,BUTTON_4*
X89916000Y-105156000D03*
G04 #@! TO.P,J2,6*
G04 #@! TO.N,DISPLAY_CS*
X89916000Y-102616000D03*
G04 #@! TO.P,J2,7*
G04 #@! TO.N,DISPLAY_DC*
X89916000Y-100076000D03*
G04 #@! TO.P,J2,8*
G04 #@! TO.N,DISPLAY_RES*
X89916000Y-97536000D03*
G04 #@! TO.P,J2,9*
G04 #@! TO.N,DISPLAY_MOSI*
X89916000Y-94996000D03*
G04 #@! TO.P,J2,10*
G04 #@! TO.N,DISPLAY_CLK*
X89916000Y-92456000D03*
G04 #@! TO.P,J2,11*
G04 #@! TO.N,+5V*
X89916000Y-89916000D03*
G04 #@! TO.P,J2,12*
G04 #@! TO.N,GND*
X89916000Y-87376000D03*
G04 #@! TD*
D15*
G04 #@! TO.P,U3,1*
G04 #@! TO.N,GND*
X123571183Y-89863284D03*
D16*
G04 #@! TO.P,U3,2*
G04 #@! TO.N,+5V*
X126111183Y-89863284D03*
G04 #@! TO.P,U3,3*
G04 #@! TO.N,+9V*
X128651183Y-89863284D03*
G04 #@! TD*
G04 #@! TO.P,U4,3*
G04 #@! TO.N,+9V*
X152510600Y-89887000D03*
G04 #@! TO.P,U4,2*
G04 #@! TO.N,+5VA*
X149970600Y-89887000D03*
D15*
G04 #@! TO.P,U4,1*
G04 #@! TO.N,GND*
X147430600Y-89887000D03*
G04 #@! TD*
D10*
G04 #@! TO.P,U1,17*
G04 #@! TO.N,BUTTON_3*
X95631000Y-112014000D03*
G04 #@! TO.P,U1,18*
G04 #@! TO.N,BUTTON_2*
X95631000Y-114554000D03*
G04 #@! TO.P,U1,19*
G04 #@! TO.N,BUTTON_1*
X95631000Y-117094000D03*
G04 #@! TO.P,U1,20*
G04 #@! TO.N,YM_CS*
X95631000Y-119634000D03*
G04 #@! TO.P,U1,16*
G04 #@! TO.N,BUTTON_4*
X95631000Y-109474000D03*
G04 #@! TO.P,U1,15*
G04 #@! TO.N,Net-(U1-Pad15)*
X95631000Y-106934000D03*
G04 #@! TO.P,U1,14*
G04 #@! TO.N,Net-(U1-Pad14)*
X95631000Y-104394000D03*
G04 #@! TO.P,U1,21*
G04 #@! TO.N,YM_WR*
X95631000Y-122174000D03*
G04 #@! TO.P,U1,22*
G04 #@! TO.N,YM_RD*
X95631000Y-124714000D03*
G04 #@! TO.P,U1,23*
G04 #@! TO.N,YM_A0*
X95631000Y-127254000D03*
G04 #@! TO.P,U1,24*
G04 #@! TO.N,YM_A1*
X95631000Y-129794000D03*
G04 #@! TO.P,U1,30*
G04 #@! TO.N,YM_IC*
X110871000Y-129794000D03*
G04 #@! TO.P,U1,31*
G04 #@! TO.N,Net-(U1-Pad31)*
X110871000Y-127254000D03*
G04 #@! TO.P,U1,32*
G04 #@! TO.N,Net-(U1-Pad32)*
X110871000Y-124714000D03*
G04 #@! TO.P,U1,33*
G04 #@! TO.N,Net-(U1-Pad33)*
X110871000Y-122174000D03*
G04 #@! TO.P,U1,34*
G04 #@! TO.N,Net-(U1-Pad34)*
X110871000Y-119634000D03*
G04 #@! TO.P,U1,35*
G04 #@! TO.N,Net-(U1-Pad35)*
X110871000Y-117094000D03*
G04 #@! TO.P,U1,36*
G04 #@! TO.N,Net-(U1-Pad36)*
X110871000Y-114554000D03*
G04 #@! TO.P,U1,37*
G04 #@! TO.N,Net-(U1-Pad37)*
X110871000Y-112014000D03*
G04 #@! TO.P,U1,13*
G04 #@! TO.N,DISPLAY_MOSI*
X95631000Y-101854000D03*
G04 #@! TO.P,U1,12*
G04 #@! TO.N,DISPLAY_CS*
X95631000Y-99314000D03*
G04 #@! TO.P,U1,11*
G04 #@! TO.N,DISPLAY_DC*
X95631000Y-96774000D03*
G04 #@! TO.P,U1,10*
G04 #@! TO.N,DISPLAY_RES*
X95631000Y-94234000D03*
G04 #@! TO.P,U1,9*
G04 #@! TO.N,Net-(U1-Pad9)*
X95631000Y-91694000D03*
G04 #@! TO.P,U1,8*
G04 #@! TO.N,Net-(U1-Pad8)*
X95631000Y-89154000D03*
G04 #@! TO.P,U1,7*
G04 #@! TO.N,Net-(U1-Pad7)*
X95631000Y-86614000D03*
G04 #@! TO.P,U1,6*
G04 #@! TO.N,YM_CLK*
X95631000Y-84074000D03*
G04 #@! TO.P,U1,5*
G04 #@! TO.N,Net-(U1-Pad5)*
X95631000Y-81534000D03*
G04 #@! TO.P,U1,4*
G04 #@! TO.N,Net-(U1-Pad4)*
X95631000Y-78994000D03*
G04 #@! TO.P,U1,3*
G04 #@! TO.N,Net-(U1-Pad3)*
X95631000Y-76454000D03*
G04 #@! TO.P,U1,2*
G04 #@! TO.N,Net-(U1-Pad2)*
X95631000Y-73914000D03*
D14*
G04 #@! TO.P,U1,1*
G04 #@! TO.N,GND*
X95631000Y-71374000D03*
D10*
G04 #@! TO.P,U1,38*
G04 #@! TO.N,Net-(U1-Pad38)*
X110871000Y-109474000D03*
G04 #@! TO.P,U1,39*
G04 #@! TO.N,Net-(U1-Pad39)*
X110871000Y-106934000D03*
G04 #@! TO.P,U1,40*
G04 #@! TO.N,DISPLAY_CLK*
X110871000Y-104394000D03*
G04 #@! TO.P,U1,41*
G04 #@! TO.N,Data7*
X110871000Y-101854000D03*
G04 #@! TO.P,U1,42*
G04 #@! TO.N,Data6*
X110871000Y-99314000D03*
G04 #@! TO.P,U1,43*
G04 #@! TO.N,Data5*
X110871000Y-96774000D03*
G04 #@! TO.P,U1,44*
G04 #@! TO.N,Data4*
X110871000Y-94234000D03*
G04 #@! TO.P,U1,45*
G04 #@! TO.N,Data3*
X110871000Y-91694000D03*
G04 #@! TO.P,U1,46*
G04 #@! TO.N,Data2*
X110871000Y-89154000D03*
G04 #@! TO.P,U1,47*
G04 #@! TO.N,Data1*
X110871000Y-86614000D03*
G04 #@! TO.P,U1,48*
G04 #@! TO.N,Data0*
X110871000Y-84074000D03*
G04 #@! TO.P,U1,49*
G04 #@! TO.N,Net-(U1-Pad49)*
X110871000Y-81534000D03*
G04 #@! TO.P,U1,50*
G04 #@! TO.N,Net-(U1-Pad50)*
X110871000Y-78994000D03*
G04 #@! TO.P,U1,51*
G04 #@! TO.N,Net-(U1-Pad51)*
X110871000Y-76454000D03*
G04 #@! TO.P,U1,52*
G04 #@! TO.N,Net-(U1-Pad52)*
X110871000Y-73914000D03*
G04 #@! TO.P,U1,53*
G04 #@! TO.N,+5V*
X110871000Y-71374000D03*
G04 #@! TD*
D17*
G04 #@! TO.P,J3,GND*
G04 #@! TO.N,GND*
X138176000Y-75692000D03*
G04 #@! TO.P,J3,GNDB*
G04 #@! TO.N,Net-(J3-PadGNDB)*
X133477000Y-78691740D03*
G04 #@! TO.P,J3,PWR*
G04 #@! TO.N,+9V*
X138176000Y-81691480D03*
G04 #@! TD*
D10*
G04 #@! TO.P,C5,2*
G04 #@! TO.N,GND*
X136224000Y-124714000D03*
G04 #@! TO.P,C5,1*
G04 #@! TO.N,+5V*
X141224000Y-124714000D03*
G04 #@! TD*
G04 #@! TO.P,C6,1*
G04 #@! TO.N,+5VA*
X144018000Y-124714000D03*
G04 #@! TO.P,C6,2*
G04 #@! TO.N,GND*
X149018000Y-124714000D03*
G04 #@! TD*
D18*
G04 #@! TO.N,YM_CS*
X95631000Y-119634000D02*
X96697701Y-118567299D01*
X116027299Y-118567299D02*
X118364000Y-120904000D01*
X96697701Y-118567299D02*
X116027299Y-118567299D01*
G04 #@! TO.N,YM_WR*
X95631000Y-122174000D02*
X97104299Y-120700701D01*
X97104299Y-120700701D02*
X112517983Y-120700701D01*
X112517983Y-120700701D02*
X113787983Y-121970701D01*
X119837299Y-121970701D02*
X120904000Y-120904000D01*
X113787983Y-121970701D02*
X119837299Y-121970701D01*
G04 #@! TO.N,YM_RD*
X96430999Y-123914001D02*
X95631000Y-124714000D01*
X120777000Y-123571000D02*
X123444000Y-120904000D01*
X96774000Y-123571000D02*
X120777000Y-123571000D01*
X96901000Y-123444000D02*
X96774000Y-123571000D01*
X96774000Y-123571000D02*
X96430999Y-123914001D01*
G04 #@! TO.N,YM_A0*
X121107299Y-125780701D02*
X125984000Y-120904000D01*
X97104299Y-125780701D02*
X121107299Y-125780701D01*
X95631000Y-127254000D02*
X97104299Y-125780701D01*
G04 #@! TO.N,YM_A1*
X95631000Y-129794000D02*
X96697701Y-128727299D01*
X120700701Y-128727299D02*
X128524000Y-120904000D01*
X96697701Y-128727299D02*
X120700701Y-128727299D01*
G04 #@! TO.N,Data0*
X114808000Y-88011000D02*
X110871000Y-84074000D01*
X114808000Y-88011000D02*
X114808000Y-97790000D01*
X114808000Y-97790000D02*
X118364000Y-101346000D01*
X118364000Y-101346000D02*
X136906000Y-101346000D01*
X136906000Y-101346000D02*
X141224000Y-105664000D01*
G04 #@! TO.N,Data1*
X110871000Y-86614000D02*
X114300000Y-90043000D01*
X114300000Y-90043000D02*
X114300000Y-98044000D01*
X114300000Y-98044000D02*
X118110000Y-101854000D01*
X134874000Y-101854000D02*
X138684000Y-105664000D01*
X118110000Y-101854000D02*
X134874000Y-101854000D01*
G04 #@! TO.N,Data2*
X111670999Y-89953999D02*
X110871000Y-89154000D01*
X135636000Y-105156000D02*
X136144000Y-105664000D01*
X117855950Y-102361950D02*
X132841950Y-102361950D01*
X132841950Y-102361950D02*
X135636000Y-105156000D01*
X113792000Y-98298000D02*
X117855950Y-102361950D01*
X113792000Y-92075000D02*
X113792000Y-98298000D01*
X110871000Y-89154000D02*
X113792000Y-92075000D01*
G04 #@! TO.N,Data3*
X130657560Y-102717560D02*
X133604000Y-105664000D01*
X117449560Y-102717560D02*
X130657560Y-102717560D01*
X113284000Y-98552000D02*
X117449560Y-102717560D01*
X113284000Y-94107000D02*
X113284000Y-98552000D01*
X110871000Y-91694000D02*
X113284000Y-94107000D01*
G04 #@! TO.N,Data4*
X110871000Y-94234000D02*
X112776000Y-96139000D01*
X112776000Y-96139000D02*
X112776000Y-98552000D01*
X112776000Y-98552000D02*
X117297170Y-103073170D01*
X128473170Y-103073170D02*
X131064000Y-105664000D01*
X117297170Y-103073170D02*
X128473170Y-103073170D01*
G04 #@! TO.N,Data5*
X110871000Y-96774000D02*
X111670999Y-97573999D01*
X111670999Y-97573999D02*
X111670999Y-97960091D01*
X127724001Y-104864001D02*
X128524000Y-105664000D01*
X126288780Y-103428780D02*
X127724001Y-104864001D01*
X117139688Y-103428780D02*
X126288780Y-103428780D01*
X111670999Y-97960091D02*
X117139688Y-103428780D01*
G04 #@! TO.N,Data6*
X110871000Y-99314000D02*
X111670999Y-100113999D01*
X124104390Y-103784390D02*
X125184001Y-104864001D01*
X125184001Y-104864001D02*
X125984000Y-105664000D01*
X116992390Y-103784390D02*
X124104390Y-103784390D01*
X113321999Y-100113999D02*
X116992390Y-103784390D01*
X111670999Y-100113999D02*
X113321999Y-100113999D01*
G04 #@! TO.N,Data7*
X121920000Y-104140000D02*
X123444000Y-105664000D01*
X116840000Y-104140000D02*
X121920000Y-104140000D01*
X115353999Y-102653999D02*
X116840000Y-104140000D01*
X111670999Y-102653999D02*
X115353999Y-102653999D01*
X110871000Y-101854000D02*
X111670999Y-102653999D01*
D19*
G04 #@! TO.N,+5V*
X141224000Y-120904000D02*
X141224000Y-124714000D01*
G04 #@! TO.N,+5VA*
X150114000Y-100584000D02*
X146558000Y-104140000D01*
X146558000Y-121920000D02*
X145542000Y-122936000D01*
X146558000Y-104140000D02*
X146558000Y-121920000D01*
X157357000Y-100584000D02*
X150114000Y-100584000D01*
X142786199Y-125945801D02*
X143218001Y-125513999D01*
X140632735Y-125945801D02*
X142786199Y-125945801D01*
X143218001Y-125513999D02*
X144018000Y-124714000D01*
X138684000Y-123997066D02*
X140632735Y-125945801D01*
X138684000Y-120904000D02*
X138684000Y-123997066D01*
X145542000Y-123190000D02*
X144018000Y-124714000D01*
X145542000Y-122936000D02*
X145542000Y-123190000D01*
D18*
G04 #@! TO.N,YM_CLK*
X110358983Y-113080701D02*
X135940701Y-113080701D01*
X135940701Y-113080701D02*
X143764000Y-120904000D01*
X96697701Y-99419419D02*
X110358983Y-113080701D01*
X96697701Y-85140701D02*
X96697701Y-99419419D01*
X95631000Y-84074000D02*
X96697701Y-85140701D01*
G04 #@! TD*
D20*
G04 #@! TO.N,GND*
G36*
X155839259Y-69091974D02*
X155499000Y-69913431D01*
X155499000Y-70802569D01*
X155839259Y-71624026D01*
X156467974Y-72252741D01*
X157289431Y-72593000D01*
X158178569Y-72593000D01*
X159000026Y-72252741D01*
X159285000Y-71967767D01*
X159285001Y-128184234D01*
X159000026Y-127899259D01*
X158178569Y-127559000D01*
X157289431Y-127559000D01*
X156467974Y-127899259D01*
X155839259Y-128527974D01*
X155499000Y-129349431D01*
X155499000Y-130238569D01*
X155839259Y-131060026D01*
X156124233Y-131345000D01*
X91271767Y-131345000D01*
X91556741Y-131060026D01*
X91897000Y-130238569D01*
X91897000Y-129349431D01*
X91556741Y-128527974D01*
X90928026Y-127899259D01*
X90106569Y-127559000D01*
X89217431Y-127559000D01*
X88395974Y-127899259D01*
X88111000Y-128184233D01*
X88111000Y-115601750D01*
X88431000Y-115601750D01*
X88431000Y-116292310D01*
X88527673Y-116525699D01*
X88706302Y-116704327D01*
X88939691Y-116801000D01*
X89630250Y-116801000D01*
X89789000Y-116642250D01*
X89789000Y-115443000D01*
X90043000Y-115443000D01*
X90043000Y-116642250D01*
X90201750Y-116801000D01*
X90892309Y-116801000D01*
X91125698Y-116704327D01*
X91304327Y-116525699D01*
X91401000Y-116292310D01*
X91401000Y-115601750D01*
X91242250Y-115443000D01*
X90043000Y-115443000D01*
X89789000Y-115443000D01*
X88589750Y-115443000D01*
X88431000Y-115601750D01*
X88111000Y-115601750D01*
X88111000Y-89916000D01*
X88401908Y-89916000D01*
X88517161Y-90495418D01*
X88845375Y-90986625D01*
X89143761Y-91186000D01*
X88845375Y-91385375D01*
X88517161Y-91876582D01*
X88401908Y-92456000D01*
X88517161Y-93035418D01*
X88845375Y-93526625D01*
X89143761Y-93726000D01*
X88845375Y-93925375D01*
X88517161Y-94416582D01*
X88401908Y-94996000D01*
X88517161Y-95575418D01*
X88845375Y-96066625D01*
X89143761Y-96266000D01*
X88845375Y-96465375D01*
X88517161Y-96956582D01*
X88401908Y-97536000D01*
X88517161Y-98115418D01*
X88845375Y-98606625D01*
X89143761Y-98806000D01*
X88845375Y-99005375D01*
X88517161Y-99496582D01*
X88401908Y-100076000D01*
X88517161Y-100655418D01*
X88845375Y-101146625D01*
X89143761Y-101346000D01*
X88845375Y-101545375D01*
X88517161Y-102036582D01*
X88401908Y-102616000D01*
X88517161Y-103195418D01*
X88845375Y-103686625D01*
X89143761Y-103886000D01*
X88845375Y-104085375D01*
X88517161Y-104576582D01*
X88401908Y-105156000D01*
X88517161Y-105735418D01*
X88845375Y-106226625D01*
X89143761Y-106426000D01*
X88845375Y-106625375D01*
X88517161Y-107116582D01*
X88401908Y-107696000D01*
X88517161Y-108275418D01*
X88845375Y-108766625D01*
X89143761Y-108966000D01*
X88845375Y-109165375D01*
X88517161Y-109656582D01*
X88401908Y-110236000D01*
X88517161Y-110815418D01*
X88845375Y-111306625D01*
X89143761Y-111506000D01*
X88845375Y-111705375D01*
X88517161Y-112196582D01*
X88401908Y-112776000D01*
X88517161Y-113355418D01*
X88845375Y-113846625D01*
X88867033Y-113861096D01*
X88706302Y-113927673D01*
X88527673Y-114106301D01*
X88431000Y-114339690D01*
X88431000Y-115030250D01*
X88589750Y-115189000D01*
X89789000Y-115189000D01*
X89789000Y-115169000D01*
X90043000Y-115169000D01*
X90043000Y-115189000D01*
X91242250Y-115189000D01*
X91401000Y-115030250D01*
X91401000Y-114339690D01*
X91304327Y-114106301D01*
X91125698Y-113927673D01*
X90964967Y-113861096D01*
X90986625Y-113846625D01*
X91314839Y-113355418D01*
X91430092Y-112776000D01*
X91314839Y-112196582D01*
X90986625Y-111705375D01*
X90688239Y-111506000D01*
X90986625Y-111306625D01*
X91314839Y-110815418D01*
X91430092Y-110236000D01*
X91314839Y-109656582D01*
X90986625Y-109165375D01*
X90688239Y-108966000D01*
X90986625Y-108766625D01*
X91314839Y-108275418D01*
X91430092Y-107696000D01*
X91314839Y-107116582D01*
X90986625Y-106625375D01*
X90688239Y-106426000D01*
X90986625Y-106226625D01*
X91314839Y-105735418D01*
X91430092Y-105156000D01*
X91314839Y-104576582D01*
X90986625Y-104085375D01*
X90688239Y-103886000D01*
X90986625Y-103686625D01*
X91314839Y-103195418D01*
X91430092Y-102616000D01*
X91314839Y-102036582D01*
X90986625Y-101545375D01*
X90688239Y-101346000D01*
X90986625Y-101146625D01*
X91314839Y-100655418D01*
X91430092Y-100076000D01*
X91314839Y-99496582D01*
X90986625Y-99005375D01*
X90688239Y-98806000D01*
X90986625Y-98606625D01*
X91314839Y-98115418D01*
X91430092Y-97536000D01*
X91314839Y-96956582D01*
X90986625Y-96465375D01*
X90688239Y-96266000D01*
X90986625Y-96066625D01*
X91314839Y-95575418D01*
X91430092Y-94996000D01*
X91314839Y-94416582D01*
X90986625Y-93925375D01*
X90688239Y-93726000D01*
X90986625Y-93526625D01*
X91314839Y-93035418D01*
X91430092Y-92456000D01*
X91314839Y-91876582D01*
X90986625Y-91385375D01*
X90688239Y-91186000D01*
X90986625Y-90986625D01*
X91314839Y-90495418D01*
X91430092Y-89916000D01*
X91314839Y-89336582D01*
X90986625Y-88845375D01*
X90667522Y-88632157D01*
X90797358Y-88571183D01*
X91187645Y-88142924D01*
X91357476Y-87732890D01*
X91236155Y-87503000D01*
X90043000Y-87503000D01*
X90043000Y-87523000D01*
X89789000Y-87523000D01*
X89789000Y-87503000D01*
X88595845Y-87503000D01*
X88474524Y-87732890D01*
X88644355Y-88142924D01*
X89034642Y-88571183D01*
X89164478Y-88632157D01*
X88845375Y-88845375D01*
X88517161Y-89336582D01*
X88401908Y-89916000D01*
X88111000Y-89916000D01*
X88111000Y-87019110D01*
X88474524Y-87019110D01*
X88595845Y-87249000D01*
X89789000Y-87249000D01*
X89789000Y-86055181D01*
X90043000Y-86055181D01*
X90043000Y-87249000D01*
X91236155Y-87249000D01*
X91357476Y-87019110D01*
X91187645Y-86609076D01*
X90797358Y-86180817D01*
X90272892Y-85934514D01*
X90043000Y-86055181D01*
X89789000Y-86055181D01*
X89559108Y-85934514D01*
X89034642Y-86180817D01*
X88644355Y-86609076D01*
X88474524Y-87019110D01*
X88111000Y-87019110D01*
X88111000Y-71967767D01*
X88395974Y-72252741D01*
X89217431Y-72593000D01*
X90106569Y-72593000D01*
X90928026Y-72252741D01*
X91521017Y-71659750D01*
X94196000Y-71659750D01*
X94196000Y-72300309D01*
X94292673Y-72533698D01*
X94471301Y-72712327D01*
X94704690Y-72809000D01*
X94706604Y-72809000D01*
X94414466Y-73101138D01*
X94196000Y-73628561D01*
X94196000Y-74199439D01*
X94414466Y-74726862D01*
X94818138Y-75130534D01*
X94947216Y-75184000D01*
X94818138Y-75237466D01*
X94414466Y-75641138D01*
X94196000Y-76168561D01*
X94196000Y-76739439D01*
X94414466Y-77266862D01*
X94818138Y-77670534D01*
X94947216Y-77724000D01*
X94818138Y-77777466D01*
X94414466Y-78181138D01*
X94196000Y-78708561D01*
X94196000Y-79279439D01*
X94414466Y-79806862D01*
X94818138Y-80210534D01*
X94947216Y-80264000D01*
X94818138Y-80317466D01*
X94414466Y-80721138D01*
X94196000Y-81248561D01*
X94196000Y-81819439D01*
X94414466Y-82346862D01*
X94818138Y-82750534D01*
X94947216Y-82804000D01*
X94818138Y-82857466D01*
X94414466Y-83261138D01*
X94196000Y-83788561D01*
X94196000Y-84359439D01*
X94414466Y-84886862D01*
X94818138Y-85290534D01*
X94947216Y-85344000D01*
X94818138Y-85397466D01*
X94414466Y-85801138D01*
X94196000Y-86328561D01*
X94196000Y-86899439D01*
X94414466Y-87426862D01*
X94818138Y-87830534D01*
X94947216Y-87884000D01*
X94818138Y-87937466D01*
X94414466Y-88341138D01*
X94196000Y-88868561D01*
X94196000Y-89439439D01*
X94414466Y-89966862D01*
X94818138Y-90370534D01*
X94947216Y-90424000D01*
X94818138Y-90477466D01*
X94414466Y-90881138D01*
X94196000Y-91408561D01*
X94196000Y-91979439D01*
X94414466Y-92506862D01*
X94818138Y-92910534D01*
X94947216Y-92964000D01*
X94818138Y-93017466D01*
X94414466Y-93421138D01*
X94196000Y-93948561D01*
X94196000Y-94519439D01*
X94414466Y-95046862D01*
X94818138Y-95450534D01*
X94947216Y-95504000D01*
X94818138Y-95557466D01*
X94414466Y-95961138D01*
X94196000Y-96488561D01*
X94196000Y-97059439D01*
X94414466Y-97586862D01*
X94818138Y-97990534D01*
X94947216Y-98044000D01*
X94818138Y-98097466D01*
X94414466Y-98501138D01*
X94196000Y-99028561D01*
X94196000Y-99599439D01*
X94414466Y-100126862D01*
X94818138Y-100530534D01*
X94947216Y-100584000D01*
X94818138Y-100637466D01*
X94414466Y-101041138D01*
X94196000Y-101568561D01*
X94196000Y-102139439D01*
X94414466Y-102666862D01*
X94818138Y-103070534D01*
X94947216Y-103124000D01*
X94818138Y-103177466D01*
X94414466Y-103581138D01*
X94196000Y-104108561D01*
X94196000Y-104679439D01*
X94414466Y-105206862D01*
X94818138Y-105610534D01*
X94947216Y-105664000D01*
X94818138Y-105717466D01*
X94414466Y-106121138D01*
X94196000Y-106648561D01*
X94196000Y-107219439D01*
X94414466Y-107746862D01*
X94818138Y-108150534D01*
X94947216Y-108204000D01*
X94818138Y-108257466D01*
X94414466Y-108661138D01*
X94196000Y-109188561D01*
X94196000Y-109759439D01*
X94414466Y-110286862D01*
X94818138Y-110690534D01*
X94947216Y-110744000D01*
X94818138Y-110797466D01*
X94414466Y-111201138D01*
X94196000Y-111728561D01*
X94196000Y-112299439D01*
X94414466Y-112826862D01*
X94818138Y-113230534D01*
X94947216Y-113284000D01*
X94818138Y-113337466D01*
X94414466Y-113741138D01*
X94196000Y-114268561D01*
X94196000Y-114839439D01*
X94414466Y-115366862D01*
X94818138Y-115770534D01*
X94947216Y-115824000D01*
X94818138Y-115877466D01*
X94414466Y-116281138D01*
X94196000Y-116808561D01*
X94196000Y-117379439D01*
X94414466Y-117906862D01*
X94818138Y-118310534D01*
X94947216Y-118364000D01*
X94818138Y-118417466D01*
X94414466Y-118821138D01*
X94196000Y-119348561D01*
X94196000Y-119919439D01*
X94414466Y-120446862D01*
X94818138Y-120850534D01*
X94947216Y-120904000D01*
X94818138Y-120957466D01*
X94414466Y-121361138D01*
X94196000Y-121888561D01*
X94196000Y-122459439D01*
X94414466Y-122986862D01*
X94818138Y-123390534D01*
X94947216Y-123444000D01*
X94818138Y-123497466D01*
X94414466Y-123901138D01*
X94196000Y-124428561D01*
X94196000Y-124999439D01*
X94414466Y-125526862D01*
X94818138Y-125930534D01*
X94947216Y-125984000D01*
X94818138Y-126037466D01*
X94414466Y-126441138D01*
X94196000Y-126968561D01*
X94196000Y-127539439D01*
X94414466Y-128066862D01*
X94818138Y-128470534D01*
X94947216Y-128524000D01*
X94818138Y-128577466D01*
X94414466Y-128981138D01*
X94196000Y-129508561D01*
X94196000Y-130079439D01*
X94414466Y-130606862D01*
X94818138Y-131010534D01*
X95345561Y-131229000D01*
X95916439Y-131229000D01*
X96443862Y-131010534D01*
X96847534Y-130606862D01*
X97066000Y-130079439D01*
X97066000Y-129508561D01*
X97042240Y-129451199D01*
X109459760Y-129451199D01*
X109436000Y-129508561D01*
X109436000Y-130079439D01*
X109654466Y-130606862D01*
X110058138Y-131010534D01*
X110585561Y-131229000D01*
X111156439Y-131229000D01*
X111683862Y-131010534D01*
X112087534Y-130606862D01*
X112306000Y-130079439D01*
X112306000Y-129508561D01*
X112282240Y-129451199D01*
X120629403Y-129451199D01*
X120700701Y-129465381D01*
X120771999Y-129451199D01*
X120983153Y-129409198D01*
X121222604Y-129249202D01*
X121262994Y-129188754D01*
X124730003Y-125721745D01*
X135395861Y-125721745D01*
X135469995Y-125967864D01*
X136007223Y-126160965D01*
X136577454Y-126133778D01*
X136978005Y-125967864D01*
X137052139Y-125721745D01*
X136224000Y-124893605D01*
X135395861Y-125721745D01*
X124730003Y-125721745D01*
X125954525Y-124497223D01*
X134777035Y-124497223D01*
X134804222Y-125067454D01*
X134970136Y-125468005D01*
X135216255Y-125542139D01*
X136044395Y-124714000D01*
X136403605Y-124714000D01*
X137231745Y-125542139D01*
X137477864Y-125468005D01*
X137670965Y-124930777D01*
X137643778Y-124360546D01*
X137477864Y-123959995D01*
X137231745Y-123885861D01*
X136403605Y-124714000D01*
X136044395Y-124714000D01*
X135216255Y-123885861D01*
X134970136Y-123959995D01*
X134777035Y-124497223D01*
X125954525Y-124497223D01*
X126745493Y-123706255D01*
X135395861Y-123706255D01*
X136224000Y-124534395D01*
X137052139Y-123706255D01*
X136978005Y-123460136D01*
X136440777Y-123267035D01*
X135870546Y-123294222D01*
X135469995Y-123460136D01*
X135395861Y-123706255D01*
X126745493Y-123706255D01*
X128157531Y-122294218D01*
X128382667Y-122339000D01*
X128665333Y-122339000D01*
X129083909Y-122255740D01*
X129558577Y-121938577D01*
X129814947Y-121554892D01*
X129911611Y-121759134D01*
X130326577Y-122135041D01*
X130714961Y-122295904D01*
X130937000Y-122173915D01*
X130937000Y-121031000D01*
X130917000Y-121031000D01*
X130917000Y-120777000D01*
X130937000Y-120777000D01*
X130937000Y-119634085D01*
X130714961Y-119512096D01*
X130326577Y-119672959D01*
X129911611Y-120048866D01*
X129814947Y-120253108D01*
X129558577Y-119869423D01*
X129083909Y-119552260D01*
X128665333Y-119469000D01*
X128382667Y-119469000D01*
X127964091Y-119552260D01*
X127489423Y-119869423D01*
X127254000Y-120221758D01*
X127018577Y-119869423D01*
X126543909Y-119552260D01*
X126125333Y-119469000D01*
X125842667Y-119469000D01*
X125424091Y-119552260D01*
X124949423Y-119869423D01*
X124714000Y-120221758D01*
X124478577Y-119869423D01*
X124003909Y-119552260D01*
X123585333Y-119469000D01*
X123302667Y-119469000D01*
X122884091Y-119552260D01*
X122409423Y-119869423D01*
X122174000Y-120221758D01*
X121938577Y-119869423D01*
X121463909Y-119552260D01*
X121045333Y-119469000D01*
X120762667Y-119469000D01*
X120344091Y-119552260D01*
X119869423Y-119869423D01*
X119634000Y-120221758D01*
X119398577Y-119869423D01*
X118923909Y-119552260D01*
X118505333Y-119469000D01*
X118222667Y-119469000D01*
X117997531Y-119513782D01*
X116589592Y-118105844D01*
X116549202Y-118045396D01*
X116309751Y-117885400D01*
X116098597Y-117843399D01*
X116027299Y-117829217D01*
X115956001Y-117843399D01*
X112113821Y-117843399D01*
X112306000Y-117379439D01*
X112306000Y-116808561D01*
X112087534Y-116281138D01*
X111683862Y-115877466D01*
X111554784Y-115824000D01*
X111683862Y-115770534D01*
X112087534Y-115366862D01*
X112306000Y-114839439D01*
X112306000Y-114268561D01*
X112113821Y-113804601D01*
X135640853Y-113804601D01*
X141305251Y-119469000D01*
X141082667Y-119469000D01*
X140664091Y-119552260D01*
X140189423Y-119869423D01*
X139954000Y-120221758D01*
X139718577Y-119869423D01*
X139243909Y-119552260D01*
X138825333Y-119469000D01*
X138542667Y-119469000D01*
X138124091Y-119552260D01*
X137649423Y-119869423D01*
X137414000Y-120221758D01*
X137178577Y-119869423D01*
X136703909Y-119552260D01*
X136285333Y-119469000D01*
X136002667Y-119469000D01*
X135584091Y-119552260D01*
X135109423Y-119869423D01*
X134874000Y-120221758D01*
X134638577Y-119869423D01*
X134163909Y-119552260D01*
X133745333Y-119469000D01*
X133462667Y-119469000D01*
X133044091Y-119552260D01*
X132569423Y-119869423D01*
X132313053Y-120253108D01*
X132216389Y-120048866D01*
X131801423Y-119672959D01*
X131413039Y-119512096D01*
X131191000Y-119634085D01*
X131191000Y-120777000D01*
X131211000Y-120777000D01*
X131211000Y-121031000D01*
X131191000Y-121031000D01*
X131191000Y-122173915D01*
X131413039Y-122295904D01*
X131801423Y-122135041D01*
X132216389Y-121759134D01*
X132313053Y-121554892D01*
X132569423Y-121938577D01*
X133044091Y-122255740D01*
X133462667Y-122339000D01*
X133745333Y-122339000D01*
X134163909Y-122255740D01*
X134638577Y-121938577D01*
X134874000Y-121586242D01*
X135109423Y-121938577D01*
X135584091Y-122255740D01*
X136002667Y-122339000D01*
X136285333Y-122339000D01*
X136703909Y-122255740D01*
X137178577Y-121938577D01*
X137414000Y-121586242D01*
X137649423Y-121938577D01*
X137795000Y-122035849D01*
X137795001Y-123909507D01*
X137777584Y-123997066D01*
X137836828Y-124294900D01*
X137846582Y-124343936D01*
X138043068Y-124637999D01*
X138117294Y-124687595D01*
X139942206Y-126512508D01*
X139991802Y-126586734D01*
X140285865Y-126783220D01*
X140545179Y-126834801D01*
X140545183Y-126834801D01*
X140632734Y-126852216D01*
X140720285Y-126834801D01*
X142698644Y-126834801D01*
X142786199Y-126852217D01*
X142873754Y-126834801D01*
X142873755Y-126834801D01*
X143133069Y-126783220D01*
X143427132Y-126586734D01*
X143476730Y-126512505D01*
X143840235Y-126149000D01*
X144303439Y-126149000D01*
X144830862Y-125930534D01*
X145039651Y-125721745D01*
X148189861Y-125721745D01*
X148263995Y-125967864D01*
X148801223Y-126160965D01*
X149371454Y-126133778D01*
X149772005Y-125967864D01*
X149846139Y-125721745D01*
X149018000Y-124893605D01*
X148189861Y-125721745D01*
X145039651Y-125721745D01*
X145234534Y-125526862D01*
X145453000Y-124999439D01*
X145453000Y-124536236D01*
X145492013Y-124497223D01*
X147571035Y-124497223D01*
X147598222Y-125067454D01*
X147764136Y-125468005D01*
X148010255Y-125542139D01*
X148838395Y-124714000D01*
X149197605Y-124714000D01*
X150025745Y-125542139D01*
X150271864Y-125468005D01*
X150464965Y-124930777D01*
X150437778Y-124360546D01*
X150271864Y-123959995D01*
X150025745Y-123885861D01*
X149197605Y-124714000D01*
X148838395Y-124714000D01*
X148010255Y-123885861D01*
X147764136Y-123959995D01*
X147571035Y-124497223D01*
X145492013Y-124497223D01*
X146108707Y-123880529D01*
X146182933Y-123830933D01*
X146266239Y-123706255D01*
X148189861Y-123706255D01*
X149018000Y-124534395D01*
X149846139Y-123706255D01*
X149772005Y-123460136D01*
X149234777Y-123267035D01*
X148664546Y-123294222D01*
X148263995Y-123460136D01*
X148189861Y-123706255D01*
X146266239Y-123706255D01*
X146379419Y-123536870D01*
X146424375Y-123310860D01*
X147124706Y-122610529D01*
X147198933Y-122560933D01*
X147395419Y-122266870D01*
X147447000Y-122007556D01*
X147447000Y-122007555D01*
X147464416Y-121920000D01*
X147447000Y-121832445D01*
X147447000Y-115538561D01*
X151981000Y-115538561D01*
X151981000Y-116109439D01*
X152199466Y-116636862D01*
X152603138Y-117040534D01*
X153130561Y-117259000D01*
X153701439Y-117259000D01*
X154228862Y-117040534D01*
X154632534Y-116636862D01*
X154851000Y-116109439D01*
X154851000Y-115824000D01*
X155842908Y-115824000D01*
X155958161Y-116403418D01*
X156286375Y-116894625D01*
X156777582Y-117222839D01*
X157210744Y-117309000D01*
X157503256Y-117309000D01*
X157936418Y-117222839D01*
X158427625Y-116894625D01*
X158755839Y-116403418D01*
X158871092Y-115824000D01*
X158755839Y-115244582D01*
X158427625Y-114753375D01*
X158108522Y-114540157D01*
X158238358Y-114479183D01*
X158628645Y-114050924D01*
X158798476Y-113640890D01*
X158677155Y-113411000D01*
X157484000Y-113411000D01*
X157484000Y-113431000D01*
X157230000Y-113431000D01*
X157230000Y-113411000D01*
X156036845Y-113411000D01*
X155915524Y-113640890D01*
X156085355Y-114050924D01*
X156475642Y-114479183D01*
X156605478Y-114540157D01*
X156286375Y-114753375D01*
X155958161Y-115244582D01*
X155842908Y-115824000D01*
X154851000Y-115824000D01*
X154851000Y-115538561D01*
X154632534Y-115011138D01*
X154228862Y-114607466D01*
X153701439Y-114389000D01*
X153130561Y-114389000D01*
X152603138Y-114607466D01*
X152199466Y-115011138D01*
X151981000Y-115538561D01*
X147447000Y-115538561D01*
X147447000Y-111474561D01*
X148425000Y-111474561D01*
X148425000Y-112045439D01*
X148643466Y-112572862D01*
X149047138Y-112976534D01*
X149574561Y-113195000D01*
X150145439Y-113195000D01*
X150672862Y-112976534D01*
X151076534Y-112572862D01*
X151295000Y-112045439D01*
X151295000Y-111474561D01*
X151076534Y-110947138D01*
X150873396Y-110744000D01*
X155842908Y-110744000D01*
X155958161Y-111323418D01*
X156286375Y-111814625D01*
X156605478Y-112027843D01*
X156475642Y-112088817D01*
X156085355Y-112517076D01*
X155915524Y-112927110D01*
X156036845Y-113157000D01*
X157230000Y-113157000D01*
X157230000Y-113137000D01*
X157484000Y-113137000D01*
X157484000Y-113157000D01*
X158677155Y-113157000D01*
X158798476Y-112927110D01*
X158628645Y-112517076D01*
X158238358Y-112088817D01*
X158108522Y-112027843D01*
X158427625Y-111814625D01*
X158755839Y-111323418D01*
X158871092Y-110744000D01*
X158755839Y-110164582D01*
X158427625Y-109673375D01*
X158108522Y-109460157D01*
X158238358Y-109399183D01*
X158628645Y-108970924D01*
X158798476Y-108560890D01*
X158677155Y-108331000D01*
X157484000Y-108331000D01*
X157484000Y-108351000D01*
X157230000Y-108351000D01*
X157230000Y-108331000D01*
X156036845Y-108331000D01*
X155915524Y-108560890D01*
X156085355Y-108970924D01*
X156475642Y-109399183D01*
X156605478Y-109460157D01*
X156286375Y-109673375D01*
X155958161Y-110164582D01*
X155842908Y-110744000D01*
X150873396Y-110744000D01*
X150672862Y-110543466D01*
X150145439Y-110325000D01*
X149574561Y-110325000D01*
X149047138Y-110543466D01*
X148643466Y-110947138D01*
X148425000Y-111474561D01*
X147447000Y-111474561D01*
X147447000Y-108553041D01*
X152024086Y-108553041D01*
X152263611Y-109059134D01*
X152678577Y-109435041D01*
X153066961Y-109595904D01*
X153289000Y-109473915D01*
X153289000Y-108331000D01*
X153543000Y-108331000D01*
X153543000Y-109473915D01*
X153765039Y-109595904D01*
X154153423Y-109435041D01*
X154568389Y-109059134D01*
X154807914Y-108553041D01*
X154686629Y-108331000D01*
X153543000Y-108331000D01*
X153289000Y-108331000D01*
X152145371Y-108331000D01*
X152024086Y-108553041D01*
X147447000Y-108553041D01*
X147447000Y-107854959D01*
X152024086Y-107854959D01*
X152145371Y-108077000D01*
X153289000Y-108077000D01*
X153289000Y-106934085D01*
X153543000Y-106934085D01*
X153543000Y-108077000D01*
X154686629Y-108077000D01*
X154807914Y-107854959D01*
X154568389Y-107348866D01*
X154153423Y-106972959D01*
X153765039Y-106812096D01*
X153543000Y-106934085D01*
X153289000Y-106934085D01*
X153066961Y-106812096D01*
X152678577Y-106972959D01*
X152263611Y-107348866D01*
X152024086Y-107854959D01*
X147447000Y-107854959D01*
X147447000Y-105664000D01*
X155842908Y-105664000D01*
X155958161Y-106243418D01*
X156286375Y-106734625D01*
X156605478Y-106947843D01*
X156475642Y-107008817D01*
X156085355Y-107437076D01*
X155915524Y-107847110D01*
X156036845Y-108077000D01*
X157230000Y-108077000D01*
X157230000Y-108057000D01*
X157484000Y-108057000D01*
X157484000Y-108077000D01*
X158677155Y-108077000D01*
X158798476Y-107847110D01*
X158628645Y-107437076D01*
X158238358Y-107008817D01*
X158108522Y-106947843D01*
X158427625Y-106734625D01*
X158755839Y-106243418D01*
X158871092Y-105664000D01*
X158755839Y-105084582D01*
X158427625Y-104593375D01*
X158108522Y-104380157D01*
X158238358Y-104319183D01*
X158628645Y-103890924D01*
X158798476Y-103480890D01*
X158677155Y-103251000D01*
X157484000Y-103251000D01*
X157484000Y-103271000D01*
X157230000Y-103271000D01*
X157230000Y-103251000D01*
X156036845Y-103251000D01*
X155915524Y-103480890D01*
X156085355Y-103890924D01*
X156475642Y-104319183D01*
X156605478Y-104380157D01*
X156286375Y-104593375D01*
X155958161Y-105084582D01*
X155842908Y-105664000D01*
X147447000Y-105664000D01*
X147447000Y-104508235D01*
X147466194Y-104489041D01*
X148468086Y-104489041D01*
X148707611Y-104995134D01*
X149122577Y-105371041D01*
X149510961Y-105531904D01*
X149733000Y-105409915D01*
X149733000Y-104267000D01*
X149987000Y-104267000D01*
X149987000Y-105409915D01*
X150209039Y-105531904D01*
X150597423Y-105371041D01*
X151012389Y-104995134D01*
X151251914Y-104489041D01*
X151130629Y-104267000D01*
X149987000Y-104267000D01*
X149733000Y-104267000D01*
X148589371Y-104267000D01*
X148468086Y-104489041D01*
X147466194Y-104489041D01*
X148164276Y-103790959D01*
X148468086Y-103790959D01*
X148589371Y-104013000D01*
X149733000Y-104013000D01*
X149733000Y-102870085D01*
X149987000Y-102870085D01*
X149987000Y-104013000D01*
X151130629Y-104013000D01*
X151251914Y-103790959D01*
X151012389Y-103284866D01*
X150597423Y-102908959D01*
X150209039Y-102748096D01*
X149987000Y-102870085D01*
X149733000Y-102870085D01*
X149510961Y-102748096D01*
X149122577Y-102908959D01*
X148707611Y-103284866D01*
X148468086Y-103790959D01*
X148164276Y-103790959D01*
X150482236Y-101473000D01*
X155867318Y-101473000D01*
X155908843Y-101681765D01*
X156049191Y-101891809D01*
X156259235Y-102032157D01*
X156362708Y-102052739D01*
X156085355Y-102357076D01*
X155915524Y-102767110D01*
X156036845Y-102997000D01*
X157230000Y-102997000D01*
X157230000Y-102977000D01*
X157484000Y-102977000D01*
X157484000Y-102997000D01*
X158677155Y-102997000D01*
X158798476Y-102767110D01*
X158628645Y-102357076D01*
X158351292Y-102052739D01*
X158454765Y-102032157D01*
X158664809Y-101891809D01*
X158805157Y-101681765D01*
X158854440Y-101434000D01*
X158854440Y-99734000D01*
X158805157Y-99486235D01*
X158664809Y-99276191D01*
X158454765Y-99135843D01*
X158207000Y-99086560D01*
X156507000Y-99086560D01*
X156259235Y-99135843D01*
X156049191Y-99276191D01*
X155908843Y-99486235D01*
X155867318Y-99695000D01*
X150201550Y-99695000D01*
X150113999Y-99677585D01*
X150026448Y-99695000D01*
X150026444Y-99695000D01*
X149767130Y-99746581D01*
X149473067Y-99943067D01*
X149423471Y-100017293D01*
X145991296Y-103449469D01*
X145917067Y-103499067D01*
X145720581Y-103793131D01*
X145669000Y-104052444D01*
X145651584Y-104140000D01*
X145669000Y-104227555D01*
X145669001Y-121551763D01*
X144975296Y-122245469D01*
X144901067Y-122295067D01*
X144704581Y-122589131D01*
X144670175Y-122762101D01*
X144659625Y-122815139D01*
X144195764Y-123279000D01*
X143732561Y-123279000D01*
X143205138Y-123497466D01*
X142801466Y-123901138D01*
X142621000Y-124336821D01*
X142440534Y-123901138D01*
X142113000Y-123573604D01*
X142113000Y-122035848D01*
X142258577Y-121938577D01*
X142494000Y-121586242D01*
X142729423Y-121938577D01*
X143204091Y-122255740D01*
X143622667Y-122339000D01*
X143905333Y-122339000D01*
X144323909Y-122255740D01*
X144798577Y-121938577D01*
X145115740Y-121463909D01*
X145227113Y-120904000D01*
X145115740Y-120344091D01*
X144798577Y-119869423D01*
X144323909Y-119552260D01*
X143905333Y-119469000D01*
X143622667Y-119469000D01*
X143397531Y-119513782D01*
X136502994Y-112619246D01*
X136462604Y-112558798D01*
X136223153Y-112398802D01*
X136011999Y-112356801D01*
X135940701Y-112342619D01*
X135869403Y-112356801D01*
X112282240Y-112356801D01*
X112306000Y-112299439D01*
X112306000Y-111728561D01*
X112087534Y-111201138D01*
X111683862Y-110797466D01*
X111554784Y-110744000D01*
X111683862Y-110690534D01*
X112087534Y-110286862D01*
X112306000Y-109759439D01*
X112306000Y-109188561D01*
X112087534Y-108661138D01*
X111683862Y-108257466D01*
X111554784Y-108204000D01*
X111683862Y-108150534D01*
X112087534Y-107746862D01*
X112306000Y-107219439D01*
X112306000Y-106648561D01*
X112087534Y-106121138D01*
X111979437Y-106013041D01*
X114432086Y-106013041D01*
X114671611Y-106519134D01*
X115086577Y-106895041D01*
X115474961Y-107055904D01*
X115697000Y-106933915D01*
X115697000Y-105791000D01*
X114553371Y-105791000D01*
X114432086Y-106013041D01*
X111979437Y-106013041D01*
X111683862Y-105717466D01*
X111554784Y-105664000D01*
X111683862Y-105610534D01*
X111979437Y-105314959D01*
X114432086Y-105314959D01*
X114553371Y-105537000D01*
X115697000Y-105537000D01*
X115697000Y-104394085D01*
X115474961Y-104272096D01*
X115086577Y-104432959D01*
X114671611Y-104808866D01*
X114432086Y-105314959D01*
X111979437Y-105314959D01*
X112087534Y-105206862D01*
X112306000Y-104679439D01*
X112306000Y-104108561D01*
X112087534Y-103581138D01*
X111884295Y-103377899D01*
X115054151Y-103377899D01*
X116028020Y-104351770D01*
X115951000Y-104394085D01*
X115951000Y-105537000D01*
X115971000Y-105537000D01*
X115971000Y-105791000D01*
X115951000Y-105791000D01*
X115951000Y-106933915D01*
X116173039Y-107055904D01*
X116561423Y-106895041D01*
X116976389Y-106519134D01*
X117073053Y-106314892D01*
X117329423Y-106698577D01*
X117804091Y-107015740D01*
X118222667Y-107099000D01*
X118505333Y-107099000D01*
X118923909Y-107015740D01*
X119398577Y-106698577D01*
X119634000Y-106346242D01*
X119869423Y-106698577D01*
X120344091Y-107015740D01*
X120762667Y-107099000D01*
X121045333Y-107099000D01*
X121463909Y-107015740D01*
X121938577Y-106698577D01*
X122174000Y-106346242D01*
X122409423Y-106698577D01*
X122884091Y-107015740D01*
X123302667Y-107099000D01*
X123585333Y-107099000D01*
X124003909Y-107015740D01*
X124478577Y-106698577D01*
X124714000Y-106346242D01*
X124949423Y-106698577D01*
X125424091Y-107015740D01*
X125842667Y-107099000D01*
X126125333Y-107099000D01*
X126543909Y-107015740D01*
X127018577Y-106698577D01*
X127254000Y-106346242D01*
X127489423Y-106698577D01*
X127964091Y-107015740D01*
X128382667Y-107099000D01*
X128665333Y-107099000D01*
X129083909Y-107015740D01*
X129558577Y-106698577D01*
X129794000Y-106346242D01*
X130029423Y-106698577D01*
X130504091Y-107015740D01*
X130922667Y-107099000D01*
X131205333Y-107099000D01*
X131623909Y-107015740D01*
X132098577Y-106698577D01*
X132334000Y-106346242D01*
X132569423Y-106698577D01*
X133044091Y-107015740D01*
X133462667Y-107099000D01*
X133745333Y-107099000D01*
X134163909Y-107015740D01*
X134638577Y-106698577D01*
X134874000Y-106346242D01*
X135109423Y-106698577D01*
X135584091Y-107015740D01*
X136002667Y-107099000D01*
X136285333Y-107099000D01*
X136703909Y-107015740D01*
X137178577Y-106698577D01*
X137414000Y-106346242D01*
X137649423Y-106698577D01*
X138124091Y-107015740D01*
X138542667Y-107099000D01*
X138825333Y-107099000D01*
X139243909Y-107015740D01*
X139718577Y-106698577D01*
X139954000Y-106346242D01*
X140189423Y-106698577D01*
X140664091Y-107015740D01*
X141082667Y-107099000D01*
X141365333Y-107099000D01*
X141783909Y-107015740D01*
X142258577Y-106698577D01*
X142329735Y-106592082D01*
X142425673Y-106823698D01*
X142604301Y-107002327D01*
X142837690Y-107099000D01*
X143478250Y-107099000D01*
X143637000Y-106940250D01*
X143637000Y-105791000D01*
X143891000Y-105791000D01*
X143891000Y-106940250D01*
X144049750Y-107099000D01*
X144690310Y-107099000D01*
X144923699Y-107002327D01*
X145102327Y-106823698D01*
X145199000Y-106590309D01*
X145199000Y-105949750D01*
X145040250Y-105791000D01*
X143891000Y-105791000D01*
X143637000Y-105791000D01*
X143617000Y-105791000D01*
X143617000Y-105537000D01*
X143637000Y-105537000D01*
X143637000Y-104387750D01*
X143891000Y-104387750D01*
X143891000Y-105537000D01*
X145040250Y-105537000D01*
X145199000Y-105378250D01*
X145199000Y-104737691D01*
X145102327Y-104504302D01*
X144923699Y-104325673D01*
X144690310Y-104229000D01*
X144049750Y-104229000D01*
X143891000Y-104387750D01*
X143637000Y-104387750D01*
X143478250Y-104229000D01*
X142837690Y-104229000D01*
X142604301Y-104325673D01*
X142425673Y-104504302D01*
X142329735Y-104735918D01*
X142258577Y-104629423D01*
X141783909Y-104312260D01*
X141365333Y-104229000D01*
X141082667Y-104229000D01*
X140857531Y-104273782D01*
X137468293Y-100884545D01*
X137427903Y-100824097D01*
X137188452Y-100664101D01*
X136977298Y-100622100D01*
X136906000Y-100607918D01*
X136834702Y-100622100D01*
X118663849Y-100622100D01*
X115531900Y-97490152D01*
X115531900Y-89971029D01*
X115746644Y-89971029D01*
X115820778Y-90217148D01*
X116358006Y-90410249D01*
X116928237Y-90383062D01*
X117328788Y-90217148D01*
X117349304Y-90149034D01*
X121983683Y-90149034D01*
X121983683Y-90989594D01*
X122080356Y-91222983D01*
X122258985Y-91401611D01*
X122492374Y-91498284D01*
X123285433Y-91498284D01*
X123444183Y-91339534D01*
X123444183Y-89990284D01*
X122142433Y-89990284D01*
X121983683Y-90149034D01*
X117349304Y-90149034D01*
X117402922Y-89971029D01*
X116574783Y-89142889D01*
X115746644Y-89971029D01*
X115531900Y-89971029D01*
X115531900Y-89780839D01*
X115567038Y-89791423D01*
X116395178Y-88963284D01*
X116754388Y-88963284D01*
X117582528Y-89791423D01*
X117828647Y-89717289D01*
X118021748Y-89180061D01*
X118000623Y-88736974D01*
X121983683Y-88736974D01*
X121983683Y-89577534D01*
X122142433Y-89736284D01*
X123444183Y-89736284D01*
X123444183Y-88387034D01*
X123698183Y-88387034D01*
X123698183Y-89736284D01*
X123718183Y-89736284D01*
X123718183Y-89990284D01*
X123698183Y-89990284D01*
X123698183Y-91339534D01*
X123856933Y-91498284D01*
X124649992Y-91498284D01*
X124883381Y-91401611D01*
X125062010Y-91222983D01*
X125095739Y-91141554D01*
X125491773Y-91406175D01*
X126111183Y-91529384D01*
X126730594Y-91406175D01*
X127255706Y-91055307D01*
X127381183Y-90867517D01*
X127506660Y-91055307D01*
X128031773Y-91406175D01*
X128651183Y-91529384D01*
X129270594Y-91406175D01*
X129795706Y-91055307D01*
X130146574Y-90530194D01*
X130238683Y-90067133D01*
X130238683Y-89659434D01*
X130222454Y-89577845D01*
X132312583Y-89577845D01*
X132312583Y-90148723D01*
X132531049Y-90676146D01*
X132934721Y-91079818D01*
X133462144Y-91298284D01*
X134033022Y-91298284D01*
X134560445Y-91079818D01*
X134964117Y-90676146D01*
X135172630Y-90172750D01*
X145843100Y-90172750D01*
X145843100Y-91013310D01*
X145939773Y-91246699D01*
X146118402Y-91425327D01*
X146351791Y-91522000D01*
X147144850Y-91522000D01*
X147303600Y-91363250D01*
X147303600Y-90014000D01*
X146001850Y-90014000D01*
X145843100Y-90172750D01*
X135172630Y-90172750D01*
X135182583Y-90148723D01*
X135182583Y-89577845D01*
X134964117Y-89050422D01*
X134805440Y-88891745D01*
X138911861Y-88891745D01*
X138985995Y-89137864D01*
X139523223Y-89330965D01*
X140093454Y-89303778D01*
X140494005Y-89137864D01*
X140568139Y-88891745D01*
X139740000Y-88063605D01*
X138911861Y-88891745D01*
X134805440Y-88891745D01*
X134560445Y-88646750D01*
X134033022Y-88428284D01*
X133462144Y-88428284D01*
X132934721Y-88646750D01*
X132531049Y-89050422D01*
X132312583Y-89577845D01*
X130222454Y-89577845D01*
X130146574Y-89196373D01*
X129795706Y-88671261D01*
X129270593Y-88320393D01*
X128651183Y-88197184D01*
X128031772Y-88320393D01*
X127506660Y-88671261D01*
X127381183Y-88859051D01*
X127255706Y-88671261D01*
X126730593Y-88320393D01*
X126111183Y-88197184D01*
X125491772Y-88320393D01*
X125095739Y-88585013D01*
X125062010Y-88503585D01*
X124883381Y-88324957D01*
X124649992Y-88228284D01*
X123856933Y-88228284D01*
X123698183Y-88387034D01*
X123444183Y-88387034D01*
X123285433Y-88228284D01*
X122492374Y-88228284D01*
X122258985Y-88324957D01*
X122080356Y-88503585D01*
X121983683Y-88736974D01*
X118000623Y-88736974D01*
X117994561Y-88609830D01*
X117828647Y-88209279D01*
X117582528Y-88135145D01*
X116754388Y-88963284D01*
X116395178Y-88963284D01*
X115567038Y-88135145D01*
X115531900Y-88145729D01*
X115531900Y-88082298D01*
X115546082Y-88011000D01*
X115514695Y-87853207D01*
X115527018Y-87861441D01*
X115760970Y-87907977D01*
X115746644Y-87955539D01*
X116574783Y-88783679D01*
X117402922Y-87955539D01*
X117388596Y-87907977D01*
X117622548Y-87861441D01*
X117832592Y-87721093D01*
X117868587Y-87667223D01*
X138293035Y-87667223D01*
X138320222Y-88237454D01*
X138486136Y-88638005D01*
X138732255Y-88712139D01*
X139560395Y-87884000D01*
X139919605Y-87884000D01*
X140747745Y-88712139D01*
X140795307Y-88697813D01*
X140841843Y-88931765D01*
X140982191Y-89141809D01*
X141192235Y-89282157D01*
X141440000Y-89331440D01*
X143040000Y-89331440D01*
X143287765Y-89282157D01*
X143497809Y-89141809D01*
X143638157Y-88931765D01*
X143672185Y-88760690D01*
X145843100Y-88760690D01*
X145843100Y-89601250D01*
X146001850Y-89760000D01*
X147303600Y-89760000D01*
X147303600Y-88410750D01*
X147557600Y-88410750D01*
X147557600Y-89760000D01*
X147577600Y-89760000D01*
X147577600Y-90014000D01*
X147557600Y-90014000D01*
X147557600Y-91363250D01*
X147716350Y-91522000D01*
X148509409Y-91522000D01*
X148742798Y-91425327D01*
X148921427Y-91246699D01*
X148955156Y-91165270D01*
X149351190Y-91429891D01*
X149970600Y-91553100D01*
X150590011Y-91429891D01*
X151115123Y-91079023D01*
X151240600Y-90891233D01*
X151366077Y-91079023D01*
X151891190Y-91429891D01*
X152510600Y-91553100D01*
X153130011Y-91429891D01*
X153655123Y-91079023D01*
X154005991Y-90553910D01*
X154098100Y-90090849D01*
X154098100Y-89683150D01*
X154081871Y-89601561D01*
X156172000Y-89601561D01*
X156172000Y-90172439D01*
X156390466Y-90699862D01*
X156794138Y-91103534D01*
X157321561Y-91322000D01*
X157892439Y-91322000D01*
X158419862Y-91103534D01*
X158823534Y-90699862D01*
X159042000Y-90172439D01*
X159042000Y-89601561D01*
X158823534Y-89074138D01*
X158419862Y-88670466D01*
X157892439Y-88452000D01*
X157321561Y-88452000D01*
X156794138Y-88670466D01*
X156390466Y-89074138D01*
X156172000Y-89601561D01*
X154081871Y-89601561D01*
X154005991Y-89220089D01*
X153655123Y-88694977D01*
X153130010Y-88344109D01*
X152510600Y-88220900D01*
X151891189Y-88344109D01*
X151366077Y-88694977D01*
X151240600Y-88882767D01*
X151115123Y-88694977D01*
X150590010Y-88344109D01*
X149970600Y-88220900D01*
X149351189Y-88344109D01*
X148955156Y-88608729D01*
X148921427Y-88527301D01*
X148742798Y-88348673D01*
X148509409Y-88252000D01*
X147716350Y-88252000D01*
X147557600Y-88410750D01*
X147303600Y-88410750D01*
X147144850Y-88252000D01*
X146351791Y-88252000D01*
X146118402Y-88348673D01*
X145939773Y-88527301D01*
X145843100Y-88760690D01*
X143672185Y-88760690D01*
X143687440Y-88684000D01*
X143687440Y-87084000D01*
X143638157Y-86836235D01*
X143497809Y-86626191D01*
X143287765Y-86485843D01*
X143040000Y-86436560D01*
X141440000Y-86436560D01*
X141192235Y-86485843D01*
X140982191Y-86626191D01*
X140841843Y-86836235D01*
X140795307Y-87070187D01*
X140747745Y-87055861D01*
X139919605Y-87884000D01*
X139560395Y-87884000D01*
X138732255Y-87055861D01*
X138486136Y-87129995D01*
X138293035Y-87667223D01*
X117868587Y-87667223D01*
X117972940Y-87511049D01*
X118022223Y-87263284D01*
X118022223Y-86876255D01*
X138911861Y-86876255D01*
X139740000Y-87704395D01*
X140568139Y-86876255D01*
X140494005Y-86630136D01*
X139956777Y-86437035D01*
X139386546Y-86464222D01*
X138985995Y-86630136D01*
X138911861Y-86876255D01*
X118022223Y-86876255D01*
X118022223Y-85871029D01*
X132919444Y-85871029D01*
X132993578Y-86117148D01*
X133530806Y-86310249D01*
X134101037Y-86283062D01*
X134501588Y-86117148D01*
X134568578Y-85894745D01*
X156778861Y-85894745D01*
X156852995Y-86140864D01*
X157390223Y-86333965D01*
X157960454Y-86306778D01*
X158361005Y-86140864D01*
X158435139Y-85894745D01*
X157607000Y-85066605D01*
X156778861Y-85894745D01*
X134568578Y-85894745D01*
X134575722Y-85871029D01*
X133747583Y-85042889D01*
X132919444Y-85871029D01*
X118022223Y-85871029D01*
X118022223Y-85663284D01*
X117972940Y-85415519D01*
X117832592Y-85205475D01*
X117622548Y-85065127D01*
X117374783Y-85015844D01*
X115774783Y-85015844D01*
X115527018Y-85065127D01*
X115316974Y-85205475D01*
X115176626Y-85415519D01*
X115127343Y-85663284D01*
X115127343Y-87263284D01*
X115138097Y-87317347D01*
X112467256Y-84646507D01*
X132300618Y-84646507D01*
X132327805Y-85216738D01*
X132493719Y-85617289D01*
X132739838Y-85691423D01*
X133567978Y-84863284D01*
X133927188Y-84863284D01*
X134755328Y-85691423D01*
X135001447Y-85617289D01*
X135194548Y-85080061D01*
X135175009Y-84670223D01*
X156160035Y-84670223D01*
X156187222Y-85240454D01*
X156353136Y-85641005D01*
X156599255Y-85715139D01*
X157427395Y-84887000D01*
X157786605Y-84887000D01*
X158614745Y-85715139D01*
X158860864Y-85641005D01*
X159053965Y-85103777D01*
X159026778Y-84533546D01*
X158860864Y-84132995D01*
X158614745Y-84058861D01*
X157786605Y-84887000D01*
X157427395Y-84887000D01*
X156599255Y-84058861D01*
X156353136Y-84132995D01*
X156160035Y-84670223D01*
X135175009Y-84670223D01*
X135167361Y-84509830D01*
X135001447Y-84109279D01*
X134755328Y-84035145D01*
X133927188Y-84863284D01*
X133567978Y-84863284D01*
X132739838Y-84035145D01*
X132493719Y-84109279D01*
X132300618Y-84646507D01*
X112467256Y-84646507D01*
X112269150Y-84448402D01*
X112306000Y-84359439D01*
X112306000Y-83855539D01*
X132919444Y-83855539D01*
X133747583Y-84683679D01*
X134575722Y-83855539D01*
X134501588Y-83609420D01*
X133964360Y-83416319D01*
X133394129Y-83443506D01*
X132993578Y-83609420D01*
X132919444Y-83855539D01*
X112306000Y-83855539D01*
X112306000Y-83788561D01*
X112087534Y-83261138D01*
X111683862Y-82857466D01*
X111554784Y-82804000D01*
X111683862Y-82750534D01*
X112087534Y-82346862D01*
X112306000Y-81819439D01*
X112306000Y-81248561D01*
X112087534Y-80721138D01*
X111683862Y-80317466D01*
X111554784Y-80264000D01*
X111683862Y-80210534D01*
X112087534Y-79806862D01*
X112306000Y-79279439D01*
X112306000Y-78708561D01*
X112087534Y-78181138D01*
X112042375Y-78135979D01*
X130683000Y-78135979D01*
X130683000Y-79247501D01*
X131108361Y-80274414D01*
X131894326Y-81060379D01*
X132921239Y-81485740D01*
X134032761Y-81485740D01*
X135059674Y-81060379D01*
X135663192Y-80456861D01*
X135382000Y-81135719D01*
X135382000Y-82247241D01*
X135807361Y-83274154D01*
X136593326Y-84060119D01*
X137620239Y-84485480D01*
X138731761Y-84485480D01*
X139758674Y-84060119D01*
X139939538Y-83879255D01*
X156778861Y-83879255D01*
X157607000Y-84707395D01*
X158435139Y-83879255D01*
X158361005Y-83633136D01*
X157823777Y-83440035D01*
X157253546Y-83467222D01*
X156852995Y-83633136D01*
X156778861Y-83879255D01*
X139939538Y-83879255D01*
X140544639Y-83274154D01*
X140970000Y-82247241D01*
X140970000Y-81135719D01*
X140544639Y-80108806D01*
X139758674Y-79322841D01*
X138731761Y-78897480D01*
X137620239Y-78897480D01*
X136593326Y-79322841D01*
X135989808Y-79926359D01*
X136271000Y-79247501D01*
X136271000Y-78135979D01*
X136082869Y-77681790D01*
X136365815Y-77681790D01*
X136605963Y-78069035D01*
X137635127Y-78488921D01*
X138746634Y-78483001D01*
X139746037Y-78069035D01*
X139986185Y-77681790D01*
X138176000Y-75871605D01*
X136365815Y-77681790D01*
X136082869Y-77681790D01*
X135947037Y-77353863D01*
X136186210Y-77502185D01*
X137996395Y-75692000D01*
X138355605Y-75692000D01*
X140165790Y-77502185D01*
X140553035Y-77262037D01*
X140972921Y-76232873D01*
X140967001Y-75121366D01*
X140553035Y-74121963D01*
X140165790Y-73881815D01*
X138355605Y-75692000D01*
X137996395Y-75692000D01*
X136186210Y-73881815D01*
X135798965Y-74121963D01*
X135379079Y-75151127D01*
X135384999Y-76262634D01*
X135657795Y-76921222D01*
X135059674Y-76323101D01*
X134032761Y-75897740D01*
X132921239Y-75897740D01*
X131894326Y-76323101D01*
X131108361Y-77109066D01*
X130683000Y-78135979D01*
X112042375Y-78135979D01*
X111683862Y-77777466D01*
X111554784Y-77724000D01*
X111683862Y-77670534D01*
X112087534Y-77266862D01*
X112306000Y-76739439D01*
X112306000Y-76168561D01*
X112087534Y-75641138D01*
X111683862Y-75237466D01*
X111554784Y-75184000D01*
X111683862Y-75130534D01*
X112087534Y-74726862D01*
X112306000Y-74199439D01*
X112306000Y-73628561D01*
X112129845Y-73203284D01*
X123679459Y-73203284D01*
X123864563Y-74133864D01*
X124391694Y-74922773D01*
X125180603Y-75449904D01*
X125876286Y-75588284D01*
X126346080Y-75588284D01*
X127041763Y-75449904D01*
X127830672Y-74922773D01*
X128357803Y-74133864D01*
X128443664Y-73702210D01*
X136365815Y-73702210D01*
X138176000Y-75512395D01*
X139986185Y-73702210D01*
X139746037Y-73314965D01*
X139530430Y-73227000D01*
X147538876Y-73227000D01*
X147723980Y-74157580D01*
X148251111Y-74946489D01*
X149040020Y-75473620D01*
X149735703Y-75612000D01*
X150205497Y-75612000D01*
X150901180Y-75473620D01*
X151690089Y-74946489D01*
X152217220Y-74157580D01*
X152402324Y-73227000D01*
X152217220Y-72296420D01*
X151690089Y-71507511D01*
X150901180Y-70980380D01*
X150205497Y-70842000D01*
X149735703Y-70842000D01*
X149040020Y-70980380D01*
X148251111Y-71507511D01*
X147723980Y-72296420D01*
X147538876Y-73227000D01*
X139530430Y-73227000D01*
X138716873Y-72895079D01*
X137605366Y-72900999D01*
X136605963Y-73314965D01*
X136365815Y-73702210D01*
X128443664Y-73702210D01*
X128542907Y-73203284D01*
X128357803Y-72272704D01*
X127830672Y-71483795D01*
X127041763Y-70956664D01*
X126346080Y-70818284D01*
X125876286Y-70818284D01*
X125180603Y-70956664D01*
X124391694Y-71483795D01*
X123864563Y-72272704D01*
X123679459Y-73203284D01*
X112129845Y-73203284D01*
X112087534Y-73101138D01*
X111683862Y-72697466D01*
X111554784Y-72644000D01*
X111683862Y-72590534D01*
X112087534Y-72186862D01*
X112306000Y-71659439D01*
X112306000Y-71088561D01*
X112087534Y-70561138D01*
X111683862Y-70157466D01*
X111156439Y-69939000D01*
X110585561Y-69939000D01*
X110058138Y-70157466D01*
X109654466Y-70561138D01*
X109436000Y-71088561D01*
X109436000Y-71659439D01*
X109654466Y-72186862D01*
X110058138Y-72590534D01*
X110187216Y-72644000D01*
X110058138Y-72697466D01*
X109654466Y-73101138D01*
X109436000Y-73628561D01*
X109436000Y-74199439D01*
X109654466Y-74726862D01*
X110058138Y-75130534D01*
X110187216Y-75184000D01*
X110058138Y-75237466D01*
X109654466Y-75641138D01*
X109436000Y-76168561D01*
X109436000Y-76739439D01*
X109654466Y-77266862D01*
X110058138Y-77670534D01*
X110187216Y-77724000D01*
X110058138Y-77777466D01*
X109654466Y-78181138D01*
X109436000Y-78708561D01*
X109436000Y-79279439D01*
X109654466Y-79806862D01*
X110058138Y-80210534D01*
X110187216Y-80264000D01*
X110058138Y-80317466D01*
X109654466Y-80721138D01*
X109436000Y-81248561D01*
X109436000Y-81819439D01*
X109654466Y-82346862D01*
X110058138Y-82750534D01*
X110187216Y-82804000D01*
X110058138Y-82857466D01*
X109654466Y-83261138D01*
X109436000Y-83788561D01*
X109436000Y-84359439D01*
X109654466Y-84886862D01*
X110058138Y-85290534D01*
X110187216Y-85344000D01*
X110058138Y-85397466D01*
X109654466Y-85801138D01*
X109436000Y-86328561D01*
X109436000Y-86899439D01*
X109654466Y-87426862D01*
X110058138Y-87830534D01*
X110187216Y-87884000D01*
X110058138Y-87937466D01*
X109654466Y-88341138D01*
X109436000Y-88868561D01*
X109436000Y-89439439D01*
X109654466Y-89966862D01*
X110058138Y-90370534D01*
X110187216Y-90424000D01*
X110058138Y-90477466D01*
X109654466Y-90881138D01*
X109436000Y-91408561D01*
X109436000Y-91979439D01*
X109654466Y-92506862D01*
X110058138Y-92910534D01*
X110187216Y-92964000D01*
X110058138Y-93017466D01*
X109654466Y-93421138D01*
X109436000Y-93948561D01*
X109436000Y-94519439D01*
X109654466Y-95046862D01*
X110058138Y-95450534D01*
X110187216Y-95504000D01*
X110058138Y-95557466D01*
X109654466Y-95961138D01*
X109436000Y-96488561D01*
X109436000Y-97059439D01*
X109654466Y-97586862D01*
X110058138Y-97990534D01*
X110187216Y-98044000D01*
X110058138Y-98097466D01*
X109654466Y-98501138D01*
X109436000Y-99028561D01*
X109436000Y-99599439D01*
X109654466Y-100126862D01*
X110058138Y-100530534D01*
X110187216Y-100584000D01*
X110058138Y-100637466D01*
X109654466Y-101041138D01*
X109436000Y-101568561D01*
X109436000Y-102139439D01*
X109654466Y-102666862D01*
X110058138Y-103070534D01*
X110187216Y-103124000D01*
X110058138Y-103177466D01*
X109654466Y-103581138D01*
X109436000Y-104108561D01*
X109436000Y-104679439D01*
X109654466Y-105206862D01*
X110058138Y-105610534D01*
X110187216Y-105664000D01*
X110058138Y-105717466D01*
X109654466Y-106121138D01*
X109436000Y-106648561D01*
X109436000Y-107219439D01*
X109654466Y-107746862D01*
X110058138Y-108150534D01*
X110187216Y-108204000D01*
X110058138Y-108257466D01*
X109654466Y-108661138D01*
X109436000Y-109188561D01*
X109436000Y-109759439D01*
X109654466Y-110286862D01*
X110058138Y-110690534D01*
X110187216Y-110744000D01*
X110058138Y-110797466D01*
X109654466Y-111201138D01*
X109610152Y-111308121D01*
X97421601Y-99119571D01*
X97421601Y-85211998D01*
X97435783Y-85140700D01*
X97379600Y-84858249D01*
X97259990Y-84679241D01*
X97219603Y-84618798D01*
X97159161Y-84578412D01*
X97029150Y-84448402D01*
X97066000Y-84359439D01*
X97066000Y-83788561D01*
X96847534Y-83261138D01*
X96443862Y-82857466D01*
X96314784Y-82804000D01*
X96443862Y-82750534D01*
X96847534Y-82346862D01*
X97066000Y-81819439D01*
X97066000Y-81248561D01*
X96847534Y-80721138D01*
X96443862Y-80317466D01*
X96314784Y-80264000D01*
X96443862Y-80210534D01*
X96847534Y-79806862D01*
X97066000Y-79279439D01*
X97066000Y-78708561D01*
X96847534Y-78181138D01*
X96443862Y-77777466D01*
X96314784Y-77724000D01*
X96443862Y-77670534D01*
X96847534Y-77266862D01*
X97066000Y-76739439D01*
X97066000Y-76168561D01*
X96847534Y-75641138D01*
X96443862Y-75237466D01*
X96314784Y-75184000D01*
X96443862Y-75130534D01*
X96847534Y-74726862D01*
X97066000Y-74199439D01*
X97066000Y-73628561D01*
X96847534Y-73101138D01*
X96555396Y-72809000D01*
X96557310Y-72809000D01*
X96790699Y-72712327D01*
X96969327Y-72533698D01*
X97066000Y-72300309D01*
X97066000Y-71659750D01*
X96907250Y-71501000D01*
X95758000Y-71501000D01*
X95758000Y-71521000D01*
X95504000Y-71521000D01*
X95504000Y-71501000D01*
X94354750Y-71501000D01*
X94196000Y-71659750D01*
X91521017Y-71659750D01*
X91556741Y-71624026D01*
X91897000Y-70802569D01*
X91897000Y-70447691D01*
X94196000Y-70447691D01*
X94196000Y-71088250D01*
X94354750Y-71247000D01*
X95504000Y-71247000D01*
X95504000Y-70097750D01*
X95758000Y-70097750D01*
X95758000Y-71247000D01*
X96907250Y-71247000D01*
X97066000Y-71088250D01*
X97066000Y-70447691D01*
X96969327Y-70214302D01*
X96790699Y-70035673D01*
X96557310Y-69939000D01*
X95916750Y-69939000D01*
X95758000Y-70097750D01*
X95504000Y-70097750D01*
X95345250Y-69939000D01*
X94704690Y-69939000D01*
X94471301Y-70035673D01*
X94292673Y-70214302D01*
X94196000Y-70447691D01*
X91897000Y-70447691D01*
X91897000Y-69913431D01*
X91556741Y-69091974D01*
X91271767Y-68807000D01*
X156124233Y-68807000D01*
X155839259Y-69091974D01*
X155839259Y-69091974D01*
G37*
X155839259Y-69091974D02*
X155499000Y-69913431D01*
X155499000Y-70802569D01*
X155839259Y-71624026D01*
X156467974Y-72252741D01*
X157289431Y-72593000D01*
X158178569Y-72593000D01*
X159000026Y-72252741D01*
X159285000Y-71967767D01*
X159285001Y-128184234D01*
X159000026Y-127899259D01*
X158178569Y-127559000D01*
X157289431Y-127559000D01*
X156467974Y-127899259D01*
X155839259Y-128527974D01*
X155499000Y-129349431D01*
X155499000Y-130238569D01*
X155839259Y-131060026D01*
X156124233Y-131345000D01*
X91271767Y-131345000D01*
X91556741Y-131060026D01*
X91897000Y-130238569D01*
X91897000Y-129349431D01*
X91556741Y-128527974D01*
X90928026Y-127899259D01*
X90106569Y-127559000D01*
X89217431Y-127559000D01*
X88395974Y-127899259D01*
X88111000Y-128184233D01*
X88111000Y-115601750D01*
X88431000Y-115601750D01*
X88431000Y-116292310D01*
X88527673Y-116525699D01*
X88706302Y-116704327D01*
X88939691Y-116801000D01*
X89630250Y-116801000D01*
X89789000Y-116642250D01*
X89789000Y-115443000D01*
X90043000Y-115443000D01*
X90043000Y-116642250D01*
X90201750Y-116801000D01*
X90892309Y-116801000D01*
X91125698Y-116704327D01*
X91304327Y-116525699D01*
X91401000Y-116292310D01*
X91401000Y-115601750D01*
X91242250Y-115443000D01*
X90043000Y-115443000D01*
X89789000Y-115443000D01*
X88589750Y-115443000D01*
X88431000Y-115601750D01*
X88111000Y-115601750D01*
X88111000Y-89916000D01*
X88401908Y-89916000D01*
X88517161Y-90495418D01*
X88845375Y-90986625D01*
X89143761Y-91186000D01*
X88845375Y-91385375D01*
X88517161Y-91876582D01*
X88401908Y-92456000D01*
X88517161Y-93035418D01*
X88845375Y-93526625D01*
X89143761Y-93726000D01*
X88845375Y-93925375D01*
X88517161Y-94416582D01*
X88401908Y-94996000D01*
X88517161Y-95575418D01*
X88845375Y-96066625D01*
X89143761Y-96266000D01*
X88845375Y-96465375D01*
X88517161Y-96956582D01*
X88401908Y-97536000D01*
X88517161Y-98115418D01*
X88845375Y-98606625D01*
X89143761Y-98806000D01*
X88845375Y-99005375D01*
X88517161Y-99496582D01*
X88401908Y-100076000D01*
X88517161Y-100655418D01*
X88845375Y-101146625D01*
X89143761Y-101346000D01*
X88845375Y-101545375D01*
X88517161Y-102036582D01*
X88401908Y-102616000D01*
X88517161Y-103195418D01*
X88845375Y-103686625D01*
X89143761Y-103886000D01*
X88845375Y-104085375D01*
X88517161Y-104576582D01*
X88401908Y-105156000D01*
X88517161Y-105735418D01*
X88845375Y-106226625D01*
X89143761Y-106426000D01*
X88845375Y-106625375D01*
X88517161Y-107116582D01*
X88401908Y-107696000D01*
X88517161Y-108275418D01*
X88845375Y-108766625D01*
X89143761Y-108966000D01*
X88845375Y-109165375D01*
X88517161Y-109656582D01*
X88401908Y-110236000D01*
X88517161Y-110815418D01*
X88845375Y-111306625D01*
X89143761Y-111506000D01*
X88845375Y-111705375D01*
X88517161Y-112196582D01*
X88401908Y-112776000D01*
X88517161Y-113355418D01*
X88845375Y-113846625D01*
X88867033Y-113861096D01*
X88706302Y-113927673D01*
X88527673Y-114106301D01*
X88431000Y-114339690D01*
X88431000Y-115030250D01*
X88589750Y-115189000D01*
X89789000Y-115189000D01*
X89789000Y-115169000D01*
X90043000Y-115169000D01*
X90043000Y-115189000D01*
X91242250Y-115189000D01*
X91401000Y-115030250D01*
X91401000Y-114339690D01*
X91304327Y-114106301D01*
X91125698Y-113927673D01*
X90964967Y-113861096D01*
X90986625Y-113846625D01*
X91314839Y-113355418D01*
X91430092Y-112776000D01*
X91314839Y-112196582D01*
X90986625Y-111705375D01*
X90688239Y-111506000D01*
X90986625Y-111306625D01*
X91314839Y-110815418D01*
X91430092Y-110236000D01*
X91314839Y-109656582D01*
X90986625Y-109165375D01*
X90688239Y-108966000D01*
X90986625Y-108766625D01*
X91314839Y-108275418D01*
X91430092Y-107696000D01*
X91314839Y-107116582D01*
X90986625Y-106625375D01*
X90688239Y-106426000D01*
X90986625Y-106226625D01*
X91314839Y-105735418D01*
X91430092Y-105156000D01*
X91314839Y-104576582D01*
X90986625Y-104085375D01*
X90688239Y-103886000D01*
X90986625Y-103686625D01*
X91314839Y-103195418D01*
X91430092Y-102616000D01*
X91314839Y-102036582D01*
X90986625Y-101545375D01*
X90688239Y-101346000D01*
X90986625Y-101146625D01*
X91314839Y-100655418D01*
X91430092Y-100076000D01*
X91314839Y-99496582D01*
X90986625Y-99005375D01*
X90688239Y-98806000D01*
X90986625Y-98606625D01*
X91314839Y-98115418D01*
X91430092Y-97536000D01*
X91314839Y-96956582D01*
X90986625Y-96465375D01*
X90688239Y-96266000D01*
X90986625Y-96066625D01*
X91314839Y-95575418D01*
X91430092Y-94996000D01*
X91314839Y-94416582D01*
X90986625Y-93925375D01*
X90688239Y-93726000D01*
X90986625Y-93526625D01*
X91314839Y-93035418D01*
X91430092Y-92456000D01*
X91314839Y-91876582D01*
X90986625Y-91385375D01*
X90688239Y-91186000D01*
X90986625Y-90986625D01*
X91314839Y-90495418D01*
X91430092Y-89916000D01*
X91314839Y-89336582D01*
X90986625Y-88845375D01*
X90667522Y-88632157D01*
X90797358Y-88571183D01*
X91187645Y-88142924D01*
X91357476Y-87732890D01*
X91236155Y-87503000D01*
X90043000Y-87503000D01*
X90043000Y-87523000D01*
X89789000Y-87523000D01*
X89789000Y-87503000D01*
X88595845Y-87503000D01*
X88474524Y-87732890D01*
X88644355Y-88142924D01*
X89034642Y-88571183D01*
X89164478Y-88632157D01*
X88845375Y-88845375D01*
X88517161Y-89336582D01*
X88401908Y-89916000D01*
X88111000Y-89916000D01*
X88111000Y-87019110D01*
X88474524Y-87019110D01*
X88595845Y-87249000D01*
X89789000Y-87249000D01*
X89789000Y-86055181D01*
X90043000Y-86055181D01*
X90043000Y-87249000D01*
X91236155Y-87249000D01*
X91357476Y-87019110D01*
X91187645Y-86609076D01*
X90797358Y-86180817D01*
X90272892Y-85934514D01*
X90043000Y-86055181D01*
X89789000Y-86055181D01*
X89559108Y-85934514D01*
X89034642Y-86180817D01*
X88644355Y-86609076D01*
X88474524Y-87019110D01*
X88111000Y-87019110D01*
X88111000Y-71967767D01*
X88395974Y-72252741D01*
X89217431Y-72593000D01*
X90106569Y-72593000D01*
X90928026Y-72252741D01*
X91521017Y-71659750D01*
X94196000Y-71659750D01*
X94196000Y-72300309D01*
X94292673Y-72533698D01*
X94471301Y-72712327D01*
X94704690Y-72809000D01*
X94706604Y-72809000D01*
X94414466Y-73101138D01*
X94196000Y-73628561D01*
X94196000Y-74199439D01*
X94414466Y-74726862D01*
X94818138Y-75130534D01*
X94947216Y-75184000D01*
X94818138Y-75237466D01*
X94414466Y-75641138D01*
X94196000Y-76168561D01*
X94196000Y-76739439D01*
X94414466Y-77266862D01*
X94818138Y-77670534D01*
X94947216Y-77724000D01*
X94818138Y-77777466D01*
X94414466Y-78181138D01*
X94196000Y-78708561D01*
X94196000Y-79279439D01*
X94414466Y-79806862D01*
X94818138Y-80210534D01*
X94947216Y-80264000D01*
X94818138Y-80317466D01*
X94414466Y-80721138D01*
X94196000Y-81248561D01*
X94196000Y-81819439D01*
X94414466Y-82346862D01*
X94818138Y-82750534D01*
X94947216Y-82804000D01*
X94818138Y-82857466D01*
X94414466Y-83261138D01*
X94196000Y-83788561D01*
X94196000Y-84359439D01*
X94414466Y-84886862D01*
X94818138Y-85290534D01*
X94947216Y-85344000D01*
X94818138Y-85397466D01*
X94414466Y-85801138D01*
X94196000Y-86328561D01*
X94196000Y-86899439D01*
X94414466Y-87426862D01*
X94818138Y-87830534D01*
X94947216Y-87884000D01*
X94818138Y-87937466D01*
X94414466Y-88341138D01*
X94196000Y-88868561D01*
X94196000Y-89439439D01*
X94414466Y-89966862D01*
X94818138Y-90370534D01*
X94947216Y-90424000D01*
X94818138Y-90477466D01*
X94414466Y-90881138D01*
X94196000Y-91408561D01*
X94196000Y-91979439D01*
X94414466Y-92506862D01*
X94818138Y-92910534D01*
X94947216Y-92964000D01*
X94818138Y-93017466D01*
X94414466Y-93421138D01*
X94196000Y-93948561D01*
X94196000Y-94519439D01*
X94414466Y-95046862D01*
X94818138Y-95450534D01*
X94947216Y-95504000D01*
X94818138Y-95557466D01*
X94414466Y-95961138D01*
X94196000Y-96488561D01*
X94196000Y-97059439D01*
X94414466Y-97586862D01*
X94818138Y-97990534D01*
X94947216Y-98044000D01*
X94818138Y-98097466D01*
X94414466Y-98501138D01*
X94196000Y-99028561D01*
X94196000Y-99599439D01*
X94414466Y-100126862D01*
X94818138Y-100530534D01*
X94947216Y-100584000D01*
X94818138Y-100637466D01*
X94414466Y-101041138D01*
X94196000Y-101568561D01*
X94196000Y-102139439D01*
X94414466Y-102666862D01*
X94818138Y-103070534D01*
X94947216Y-103124000D01*
X94818138Y-103177466D01*
X94414466Y-103581138D01*
X94196000Y-104108561D01*
X94196000Y-104679439D01*
X94414466Y-105206862D01*
X94818138Y-105610534D01*
X94947216Y-105664000D01*
X94818138Y-105717466D01*
X94414466Y-106121138D01*
X94196000Y-106648561D01*
X94196000Y-107219439D01*
X94414466Y-107746862D01*
X94818138Y-108150534D01*
X94947216Y-108204000D01*
X94818138Y-108257466D01*
X94414466Y-108661138D01*
X94196000Y-109188561D01*
X94196000Y-109759439D01*
X94414466Y-110286862D01*
X94818138Y-110690534D01*
X94947216Y-110744000D01*
X94818138Y-110797466D01*
X94414466Y-111201138D01*
X94196000Y-111728561D01*
X94196000Y-112299439D01*
X94414466Y-112826862D01*
X94818138Y-113230534D01*
X94947216Y-113284000D01*
X94818138Y-113337466D01*
X94414466Y-113741138D01*
X94196000Y-114268561D01*
X94196000Y-114839439D01*
X94414466Y-115366862D01*
X94818138Y-115770534D01*
X94947216Y-115824000D01*
X94818138Y-115877466D01*
X94414466Y-116281138D01*
X94196000Y-116808561D01*
X94196000Y-117379439D01*
X94414466Y-117906862D01*
X94818138Y-118310534D01*
X94947216Y-118364000D01*
X94818138Y-118417466D01*
X94414466Y-118821138D01*
X94196000Y-119348561D01*
X94196000Y-119919439D01*
X94414466Y-120446862D01*
X94818138Y-120850534D01*
X94947216Y-120904000D01*
X94818138Y-120957466D01*
X94414466Y-121361138D01*
X94196000Y-121888561D01*
X94196000Y-122459439D01*
X94414466Y-122986862D01*
X94818138Y-123390534D01*
X94947216Y-123444000D01*
X94818138Y-123497466D01*
X94414466Y-123901138D01*
X94196000Y-124428561D01*
X94196000Y-124999439D01*
X94414466Y-125526862D01*
X94818138Y-125930534D01*
X94947216Y-125984000D01*
X94818138Y-126037466D01*
X94414466Y-126441138D01*
X94196000Y-126968561D01*
X94196000Y-127539439D01*
X94414466Y-128066862D01*
X94818138Y-128470534D01*
X94947216Y-128524000D01*
X94818138Y-128577466D01*
X94414466Y-128981138D01*
X94196000Y-129508561D01*
X94196000Y-130079439D01*
X94414466Y-130606862D01*
X94818138Y-131010534D01*
X95345561Y-131229000D01*
X95916439Y-131229000D01*
X96443862Y-131010534D01*
X96847534Y-130606862D01*
X97066000Y-130079439D01*
X97066000Y-129508561D01*
X97042240Y-129451199D01*
X109459760Y-129451199D01*
X109436000Y-129508561D01*
X109436000Y-130079439D01*
X109654466Y-130606862D01*
X110058138Y-131010534D01*
X110585561Y-131229000D01*
X111156439Y-131229000D01*
X111683862Y-131010534D01*
X112087534Y-130606862D01*
X112306000Y-130079439D01*
X112306000Y-129508561D01*
X112282240Y-129451199D01*
X120629403Y-129451199D01*
X120700701Y-129465381D01*
X120771999Y-129451199D01*
X120983153Y-129409198D01*
X121222604Y-129249202D01*
X121262994Y-129188754D01*
X124730003Y-125721745D01*
X135395861Y-125721745D01*
X135469995Y-125967864D01*
X136007223Y-126160965D01*
X136577454Y-126133778D01*
X136978005Y-125967864D01*
X137052139Y-125721745D01*
X136224000Y-124893605D01*
X135395861Y-125721745D01*
X124730003Y-125721745D01*
X125954525Y-124497223D01*
X134777035Y-124497223D01*
X134804222Y-125067454D01*
X134970136Y-125468005D01*
X135216255Y-125542139D01*
X136044395Y-124714000D01*
X136403605Y-124714000D01*
X137231745Y-125542139D01*
X137477864Y-125468005D01*
X137670965Y-124930777D01*
X137643778Y-124360546D01*
X137477864Y-123959995D01*
X137231745Y-123885861D01*
X136403605Y-124714000D01*
X136044395Y-124714000D01*
X135216255Y-123885861D01*
X134970136Y-123959995D01*
X134777035Y-124497223D01*
X125954525Y-124497223D01*
X126745493Y-123706255D01*
X135395861Y-123706255D01*
X136224000Y-124534395D01*
X137052139Y-123706255D01*
X136978005Y-123460136D01*
X136440777Y-123267035D01*
X135870546Y-123294222D01*
X135469995Y-123460136D01*
X135395861Y-123706255D01*
X126745493Y-123706255D01*
X128157531Y-122294218D01*
X128382667Y-122339000D01*
X128665333Y-122339000D01*
X129083909Y-122255740D01*
X129558577Y-121938577D01*
X129814947Y-121554892D01*
X129911611Y-121759134D01*
X130326577Y-122135041D01*
X130714961Y-122295904D01*
X130937000Y-122173915D01*
X130937000Y-121031000D01*
X130917000Y-121031000D01*
X130917000Y-120777000D01*
X130937000Y-120777000D01*
X130937000Y-119634085D01*
X130714961Y-119512096D01*
X130326577Y-119672959D01*
X129911611Y-120048866D01*
X129814947Y-120253108D01*
X129558577Y-119869423D01*
X129083909Y-119552260D01*
X128665333Y-119469000D01*
X128382667Y-119469000D01*
X127964091Y-119552260D01*
X127489423Y-119869423D01*
X127254000Y-120221758D01*
X127018577Y-119869423D01*
X126543909Y-119552260D01*
X126125333Y-119469000D01*
X125842667Y-119469000D01*
X125424091Y-119552260D01*
X124949423Y-119869423D01*
X124714000Y-120221758D01*
X124478577Y-119869423D01*
X124003909Y-119552260D01*
X123585333Y-119469000D01*
X123302667Y-119469000D01*
X122884091Y-119552260D01*
X122409423Y-119869423D01*
X122174000Y-120221758D01*
X121938577Y-119869423D01*
X121463909Y-119552260D01*
X121045333Y-119469000D01*
X120762667Y-119469000D01*
X120344091Y-119552260D01*
X119869423Y-119869423D01*
X119634000Y-120221758D01*
X119398577Y-119869423D01*
X118923909Y-119552260D01*
X118505333Y-119469000D01*
X118222667Y-119469000D01*
X117997531Y-119513782D01*
X116589592Y-118105844D01*
X116549202Y-118045396D01*
X116309751Y-117885400D01*
X116098597Y-117843399D01*
X116027299Y-117829217D01*
X115956001Y-117843399D01*
X112113821Y-117843399D01*
X112306000Y-117379439D01*
X112306000Y-116808561D01*
X112087534Y-116281138D01*
X111683862Y-115877466D01*
X111554784Y-115824000D01*
X111683862Y-115770534D01*
X112087534Y-115366862D01*
X112306000Y-114839439D01*
X112306000Y-114268561D01*
X112113821Y-113804601D01*
X135640853Y-113804601D01*
X141305251Y-119469000D01*
X141082667Y-119469000D01*
X140664091Y-119552260D01*
X140189423Y-119869423D01*
X139954000Y-120221758D01*
X139718577Y-119869423D01*
X139243909Y-119552260D01*
X138825333Y-119469000D01*
X138542667Y-119469000D01*
X138124091Y-119552260D01*
X137649423Y-119869423D01*
X137414000Y-120221758D01*
X137178577Y-119869423D01*
X136703909Y-119552260D01*
X136285333Y-119469000D01*
X136002667Y-119469000D01*
X135584091Y-119552260D01*
X135109423Y-119869423D01*
X134874000Y-120221758D01*
X134638577Y-119869423D01*
X134163909Y-119552260D01*
X133745333Y-119469000D01*
X133462667Y-119469000D01*
X133044091Y-119552260D01*
X132569423Y-119869423D01*
X132313053Y-120253108D01*
X132216389Y-120048866D01*
X131801423Y-119672959D01*
X131413039Y-119512096D01*
X131191000Y-119634085D01*
X131191000Y-120777000D01*
X131211000Y-120777000D01*
X131211000Y-121031000D01*
X131191000Y-121031000D01*
X131191000Y-122173915D01*
X131413039Y-122295904D01*
X131801423Y-122135041D01*
X132216389Y-121759134D01*
X132313053Y-121554892D01*
X132569423Y-121938577D01*
X133044091Y-122255740D01*
X133462667Y-122339000D01*
X133745333Y-122339000D01*
X134163909Y-122255740D01*
X134638577Y-121938577D01*
X134874000Y-121586242D01*
X135109423Y-121938577D01*
X135584091Y-122255740D01*
X136002667Y-122339000D01*
X136285333Y-122339000D01*
X136703909Y-122255740D01*
X137178577Y-121938577D01*
X137414000Y-121586242D01*
X137649423Y-121938577D01*
X137795000Y-122035849D01*
X137795001Y-123909507D01*
X137777584Y-123997066D01*
X137836828Y-124294900D01*
X137846582Y-124343936D01*
X138043068Y-124637999D01*
X138117294Y-124687595D01*
X139942206Y-126512508D01*
X139991802Y-126586734D01*
X140285865Y-126783220D01*
X140545179Y-126834801D01*
X140545183Y-126834801D01*
X140632734Y-126852216D01*
X140720285Y-126834801D01*
X142698644Y-126834801D01*
X142786199Y-126852217D01*
X142873754Y-126834801D01*
X142873755Y-126834801D01*
X143133069Y-126783220D01*
X143427132Y-126586734D01*
X143476730Y-126512505D01*
X143840235Y-126149000D01*
X144303439Y-126149000D01*
X144830862Y-125930534D01*
X145039651Y-125721745D01*
X148189861Y-125721745D01*
X148263995Y-125967864D01*
X148801223Y-126160965D01*
X149371454Y-126133778D01*
X149772005Y-125967864D01*
X149846139Y-125721745D01*
X149018000Y-124893605D01*
X148189861Y-125721745D01*
X145039651Y-125721745D01*
X145234534Y-125526862D01*
X145453000Y-124999439D01*
X145453000Y-124536236D01*
X145492013Y-124497223D01*
X147571035Y-124497223D01*
X147598222Y-125067454D01*
X147764136Y-125468005D01*
X148010255Y-125542139D01*
X148838395Y-124714000D01*
X149197605Y-124714000D01*
X150025745Y-125542139D01*
X150271864Y-125468005D01*
X150464965Y-124930777D01*
X150437778Y-124360546D01*
X150271864Y-123959995D01*
X150025745Y-123885861D01*
X149197605Y-124714000D01*
X148838395Y-124714000D01*
X148010255Y-123885861D01*
X147764136Y-123959995D01*
X147571035Y-124497223D01*
X145492013Y-124497223D01*
X146108707Y-123880529D01*
X146182933Y-123830933D01*
X146266239Y-123706255D01*
X148189861Y-123706255D01*
X149018000Y-124534395D01*
X149846139Y-123706255D01*
X149772005Y-123460136D01*
X149234777Y-123267035D01*
X148664546Y-123294222D01*
X148263995Y-123460136D01*
X148189861Y-123706255D01*
X146266239Y-123706255D01*
X146379419Y-123536870D01*
X146424375Y-123310860D01*
X147124706Y-122610529D01*
X147198933Y-122560933D01*
X147395419Y-122266870D01*
X147447000Y-122007556D01*
X147447000Y-122007555D01*
X147464416Y-121920000D01*
X147447000Y-121832445D01*
X147447000Y-115538561D01*
X151981000Y-115538561D01*
X151981000Y-116109439D01*
X152199466Y-116636862D01*
X152603138Y-117040534D01*
X153130561Y-117259000D01*
X153701439Y-117259000D01*
X154228862Y-117040534D01*
X154632534Y-116636862D01*
X154851000Y-116109439D01*
X154851000Y-115824000D01*
X155842908Y-115824000D01*
X155958161Y-116403418D01*
X156286375Y-116894625D01*
X156777582Y-117222839D01*
X157210744Y-117309000D01*
X157503256Y-117309000D01*
X157936418Y-117222839D01*
X158427625Y-116894625D01*
X158755839Y-116403418D01*
X158871092Y-115824000D01*
X158755839Y-115244582D01*
X158427625Y-114753375D01*
X158108522Y-114540157D01*
X158238358Y-114479183D01*
X158628645Y-114050924D01*
X158798476Y-113640890D01*
X158677155Y-113411000D01*
X157484000Y-113411000D01*
X157484000Y-113431000D01*
X157230000Y-113431000D01*
X157230000Y-113411000D01*
X156036845Y-113411000D01*
X155915524Y-113640890D01*
X156085355Y-114050924D01*
X156475642Y-114479183D01*
X156605478Y-114540157D01*
X156286375Y-114753375D01*
X155958161Y-115244582D01*
X155842908Y-115824000D01*
X154851000Y-115824000D01*
X154851000Y-115538561D01*
X154632534Y-115011138D01*
X154228862Y-114607466D01*
X153701439Y-114389000D01*
X153130561Y-114389000D01*
X152603138Y-114607466D01*
X152199466Y-115011138D01*
X151981000Y-115538561D01*
X147447000Y-115538561D01*
X147447000Y-111474561D01*
X148425000Y-111474561D01*
X148425000Y-112045439D01*
X148643466Y-112572862D01*
X149047138Y-112976534D01*
X149574561Y-113195000D01*
X150145439Y-113195000D01*
X150672862Y-112976534D01*
X151076534Y-112572862D01*
X151295000Y-112045439D01*
X151295000Y-111474561D01*
X151076534Y-110947138D01*
X150873396Y-110744000D01*
X155842908Y-110744000D01*
X155958161Y-111323418D01*
X156286375Y-111814625D01*
X156605478Y-112027843D01*
X156475642Y-112088817D01*
X156085355Y-112517076D01*
X155915524Y-112927110D01*
X156036845Y-113157000D01*
X157230000Y-113157000D01*
X157230000Y-113137000D01*
X157484000Y-113137000D01*
X157484000Y-113157000D01*
X158677155Y-113157000D01*
X158798476Y-112927110D01*
X158628645Y-112517076D01*
X158238358Y-112088817D01*
X158108522Y-112027843D01*
X158427625Y-111814625D01*
X158755839Y-111323418D01*
X158871092Y-110744000D01*
X158755839Y-110164582D01*
X158427625Y-109673375D01*
X158108522Y-109460157D01*
X158238358Y-109399183D01*
X158628645Y-108970924D01*
X158798476Y-108560890D01*
X158677155Y-108331000D01*
X157484000Y-108331000D01*
X157484000Y-108351000D01*
X157230000Y-108351000D01*
X157230000Y-108331000D01*
X156036845Y-108331000D01*
X155915524Y-108560890D01*
X156085355Y-108970924D01*
X156475642Y-109399183D01*
X156605478Y-109460157D01*
X156286375Y-109673375D01*
X155958161Y-110164582D01*
X155842908Y-110744000D01*
X150873396Y-110744000D01*
X150672862Y-110543466D01*
X150145439Y-110325000D01*
X149574561Y-110325000D01*
X149047138Y-110543466D01*
X148643466Y-110947138D01*
X148425000Y-111474561D01*
X147447000Y-111474561D01*
X147447000Y-108553041D01*
X152024086Y-108553041D01*
X152263611Y-109059134D01*
X152678577Y-109435041D01*
X153066961Y-109595904D01*
X153289000Y-109473915D01*
X153289000Y-108331000D01*
X153543000Y-108331000D01*
X153543000Y-109473915D01*
X153765039Y-109595904D01*
X154153423Y-109435041D01*
X154568389Y-109059134D01*
X154807914Y-108553041D01*
X154686629Y-108331000D01*
X153543000Y-108331000D01*
X153289000Y-108331000D01*
X152145371Y-108331000D01*
X152024086Y-108553041D01*
X147447000Y-108553041D01*
X147447000Y-107854959D01*
X152024086Y-107854959D01*
X152145371Y-108077000D01*
X153289000Y-108077000D01*
X153289000Y-106934085D01*
X153543000Y-106934085D01*
X153543000Y-108077000D01*
X154686629Y-108077000D01*
X154807914Y-107854959D01*
X154568389Y-107348866D01*
X154153423Y-106972959D01*
X153765039Y-106812096D01*
X153543000Y-106934085D01*
X153289000Y-106934085D01*
X153066961Y-106812096D01*
X152678577Y-106972959D01*
X152263611Y-107348866D01*
X152024086Y-107854959D01*
X147447000Y-107854959D01*
X147447000Y-105664000D01*
X155842908Y-105664000D01*
X155958161Y-106243418D01*
X156286375Y-106734625D01*
X156605478Y-106947843D01*
X156475642Y-107008817D01*
X156085355Y-107437076D01*
X155915524Y-107847110D01*
X156036845Y-108077000D01*
X157230000Y-108077000D01*
X157230000Y-108057000D01*
X157484000Y-108057000D01*
X157484000Y-108077000D01*
X158677155Y-108077000D01*
X158798476Y-107847110D01*
X158628645Y-107437076D01*
X158238358Y-107008817D01*
X158108522Y-106947843D01*
X158427625Y-106734625D01*
X158755839Y-106243418D01*
X158871092Y-105664000D01*
X158755839Y-105084582D01*
X158427625Y-104593375D01*
X158108522Y-104380157D01*
X158238358Y-104319183D01*
X158628645Y-103890924D01*
X158798476Y-103480890D01*
X158677155Y-103251000D01*
X157484000Y-103251000D01*
X157484000Y-103271000D01*
X157230000Y-103271000D01*
X157230000Y-103251000D01*
X156036845Y-103251000D01*
X155915524Y-103480890D01*
X156085355Y-103890924D01*
X156475642Y-104319183D01*
X156605478Y-104380157D01*
X156286375Y-104593375D01*
X155958161Y-105084582D01*
X155842908Y-105664000D01*
X147447000Y-105664000D01*
X147447000Y-104508235D01*
X147466194Y-104489041D01*
X148468086Y-104489041D01*
X148707611Y-104995134D01*
X149122577Y-105371041D01*
X149510961Y-105531904D01*
X149733000Y-105409915D01*
X149733000Y-104267000D01*
X149987000Y-104267000D01*
X149987000Y-105409915D01*
X150209039Y-105531904D01*
X150597423Y-105371041D01*
X151012389Y-104995134D01*
X151251914Y-104489041D01*
X151130629Y-104267000D01*
X149987000Y-104267000D01*
X149733000Y-104267000D01*
X148589371Y-104267000D01*
X148468086Y-104489041D01*
X147466194Y-104489041D01*
X148164276Y-103790959D01*
X148468086Y-103790959D01*
X148589371Y-104013000D01*
X149733000Y-104013000D01*
X149733000Y-102870085D01*
X149987000Y-102870085D01*
X149987000Y-104013000D01*
X151130629Y-104013000D01*
X151251914Y-103790959D01*
X151012389Y-103284866D01*
X150597423Y-102908959D01*
X150209039Y-102748096D01*
X149987000Y-102870085D01*
X149733000Y-102870085D01*
X149510961Y-102748096D01*
X149122577Y-102908959D01*
X148707611Y-103284866D01*
X148468086Y-103790959D01*
X148164276Y-103790959D01*
X150482236Y-101473000D01*
X155867318Y-101473000D01*
X155908843Y-101681765D01*
X156049191Y-101891809D01*
X156259235Y-102032157D01*
X156362708Y-102052739D01*
X156085355Y-102357076D01*
X155915524Y-102767110D01*
X156036845Y-102997000D01*
X157230000Y-102997000D01*
X157230000Y-102977000D01*
X157484000Y-102977000D01*
X157484000Y-102997000D01*
X158677155Y-102997000D01*
X158798476Y-102767110D01*
X158628645Y-102357076D01*
X158351292Y-102052739D01*
X158454765Y-102032157D01*
X158664809Y-101891809D01*
X158805157Y-101681765D01*
X158854440Y-101434000D01*
X158854440Y-99734000D01*
X158805157Y-99486235D01*
X158664809Y-99276191D01*
X158454765Y-99135843D01*
X158207000Y-99086560D01*
X156507000Y-99086560D01*
X156259235Y-99135843D01*
X156049191Y-99276191D01*
X155908843Y-99486235D01*
X155867318Y-99695000D01*
X150201550Y-99695000D01*
X150113999Y-99677585D01*
X150026448Y-99695000D01*
X150026444Y-99695000D01*
X149767130Y-99746581D01*
X149473067Y-99943067D01*
X149423471Y-100017293D01*
X145991296Y-103449469D01*
X145917067Y-103499067D01*
X145720581Y-103793131D01*
X145669000Y-104052444D01*
X145651584Y-104140000D01*
X145669000Y-104227555D01*
X145669001Y-121551763D01*
X144975296Y-122245469D01*
X144901067Y-122295067D01*
X144704581Y-122589131D01*
X144670175Y-122762101D01*
X144659625Y-122815139D01*
X144195764Y-123279000D01*
X143732561Y-123279000D01*
X143205138Y-123497466D01*
X142801466Y-123901138D01*
X142621000Y-124336821D01*
X142440534Y-123901138D01*
X142113000Y-123573604D01*
X142113000Y-122035848D01*
X142258577Y-121938577D01*
X142494000Y-121586242D01*
X142729423Y-121938577D01*
X143204091Y-122255740D01*
X143622667Y-122339000D01*
X143905333Y-122339000D01*
X144323909Y-122255740D01*
X144798577Y-121938577D01*
X145115740Y-121463909D01*
X145227113Y-120904000D01*
X145115740Y-120344091D01*
X144798577Y-119869423D01*
X144323909Y-119552260D01*
X143905333Y-119469000D01*
X143622667Y-119469000D01*
X143397531Y-119513782D01*
X136502994Y-112619246D01*
X136462604Y-112558798D01*
X136223153Y-112398802D01*
X136011999Y-112356801D01*
X135940701Y-112342619D01*
X135869403Y-112356801D01*
X112282240Y-112356801D01*
X112306000Y-112299439D01*
X112306000Y-111728561D01*
X112087534Y-111201138D01*
X111683862Y-110797466D01*
X111554784Y-110744000D01*
X111683862Y-110690534D01*
X112087534Y-110286862D01*
X112306000Y-109759439D01*
X112306000Y-109188561D01*
X112087534Y-108661138D01*
X111683862Y-108257466D01*
X111554784Y-108204000D01*
X111683862Y-108150534D01*
X112087534Y-107746862D01*
X112306000Y-107219439D01*
X112306000Y-106648561D01*
X112087534Y-106121138D01*
X111979437Y-106013041D01*
X114432086Y-106013041D01*
X114671611Y-106519134D01*
X115086577Y-106895041D01*
X115474961Y-107055904D01*
X115697000Y-106933915D01*
X115697000Y-105791000D01*
X114553371Y-105791000D01*
X114432086Y-106013041D01*
X111979437Y-106013041D01*
X111683862Y-105717466D01*
X111554784Y-105664000D01*
X111683862Y-105610534D01*
X111979437Y-105314959D01*
X114432086Y-105314959D01*
X114553371Y-105537000D01*
X115697000Y-105537000D01*
X115697000Y-104394085D01*
X115474961Y-104272096D01*
X115086577Y-104432959D01*
X114671611Y-104808866D01*
X114432086Y-105314959D01*
X111979437Y-105314959D01*
X112087534Y-105206862D01*
X112306000Y-104679439D01*
X112306000Y-104108561D01*
X112087534Y-103581138D01*
X111884295Y-103377899D01*
X115054151Y-103377899D01*
X116028020Y-104351770D01*
X115951000Y-104394085D01*
X115951000Y-105537000D01*
X115971000Y-105537000D01*
X115971000Y-105791000D01*
X115951000Y-105791000D01*
X115951000Y-106933915D01*
X116173039Y-107055904D01*
X116561423Y-106895041D01*
X116976389Y-106519134D01*
X117073053Y-106314892D01*
X117329423Y-106698577D01*
X117804091Y-107015740D01*
X118222667Y-107099000D01*
X118505333Y-107099000D01*
X118923909Y-107015740D01*
X119398577Y-106698577D01*
X119634000Y-106346242D01*
X119869423Y-106698577D01*
X120344091Y-107015740D01*
X120762667Y-107099000D01*
X121045333Y-107099000D01*
X121463909Y-107015740D01*
X121938577Y-106698577D01*
X122174000Y-106346242D01*
X122409423Y-106698577D01*
X122884091Y-107015740D01*
X123302667Y-107099000D01*
X123585333Y-107099000D01*
X124003909Y-107015740D01*
X124478577Y-106698577D01*
X124714000Y-106346242D01*
X124949423Y-106698577D01*
X125424091Y-107015740D01*
X125842667Y-107099000D01*
X126125333Y-107099000D01*
X126543909Y-107015740D01*
X127018577Y-106698577D01*
X127254000Y-106346242D01*
X127489423Y-106698577D01*
X127964091Y-107015740D01*
X128382667Y-107099000D01*
X128665333Y-107099000D01*
X129083909Y-107015740D01*
X129558577Y-106698577D01*
X129794000Y-106346242D01*
X130029423Y-106698577D01*
X130504091Y-107015740D01*
X130922667Y-107099000D01*
X131205333Y-107099000D01*
X131623909Y-107015740D01*
X132098577Y-106698577D01*
X132334000Y-106346242D01*
X132569423Y-106698577D01*
X133044091Y-107015740D01*
X133462667Y-107099000D01*
X133745333Y-107099000D01*
X134163909Y-107015740D01*
X134638577Y-106698577D01*
X134874000Y-106346242D01*
X135109423Y-106698577D01*
X135584091Y-107015740D01*
X136002667Y-107099000D01*
X136285333Y-107099000D01*
X136703909Y-107015740D01*
X137178577Y-106698577D01*
X137414000Y-106346242D01*
X137649423Y-106698577D01*
X138124091Y-107015740D01*
X138542667Y-107099000D01*
X138825333Y-107099000D01*
X139243909Y-107015740D01*
X139718577Y-106698577D01*
X139954000Y-106346242D01*
X140189423Y-106698577D01*
X140664091Y-107015740D01*
X141082667Y-107099000D01*
X141365333Y-107099000D01*
X141783909Y-107015740D01*
X142258577Y-106698577D01*
X142329735Y-106592082D01*
X142425673Y-106823698D01*
X142604301Y-107002327D01*
X142837690Y-107099000D01*
X143478250Y-107099000D01*
X143637000Y-106940250D01*
X143637000Y-105791000D01*
X143891000Y-105791000D01*
X143891000Y-106940250D01*
X144049750Y-107099000D01*
X144690310Y-107099000D01*
X144923699Y-107002327D01*
X145102327Y-106823698D01*
X145199000Y-106590309D01*
X145199000Y-105949750D01*
X145040250Y-105791000D01*
X143891000Y-105791000D01*
X143637000Y-105791000D01*
X143617000Y-105791000D01*
X143617000Y-105537000D01*
X143637000Y-105537000D01*
X143637000Y-104387750D01*
X143891000Y-104387750D01*
X143891000Y-105537000D01*
X145040250Y-105537000D01*
X145199000Y-105378250D01*
X145199000Y-104737691D01*
X145102327Y-104504302D01*
X144923699Y-104325673D01*
X144690310Y-104229000D01*
X144049750Y-104229000D01*
X143891000Y-104387750D01*
X143637000Y-104387750D01*
X143478250Y-104229000D01*
X142837690Y-104229000D01*
X142604301Y-104325673D01*
X142425673Y-104504302D01*
X142329735Y-104735918D01*
X142258577Y-104629423D01*
X141783909Y-104312260D01*
X141365333Y-104229000D01*
X141082667Y-104229000D01*
X140857531Y-104273782D01*
X137468293Y-100884545D01*
X137427903Y-100824097D01*
X137188452Y-100664101D01*
X136977298Y-100622100D01*
X136906000Y-100607918D01*
X136834702Y-100622100D01*
X118663849Y-100622100D01*
X115531900Y-97490152D01*
X115531900Y-89971029D01*
X115746644Y-89971029D01*
X115820778Y-90217148D01*
X116358006Y-90410249D01*
X116928237Y-90383062D01*
X117328788Y-90217148D01*
X117349304Y-90149034D01*
X121983683Y-90149034D01*
X121983683Y-90989594D01*
X122080356Y-91222983D01*
X122258985Y-91401611D01*
X122492374Y-91498284D01*
X123285433Y-91498284D01*
X123444183Y-91339534D01*
X123444183Y-89990284D01*
X122142433Y-89990284D01*
X121983683Y-90149034D01*
X117349304Y-90149034D01*
X117402922Y-89971029D01*
X116574783Y-89142889D01*
X115746644Y-89971029D01*
X115531900Y-89971029D01*
X115531900Y-89780839D01*
X115567038Y-89791423D01*
X116395178Y-88963284D01*
X116754388Y-88963284D01*
X117582528Y-89791423D01*
X117828647Y-89717289D01*
X118021748Y-89180061D01*
X118000623Y-88736974D01*
X121983683Y-88736974D01*
X121983683Y-89577534D01*
X122142433Y-89736284D01*
X123444183Y-89736284D01*
X123444183Y-88387034D01*
X123698183Y-88387034D01*
X123698183Y-89736284D01*
X123718183Y-89736284D01*
X123718183Y-89990284D01*
X123698183Y-89990284D01*
X123698183Y-91339534D01*
X123856933Y-91498284D01*
X124649992Y-91498284D01*
X124883381Y-91401611D01*
X125062010Y-91222983D01*
X125095739Y-91141554D01*
X125491773Y-91406175D01*
X126111183Y-91529384D01*
X126730594Y-91406175D01*
X127255706Y-91055307D01*
X127381183Y-90867517D01*
X127506660Y-91055307D01*
X128031773Y-91406175D01*
X128651183Y-91529384D01*
X129270594Y-91406175D01*
X129795706Y-91055307D01*
X130146574Y-90530194D01*
X130238683Y-90067133D01*
X130238683Y-89659434D01*
X130222454Y-89577845D01*
X132312583Y-89577845D01*
X132312583Y-90148723D01*
X132531049Y-90676146D01*
X132934721Y-91079818D01*
X133462144Y-91298284D01*
X134033022Y-91298284D01*
X134560445Y-91079818D01*
X134964117Y-90676146D01*
X135172630Y-90172750D01*
X145843100Y-90172750D01*
X145843100Y-91013310D01*
X145939773Y-91246699D01*
X146118402Y-91425327D01*
X146351791Y-91522000D01*
X147144850Y-91522000D01*
X147303600Y-91363250D01*
X147303600Y-90014000D01*
X146001850Y-90014000D01*
X145843100Y-90172750D01*
X135172630Y-90172750D01*
X135182583Y-90148723D01*
X135182583Y-89577845D01*
X134964117Y-89050422D01*
X134805440Y-88891745D01*
X138911861Y-88891745D01*
X138985995Y-89137864D01*
X139523223Y-89330965D01*
X140093454Y-89303778D01*
X140494005Y-89137864D01*
X140568139Y-88891745D01*
X139740000Y-88063605D01*
X138911861Y-88891745D01*
X134805440Y-88891745D01*
X134560445Y-88646750D01*
X134033022Y-88428284D01*
X133462144Y-88428284D01*
X132934721Y-88646750D01*
X132531049Y-89050422D01*
X132312583Y-89577845D01*
X130222454Y-89577845D01*
X130146574Y-89196373D01*
X129795706Y-88671261D01*
X129270593Y-88320393D01*
X128651183Y-88197184D01*
X128031772Y-88320393D01*
X127506660Y-88671261D01*
X127381183Y-88859051D01*
X127255706Y-88671261D01*
X126730593Y-88320393D01*
X126111183Y-88197184D01*
X125491772Y-88320393D01*
X125095739Y-88585013D01*
X125062010Y-88503585D01*
X124883381Y-88324957D01*
X124649992Y-88228284D01*
X123856933Y-88228284D01*
X123698183Y-88387034D01*
X123444183Y-88387034D01*
X123285433Y-88228284D01*
X122492374Y-88228284D01*
X122258985Y-88324957D01*
X122080356Y-88503585D01*
X121983683Y-88736974D01*
X118000623Y-88736974D01*
X117994561Y-88609830D01*
X117828647Y-88209279D01*
X117582528Y-88135145D01*
X116754388Y-88963284D01*
X116395178Y-88963284D01*
X115567038Y-88135145D01*
X115531900Y-88145729D01*
X115531900Y-88082298D01*
X115546082Y-88011000D01*
X115514695Y-87853207D01*
X115527018Y-87861441D01*
X115760970Y-87907977D01*
X115746644Y-87955539D01*
X116574783Y-88783679D01*
X117402922Y-87955539D01*
X117388596Y-87907977D01*
X117622548Y-87861441D01*
X117832592Y-87721093D01*
X117868587Y-87667223D01*
X138293035Y-87667223D01*
X138320222Y-88237454D01*
X138486136Y-88638005D01*
X138732255Y-88712139D01*
X139560395Y-87884000D01*
X139919605Y-87884000D01*
X140747745Y-88712139D01*
X140795307Y-88697813D01*
X140841843Y-88931765D01*
X140982191Y-89141809D01*
X141192235Y-89282157D01*
X141440000Y-89331440D01*
X143040000Y-89331440D01*
X143287765Y-89282157D01*
X143497809Y-89141809D01*
X143638157Y-88931765D01*
X143672185Y-88760690D01*
X145843100Y-88760690D01*
X145843100Y-89601250D01*
X146001850Y-89760000D01*
X147303600Y-89760000D01*
X147303600Y-88410750D01*
X147557600Y-88410750D01*
X147557600Y-89760000D01*
X147577600Y-89760000D01*
X147577600Y-90014000D01*
X147557600Y-90014000D01*
X147557600Y-91363250D01*
X147716350Y-91522000D01*
X148509409Y-91522000D01*
X148742798Y-91425327D01*
X148921427Y-91246699D01*
X148955156Y-91165270D01*
X149351190Y-91429891D01*
X149970600Y-91553100D01*
X150590011Y-91429891D01*
X151115123Y-91079023D01*
X151240600Y-90891233D01*
X151366077Y-91079023D01*
X151891190Y-91429891D01*
X152510600Y-91553100D01*
X153130011Y-91429891D01*
X153655123Y-91079023D01*
X154005991Y-90553910D01*
X154098100Y-90090849D01*
X154098100Y-89683150D01*
X154081871Y-89601561D01*
X156172000Y-89601561D01*
X156172000Y-90172439D01*
X156390466Y-90699862D01*
X156794138Y-91103534D01*
X157321561Y-91322000D01*
X157892439Y-91322000D01*
X158419862Y-91103534D01*
X158823534Y-90699862D01*
X159042000Y-90172439D01*
X159042000Y-89601561D01*
X158823534Y-89074138D01*
X158419862Y-88670466D01*
X157892439Y-88452000D01*
X157321561Y-88452000D01*
X156794138Y-88670466D01*
X156390466Y-89074138D01*
X156172000Y-89601561D01*
X154081871Y-89601561D01*
X154005991Y-89220089D01*
X153655123Y-88694977D01*
X153130010Y-88344109D01*
X152510600Y-88220900D01*
X151891189Y-88344109D01*
X151366077Y-88694977D01*
X151240600Y-88882767D01*
X151115123Y-88694977D01*
X150590010Y-88344109D01*
X149970600Y-88220900D01*
X149351189Y-88344109D01*
X148955156Y-88608729D01*
X148921427Y-88527301D01*
X148742798Y-88348673D01*
X148509409Y-88252000D01*
X147716350Y-88252000D01*
X147557600Y-88410750D01*
X147303600Y-88410750D01*
X147144850Y-88252000D01*
X146351791Y-88252000D01*
X146118402Y-88348673D01*
X145939773Y-88527301D01*
X145843100Y-88760690D01*
X143672185Y-88760690D01*
X143687440Y-88684000D01*
X143687440Y-87084000D01*
X143638157Y-86836235D01*
X143497809Y-86626191D01*
X143287765Y-86485843D01*
X143040000Y-86436560D01*
X141440000Y-86436560D01*
X141192235Y-86485843D01*
X140982191Y-86626191D01*
X140841843Y-86836235D01*
X140795307Y-87070187D01*
X140747745Y-87055861D01*
X139919605Y-87884000D01*
X139560395Y-87884000D01*
X138732255Y-87055861D01*
X138486136Y-87129995D01*
X138293035Y-87667223D01*
X117868587Y-87667223D01*
X117972940Y-87511049D01*
X118022223Y-87263284D01*
X118022223Y-86876255D01*
X138911861Y-86876255D01*
X139740000Y-87704395D01*
X140568139Y-86876255D01*
X140494005Y-86630136D01*
X139956777Y-86437035D01*
X139386546Y-86464222D01*
X138985995Y-86630136D01*
X138911861Y-86876255D01*
X118022223Y-86876255D01*
X118022223Y-85871029D01*
X132919444Y-85871029D01*
X132993578Y-86117148D01*
X133530806Y-86310249D01*
X134101037Y-86283062D01*
X134501588Y-86117148D01*
X134568578Y-85894745D01*
X156778861Y-85894745D01*
X156852995Y-86140864D01*
X157390223Y-86333965D01*
X157960454Y-86306778D01*
X158361005Y-86140864D01*
X158435139Y-85894745D01*
X157607000Y-85066605D01*
X156778861Y-85894745D01*
X134568578Y-85894745D01*
X134575722Y-85871029D01*
X133747583Y-85042889D01*
X132919444Y-85871029D01*
X118022223Y-85871029D01*
X118022223Y-85663284D01*
X117972940Y-85415519D01*
X117832592Y-85205475D01*
X117622548Y-85065127D01*
X117374783Y-85015844D01*
X115774783Y-85015844D01*
X115527018Y-85065127D01*
X115316974Y-85205475D01*
X115176626Y-85415519D01*
X115127343Y-85663284D01*
X115127343Y-87263284D01*
X115138097Y-87317347D01*
X112467256Y-84646507D01*
X132300618Y-84646507D01*
X132327805Y-85216738D01*
X132493719Y-85617289D01*
X132739838Y-85691423D01*
X133567978Y-84863284D01*
X133927188Y-84863284D01*
X134755328Y-85691423D01*
X135001447Y-85617289D01*
X135194548Y-85080061D01*
X135175009Y-84670223D01*
X156160035Y-84670223D01*
X156187222Y-85240454D01*
X156353136Y-85641005D01*
X156599255Y-85715139D01*
X157427395Y-84887000D01*
X157786605Y-84887000D01*
X158614745Y-85715139D01*
X158860864Y-85641005D01*
X159053965Y-85103777D01*
X159026778Y-84533546D01*
X158860864Y-84132995D01*
X158614745Y-84058861D01*
X157786605Y-84887000D01*
X157427395Y-84887000D01*
X156599255Y-84058861D01*
X156353136Y-84132995D01*
X156160035Y-84670223D01*
X135175009Y-84670223D01*
X135167361Y-84509830D01*
X135001447Y-84109279D01*
X134755328Y-84035145D01*
X133927188Y-84863284D01*
X133567978Y-84863284D01*
X132739838Y-84035145D01*
X132493719Y-84109279D01*
X132300618Y-84646507D01*
X112467256Y-84646507D01*
X112269150Y-84448402D01*
X112306000Y-84359439D01*
X112306000Y-83855539D01*
X132919444Y-83855539D01*
X133747583Y-84683679D01*
X134575722Y-83855539D01*
X134501588Y-83609420D01*
X133964360Y-83416319D01*
X133394129Y-83443506D01*
X132993578Y-83609420D01*
X132919444Y-83855539D01*
X112306000Y-83855539D01*
X112306000Y-83788561D01*
X112087534Y-83261138D01*
X111683862Y-82857466D01*
X111554784Y-82804000D01*
X111683862Y-82750534D01*
X112087534Y-82346862D01*
X112306000Y-81819439D01*
X112306000Y-81248561D01*
X112087534Y-80721138D01*
X111683862Y-80317466D01*
X111554784Y-80264000D01*
X111683862Y-80210534D01*
X112087534Y-79806862D01*
X112306000Y-79279439D01*
X112306000Y-78708561D01*
X112087534Y-78181138D01*
X112042375Y-78135979D01*
X130683000Y-78135979D01*
X130683000Y-79247501D01*
X131108361Y-80274414D01*
X131894326Y-81060379D01*
X132921239Y-81485740D01*
X134032761Y-81485740D01*
X135059674Y-81060379D01*
X135663192Y-80456861D01*
X135382000Y-81135719D01*
X135382000Y-82247241D01*
X135807361Y-83274154D01*
X136593326Y-84060119D01*
X137620239Y-84485480D01*
X138731761Y-84485480D01*
X139758674Y-84060119D01*
X139939538Y-83879255D01*
X156778861Y-83879255D01*
X157607000Y-84707395D01*
X158435139Y-83879255D01*
X158361005Y-83633136D01*
X157823777Y-83440035D01*
X157253546Y-83467222D01*
X156852995Y-83633136D01*
X156778861Y-83879255D01*
X139939538Y-83879255D01*
X140544639Y-83274154D01*
X140970000Y-82247241D01*
X140970000Y-81135719D01*
X140544639Y-80108806D01*
X139758674Y-79322841D01*
X138731761Y-78897480D01*
X137620239Y-78897480D01*
X136593326Y-79322841D01*
X135989808Y-79926359D01*
X136271000Y-79247501D01*
X136271000Y-78135979D01*
X136082869Y-77681790D01*
X136365815Y-77681790D01*
X136605963Y-78069035D01*
X137635127Y-78488921D01*
X138746634Y-78483001D01*
X139746037Y-78069035D01*
X139986185Y-77681790D01*
X138176000Y-75871605D01*
X136365815Y-77681790D01*
X136082869Y-77681790D01*
X135947037Y-77353863D01*
X136186210Y-77502185D01*
X137996395Y-75692000D01*
X138355605Y-75692000D01*
X140165790Y-77502185D01*
X140553035Y-77262037D01*
X140972921Y-76232873D01*
X140967001Y-75121366D01*
X140553035Y-74121963D01*
X140165790Y-73881815D01*
X138355605Y-75692000D01*
X137996395Y-75692000D01*
X136186210Y-73881815D01*
X135798965Y-74121963D01*
X135379079Y-75151127D01*
X135384999Y-76262634D01*
X135657795Y-76921222D01*
X135059674Y-76323101D01*
X134032761Y-75897740D01*
X132921239Y-75897740D01*
X131894326Y-76323101D01*
X131108361Y-77109066D01*
X130683000Y-78135979D01*
X112042375Y-78135979D01*
X111683862Y-77777466D01*
X111554784Y-77724000D01*
X111683862Y-77670534D01*
X112087534Y-77266862D01*
X112306000Y-76739439D01*
X112306000Y-76168561D01*
X112087534Y-75641138D01*
X111683862Y-75237466D01*
X111554784Y-75184000D01*
X111683862Y-75130534D01*
X112087534Y-74726862D01*
X112306000Y-74199439D01*
X112306000Y-73628561D01*
X112129845Y-73203284D01*
X123679459Y-73203284D01*
X123864563Y-74133864D01*
X124391694Y-74922773D01*
X125180603Y-75449904D01*
X125876286Y-75588284D01*
X126346080Y-75588284D01*
X127041763Y-75449904D01*
X127830672Y-74922773D01*
X128357803Y-74133864D01*
X128443664Y-73702210D01*
X136365815Y-73702210D01*
X138176000Y-75512395D01*
X139986185Y-73702210D01*
X139746037Y-73314965D01*
X139530430Y-73227000D01*
X147538876Y-73227000D01*
X147723980Y-74157580D01*
X148251111Y-74946489D01*
X149040020Y-75473620D01*
X149735703Y-75612000D01*
X150205497Y-75612000D01*
X150901180Y-75473620D01*
X151690089Y-74946489D01*
X152217220Y-74157580D01*
X152402324Y-73227000D01*
X152217220Y-72296420D01*
X151690089Y-71507511D01*
X150901180Y-70980380D01*
X150205497Y-70842000D01*
X149735703Y-70842000D01*
X149040020Y-70980380D01*
X148251111Y-71507511D01*
X147723980Y-72296420D01*
X147538876Y-73227000D01*
X139530430Y-73227000D01*
X138716873Y-72895079D01*
X137605366Y-72900999D01*
X136605963Y-73314965D01*
X136365815Y-73702210D01*
X128443664Y-73702210D01*
X128542907Y-73203284D01*
X128357803Y-72272704D01*
X127830672Y-71483795D01*
X127041763Y-70956664D01*
X126346080Y-70818284D01*
X125876286Y-70818284D01*
X125180603Y-70956664D01*
X124391694Y-71483795D01*
X123864563Y-72272704D01*
X123679459Y-73203284D01*
X112129845Y-73203284D01*
X112087534Y-73101138D01*
X111683862Y-72697466D01*
X111554784Y-72644000D01*
X111683862Y-72590534D01*
X112087534Y-72186862D01*
X112306000Y-71659439D01*
X112306000Y-71088561D01*
X112087534Y-70561138D01*
X111683862Y-70157466D01*
X111156439Y-69939000D01*
X110585561Y-69939000D01*
X110058138Y-70157466D01*
X109654466Y-70561138D01*
X109436000Y-71088561D01*
X109436000Y-71659439D01*
X109654466Y-72186862D01*
X110058138Y-72590534D01*
X110187216Y-72644000D01*
X110058138Y-72697466D01*
X109654466Y-73101138D01*
X109436000Y-73628561D01*
X109436000Y-74199439D01*
X109654466Y-74726862D01*
X110058138Y-75130534D01*
X110187216Y-75184000D01*
X110058138Y-75237466D01*
X109654466Y-75641138D01*
X109436000Y-76168561D01*
X109436000Y-76739439D01*
X109654466Y-77266862D01*
X110058138Y-77670534D01*
X110187216Y-77724000D01*
X110058138Y-77777466D01*
X109654466Y-78181138D01*
X109436000Y-78708561D01*
X109436000Y-79279439D01*
X109654466Y-79806862D01*
X110058138Y-80210534D01*
X110187216Y-80264000D01*
X110058138Y-80317466D01*
X109654466Y-80721138D01*
X109436000Y-81248561D01*
X109436000Y-81819439D01*
X109654466Y-82346862D01*
X110058138Y-82750534D01*
X110187216Y-82804000D01*
X110058138Y-82857466D01*
X109654466Y-83261138D01*
X109436000Y-83788561D01*
X109436000Y-84359439D01*
X109654466Y-84886862D01*
X110058138Y-85290534D01*
X110187216Y-85344000D01*
X110058138Y-85397466D01*
X109654466Y-85801138D01*
X109436000Y-86328561D01*
X109436000Y-86899439D01*
X109654466Y-87426862D01*
X110058138Y-87830534D01*
X110187216Y-87884000D01*
X110058138Y-87937466D01*
X109654466Y-88341138D01*
X109436000Y-88868561D01*
X109436000Y-89439439D01*
X109654466Y-89966862D01*
X110058138Y-90370534D01*
X110187216Y-90424000D01*
X110058138Y-90477466D01*
X109654466Y-90881138D01*
X109436000Y-91408561D01*
X109436000Y-91979439D01*
X109654466Y-92506862D01*
X110058138Y-92910534D01*
X110187216Y-92964000D01*
X110058138Y-93017466D01*
X109654466Y-93421138D01*
X109436000Y-93948561D01*
X109436000Y-94519439D01*
X109654466Y-95046862D01*
X110058138Y-95450534D01*
X110187216Y-95504000D01*
X110058138Y-95557466D01*
X109654466Y-95961138D01*
X109436000Y-96488561D01*
X109436000Y-97059439D01*
X109654466Y-97586862D01*
X110058138Y-97990534D01*
X110187216Y-98044000D01*
X110058138Y-98097466D01*
X109654466Y-98501138D01*
X109436000Y-99028561D01*
X109436000Y-99599439D01*
X109654466Y-100126862D01*
X110058138Y-100530534D01*
X110187216Y-100584000D01*
X110058138Y-100637466D01*
X109654466Y-101041138D01*
X109436000Y-101568561D01*
X109436000Y-102139439D01*
X109654466Y-102666862D01*
X110058138Y-103070534D01*
X110187216Y-103124000D01*
X110058138Y-103177466D01*
X109654466Y-103581138D01*
X109436000Y-104108561D01*
X109436000Y-104679439D01*
X109654466Y-105206862D01*
X110058138Y-105610534D01*
X110187216Y-105664000D01*
X110058138Y-105717466D01*
X109654466Y-106121138D01*
X109436000Y-106648561D01*
X109436000Y-107219439D01*
X109654466Y-107746862D01*
X110058138Y-108150534D01*
X110187216Y-108204000D01*
X110058138Y-108257466D01*
X109654466Y-108661138D01*
X109436000Y-109188561D01*
X109436000Y-109759439D01*
X109654466Y-110286862D01*
X110058138Y-110690534D01*
X110187216Y-110744000D01*
X110058138Y-110797466D01*
X109654466Y-111201138D01*
X109610152Y-111308121D01*
X97421601Y-99119571D01*
X97421601Y-85211998D01*
X97435783Y-85140700D01*
X97379600Y-84858249D01*
X97259990Y-84679241D01*
X97219603Y-84618798D01*
X97159161Y-84578412D01*
X97029150Y-84448402D01*
X97066000Y-84359439D01*
X97066000Y-83788561D01*
X96847534Y-83261138D01*
X96443862Y-82857466D01*
X96314784Y-82804000D01*
X96443862Y-82750534D01*
X96847534Y-82346862D01*
X97066000Y-81819439D01*
X97066000Y-81248561D01*
X96847534Y-80721138D01*
X96443862Y-80317466D01*
X96314784Y-80264000D01*
X96443862Y-80210534D01*
X96847534Y-79806862D01*
X97066000Y-79279439D01*
X97066000Y-78708561D01*
X96847534Y-78181138D01*
X96443862Y-77777466D01*
X96314784Y-77724000D01*
X96443862Y-77670534D01*
X96847534Y-77266862D01*
X97066000Y-76739439D01*
X97066000Y-76168561D01*
X96847534Y-75641138D01*
X96443862Y-75237466D01*
X96314784Y-75184000D01*
X96443862Y-75130534D01*
X96847534Y-74726862D01*
X97066000Y-74199439D01*
X97066000Y-73628561D01*
X96847534Y-73101138D01*
X96555396Y-72809000D01*
X96557310Y-72809000D01*
X96790699Y-72712327D01*
X96969327Y-72533698D01*
X97066000Y-72300309D01*
X97066000Y-71659750D01*
X96907250Y-71501000D01*
X95758000Y-71501000D01*
X95758000Y-71521000D01*
X95504000Y-71521000D01*
X95504000Y-71501000D01*
X94354750Y-71501000D01*
X94196000Y-71659750D01*
X91521017Y-71659750D01*
X91556741Y-71624026D01*
X91897000Y-70802569D01*
X91897000Y-70447691D01*
X94196000Y-70447691D01*
X94196000Y-71088250D01*
X94354750Y-71247000D01*
X95504000Y-71247000D01*
X95504000Y-70097750D01*
X95758000Y-70097750D01*
X95758000Y-71247000D01*
X96907250Y-71247000D01*
X97066000Y-71088250D01*
X97066000Y-70447691D01*
X96969327Y-70214302D01*
X96790699Y-70035673D01*
X96557310Y-69939000D01*
X95916750Y-69939000D01*
X95758000Y-70097750D01*
X95504000Y-70097750D01*
X95345250Y-69939000D01*
X94704690Y-69939000D01*
X94471301Y-70035673D01*
X94292673Y-70214302D01*
X94196000Y-70447691D01*
X91897000Y-70447691D01*
X91897000Y-69913431D01*
X91556741Y-69091974D01*
X91271767Y-68807000D01*
X156124233Y-68807000D01*
X155839259Y-69091974D01*
G04 #@! TD*
M02*
